solid OpenSCAD_Model
  facet normal 0 0 -1
    outer loop
      vertex 8.043 5 2
      vertex 14.265 20.296 2
      vertex 12.569 11.08 2
    endloop
  endfacet
  facet normal 0 0 -1
    outer loop
      vertex 12.569 11.08 2
      vertex 11.942 9.46399 2
      vertex 8.043 5 2
    endloop
  endfacet
  facet normal 0 0 -1
    outer loop
      vertex 18.885 9.46399 2
      vertex 22.741 5 2
      vertex 20.626 5 2
    endloop
  endfacet
  facet normal 0 0 -1
    outer loop
      vertex 18.269 11.08 2
      vertex 16.618 20.296 2
      vertex 22.741 5 2
    endloop
  endfacet
  facet normal 0 0 -1
    outer loop
      vertex 12.569 11.08 2
      vertex 18.269 11.08 2
      vertex 18.885 9.46399 2
    endloop
  endfacet
  facet normal 0 0 -1
    outer loop
      vertex 10.19 5 2
      vertex 8.043 5 2
      vertex 11.942 9.46399 2
    endloop
  endfacet
  facet normal 0 0 -1
    outer loop
      vertex 18.885 9.46399 2
      vertex 18.269 11.08 2
      vertex 22.741 5 2
    endloop
  endfacet
  facet normal 0 0 -1
    outer loop
      vertex 14.516 16.114 2
      vertex 14.265 20.296 2
      vertex 14.8405 16.9993 2
    endloop
  endfacet
  facet normal 0 0 -1
    outer loop
      vertex 11.942 9.46399 2
      vertex 12.569 11.08 2
      vertex 18.885 9.46399 2
    endloop
  endfacet
  facet normal 0 0 -1
    outer loop
      vertex 12.569 11.08 2
      vertex 14.265 20.296 2
      vertex 14.516 16.114 2
    endloop
  endfacet
  facet normal 0 0 -1
    outer loop
      vertex 15.414 18.734 2
      vertex 16.618 20.296 2
      vertex 15.706 17.832 2
    endloop
  endfacet
  facet normal 0 0 -1
    outer loop
      vertex 14.8405 16.9993 2
      vertex 14.265 20.296 2
      vertex 15.1075 17.7713 2
    endloop
  endfacet
  facet normal 0 0 -1
    outer loop
      vertex 15.1075 17.7713 2
      vertex 14.265 20.296 2
      vertex 15.414 18.734 2
    endloop
  endfacet
  facet normal 0 0 -1
    outer loop
      vertex 15.414 18.734 2
      vertex 14.265 20.296 2
      vertex 16.618 20.296 2
    endloop
  endfacet
  facet normal 0 0 -1
    outer loop
      vertex 15.706 17.832 2
      vertex 16.618 20.296 2
      vertex 15.908 17.2231 2
    endloop
  endfacet
  facet normal 0 0 -1
    outer loop
      vertex 15.908 17.2231 2
      vertex 16.618 20.296 2
      vertex 16.11 16.6578 2
    endloop
  endfacet
  facet normal 0 0 -1
    outer loop
      vertex 16.11 16.6578 2
      vertex 16.618 20.296 2
      vertex 18.269 11.08 2
    endloop
  endfacet
  facet normal 0 -0 -1
    outer loop
      vertex 30.4736 15.163 2
      vertex 30.4736 5 2
      vertex 28.6306 5 2
    endloop
  endfacet
  facet normal 0 0 -1
    outer loop
      vertex 28.6306 20.296 2
      vertex 30.4196 16.977 2
      vertex 30.4736 15.163 2
    endloop
  endfacet
  facet normal 0 0 -1
    outer loop
      vertex 28.6306 20.296 2
      vertex 30.3656 18.03 2
      vertex 30.4196 16.977 2
    endloop
  endfacet
  facet normal -0 0 -1
    outer loop
      vertex 41.0556 20.296 2
      vertex 39.1906 10.264 2
      vertex 39.1906 20.296 2
    endloop
  endfacet
  facet normal 0 -0 -1
    outer loop
      vertex 41.0556 20.296 2
      vertex 41.0556 5 2
      vertex 39.1906 10.264 2
    endloop
  endfacet
  facet normal 0 0 -1
    outer loop
      vertex 28.6306 20.296 2
      vertex 31.0376 20.296 2
      vertex 30.3656 18.03 2
    endloop
  endfacet
  facet normal -0 0 -1
    outer loop
      vertex 30.4736 15.163 2
      vertex 28.6306 5 2
      vertex 28.6306 20.296 2
    endloop
  endfacet
  facet normal 0 0 -1
    outer loop
      vertex 39.1906 10.264 2
      vertex 41.0556 5 2
      vertex 39.205 9.49643 2
    endloop
  endfacet
  facet normal 0 0 -1
    outer loop
      vertex 39.205 9.49643 2
      vertex 41.0556 5 2
      vertex 39.2483 8.46843 2
    endloop
  endfacet
  facet normal 0 0 -1
    outer loop
      vertex 39.2483 8.46843 2
      vertex 41.0556 5 2
      vertex 39.3206 7.17999 2
    endloop
  endfacet
  facet normal 0 -0 -1
    outer loop
      vertex 39.3206 7.17999 2
      vertex 41.0556 5 2
      vertex 38.5616 5 2
    endloop
  endfacet
  facet normal 0 0 -1
    outer loop
      vertex 38.5616 5 2
      vertex 30.3656 18.03 2
      vertex 39.3206 7.17999 2
    endloop
  endfacet
  facet normal 0 0 -1
    outer loop
      vertex 30.3656 18.03 2
      vertex 31.0376 20.296 2
      vertex 39.3206 7.17999 2
    endloop
  endfacet
  facet normal 0 -0 1
    outer loop
      vertex 12.569 11.08 4
      vertex 14.265 20.296 4
      vertex 8.043 5 4
    endloop
  endfacet
  facet normal 0 0 1
    outer loop
      vertex 8.043 5 4
      vertex 11.942 9.46399 4
      vertex 12.569 11.08 4
    endloop
  endfacet
  facet normal 0 -0 1
    outer loop
      vertex 20.626 5 4
      vertex 22.741 5 4
      vertex 18.885 9.46399 4
    endloop
  endfacet
  facet normal 0 0 1
    outer loop
      vertex 22.741 5 4
      vertex 16.618 20.296 4
      vertex 18.269 11.08 4
    endloop
  endfacet
  facet normal 0 0 1
    outer loop
      vertex 18.885 9.46399 4
      vertex 18.269 11.08 4
      vertex 12.569 11.08 4
    endloop
  endfacet
  facet normal 0 0 1
    outer loop
      vertex 11.942 9.46399 4
      vertex 8.043 5 4
      vertex 10.19 5 4
    endloop
  endfacet
  facet normal 0 0 1
    outer loop
      vertex 22.741 5 4
      vertex 18.269 11.08 4
      vertex 18.885 9.46399 4
    endloop
  endfacet
  facet normal 0 0 1
    outer loop
      vertex 14.8405 16.9993 4
      vertex 14.265 20.296 4
      vertex 14.516 16.114 4
    endloop
  endfacet
  facet normal 0 0 1
    outer loop
      vertex 18.885 9.46399 4
      vertex 12.569 11.08 4
      vertex 11.942 9.46399 4
    endloop
  endfacet
  facet normal 0 0 1
    outer loop
      vertex 14.516 16.114 4
      vertex 14.265 20.296 4
      vertex 12.569 11.08 4
    endloop
  endfacet
  facet normal 0 -0 1
    outer loop
      vertex 15.706 17.832 4
      vertex 16.618 20.296 4
      vertex 15.414 18.734 4
    endloop
  endfacet
  facet normal 0 0 1
    outer loop
      vertex 15.1075 17.7713 4
      vertex 14.265 20.296 4
      vertex 14.8405 16.9993 4
    endloop
  endfacet
  facet normal 0 0 1
    outer loop
      vertex 15.414 18.734 4
      vertex 14.265 20.296 4
      vertex 15.1075 17.7713 4
    endloop
  endfacet
  facet normal 0 0 1
    outer loop
      vertex 16.618 20.296 4
      vertex 14.265 20.296 4
      vertex 15.414 18.734 4
    endloop
  endfacet
  facet normal 0 -0 1
    outer loop
      vertex 15.908 17.2231 4
      vertex 16.618 20.296 4
      vertex 15.706 17.832 4
    endloop
  endfacet
  facet normal 0 -0 1
    outer loop
      vertex 16.11 16.6578 4
      vertex 16.618 20.296 4
      vertex 15.908 17.2231 4
    endloop
  endfacet
  facet normal 0 0 1
    outer loop
      vertex 18.269 11.08 4
      vertex 16.618 20.296 4
      vertex 16.11 16.6578 4
    endloop
  endfacet
  facet normal 0 0 1
    outer loop
      vertex 28.6306 5 4
      vertex 30.4736 5 4
      vertex 30.4736 15.163 4
    endloop
  endfacet
  facet normal 0 0 1
    outer loop
      vertex 30.4736 15.163 4
      vertex 30.4196 16.977 4
      vertex 28.6306 20.296 4
    endloop
  endfacet
  facet normal 0 0 1
    outer loop
      vertex 30.4196 16.977 4
      vertex 30.3656 18.03 4
      vertex 28.6306 20.296 4
    endloop
  endfacet
  facet normal -0 0 1
    outer loop
      vertex 39.1906 20.296 4
      vertex 39.1906 10.264 4
      vertex 41.0556 20.296 4
    endloop
  endfacet
  facet normal -0 0 1
    outer loop
      vertex 39.1906 10.264 4
      vertex 41.0556 5 4
      vertex 41.0556 20.296 4
    endloop
  endfacet
  facet normal 0 -0 1
    outer loop
      vertex 30.3656 18.03 4
      vertex 31.0376 20.296 4
      vertex 28.6306 20.296 4
    endloop
  endfacet
  facet normal 0 0 1
    outer loop
      vertex 28.6306 20.296 4
      vertex 28.6306 5 4
      vertex 30.4736 15.163 4
    endloop
  endfacet
  facet normal -0 -0 1
    outer loop
      vertex 39.205 9.49643 4
      vertex 41.0556 5 4
      vertex 39.1906 10.264 4
    endloop
  endfacet
  facet normal -0 -0 1
    outer loop
      vertex 39.2483 8.46843 4
      vertex 41.0556 5 4
      vertex 39.205 9.49643 4
    endloop
  endfacet
  facet normal -0 -0 1
    outer loop
      vertex 39.3206 7.17999 4
      vertex 41.0556 5 4
      vertex 39.2483 8.46843 4
    endloop
  endfacet
  facet normal 0 0 1
    outer loop
      vertex 38.5616 5 4
      vertex 41.0556 5 4
      vertex 39.3206 7.17999 4
    endloop
  endfacet
  facet normal 0 0 1
    outer loop
      vertex 39.3206 7.17999 4
      vertex 30.3656 18.03 4
      vertex 38.5616 5 4
    endloop
  endfacet
  facet normal 0 0 1
    outer loop
      vertex 39.3206 7.17999 4
      vertex 31.0376 20.296 4
      vertex 30.3656 18.03 4
    endloop
  endfacet
  facet normal 0 -1 0
    outer loop
      vertex 18.885 9.46399 2
      vertex 11.942 9.46399 4
      vertex 11.942 9.46399 2
    endloop
  endfacet
  facet normal 0 -1 0
    outer loop
      vertex 18.885 9.46399 2
      vertex 18.885 9.46399 4
      vertex 11.942 9.46399 4
    endloop
  endfacet
  facet normal -0.931652 -0.363353 0
    outer loop
      vertex 20.626 5 2
      vertex 18.885 9.46399 4
      vertex 18.885 9.46399 2
    endloop
  endfacet
  facet normal -0.931652 -0.363353 0
    outer loop
      vertex 20.626 5 2
      vertex 20.626 5 4
      vertex 18.885 9.46399 4
    endloop
  endfacet
  facet normal 0 -1 0
    outer loop
      vertex 22.741 5 2
      vertex 20.626 5 4
      vertex 20.626 5 2
    endloop
  endfacet
  facet normal 0 -1 0
    outer loop
      vertex 22.741 5 2
      vertex 22.741 5 4
      vertex 20.626 5 4
    endloop
  endfacet
  facet normal 0.92838 0.371632 0
    outer loop
      vertex 16.618 20.296 2
      vertex 22.741 5 4
      vertex 22.741 5 2
    endloop
  endfacet
  facet normal 0.92838 0.371632 -0
    outer loop
      vertex 16.618 20.296 2
      vertex 16.618 20.296 4
      vertex 22.741 5 4
    endloop
  endfacet
  facet normal 0 1 0
    outer loop
      vertex 14.265 20.296 2
      vertex 16.618 20.296 4
      vertex 16.618 20.296 2
    endloop
  endfacet
  facet normal 0 1 0
    outer loop
      vertex 14.265 20.296 2
      vertex 14.265 20.296 4
      vertex 16.618 20.296 4
    endloop
  endfacet
  facet normal -0.926297 0.376793 0
    outer loop
      vertex 8.043 5 2
      vertex 14.265 20.296 4
      vertex 14.265 20.296 2
    endloop
  endfacet
  facet normal -0.926297 0.376793 0
    outer loop
      vertex 8.043 5 2
      vertex 8.043 5 4
      vertex 14.265 20.296 4
    endloop
  endfacet
  facet normal 0 -1 0
    outer loop
      vertex 10.19 5 2
      vertex 8.043 5 4
      vertex 8.043 5 2
    endloop
  endfacet
  facet normal 0 -1 0
    outer loop
      vertex 10.19 5 2
      vertex 10.19 5 4
      vertex 8.043 5 4
    endloop
  endfacet
  facet normal 0.930873 -0.365343 0
    outer loop
      vertex 11.942 9.46399 2
      vertex 10.19 5 4
      vertex 10.19 5 2
    endloop
  endfacet
  facet normal 0.930873 -0.365343 0
    outer loop
      vertex 11.942 9.46399 2
      vertex 11.942 9.46399 4
      vertex 10.19 5 4
    endloop
  endfacet
  facet normal 0.932671 -0.360729 0
    outer loop
      vertex 14.516 16.114 2
      vertex 14.516 16.114 4
      vertex 12.569 11.08 2
    endloop
  endfacet
  facet normal 0.932671 -0.360729 0
    outer loop
      vertex 12.569 11.08 4
      vertex 12.569 11.08 2
      vertex 14.516 16.114 4
    endloop
  endfacet
  facet normal 0.938899 -0.344192 0
    outer loop
      vertex 14.8405 16.9993 2
      vertex 14.8405 16.9993 4
      vertex 14.516 16.114 2
    endloop
  endfacet
  facet normal 0.938899 -0.344192 0
    outer loop
      vertex 14.516 16.114 4
      vertex 14.516 16.114 2
      vertex 14.8405 16.9993 4
    endloop
  endfacet
  facet normal 0.945074 -0.326855 0
    outer loop
      vertex 15.1075 17.7713 2
      vertex 15.1075 17.7713 4
      vertex 14.8405 16.9993 2
    endloop
  endfacet
  facet normal 0.945074 -0.326855 0
    outer loop
      vertex 14.8405 16.9993 4
      vertex 14.8405 16.9993 2
      vertex 15.1075 17.7713 4
    endloop
  endfacet
  facet normal 0.952886 -0.30333 0
    outer loop
      vertex 15.414 18.734 2
      vertex 15.414 18.734 4
      vertex 15.1075 17.7713 2
    endloop
  endfacet
  facet normal 0.952886 -0.30333 0
    outer loop
      vertex 15.1075 17.7713 4
      vertex 15.1075 17.7713 2
      vertex 15.414 18.734 4
    endloop
  endfacet
  facet normal -0.951388 -0.307993 0
    outer loop
      vertex 15.706 17.832 2
      vertex 15.706 17.832 4
      vertex 15.414 18.734 2
    endloop
  endfacet
  facet normal -0.951388 -0.307993 -0
    outer loop
      vertex 15.414 18.734 4
      vertex 15.414 18.734 2
      vertex 15.706 17.832 4
    endloop
  endfacet
  facet normal -0.949134 -0.314872 0
    outer loop
      vertex 15.908 17.2231 2
      vertex 15.908 17.2231 4
      vertex 15.706 17.832 2
    endloop
  endfacet
  facet normal -0.949134 -0.314872 -0
    outer loop
      vertex 15.706 17.832 4
      vertex 15.706 17.832 2
      vertex 15.908 17.2231 4
    endloop
  endfacet
  facet normal -0.941692 -0.336476 0
    outer loop
      vertex 16.11 16.6578 2
      vertex 16.11 16.6578 4
      vertex 15.908 17.2231 2
    endloop
  endfacet
  facet normal -0.941692 -0.336476 -0
    outer loop
      vertex 15.908 17.2231 4
      vertex 15.908 17.2231 2
      vertex 16.11 16.6578 4
    endloop
  endfacet
  facet normal -0.932576 -0.360975 0
    outer loop
      vertex 18.269 11.08 2
      vertex 18.269 11.08 4
      vertex 16.11 16.6578 2
    endloop
  endfacet
  facet normal -0.932576 -0.360975 -0
    outer loop
      vertex 16.11 16.6578 4
      vertex 16.11 16.6578 2
      vertex 18.269 11.08 4
    endloop
  endfacet
  facet normal 0 1 0
    outer loop
      vertex 12.569 11.08 2
      vertex 12.569 11.08 4
      vertex 18.269 11.08 2
    endloop
  endfacet
  facet normal 0 1 0
    outer loop
      vertex 18.269 11.08 4
      vertex 18.269 11.08 2
      vertex 12.569 11.08 4
    endloop
  endfacet
  facet normal 0.999557 0.0297558 0
    outer loop
      vertex 30.4196 16.977 2
      vertex 30.4736 15.163 4
      vertex 30.4736 15.163 2
    endloop
  endfacet
  facet normal 0.999557 0.0297558 -0
    outer loop
      vertex 30.4196 16.977 2
      vertex 30.4196 16.977 4
      vertex 30.4736 15.163 4
    endloop
  endfacet
  facet normal 0.998688 0.0512151 0
    outer loop
      vertex 30.3656 18.03 2
      vertex 30.4196 16.977 4
      vertex 30.4196 16.977 2
    endloop
  endfacet
  facet normal 0.998688 0.0512151 -0
    outer loop
      vertex 30.3656 18.03 2
      vertex 30.3656 18.03 4
      vertex 30.4196 16.977 4
    endloop
  endfacet
  facet normal -0.846469 -0.532438 0
    outer loop
      vertex 38.5616 5 2
      vertex 30.3656 18.03 4
      vertex 30.3656 18.03 2
    endloop
  endfacet
  facet normal -0.846469 -0.532438 0
    outer loop
      vertex 38.5616 5 2
      vertex 38.5616 5 4
      vertex 30.3656 18.03 4
    endloop
  endfacet
  facet normal 0 -1 0
    outer loop
      vertex 41.0556 5 2
      vertex 38.5616 5 4
      vertex 38.5616 5 2
    endloop
  endfacet
  facet normal 0 -1 0
    outer loop
      vertex 41.0556 5 2
      vertex 41.0556 5 4
      vertex 38.5616 5 4
    endloop
  endfacet
  facet normal 1 0 0
    outer loop
      vertex 41.0556 20.296 2
      vertex 41.0556 5 4
      vertex 41.0556 5 2
    endloop
  endfacet
  facet normal 1 0 -0
    outer loop
      vertex 41.0556 20.296 2
      vertex 41.0556 20.296 4
      vertex 41.0556 5 4
    endloop
  endfacet
  facet normal 0 1 0
    outer loop
      vertex 39.1906 20.296 2
      vertex 41.0556 20.296 4
      vertex 41.0556 20.296 2
    endloop
  endfacet
  facet normal 0 1 0
    outer loop
      vertex 39.1906 20.296 2
      vertex 39.1906 20.296 4
      vertex 41.0556 20.296 4
    endloop
  endfacet
  facet normal -1 0 0
    outer loop
      vertex 39.1906 10.264 2
      vertex 39.1906 20.296 4
      vertex 39.1906 20.296 2
    endloop
  endfacet
  facet normal -1 0 0
    outer loop
      vertex 39.1906 10.264 2
      vertex 39.1906 10.264 4
      vertex 39.1906 20.296 4
    endloop
  endfacet
  facet normal -0.999823 -0.0188226 0
    outer loop
      vertex 39.205 9.49643 2
      vertex 39.1906 10.264 4
      vertex 39.1906 10.264 2
    endloop
  endfacet
  facet normal -0.999823 -0.0188226 0
    outer loop
      vertex 39.205 9.49643 2
      vertex 39.205 9.49643 4
      vertex 39.1906 10.264 4
    endloop
  endfacet
  facet normal -0.999113 -0.0421172 0
    outer loop
      vertex 39.2483 8.46843 2
      vertex 39.205 9.49643 4
      vertex 39.205 9.49643 2
    endloop
  endfacet
  facet normal -0.999113 -0.0421172 0
    outer loop
      vertex 39.2483 8.46843 2
      vertex 39.2483 8.46843 4
      vertex 39.205 9.49643 4
    endloop
  endfacet
  facet normal -0.998433 -0.0559645 0
    outer loop
      vertex 39.3206 7.17999 2
      vertex 39.2483 8.46843 4
      vertex 39.2483 8.46843 2
    endloop
  endfacet
  facet normal -0.998433 -0.0559645 0
    outer loop
      vertex 39.3206 7.17999 2
      vertex 39.3206 7.17999 4
      vertex 39.2483 8.46843 4
    endloop
  endfacet
  facet normal 0.845512 0.533957 0
    outer loop
      vertex 31.0376 20.296 2
      vertex 39.3206 7.17999 4
      vertex 39.3206 7.17999 2
    endloop
  endfacet
  facet normal 0.845512 0.533957 -0
    outer loop
      vertex 31.0376 20.296 2
      vertex 31.0376 20.296 4
      vertex 39.3206 7.17999 4
    endloop
  endfacet
  facet normal 0 1 0
    outer loop
      vertex 28.6306 20.296 2
      vertex 31.0376 20.296 4
      vertex 31.0376 20.296 2
    endloop
  endfacet
  facet normal 0 1 0
    outer loop
      vertex 28.6306 20.296 2
      vertex 28.6306 20.296 4
      vertex 31.0376 20.296 4
    endloop
  endfacet
  facet normal -1 0 0
    outer loop
      vertex 28.6306 5 2
      vertex 28.6306 20.296 4
      vertex 28.6306 20.296 2
    endloop
  endfacet
  facet normal -1 0 0
    outer loop
      vertex 28.6306 5 2
      vertex 28.6306 5 4
      vertex 28.6306 20.296 4
    endloop
  endfacet
  facet normal 0 -1 0
    outer loop
      vertex 30.4736 5 2
      vertex 28.6306 5 4
      vertex 28.6306 5 2
    endloop
  endfacet
  facet normal 0 -1 0
    outer loop
      vertex 30.4736 5 2
      vertex 30.4736 5 4
      vertex 28.6306 5 4
    endloop
  endfacet
  facet normal 1 0 0
    outer loop
      vertex 30.4736 15.163 2
      vertex 30.4736 5 4
      vertex 30.4736 5 2
    endloop
  endfacet
  facet normal 1 0 -0
    outer loop
      vertex 30.4736 15.163 2
      vertex 30.4736 15.163 4
      vertex 30.4736 5 4
    endloop
  endfacet
endsolid OpenSCAD_Model
