solid OpenSCAD_Model
  facet normal 0 0 -1
    outer loop
      vertex 8.043 5 2
      vertex 14.265 20.296 2
      vertex 12.569 11.08 2
    endloop
  endfacet
  facet normal 0 0 -1
    outer loop
      vertex 12.569 11.08 2
      vertex 11.942 9.46399 2
      vertex 8.043 5 2
    endloop
  endfacet
  facet normal 0 0 -1
    outer loop
      vertex 18.885 9.46399 2
      vertex 22.741 5 2
      vertex 20.626 5 2
    endloop
  endfacet
  facet normal 0 0 -1
    outer loop
      vertex 18.269 11.08 2
      vertex 16.618 20.296 2
      vertex 22.741 5 2
    endloop
  endfacet
  facet normal 0 0 -1
    outer loop
      vertex 12.569 11.08 2
      vertex 18.269 11.08 2
      vertex 18.885 9.46399 2
    endloop
  endfacet
  facet normal 0 0 -1
    outer loop
      vertex 10.19 5 2
      vertex 8.043 5 2
      vertex 11.942 9.46399 2
    endloop
  endfacet
  facet normal 0 0 -1
    outer loop
      vertex 18.885 9.46399 2
      vertex 18.269 11.08 2
      vertex 22.741 5 2
    endloop
  endfacet
  facet normal 0 0 -1
    outer loop
      vertex 14.516 16.114 2
      vertex 14.265 20.296 2
      vertex 14.8405 16.9993 2
    endloop
  endfacet
  facet normal 0 0 -1
    outer loop
      vertex 11.942 9.46399 2
      vertex 12.569 11.08 2
      vertex 18.885 9.46399 2
    endloop
  endfacet
  facet normal 0 0 -1
    outer loop
      vertex 12.569 11.08 2
      vertex 14.265 20.296 2
      vertex 14.516 16.114 2
    endloop
  endfacet
  facet normal 0 0 -1
    outer loop
      vertex 15.414 18.734 2
      vertex 16.618 20.296 2
      vertex 15.706 17.832 2
    endloop
  endfacet
  facet normal 0 0 -1
    outer loop
      vertex 14.8405 16.9993 2
      vertex 14.265 20.296 2
      vertex 15.1075 17.7713 2
    endloop
  endfacet
  facet normal 0 0 -1
    outer loop
      vertex 15.1075 17.7713 2
      vertex 14.265 20.296 2
      vertex 15.414 18.734 2
    endloop
  endfacet
  facet normal 0 0 -1
    outer loop
      vertex 15.414 18.734 2
      vertex 14.265 20.296 2
      vertex 16.618 20.296 2
    endloop
  endfacet
  facet normal 0 0 -1
    outer loop
      vertex 15.706 17.832 2
      vertex 16.618 20.296 2
      vertex 15.908 17.2231 2
    endloop
  endfacet
  facet normal 0 0 -1
    outer loop
      vertex 15.908 17.2231 2
      vertex 16.618 20.296 2
      vertex 16.11 16.6578 2
    endloop
  endfacet
  facet normal 0 0 -1
    outer loop
      vertex 16.11 16.6578 2
      vertex 16.618 20.296 2
      vertex 18.269 11.08 2
    endloop
  endfacet
  facet normal -0 0 -1
    outer loop
      vertex 34.3991 10.6679 2
      vertex 32.2705 9.42699 2
      vertex 32.7574 11.2622 2
    endloop
  endfacet
  facet normal 0 0 -1
    outer loop
      vertex 35.3878 14.2942 2
      vertex 34.3991 10.6679 2
      vertex 32.7574 11.2622 2
    endloop
  endfacet
  facet normal 0 -0 -1
    outer loop
      vertex 33.762 14.8852 2
      vertex 35.3878 14.2942 2
      vertex 32.7574 11.2622 2
    endloop
  endfacet
  facet normal 0 0 -1
    outer loop
      vertex 36.104 17.1919 2
      vertex 35.8045 15.879 2
      vertex 33.762 14.8852 2
    endloop
  endfacet
  facet normal 0 -0 -1
    outer loop
      vertex 35.2845 20.296 2
      vertex 36.104 17.1919 2
      vertex 33.762 14.8852 2
    endloop
  endfacet
  facet normal 0 0 -1
    outer loop
      vertex 35.2845 20.296 2
      vertex 36.2825 17.986 2
      vertex 36.104 17.1919 2
    endloop
  endfacet
  facet normal 0 -0 -1
    outer loop
      vertex 44.5175 20.296 2
      vertex 46.6755 20.296 2
      vertex 42.903 14.5024 2
    endloop
  endfacet
  facet normal 0 0 -1
    outer loop
      vertex 42.1675 5 2
      vertex 39.6955 5 2
      vertex 40.8875 6.82199 2
    endloop
  endfacet
  facet normal 0 0 -1
    outer loop
      vertex 35.2845 20.296 2
      vertex 37.2685 20.296 2
      vertex 36.2825 17.986 2
    endloop
  endfacet
  facet normal 0 0 -1
    outer loop
      vertex 33.762 14.8852 2
      vertex 35.8045 15.879 2
      vertex 35.3878 14.2942 2
    endloop
  endfacet
  facet normal 0 -0 -1
    outer loop
      vertex 40.6266 7.98021 2
      vertex 40.8875 6.82199 2
      vertex 39.6955 5 2
    endloop
  endfacet
  facet normal 0 -0 -1
    outer loop
      vertex 42.903 14.5024 2
      vertex 46.6755 20.296 2
      vertex 42.1675 5 2
    endloop
  endfacet
  facet normal 0 0 -1
    outer loop
      vertex 42.1675 5 2
      vertex 41.885 10.8164 2
      vertex 42.903 14.5024 2
    endloop
  endfacet
  facet normal 0 0 -1
    outer loop
      vertex 42.1675 5 2
      vertex 41.4635 9.23799 2
      vertex 41.885 10.8164 2
    endloop
  endfacet
  facet normal 0 0 -1
    outer loop
      vertex 39.6955 5 2
      vertex 37.0435 14.718 2
      vertex 39.9315 10.774 2
    endloop
  endfacet
  facet normal 0 0 -1
    outer loop
      vertex 42.1675 5 2
      vertex 40.9855 7.202 2
      vertex 41.4635 9.23799 2
    endloop
  endfacet
  facet normal 0 0 -1
    outer loop
      vertex 39.6955 5 2
      vertex 40.3079 9.29755 2
      vertex 40.6266 7.98021 2
    endloop
  endfacet
  facet normal 0 0 -1
    outer loop
      vertex 42.1675 5 2
      vertex 40.8875 6.82199 2
      vertex 40.9855 7.202 2
    endloop
  endfacet
  facet normal 0 0 -1
    outer loop
      vertex 39.6955 5 2
      vertex 39.9315 10.774 2
      vertex 40.3079 9.29755 2
    endloop
  endfacet
  facet normal 0 0 -1
    outer loop
      vertex 37.2685 20.296 2
      vertex 36.5892 16.5758 2
      vertex 36.2825 17.986 2
    endloop
  endfacet
  facet normal 0 0 -1
    outer loop
      vertex 37.0435 14.718 2
      vertex 36.8429 15.4864 2
      vertex 39.9315 10.774 2
    endloop
  endfacet
  facet normal 0 0 -1
    outer loop
      vertex 36.8429 15.4864 2
      vertex 37.2685 20.296 2
      vertex 39.9315 10.774 2
    endloop
  endfacet
  facet normal 0 0 -1
    outer loop
      vertex 36.5892 16.5758 2
      vertex 37.2685 20.296 2
      vertex 36.8429 15.4864 2
    endloop
  endfacet
  facet normal 0 0 -1
    outer loop
      vertex 34.3991 10.6679 2
      vertex 32.0515 8.51044 2
      vertex 32.2705 9.42699 2
    endloop
  endfacet
  facet normal 0 0 -1
    outer loop
      vertex 34.3991 10.6679 2
      vertex 32.8385 5 2
      vertex 32.0515 8.51044 2
    endloop
  endfacet
  facet normal 0 -0 -1
    outer loop
      vertex 32.0515 8.51044 2
      vertex 32.8385 5 2
      vertex 31.8505 7.64211 2
    endloop
  endfacet
  facet normal 0 -0 -1
    outer loop
      vertex 31.8505 7.64211 2
      vertex 32.8385 5 2
      vertex 31.6675 6.82199 2
    endloop
  endfacet
  facet normal 0 -0 -1
    outer loop
      vertex 31.6675 6.82199 2
      vertex 32.8385 5 2
      vertex 30.3665 5 2
    endloop
  endfacet
  facet normal -0 0 -1
    outer loop
      vertex 31.3837 8.09854 2
      vertex 30.3665 5 2
      vertex 31.083 9.35088 2
    endloop
  endfacet
  facet normal 0 0 -1
    outer loop
      vertex 30.7655 10.579 2
      vertex 25.8575 20.296 2
      vertex 28.0155 20.296 2
    endloop
  endfacet
  facet normal -0 0 -1
    outer loop
      vertex 31.6675 6.82199 2
      vertex 30.3665 5 2
      vertex 31.3837 8.09854 2
    endloop
  endfacet
  facet normal -0 0 -1
    outer loop
      vertex 30.7655 10.579 2
      vertex 30.3665 5 2
      vertex 25.8575 20.296 2
    endloop
  endfacet
  facet normal -0 0 -1
    outer loop
      vertex 31.083 9.35088 2
      vertex 30.3665 5 2
      vertex 30.7655 10.579 2
    endloop
  endfacet
  facet normal 0 -0 1
    outer loop
      vertex 12.569 11.08 4
      vertex 14.265 20.296 4
      vertex 8.043 5 4
    endloop
  endfacet
  facet normal 0 0 1
    outer loop
      vertex 8.043 5 4
      vertex 11.942 9.46399 4
      vertex 12.569 11.08 4
    endloop
  endfacet
  facet normal 0 -0 1
    outer loop
      vertex 20.626 5 4
      vertex 22.741 5 4
      vertex 18.885 9.46399 4
    endloop
  endfacet
  facet normal 0 0 1
    outer loop
      vertex 22.741 5 4
      vertex 16.618 20.296 4
      vertex 18.269 11.08 4
    endloop
  endfacet
  facet normal 0 0 1
    outer loop
      vertex 18.885 9.46399 4
      vertex 18.269 11.08 4
      vertex 12.569 11.08 4
    endloop
  endfacet
  facet normal 0 0 1
    outer loop
      vertex 11.942 9.46399 4
      vertex 8.043 5 4
      vertex 10.19 5 4
    endloop
  endfacet
  facet normal 0 0 1
    outer loop
      vertex 22.741 5 4
      vertex 18.269 11.08 4
      vertex 18.885 9.46399 4
    endloop
  endfacet
  facet normal 0 0 1
    outer loop
      vertex 14.8405 16.9993 4
      vertex 14.265 20.296 4
      vertex 14.516 16.114 4
    endloop
  endfacet
  facet normal 0 0 1
    outer loop
      vertex 18.885 9.46399 4
      vertex 12.569 11.08 4
      vertex 11.942 9.46399 4
    endloop
  endfacet
  facet normal 0 0 1
    outer loop
      vertex 14.516 16.114 4
      vertex 14.265 20.296 4
      vertex 12.569 11.08 4
    endloop
  endfacet
  facet normal 0 -0 1
    outer loop
      vertex 15.706 17.832 4
      vertex 16.618 20.296 4
      vertex 15.414 18.734 4
    endloop
  endfacet
  facet normal 0 0 1
    outer loop
      vertex 15.1075 17.7713 4
      vertex 14.265 20.296 4
      vertex 14.8405 16.9993 4
    endloop
  endfacet
  facet normal 0 0 1
    outer loop
      vertex 15.414 18.734 4
      vertex 14.265 20.296 4
      vertex 15.1075 17.7713 4
    endloop
  endfacet
  facet normal 0 0 1
    outer loop
      vertex 16.618 20.296 4
      vertex 14.265 20.296 4
      vertex 15.414 18.734 4
    endloop
  endfacet
  facet normal 0 -0 1
    outer loop
      vertex 15.908 17.2231 4
      vertex 16.618 20.296 4
      vertex 15.706 17.832 4
    endloop
  endfacet
  facet normal 0 -0 1
    outer loop
      vertex 16.11 16.6578 4
      vertex 16.618 20.296 4
      vertex 15.908 17.2231 4
    endloop
  endfacet
  facet normal 0 0 1
    outer loop
      vertex 18.269 11.08 4
      vertex 16.618 20.296 4
      vertex 16.11 16.6578 4
    endloop
  endfacet
  facet normal 0 0 1
    outer loop
      vertex 32.7574 11.2622 4
      vertex 32.2705 9.42699 4
      vertex 34.3991 10.6679 4
    endloop
  endfacet
  facet normal -0 0 1
    outer loop
      vertex 32.7574 11.2622 4
      vertex 34.3991 10.6679 4
      vertex 35.3878 14.2942 4
    endloop
  endfacet
  facet normal 0 0 1
    outer loop
      vertex 32.7574 11.2622 4
      vertex 35.3878 14.2942 4
      vertex 33.762 14.8852 4
    endloop
  endfacet
  facet normal 0 0 1
    outer loop
      vertex 33.762 14.8852 4
      vertex 35.8045 15.879 4
      vertex 36.104 17.1919 4
    endloop
  endfacet
  facet normal 0 0 1
    outer loop
      vertex 33.762 14.8852 4
      vertex 36.104 17.1919 4
      vertex 35.2845 20.296 4
    endloop
  endfacet
  facet normal 0 -0 1
    outer loop
      vertex 36.104 17.1919 4
      vertex 36.2825 17.986 4
      vertex 35.2845 20.296 4
    endloop
  endfacet
  facet normal 0 0 1
    outer loop
      vertex 42.903 14.5024 4
      vertex 46.6755 20.296 4
      vertex 44.5175 20.296 4
    endloop
  endfacet
  facet normal 0 0 1
    outer loop
      vertex 40.8875 6.82199 4
      vertex 39.6955 5 4
      vertex 42.1675 5 4
    endloop
  endfacet
  facet normal 0 -0 1
    outer loop
      vertex 36.2825 17.986 4
      vertex 37.2685 20.296 4
      vertex 35.2845 20.296 4
    endloop
  endfacet
  facet normal 0 -0 1
    outer loop
      vertex 35.3878 14.2942 4
      vertex 35.8045 15.879 4
      vertex 33.762 14.8852 4
    endloop
  endfacet
  facet normal 0 0 1
    outer loop
      vertex 39.6955 5 4
      vertex 40.8875 6.82199 4
      vertex 40.6266 7.98021 4
    endloop
  endfacet
  facet normal 0 0 1
    outer loop
      vertex 42.1675 5 4
      vertex 46.6755 20.296 4
      vertex 42.903 14.5024 4
    endloop
  endfacet
  facet normal 0 0 1
    outer loop
      vertex 42.903 14.5024 4
      vertex 41.885 10.8164 4
      vertex 42.1675 5 4
    endloop
  endfacet
  facet normal 0 0 1
    outer loop
      vertex 41.885 10.8164 4
      vertex 41.4635 9.23799 4
      vertex 42.1675 5 4
    endloop
  endfacet
  facet normal 0 0 1
    outer loop
      vertex 39.9315 10.774 4
      vertex 37.0435 14.718 4
      vertex 39.6955 5 4
    endloop
  endfacet
  facet normal 0 0 1
    outer loop
      vertex 41.4635 9.23799 4
      vertex 40.9855 7.202 4
      vertex 42.1675 5 4
    endloop
  endfacet
  facet normal 0 0 1
    outer loop
      vertex 40.6266 7.98021 4
      vertex 40.3079 9.29755 4
      vertex 39.6955 5 4
    endloop
  endfacet
  facet normal 0 0 1
    outer loop
      vertex 40.9855 7.202 4
      vertex 40.8875 6.82199 4
      vertex 42.1675 5 4
    endloop
  endfacet
  facet normal 0 0 1
    outer loop
      vertex 40.3079 9.29755 4
      vertex 39.9315 10.774 4
      vertex 39.6955 5 4
    endloop
  endfacet
  facet normal -0 0 1
    outer loop
      vertex 36.2825 17.986 4
      vertex 36.5892 16.5758 4
      vertex 37.2685 20.296 4
    endloop
  endfacet
  facet normal 0 0 1
    outer loop
      vertex 39.9315 10.774 4
      vertex 36.8429 15.4864 4
      vertex 37.0435 14.718 4
    endloop
  endfacet
  facet normal 0 0 1
    outer loop
      vertex 39.9315 10.774 4
      vertex 37.2685 20.296 4
      vertex 36.8429 15.4864 4
    endloop
  endfacet
  facet normal 0 -0 1
    outer loop
      vertex 36.8429 15.4864 4
      vertex 37.2685 20.296 4
      vertex 36.5892 16.5758 4
    endloop
  endfacet
  facet normal -0 0 1
    outer loop
      vertex 32.2705 9.42699 4
      vertex 32.0515 8.51044 4
      vertex 34.3991 10.6679 4
    endloop
  endfacet
  facet normal -0 0 1
    outer loop
      vertex 32.0515 8.51044 4
      vertex 32.8385 5 4
      vertex 34.3991 10.6679 4
    endloop
  endfacet
  facet normal -0 0 1
    outer loop
      vertex 31.8505 7.64211 4
      vertex 32.8385 5 4
      vertex 32.0515 8.51044 4
    endloop
  endfacet
  facet normal -0 0 1
    outer loop
      vertex 31.6675 6.82199 4
      vertex 32.8385 5 4
      vertex 31.8505 7.64211 4
    endloop
  endfacet
  facet normal 0 0 1
    outer loop
      vertex 30.3665 5 4
      vertex 32.8385 5 4
      vertex 31.6675 6.82199 4
    endloop
  endfacet
  facet normal 0 0 1
    outer loop
      vertex 31.083 9.35088 4
      vertex 30.3665 5 4
      vertex 31.3837 8.09854 4
    endloop
  endfacet
  facet normal 0 0 1
    outer loop
      vertex 28.0155 20.296 4
      vertex 25.8575 20.296 4
      vertex 30.7655 10.579 4
    endloop
  endfacet
  facet normal 0 0 1
    outer loop
      vertex 31.3837 8.09854 4
      vertex 30.3665 5 4
      vertex 31.6675 6.82199 4
    endloop
  endfacet
  facet normal 0 0 1
    outer loop
      vertex 25.8575 20.296 4
      vertex 30.3665 5 4
      vertex 30.7655 10.579 4
    endloop
  endfacet
  facet normal 0 0 1
    outer loop
      vertex 30.7655 10.579 4
      vertex 30.3665 5 4
      vertex 31.083 9.35088 4
    endloop
  endfacet
  facet normal 0 -1 0
    outer loop
      vertex 18.885 9.46399 2
      vertex 11.942 9.46399 4
      vertex 11.942 9.46399 2
    endloop
  endfacet
  facet normal 0 -1 0
    outer loop
      vertex 18.885 9.46399 2
      vertex 18.885 9.46399 4
      vertex 11.942 9.46399 4
    endloop
  endfacet
  facet normal -0.931652 -0.363353 0
    outer loop
      vertex 20.626 5 2
      vertex 18.885 9.46399 4
      vertex 18.885 9.46399 2
    endloop
  endfacet
  facet normal -0.931652 -0.363353 0
    outer loop
      vertex 20.626 5 2
      vertex 20.626 5 4
      vertex 18.885 9.46399 4
    endloop
  endfacet
  facet normal 0 -1 0
    outer loop
      vertex 22.741 5 2
      vertex 20.626 5 4
      vertex 20.626 5 2
    endloop
  endfacet
  facet normal 0 -1 0
    outer loop
      vertex 22.741 5 2
      vertex 22.741 5 4
      vertex 20.626 5 4
    endloop
  endfacet
  facet normal 0.92838 0.371632 0
    outer loop
      vertex 16.618 20.296 2
      vertex 22.741 5 4
      vertex 22.741 5 2
    endloop
  endfacet
  facet normal 0.92838 0.371632 -0
    outer loop
      vertex 16.618 20.296 2
      vertex 16.618 20.296 4
      vertex 22.741 5 4
    endloop
  endfacet
  facet normal 0 1 0
    outer loop
      vertex 14.265 20.296 2
      vertex 16.618 20.296 4
      vertex 16.618 20.296 2
    endloop
  endfacet
  facet normal 0 1 0
    outer loop
      vertex 14.265 20.296 2
      vertex 14.265 20.296 4
      vertex 16.618 20.296 4
    endloop
  endfacet
  facet normal -0.926297 0.376793 0
    outer loop
      vertex 8.043 5 2
      vertex 14.265 20.296 4
      vertex 14.265 20.296 2
    endloop
  endfacet
  facet normal -0.926297 0.376793 0
    outer loop
      vertex 8.043 5 2
      vertex 8.043 5 4
      vertex 14.265 20.296 4
    endloop
  endfacet
  facet normal 0 -1 0
    outer loop
      vertex 10.19 5 2
      vertex 8.043 5 4
      vertex 8.043 5 2
    endloop
  endfacet
  facet normal 0 -1 0
    outer loop
      vertex 10.19 5 2
      vertex 10.19 5 4
      vertex 8.043 5 4
    endloop
  endfacet
  facet normal 0.930873 -0.365343 0
    outer loop
      vertex 11.942 9.46399 2
      vertex 10.19 5 4
      vertex 10.19 5 2
    endloop
  endfacet
  facet normal 0.930873 -0.365343 0
    outer loop
      vertex 11.942 9.46399 2
      vertex 11.942 9.46399 4
      vertex 10.19 5 4
    endloop
  endfacet
  facet normal 0.932671 -0.360729 0
    outer loop
      vertex 14.516 16.114 2
      vertex 14.516 16.114 4
      vertex 12.569 11.08 2
    endloop
  endfacet
  facet normal 0.932671 -0.360729 0
    outer loop
      vertex 12.569 11.08 4
      vertex 12.569 11.08 2
      vertex 14.516 16.114 4
    endloop
  endfacet
  facet normal 0.938899 -0.344192 0
    outer loop
      vertex 14.8405 16.9993 2
      vertex 14.8405 16.9993 4
      vertex 14.516 16.114 2
    endloop
  endfacet
  facet normal 0.938899 -0.344192 0
    outer loop
      vertex 14.516 16.114 4
      vertex 14.516 16.114 2
      vertex 14.8405 16.9993 4
    endloop
  endfacet
  facet normal 0.945074 -0.326855 0
    outer loop
      vertex 15.1075 17.7713 2
      vertex 15.1075 17.7713 4
      vertex 14.8405 16.9993 2
    endloop
  endfacet
  facet normal 0.945074 -0.326855 0
    outer loop
      vertex 14.8405 16.9993 4
      vertex 14.8405 16.9993 2
      vertex 15.1075 17.7713 4
    endloop
  endfacet
  facet normal 0.952886 -0.30333 0
    outer loop
      vertex 15.414 18.734 2
      vertex 15.414 18.734 4
      vertex 15.1075 17.7713 2
    endloop
  endfacet
  facet normal 0.952886 -0.30333 0
    outer loop
      vertex 15.1075 17.7713 4
      vertex 15.1075 17.7713 2
      vertex 15.414 18.734 4
    endloop
  endfacet
  facet normal -0.951388 -0.307993 0
    outer loop
      vertex 15.706 17.832 2
      vertex 15.706 17.832 4
      vertex 15.414 18.734 2
    endloop
  endfacet
  facet normal -0.951388 -0.307993 -0
    outer loop
      vertex 15.414 18.734 4
      vertex 15.414 18.734 2
      vertex 15.706 17.832 4
    endloop
  endfacet
  facet normal -0.949134 -0.314872 0
    outer loop
      vertex 15.908 17.2231 2
      vertex 15.908 17.2231 4
      vertex 15.706 17.832 2
    endloop
  endfacet
  facet normal -0.949134 -0.314872 -0
    outer loop
      vertex 15.706 17.832 4
      vertex 15.706 17.832 2
      vertex 15.908 17.2231 4
    endloop
  endfacet
  facet normal -0.941692 -0.336476 0
    outer loop
      vertex 16.11 16.6578 2
      vertex 16.11 16.6578 4
      vertex 15.908 17.2231 2
    endloop
  endfacet
  facet normal -0.941692 -0.336476 -0
    outer loop
      vertex 15.908 17.2231 4
      vertex 15.908 17.2231 2
      vertex 16.11 16.6578 4
    endloop
  endfacet
  facet normal -0.932576 -0.360975 0
    outer loop
      vertex 18.269 11.08 2
      vertex 18.269 11.08 4
      vertex 16.11 16.6578 2
    endloop
  endfacet
  facet normal -0.932576 -0.360975 -0
    outer loop
      vertex 16.11 16.6578 4
      vertex 16.11 16.6578 2
      vertex 18.269 11.08 4
    endloop
  endfacet
  facet normal 0 1 0
    outer loop
      vertex 12.569 11.08 2
      vertex 12.569 11.08 4
      vertex 18.269 11.08 2
    endloop
  endfacet
  facet normal 0 1 0
    outer loop
      vertex 18.269 11.08 4
      vertex 18.269 11.08 2
      vertex 12.569 11.08 4
    endloop
  endfacet
  facet normal 0.964786 -0.263037 0
    outer loop
      vertex 35.3878 14.2942 2
      vertex 34.3991 10.6679 4
      vertex 34.3991 10.6679 2
    endloop
  endfacet
  facet normal 0.964786 -0.263037 0
    outer loop
      vertex 35.3878 14.2942 2
      vertex 35.3878 14.2942 4
      vertex 34.3991 10.6679 4
    endloop
  endfacet
  facet normal 0.967133 -0.254271 0
    outer loop
      vertex 35.8045 15.879 2
      vertex 35.3878 14.2942 4
      vertex 35.3878 14.2942 2
    endloop
  endfacet
  facet normal 0.967133 -0.254271 0
    outer loop
      vertex 35.8045 15.879 2
      vertex 35.8045 15.879 4
      vertex 35.3878 14.2942 4
    endloop
  endfacet
  facet normal 0.974943 -0.222453 0
    outer loop
      vertex 36.104 17.1919 2
      vertex 35.8045 15.879 4
      vertex 35.8045 15.879 2
    endloop
  endfacet
  facet normal 0.974943 -0.222453 0
    outer loop
      vertex 36.104 17.1919 2
      vertex 36.104 17.1919 4
      vertex 35.8045 15.879 4
    endloop
  endfacet
  facet normal 0.975669 -0.21925 0
    outer loop
      vertex 36.2825 17.986 2
      vertex 36.104 17.1919 4
      vertex 36.104 17.1919 2
    endloop
  endfacet
  facet normal 0.975669 -0.21925 0
    outer loop
      vertex 36.2825 17.986 2
      vertex 36.2825 17.986 4
      vertex 36.104 17.1919 4
    endloop
  endfacet
  facet normal -0.977146 -0.212568 0
    outer loop
      vertex 36.5892 16.5758 2
      vertex 36.2825 17.986 4
      vertex 36.2825 17.986 2
    endloop
  endfacet
  facet normal -0.977146 -0.212568 0
    outer loop
      vertex 36.5892 16.5758 2
      vertex 36.5892 16.5758 4
      vertex 36.2825 17.986 4
    endloop
  endfacet
  facet normal -0.973943 -0.226791 0
    outer loop
      vertex 36.8429 15.4864 2
      vertex 36.5892 16.5758 4
      vertex 36.5892 16.5758 2
    endloop
  endfacet
  facet normal -0.973943 -0.226791 0
    outer loop
      vertex 36.8429 15.4864 2
      vertex 36.8429 15.4864 4
      vertex 36.5892 16.5758 4
    endloop
  endfacet
  facet normal -0.967587 -0.252536 0
    outer loop
      vertex 37.0435 14.718 2
      vertex 36.8429 15.4864 4
      vertex 36.8429 15.4864 2
    endloop
  endfacet
  facet normal -0.967587 -0.252536 0
    outer loop
      vertex 37.0435 14.718 2
      vertex 37.0435 14.718 4
      vertex 36.8429 15.4864 4
    endloop
  endfacet
  facet normal -0.964723 -0.263268 0
    outer loop
      vertex 39.6955 5 2
      vertex 37.0435 14.718 4
      vertex 37.0435 14.718 2
    endloop
  endfacet
  facet normal -0.964723 -0.263268 0
    outer loop
      vertex 39.6955 5 2
      vertex 39.6955 5 4
      vertex 37.0435 14.718 4
    endloop
  endfacet
  facet normal 0 -1 0
    outer loop
      vertex 42.1675 5 2
      vertex 39.6955 5 4
      vertex 39.6955 5 2
    endloop
  endfacet
  facet normal 0 -1 0
    outer loop
      vertex 42.1675 5 2
      vertex 42.1675 5 4
      vertex 39.6955 5 4
    endloop
  endfacet
  facet normal 0.95921 -0.282696 0
    outer loop
      vertex 46.6755 20.296 2
      vertex 42.1675 5 4
      vertex 42.1675 5 2
    endloop
  endfacet
  facet normal 0.95921 -0.282696 0
    outer loop
      vertex 46.6755 20.296 2
      vertex 46.6755 20.296 4
      vertex 42.1675 5 4
    endloop
  endfacet
  facet normal 0 1 0
    outer loop
      vertex 44.5175 20.296 2
      vertex 46.6755 20.296 4
      vertex 46.6755 20.296 2
    endloop
  endfacet
  facet normal 0 1 0
    outer loop
      vertex 44.5175 20.296 2
      vertex 44.5175 20.296 4
      vertex 46.6755 20.296 4
    endloop
  endfacet
  facet normal -0.963297 0.268437 0
    outer loop
      vertex 42.903 14.5024 2
      vertex 44.5175 20.296 4
      vertex 44.5175 20.296 2
    endloop
  endfacet
  facet normal -0.963297 0.268437 0
    outer loop
      vertex 42.903 14.5024 2
      vertex 42.903 14.5024 4
      vertex 44.5175 20.296 4
    endloop
  endfacet
  facet normal -0.963915 0.266211 0
    outer loop
      vertex 41.885 10.8164 2
      vertex 42.903 14.5024 4
      vertex 42.903 14.5024 2
    endloop
  endfacet
  facet normal -0.963915 0.266211 0
    outer loop
      vertex 41.885 10.8164 2
      vertex 41.885 10.8164 4
      vertex 42.903 14.5024 4
    endloop
  endfacet
  facet normal -0.966138 0.258026 0
    outer loop
      vertex 41.4635 9.23799 2
      vertex 41.885 10.8164 4
      vertex 41.885 10.8164 2
    endloop
  endfacet
  facet normal -0.966138 0.258026 0
    outer loop
      vertex 41.4635 9.23799 2
      vertex 41.4635 9.23799 4
      vertex 41.885 10.8164 4
    endloop
  endfacet
  facet normal -0.973529 0.228566 0
    outer loop
      vertex 40.9855 7.202 2
      vertex 41.4635 9.23799 4
      vertex 41.4635 9.23799 2
    endloop
  endfacet
  facet normal -0.973529 0.228566 0
    outer loop
      vertex 40.9855 7.202 2
      vertex 40.9855 7.202 4
      vertex 41.4635 9.23799 4
    endloop
  endfacet
  facet normal -0.968323 0.249702 0
    outer loop
      vertex 40.8875 6.82199 2
      vertex 40.9855 7.202 4
      vertex 40.9855 7.202 2
    endloop
  endfacet
  facet normal -0.968323 0.249702 0
    outer loop
      vertex 40.8875 6.82199 2
      vertex 40.8875 6.82199 4
      vertex 40.9855 7.202 4
    endloop
  endfacet
  facet normal 0.975556 0.219749 0
    outer loop
      vertex 40.6266 7.98021 2
      vertex 40.8875 6.82199 4
      vertex 40.8875 6.82199 2
    endloop
  endfacet
  facet normal 0.975556 0.219749 -0
    outer loop
      vertex 40.6266 7.98021 2
      vertex 40.6266 7.98021 4
      vertex 40.8875 6.82199 4
    endloop
  endfacet
  facet normal 0.971967 0.235119 0
    outer loop
      vertex 40.3079 9.29755 2
      vertex 40.6266 7.98021 4
      vertex 40.6266 7.98021 2
    endloop
  endfacet
  facet normal 0.971967 0.235119 -0
    outer loop
      vertex 40.3079 9.29755 2
      vertex 40.3079 9.29755 4
      vertex 40.6266 7.98021 4
    endloop
  endfacet
  facet normal 0.968999 0.247067 0
    outer loop
      vertex 39.9315 10.774 2
      vertex 40.3079 9.29755 4
      vertex 40.3079 9.29755 2
    endloop
  endfacet
  facet normal 0.968999 0.247067 -0
    outer loop
      vertex 39.9315 10.774 2
      vertex 39.9315 10.774 4
      vertex 40.3079 9.29755 4
    endloop
  endfacet
  facet normal 0.963047 0.269333 0
    outer loop
      vertex 37.2685 20.296 2
      vertex 39.9315 10.774 4
      vertex 39.9315 10.774 2
    endloop
  endfacet
  facet normal 0.963047 0.269333 -0
    outer loop
      vertex 37.2685 20.296 2
      vertex 37.2685 20.296 4
      vertex 39.9315 10.774 4
    endloop
  endfacet
  facet normal 0 1 0
    outer loop
      vertex 35.2845 20.296 2
      vertex 37.2685 20.296 4
      vertex 37.2685 20.296 2
    endloop
  endfacet
  facet normal 0 1 0
    outer loop
      vertex 35.2845 20.296 2
      vertex 35.2845 20.296 4
      vertex 37.2685 20.296 4
    endloop
  endfacet
  facet normal -0.96262 0.270855 0
    outer loop
      vertex 33.762 14.8852 2
      vertex 35.2845 20.296 4
      vertex 35.2845 20.296 2
    endloop
  endfacet
  facet normal -0.96262 0.270855 0
    outer loop
      vertex 33.762 14.8852 2
      vertex 33.762 14.8852 4
      vertex 35.2845 20.296 4
    endloop
  endfacet
  facet normal -0.963636 0.267219 0
    outer loop
      vertex 32.7574 11.2622 2
      vertex 33.762 14.8852 4
      vertex 33.762 14.8852 2
    endloop
  endfacet
  facet normal -0.963636 0.267219 0
    outer loop
      vertex 32.7574 11.2622 2
      vertex 32.7574 11.2622 4
      vertex 33.762 14.8852 4
    endloop
  endfacet
  facet normal -0.966562 0.256433 0
    outer loop
      vertex 32.2705 9.42699 2
      vertex 32.7574 11.2622 4
      vertex 32.7574 11.2622 2
    endloop
  endfacet
  facet normal -0.966562 0.256433 0
    outer loop
      vertex 32.2705 9.42699 2
      vertex 32.2705 9.42699 4
      vertex 32.7574 11.2622 4
    endloop
  endfacet
  facet normal -0.972622 0.232392 0
    outer loop
      vertex 32.0515 8.51044 2
      vertex 32.2705 9.42699 4
      vertex 32.2705 9.42699 2
    endloop
  endfacet
  facet normal -0.972622 0.232392 0
    outer loop
      vertex 32.0515 8.51044 2
      vertex 32.0515 8.51044 4
      vertex 32.2705 9.42699 4
    endloop
  endfacet
  facet normal -0.974239 0.22552 0
    outer loop
      vertex 31.8505 7.64211 2
      vertex 32.0515 8.51044 4
      vertex 32.0515 8.51044 2
    endloop
  endfacet
  facet normal -0.974239 0.22552 0
    outer loop
      vertex 31.8505 7.64211 2
      vertex 31.8505 7.64211 4
      vertex 32.0515 8.51044 4
    endloop
  endfacet
  facet normal -0.975997 0.217782 0
    outer loop
      vertex 31.6675 6.82199 2
      vertex 31.8505 7.64211 4
      vertex 31.8505 7.64211 2
    endloop
  endfacet
  facet normal -0.975997 0.217782 0
    outer loop
      vertex 31.6675 6.82199 2
      vertex 31.6675 6.82199 4
      vertex 31.8505 7.64211 4
    endloop
  endfacet
  facet normal 0.97617 0.217007 0
    outer loop
      vertex 31.3837 8.09854 2
      vertex 31.6675 6.82199 4
      vertex 31.6675 6.82199 2
    endloop
  endfacet
  facet normal 0.97617 0.217007 -0
    outer loop
      vertex 31.3837 8.09854 2
      vertex 31.3837 8.09854 4
      vertex 31.6675 6.82199 4
    endloop
  endfacet
  facet normal 0.97237 0.233446 0
    outer loop
      vertex 31.083 9.35088 2
      vertex 31.3837 8.09854 4
      vertex 31.3837 8.09854 2
    endloop
  endfacet
  facet normal 0.97237 0.233446 -0
    outer loop
      vertex 31.083 9.35088 2
      vertex 31.083 9.35088 4
      vertex 31.3837 8.09854 4
    endloop
  endfacet
  facet normal 0.96816 0.250334 0
    outer loop
      vertex 30.7655 10.579 2
      vertex 31.083 9.35088 4
      vertex 31.083 9.35088 2
    endloop
  endfacet
  facet normal 0.96816 0.250334 -0
    outer loop
      vertex 30.7655 10.579 2
      vertex 30.7655 10.579 4
      vertex 31.083 9.35088 4
    endloop
  endfacet
  facet normal 0.962208 0.272314 0
    outer loop
      vertex 28.0155 20.296 2
      vertex 30.7655 10.579 4
      vertex 30.7655 10.579 2
    endloop
  endfacet
  facet normal 0.962208 0.272314 -0
    outer loop
      vertex 28.0155 20.296 2
      vertex 28.0155 20.296 4
      vertex 30.7655 10.579 4
    endloop
  endfacet
  facet normal 0 1 0
    outer loop
      vertex 25.8575 20.296 2
      vertex 28.0155 20.296 4
      vertex 28.0155 20.296 2
    endloop
  endfacet
  facet normal 0 1 0
    outer loop
      vertex 25.8575 20.296 2
      vertex 25.8575 20.296 4
      vertex 28.0155 20.296 4
    endloop
  endfacet
  facet normal -0.959192 -0.282754 0
    outer loop
      vertex 30.3665 5 2
      vertex 25.8575 20.296 4
      vertex 25.8575 20.296 2
    endloop
  endfacet
  facet normal -0.959192 -0.282754 0
    outer loop
      vertex 30.3665 5 2
      vertex 30.3665 5 4
      vertex 25.8575 20.296 4
    endloop
  endfacet
  facet normal 0 -1 0
    outer loop
      vertex 32.8385 5 2
      vertex 30.3665 5 4
      vertex 30.3665 5 2
    endloop
  endfacet
  facet normal 0 -1 0
    outer loop
      vertex 32.8385 5 2
      vertex 32.8385 5 4
      vertex 30.3665 5 4
    endloop
  endfacet
  facet normal 0.964119 -0.265471 0
    outer loop
      vertex 34.3991 10.6679 2
      vertex 32.8385 5 4
      vertex 32.8385 5 2
    endloop
  endfacet
  facet normal 0.964119 -0.265471 0
    outer loop
      vertex 34.3991 10.6679 2
      vertex 34.3991 10.6679 4
      vertex 32.8385 5 4
    endloop
  endfacet
endsolid OpenSCAD_Model
