solid OpenSCAD_Model
  facet normal 0 0 -1
    outer loop
      vertex 8.043 5 2
      vertex 14.265 20.296 2
      vertex 12.569 11.08 2
    endloop
  endfacet
  facet normal 0 0 -1
    outer loop
      vertex 12.569 11.08 2
      vertex 11.942 9.46399 2
      vertex 8.043 5 2
    endloop
  endfacet
  facet normal 0 0 -1
    outer loop
      vertex 18.885 9.46399 2
      vertex 22.741 5 2
      vertex 20.626 5 2
    endloop
  endfacet
  facet normal 0 0 -1
    outer loop
      vertex 18.269 11.08 2
      vertex 16.618 20.296 2
      vertex 22.741 5 2
    endloop
  endfacet
  facet normal 0 -0 -1
    outer loop
      vertex 34.2736 14.293 2
      vertex 35.4636 13.023 2
      vertex 33.1046 12.947 2
    endloop
  endfacet
  facet normal 0 0 -1
    outer loop
      vertex 12.569 11.08 2
      vertex 18.269 11.08 2
      vertex 18.885 9.46399 2
    endloop
  endfacet
  facet normal 0 0 -1
    outer loop
      vertex 10.19 5 2
      vertex 8.043 5 2
      vertex 11.942 9.46399 2
    endloop
  endfacet
  facet normal 0 0 -1
    outer loop
      vertex 18.885 9.46399 2
      vertex 18.269 11.08 2
      vertex 22.741 5 2
    endloop
  endfacet
  facet normal 0 0 -1
    outer loop
      vertex 14.516 16.114 2
      vertex 14.265 20.296 2
      vertex 14.8405 16.9993 2
    endloop
  endfacet
  facet normal 0 0 -1
    outer loop
      vertex 11.942 9.46399 2
      vertex 12.569 11.08 2
      vertex 18.885 9.46399 2
    endloop
  endfacet
  facet normal 0 0 -1
    outer loop
      vertex 12.569 11.08 2
      vertex 14.265 20.296 2
      vertex 14.516 16.114 2
    endloop
  endfacet
  facet normal 0 0 -1
    outer loop
      vertex 15.414 18.734 2
      vertex 16.618 20.296 2
      vertex 15.706 17.832 2
    endloop
  endfacet
  facet normal 0 0 -1
    outer loop
      vertex 14.8405 16.9993 2
      vertex 14.265 20.296 2
      vertex 15.1075 17.7713 2
    endloop
  endfacet
  facet normal 0 0 -1
    outer loop
      vertex 15.1075 17.7713 2
      vertex 14.265 20.296 2
      vertex 15.414 18.734 2
    endloop
  endfacet
  facet normal 0 0 -1
    outer loop
      vertex 15.414 18.734 2
      vertex 14.265 20.296 2
      vertex 16.618 20.296 2
    endloop
  endfacet
  facet normal 0 0 -1
    outer loop
      vertex 15.706 17.832 2
      vertex 16.618 20.296 2
      vertex 15.908 17.2231 2
    endloop
  endfacet
  facet normal 0 0 -1
    outer loop
      vertex 15.908 17.2231 2
      vertex 16.618 20.296 2
      vertex 16.11 16.6578 2
    endloop
  endfacet
  facet normal 0 0 -1
    outer loop
      vertex 16.11 16.6578 2
      vertex 16.618 20.296 2
      vertex 18.269 11.08 2
    endloop
  endfacet
  facet normal -0 0 -1
    outer loop
      vertex 34.2626 11.687 2
      vertex 29.5916 5 2
      vertex 33.1046 12.947 2
    endloop
  endfacet
  facet normal 0 0 -1
    outer loop
      vertex 33.1046 12.947 2
      vertex 27.7476 20.296 2
      vertex 30.0356 20.296 2
    endloop
  endfacet
  facet normal 0 0 -1
    outer loop
      vertex 35.4636 13.023 2
      vertex 41.1246 5 2
      vertex 38.8366 5 2
    endloop
  endfacet
  facet normal 0 0 -1
    outer loop
      vertex 34.2626 11.687 2
      vertex 35.4636 13.023 2
      vertex 38.8366 5 2
    endloop
  endfacet
  facet normal 0 -0 -1
    outer loop
      vertex 38.3926 20.296 2
      vertex 40.6806 20.296 2
      vertex 35.4636 13.023 2
    endloop
  endfacet
  facet normal -0 0 -1
    outer loop
      vertex 34.2736 14.293 2
      vertex 33.1046 12.947 2
      vertex 30.0356 20.296 2
    endloop
  endfacet
  facet normal 0 0 -1
    outer loop
      vertex 34.2736 14.293 2
      vertex 38.3926 20.296 2
      vertex 35.4636 13.023 2
    endloop
  endfacet
  facet normal 0 0 -1
    outer loop
      vertex 33.1046 12.947 2
      vertex 29.5916 5 2
      vertex 27.3036 5 2
    endloop
  endfacet
  facet normal 0 0 -1
    outer loop
      vertex 34.2626 11.687 2
      vertex 33.1046 12.947 2
      vertex 35.4636 13.023 2
    endloop
  endfacet
  facet normal 0 -0 1
    outer loop
      vertex 12.569 11.08 4
      vertex 14.265 20.296 4
      vertex 8.043 5 4
    endloop
  endfacet
  facet normal 0 0 1
    outer loop
      vertex 8.043 5 4
      vertex 11.942 9.46399 4
      vertex 12.569 11.08 4
    endloop
  endfacet
  facet normal 0 -0 1
    outer loop
      vertex 20.626 5 4
      vertex 22.741 5 4
      vertex 18.885 9.46399 4
    endloop
  endfacet
  facet normal 0 0 1
    outer loop
      vertex 22.741 5 4
      vertex 16.618 20.296 4
      vertex 18.269 11.08 4
    endloop
  endfacet
  facet normal 0 0 1
    outer loop
      vertex 33.1046 12.947 4
      vertex 35.4636 13.023 4
      vertex 34.2736 14.293 4
    endloop
  endfacet
  facet normal 0 0 1
    outer loop
      vertex 18.885 9.46399 4
      vertex 18.269 11.08 4
      vertex 12.569 11.08 4
    endloop
  endfacet
  facet normal 0 0 1
    outer loop
      vertex 11.942 9.46399 4
      vertex 8.043 5 4
      vertex 10.19 5 4
    endloop
  endfacet
  facet normal 0 0 1
    outer loop
      vertex 22.741 5 4
      vertex 18.269 11.08 4
      vertex 18.885 9.46399 4
    endloop
  endfacet
  facet normal 0 0 1
    outer loop
      vertex 14.8405 16.9993 4
      vertex 14.265 20.296 4
      vertex 14.516 16.114 4
    endloop
  endfacet
  facet normal 0 0 1
    outer loop
      vertex 18.885 9.46399 4
      vertex 12.569 11.08 4
      vertex 11.942 9.46399 4
    endloop
  endfacet
  facet normal 0 0 1
    outer loop
      vertex 14.516 16.114 4
      vertex 14.265 20.296 4
      vertex 12.569 11.08 4
    endloop
  endfacet
  facet normal 0 -0 1
    outer loop
      vertex 15.706 17.832 4
      vertex 16.618 20.296 4
      vertex 15.414 18.734 4
    endloop
  endfacet
  facet normal 0 0 1
    outer loop
      vertex 15.1075 17.7713 4
      vertex 14.265 20.296 4
      vertex 14.8405 16.9993 4
    endloop
  endfacet
  facet normal 0 0 1
    outer loop
      vertex 15.414 18.734 4
      vertex 14.265 20.296 4
      vertex 15.1075 17.7713 4
    endloop
  endfacet
  facet normal 0 0 1
    outer loop
      vertex 16.618 20.296 4
      vertex 14.265 20.296 4
      vertex 15.414 18.734 4
    endloop
  endfacet
  facet normal 0 -0 1
    outer loop
      vertex 15.908 17.2231 4
      vertex 16.618 20.296 4
      vertex 15.706 17.832 4
    endloop
  endfacet
  facet normal 0 -0 1
    outer loop
      vertex 16.11 16.6578 4
      vertex 16.618 20.296 4
      vertex 15.908 17.2231 4
    endloop
  endfacet
  facet normal 0 0 1
    outer loop
      vertex 18.269 11.08 4
      vertex 16.618 20.296 4
      vertex 16.11 16.6578 4
    endloop
  endfacet
  facet normal 0 0 1
    outer loop
      vertex 33.1046 12.947 4
      vertex 29.5916 5 4
      vertex 34.2626 11.687 4
    endloop
  endfacet
  facet normal 0 0 1
    outer loop
      vertex 30.0356 20.296 4
      vertex 27.7476 20.296 4
      vertex 33.1046 12.947 4
    endloop
  endfacet
  facet normal 0 -0 1
    outer loop
      vertex 38.8366 5 4
      vertex 41.1246 5 4
      vertex 35.4636 13.023 4
    endloop
  endfacet
  facet normal 0 0 1
    outer loop
      vertex 38.8366 5 4
      vertex 35.4636 13.023 4
      vertex 34.2626 11.687 4
    endloop
  endfacet
  facet normal 0 0 1
    outer loop
      vertex 35.4636 13.023 4
      vertex 40.6806 20.296 4
      vertex 38.3926 20.296 4
    endloop
  endfacet
  facet normal 0 0 1
    outer loop
      vertex 30.0356 20.296 4
      vertex 33.1046 12.947 4
      vertex 34.2736 14.293 4
    endloop
  endfacet
  facet normal 0 -0 1
    outer loop
      vertex 35.4636 13.023 4
      vertex 38.3926 20.296 4
      vertex 34.2736 14.293 4
    endloop
  endfacet
  facet normal 0 0 1
    outer loop
      vertex 27.3036 5 4
      vertex 29.5916 5 4
      vertex 33.1046 12.947 4
    endloop
  endfacet
  facet normal 0 0 1
    outer loop
      vertex 35.4636 13.023 4
      vertex 33.1046 12.947 4
      vertex 34.2626 11.687 4
    endloop
  endfacet
  facet normal 0 -1 0
    outer loop
      vertex 18.885 9.46399 2
      vertex 11.942 9.46399 4
      vertex 11.942 9.46399 2
    endloop
  endfacet
  facet normal 0 -1 0
    outer loop
      vertex 18.885 9.46399 2
      vertex 18.885 9.46399 4
      vertex 11.942 9.46399 4
    endloop
  endfacet
  facet normal -0.931652 -0.363353 0
    outer loop
      vertex 20.626 5 2
      vertex 18.885 9.46399 4
      vertex 18.885 9.46399 2
    endloop
  endfacet
  facet normal -0.931652 -0.363353 0
    outer loop
      vertex 20.626 5 2
      vertex 20.626 5 4
      vertex 18.885 9.46399 4
    endloop
  endfacet
  facet normal 0 -1 0
    outer loop
      vertex 22.741 5 2
      vertex 20.626 5 4
      vertex 20.626 5 2
    endloop
  endfacet
  facet normal 0 -1 0
    outer loop
      vertex 22.741 5 2
      vertex 22.741 5 4
      vertex 20.626 5 4
    endloop
  endfacet
  facet normal 0.92838 0.371632 0
    outer loop
      vertex 16.618 20.296 2
      vertex 22.741 5 4
      vertex 22.741 5 2
    endloop
  endfacet
  facet normal 0.92838 0.371632 -0
    outer loop
      vertex 16.618 20.296 2
      vertex 16.618 20.296 4
      vertex 22.741 5 4
    endloop
  endfacet
  facet normal 0 1 0
    outer loop
      vertex 14.265 20.296 2
      vertex 16.618 20.296 4
      vertex 16.618 20.296 2
    endloop
  endfacet
  facet normal 0 1 0
    outer loop
      vertex 14.265 20.296 2
      vertex 14.265 20.296 4
      vertex 16.618 20.296 4
    endloop
  endfacet
  facet normal -0.926297 0.376793 0
    outer loop
      vertex 8.043 5 2
      vertex 14.265 20.296 4
      vertex 14.265 20.296 2
    endloop
  endfacet
  facet normal -0.926297 0.376793 0
    outer loop
      vertex 8.043 5 2
      vertex 8.043 5 4
      vertex 14.265 20.296 4
    endloop
  endfacet
  facet normal 0 -1 0
    outer loop
      vertex 10.19 5 2
      vertex 8.043 5 4
      vertex 8.043 5 2
    endloop
  endfacet
  facet normal 0 -1 0
    outer loop
      vertex 10.19 5 2
      vertex 10.19 5 4
      vertex 8.043 5 4
    endloop
  endfacet
  facet normal 0.930873 -0.365343 0
    outer loop
      vertex 11.942 9.46399 2
      vertex 10.19 5 4
      vertex 10.19 5 2
    endloop
  endfacet
  facet normal 0.930873 -0.365343 0
    outer loop
      vertex 11.942 9.46399 2
      vertex 11.942 9.46399 4
      vertex 10.19 5 4
    endloop
  endfacet
  facet normal 0.932671 -0.360729 0
    outer loop
      vertex 14.516 16.114 2
      vertex 14.516 16.114 4
      vertex 12.569 11.08 2
    endloop
  endfacet
  facet normal 0.932671 -0.360729 0
    outer loop
      vertex 12.569 11.08 4
      vertex 12.569 11.08 2
      vertex 14.516 16.114 4
    endloop
  endfacet
  facet normal 0.938899 -0.344192 0
    outer loop
      vertex 14.8405 16.9993 2
      vertex 14.8405 16.9993 4
      vertex 14.516 16.114 2
    endloop
  endfacet
  facet normal 0.938899 -0.344192 0
    outer loop
      vertex 14.516 16.114 4
      vertex 14.516 16.114 2
      vertex 14.8405 16.9993 4
    endloop
  endfacet
  facet normal 0.945074 -0.326855 0
    outer loop
      vertex 15.1075 17.7713 2
      vertex 15.1075 17.7713 4
      vertex 14.8405 16.9993 2
    endloop
  endfacet
  facet normal 0.945074 -0.326855 0
    outer loop
      vertex 14.8405 16.9993 4
      vertex 14.8405 16.9993 2
      vertex 15.1075 17.7713 4
    endloop
  endfacet
  facet normal 0.952886 -0.30333 0
    outer loop
      vertex 15.414 18.734 2
      vertex 15.414 18.734 4
      vertex 15.1075 17.7713 2
    endloop
  endfacet
  facet normal 0.952886 -0.30333 0
    outer loop
      vertex 15.1075 17.7713 4
      vertex 15.1075 17.7713 2
      vertex 15.414 18.734 4
    endloop
  endfacet
  facet normal -0.951388 -0.307993 0
    outer loop
      vertex 15.706 17.832 2
      vertex 15.706 17.832 4
      vertex 15.414 18.734 2
    endloop
  endfacet
  facet normal -0.951388 -0.307993 -0
    outer loop
      vertex 15.414 18.734 4
      vertex 15.414 18.734 2
      vertex 15.706 17.832 4
    endloop
  endfacet
  facet normal -0.949134 -0.314872 0
    outer loop
      vertex 15.908 17.2231 2
      vertex 15.908 17.2231 4
      vertex 15.706 17.832 2
    endloop
  endfacet
  facet normal -0.949134 -0.314872 -0
    outer loop
      vertex 15.706 17.832 4
      vertex 15.706 17.832 2
      vertex 15.908 17.2231 4
    endloop
  endfacet
  facet normal -0.941692 -0.336476 0
    outer loop
      vertex 16.11 16.6578 2
      vertex 16.11 16.6578 4
      vertex 15.908 17.2231 2
    endloop
  endfacet
  facet normal -0.941692 -0.336476 -0
    outer loop
      vertex 15.908 17.2231 4
      vertex 15.908 17.2231 2
      vertex 16.11 16.6578 4
    endloop
  endfacet
  facet normal -0.932576 -0.360975 0
    outer loop
      vertex 18.269 11.08 2
      vertex 18.269 11.08 4
      vertex 16.11 16.6578 2
    endloop
  endfacet
  facet normal -0.932576 -0.360975 -0
    outer loop
      vertex 16.11 16.6578 4
      vertex 16.11 16.6578 2
      vertex 18.269 11.08 4
    endloop
  endfacet
  facet normal 0 1 0
    outer loop
      vertex 12.569 11.08 2
      vertex 12.569 11.08 4
      vertex 18.269 11.08 2
    endloop
  endfacet
  facet normal 0 1 0
    outer loop
      vertex 18.269 11.08 4
      vertex 18.269 11.08 2
      vertex 12.569 11.08 4
    endloop
  endfacet
  facet normal -0.825383 -0.564574 0
    outer loop
      vertex 38.8366 5 2
      vertex 34.2626 11.687 4
      vertex 34.2626 11.687 2
    endloop
  endfacet
  facet normal -0.825383 -0.564574 0
    outer loop
      vertex 38.8366 5 2
      vertex 38.8366 5 4
      vertex 34.2626 11.687 4
    endloop
  endfacet
  facet normal 0 -1 0
    outer loop
      vertex 41.1246 5 2
      vertex 38.8366 5 4
      vertex 38.8366 5 2
    endloop
  endfacet
  facet normal 0 -1 0
    outer loop
      vertex 41.1246 5 2
      vertex 41.1246 5 4
      vertex 38.8366 5 4
    endloop
  endfacet
  facet normal 0.817078 0.576527 0
    outer loop
      vertex 35.4636 13.023 2
      vertex 41.1246 5 4
      vertex 41.1246 5 2
    endloop
  endfacet
  facet normal 0.817078 0.576527 -0
    outer loop
      vertex 35.4636 13.023 2
      vertex 35.4636 13.023 4
      vertex 41.1246 5 4
    endloop
  endfacet
  facet normal 0.812569 -0.582864 0
    outer loop
      vertex 40.6806 20.296 2
      vertex 35.4636 13.023 4
      vertex 35.4636 13.023 2
    endloop
  endfacet
  facet normal 0.812569 -0.582864 0
    outer loop
      vertex 40.6806 20.296 2
      vertex 40.6806 20.296 4
      vertex 35.4636 13.023 4
    endloop
  endfacet
  facet normal 0 1 0
    outer loop
      vertex 38.3926 20.296 2
      vertex 40.6806 20.296 4
      vertex 40.6806 20.296 2
    endloop
  endfacet
  facet normal 0 1 0
    outer loop
      vertex 38.3926 20.296 2
      vertex 38.3926 20.296 4
      vertex 40.6806 20.296 4
    endloop
  endfacet
  facet normal -0.824558 0.565777 0
    outer loop
      vertex 34.2736 14.293 2
      vertex 38.3926 20.296 4
      vertex 38.3926 20.296 2
    endloop
  endfacet
  facet normal -0.824558 0.565777 0
    outer loop
      vertex 34.2736 14.293 2
      vertex 34.2736 14.293 4
      vertex 38.3926 20.296 4
    endloop
  endfacet
  facet normal 0.816929 0.576738 0
    outer loop
      vertex 30.0356 20.296 2
      vertex 34.2736 14.293 4
      vertex 34.2736 14.293 2
    endloop
  endfacet
  facet normal 0.816929 0.576738 -0
    outer loop
      vertex 30.0356 20.296 2
      vertex 30.0356 20.296 4
      vertex 34.2736 14.293 4
    endloop
  endfacet
  facet normal 0 1 0
    outer loop
      vertex 27.7476 20.296 2
      vertex 30.0356 20.296 4
      vertex 30.0356 20.296 2
    endloop
  endfacet
  facet normal 0 1 0
    outer loop
      vertex 27.7476 20.296 2
      vertex 27.7476 20.296 4
      vertex 30.0356 20.296 4
    endloop
  endfacet
  facet normal -0.808094 -0.589054 0
    outer loop
      vertex 33.1046 12.947 2
      vertex 27.7476 20.296 4
      vertex 27.7476 20.296 2
    endloop
  endfacet
  facet normal -0.808094 -0.589054 0
    outer loop
      vertex 33.1046 12.947 2
      vertex 33.1046 12.947 4
      vertex 27.7476 20.296 4
    endloop
  endfacet
  facet normal -0.807702 0.589591 0
    outer loop
      vertex 27.3036 5 2
      vertex 33.1046 12.947 4
      vertex 33.1046 12.947 2
    endloop
  endfacet
  facet normal -0.807702 0.589591 0
    outer loop
      vertex 27.3036 5 2
      vertex 27.3036 5 4
      vertex 33.1046 12.947 4
    endloop
  endfacet
  facet normal 0 -1 0
    outer loop
      vertex 29.5916 5 2
      vertex 27.3036 5 4
      vertex 27.3036 5 2
    endloop
  endfacet
  facet normal 0 -1 0
    outer loop
      vertex 29.5916 5 2
      vertex 29.5916 5 4
      vertex 27.3036 5 4
    endloop
  endfacet
  facet normal 0.819801 -0.572648 0
    outer loop
      vertex 34.2626 11.687 2
      vertex 29.5916 5 4
      vertex 29.5916 5 2
    endloop
  endfacet
  facet normal 0.819801 -0.572648 0
    outer loop
      vertex 34.2626 11.687 2
      vertex 34.2626 11.687 4
      vertex 29.5916 5 4
    endloop
  endfacet
endsolid OpenSCAD_Model
