solid OpenSCAD_Model
  facet normal 0 0 -1
    outer loop
      vertex 19.4269 8.60689 2
      vertex 19.523 9.45999 2
      vertex 21.615 9.29599 2
    endloop
  endfacet
  facet normal 0 -0 -1
    outer loop
      vertex 20.63 11.823 2
      vertex 21.1772 11.0973 2
      vertex 19.1024 10.9556 2
    endloop
  endfacet
  facet normal 0 0 -1
    outer loop
      vertex 21.1772 11.0973 2
      vertex 19.523 9.45999 2
      vertex 19.1024 10.9556 2
    endloop
  endfacet
  facet normal -0 0 -1
    outer loop
      vertex 31.6576 7.573 2
      vertex 29.8766 6.67589 2
      vertex 31.0659 8.40755 2
    endloop
  endfacet
  facet normal 0 -0 -1
    outer loop
      vertex 19.8814 12.4037 2
      vertex 20.63 11.823 2
      vertex 19.1024 10.9556 2
    endloop
  endfacet
  facet normal -0 0 -1
    outer loop
      vertex 32.4727 6.97076 2
      vertex 31.4646 5.491 2
      vertex 31.6576 7.573 2
    endloop
  endfacet
  facet normal 0 0 -1
    outer loop
      vertex 18.9478 12.8097 2
      vertex 19.8814 12.4037 2
      vertex 19.1024 10.9556 2
    endloop
  endfacet
  facet normal 0 0 -1
    outer loop
      vertex 17.8408 11.8529 2
      vertex 18.9478 12.8097 2
      vertex 19.1024 10.9556 2
    endloop
  endfacet
  facet normal 0 0 -1
    outer loop
      vertex 20.9559 6.98532 2
      vertex 19.4269 8.60689 2
      vertex 21.4502 8.04033 2
    endloop
  endfacet
  facet normal 0 -0 -1
    outer loop
      vertex 17.829 13.041 2
      vertex 17.8408 11.8529 2
      vertex 15.738 12.152 2
    endloop
  endfacet
  facet normal 0 0 -1
    outer loop
      vertex 20.9559 6.98532 2
      vertex 19.1385 7.90755 2
      vertex 19.4269 8.60689 2
    endloop
  endfacet
  facet normal 0 0 -1
    outer loop
      vertex 18.658 7.362 2
      vertex 20.132 6.131 2
      vertex 19.0152 5.50266 2
    endloop
  endfacet
  facet normal 0 0 -1
    outer loop
      vertex 15.359 18.637 2
      vertex 15.36 20.296 2
      vertex 16.3416 18.5775 2
    endloop
  endfacet
  facet normal 0 0 -1
    outer loop
      vertex 18.646 16.323 2
      vertex 20.728 16.57 2
      vertex 20.6439 15.711 2
    endloop
  endfacet
  facet normal 0 0 -1
    outer loop
      vertex 18.646 16.323 2
      vertex 18.5522 17.0735 2
      vertex 20.728 16.57 2
    endloop
  endfacet
  facet normal 0 0 -1
    outer loop
      vertex 35.9916 4.8869 2
      vertex 34.7336 6.489 2
      vertex 36.0087 6.61354 2
    endloop
  endfacet
  facet normal 0 0 -1
    outer loop
      vertex 18.5553 15.531 2
      vertex 18.646 16.323 2
      vertex 20.6439 15.711 2
    endloop
  endfacet
  facet normal 0 0 -1
    outer loop
      vertex 20.1315 18.64 2
      vertex 18.5522 17.0735 2
      vertex 18.2709 17.6665 2
    endloop
  endfacet
  facet normal 0 0 -1
    outer loop
      vertex 18.3422 19.882 2
      vertex 17.1559 18.3992 2
      vertex 16.3416 18.5775 2
    endloop
  endfacet
  facet normal 0 -0 -1
    outer loop
      vertex 41.1536 20.296 2
      vertex 41.1536 10.769 2
      vertex 39.0926 10.889 2
    endloop
  endfacet
  facet normal 0 0 -1
    outer loop
      vertex 15.36 20.296 2
      vertex 18.3422 19.882 2
      vertex 16.3416 18.5775 2
    endloop
  endfacet
  facet normal 0 -0 -1
    outer loop
      vertex 38.9651 9.56599 2
      vertex 40.8033 8.52455 2
      vertex 38.5828 8.47299 2
    endloop
  endfacet
  facet normal -0 0 -1
    outer loop
      vertex 41.1536 10.769 2
      vertex 41.066 9.59021 2
      vertex 39.0926 10.889 2
    endloop
  endfacet
  facet normal 0 0 -1
    outer loop
      vertex 11.889 13.768 2
      vertex 9.81799 20.296 2
      vertex 11.889 18.637 2
    endloop
  endfacet
  facet normal 0 0 -1
    outer loop
      vertex 9.81799 20.296 2
      vertex 11.889 13.768 2
      vertex 11.889 12.152 2
    endloop
  endfacet
  facet normal -0 0 -1
    outer loop
      vertex 17.6409 5.12566 2
      vertex 16.009 5 2
      vertex 17.0482 6.73711 2
    endloop
  endfacet
  facet normal 0 0 -1
    outer loop
      vertex 16.009 5 2
      vertex 11.889 6.659 2
      vertex 15.901 6.659 2
    endloop
  endfacet
  facet normal -0 0 -1
    outer loop
      vertex 11.889 12.152 2
      vertex 9.81799 5 2
      vertex 9.81799 20.296 2
    endloop
  endfacet
  facet normal 0 0 -1
    outer loop
      vertex 11.889 18.637 2
      vertex 9.81799 20.296 2
      vertex 15.36 20.296 2
    endloop
  endfacet
  facet normal 0 0 -1
    outer loop
      vertex 15.359 18.637 2
      vertex 11.889 18.637 2
      vertex 15.36 20.296 2
    endloop
  endfacet
  facet normal 0 0 -1
    outer loop
      vertex 18.3422 19.882 2
      vertex 17.802 18.102 2
      vertex 17.1559 18.3992 2
    endloop
  endfacet
  facet normal 0 0 -1
    outer loop
      vertex 18.3422 19.882 2
      vertex 18.2709 17.6665 2
      vertex 17.802 18.102 2
    endloop
  endfacet
  facet normal 0 -0 -1
    outer loop
      vertex 18.3422 19.882 2
      vertex 20.1315 18.64 2
      vertex 18.2709 17.6665 2
    endloop
  endfacet
  facet normal 0 0 -1
    outer loop
      vertex 18.5522 17.0735 2
      vertex 20.1315 18.64 2
      vertex 20.728 16.57 2
    endloop
  endfacet
  facet normal 0 0 -1
    outer loop
      vertex 20.3915 14.9487 2
      vertex 18.5553 15.531 2
      vertex 20.6439 15.711 2
    endloop
  endfacet
  facet normal 0 -0 -1
    outer loop
      vertex 18.5553 15.531 2
      vertex 19.971 14.283 2
      vertex 18.2833 14.8883 2
    endloop
  endfacet
  facet normal -0 0 -1
    outer loop
      vertex 20.3915 14.9487 2
      vertex 19.971 14.283 2
      vertex 18.5553 15.531 2
    endloop
  endfacet
  facet normal 0 0 -1
    outer loop
      vertex 18.2833 14.8883 2
      vertex 19.3965 13.7334 2
      vertex 18.6825 13.3194 2
    endloop
  endfacet
  facet normal -0 0 -1
    outer loop
      vertex 19.971 14.283 2
      vertex 19.3965 13.7334 2
      vertex 18.2833 14.8883 2
    endloop
  endfacet
  facet normal 0 -0 -1
    outer loop
      vertex 18.2833 14.8883 2
      vertex 18.6825 13.3194 2
      vertex 17.83 14.395 2
    endloop
  endfacet
  facet normal 0 -0 -1
    outer loop
      vertex 17.83 14.395 2
      vertex 18.6825 13.3194 2
      vertex 17.829 13.041 2
    endloop
  endfacet
  facet normal 0 0 -1
    outer loop
      vertex 17.1928 14.0467 2
      vertex 17.83 14.395 2
      vertex 17.829 13.041 2
    endloop
  endfacet
  facet normal 0 0 -1
    outer loop
      vertex 15.359 13.768 2
      vertex 16.3691 13.8377 2
      vertex 15.738 12.152 2
    endloop
  endfacet
  facet normal 0 0 -1
    outer loop
      vertex 16.3691 13.8377 2
      vertex 17.1928 14.0467 2
      vertex 17.829 13.041 2
    endloop
  endfacet
  facet normal 0 0 -1
    outer loop
      vertex 16.009 5 2
      vertex 15.901 6.659 2
      vertex 17.0482 6.73711 2
    endloop
  endfacet
  facet normal 0 0 -1
    outer loop
      vertex 11.889 12.152 2
      vertex 11.889 13.768 2
      vertex 15.359 13.768 2
    endloop
  endfacet
  facet normal 0 0 -1
    outer loop
      vertex 9.81799 5 2
      vertex 11.889 6.659 2
      vertex 16.009 5 2
    endloop
  endfacet
  facet normal 0 0 -1
    outer loop
      vertex 9.81799 5 2
      vertex 11.889 12.152 2
      vertex 11.889 6.659 2
    endloop
  endfacet
  facet normal -0 0 -1
    outer loop
      vertex 17.829 13.041 2
      vertex 15.738 12.152 2
      vertex 16.3691 13.8377 2
    endloop
  endfacet
  facet normal 0 0 -1
    outer loop
      vertex 15.738 12.152 2
      vertex 11.889 12.152 2
      vertex 15.359 13.768 2
    endloop
  endfacet
  facet normal -0 0 -1
    outer loop
      vertex 18.9478 12.8097 2
      vertex 17.8408 11.8529 2
      vertex 17.829 13.041 2
    endloop
  endfacet
  facet normal 0 0 -1
    outer loop
      vertex 19.523 9.45999 2
      vertex 21.5056 10.255 2
      vertex 21.615 9.29599 2
    endloop
  endfacet
  facet normal 0 -0 -1
    outer loop
      vertex 21.1772 11.0973 2
      vertex 21.5056 10.255 2
      vertex 19.523 9.45999 2
    endloop
  endfacet
  facet normal 0 0 -1
    outer loop
      vertex 19.4269 8.60689 2
      vertex 21.615 9.29599 2
      vertex 21.4502 8.04033 2
    endloop
  endfacet
  facet normal -0 0 -1
    outer loop
      vertex 20.9559 6.98532 2
      vertex 20.132 6.131 2
      vertex 19.1385 7.90755 2
    endloop
  endfacet
  facet normal 0 0 -1
    outer loop
      vertex 18.658 7.362 2
      vertex 19.1385 7.90755 2
      vertex 20.132 6.131 2
    endloop
  endfacet
  facet normal 0 0 -1
    outer loop
      vertex 17.9672 6.97144 2
      vertex 18.658 7.362 2
      vertex 19.0152 5.50266 2
    endloop
  endfacet
  facet normal 0 0 -1
    outer loop
      vertex 17.6409 5.12566 2
      vertex 17.9672 6.97144 2
      vertex 19.0152 5.50266 2
    endloop
  endfacet
  facet normal 0 0 -1
    outer loop
      vertex 17.6409 5.12566 2
      vertex 17.0482 6.73711 2
      vertex 17.9672 6.97144 2
    endloop
  endfacet
  facet normal 0 -0 -1
    outer loop
      vertex 33.498 6.60944 2
      vertex 33.5459 4.8839 2
      vertex 32.4522 5.11154 2
    endloop
  endfacet
  facet normal 0 0 -1
    outer loop
      vertex 38.5828 8.47299 2
      vertex 40.8033 8.52455 2
      vertex 40.3656 7.57199 2
    endloop
  endfacet
  facet normal 0 0 -1
    outer loop
      vertex 40.8033 8.52455 2
      vertex 38.9651 9.56599 2
      vertex 41.066 9.59021 2
    endloop
  endfacet
  facet normal -0 0 -1
    outer loop
      vertex 41.066 9.59021 2
      vertex 38.9651 9.56599 2
      vertex 39.0926 10.889 2
    endloop
  endfacet
  facet normal 0 0 -1
    outer loop
      vertex 39.7684 6.74643 2
      vertex 38.5828 8.47299 2
      vertex 40.3656 7.57199 2
    endloop
  endfacet
  facet normal 0 0 -1
    outer loop
      vertex 39.0264 6.06177 2
      vertex 37.9456 7.60999 2
      vertex 39.7684 6.74643 2
    endloop
  endfacet
  facet normal 0 -0 -1
    outer loop
      vertex 37.9456 7.60999 2
      vertex 38.1396 5.51799 2
      vertex 37.0793 6.98721 2
    endloop
  endfacet
  facet normal 0 0 -1
    outer loop
      vertex 28.6072 9.42999 2
      vertex 28.5216 10.574 2
      vertex 30.5926 10.748 2
    endloop
  endfacet
  facet normal -0 0 -1
    outer loop
      vertex 41.1536 20.296 2
      vertex 39.0926 10.889 2
      vertex 39.0926 20.296 2
    endloop
  endfacet
  facet normal 0 0 -1
    outer loop
      vertex 37.1229 5.12355 2
      vertex 37.0793 6.98721 2
      vertex 38.1396 5.51799 2
    endloop
  endfacet
  facet normal 0 0 -1
    outer loop
      vertex 39.7684 6.74643 2
      vertex 37.9456 7.60999 2
      vertex 38.5828 8.47299 2
    endloop
  endfacet
  facet normal -0 0 -1
    outer loop
      vertex 39.0264 6.06177 2
      vertex 38.1396 5.51799 2
      vertex 37.9456 7.60999 2
    endloop
  endfacet
  facet normal 0 0 -1
    outer loop
      vertex 37.1229 5.12355 2
      vertex 36.0087 6.61354 2
      vertex 37.0793 6.98721 2
    endloop
  endfacet
  facet normal -0 0 -1
    outer loop
      vertex 37.1229 5.12355 2
      vertex 35.9916 4.8869 2
      vertex 36.0087 6.61354 2
    endloop
  endfacet
  facet normal -0 0 -1
    outer loop
      vertex 31.0659 8.40755 2
      vertex 28.8642 8.39665 2
      vertex 30.7109 9.46588 2
    endloop
  endfacet
  facet normal 0 0 -1
    outer loop
      vertex 34.7336 6.489 2
      vertex 35.9916 4.8869 2
      vertex 34.7456 4.80801 2
    endloop
  endfacet
  facet normal 0 0 -1
    outer loop
      vertex 29.2926 7.474 2
      vertex 31.0659 8.40755 2
      vertex 29.8766 6.67589 2
    endloop
  endfacet
  facet normal 0 0 -1
    outer loop
      vertex 33.498 6.60944 2
      vertex 34.7336 6.489 2
      vertex 33.5459 4.8839 2
    endloop
  endfacet
  facet normal 0 -0 -1
    outer loop
      vertex 30.5926 10.748 2
      vertex 30.7109 9.46588 2
      vertex 28.6072 9.42999 2
    endloop
  endfacet
  facet normal 0 0 -1
    outer loop
      vertex 31.0659 8.40755 2
      vertex 29.2926 7.474 2
      vertex 28.8642 8.39665 2
    endloop
  endfacet
  facet normal 0 0 -1
    outer loop
      vertex 30.5926 10.748 2
      vertex 28.5216 20.296 2
      vertex 30.5926 20.296 2
    endloop
  endfacet
  facet normal -0 0 -1
    outer loop
      vertex 30.5926 10.748 2
      vertex 28.5216 10.574 2
      vertex 28.5216 20.296 2
    endloop
  endfacet
  facet normal 0 0 -1
    outer loop
      vertex 28.6072 9.42999 2
      vertex 30.7109 9.46588 2
      vertex 28.8642 8.39665 2
    endloop
  endfacet
  facet normal 0 0 -1
    outer loop
      vertex 31.6576 7.573 2
      vertex 30.6006 6.01488 2
      vertex 29.8766 6.67589 2
    endloop
  endfacet
  facet normal 0 0 -1
    outer loop
      vertex 31.6576 7.573 2
      vertex 31.4646 5.491 2
      vertex 30.6006 6.01488 2
    endloop
  endfacet
  facet normal 0 0 -1
    outer loop
      vertex 32.4727 6.97076 2
      vertex 32.4522 5.11154 2
      vertex 31.4646 5.491 2
    endloop
  endfacet
  facet normal 0 -0 -1
    outer loop
      vertex 32.4727 6.97076 2
      vertex 33.498 6.60944 2
      vertex 32.4522 5.11154 2
    endloop
  endfacet
  facet normal 0 -0 -1
    outer loop
      vertex 34.7336 6.489 2
      vertex 34.7456 4.80801 2
      vertex 33.5459 4.8839 2
    endloop
  endfacet
  facet normal 0 0 1
    outer loop
      vertex 21.615 9.29599 4
      vertex 19.523 9.45999 4
      vertex 19.4269 8.60689 4
    endloop
  endfacet
  facet normal 0 0 1
    outer loop
      vertex 19.1024 10.9556 4
      vertex 21.1772 11.0973 4
      vertex 20.63 11.823 4
    endloop
  endfacet
  facet normal -0 0 1
    outer loop
      vertex 19.1024 10.9556 4
      vertex 19.523 9.45999 4
      vertex 21.1772 11.0973 4
    endloop
  endfacet
  facet normal 0 0 1
    outer loop
      vertex 31.0659 8.40755 4
      vertex 29.8766 6.67589 4
      vertex 31.6576 7.573 4
    endloop
  endfacet
  facet normal 0 0 1
    outer loop
      vertex 19.1024 10.9556 4
      vertex 20.63 11.823 4
      vertex 19.8814 12.4037 4
    endloop
  endfacet
  facet normal 0 0 1
    outer loop
      vertex 31.6576 7.573 4
      vertex 31.4646 5.491 4
      vertex 32.4727 6.97076 4
    endloop
  endfacet
  facet normal 0 -0 1
    outer loop
      vertex 19.1024 10.9556 4
      vertex 19.8814 12.4037 4
      vertex 18.9478 12.8097 4
    endloop
  endfacet
  facet normal 0 0 1
    outer loop
      vertex 19.1024 10.9556 4
      vertex 18.9478 12.8097 4
      vertex 17.8408 11.8529 4
    endloop
  endfacet
  facet normal 0 0 1
    outer loop
      vertex 21.4502 8.04033 4
      vertex 19.4269 8.60689 4
      vertex 20.9559 6.98532 4
    endloop
  endfacet
  facet normal -0 0 1
    outer loop
      vertex 15.738 12.152 4
      vertex 17.8408 11.8529 4
      vertex 17.829 13.041 4
    endloop
  endfacet
  facet normal 0 0 1
    outer loop
      vertex 19.4269 8.60689 4
      vertex 19.1385 7.90755 4
      vertex 20.9559 6.98532 4
    endloop
  endfacet
  facet normal 0 -0 1
    outer loop
      vertex 19.0152 5.50266 4
      vertex 20.132 6.131 4
      vertex 18.658 7.362 4
    endloop
  endfacet
  facet normal 0 0 1
    outer loop
      vertex 16.3416 18.5775 4
      vertex 15.36 20.296 4
      vertex 15.359 18.637 4
    endloop
  endfacet
  facet normal 0 -0 1
    outer loop
      vertex 20.6439 15.711 4
      vertex 20.728 16.57 4
      vertex 18.646 16.323 4
    endloop
  endfacet
  facet normal 0 0 1
    outer loop
      vertex 20.728 16.57 4
      vertex 18.5522 17.0735 4
      vertex 18.646 16.323 4
    endloop
  endfacet
  facet normal 0 0 1
    outer loop
      vertex 36.0087 6.61354 4
      vertex 34.7336 6.489 4
      vertex 35.9916 4.8869 4
    endloop
  endfacet
  facet normal 0 0 1
    outer loop
      vertex 20.6439 15.711 4
      vertex 18.646 16.323 4
      vertex 18.5553 15.531 4
    endloop
  endfacet
  facet normal -0 0 1
    outer loop
      vertex 18.2709 17.6665 4
      vertex 18.5522 17.0735 4
      vertex 20.1315 18.64 4
    endloop
  endfacet
  facet normal -0 0 1
    outer loop
      vertex 16.3416 18.5775 4
      vertex 17.1559 18.3992 4
      vertex 18.3422 19.882 4
    endloop
  endfacet
  facet normal -0 0 1
    outer loop
      vertex 39.0926 10.889 4
      vertex 41.1536 10.769 4
      vertex 41.1536 20.296 4
    endloop
  endfacet
  facet normal 0 -0 1
    outer loop
      vertex 16.3416 18.5775 4
      vertex 18.3422 19.882 4
      vertex 15.36 20.296 4
    endloop
  endfacet
  facet normal 0 0 1
    outer loop
      vertex 38.5828 8.47299 4
      vertex 40.8033 8.52455 4
      vertex 38.9651 9.56599 4
    endloop
  endfacet
  facet normal 0 0 1
    outer loop
      vertex 39.0926 10.889 4
      vertex 41.066 9.59021 4
      vertex 41.1536 10.769 4
    endloop
  endfacet
  facet normal 0 0 1
    outer loop
      vertex 11.889 18.637 4
      vertex 9.81799 20.296 4
      vertex 11.889 13.768 4
    endloop
  endfacet
  facet normal 0 -0 1
    outer loop
      vertex 11.889 12.152 4
      vertex 11.889 13.768 4
      vertex 9.81799 20.296 4
    endloop
  endfacet
  facet normal 0 0 1
    outer loop
      vertex 17.0482 6.73711 4
      vertex 16.009 5 4
      vertex 17.6409 5.12566 4
    endloop
  endfacet
  facet normal 0 0 1
    outer loop
      vertex 15.901 6.659 4
      vertex 11.889 6.659 4
      vertex 16.009 5 4
    endloop
  endfacet
  facet normal 0 0 1
    outer loop
      vertex 9.81799 20.296 4
      vertex 9.81799 5 4
      vertex 11.889 12.152 4
    endloop
  endfacet
  facet normal 0 0 1
    outer loop
      vertex 15.36 20.296 4
      vertex 9.81799 20.296 4
      vertex 11.889 18.637 4
    endloop
  endfacet
  facet normal 0 0 1
    outer loop
      vertex 15.36 20.296 4
      vertex 11.889 18.637 4
      vertex 15.359 18.637 4
    endloop
  endfacet
  facet normal -0 0 1
    outer loop
      vertex 17.1559 18.3992 4
      vertex 17.802 18.102 4
      vertex 18.3422 19.882 4
    endloop
  endfacet
  facet normal -0 0 1
    outer loop
      vertex 17.802 18.102 4
      vertex 18.2709 17.6665 4
      vertex 18.3422 19.882 4
    endloop
  endfacet
  facet normal 0 0 1
    outer loop
      vertex 18.2709 17.6665 4
      vertex 20.1315 18.64 4
      vertex 18.3422 19.882 4
    endloop
  endfacet
  facet normal 0 0 1
    outer loop
      vertex 20.728 16.57 4
      vertex 20.1315 18.64 4
      vertex 18.5522 17.0735 4
    endloop
  endfacet
  facet normal 0 0 1
    outer loop
      vertex 20.6439 15.711 4
      vertex 18.5553 15.531 4
      vertex 20.3915 14.9487 4
    endloop
  endfacet
  facet normal -0 0 1
    outer loop
      vertex 18.2833 14.8883 4
      vertex 19.971 14.283 4
      vertex 18.5553 15.531 4
    endloop
  endfacet
  facet normal 0 0 1
    outer loop
      vertex 18.5553 15.531 4
      vertex 19.971 14.283 4
      vertex 20.3915 14.9487 4
    endloop
  endfacet
  facet normal 0 -0 1
    outer loop
      vertex 18.6825 13.3194 4
      vertex 19.3965 13.7334 4
      vertex 18.2833 14.8883 4
    endloop
  endfacet
  facet normal 0 0 1
    outer loop
      vertex 18.2833 14.8883 4
      vertex 19.3965 13.7334 4
      vertex 19.971 14.283 4
    endloop
  endfacet
  facet normal -0 0 1
    outer loop
      vertex 17.83 14.395 4
      vertex 18.6825 13.3194 4
      vertex 18.2833 14.8883 4
    endloop
  endfacet
  facet normal 0 0 1
    outer loop
      vertex 17.829 13.041 4
      vertex 18.6825 13.3194 4
      vertex 17.83 14.395 4
    endloop
  endfacet
  facet normal 0 -0 1
    outer loop
      vertex 17.829 13.041 4
      vertex 17.83 14.395 4
      vertex 17.1928 14.0467 4
    endloop
  endfacet
  facet normal 0 -0 1
    outer loop
      vertex 15.738 12.152 4
      vertex 16.3691 13.8377 4
      vertex 15.359 13.768 4
    endloop
  endfacet
  facet normal 0 0 1
    outer loop
      vertex 17.829 13.041 4
      vertex 17.1928 14.0467 4
      vertex 16.3691 13.8377 4
    endloop
  endfacet
  facet normal 0 0 1
    outer loop
      vertex 17.0482 6.73711 4
      vertex 15.901 6.659 4
      vertex 16.009 5 4
    endloop
  endfacet
  facet normal 0 0 1
    outer loop
      vertex 15.359 13.768 4
      vertex 11.889 13.768 4
      vertex 11.889 12.152 4
    endloop
  endfacet
  facet normal 0 0 1
    outer loop
      vertex 16.009 5 4
      vertex 11.889 6.659 4
      vertex 9.81799 5 4
    endloop
  endfacet
  facet normal 0 -0 1
    outer loop
      vertex 11.889 6.659 4
      vertex 11.889 12.152 4
      vertex 9.81799 5 4
    endloop
  endfacet
  facet normal 0 0 1
    outer loop
      vertex 16.3691 13.8377 4
      vertex 15.738 12.152 4
      vertex 17.829 13.041 4
    endloop
  endfacet
  facet normal 0 0 1
    outer loop
      vertex 15.359 13.768 4
      vertex 11.889 12.152 4
      vertex 15.738 12.152 4
    endloop
  endfacet
  facet normal 0 0 1
    outer loop
      vertex 17.829 13.041 4
      vertex 17.8408 11.8529 4
      vertex 18.9478 12.8097 4
    endloop
  endfacet
  facet normal 0 0 1
    outer loop
      vertex 21.615 9.29599 4
      vertex 21.5056 10.255 4
      vertex 19.523 9.45999 4
    endloop
  endfacet
  facet normal 0 0 1
    outer loop
      vertex 19.523 9.45999 4
      vertex 21.5056 10.255 4
      vertex 21.1772 11.0973 4
    endloop
  endfacet
  facet normal 0 -0 1
    outer loop
      vertex 21.4502 8.04033 4
      vertex 21.615 9.29599 4
      vertex 19.4269 8.60689 4
    endloop
  endfacet
  facet normal 0 0 1
    outer loop
      vertex 19.1385 7.90755 4
      vertex 20.132 6.131 4
      vertex 20.9559 6.98532 4
    endloop
  endfacet
  facet normal 0 0 1
    outer loop
      vertex 20.132 6.131 4
      vertex 19.1385 7.90755 4
      vertex 18.658 7.362 4
    endloop
  endfacet
  facet normal 0 0 1
    outer loop
      vertex 19.0152 5.50266 4
      vertex 18.658 7.362 4
      vertex 17.9672 6.97144 4
    endloop
  endfacet
  facet normal 0 0 1
    outer loop
      vertex 19.0152 5.50266 4
      vertex 17.9672 6.97144 4
      vertex 17.6409 5.12566 4
    endloop
  endfacet
  facet normal 0 0 1
    outer loop
      vertex 17.9672 6.97144 4
      vertex 17.0482 6.73711 4
      vertex 17.6409 5.12566 4
    endloop
  endfacet
  facet normal -0 0 1
    outer loop
      vertex 32.4522 5.11154 4
      vertex 33.5459 4.8839 4
      vertex 33.498 6.60944 4
    endloop
  endfacet
  facet normal 0 -0 1
    outer loop
      vertex 40.3656 7.57199 4
      vertex 40.8033 8.52455 4
      vertex 38.5828 8.47299 4
    endloop
  endfacet
  facet normal 0 0 1
    outer loop
      vertex 41.066 9.59021 4
      vertex 38.9651 9.56599 4
      vertex 40.8033 8.52455 4
    endloop
  endfacet
  facet normal 0 0 1
    outer loop
      vertex 39.0926 10.889 4
      vertex 38.9651 9.56599 4
      vertex 41.066 9.59021 4
    endloop
  endfacet
  facet normal 0 0 1
    outer loop
      vertex 40.3656 7.57199 4
      vertex 38.5828 8.47299 4
      vertex 39.7684 6.74643 4
    endloop
  endfacet
  facet normal 0 0 1
    outer loop
      vertex 39.7684 6.74643 4
      vertex 37.9456 7.60999 4
      vertex 39.0264 6.06177 4
    endloop
  endfacet
  facet normal -0 0 1
    outer loop
      vertex 37.0793 6.98721 4
      vertex 38.1396 5.51799 4
      vertex 37.9456 7.60999 4
    endloop
  endfacet
  facet normal 0 0 1
    outer loop
      vertex 30.5926 10.748 4
      vertex 28.5216 10.574 4
      vertex 28.6072 9.42999 4
    endloop
  endfacet
  facet normal -0 0 1
    outer loop
      vertex 39.0926 20.296 4
      vertex 39.0926 10.889 4
      vertex 41.1536 20.296 4
    endloop
  endfacet
  facet normal 0 0 1
    outer loop
      vertex 38.1396 5.51799 4
      vertex 37.0793 6.98721 4
      vertex 37.1229 5.12355 4
    endloop
  endfacet
  facet normal 0 0 1
    outer loop
      vertex 38.5828 8.47299 4
      vertex 37.9456 7.60999 4
      vertex 39.7684 6.74643 4
    endloop
  endfacet
  facet normal 0 0 1
    outer loop
      vertex 37.9456 7.60999 4
      vertex 38.1396 5.51799 4
      vertex 39.0264 6.06177 4
    endloop
  endfacet
  facet normal 0 0 1
    outer loop
      vertex 37.0793 6.98721 4
      vertex 36.0087 6.61354 4
      vertex 37.1229 5.12355 4
    endloop
  endfacet
  facet normal 0 0 1
    outer loop
      vertex 36.0087 6.61354 4
      vertex 35.9916 4.8869 4
      vertex 37.1229 5.12355 4
    endloop
  endfacet
  facet normal 0 0 1
    outer loop
      vertex 30.7109 9.46588 4
      vertex 28.8642 8.39665 4
      vertex 31.0659 8.40755 4
    endloop
  endfacet
  facet normal 0 -0 1
    outer loop
      vertex 34.7456 4.80801 4
      vertex 35.9916 4.8869 4
      vertex 34.7336 6.489 4
    endloop
  endfacet
  facet normal 0 -0 1
    outer loop
      vertex 29.8766 6.67589 4
      vertex 31.0659 8.40755 4
      vertex 29.2926 7.474 4
    endloop
  endfacet
  facet normal 0 -0 1
    outer loop
      vertex 33.5459 4.8839 4
      vertex 34.7336 6.489 4
      vertex 33.498 6.60944 4
    endloop
  endfacet
  facet normal 0 0 1
    outer loop
      vertex 28.6072 9.42999 4
      vertex 30.7109 9.46588 4
      vertex 30.5926 10.748 4
    endloop
  endfacet
  facet normal -0 0 1
    outer loop
      vertex 28.8642 8.39665 4
      vertex 29.2926 7.474 4
      vertex 31.0659 8.40755 4
    endloop
  endfacet
  facet normal 0 0 1
    outer loop
      vertex 30.5926 20.296 4
      vertex 28.5216 20.296 4
      vertex 30.5926 10.748 4
    endloop
  endfacet
  facet normal 0 0 1
    outer loop
      vertex 28.5216 20.296 4
      vertex 28.5216 10.574 4
      vertex 30.5926 10.748 4
    endloop
  endfacet
  facet normal 0 -0 1
    outer loop
      vertex 28.8642 8.39665 4
      vertex 30.7109 9.46588 4
      vertex 28.6072 9.42999 4
    endloop
  endfacet
  facet normal -0 0 1
    outer loop
      vertex 29.8766 6.67589 4
      vertex 30.6006 6.01488 4
      vertex 31.6576 7.573 4
    endloop
  endfacet
  facet normal -0 0 1
    outer loop
      vertex 30.6006 6.01488 4
      vertex 31.4646 5.491 4
      vertex 31.6576 7.573 4
    endloop
  endfacet
  facet normal -0 0 1
    outer loop
      vertex 31.4646 5.491 4
      vertex 32.4522 5.11154 4
      vertex 32.4727 6.97076 4
    endloop
  endfacet
  facet normal 0 0 1
    outer loop
      vertex 32.4522 5.11154 4
      vertex 33.498 6.60944 4
      vertex 32.4727 6.97076 4
    endloop
  endfacet
  facet normal -0 0 1
    outer loop
      vertex 33.5459 4.8839 4
      vertex 34.7456 4.80801 4
      vertex 34.7336 6.489 4
    endloop
  endfacet
  facet normal 0.264542 -0.964374 0
    outer loop
      vertex 19.0152 5.50266 2
      vertex 17.6409 5.12566 4
      vertex 17.6409 5.12566 2
    endloop
  endfacet
  facet normal 0.264542 -0.964374 0
    outer loop
      vertex 19.0152 5.50266 2
      vertex 19.0152 5.50266 4
      vertex 17.6409 5.12566 4
    endloop
  endfacet
  facet normal 0.490353 -0.871524 0
    outer loop
      vertex 20.132 6.131 2
      vertex 19.0152 5.50266 4
      vertex 19.0152 5.50266 2
    endloop
  endfacet
  facet normal 0.490353 -0.871524 0
    outer loop
      vertex 20.132 6.131 2
      vertex 20.132 6.131 4
      vertex 19.0152 5.50266 4
    endloop
  endfacet
  facet normal 0.719808 -0.694173 0
    outer loop
      vertex 20.9559 6.98532 2
      vertex 20.132 6.131 4
      vertex 20.132 6.131 2
    endloop
  endfacet
  facet normal 0.719808 -0.694173 0
    outer loop
      vertex 20.9559 6.98532 2
      vertex 20.9559 6.98532 4
      vertex 20.132 6.131 4
    endloop
  endfacet
  facet normal 0.905529 -0.424285 0
    outer loop
      vertex 21.4502 8.04033 2
      vertex 20.9559 6.98532 4
      vertex 20.9559 6.98532 2
    endloop
  endfacet
  facet normal 0.905529 -0.424285 0
    outer loop
      vertex 21.4502 8.04033 2
      vertex 21.4502 8.04033 4
      vertex 20.9559 6.98532 4
    endloop
  endfacet
  facet normal 0.991499 -0.130114 0
    outer loop
      vertex 21.615 9.29599 2
      vertex 21.4502 8.04033 4
      vertex 21.4502 8.04033 2
    endloop
  endfacet
  facet normal 0.991499 -0.130114 0
    outer loop
      vertex 21.615 9.29599 2
      vertex 21.615 9.29599 4
      vertex 21.4502 8.04033 4
    endloop
  endfacet
  facet normal 0.993552 0.113379 0
    outer loop
      vertex 21.5056 10.255 2
      vertex 21.615 9.29599 4
      vertex 21.615 9.29599 2
    endloop
  endfacet
  facet normal 0.993552 0.113379 -0
    outer loop
      vertex 21.5056 10.255 2
      vertex 21.5056 10.255 4
      vertex 21.615 9.29599 4
    endloop
  endfacet
  facet normal 0.931718 0.363182 0
    outer loop
      vertex 21.1772 11.0973 2
      vertex 21.5056 10.255 4
      vertex 21.5056 10.255 2
    endloop
  endfacet
  facet normal 0.931718 0.363182 -0
    outer loop
      vertex 21.1772 11.0973 2
      vertex 21.1772 11.0973 4
      vertex 21.5056 10.255 4
    endloop
  endfacet
  facet normal 0.79843 0.602088 0
    outer loop
      vertex 20.63 11.823 2
      vertex 21.1772 11.0973 4
      vertex 21.1772 11.0973 2
    endloop
  endfacet
  facet normal 0.79843 0.602088 -0
    outer loop
      vertex 20.63 11.823 2
      vertex 20.63 11.823 4
      vertex 21.1772 11.0973 4
    endloop
  endfacet
  facet normal 0.612922 0.790143 0
    outer loop
      vertex 19.8814 12.4037 2
      vertex 20.63 11.823 4
      vertex 20.63 11.823 2
    endloop
  endfacet
  facet normal 0.612922 0.790143 -0
    outer loop
      vertex 19.8814 12.4037 2
      vertex 19.8814 12.4037 4
      vertex 20.63 11.823 4
    endloop
  endfacet
  facet normal 0.398778 0.917048 0
    outer loop
      vertex 18.9478 12.8097 2
      vertex 19.8814 12.4037 4
      vertex 19.8814 12.4037 2
    endloop
  endfacet
  facet normal 0.398778 0.917048 -0
    outer loop
      vertex 18.9478 12.8097 2
      vertex 18.9478 12.8097 4
      vertex 19.8814 12.4037 4
    endloop
  endfacet
  facet normal 0.202482 0.979286 0
    outer loop
      vertex 17.829 13.041 2
      vertex 18.9478 12.8097 4
      vertex 18.9478 12.8097 2
    endloop
  endfacet
  facet normal 0.202482 0.979286 -0
    outer loop
      vertex 17.829 13.041 2
      vertex 17.829 13.041 4
      vertex 18.9478 12.8097 4
    endloop
  endfacet
  facet normal 0.310149 -0.950688 0
    outer loop
      vertex 18.6825 13.3194 2
      vertex 17.829 13.041 4
      vertex 17.829 13.041 2
    endloop
  endfacet
  facet normal 0.310149 -0.950688 0
    outer loop
      vertex 18.6825 13.3194 2
      vertex 18.6825 13.3194 4
      vertex 17.829 13.041 4
    endloop
  endfacet
  facet normal 0.501608 -0.865095 0
    outer loop
      vertex 19.3965 13.7334 2
      vertex 18.6825 13.3194 4
      vertex 18.6825 13.3194 2
    endloop
  endfacet
  facet normal 0.501608 -0.865095 0
    outer loop
      vertex 19.3965 13.7334 2
      vertex 19.3965 13.7334 4
      vertex 18.6825 13.3194 4
    endloop
  endfacet
  facet normal 0.691271 -0.722596 0
    outer loop
      vertex 19.971 14.283 2
      vertex 19.3965 13.7334 4
      vertex 19.3965 13.7334 2
    endloop
  endfacet
  facet normal 0.691271 -0.722596 0
    outer loop
      vertex 19.971 14.283 2
      vertex 19.971 14.283 4
      vertex 19.3965 13.7334 4
    endloop
  endfacet
  facet normal 0.845416 -0.534109 0
    outer loop
      vertex 20.3915 14.9487 2
      vertex 19.971 14.283 4
      vertex 19.971 14.283 2
    endloop
  endfacet
  facet normal 0.845416 -0.534109 0
    outer loop
      vertex 20.3915 14.9487 2
      vertex 20.3915 14.9487 4
      vertex 19.971 14.283 4
    endloop
  endfacet
  facet normal 0.949346 -0.314232 0
    outer loop
      vertex 20.6439 15.711 2
      vertex 20.3915 14.9487 4
      vertex 20.3915 14.9487 2
    endloop
  endfacet
  facet normal 0.949346 -0.314232 0
    outer loop
      vertex 20.6439 15.711 2
      vertex 20.6439 15.711 4
      vertex 20.3915 14.9487 4
    endloop
  endfacet
  facet normal 0.995239 -0.0974643 0
    outer loop
      vertex 20.728 16.57 2
      vertex 20.6439 15.711 4
      vertex 20.6439 15.711 2
    endloop
  endfacet
  facet normal 0.995239 -0.0974643 0
    outer loop
      vertex 20.728 16.57 2
      vertex 20.728 16.57 4
      vertex 20.6439 15.711 4
    endloop
  endfacet
  facet normal 0.960906 0.276875 0
    outer loop
      vertex 20.1315 18.64 2
      vertex 20.728 16.57 4
      vertex 20.728 16.57 2
    endloop
  endfacet
  facet normal 0.960906 0.276875 -0
    outer loop
      vertex 20.1315 18.64 2
      vertex 20.1315 18.64 4
      vertex 20.728 16.57 4
    endloop
  endfacet
  facet normal 0.570208 0.8215 0
    outer loop
      vertex 18.3422 19.882 2
      vertex 20.1315 18.64 4
      vertex 20.1315 18.64 2
    endloop
  endfacet
  facet normal 0.570208 0.8215 -0
    outer loop
      vertex 18.3422 19.882 2
      vertex 18.3422 19.882 4
      vertex 20.1315 18.64 4
    endloop
  endfacet
  facet normal 0.137504 0.990501 0
    outer loop
      vertex 15.36 20.296 2
      vertex 18.3422 19.882 4
      vertex 18.3422 19.882 2
    endloop
  endfacet
  facet normal 0.137504 0.990501 -0
    outer loop
      vertex 15.36 20.296 2
      vertex 15.36 20.296 4
      vertex 18.3422 19.882 4
    endloop
  endfacet
  facet normal 0 1 0
    outer loop
      vertex 9.81799 20.296 2
      vertex 15.36 20.296 4
      vertex 15.36 20.296 2
    endloop
  endfacet
  facet normal 0 1 0
    outer loop
      vertex 9.81799 20.296 2
      vertex 9.81799 20.296 4
      vertex 15.36 20.296 4
    endloop
  endfacet
  facet normal -1 0 0
    outer loop
      vertex 9.81799 5 2
      vertex 9.81799 20.296 4
      vertex 9.81799 20.296 2
    endloop
  endfacet
  facet normal -1 0 0
    outer loop
      vertex 9.81799 5 2
      vertex 9.81799 5 4
      vertex 9.81799 20.296 4
    endloop
  endfacet
  facet normal 0 -1 0
    outer loop
      vertex 16.009 5 2
      vertex 9.81799 5 4
      vertex 9.81799 5 2
    endloop
  endfacet
  facet normal 0 -1 0
    outer loop
      vertex 16.009 5 2
      vertex 16.009 5 4
      vertex 9.81799 5 4
    endloop
  endfacet
  facet normal 0.0767728 -0.997049 0
    outer loop
      vertex 17.6409 5.12566 2
      vertex 16.009 5 4
      vertex 16.009 5 2
    endloop
  endfacet
  facet normal 0.0767728 -0.997049 0
    outer loop
      vertex 17.6409 5.12566 2
      vertex 17.6409 5.12566 4
      vertex 16.009 5 4
    endloop
  endfacet
  facet normal 1 0 -0
    outer loop
      vertex 11.889 18.637 2
      vertex 11.889 18.637 4
      vertex 11.889 13.768 2
    endloop
  endfacet
  facet normal 1 -0 0
    outer loop
      vertex 11.889 13.768 4
      vertex 11.889 13.768 2
      vertex 11.889 18.637 4
    endloop
  endfacet
  facet normal 0 -1 0
    outer loop
      vertex 15.359 18.637 2
      vertex 15.359 18.637 4
      vertex 11.889 18.637 2
    endloop
  endfacet
  facet normal 0 -1 0
    outer loop
      vertex 11.889 18.637 4
      vertex 11.889 18.637 2
      vertex 15.359 18.637 4
    endloop
  endfacet
  facet normal -0.060393 -0.998175 0
    outer loop
      vertex 16.3416 18.5775 2
      vertex 16.3416 18.5775 4
      vertex 15.359 18.637 2
    endloop
  endfacet
  facet normal -0.060393 -0.998175 -0
    outer loop
      vertex 15.359 18.637 4
      vertex 15.359 18.637 2
      vertex 16.3416 18.5775 4
    endloop
  endfacet
  facet normal -0.21392 -0.976851 0
    outer loop
      vertex 17.1559 18.3992 2
      vertex 17.1559 18.3992 4
      vertex 16.3416 18.5775 2
    endloop
  endfacet
  facet normal -0.21392 -0.976851 -0
    outer loop
      vertex 16.3416 18.5775 4
      vertex 16.3416 18.5775 2
      vertex 17.1559 18.3992 4
    endloop
  endfacet
  facet normal -0.417927 -0.908481 0
    outer loop
      vertex 17.802 18.102 2
      vertex 17.802 18.102 4
      vertex 17.1559 18.3992 2
    endloop
  endfacet
  facet normal -0.417927 -0.908481 -0
    outer loop
      vertex 17.1559 18.3992 4
      vertex 17.1559 18.3992 2
      vertex 17.802 18.102 4
    endloop
  endfacet
  facet normal -0.680489 -0.732759 0
    outer loop
      vertex 18.2709 17.6665 2
      vertex 18.2709 17.6665 4
      vertex 17.802 18.102 2
    endloop
  endfacet
  facet normal -0.680489 -0.732759 -0
    outer loop
      vertex 17.802 18.102 4
      vertex 17.802 18.102 2
      vertex 18.2709 17.6665 4
    endloop
  endfacet
  facet normal -0.903475 -0.428641 0
    outer loop
      vertex 18.5522 17.0735 2
      vertex 18.5522 17.0735 4
      vertex 18.2709 17.6665 2
    endloop
  endfacet
  facet normal -0.903475 -0.428641 -0
    outer loop
      vertex 18.2709 17.6665 4
      vertex 18.2709 17.6665 2
      vertex 18.5522 17.0735 4
    endloop
  endfacet
  facet normal -0.992284 -0.123985 0
    outer loop
      vertex 18.646 16.323 2
      vertex 18.646 16.323 4
      vertex 18.5522 17.0735 2
    endloop
  endfacet
  facet normal -0.992284 -0.123985 -0
    outer loop
      vertex 18.5522 17.0735 4
      vertex 18.5522 17.0735 2
      vertex 18.646 16.323 4
    endloop
  endfacet
  facet normal -0.993511 0.113736 0
    outer loop
      vertex 18.5553 15.531 2
      vertex 18.5553 15.531 4
      vertex 18.646 16.323 2
    endloop
  endfacet
  facet normal -0.993511 0.113736 0
    outer loop
      vertex 18.646 16.323 4
      vertex 18.646 16.323 2
      vertex 18.5553 15.531 4
    endloop
  endfacet
  facet normal -0.920914 0.389767 0
    outer loop
      vertex 18.2833 14.8883 2
      vertex 18.2833 14.8883 4
      vertex 18.5553 15.531 2
    endloop
  endfacet
  facet normal -0.920914 0.389767 0
    outer loop
      vertex 18.5553 15.531 4
      vertex 18.5553 15.531 2
      vertex 18.2833 14.8883 4
    endloop
  endfacet
  facet normal -0.736323 0.676631 0
    outer loop
      vertex 17.83 14.395 2
      vertex 17.83 14.395 4
      vertex 18.2833 14.8883 2
    endloop
  endfacet
  facet normal -0.736323 0.676631 0
    outer loop
      vertex 18.2833 14.8883 4
      vertex 18.2833 14.8883 2
      vertex 17.83 14.395 4
    endloop
  endfacet
  facet normal -0.47965 0.87746 0
    outer loop
      vertex 17.1928 14.0467 2
      vertex 17.1928 14.0467 4
      vertex 17.83 14.395 2
    endloop
  endfacet
  facet normal -0.47965 0.87746 0
    outer loop
      vertex 17.83 14.395 4
      vertex 17.83 14.395 2
      vertex 17.1928 14.0467 4
    endloop
  endfacet
  facet normal -0.245952 0.969282 0
    outer loop
      vertex 16.3691 13.8377 2
      vertex 16.3691 13.8377 4
      vertex 17.1928 14.0467 2
    endloop
  endfacet
  facet normal -0.245952 0.969282 0
    outer loop
      vertex 17.1928 14.0467 4
      vertex 17.1928 14.0467 2
      vertex 16.3691 13.8377 4
    endloop
  endfacet
  facet normal -0.0688104 0.99763 0
    outer loop
      vertex 15.359 13.768 2
      vertex 15.359 13.768 4
      vertex 16.3691 13.8377 2
    endloop
  endfacet
  facet normal -0.0688104 0.99763 0
    outer loop
      vertex 16.3691 13.8377 4
      vertex 16.3691 13.8377 2
      vertex 15.359 13.768 4
    endloop
  endfacet
  facet normal 0 1 0
    outer loop
      vertex 11.889 13.768 2
      vertex 11.889 13.768 4
      vertex 15.359 13.768 2
    endloop
  endfacet
  facet normal 0 1 0
    outer loop
      vertex 15.359 13.768 4
      vertex 15.359 13.768 2
      vertex 11.889 13.768 4
    endloop
  endfacet
  facet normal 1 0 -0
    outer loop
      vertex 11.889 12.152 2
      vertex 11.889 12.152 4
      vertex 11.889 6.659 2
    endloop
  endfacet
  facet normal 1 -0 0
    outer loop
      vertex 11.889 6.659 4
      vertex 11.889 6.659 2
      vertex 11.889 12.152 4
    endloop
  endfacet
  facet normal 0 -1 0
    outer loop
      vertex 15.738 12.152 2
      vertex 15.738 12.152 4
      vertex 11.889 12.152 2
    endloop
  endfacet
  facet normal 0 -1 0
    outer loop
      vertex 11.889 12.152 4
      vertex 11.889 12.152 2
      vertex 15.738 12.152 4
    endloop
  endfacet
  facet normal -0.140831 -0.990034 0
    outer loop
      vertex 17.8408 11.8529 2
      vertex 17.8408 11.8529 4
      vertex 15.738 12.152 2
    endloop
  endfacet
  facet normal -0.140831 -0.990034 -0
    outer loop
      vertex 15.738 12.152 4
      vertex 15.738 12.152 2
      vertex 17.8408 11.8529 4
    endloop
  endfacet
  facet normal -0.579586 -0.814911 0
    outer loop
      vertex 19.1024 10.9556 2
      vertex 19.1024 10.9556 4
      vertex 17.8408 11.8529 2
    endloop
  endfacet
  facet normal -0.579586 -0.814911 -0
    outer loop
      vertex 17.8408 11.8529 4
      vertex 17.8408 11.8529 2
      vertex 19.1024 10.9556 4
    endloop
  endfacet
  facet normal -0.962662 -0.270708 0
    outer loop
      vertex 19.523 9.45999 2
      vertex 19.523 9.45999 4
      vertex 19.1024 10.9556 2
    endloop
  endfacet
  facet normal -0.962662 -0.270708 -0
    outer loop
      vertex 19.1024 10.9556 4
      vertex 19.1024 10.9556 2
      vertex 19.523 9.45999 4
    endloop
  endfacet
  facet normal -0.993713 0.111957 0
    outer loop
      vertex 19.4269 8.60689 2
      vertex 19.4269 8.60689 4
      vertex 19.523 9.45999 2
    endloop
  endfacet
  facet normal -0.993713 0.111957 0
    outer loop
      vertex 19.523 9.45999 4
      vertex 19.523 9.45999 2
      vertex 19.4269 8.60689 4
    endloop
  endfacet
  facet normal -0.924508 0.381164 0
    outer loop
      vertex 19.1385 7.90755 2
      vertex 19.1385 7.90755 4
      vertex 19.4269 8.60689 2
    endloop
  endfacet
  facet normal -0.924508 0.381164 0
    outer loop
      vertex 19.4269 8.60689 4
      vertex 19.4269 8.60689 2
      vertex 19.1385 7.90755 4
    endloop
  endfacet
  facet normal -0.750387 0.660999 0
    outer loop
      vertex 18.658 7.362 2
      vertex 18.658 7.362 4
      vertex 19.1385 7.90755 2
    endloop
  endfacet
  facet normal -0.750387 0.660999 0
    outer loop
      vertex 19.1385 7.90755 4
      vertex 19.1385 7.90755 2
      vertex 18.658 7.362 4
    endloop
  endfacet
  facet normal -0.492174 0.870497 0
    outer loop
      vertex 17.9672 6.97144 2
      vertex 17.9672 6.97144 4
      vertex 18.658 7.362 2
    endloop
  endfacet
  facet normal -0.492174 0.870497 0
    outer loop
      vertex 18.658 7.362 4
      vertex 18.658 7.362 2
      vertex 17.9672 6.97144 4
    endloop
  endfacet
  facet normal -0.24708 0.968995 0
    outer loop
      vertex 17.0482 6.73711 2
      vertex 17.0482 6.73711 4
      vertex 17.9672 6.97144 2
    endloop
  endfacet
  facet normal -0.24708 0.968995 0
    outer loop
      vertex 17.9672 6.97144 4
      vertex 17.9672 6.97144 2
      vertex 17.0482 6.73711 4
    endloop
  endfacet
  facet normal -0.0679281 0.99769 0
    outer loop
      vertex 15.901 6.659 2
      vertex 15.901 6.659 4
      vertex 17.0482 6.73711 2
    endloop
  endfacet
  facet normal -0.0679281 0.99769 0
    outer loop
      vertex 17.0482 6.73711 4
      vertex 17.0482 6.73711 2
      vertex 15.901 6.659 4
    endloop
  endfacet
  facet normal 0 1 0
    outer loop
      vertex 11.889 6.659 2
      vertex 11.889 6.659 4
      vertex 15.901 6.659 2
    endloop
  endfacet
  facet normal 0 1 0
    outer loop
      vertex 15.901 6.659 4
      vertex 15.901 6.659 2
      vertex 11.889 6.659 4
    endloop
  endfacet
  facet normal 0.204745 -0.978815 0
    outer loop
      vertex 37.1229 5.12355 2
      vertex 35.9916 4.8869 4
      vertex 35.9916 4.8869 2
    endloop
  endfacet
  facet normal 0.204745 -0.978815 0
    outer loop
      vertex 37.1229 5.12355 2
      vertex 37.1229 5.12355 4
      vertex 35.9916 4.8869 4
    endloop
  endfacet
  facet normal 0.361706 -0.932292 0
    outer loop
      vertex 38.1396 5.51799 2
      vertex 37.1229 5.12355 4
      vertex 37.1229 5.12355 2
    endloop
  endfacet
  facet normal 0.361706 -0.932292 0
    outer loop
      vertex 38.1396 5.51799 2
      vertex 38.1396 5.51799 4
      vertex 37.1229 5.12355 4
    endloop
  endfacet
  facet normal 0.522703 -0.852515 0
    outer loop
      vertex 39.0264 6.06177 2
      vertex 38.1396 5.51799 4
      vertex 38.1396 5.51799 2
    endloop
  endfacet
  facet normal 0.522703 -0.852515 0
    outer loop
      vertex 39.0264 6.06177 2
      vertex 39.0264 6.06177 4
      vertex 38.1396 5.51799 4
    endloop
  endfacet
  facet normal 0.678138 -0.734934 0
    outer loop
      vertex 39.7684 6.74643 2
      vertex 39.0264 6.06177 4
      vertex 39.0264 6.06177 2
    endloop
  endfacet
  facet normal 0.678138 -0.734934 0
    outer loop
      vertex 39.7684 6.74643 2
      vertex 39.7684 6.74643 4
      vertex 39.0264 6.06177 4
    endloop
  endfacet
  facet normal 0.810275 -0.58605 0
    outer loop
      vertex 40.3656 7.57199 2
      vertex 39.7684 6.74643 4
      vertex 39.7684 6.74643 2
    endloop
  endfacet
  facet normal 0.810275 -0.58605 0
    outer loop
      vertex 40.3656 7.57199 2
      vertex 40.3656 7.57199 4
      vertex 39.7684 6.74643 4
    endloop
  endfacet
  facet normal 0.908636 -0.417588 0
    outer loop
      vertex 40.8033 8.52455 2
      vertex 40.3656 7.57199 4
      vertex 40.3656 7.57199 2
    endloop
  endfacet
  facet normal 0.908636 -0.417588 0
    outer loop
      vertex 40.8033 8.52455 2
      vertex 40.8033 8.52455 4
      vertex 40.3656 7.57199 4
    endloop
  endfacet
  facet normal 0.970938 -0.239332 0
    outer loop
      vertex 41.066 9.59021 2
      vertex 40.8033 8.52455 4
      vertex 40.8033 8.52455 2
    endloop
  endfacet
  facet normal 0.970938 -0.239332 0
    outer loop
      vertex 41.066 9.59021 2
      vertex 41.066 9.59021 4
      vertex 40.8033 8.52455 4
    endloop
  endfacet
  facet normal 0.997253 -0.0740714 0
    outer loop
      vertex 41.1536 10.769 2
      vertex 41.066 9.59021 4
      vertex 41.066 9.59021 2
    endloop
  endfacet
  facet normal 0.997253 -0.0740714 0
    outer loop
      vertex 41.1536 10.769 2
      vertex 41.1536 10.769 4
      vertex 41.066 9.59021 4
    endloop
  endfacet
  facet normal 1 0 0
    outer loop
      vertex 41.1536 20.296 2
      vertex 41.1536 10.769 4
      vertex 41.1536 10.769 2
    endloop
  endfacet
  facet normal 1 0 -0
    outer loop
      vertex 41.1536 20.296 2
      vertex 41.1536 20.296 4
      vertex 41.1536 10.769 4
    endloop
  endfacet
  facet normal 0 1 0
    outer loop
      vertex 39.0926 20.296 2
      vertex 41.1536 20.296 4
      vertex 41.1536 20.296 2
    endloop
  endfacet
  facet normal 0 1 0
    outer loop
      vertex 39.0926 20.296 2
      vertex 39.0926 20.296 4
      vertex 41.1536 20.296 4
    endloop
  endfacet
  facet normal -1 0 0
    outer loop
      vertex 39.0926 10.889 2
      vertex 39.0926 20.296 4
      vertex 39.0926 20.296 2
    endloop
  endfacet
  facet normal -1 0 0
    outer loop
      vertex 39.0926 10.889 2
      vertex 39.0926 10.889 4
      vertex 39.0926 20.296 4
    endloop
  endfacet
  facet normal -0.995393 0.0958839 0
    outer loop
      vertex 38.9651 9.56599 2
      vertex 39.0926 10.889 4
      vertex 39.0926 10.889 2
    endloop
  endfacet
  facet normal -0.995393 0.0958839 0
    outer loop
      vertex 38.9651 9.56599 2
      vertex 38.9651 9.56599 4
      vertex 39.0926 10.889 4
    endloop
  endfacet
  facet normal -0.943915 0.330188 0
    outer loop
      vertex 38.5828 8.47299 2
      vertex 38.9651 9.56599 4
      vertex 38.9651 9.56599 2
    endloop
  endfacet
  facet normal -0.943915 0.330188 0
    outer loop
      vertex 38.5828 8.47299 2
      vertex 38.5828 8.47299 4
      vertex 38.9651 9.56599 4
    endloop
  endfacet
  facet normal -0.804467 0.593998 0
    outer loop
      vertex 37.9456 7.60999 2
      vertex 38.5828 8.47299 4
      vertex 38.5828 8.47299 2
    endloop
  endfacet
  facet normal -0.804467 0.593998 0
    outer loop
      vertex 37.9456 7.60999 2
      vertex 37.9456 7.60999 4
      vertex 38.5828 8.47299 4
    endloop
  endfacet
  facet normal -0.583742 0.811939 0
    outer loop
      vertex 37.0793 6.98721 2
      vertex 37.9456 7.60999 4
      vertex 37.9456 7.60999 2
    endloop
  endfacet
  facet normal -0.583742 0.811939 0
    outer loop
      vertex 37.0793 6.98721 2
      vertex 37.0793 6.98721 4
      vertex 37.9456 7.60999 4
    endloop
  endfacet
  facet normal -0.329518 0.944149 0
    outer loop
      vertex 36.0087 6.61354 2
      vertex 37.0793 6.98721 4
      vertex 37.0793 6.98721 2
    endloop
  endfacet
  facet normal -0.329518 0.944149 0
    outer loop
      vertex 36.0087 6.61354 2
      vertex 36.0087 6.61354 4
      vertex 37.0793 6.98721 4
    endloop
  endfacet
  facet normal -0.0972099 0.995264 0
    outer loop
      vertex 34.7336 6.489 2
      vertex 36.0087 6.61354 4
      vertex 36.0087 6.61354 2
    endloop
  endfacet
  facet normal -0.0972099 0.995264 0
    outer loop
      vertex 34.7336 6.489 2
      vertex 34.7336 6.489 4
      vertex 36.0087 6.61354 4
    endloop
  endfacet
  facet normal 0.0970159 0.995283 0
    outer loop
      vertex 33.498 6.60944 2
      vertex 34.7336 6.489 4
      vertex 34.7336 6.489 2
    endloop
  endfacet
  facet normal 0.0970159 0.995283 -0
    outer loop
      vertex 33.498 6.60944 2
      vertex 33.498 6.60944 4
      vertex 34.7336 6.489 4
    endloop
  endfacet
  facet normal 0.332368 0.94315 0
    outer loop
      vertex 32.4727 6.97076 2
      vertex 33.498 6.60944 4
      vertex 33.498 6.60944 2
    endloop
  endfacet
  facet normal 0.332368 0.94315 -0
    outer loop
      vertex 32.4727 6.97076 2
      vertex 32.4727 6.97076 4
      vertex 33.498 6.60944 4
    endloop
  endfacet
  facet normal 0.594239 0.804288 0
    outer loop
      vertex 31.6576 7.573 2
      vertex 32.4727 6.97076 4
      vertex 32.4727 6.97076 2
    endloop
  endfacet
  facet normal 0.594239 0.804288 -0
    outer loop
      vertex 31.6576 7.573 2
      vertex 31.6576 7.573 4
      vertex 32.4727 6.97076 4
    endloop
  endfacet
  facet normal 0.815777 0.578366 0
    outer loop
      vertex 31.0659 8.40755 2
      vertex 31.6576 7.573 4
      vertex 31.6576 7.573 2
    endloop
  endfacet
  facet normal 0.815777 0.578366 -0
    outer loop
      vertex 31.0659 8.40755 2
      vertex 31.0659 8.40755 4
      vertex 31.6576 7.573 4
    endloop
  endfacet
  facet normal 0.948086 0.318015 0
    outer loop
      vertex 30.7109 9.46588 2
      vertex 31.0659 8.40755 4
      vertex 31.0659 8.40755 2
    endloop
  endfacet
  facet normal 0.948086 0.318015 -0
    outer loop
      vertex 30.7109 9.46588 2
      vertex 30.7109 9.46588 4
      vertex 31.0659 8.40755 4
    endloop
  endfacet
  facet normal 0.995768 0.0919045 0
    outer loop
      vertex 30.5926 10.748 2
      vertex 30.7109 9.46588 4
      vertex 30.7109 9.46588 2
    endloop
  endfacet
  facet normal 0.995768 0.0919045 -0
    outer loop
      vertex 30.5926 10.748 2
      vertex 30.5926 10.748 4
      vertex 30.7109 9.46588 4
    endloop
  endfacet
  facet normal 1 0 0
    outer loop
      vertex 30.5926 20.296 2
      vertex 30.5926 10.748 4
      vertex 30.5926 10.748 2
    endloop
  endfacet
  facet normal 1 0 -0
    outer loop
      vertex 30.5926 20.296 2
      vertex 30.5926 20.296 4
      vertex 30.5926 10.748 4
    endloop
  endfacet
  facet normal 0 1 0
    outer loop
      vertex 28.5216 20.296 2
      vertex 30.5926 20.296 4
      vertex 30.5926 20.296 2
    endloop
  endfacet
  facet normal 0 1 0
    outer loop
      vertex 28.5216 20.296 2
      vertex 28.5216 20.296 4
      vertex 30.5926 20.296 4
    endloop
  endfacet
  facet normal -1 0 0
    outer loop
      vertex 28.5216 10.574 2
      vertex 28.5216 20.296 4
      vertex 28.5216 20.296 2
    endloop
  endfacet
  facet normal -1 0 0
    outer loop
      vertex 28.5216 10.574 2
      vertex 28.5216 10.574 4
      vertex 28.5216 20.296 4
    endloop
  endfacet
  facet normal -0.997208 -0.0746712 0
    outer loop
      vertex 28.6072 9.42999 2
      vertex 28.5216 10.574 4
      vertex 28.5216 10.574 2
    endloop
  endfacet
  facet normal -0.997208 -0.0746712 0
    outer loop
      vertex 28.6072 9.42999 2
      vertex 28.6072 9.42999 4
      vertex 28.5216 10.574 4
    endloop
  endfacet
  facet normal -0.970436 -0.241359 0
    outer loop
      vertex 28.8642 8.39665 2
      vertex 28.6072 9.42999 4
      vertex 28.6072 9.42999 2
    endloop
  endfacet
  facet normal -0.970436 -0.241359 0
    outer loop
      vertex 28.8642 8.39665 2
      vertex 28.8642 8.39665 4
      vertex 28.6072 9.42999 4
    endloop
  endfacet
  facet normal -0.907026 -0.421075 0
    outer loop
      vertex 29.2926 7.474 2
      vertex 28.8642 8.39665 4
      vertex 28.8642 8.39665 2
    endloop
  endfacet
  facet normal -0.907026 -0.421075 0
    outer loop
      vertex 29.2926 7.474 2
      vertex 29.2926 7.474 4
      vertex 28.8642 8.39665 4
    endloop
  endfacet
  facet normal -0.807023 -0.590521 0
    outer loop
      vertex 29.8766 6.67589 2
      vertex 29.2926 7.474 4
      vertex 29.2926 7.474 2
    endloop
  endfacet
  facet normal -0.807023 -0.590521 0
    outer loop
      vertex 29.8766 6.67589 2
      vertex 29.8766 6.67589 4
      vertex 29.2926 7.474 4
    endloop
  endfacet
  facet normal -0.674252 -0.738502 0
    outer loop
      vertex 30.6006 6.01488 2
      vertex 29.8766 6.67589 4
      vertex 29.8766 6.67589 2
    endloop
  endfacet
  facet normal -0.674252 -0.738502 0
    outer loop
      vertex 30.6006 6.01488 2
      vertex 30.6006 6.01488 4
      vertex 29.8766 6.67589 4
    endloop
  endfacet
  facet normal -0.518479 -0.855091 0
    outer loop
      vertex 31.4646 5.491 2
      vertex 30.6006 6.01488 4
      vertex 30.6006 6.01488 2
    endloop
  endfacet
  facet normal -0.518479 -0.855091 0
    outer loop
      vertex 31.4646 5.491 2
      vertex 31.4646 5.491 4
      vertex 30.6006 6.01488 4
    endloop
  endfacet
  facet normal -0.358635 -0.933478 0
    outer loop
      vertex 32.4522 5.11154 2
      vertex 31.4646 5.491 4
      vertex 31.4646 5.491 2
    endloop
  endfacet
  facet normal -0.358635 -0.933478 0
    outer loop
      vertex 32.4522 5.11154 2
      vertex 32.4522 5.11154 4
      vertex 31.4646 5.491 4
    endloop
  endfacet
  facet normal -0.20378 -0.979017 0
    outer loop
      vertex 33.5459 4.8839 2
      vertex 32.4522 5.11154 4
      vertex 32.4522 5.11154 2
    endloop
  endfacet
  facet normal -0.20378 -0.979017 0
    outer loop
      vertex 33.5459 4.8839 2
      vertex 33.5459 4.8839 4
      vertex 32.4522 5.11154 4
    endloop
  endfacet
  facet normal -0.0631267 -0.998006 0
    outer loop
      vertex 34.7456 4.80801 2
      vertex 33.5459 4.8839 4
      vertex 33.5459 4.8839 2
    endloop
  endfacet
  facet normal -0.0631267 -0.998006 0
    outer loop
      vertex 34.7456 4.80801 2
      vertex 34.7456 4.80801 4
      vertex 33.5459 4.8839 4
    endloop
  endfacet
  facet normal 0.0631863 -0.998002 0
    outer loop
      vertex 35.9916 4.8869 2
      vertex 34.7456 4.80801 4
      vertex 34.7456 4.80801 2
    endloop
  endfacet
  facet normal 0.0631863 -0.998002 0
    outer loop
      vertex 35.9916 4.8869 2
      vertex 35.9916 4.8869 4
      vertex 34.7456 4.80801 4
    endloop
  endfacet
endsolid OpenSCAD_Model
