solid OpenSCAD_Model
  facet normal 0 0 -1
    outer loop
      vertex 22.5019 7.6221 2
      vertex 20.2681 7.91533 2
      vertex 21.525 9.672 2
    endloop
  endfacet
  facet normal -0 0 -1
    outer loop
      vertex 21.6165 6.6241 2
      vertex 20.561 5.83499 2
      vertex 20.2681 7.91533 2
    endloop
  endfacet
  facet normal 0 0 -1
    outer loop
      vertex 21.6165 6.6241 2
      vertex 20.2681 7.91533 2
      vertex 22.5019 7.6221 2
    endloop
  endfacet
  facet normal -0 0 -1
    outer loop
      vertex 38.0016 5.12566 2
      vertex 36.3697 5 2
      vertex 37.409 6.73711 2
    endloop
  endfacet
  facet normal 0 0 -1
    outer loop
      vertex 21.525 9.672 2
      vertex 23.217 8.82899 2
      vertex 22.5019 7.6221 2
    endloop
  endfacet
  facet normal 0 0 -1
    outer loop
      vertex 18.037 4.92212 2
      vertex 18.6561 6.86133 2
      vertex 19.36 5.26443 2
    endloop
  endfacet
  facet normal 0 0 -1
    outer loop
      vertex 18.037 4.92212 2
      vertex 16.689 6.50999 2
      vertex 18.6561 6.86133 2
    endloop
  endfacet
  facet normal 0 0 -1
    outer loop
      vertex 18.6561 6.86133 2
      vertex 20.561 5.83499 2
      vertex 19.36 5.26443 2
    endloop
  endfacet
  facet normal 0 -0 -1
    outer loop
      vertex 20.2681 7.91533 2
      vertex 20.561 5.83499 2
      vertex 18.6561 6.86133 2
    endloop
  endfacet
  facet normal -0 0 -1
    outer loop
      vertex 18.037 4.92212 2
      vertex 16.592 4.80801 2
      vertex 16.689 6.50999 2
    endloop
  endfacet
  facet normal -0 0 -1
    outer loop
      vertex 16.689 6.50999 2
      vertex 15.1188 4.91434 2
      vertex 15.1303 6.6991 2
    endloop
  endfacet
  facet normal 0 0 -1
    outer loop
      vertex 12.589 5.765 2
      vertex 11.5523 6.49432 2
      vertex 13.8023 7.26643 2
    endloop
  endfacet
  facet normal 0 0 -1
    outer loop
      vertex 10.015 8.50099 2
      vertex 11.8872 9.46843 2
      vertex 10.6943 7.40633 2
    endloop
  endfacet
  facet normal 0 0 -1
    outer loop
      vertex 10.015 8.50099 2
      vertex 9.52333 9.75966 2
      vertex 11.8872 9.46843 2
    endloop
  endfacet
  facet normal 0 0 -1
    outer loop
      vertex 9.52333 9.75966 2
      vertex 9.22833 11.1637 2
      vertex 11.3965 10.9684 2
    endloop
  endfacet
  facet normal 0 0 -1
    outer loop
      vertex 9.22833 11.1637 2
      vertex 9.12999 12.713 2
      vertex 11.233 12.712 2
    endloop
  endfacet
  facet normal 0 0 -1
    outer loop
      vertex 9.12999 12.713 2
      vertex 9.34966 14.9669 2
      vertex 11.39 14.466 2
    endloop
  endfacet
  facet normal 0 0 -1
    outer loop
      vertex 9.34966 14.9669 2
      vertex 10.0087 16.8699 2
      vertex 11.861 15.952 2
    endloop
  endfacet
  facet normal 0 0 -1
    outer loop
      vertex 11.861 15.952 2
      vertex 11.107 18.422 2
      vertex 12.646 17.17 2
    endloop
  endfacet
  facet normal 0 0 -1
    outer loop
      vertex 12.646 17.17 2
      vertex 12.5939 19.5698 2
      vertex 13.7135 18.0733 2
    endloop
  endfacet
  facet normal 0 0 -1
    outer loop
      vertex 13.7135 18.0733 2
      vertex 12.5939 19.5698 2
      vertex 14.4185 20.2584 2
    endloop
  endfacet
  facet normal 0 0 -1
    outer loop
      vertex 15.0322 18.6153 2
      vertex 16.581 20.488 2
      vertex 16.602 18.796 2
    endloop
  endfacet
  facet normal 0 -0 -1
    outer loop
      vertex 18.121 20.3824 2
      vertex 18.566 18.4849 2
      vertex 17.633 18.7182 2
    endloop
  endfacet
  facet normal 0 0 -1
    outer loop
      vertex 19.4823 20.0658 2
      vertex 19.401 18.096 2
      vertex 18.566 18.4849 2
    endloop
  endfacet
  facet normal 0 0 -1
    outer loop
      vertex 20.665 19.538 2
      vertex 20.1152 17.56 2
      vertex 19.401 18.096 2
    endloop
  endfacet
  facet normal 0 0 -1
    outer loop
      vertex 21.6618 18.8027 2
      vertex 20.6859 16.8853 2
      vertex 20.1152 17.56 2
    endloop
  endfacet
  facet normal 0 -0 -1
    outer loop
      vertex 21.6618 18.8027 2
      vertex 22.4654 17.8633 2
      vertex 20.6859 16.8853 2
    endloop
  endfacet
  facet normal 0 0 -1
    outer loop
      vertex 20.6859 16.8853 2
      vertex 22.4654 17.8633 2
      vertex 21.113 16.072 2
    endloop
  endfacet
  facet normal 0 0 -1
    outer loop
      vertex 21.113 16.072 2
      vertex 22.4654 17.8633 2
      vertex 23.076 16.72 2
    endloop
  endfacet
  facet normal 0 -0 -1
    outer loop
      vertex 20.665 19.538 2
      vertex 21.6618 18.8027 2
      vertex 20.1152 17.56 2
    endloop
  endfacet
  facet normal 0 0 -1
    outer loop
      vertex 39.7876 8.60689 2
      vertex 39.8837 9.45999 2
      vertex 41.9757 9.29599 2
    endloop
  endfacet
  facet normal 0 -0 -1
    outer loop
      vertex 19.4823 20.0658 2
      vertex 20.665 19.538 2
      vertex 19.401 18.096 2
    endloop
  endfacet
  facet normal 0 0 -1
    outer loop
      vertex 41.538 11.0973 2
      vertex 39.8837 9.45999 2
      vertex 39.4632 10.9556 2
    endloop
  endfacet
  facet normal 0 0 -1
    outer loop
      vertex 18.121 20.3824 2
      vertex 19.4823 20.0658 2
      vertex 18.566 18.4849 2
    endloop
  endfacet
  facet normal 0 -0 -1
    outer loop
      vertex 39.3085 12.8097 2
      vertex 39.4632 10.9556 2
      vertex 38.2015 11.8529 2
    endloop
  endfacet
  facet normal 0 0 -1
    outer loop
      vertex 16.581 20.488 2
      vertex 18.121 20.3824 2
      vertex 17.633 18.7182 2
    endloop
  endfacet
  facet normal 0 0 -1
    outer loop
      vertex 16.602 18.796 2
      vertex 16.581 20.488 2
      vertex 17.633 18.7182 2
    endloop
  endfacet
  facet normal 0 0 -1
    outer loop
      vertex 15.0322 18.6153 2
      vertex 14.4185 20.2584 2
      vertex 16.581 20.488 2
    endloop
  endfacet
  facet normal -0 0 -1
    outer loop
      vertex 15.0322 18.6153 2
      vertex 13.7135 18.0733 2
      vertex 14.4185 20.2584 2
    endloop
  endfacet
  facet normal 0 0 -1
    outer loop
      vertex 12.646 17.17 2
      vertex 11.107 18.422 2
      vertex 12.5939 19.5698 2
    endloop
  endfacet
  facet normal 0 0 -1
    outer loop
      vertex 11.861 15.952 2
      vertex 10.0087 16.8699 2
      vertex 11.107 18.422 2
    endloop
  endfacet
  facet normal 0 0 -1
    outer loop
      vertex 11.39 14.466 2
      vertex 9.34966 14.9669 2
      vertex 11.861 15.952 2
    endloop
  endfacet
  facet normal 0 0 -1
    outer loop
      vertex 11.233 12.712 2
      vertex 9.12999 12.713 2
      vertex 11.39 14.466 2
    endloop
  endfacet
  facet normal 0 0 -1
    outer loop
      vertex 11.3965 10.9684 2
      vertex 9.22833 11.1637 2
      vertex 11.233 12.712 2
    endloop
  endfacet
  facet normal 0 0 -1
    outer loop
      vertex 11.8872 9.46843 2
      vertex 9.52333 9.75966 2
      vertex 11.3965 10.9684 2
    endloop
  endfacet
  facet normal 0 0 -1
    outer loop
      vertex 10.6943 7.40633 2
      vertex 11.8872 9.46843 2
      vertex 12.705 8.21199 2
    endloop
  endfacet
  facet normal 0 0 -1
    outer loop
      vertex 11.5523 6.49432 2
      vertex 10.6943 7.40633 2
      vertex 12.705 8.21199 2
    endloop
  endfacet
  facet normal -0 0 -1
    outer loop
      vertex 13.8023 7.26643 2
      vertex 11.5523 6.49432 2
      vertex 12.705 8.21199 2
    endloop
  endfacet
  facet normal 0 0 -1
    outer loop
      vertex 13.7844 5.23332 2
      vertex 12.589 5.765 2
      vertex 13.8023 7.26643 2
    endloop
  endfacet
  facet normal -0 0 -1
    outer loop
      vertex 15.1303 6.6991 2
      vertex 13.7844 5.23332 2
      vertex 13.8023 7.26643 2
    endloop
  endfacet
  facet normal 0 0 -1
    outer loop
      vertex 15.1303 6.6991 2
      vertex 15.1188 4.91434 2
      vertex 13.7844 5.23332 2
    endloop
  endfacet
  facet normal 0 0 -1
    outer loop
      vertex 16.689 6.50999 2
      vertex 16.592 4.80801 2
      vertex 15.1188 4.91434 2
    endloop
  endfacet
  facet normal 0 -0 -1
    outer loop
      vertex 40.9907 11.823 2
      vertex 41.538 11.0973 2
      vertex 39.4632 10.9556 2
    endloop
  endfacet
  facet normal 0 -0 -1
    outer loop
      vertex 40.2422 12.4037 2
      vertex 40.9907 11.823 2
      vertex 39.4632 10.9556 2
    endloop
  endfacet
  facet normal 0 0 -1
    outer loop
      vertex 39.3085 12.8097 2
      vertex 40.2422 12.4037 2
      vertex 39.4632 10.9556 2
    endloop
  endfacet
  facet normal -0 0 -1
    outer loop
      vertex 41.8663 10.255 2
      vertex 39.8837 9.45999 2
      vertex 41.538 11.0973 2
    endloop
  endfacet
  facet normal 0 0 -1
    outer loop
      vertex 38.2015 11.8529 2
      vertex 36.0987 12.152 2
      vertex 38.1897 13.041 2
    endloop
  endfacet
  facet normal 0 0 -1
    outer loop
      vertex 39.376 5.50266 2
      vertex 39.0187 7.362 2
      vertex 40.4927 6.131 2
    endloop
  endfacet
  facet normal 0 0 -1
    outer loop
      vertex 41.0887 16.57 2
      vertex 41.0046 15.711 2
      vertex 39.0067 16.323 2
    endloop
  endfacet
  facet normal 0 0 -1
    outer loop
      vertex 38.9161 15.531 2
      vertex 41.0046 15.711 2
      vertex 40.7523 14.9487 2
    endloop
  endfacet
  facet normal 0 0 -1
    outer loop
      vertex 38.913 17.0735 2
      vertex 38.6316 17.6665 2
      vertex 40.4923 18.64 2
    endloop
  endfacet
  facet normal 0 0 -1
    outer loop
      vertex 30.1787 5 2
      vertex 32.2497 12.152 2
      vertex 32.2497 6.659 2
    endloop
  endfacet
  facet normal 0 0 -1
    outer loop
      vertex 36.7023 18.5775 2
      vertex 35.7207 20.296 2
      vertex 38.703 19.882 2
    endloop
  endfacet
  facet normal 0 0 -1
    outer loop
      vertex 38.6441 14.8883 2
      vertex 38.9161 15.531 2
      vertex 40.3317 14.283 2
    endloop
  endfacet
  facet normal 0 -0 -1
    outer loop
      vertex 35.7207 20.296 2
      vertex 36.7023 18.5775 2
      vertex 35.7197 18.637 2
    endloop
  endfacet
  facet normal 0 0 -1
    outer loop
      vertex 30.1787 20.296 2
      vertex 35.7207 20.296 2
      vertex 32.2497 18.637 2
    endloop
  endfacet
  facet normal 0 0 -1
    outer loop
      vertex 36.3697 5 2
      vertex 32.2497 6.659 2
      vertex 36.2617 6.659 2
    endloop
  endfacet
  facet normal -0 0 -1
    outer loop
      vertex 32.2497 12.152 2
      vertex 30.1787 5 2
      vertex 30.1787 20.296 2
    endloop
  endfacet
  facet normal 0 0 -1
    outer loop
      vertex 30.1787 20.296 2
      vertex 32.2497 18.637 2
      vertex 32.2497 13.768 2
    endloop
  endfacet
  facet normal 0 0 -1
    outer loop
      vertex 35.7197 18.637 2
      vertex 32.2497 18.637 2
      vertex 35.7207 20.296 2
    endloop
  endfacet
  facet normal 0 0 -1
    outer loop
      vertex 36.7023 18.5775 2
      vertex 38.703 19.882 2
      vertex 37.5166 18.3992 2
    endloop
  endfacet
  facet normal 0 0 -1
    outer loop
      vertex 37.5166 18.3992 2
      vertex 38.703 19.882 2
      vertex 38.1627 18.102 2
    endloop
  endfacet
  facet normal 0 0 -1
    outer loop
      vertex 38.6316 17.6665 2
      vertex 38.703 19.882 2
      vertex 40.4923 18.64 2
    endloop
  endfacet
  facet normal 0 0 -1
    outer loop
      vertex 38.1627 18.102 2
      vertex 38.703 19.882 2
      vertex 38.6316 17.6665 2
    endloop
  endfacet
  facet normal 0 0 -1
    outer loop
      vertex 38.913 17.0735 2
      vertex 41.0887 16.57 2
      vertex 39.0067 16.323 2
    endloop
  endfacet
  facet normal 0 -0 -1
    outer loop
      vertex 40.4923 18.64 2
      vertex 41.0887 16.57 2
      vertex 38.913 17.0735 2
    endloop
  endfacet
  facet normal 0 -0 -1
    outer loop
      vertex 39.0067 16.323 2
      vertex 41.0046 15.711 2
      vertex 38.9161 15.531 2
    endloop
  endfacet
  facet normal 0 0 -1
    outer loop
      vertex 38.9161 15.531 2
      vertex 40.7523 14.9487 2
      vertex 40.3317 14.283 2
    endloop
  endfacet
  facet normal 0 0 -1
    outer loop
      vertex 38.6441 14.8883 2
      vertex 39.7573 13.7334 2
      vertex 39.0433 13.3194 2
    endloop
  endfacet
  facet normal -0 0 -1
    outer loop
      vertex 40.3317 14.283 2
      vertex 39.7573 13.7334 2
      vertex 38.6441 14.8883 2
    endloop
  endfacet
  facet normal 0 -0 -1
    outer loop
      vertex 38.6441 14.8883 2
      vertex 39.0433 13.3194 2
      vertex 38.1907 14.395 2
    endloop
  endfacet
  facet normal 0 -0 -1
    outer loop
      vertex 38.1907 14.395 2
      vertex 39.0433 13.3194 2
      vertex 38.1897 13.041 2
    endloop
  endfacet
  facet normal 0 0 -1
    outer loop
      vertex 37.5535 14.0467 2
      vertex 38.1907 14.395 2
      vertex 38.1897 13.041 2
    endloop
  endfacet
  facet normal 0 0 -1
    outer loop
      vertex 35.7197 13.768 2
      vertex 36.7298 13.8377 2
      vertex 36.0987 12.152 2
    endloop
  endfacet
  facet normal 0 0 -1
    outer loop
      vertex 36.7298 13.8377 2
      vertex 37.5535 14.0467 2
      vertex 38.1897 13.041 2
    endloop
  endfacet
  facet normal 0 0 -1
    outer loop
      vertex 36.3697 5 2
      vertex 36.2617 6.659 2
      vertex 37.409 6.73711 2
    endloop
  endfacet
  facet normal 0 0 -1
    outer loop
      vertex 30.1787 20.296 2
      vertex 32.2497 13.768 2
      vertex 32.2497 12.152 2
    endloop
  endfacet
  facet normal 0 0 -1
    outer loop
      vertex 30.1787 5 2
      vertex 32.2497 6.659 2
      vertex 36.3697 5 2
    endloop
  endfacet
  facet normal 0 0 -1
    outer loop
      vertex 32.2497 12.152 2
      vertex 32.2497 13.768 2
      vertex 35.7197 13.768 2
    endloop
  endfacet
  facet normal -0 0 -1
    outer loop
      vertex 38.1897 13.041 2
      vertex 36.0987 12.152 2
      vertex 36.7298 13.8377 2
    endloop
  endfacet
  facet normal 0 0 -1
    outer loop
      vertex 36.0987 12.152 2
      vertex 32.2497 12.152 2
      vertex 35.7197 13.768 2
    endloop
  endfacet
  facet normal -0 0 -1
    outer loop
      vertex 39.3085 12.8097 2
      vertex 38.2015 11.8529 2
      vertex 38.1897 13.041 2
    endloop
  endfacet
  facet normal 0 -0 -1
    outer loop
      vertex 41.8663 10.255 2
      vertex 41.9757 9.29599 2
      vertex 39.8837 9.45999 2
    endloop
  endfacet
  facet normal 0 0 -1
    outer loop
      vertex 39.7876 8.60689 2
      vertex 41.811 8.04033 2
      vertex 41.3166 6.98532 2
    endloop
  endfacet
  facet normal 0 0 -1
    outer loop
      vertex 41.9757 9.29599 2
      vertex 41.811 8.04033 2
      vertex 39.7876 8.60689 2
    endloop
  endfacet
  facet normal 0 0 -1
    outer loop
      vertex 39.4993 7.90755 2
      vertex 41.3166 6.98532 2
      vertex 40.4927 6.131 2
    endloop
  endfacet
  facet normal 0 -0 -1
    outer loop
      vertex 39.7876 8.60689 2
      vertex 41.3166 6.98532 2
      vertex 39.4993 7.90755 2
    endloop
  endfacet
  facet normal 0 0 -1
    outer loop
      vertex 39.0187 7.362 2
      vertex 39.4993 7.90755 2
      vertex 40.4927 6.131 2
    endloop
  endfacet
  facet normal 0 0 -1
    outer loop
      vertex 38.328 6.97144 2
      vertex 39.0187 7.362 2
      vertex 39.376 5.50266 2
    endloop
  endfacet
  facet normal 0 0 -1
    outer loop
      vertex 38.0016 5.12566 2
      vertex 38.328 6.97144 2
      vertex 39.376 5.50266 2
    endloop
  endfacet
  facet normal 0 0 -1
    outer loop
      vertex 38.0016 5.12566 2
      vertex 37.409 6.73711 2
      vertex 38.328 6.97144 2
    endloop
  endfacet
  facet normal 0 0 1
    outer loop
      vertex 21.525 9.672 4
      vertex 20.2681 7.91533 4
      vertex 22.5019 7.6221 4
    endloop
  endfacet
  facet normal 0 0 1
    outer loop
      vertex 20.2681 7.91533 4
      vertex 20.561 5.83499 4
      vertex 21.6165 6.6241 4
    endloop
  endfacet
  facet normal 0 0 1
    outer loop
      vertex 22.5019 7.6221 4
      vertex 20.2681 7.91533 4
      vertex 21.6165 6.6241 4
    endloop
  endfacet
  facet normal 0 0 1
    outer loop
      vertex 37.409 6.73711 4
      vertex 36.3697 5 4
      vertex 38.0016 5.12566 4
    endloop
  endfacet
  facet normal 0 -0 1
    outer loop
      vertex 22.5019 7.6221 4
      vertex 23.217 8.82899 4
      vertex 21.525 9.672 4
    endloop
  endfacet
  facet normal 0 0 1
    outer loop
      vertex 19.36 5.26443 4
      vertex 18.6561 6.86133 4
      vertex 18.037 4.92212 4
    endloop
  endfacet
  facet normal 0 0 1
    outer loop
      vertex 18.6561 6.86133 4
      vertex 16.689 6.50999 4
      vertex 18.037 4.92212 4
    endloop
  endfacet
  facet normal 0 -0 1
    outer loop
      vertex 19.36 5.26443 4
      vertex 20.561 5.83499 4
      vertex 18.6561 6.86133 4
    endloop
  endfacet
  facet normal -0 0 1
    outer loop
      vertex 18.6561 6.86133 4
      vertex 20.561 5.83499 4
      vertex 20.2681 7.91533 4
    endloop
  endfacet
  facet normal 0 0 1
    outer loop
      vertex 16.689 6.50999 4
      vertex 16.592 4.80801 4
      vertex 18.037 4.92212 4
    endloop
  endfacet
  facet normal 0 0 1
    outer loop
      vertex 15.1303 6.6991 4
      vertex 15.1188 4.91434 4
      vertex 16.689 6.50999 4
    endloop
  endfacet
  facet normal 0 0 1
    outer loop
      vertex 13.8023 7.26643 4
      vertex 11.5523 6.49432 4
      vertex 12.589 5.765 4
    endloop
  endfacet
  facet normal 0 -0 1
    outer loop
      vertex 10.6943 7.40633 4
      vertex 11.8872 9.46843 4
      vertex 10.015 8.50099 4
    endloop
  endfacet
  facet normal 0 0 1
    outer loop
      vertex 11.8872 9.46843 4
      vertex 9.52333 9.75966 4
      vertex 10.015 8.50099 4
    endloop
  endfacet
  facet normal 0 0 1
    outer loop
      vertex 11.3965 10.9684 4
      vertex 9.22833 11.1637 4
      vertex 9.52333 9.75966 4
    endloop
  endfacet
  facet normal 0 0 1
    outer loop
      vertex 11.233 12.712 4
      vertex 9.12999 12.713 4
      vertex 9.22833 11.1637 4
    endloop
  endfacet
  facet normal 0 0 1
    outer loop
      vertex 11.39 14.466 4
      vertex 9.34966 14.9669 4
      vertex 9.12999 12.713 4
    endloop
  endfacet
  facet normal 0 0 1
    outer loop
      vertex 11.861 15.952 4
      vertex 10.0087 16.8699 4
      vertex 9.34966 14.9669 4
    endloop
  endfacet
  facet normal 0 0 1
    outer loop
      vertex 12.646 17.17 4
      vertex 11.107 18.422 4
      vertex 11.861 15.952 4
    endloop
  endfacet
  facet normal 0 0 1
    outer loop
      vertex 13.7135 18.0733 4
      vertex 12.5939 19.5698 4
      vertex 12.646 17.17 4
    endloop
  endfacet
  facet normal 0 0 1
    outer loop
      vertex 14.4185 20.2584 4
      vertex 12.5939 19.5698 4
      vertex 13.7135 18.0733 4
    endloop
  endfacet
  facet normal 0 0 1
    outer loop
      vertex 16.602 18.796 4
      vertex 16.581 20.488 4
      vertex 15.0322 18.6153 4
    endloop
  endfacet
  facet normal -0 0 1
    outer loop
      vertex 17.633 18.7182 4
      vertex 18.566 18.4849 4
      vertex 18.121 20.3824 4
    endloop
  endfacet
  facet normal -0 0 1
    outer loop
      vertex 18.566 18.4849 4
      vertex 19.401 18.096 4
      vertex 19.4823 20.0658 4
    endloop
  endfacet
  facet normal -0 0 1
    outer loop
      vertex 19.401 18.096 4
      vertex 20.1152 17.56 4
      vertex 20.665 19.538 4
    endloop
  endfacet
  facet normal -0 0 1
    outer loop
      vertex 20.1152 17.56 4
      vertex 20.6859 16.8853 4
      vertex 21.6618 18.8027 4
    endloop
  endfacet
  facet normal 0 0 1
    outer loop
      vertex 20.6859 16.8853 4
      vertex 22.4654 17.8633 4
      vertex 21.6618 18.8027 4
    endloop
  endfacet
  facet normal 0 -0 1
    outer loop
      vertex 21.113 16.072 4
      vertex 22.4654 17.8633 4
      vertex 20.6859 16.8853 4
    endloop
  endfacet
  facet normal 0 0 1
    outer loop
      vertex 23.076 16.72 4
      vertex 22.4654 17.8633 4
      vertex 21.113 16.072 4
    endloop
  endfacet
  facet normal 0 0 1
    outer loop
      vertex 20.1152 17.56 4
      vertex 21.6618 18.8027 4
      vertex 20.665 19.538 4
    endloop
  endfacet
  facet normal 0 0 1
    outer loop
      vertex 41.9757 9.29599 4
      vertex 39.8837 9.45999 4
      vertex 39.7876 8.60689 4
    endloop
  endfacet
  facet normal 0 0 1
    outer loop
      vertex 19.401 18.096 4
      vertex 20.665 19.538 4
      vertex 19.4823 20.0658 4
    endloop
  endfacet
  facet normal -0 0 1
    outer loop
      vertex 39.4632 10.9556 4
      vertex 39.8837 9.45999 4
      vertex 41.538 11.0973 4
    endloop
  endfacet
  facet normal 0 -0 1
    outer loop
      vertex 18.566 18.4849 4
      vertex 19.4823 20.0658 4
      vertex 18.121 20.3824 4
    endloop
  endfacet
  facet normal -0 0 1
    outer loop
      vertex 38.2015 11.8529 4
      vertex 39.4632 10.9556 4
      vertex 39.3085 12.8097 4
    endloop
  endfacet
  facet normal 0 -0 1
    outer loop
      vertex 17.633 18.7182 4
      vertex 18.121 20.3824 4
      vertex 16.581 20.488 4
    endloop
  endfacet
  facet normal 0 0 1
    outer loop
      vertex 17.633 18.7182 4
      vertex 16.581 20.488 4
      vertex 16.602 18.796 4
    endloop
  endfacet
  facet normal 0 0 1
    outer loop
      vertex 16.581 20.488 4
      vertex 14.4185 20.2584 4
      vertex 15.0322 18.6153 4
    endloop
  endfacet
  facet normal 0 0 1
    outer loop
      vertex 14.4185 20.2584 4
      vertex 13.7135 18.0733 4
      vertex 15.0322 18.6153 4
    endloop
  endfacet
  facet normal 0 0 1
    outer loop
      vertex 12.5939 19.5698 4
      vertex 11.107 18.422 4
      vertex 12.646 17.17 4
    endloop
  endfacet
  facet normal 0 0 1
    outer loop
      vertex 11.107 18.422 4
      vertex 10.0087 16.8699 4
      vertex 11.861 15.952 4
    endloop
  endfacet
  facet normal 0 0 1
    outer loop
      vertex 11.861 15.952 4
      vertex 9.34966 14.9669 4
      vertex 11.39 14.466 4
    endloop
  endfacet
  facet normal 0 0 1
    outer loop
      vertex 11.39 14.466 4
      vertex 9.12999 12.713 4
      vertex 11.233 12.712 4
    endloop
  endfacet
  facet normal 0 0 1
    outer loop
      vertex 11.233 12.712 4
      vertex 9.22833 11.1637 4
      vertex 11.3965 10.9684 4
    endloop
  endfacet
  facet normal 0 0 1
    outer loop
      vertex 11.3965 10.9684 4
      vertex 9.52333 9.75966 4
      vertex 11.8872 9.46843 4
    endloop
  endfacet
  facet normal 0 0 1
    outer loop
      vertex 12.705 8.21199 4
      vertex 11.8872 9.46843 4
      vertex 10.6943 7.40633 4
    endloop
  endfacet
  facet normal 0 0 1
    outer loop
      vertex 12.705 8.21199 4
      vertex 10.6943 7.40633 4
      vertex 11.5523 6.49432 4
    endloop
  endfacet
  facet normal 0 0 1
    outer loop
      vertex 12.705 8.21199 4
      vertex 11.5523 6.49432 4
      vertex 13.8023 7.26643 4
    endloop
  endfacet
  facet normal 0 0 1
    outer loop
      vertex 13.8023 7.26643 4
      vertex 12.589 5.765 4
      vertex 13.7844 5.23332 4
    endloop
  endfacet
  facet normal 0 0 1
    outer loop
      vertex 13.8023 7.26643 4
      vertex 13.7844 5.23332 4
      vertex 15.1303 6.6991 4
    endloop
  endfacet
  facet normal -0 0 1
    outer loop
      vertex 13.7844 5.23332 4
      vertex 15.1188 4.91434 4
      vertex 15.1303 6.6991 4
    endloop
  endfacet
  facet normal -0 0 1
    outer loop
      vertex 15.1188 4.91434 4
      vertex 16.592 4.80801 4
      vertex 16.689 6.50999 4
    endloop
  endfacet
  facet normal 0 0 1
    outer loop
      vertex 39.4632 10.9556 4
      vertex 41.538 11.0973 4
      vertex 40.9907 11.823 4
    endloop
  endfacet
  facet normal 0 0 1
    outer loop
      vertex 39.4632 10.9556 4
      vertex 40.9907 11.823 4
      vertex 40.2422 12.4037 4
    endloop
  endfacet
  facet normal 0 -0 1
    outer loop
      vertex 39.4632 10.9556 4
      vertex 40.2422 12.4037 4
      vertex 39.3085 12.8097 4
    endloop
  endfacet
  facet normal 0 0 1
    outer loop
      vertex 41.538 11.0973 4
      vertex 39.8837 9.45999 4
      vertex 41.8663 10.255 4
    endloop
  endfacet
  facet normal 0 0 1
    outer loop
      vertex 38.1897 13.041 4
      vertex 36.0987 12.152 4
      vertex 38.2015 11.8529 4
    endloop
  endfacet
  facet normal 0 0 1
    outer loop
      vertex 40.4927 6.131 4
      vertex 39.0187 7.362 4
      vertex 39.376 5.50266 4
    endloop
  endfacet
  facet normal -0 0 1
    outer loop
      vertex 39.0067 16.323 4
      vertex 41.0046 15.711 4
      vertex 41.0887 16.57 4
    endloop
  endfacet
  facet normal 0 -0 1
    outer loop
      vertex 40.7523 14.9487 4
      vertex 41.0046 15.711 4
      vertex 38.9161 15.531 4
    endloop
  endfacet
  facet normal 0 0 1
    outer loop
      vertex 40.4923 18.64 4
      vertex 38.6316 17.6665 4
      vertex 38.913 17.0735 4
    endloop
  endfacet
  facet normal 0 -0 1
    outer loop
      vertex 32.2497 6.659 4
      vertex 32.2497 12.152 4
      vertex 30.1787 5 4
    endloop
  endfacet
  facet normal 0 0 1
    outer loop
      vertex 38.703 19.882 4
      vertex 35.7207 20.296 4
      vertex 36.7023 18.5775 4
    endloop
  endfacet
  facet normal 0 0 1
    outer loop
      vertex 40.3317 14.283 4
      vertex 38.9161 15.531 4
      vertex 38.6441 14.8883 4
    endloop
  endfacet
  facet normal -0 0 1
    outer loop
      vertex 35.7197 18.637 4
      vertex 36.7023 18.5775 4
      vertex 35.7207 20.296 4
    endloop
  endfacet
  facet normal 0 -0 1
    outer loop
      vertex 32.2497 18.637 4
      vertex 35.7207 20.296 4
      vertex 30.1787 20.296 4
    endloop
  endfacet
  facet normal 0 0 1
    outer loop
      vertex 36.2617 6.659 4
      vertex 32.2497 6.659 4
      vertex 36.3697 5 4
    endloop
  endfacet
  facet normal 0 0 1
    outer loop
      vertex 30.1787 20.296 4
      vertex 30.1787 5 4
      vertex 32.2497 12.152 4
    endloop
  endfacet
  facet normal 0 -0 1
    outer loop
      vertex 32.2497 13.768 4
      vertex 32.2497 18.637 4
      vertex 30.1787 20.296 4
    endloop
  endfacet
  facet normal 0 0 1
    outer loop
      vertex 35.7207 20.296 4
      vertex 32.2497 18.637 4
      vertex 35.7197 18.637 4
    endloop
  endfacet
  facet normal 0 -0 1
    outer loop
      vertex 37.5166 18.3992 4
      vertex 38.703 19.882 4
      vertex 36.7023 18.5775 4
    endloop
  endfacet
  facet normal 0 -0 1
    outer loop
      vertex 38.1627 18.102 4
      vertex 38.703 19.882 4
      vertex 37.5166 18.3992 4
    endloop
  endfacet
  facet normal 0 0 1
    outer loop
      vertex 40.4923 18.64 4
      vertex 38.703 19.882 4
      vertex 38.6316 17.6665 4
    endloop
  endfacet
  facet normal 0 -0 1
    outer loop
      vertex 38.6316 17.6665 4
      vertex 38.703 19.882 4
      vertex 38.1627 18.102 4
    endloop
  endfacet
  facet normal 0 -0 1
    outer loop
      vertex 39.0067 16.323 4
      vertex 41.0887 16.57 4
      vertex 38.913 17.0735 4
    endloop
  endfacet
  facet normal -0 0 1
    outer loop
      vertex 38.913 17.0735 4
      vertex 41.0887 16.57 4
      vertex 40.4923 18.64 4
    endloop
  endfacet
  facet normal 0 0 1
    outer loop
      vertex 38.9161 15.531 4
      vertex 41.0046 15.711 4
      vertex 39.0067 16.323 4
    endloop
  endfacet
  facet normal 0 -0 1
    outer loop
      vertex 40.3317 14.283 4
      vertex 40.7523 14.9487 4
      vertex 38.9161 15.531 4
    endloop
  endfacet
  facet normal 0 -0 1
    outer loop
      vertex 39.0433 13.3194 4
      vertex 39.7573 13.7334 4
      vertex 38.6441 14.8883 4
    endloop
  endfacet
  facet normal 0 0 1
    outer loop
      vertex 38.6441 14.8883 4
      vertex 39.7573 13.7334 4
      vertex 40.3317 14.283 4
    endloop
  endfacet
  facet normal -0 0 1
    outer loop
      vertex 38.1907 14.395 4
      vertex 39.0433 13.3194 4
      vertex 38.6441 14.8883 4
    endloop
  endfacet
  facet normal 0 0 1
    outer loop
      vertex 38.1897 13.041 4
      vertex 39.0433 13.3194 4
      vertex 38.1907 14.395 4
    endloop
  endfacet
  facet normal 0 -0 1
    outer loop
      vertex 38.1897 13.041 4
      vertex 38.1907 14.395 4
      vertex 37.5535 14.0467 4
    endloop
  endfacet
  facet normal 0 -0 1
    outer loop
      vertex 36.0987 12.152 4
      vertex 36.7298 13.8377 4
      vertex 35.7197 13.768 4
    endloop
  endfacet
  facet normal 0 0 1
    outer loop
      vertex 38.1897 13.041 4
      vertex 37.5535 14.0467 4
      vertex 36.7298 13.8377 4
    endloop
  endfacet
  facet normal 0 0 1
    outer loop
      vertex 37.409 6.73711 4
      vertex 36.2617 6.659 4
      vertex 36.3697 5 4
    endloop
  endfacet
  facet normal 0 -0 1
    outer loop
      vertex 32.2497 12.152 4
      vertex 32.2497 13.768 4
      vertex 30.1787 20.296 4
    endloop
  endfacet
  facet normal 0 0 1
    outer loop
      vertex 36.3697 5 4
      vertex 32.2497 6.659 4
      vertex 30.1787 5 4
    endloop
  endfacet
  facet normal 0 0 1
    outer loop
      vertex 35.7197 13.768 4
      vertex 32.2497 13.768 4
      vertex 32.2497 12.152 4
    endloop
  endfacet
  facet normal 0 0 1
    outer loop
      vertex 36.7298 13.8377 4
      vertex 36.0987 12.152 4
      vertex 38.1897 13.041 4
    endloop
  endfacet
  facet normal 0 0 1
    outer loop
      vertex 35.7197 13.768 4
      vertex 32.2497 12.152 4
      vertex 36.0987 12.152 4
    endloop
  endfacet
  facet normal 0 0 1
    outer loop
      vertex 38.1897 13.041 4
      vertex 38.2015 11.8529 4
      vertex 39.3085 12.8097 4
    endloop
  endfacet
  facet normal -0 0 1
    outer loop
      vertex 39.8837 9.45999 4
      vertex 41.9757 9.29599 4
      vertex 41.8663 10.255 4
    endloop
  endfacet
  facet normal 0 -0 1
    outer loop
      vertex 41.3166 6.98532 4
      vertex 41.811 8.04033 4
      vertex 39.7876 8.60689 4
    endloop
  endfacet
  facet normal -0 0 1
    outer loop
      vertex 39.7876 8.60689 4
      vertex 41.811 8.04033 4
      vertex 41.9757 9.29599 4
    endloop
  endfacet
  facet normal 0 -0 1
    outer loop
      vertex 40.4927 6.131 4
      vertex 41.3166 6.98532 4
      vertex 39.4993 7.90755 4
    endloop
  endfacet
  facet normal -0 0 1
    outer loop
      vertex 39.4993 7.90755 4
      vertex 41.3166 6.98532 4
      vertex 39.7876 8.60689 4
    endloop
  endfacet
  facet normal 0 0 1
    outer loop
      vertex 40.4927 6.131 4
      vertex 39.4993 7.90755 4
      vertex 39.0187 7.362 4
    endloop
  endfacet
  facet normal 0 0 1
    outer loop
      vertex 39.376 5.50266 4
      vertex 39.0187 7.362 4
      vertex 38.328 6.97144 4
    endloop
  endfacet
  facet normal 0 0 1
    outer loop
      vertex 39.376 5.50266 4
      vertex 38.328 6.97144 4
      vertex 38.0016 5.12566 4
    endloop
  endfacet
  facet normal 0 0 1
    outer loop
      vertex 38.328 6.97144 4
      vertex 37.409 6.73711 4
      vertex 38.0016 5.12566 4
    endloop
  endfacet
  facet normal 0.250493 -0.968118 0
    outer loop
      vertex 19.36 5.26443 2
      vertex 18.037 4.92212 4
      vertex 18.037 4.92212 2
    endloop
  endfacet
  facet normal 0.250493 -0.968118 0
    outer loop
      vertex 19.36 5.26443 2
      vertex 19.36 5.26443 4
      vertex 18.037 4.92212 4
    endloop
  endfacet
  facet normal 0.429106 -0.903254 0
    outer loop
      vertex 20.561 5.83499 2
      vertex 19.36 5.26443 4
      vertex 19.36 5.26443 2
    endloop
  endfacet
  facet normal 0.429106 -0.903254 0
    outer loop
      vertex 20.561 5.83499 2
      vertex 20.561 5.83499 4
      vertex 19.36 5.26443 4
    endloop
  endfacet
  facet normal 0.598756 -0.800931 0
    outer loop
      vertex 21.6165 6.6241 2
      vertex 20.561 5.83499 4
      vertex 20.561 5.83499 2
    endloop
  endfacet
  facet normal 0.598756 -0.800931 0
    outer loop
      vertex 21.6165 6.6241 2
      vertex 21.6165 6.6241 4
      vertex 20.561 5.83499 4
    endloop
  endfacet
  facet normal 0.748072 -0.663617 0
    outer loop
      vertex 22.5019 7.6221 2
      vertex 21.6165 6.6241 4
      vertex 21.6165 6.6241 2
    endloop
  endfacet
  facet normal 0.748072 -0.663617 0
    outer loop
      vertex 22.5019 7.6221 2
      vertex 22.5019 7.6221 4
      vertex 21.6165 6.6241 4
    endloop
  endfacet
  facet normal 0.860316 -0.509761 0
    outer loop
      vertex 23.217 8.82899 2
      vertex 22.5019 7.6221 4
      vertex 22.5019 7.6221 2
    endloop
  endfacet
  facet normal 0.860316 -0.509761 0
    outer loop
      vertex 23.217 8.82899 2
      vertex 23.217 8.82899 4
      vertex 22.5019 7.6221 4
    endloop
  endfacet
  facet normal 0.445944 0.895061 0
    outer loop
      vertex 21.525 9.672 2
      vertex 23.217 8.82899 4
      vertex 23.217 8.82899 2
    endloop
  endfacet
  facet normal 0.445944 0.895061 -0
    outer loop
      vertex 21.525 9.672 2
      vertex 21.525 9.672 4
      vertex 23.217 8.82899 4
    endloop
  endfacet
  facet normal -0.813266 0.581892 0
    outer loop
      vertex 20.2681 7.91533 2
      vertex 21.525 9.672 4
      vertex 21.525 9.672 2
    endloop
  endfacet
  facet normal -0.813266 0.581892 0
    outer loop
      vertex 20.2681 7.91533 2
      vertex 20.2681 7.91533 4
      vertex 21.525 9.672 4
    endloop
  endfacet
  facet normal -0.54725 0.836969 0
    outer loop
      vertex 18.6561 6.86133 2
      vertex 20.2681 7.91533 4
      vertex 20.2681 7.91533 2
    endloop
  endfacet
  facet normal -0.54725 0.836969 0
    outer loop
      vertex 18.6561 6.86133 2
      vertex 18.6561 6.86133 4
      vertex 20.2681 7.91533 4
    endloop
  endfacet
  facet normal -0.175822 0.984422 0
    outer loop
      vertex 16.689 6.50999 2
      vertex 18.6561 6.86133 4
      vertex 18.6561 6.86133 2
    endloop
  endfacet
  facet normal -0.175822 0.984422 0
    outer loop
      vertex 16.689 6.50999 2
      vertex 16.689 6.50999 4
      vertex 18.6561 6.86133 4
    endloop
  endfacet
  facet normal 0.12044 0.992721 0
    outer loop
      vertex 15.1303 6.6991 2
      vertex 16.689 6.50999 4
      vertex 16.689 6.50999 2
    endloop
  endfacet
  facet normal 0.12044 0.992721 -0
    outer loop
      vertex 15.1303 6.6991 2
      vertex 15.1303 6.6991 4
      vertex 16.689 6.50999 4
    endloop
  endfacet
  facet normal 0.392862 0.919597 0
    outer loop
      vertex 13.8023 7.26643 2
      vertex 15.1303 6.6991 4
      vertex 15.1303 6.6991 2
    endloop
  endfacet
  facet normal 0.392862 0.919597 -0
    outer loop
      vertex 13.8023 7.26643 2
      vertex 13.8023 7.26643 4
      vertex 15.1303 6.6991 4
    endloop
  endfacet
  facet normal 0.652772 0.757554 0
    outer loop
      vertex 12.705 8.21199 2
      vertex 13.8023 7.26643 4
      vertex 13.8023 7.26643 2
    endloop
  endfacet
  facet normal 0.652772 0.757554 -0
    outer loop
      vertex 12.705 8.21199 2
      vertex 12.705 8.21199 4
      vertex 13.8023 7.26643 4
    endloop
  endfacet
  facet normal 0.83811 0.545501 0
    outer loop
      vertex 11.8872 9.46843 2
      vertex 12.705 8.21199 4
      vertex 12.705 8.21199 2
    endloop
  endfacet
  facet normal 0.83811 0.545501 -0
    outer loop
      vertex 11.8872 9.46843 2
      vertex 11.8872 9.46843 4
      vertex 12.705 8.21199 4
    endloop
  endfacet
  facet normal 0.950443 0.310897 0
    outer loop
      vertex 11.3965 10.9684 2
      vertex 11.8872 9.46843 4
      vertex 11.8872 9.46843 2
    endloop
  endfacet
  facet normal 0.950443 0.310897 -0
    outer loop
      vertex 11.3965 10.9684 2
      vertex 11.3965 10.9684 4
      vertex 11.8872 9.46843 4
    endloop
  endfacet
  facet normal 0.995629 0.0933974 0
    outer loop
      vertex 11.233 12.712 2
      vertex 11.3965 10.9684 4
      vertex 11.3965 10.9684 2
    endloop
  endfacet
  facet normal 0.995629 0.0933974 -0
    outer loop
      vertex 11.233 12.712 2
      vertex 11.233 12.712 4
      vertex 11.3965 10.9684 4
    endloop
  endfacet
  facet normal 0.996017 -0.0891607 0
    outer loop
      vertex 11.39 14.466 2
      vertex 11.233 12.712 4
      vertex 11.233 12.712 2
    endloop
  endfacet
  facet normal 0.996017 -0.0891607 0
    outer loop
      vertex 11.39 14.466 2
      vertex 11.39 14.466 4
      vertex 11.233 12.712 4
    endloop
  endfacet
  facet normal 0.953264 -0.302139 0
    outer loop
      vertex 11.861 15.952 2
      vertex 11.39 14.466 4
      vertex 11.39 14.466 2
    endloop
  endfacet
  facet normal 0.953264 -0.302139 0
    outer loop
      vertex 11.861 15.952 2
      vertex 11.861 15.952 4
      vertex 11.39 14.466 4
    endloop
  endfacet
  facet normal 0.840549 -0.541735 0
    outer loop
      vertex 12.646 17.17 2
      vertex 11.861 15.952 4
      vertex 11.861 15.952 2
    endloop
  endfacet
  facet normal 0.840549 -0.541735 0
    outer loop
      vertex 12.646 17.17 2
      vertex 12.646 17.17 4
      vertex 11.861 15.952 4
    endloop
  endfacet
  facet normal 0.645946 -0.763383 0
    outer loop
      vertex 13.7135 18.0733 2
      vertex 12.646 17.17 4
      vertex 12.646 17.17 2
    endloop
  endfacet
  facet normal 0.645946 -0.763383 0
    outer loop
      vertex 13.7135 18.0733 2
      vertex 13.7135 18.0733 4
      vertex 12.646 17.17 4
    endloop
  endfacet
  facet normal 0.380167 -0.924918 0
    outer loop
      vertex 15.0322 18.6153 2
      vertex 13.7135 18.0733 4
      vertex 13.7135 18.0733 2
    endloop
  endfacet
  facet normal 0.380167 -0.924918 0
    outer loop
      vertex 15.0322 18.6153 2
      vertex 15.0322 18.6153 4
      vertex 13.7135 18.0733 4
    endloop
  endfacet
  facet normal 0.114334 -0.993442 0
    outer loop
      vertex 16.602 18.796 2
      vertex 15.0322 18.6153 4
      vertex 15.0322 18.6153 2
    endloop
  endfacet
  facet normal 0.114334 -0.993442 0
    outer loop
      vertex 16.602 18.796 2
      vertex 16.602 18.796 4
      vertex 15.0322 18.6153 4
    endloop
  endfacet
  facet normal -0.0752214 -0.997167 0
    outer loop
      vertex 17.633 18.7182 2
      vertex 16.602 18.796 4
      vertex 16.602 18.796 2
    endloop
  endfacet
  facet normal -0.0752214 -0.997167 0
    outer loop
      vertex 17.633 18.7182 2
      vertex 17.633 18.7182 4
      vertex 16.602 18.796 4
    endloop
  endfacet
  facet normal -0.242621 -0.970121 0
    outer loop
      vertex 18.566 18.4849 2
      vertex 17.633 18.7182 4
      vertex 17.633 18.7182 2
    endloop
  endfacet
  facet normal -0.242621 -0.970121 0
    outer loop
      vertex 18.566 18.4849 2
      vertex 18.566 18.4849 4
      vertex 17.633 18.7182 4
    endloop
  endfacet
  facet normal -0.422192 -0.906506 0
    outer loop
      vertex 19.401 18.096 2
      vertex 18.566 18.4849 4
      vertex 18.566 18.4849 2
    endloop
  endfacet
  facet normal -0.422192 -0.906506 0
    outer loop
      vertex 19.401 18.096 2
      vertex 19.401 18.096 4
      vertex 18.566 18.4849 4
    endloop
  endfacet
  facet normal -0.60023 -0.799828 0
    outer loop
      vertex 20.1152 17.56 2
      vertex 19.401 18.096 4
      vertex 19.401 18.096 2
    endloop
  endfacet
  facet normal -0.60023 -0.799828 0
    outer loop
      vertex 20.1152 17.56 2
      vertex 20.1152 17.56 4
      vertex 19.401 18.096 4
    endloop
  endfacet
  facet normal -0.763503 -0.645804 0
    outer loop
      vertex 20.6859 16.8853 2
      vertex 20.1152 17.56 4
      vertex 20.1152 17.56 2
    endloop
  endfacet
  facet normal -0.763503 -0.645804 0
    outer loop
      vertex 20.6859 16.8853 2
      vertex 20.6859 16.8853 4
      vertex 20.1152 17.56 4
    endloop
  endfacet
  facet normal -0.885351 -0.464924 0
    outer loop
      vertex 21.113 16.072 2
      vertex 20.6859 16.8853 4
      vertex 20.6859 16.8853 2
    endloop
  endfacet
  facet normal -0.885351 -0.464924 0
    outer loop
      vertex 21.113 16.072 2
      vertex 21.113 16.072 4
      vertex 20.6859 16.8853 4
    endloop
  endfacet
  facet normal 0.313467 -0.949599 0
    outer loop
      vertex 23.076 16.72 2
      vertex 21.113 16.072 4
      vertex 21.113 16.072 2
    endloop
  endfacet
  facet normal 0.313467 -0.949599 0
    outer loop
      vertex 23.076 16.72 2
      vertex 23.076 16.72 4
      vertex 21.113 16.072 4
    endloop
  endfacet
  facet normal 0.882107 0.471049 0
    outer loop
      vertex 22.4654 17.8633 2
      vertex 23.076 16.72 4
      vertex 23.076 16.72 2
    endloop
  endfacet
  facet normal 0.882107 0.471049 -0
    outer loop
      vertex 22.4654 17.8633 2
      vertex 22.4654 17.8633 4
      vertex 23.076 16.72 4
    endloop
  endfacet
  facet normal 0.759846 0.650103 0
    outer loop
      vertex 21.6618 18.8027 2
      vertex 22.4654 17.8633 4
      vertex 22.4654 17.8633 2
    endloop
  endfacet
  facet normal 0.759846 0.650103 -0
    outer loop
      vertex 21.6618 18.8027 2
      vertex 21.6618 18.8027 4
      vertex 22.4654 17.8633 4
    endloop
  endfacet
  facet normal 0.593652 0.804722 0
    outer loop
      vertex 20.665 19.538 2
      vertex 21.6618 18.8027 4
      vertex 21.6618 18.8027 2
    endloop
  endfacet
  facet normal 0.593652 0.804722 -0
    outer loop
      vertex 20.665 19.538 2
      vertex 20.665 19.538 4
      vertex 21.6618 18.8027 4
    endloop
  endfacet
  facet normal 0.40752 0.913196 0
    outer loop
      vertex 19.4823 20.0658 2
      vertex 20.665 19.538 4
      vertex 20.665 19.538 2
    endloop
  endfacet
  facet normal 0.40752 0.913196 -0
    outer loop
      vertex 19.4823 20.0658 2
      vertex 19.4823 20.0658 4
      vertex 20.665 19.538 4
    endloop
  endfacet
  facet normal 0.226564 0.973996 0
    outer loop
      vertex 18.121 20.3824 2
      vertex 19.4823 20.0658 4
      vertex 19.4823 20.0658 2
    endloop
  endfacet
  facet normal 0.226564 0.973996 -0
    outer loop
      vertex 18.121 20.3824 2
      vertex 18.121 20.3824 4
      vertex 19.4823 20.0658 4
    endloop
  endfacet
  facet normal 0.0683855 0.997659 0
    outer loop
      vertex 16.581 20.488 2
      vertex 18.121 20.3824 4
      vertex 18.121 20.3824 2
    endloop
  endfacet
  facet normal 0.0683855 0.997659 -0
    outer loop
      vertex 16.581 20.488 2
      vertex 16.581 20.488 4
      vertex 18.121 20.3824 4
    endloop
  endfacet
  facet normal -0.105561 0.994413 0
    outer loop
      vertex 14.4185 20.2584 2
      vertex 16.581 20.488 4
      vertex 16.581 20.488 2
    endloop
  endfacet
  facet normal -0.105561 0.994413 0
    outer loop
      vertex 14.4185 20.2584 2
      vertex 14.4185 20.2584 4
      vertex 16.581 20.488 4
    endloop
  endfacet
  facet normal -0.353113 0.935581 0
    outer loop
      vertex 12.5939 19.5698 2
      vertex 14.4185 20.2584 4
      vertex 14.4185 20.2584 2
    endloop
  endfacet
  facet normal -0.353113 0.935581 0
    outer loop
      vertex 12.5939 19.5698 2
      vertex 12.5939 19.5698 4
      vertex 14.4185 20.2584 4
    endloop
  endfacet
  facet normal -0.611049 0.791593 0
    outer loop
      vertex 11.107 18.422 2
      vertex 12.5939 19.5698 4
      vertex 12.5939 19.5698 2
    endloop
  endfacet
  facet normal -0.611049 0.791593 0
    outer loop
      vertex 11.107 18.422 2
      vertex 11.107 18.422 4
      vertex 12.5939 19.5698 4
    endloop
  endfacet
  facet normal -0.816289 0.577643 0
    outer loop
      vertex 10.0087 16.8699 2
      vertex 11.107 18.422 4
      vertex 11.107 18.422 2
    endloop
  endfacet
  facet normal -0.816289 0.577643 0
    outer loop
      vertex 10.0087 16.8699 2
      vertex 10.0087 16.8699 4
      vertex 11.107 18.422 4
    endloop
  endfacet
  facet normal -0.944945 0.327228 0
    outer loop
      vertex 9.34966 14.9669 2
      vertex 10.0087 16.8699 4
      vertex 10.0087 16.8699 2
    endloop
  endfacet
  facet normal -0.944945 0.327228 0
    outer loop
      vertex 9.34966 14.9669 2
      vertex 9.34966 14.9669 4
      vertex 10.0087 16.8699 4
    endloop
  endfacet
  facet normal -0.995284 0.097001 0
    outer loop
      vertex 9.12999 12.713 2
      vertex 9.34966 14.9669 4
      vertex 9.34966 14.9669 2
    endloop
  endfacet
  facet normal -0.995284 0.097001 0
    outer loop
      vertex 9.12999 12.713 2
      vertex 9.12999 12.713 4
      vertex 9.34966 14.9669 4
    endloop
  endfacet
  facet normal -0.997992 -0.0633469 0
    outer loop
      vertex 9.22833 11.1637 2
      vertex 9.12999 12.713 4
      vertex 9.12999 12.713 2
    endloop
  endfacet
  facet normal -0.997992 -0.0633469 0
    outer loop
      vertex 9.22833 11.1637 2
      vertex 9.22833 11.1637 4
      vertex 9.12999 12.713 4
    endloop
  endfacet
  facet normal -0.978632 -0.205622 0
    outer loop
      vertex 9.52333 9.75966 2
      vertex 9.22833 11.1637 4
      vertex 9.22833 11.1637 2
    endloop
  endfacet
  facet normal -0.978632 -0.205622 0
    outer loop
      vertex 9.52333 9.75966 2
      vertex 9.52333 9.75966 4
      vertex 9.22833 11.1637 4
    endloop
  endfacet
  facet normal -0.931457 -0.363852 0
    outer loop
      vertex 10.015 8.50099 2
      vertex 9.52333 9.75966 4
      vertex 9.52333 9.75966 2
    endloop
  endfacet
  facet normal -0.931457 -0.363852 0
    outer loop
      vertex 10.015 8.50099 2
      vertex 10.015 8.50099 4
      vertex 9.52333 9.75966 4
    endloop
  endfacet
  facet normal -0.849684 -0.527292 0
    outer loop
      vertex 10.6943 7.40633 2
      vertex 10.015 8.50099 4
      vertex 10.015 8.50099 2
    endloop
  endfacet
  facet normal -0.849684 -0.527292 0
    outer loop
      vertex 10.6943 7.40633 2
      vertex 10.6943 7.40633 4
      vertex 10.015 8.50099 4
    endloop
  endfacet
  facet normal -0.728341 -0.685215 0
    outer loop
      vertex 11.5523 6.49432 2
      vertex 10.6943 7.40633 4
      vertex 10.6943 7.40633 2
    endloop
  endfacet
  facet normal -0.728341 -0.685215 0
    outer loop
      vertex 11.5523 6.49432 2
      vertex 11.5523 6.49432 4
      vertex 10.6943 7.40633 4
    endloop
  endfacet
  facet normal -0.575397 -0.817874 0
    outer loop
      vertex 12.589 5.765 2
      vertex 11.5523 6.49432 4
      vertex 11.5523 6.49432 2
    endloop
  endfacet
  facet normal -0.575397 -0.817874 0
    outer loop
      vertex 12.589 5.765 2
      vertex 12.589 5.765 4
      vertex 11.5523 6.49432 4
    endloop
  endfacet
  facet normal -0.406372 -0.913708 0
    outer loop
      vertex 13.7844 5.23332 2
      vertex 12.589 5.765 4
      vertex 12.589 5.765 2
    endloop
  endfacet
  facet normal -0.406372 -0.913708 0
    outer loop
      vertex 13.7844 5.23332 2
      vertex 13.7844 5.23332 4
      vertex 12.589 5.765 4
    endloop
  endfacet
  facet normal -0.232508 -0.972595 0
    outer loop
      vertex 15.1188 4.91434 2
      vertex 13.7844 5.23332 4
      vertex 13.7844 5.23332 2
    endloop
  endfacet
  facet normal -0.232508 -0.972595 0
    outer loop
      vertex 15.1188 4.91434 2
      vertex 15.1188 4.91434 4
      vertex 13.7844 5.23332 4
    endloop
  endfacet
  facet normal -0.0719834 -0.997406 0
    outer loop
      vertex 16.592 4.80801 2
      vertex 15.1188 4.91434 4
      vertex 15.1188 4.91434 2
    endloop
  endfacet
  facet normal -0.0719834 -0.997406 0
    outer loop
      vertex 16.592 4.80801 2
      vertex 16.592 4.80801 4
      vertex 15.1188 4.91434 4
    endloop
  endfacet
  facet normal 0.0787209 -0.996897 0
    outer loop
      vertex 18.037 4.92212 2
      vertex 16.592 4.80801 4
      vertex 16.592 4.80801 2
    endloop
  endfacet
  facet normal 0.0787209 -0.996897 0
    outer loop
      vertex 18.037 4.92212 2
      vertex 18.037 4.92212 4
      vertex 16.592 4.80801 4
    endloop
  endfacet
  facet normal 0.26454 -0.964375 0
    outer loop
      vertex 39.376 5.50266 2
      vertex 38.0016 5.12566 4
      vertex 38.0016 5.12566 2
    endloop
  endfacet
  facet normal 0.26454 -0.964375 0
    outer loop
      vertex 39.376 5.50266 2
      vertex 39.376 5.50266 4
      vertex 38.0016 5.12566 4
    endloop
  endfacet
  facet normal 0.490353 -0.871524 0
    outer loop
      vertex 40.4927 6.131 2
      vertex 39.376 5.50266 4
      vertex 39.376 5.50266 2
    endloop
  endfacet
  facet normal 0.490353 -0.871524 0
    outer loop
      vertex 40.4927 6.131 2
      vertex 40.4927 6.131 4
      vertex 39.376 5.50266 4
    endloop
  endfacet
  facet normal 0.719815 -0.694166 0
    outer loop
      vertex 41.3166 6.98532 2
      vertex 40.4927 6.131 4
      vertex 40.4927 6.131 2
    endloop
  endfacet
  facet normal 0.719815 -0.694166 0
    outer loop
      vertex 41.3166 6.98532 2
      vertex 41.3166 6.98532 4
      vertex 40.4927 6.131 4
    endloop
  endfacet
  facet normal 0.905524 -0.424296 0
    outer loop
      vertex 41.811 8.04033 2
      vertex 41.3166 6.98532 4
      vertex 41.3166 6.98532 2
    endloop
  endfacet
  facet normal 0.905524 -0.424296 0
    outer loop
      vertex 41.811 8.04033 2
      vertex 41.811 8.04033 4
      vertex 41.3166 6.98532 4
    endloop
  endfacet
  facet normal 0.991499 -0.130114 0
    outer loop
      vertex 41.9757 9.29599 2
      vertex 41.811 8.04033 4
      vertex 41.811 8.04033 2
    endloop
  endfacet
  facet normal 0.991499 -0.130114 0
    outer loop
      vertex 41.9757 9.29599 2
      vertex 41.9757 9.29599 4
      vertex 41.811 8.04033 4
    endloop
  endfacet
  facet normal 0.99355 0.113395 0
    outer loop
      vertex 41.8663 10.255 2
      vertex 41.9757 9.29599 4
      vertex 41.9757 9.29599 2
    endloop
  endfacet
  facet normal 0.99355 0.113395 -0
    outer loop
      vertex 41.8663 10.255 2
      vertex 41.8663 10.255 4
      vertex 41.9757 9.29599 4
    endloop
  endfacet
  facet normal 0.931724 0.363167 0
    outer loop
      vertex 41.538 11.0973 2
      vertex 41.8663 10.255 4
      vertex 41.8663 10.255 2
    endloop
  endfacet
  facet normal 0.931724 0.363167 -0
    outer loop
      vertex 41.538 11.0973 2
      vertex 41.538 11.0973 4
      vertex 41.8663 10.255 4
    endloop
  endfacet
  facet normal 0.79843 0.602088 0
    outer loop
      vertex 40.9907 11.823 2
      vertex 41.538 11.0973 4
      vertex 41.538 11.0973 2
    endloop
  endfacet
  facet normal 0.79843 0.602088 -0
    outer loop
      vertex 40.9907 11.823 2
      vertex 40.9907 11.823 4
      vertex 41.538 11.0973 4
    endloop
  endfacet
  facet normal 0.612914 0.790149 0
    outer loop
      vertex 40.2422 12.4037 2
      vertex 40.9907 11.823 4
      vertex 40.9907 11.823 2
    endloop
  endfacet
  facet normal 0.612914 0.790149 -0
    outer loop
      vertex 40.2422 12.4037 2
      vertex 40.2422 12.4037 4
      vertex 40.9907 11.823 4
    endloop
  endfacet
  facet normal 0.398783 0.917045 0
    outer loop
      vertex 39.3085 12.8097 2
      vertex 40.2422 12.4037 4
      vertex 40.2422 12.4037 2
    endloop
  endfacet
  facet normal 0.398783 0.917045 -0
    outer loop
      vertex 39.3085 12.8097 2
      vertex 39.3085 12.8097 4
      vertex 40.2422 12.4037 4
    endloop
  endfacet
  facet normal 0.202479 0.979287 0
    outer loop
      vertex 38.1897 13.041 2
      vertex 39.3085 12.8097 4
      vertex 39.3085 12.8097 2
    endloop
  endfacet
  facet normal 0.202479 0.979287 -0
    outer loop
      vertex 38.1897 13.041 2
      vertex 38.1897 13.041 4
      vertex 39.3085 12.8097 4
    endloop
  endfacet
  facet normal 0.310144 -0.95069 0
    outer loop
      vertex 39.0433 13.3194 2
      vertex 38.1897 13.041 4
      vertex 38.1897 13.041 2
    endloop
  endfacet
  facet normal 0.310144 -0.95069 0
    outer loop
      vertex 39.0433 13.3194 2
      vertex 39.0433 13.3194 4
      vertex 38.1897 13.041 4
    endloop
  endfacet
  facet normal 0.501608 -0.865095 0
    outer loop
      vertex 39.7573 13.7334 2
      vertex 39.0433 13.3194 4
      vertex 39.0433 13.3194 2
    endloop
  endfacet
  facet normal 0.501608 -0.865095 0
    outer loop
      vertex 39.7573 13.7334 2
      vertex 39.7573 13.7334 4
      vertex 39.0433 13.3194 4
    endloop
  endfacet
  facet normal 0.691271 -0.722596 0
    outer loop
      vertex 40.3317 14.283 2
      vertex 39.7573 13.7334 4
      vertex 39.7573 13.7334 2
    endloop
  endfacet
  facet normal 0.691271 -0.722596 0
    outer loop
      vertex 40.3317 14.283 2
      vertex 40.3317 14.283 4
      vertex 39.7573 13.7334 4
    endloop
  endfacet
  facet normal 0.845416 -0.534109 0
    outer loop
      vertex 40.7523 14.9487 2
      vertex 40.3317 14.283 4
      vertex 40.3317 14.283 2
    endloop
  endfacet
  facet normal 0.845416 -0.534109 0
    outer loop
      vertex 40.7523 14.9487 2
      vertex 40.7523 14.9487 4
      vertex 40.3317 14.283 4
    endloop
  endfacet
  facet normal 0.949346 -0.314232 0
    outer loop
      vertex 41.0046 15.711 2
      vertex 40.7523 14.9487 4
      vertex 40.7523 14.9487 2
    endloop
  endfacet
  facet normal 0.949346 -0.314232 0
    outer loop
      vertex 41.0046 15.711 2
      vertex 41.0046 15.711 4
      vertex 40.7523 14.9487 4
    endloop
  endfacet
  facet normal 0.995241 -0.0974468 0
    outer loop
      vertex 41.0887 16.57 2
      vertex 41.0046 15.711 4
      vertex 41.0046 15.711 2
    endloop
  endfacet
  facet normal 0.995241 -0.0974468 0
    outer loop
      vertex 41.0887 16.57 2
      vertex 41.0887 16.57 4
      vertex 41.0046 15.711 4
    endloop
  endfacet
  facet normal 0.960908 0.276868 0
    outer loop
      vertex 40.4923 18.64 2
      vertex 41.0887 16.57 4
      vertex 41.0887 16.57 2
    endloop
  endfacet
  facet normal 0.960908 0.276868 -0
    outer loop
      vertex 40.4923 18.64 2
      vertex 40.4923 18.64 4
      vertex 41.0887 16.57 4
    endloop
  endfacet
  facet normal 0.570208 0.8215 0
    outer loop
      vertex 38.703 19.882 2
      vertex 40.4923 18.64 4
      vertex 40.4923 18.64 2
    endloop
  endfacet
  facet normal 0.570208 0.8215 -0
    outer loop
      vertex 38.703 19.882 2
      vertex 38.703 19.882 4
      vertex 40.4923 18.64 4
    endloop
  endfacet
  facet normal 0.137504 0.990501 0
    outer loop
      vertex 35.7207 20.296 2
      vertex 38.703 19.882 4
      vertex 38.703 19.882 2
    endloop
  endfacet
  facet normal 0.137504 0.990501 -0
    outer loop
      vertex 35.7207 20.296 2
      vertex 35.7207 20.296 4
      vertex 38.703 19.882 4
    endloop
  endfacet
  facet normal 0 1 0
    outer loop
      vertex 30.1787 20.296 2
      vertex 35.7207 20.296 4
      vertex 35.7207 20.296 2
    endloop
  endfacet
  facet normal 0 1 0
    outer loop
      vertex 30.1787 20.296 2
      vertex 30.1787 20.296 4
      vertex 35.7207 20.296 4
    endloop
  endfacet
  facet normal -1 0 0
    outer loop
      vertex 30.1787 5 2
      vertex 30.1787 20.296 4
      vertex 30.1787 20.296 2
    endloop
  endfacet
  facet normal -1 0 0
    outer loop
      vertex 30.1787 5 2
      vertex 30.1787 5 4
      vertex 30.1787 20.296 4
    endloop
  endfacet
  facet normal 0 -1 0
    outer loop
      vertex 36.3697 5 2
      vertex 30.1787 5 4
      vertex 30.1787 5 2
    endloop
  endfacet
  facet normal 0 -1 0
    outer loop
      vertex 36.3697 5 2
      vertex 36.3697 5 4
      vertex 30.1787 5 4
    endloop
  endfacet
  facet normal 0.0767735 -0.997049 0
    outer loop
      vertex 38.0016 5.12566 2
      vertex 36.3697 5 4
      vertex 36.3697 5 2
    endloop
  endfacet
  facet normal 0.0767735 -0.997049 0
    outer loop
      vertex 38.0016 5.12566 2
      vertex 38.0016 5.12566 4
      vertex 36.3697 5 4
    endloop
  endfacet
  facet normal 1 0 -0
    outer loop
      vertex 32.2497 18.637 2
      vertex 32.2497 18.637 4
      vertex 32.2497 13.768 2
    endloop
  endfacet
  facet normal 1 -0 0
    outer loop
      vertex 32.2497 13.768 4
      vertex 32.2497 13.768 2
      vertex 32.2497 18.637 4
    endloop
  endfacet
  facet normal 0 -1 0
    outer loop
      vertex 35.7197 18.637 2
      vertex 35.7197 18.637 4
      vertex 32.2497 18.637 2
    endloop
  endfacet
  facet normal 0 -1 0
    outer loop
      vertex 32.2497 18.637 4
      vertex 32.2497 18.637 2
      vertex 35.7197 18.637 4
    endloop
  endfacet
  facet normal -0.060394 -0.998175 0
    outer loop
      vertex 36.7023 18.5775 2
      vertex 36.7023 18.5775 4
      vertex 35.7197 18.637 2
    endloop
  endfacet
  facet normal -0.060394 -0.998175 -0
    outer loop
      vertex 35.7197 18.637 4
      vertex 35.7197 18.637 2
      vertex 36.7023 18.5775 4
    endloop
  endfacet
  facet normal -0.21392 -0.976851 0
    outer loop
      vertex 37.5166 18.3992 2
      vertex 37.5166 18.3992 4
      vertex 36.7023 18.5775 2
    endloop
  endfacet
  facet normal -0.21392 -0.976851 -0
    outer loop
      vertex 36.7023 18.5775 4
      vertex 36.7023 18.5775 2
      vertex 37.5166 18.3992 4
    endloop
  endfacet
  facet normal -0.417919 -0.908484 0
    outer loop
      vertex 38.1627 18.102 2
      vertex 38.1627 18.102 4
      vertex 37.5166 18.3992 2
    endloop
  endfacet
  facet normal -0.417919 -0.908484 -0
    outer loop
      vertex 37.5166 18.3992 4
      vertex 37.5166 18.3992 2
      vertex 38.1627 18.102 4
    endloop
  endfacet
  facet normal -0.680489 -0.732759 0
    outer loop
      vertex 38.6316 17.6665 2
      vertex 38.6316 17.6665 4
      vertex 38.1627 18.102 2
    endloop
  endfacet
  facet normal -0.680489 -0.732759 -0
    outer loop
      vertex 38.1627 18.102 4
      vertex 38.1627 18.102 2
      vertex 38.6316 17.6665 4
    endloop
  endfacet
  facet normal -0.903475 -0.428641 0
    outer loop
      vertex 38.913 17.0735 2
      vertex 38.913 17.0735 4
      vertex 38.6316 17.6665 2
    endloop
  endfacet
  facet normal -0.903475 -0.428641 -0
    outer loop
      vertex 38.6316 17.6665 4
      vertex 38.6316 17.6665 2
      vertex 38.913 17.0735 4
    endloop
  endfacet
  facet normal -0.992287 -0.123965 0
    outer loop
      vertex 39.0067 16.323 2
      vertex 39.0067 16.323 4
      vertex 38.913 17.0735 2
    endloop
  endfacet
  facet normal -0.992287 -0.123965 -0
    outer loop
      vertex 38.913 17.0735 4
      vertex 38.913 17.0735 2
      vertex 39.0067 16.323 4
    endloop
  endfacet
  facet normal -0.993511 0.113736 0
    outer loop
      vertex 38.9161 15.531 2
      vertex 38.9161 15.531 4
      vertex 39.0067 16.323 2
    endloop
  endfacet
  facet normal -0.993511 0.113736 0
    outer loop
      vertex 39.0067 16.323 4
      vertex 39.0067 16.323 2
      vertex 38.9161 15.531 4
    endloop
  endfacet
  facet normal -0.920921 0.389748 0
    outer loop
      vertex 38.6441 14.8883 2
      vertex 38.6441 14.8883 4
      vertex 38.9161 15.531 2
    endloop
  endfacet
  facet normal -0.920921 0.389748 0
    outer loop
      vertex 38.9161 15.531 4
      vertex 38.9161 15.531 2
      vertex 38.6441 14.8883 4
    endloop
  endfacet
  facet normal -0.736323 0.676631 0
    outer loop
      vertex 38.1907 14.395 2
      vertex 38.1907 14.395 4
      vertex 38.6441 14.8883 2
    endloop
  endfacet
  facet normal -0.736323 0.676631 0
    outer loop
      vertex 38.6441 14.8883 4
      vertex 38.6441 14.8883 2
      vertex 38.1907 14.395 4
    endloop
  endfacet
  facet normal -0.47965 0.87746 0
    outer loop
      vertex 37.5535 14.0467 2
      vertex 37.5535 14.0467 4
      vertex 38.1907 14.395 2
    endloop
  endfacet
  facet normal -0.47965 0.87746 0
    outer loop
      vertex 38.1907 14.395 4
      vertex 38.1907 14.395 2
      vertex 37.5535 14.0467 4
    endloop
  endfacet
  facet normal -0.245948 0.969283 0
    outer loop
      vertex 36.7298 13.8377 2
      vertex 36.7298 13.8377 4
      vertex 37.5535 14.0467 2
    endloop
  endfacet
  facet normal -0.245948 0.969283 0
    outer loop
      vertex 37.5535 14.0467 4
      vertex 37.5535 14.0467 2
      vertex 36.7298 13.8377 4
    endloop
  endfacet
  facet normal -0.0688114 0.99763 0
    outer loop
      vertex 35.7197 13.768 2
      vertex 35.7197 13.768 4
      vertex 36.7298 13.8377 2
    endloop
  endfacet
  facet normal -0.0688114 0.99763 0
    outer loop
      vertex 36.7298 13.8377 4
      vertex 36.7298 13.8377 2
      vertex 35.7197 13.768 4
    endloop
  endfacet
  facet normal 0 1 0
    outer loop
      vertex 32.2497 13.768 2
      vertex 32.2497 13.768 4
      vertex 35.7197 13.768 2
    endloop
  endfacet
  facet normal 0 1 0
    outer loop
      vertex 35.7197 13.768 4
      vertex 35.7197 13.768 2
      vertex 32.2497 13.768 4
    endloop
  endfacet
  facet normal 1 0 -0
    outer loop
      vertex 32.2497 12.152 2
      vertex 32.2497 12.152 4
      vertex 32.2497 6.659 2
    endloop
  endfacet
  facet normal 1 -0 0
    outer loop
      vertex 32.2497 6.659 4
      vertex 32.2497 6.659 2
      vertex 32.2497 12.152 4
    endloop
  endfacet
  facet normal 0 -1 0
    outer loop
      vertex 36.0987 12.152 2
      vertex 36.0987 12.152 4
      vertex 32.2497 12.152 2
    endloop
  endfacet
  facet normal 0 -1 0
    outer loop
      vertex 32.2497 12.152 4
      vertex 32.2497 12.152 2
      vertex 36.0987 12.152 4
    endloop
  endfacet
  facet normal -0.140832 -0.990034 0
    outer loop
      vertex 38.2015 11.8529 2
      vertex 38.2015 11.8529 4
      vertex 36.0987 12.152 2
    endloop
  endfacet
  facet normal -0.140832 -0.990034 -0
    outer loop
      vertex 36.0987 12.152 4
      vertex 36.0987 12.152 2
      vertex 38.2015 11.8529 4
    endloop
  endfacet
  facet normal -0.579581 -0.814914 0
    outer loop
      vertex 39.4632 10.9556 2
      vertex 39.4632 10.9556 4
      vertex 38.2015 11.8529 2
    endloop
  endfacet
  facet normal -0.579581 -0.814914 -0
    outer loop
      vertex 38.2015 11.8529 4
      vertex 38.2015 11.8529 2
      vertex 39.4632 10.9556 4
    endloop
  endfacet
  facet normal -0.962664 -0.270699 0
    outer loop
      vertex 39.8837 9.45999 2
      vertex 39.8837 9.45999 4
      vertex 39.4632 10.9556 2
    endloop
  endfacet
  facet normal -0.962664 -0.270699 -0
    outer loop
      vertex 39.4632 10.9556 4
      vertex 39.4632 10.9556 2
      vertex 39.8837 9.45999 4
    endloop
  endfacet
  facet normal -0.993715 0.111939 0
    outer loop
      vertex 39.7876 8.60689 2
      vertex 39.7876 8.60689 4
      vertex 39.8837 9.45999 2
    endloop
  endfacet
  facet normal -0.993715 0.111939 0
    outer loop
      vertex 39.8837 9.45999 4
      vertex 39.8837 9.45999 2
      vertex 39.7876 8.60689 4
    endloop
  endfacet
  facet normal -0.9245 0.381181 0
    outer loop
      vertex 39.4993 7.90755 2
      vertex 39.4993 7.90755 4
      vertex 39.7876 8.60689 2
    endloop
  endfacet
  facet normal -0.9245 0.381181 0
    outer loop
      vertex 39.7876 8.60689 4
      vertex 39.7876 8.60689 2
      vertex 39.4993 7.90755 4
    endloop
  endfacet
  facet normal -0.750397 0.660987 0
    outer loop
      vertex 39.0187 7.362 2
      vertex 39.0187 7.362 4
      vertex 39.4993 7.90755 2
    endloop
  endfacet
  facet normal -0.750397 0.660987 0
    outer loop
      vertex 39.4993 7.90755 4
      vertex 39.4993 7.90755 2
      vertex 39.0187 7.362 4
    endloop
  endfacet
  facet normal -0.492174 0.870497 0
    outer loop
      vertex 38.328 6.97144 2
      vertex 38.328 6.97144 4
      vertex 39.0187 7.362 2
    endloop
  endfacet
  facet normal -0.492174 0.870497 0
    outer loop
      vertex 39.0187 7.362 4
      vertex 39.0187 7.362 2
      vertex 38.328 6.97144 4
    endloop
  endfacet
  facet normal -0.247076 0.968996 0
    outer loop
      vertex 37.409 6.73711 2
      vertex 37.409 6.73711 4
      vertex 38.328 6.97144 2
    endloop
  endfacet
  facet normal -0.247076 0.968996 0
    outer loop
      vertex 38.328 6.97144 4
      vertex 38.328 6.97144 2
      vertex 37.409 6.73711 4
    endloop
  endfacet
  facet normal -0.067929 0.99769 0
    outer loop
      vertex 36.2617 6.659 2
      vertex 36.2617 6.659 4
      vertex 37.409 6.73711 2
    endloop
  endfacet
  facet normal -0.067929 0.99769 0
    outer loop
      vertex 37.409 6.73711 4
      vertex 37.409 6.73711 2
      vertex 36.2617 6.659 4
    endloop
  endfacet
  facet normal 0 1 0
    outer loop
      vertex 32.2497 6.659 2
      vertex 32.2497 6.659 4
      vertex 36.2617 6.659 2
    endloop
  endfacet
  facet normal 0 1 0
    outer loop
      vertex 36.2617 6.659 4
      vertex 36.2617 6.659 2
      vertex 32.2497 6.659 4
    endloop
  endfacet
endsolid OpenSCAD_Model
