solid OpenSCAD_Model
  facet normal 0 0 -1
    outer loop
      vertex 22.5019 7.6221 2
      vertex 20.2681 7.91533 2
      vertex 21.525 9.672 2
    endloop
  endfacet
  facet normal -0 0 -1
    outer loop
      vertex 21.6165 6.6241 2
      vertex 20.561 5.83499 2
      vertex 20.2681 7.91533 2
    endloop
  endfacet
  facet normal 0 0 -1
    outer loop
      vertex 21.6165 6.6241 2
      vertex 20.2681 7.91533 2
      vertex 22.5019 7.6221 2
    endloop
  endfacet
  facet normal 0 0 -1
    outer loop
      vertex 37.0497 6.50999 2
      vertex 36.9527 4.80801 2
      vertex 35.4795 4.91434 2
    endloop
  endfacet
  facet normal -0 0 -1
    outer loop
      vertex 35.4911 6.6991 2
      vertex 34.1452 5.23332 2
      vertex 34.1631 7.26643 2
    endloop
  endfacet
  facet normal 0 0 -1
    outer loop
      vertex 21.525 9.672 2
      vertex 23.217 8.82899 2
      vertex 22.5019 7.6221 2
    endloop
  endfacet
  facet normal 0 0 -1
    outer loop
      vertex 34.1452 5.23332 2
      vertex 32.9497 5.765 2
      vertex 34.1631 7.26643 2
    endloop
  endfacet
  facet normal 0 0 -1
    outer loop
      vertex 31.9131 6.49432 2
      vertex 31.0551 7.40633 2
      vertex 33.0657 8.21199 2
    endloop
  endfacet
  facet normal 0 0 -1
    outer loop
      vertex 18.037 4.92212 2
      vertex 18.6561 6.86133 2
      vertex 19.36 5.26443 2
    endloop
  endfacet
  facet normal 0 0 -1
    outer loop
      vertex 18.037 4.92212 2
      vertex 16.689 6.50999 2
      vertex 18.6561 6.86133 2
    endloop
  endfacet
  facet normal 0 0 -1
    outer loop
      vertex 18.6561 6.86133 2
      vertex 20.561 5.83499 2
      vertex 19.36 5.26443 2
    endloop
  endfacet
  facet normal 0 -0 -1
    outer loop
      vertex 20.2681 7.91533 2
      vertex 20.561 5.83499 2
      vertex 18.6561 6.86133 2
    endloop
  endfacet
  facet normal -0 0 -1
    outer loop
      vertex 18.037 4.92212 2
      vertex 16.592 4.80801 2
      vertex 16.689 6.50999 2
    endloop
  endfacet
  facet normal -0 0 -1
    outer loop
      vertex 16.689 6.50999 2
      vertex 15.1188 4.91434 2
      vertex 15.1303 6.6991 2
    endloop
  endfacet
  facet normal 0 0 -1
    outer loop
      vertex 12.589 5.765 2
      vertex 11.5523 6.49432 2
      vertex 13.8023 7.26643 2
    endloop
  endfacet
  facet normal 0 0 -1
    outer loop
      vertex 10.015 8.50099 2
      vertex 11.8872 9.46843 2
      vertex 10.6943 7.40633 2
    endloop
  endfacet
  facet normal 0 0 -1
    outer loop
      vertex 10.015 8.50099 2
      vertex 9.52333 9.75966 2
      vertex 11.8872 9.46843 2
    endloop
  endfacet
  facet normal 0 0 -1
    outer loop
      vertex 9.52333 9.75966 2
      vertex 9.22833 11.1637 2
      vertex 11.3965 10.9684 2
    endloop
  endfacet
  facet normal 0 0 -1
    outer loop
      vertex 9.22833 11.1637 2
      vertex 9.12999 12.713 2
      vertex 11.233 12.712 2
    endloop
  endfacet
  facet normal 0 0 -1
    outer loop
      vertex 9.12999 12.713 2
      vertex 9.34966 14.9669 2
      vertex 11.39 14.466 2
    endloop
  endfacet
  facet normal 0 0 -1
    outer loop
      vertex 9.34966 14.9669 2
      vertex 10.0087 16.8699 2
      vertex 11.861 15.952 2
    endloop
  endfacet
  facet normal 0 0 -1
    outer loop
      vertex 11.861 15.952 2
      vertex 11.107 18.422 2
      vertex 12.646 17.17 2
    endloop
  endfacet
  facet normal 0 0 -1
    outer loop
      vertex 12.646 17.17 2
      vertex 12.5939 19.5698 2
      vertex 13.7135 18.0733 2
    endloop
  endfacet
  facet normal 0 0 -1
    outer loop
      vertex 13.7135 18.0733 2
      vertex 12.5939 19.5698 2
      vertex 14.4185 20.2584 2
    endloop
  endfacet
  facet normal 0 0 -1
    outer loop
      vertex 15.0322 18.6153 2
      vertex 16.581 20.488 2
      vertex 16.602 18.796 2
    endloop
  endfacet
  facet normal 0 -0 -1
    outer loop
      vertex 18.121 20.3824 2
      vertex 18.566 18.4849 2
      vertex 17.633 18.7182 2
    endloop
  endfacet
  facet normal 0 0 -1
    outer loop
      vertex 19.4823 20.0658 2
      vertex 19.401 18.096 2
      vertex 18.566 18.4849 2
    endloop
  endfacet
  facet normal 0 0 -1
    outer loop
      vertex 20.665 19.538 2
      vertex 20.1152 17.56 2
      vertex 19.401 18.096 2
    endloop
  endfacet
  facet normal 0 0 -1
    outer loop
      vertex 21.6618 18.8027 2
      vertex 20.6859 16.8853 2
      vertex 20.1152 17.56 2
    endloop
  endfacet
  facet normal 0 -0 -1
    outer loop
      vertex 21.6618 18.8027 2
      vertex 22.4654 17.8633 2
      vertex 20.6859 16.8853 2
    endloop
  endfacet
  facet normal 0 0 -1
    outer loop
      vertex 20.6859 16.8853 2
      vertex 22.4654 17.8633 2
      vertex 21.113 16.072 2
    endloop
  endfacet
  facet normal 0 0 -1
    outer loop
      vertex 21.113 16.072 2
      vertex 22.4654 17.8633 2
      vertex 23.076 16.72 2
    endloop
  endfacet
  facet normal 0 -0 -1
    outer loop
      vertex 20.665 19.538 2
      vertex 21.6618 18.8027 2
      vertex 20.1152 17.56 2
    endloop
  endfacet
  facet normal 0 0 -1
    outer loop
      vertex 42.8626 7.6221 2
      vertex 40.6288 7.91533 2
      vertex 41.8857 9.672 2
    endloop
  endfacet
  facet normal 0 -0 -1
    outer loop
      vertex 19.4823 20.0658 2
      vertex 20.665 19.538 2
      vertex 19.401 18.096 2
    endloop
  endfacet
  facet normal 0 0 -1
    outer loop
      vertex 41.9773 6.6241 2
      vertex 40.6288 7.91533 2
      vertex 42.8626 7.6221 2
    endloop
  endfacet
  facet normal 0 0 -1
    outer loop
      vertex 18.121 20.3824 2
      vertex 19.4823 20.0658 2
      vertex 18.566 18.4849 2
    endloop
  endfacet
  facet normal 0 -0 -1
    outer loop
      vertex 39.0168 6.86133 2
      vertex 39.7207 5.26443 2
      vertex 38.3977 4.92212 2
    endloop
  endfacet
  facet normal 0 0 -1
    outer loop
      vertex 16.581 20.488 2
      vertex 18.121 20.3824 2
      vertex 17.633 18.7182 2
    endloop
  endfacet
  facet normal 0 0 -1
    outer loop
      vertex 34.0743 18.0733 2
      vertex 32.9546 19.5698 2
      vertex 34.7793 20.2584 2
    endloop
  endfacet
  facet normal 0 0 -1
    outer loop
      vertex 16.602 18.796 2
      vertex 16.581 20.488 2
      vertex 17.633 18.7182 2
    endloop
  endfacet
  facet normal 0 0 -1
    outer loop
      vertex 35.393 18.6153 2
      vertex 34.7793 20.2584 2
      vertex 36.9417 20.488 2
    endloop
  endfacet
  facet normal 0 0 -1
    outer loop
      vertex 15.0322 18.6153 2
      vertex 14.4185 20.2584 2
      vertex 16.581 20.488 2
    endloop
  endfacet
  facet normal 0 0 -1
    outer loop
      vertex 36.9627 18.796 2
      vertex 36.9417 20.488 2
      vertex 37.9937 18.7182 2
    endloop
  endfacet
  facet normal -0 0 -1
    outer loop
      vertex 15.0322 18.6153 2
      vertex 13.7135 18.0733 2
      vertex 14.4185 20.2584 2
    endloop
  endfacet
  facet normal 0 0 -1
    outer loop
      vertex 12.646 17.17 2
      vertex 11.107 18.422 2
      vertex 12.5939 19.5698 2
    endloop
  endfacet
  facet normal 0 0 -1
    outer loop
      vertex 11.861 15.952 2
      vertex 10.0087 16.8699 2
      vertex 11.107 18.422 2
    endloop
  endfacet
  facet normal 0 0 -1
    outer loop
      vertex 11.39 14.466 2
      vertex 9.34966 14.9669 2
      vertex 11.861 15.952 2
    endloop
  endfacet
  facet normal 0 0 -1
    outer loop
      vertex 11.233 12.712 2
      vertex 9.12999 12.713 2
      vertex 11.39 14.466 2
    endloop
  endfacet
  facet normal 0 0 -1
    outer loop
      vertex 11.3965 10.9684 2
      vertex 9.22833 11.1637 2
      vertex 11.233 12.712 2
    endloop
  endfacet
  facet normal 0 0 -1
    outer loop
      vertex 11.8872 9.46843 2
      vertex 9.52333 9.75966 2
      vertex 11.3965 10.9684 2
    endloop
  endfacet
  facet normal 0 0 -1
    outer loop
      vertex 10.6943 7.40633 2
      vertex 11.8872 9.46843 2
      vertex 12.705 8.21199 2
    endloop
  endfacet
  facet normal 0 0 -1
    outer loop
      vertex 11.5523 6.49432 2
      vertex 10.6943 7.40633 2
      vertex 12.705 8.21199 2
    endloop
  endfacet
  facet normal -0 0 -1
    outer loop
      vertex 13.8023 7.26643 2
      vertex 11.5523 6.49432 2
      vertex 12.705 8.21199 2
    endloop
  endfacet
  facet normal 0 0 -1
    outer loop
      vertex 13.7844 5.23332 2
      vertex 12.589 5.765 2
      vertex 13.8023 7.26643 2
    endloop
  endfacet
  facet normal -0 0 -1
    outer loop
      vertex 15.1303 6.6991 2
      vertex 13.7844 5.23332 2
      vertex 13.8023 7.26643 2
    endloop
  endfacet
  facet normal 0 0 -1
    outer loop
      vertex 15.1303 6.6991 2
      vertex 15.1188 4.91434 2
      vertex 13.7844 5.23332 2
    endloop
  endfacet
  facet normal 0 0 -1
    outer loop
      vertex 16.689 6.50999 2
      vertex 16.592 4.80801 2
      vertex 15.1188 4.91434 2
    endloop
  endfacet
  facet normal 0 0 -1
    outer loop
      vertex 32.9497 5.765 2
      vertex 31.9131 6.49432 2
      vertex 34.1631 7.26643 2
    endloop
  endfacet
  facet normal -0 0 -1
    outer loop
      vertex 41.9773 6.6241 2
      vertex 40.9217 5.83499 2
      vertex 40.6288 7.91533 2
    endloop
  endfacet
  facet normal 0 0 -1
    outer loop
      vertex 41.8857 9.672 2
      vertex 43.5777 8.82899 2
      vertex 42.8626 7.6221 2
    endloop
  endfacet
  facet normal 0 0 -1
    outer loop
      vertex 32.248 9.46843 2
      vertex 31.0551 7.40633 2
      vertex 30.3757 8.50099 2
    endloop
  endfacet
  facet normal 0 0 -1
    outer loop
      vertex 30.3694 16.8699 2
      vertex 31.4677 18.422 2
      vertex 32.2217 15.952 2
    endloop
  endfacet
  facet normal 0 0 -1
    outer loop
      vertex 31.4677 18.422 2
      vertex 32.9546 19.5698 2
      vertex 33.0067 17.17 2
    endloop
  endfacet
  facet normal 0 0 -1
    outer loop
      vertex 39.0168 6.86133 2
      vertex 40.9217 5.83499 2
      vertex 39.7207 5.26443 2
    endloop
  endfacet
  facet normal 0 -0 -1
    outer loop
      vertex 40.6288 7.91533 2
      vertex 40.9217 5.83499 2
      vertex 39.0168 6.86133 2
    endloop
  endfacet
  facet normal 0 0 -1
    outer loop
      vertex 37.0497 6.50999 2
      vertex 39.0168 6.86133 2
      vertex 38.3977 4.92212 2
    endloop
  endfacet
  facet normal 0 -0 -1
    outer loop
      vertex 37.0497 6.50999 2
      vertex 38.3977 4.92212 2
      vertex 36.9527 4.80801 2
    endloop
  endfacet
  facet normal 0 0 -1
    outer loop
      vertex 31.0551 7.40633 2
      vertex 32.248 9.46843 2
      vertex 33.0657 8.21199 2
    endloop
  endfacet
  facet normal 0 -0 -1
    outer loop
      vertex 35.4911 6.6991 2
      vertex 37.0497 6.50999 2
      vertex 35.4795 4.91434 2
    endloop
  endfacet
  facet normal 0 0 -1
    outer loop
      vertex 32.248 9.46843 2
      vertex 29.8841 9.75966 2
      vertex 31.7573 10.9684 2
    endloop
  endfacet
  facet normal 0 0 -1
    outer loop
      vertex 31.7573 10.9684 2
      vertex 29.5891 11.1637 2
      vertex 31.5937 12.712 2
    endloop
  endfacet
  facet normal 0 0 -1
    outer loop
      vertex 31.5937 12.712 2
      vertex 29.4907 12.713 2
      vertex 31.7507 14.466 2
    endloop
  endfacet
  facet normal 0 0 -1
    outer loop
      vertex 31.7507 14.466 2
      vertex 29.7104 14.9669 2
      vertex 32.2217 15.952 2
    endloop
  endfacet
  facet normal -0 0 -1
    outer loop
      vertex 34.0743 18.0733 2
      vertex 33.0067 17.17 2
      vertex 32.9546 19.5698 2
    endloop
  endfacet
  facet normal -0 0 -1
    outer loop
      vertex 35.393 18.6153 2
      vertex 34.0743 18.0733 2
      vertex 34.7793 20.2584 2
    endloop
  endfacet
  facet normal -0 0 -1
    outer loop
      vertex 36.9627 18.796 2
      vertex 35.393 18.6153 2
      vertex 36.9417 20.488 2
    endloop
  endfacet
  facet normal 0 0 -1
    outer loop
      vertex 37.9937 18.7182 2
      vertex 36.9417 20.488 2
      vertex 38.4817 20.3824 2
    endloop
  endfacet
  facet normal 0 0 -1
    outer loop
      vertex 38.9267 18.4849 2
      vertex 37.9937 18.7182 2
      vertex 38.4817 20.3824 2
    endloop
  endfacet
  facet normal 0 0 -1
    outer loop
      vertex 39.7617 18.096 2
      vertex 38.9267 18.4849 2
      vertex 39.8431 20.0658 2
    endloop
  endfacet
  facet normal -0 0 -1
    outer loop
      vertex 39.8431 20.0658 2
      vertex 38.9267 18.4849 2
      vertex 38.4817 20.3824 2
    endloop
  endfacet
  facet normal 0 0 -1
    outer loop
      vertex 41.0257 19.538 2
      vertex 40.476 17.56 2
      vertex 39.7617 18.096 2
    endloop
  endfacet
  facet normal 0 0 -1
    outer loop
      vertex 42.0225 18.8027 2
      vertex 41.0466 16.8853 2
      vertex 40.476 17.56 2
    endloop
  endfacet
  facet normal 0 -0 -1
    outer loop
      vertex 42.0225 18.8027 2
      vertex 42.8262 17.8633 2
      vertex 41.0466 16.8853 2
    endloop
  endfacet
  facet normal 0 0 -1
    outer loop
      vertex 41.0466 16.8853 2
      vertex 42.8262 17.8633 2
      vertex 41.4737 16.072 2
    endloop
  endfacet
  facet normal 0 0 -1
    outer loop
      vertex 41.4737 16.072 2
      vertex 42.8262 17.8633 2
      vertex 43.4367 16.72 2
    endloop
  endfacet
  facet normal 0 -0 -1
    outer loop
      vertex 41.0257 19.538 2
      vertex 42.0225 18.8027 2
      vertex 40.476 17.56 2
    endloop
  endfacet
  facet normal 0 -0 -1
    outer loop
      vertex 39.8431 20.0658 2
      vertex 41.0257 19.538 2
      vertex 39.7617 18.096 2
    endloop
  endfacet
  facet normal 0 0 -1
    outer loop
      vertex 32.2217 15.952 2
      vertex 31.4677 18.422 2
      vertex 33.0067 17.17 2
    endloop
  endfacet
  facet normal 0 0 -1
    outer loop
      vertex 29.7104 14.9669 2
      vertex 30.3694 16.8699 2
      vertex 32.2217 15.952 2
    endloop
  endfacet
  facet normal 0 0 -1
    outer loop
      vertex 29.4907 12.713 2
      vertex 29.7104 14.9669 2
      vertex 31.7507 14.466 2
    endloop
  endfacet
  facet normal 0 0 -1
    outer loop
      vertex 29.4907 12.713 2
      vertex 31.5937 12.712 2
      vertex 29.5891 11.1637 2
    endloop
  endfacet
  facet normal 0 0 -1
    outer loop
      vertex 29.5891 11.1637 2
      vertex 31.7573 10.9684 2
      vertex 29.8841 9.75966 2
    endloop
  endfacet
  facet normal 0 0 -1
    outer loop
      vertex 29.8841 9.75966 2
      vertex 32.248 9.46843 2
      vertex 30.3757 8.50099 2
    endloop
  endfacet
  facet normal 0 0 -1
    outer loop
      vertex 31.9131 6.49432 2
      vertex 33.0657 8.21199 2
      vertex 34.1631 7.26643 2
    endloop
  endfacet
  facet normal 0 0 -1
    outer loop
      vertex 35.4911 6.6991 2
      vertex 35.4795 4.91434 2
      vertex 34.1452 5.23332 2
    endloop
  endfacet
  facet normal 0 0 1
    outer loop
      vertex 21.525 9.672 4
      vertex 20.2681 7.91533 4
      vertex 22.5019 7.6221 4
    endloop
  endfacet
  facet normal 0 0 1
    outer loop
      vertex 20.2681 7.91533 4
      vertex 20.561 5.83499 4
      vertex 21.6165 6.6241 4
    endloop
  endfacet
  facet normal 0 0 1
    outer loop
      vertex 22.5019 7.6221 4
      vertex 20.2681 7.91533 4
      vertex 21.6165 6.6241 4
    endloop
  endfacet
  facet normal -0 0 1
    outer loop
      vertex 35.4795 4.91434 4
      vertex 36.9527 4.80801 4
      vertex 37.0497 6.50999 4
    endloop
  endfacet
  facet normal 0 0 1
    outer loop
      vertex 34.1631 7.26643 4
      vertex 34.1452 5.23332 4
      vertex 35.4911 6.6991 4
    endloop
  endfacet
  facet normal 0 -0 1
    outer loop
      vertex 22.5019 7.6221 4
      vertex 23.217 8.82899 4
      vertex 21.525 9.672 4
    endloop
  endfacet
  facet normal 0 0 1
    outer loop
      vertex 34.1631 7.26643 4
      vertex 32.9497 5.765 4
      vertex 34.1452 5.23332 4
    endloop
  endfacet
  facet normal 0 0 1
    outer loop
      vertex 33.0657 8.21199 4
      vertex 31.0551 7.40633 4
      vertex 31.9131 6.49432 4
    endloop
  endfacet
  facet normal 0 0 1
    outer loop
      vertex 19.36 5.26443 4
      vertex 18.6561 6.86133 4
      vertex 18.037 4.92212 4
    endloop
  endfacet
  facet normal 0 0 1
    outer loop
      vertex 18.6561 6.86133 4
      vertex 16.689 6.50999 4
      vertex 18.037 4.92212 4
    endloop
  endfacet
  facet normal 0 -0 1
    outer loop
      vertex 19.36 5.26443 4
      vertex 20.561 5.83499 4
      vertex 18.6561 6.86133 4
    endloop
  endfacet
  facet normal -0 0 1
    outer loop
      vertex 18.6561 6.86133 4
      vertex 20.561 5.83499 4
      vertex 20.2681 7.91533 4
    endloop
  endfacet
  facet normal 0 0 1
    outer loop
      vertex 16.689 6.50999 4
      vertex 16.592 4.80801 4
      vertex 18.037 4.92212 4
    endloop
  endfacet
  facet normal 0 0 1
    outer loop
      vertex 15.1303 6.6991 4
      vertex 15.1188 4.91434 4
      vertex 16.689 6.50999 4
    endloop
  endfacet
  facet normal 0 0 1
    outer loop
      vertex 13.8023 7.26643 4
      vertex 11.5523 6.49432 4
      vertex 12.589 5.765 4
    endloop
  endfacet
  facet normal 0 -0 1
    outer loop
      vertex 10.6943 7.40633 4
      vertex 11.8872 9.46843 4
      vertex 10.015 8.50099 4
    endloop
  endfacet
  facet normal 0 0 1
    outer loop
      vertex 11.8872 9.46843 4
      vertex 9.52333 9.75966 4
      vertex 10.015 8.50099 4
    endloop
  endfacet
  facet normal 0 0 1
    outer loop
      vertex 11.3965 10.9684 4
      vertex 9.22833 11.1637 4
      vertex 9.52333 9.75966 4
    endloop
  endfacet
  facet normal 0 0 1
    outer loop
      vertex 11.233 12.712 4
      vertex 9.12999 12.713 4
      vertex 9.22833 11.1637 4
    endloop
  endfacet
  facet normal 0 0 1
    outer loop
      vertex 11.39 14.466 4
      vertex 9.34966 14.9669 4
      vertex 9.12999 12.713 4
    endloop
  endfacet
  facet normal 0 0 1
    outer loop
      vertex 11.861 15.952 4
      vertex 10.0087 16.8699 4
      vertex 9.34966 14.9669 4
    endloop
  endfacet
  facet normal 0 0 1
    outer loop
      vertex 12.646 17.17 4
      vertex 11.107 18.422 4
      vertex 11.861 15.952 4
    endloop
  endfacet
  facet normal 0 0 1
    outer loop
      vertex 13.7135 18.0733 4
      vertex 12.5939 19.5698 4
      vertex 12.646 17.17 4
    endloop
  endfacet
  facet normal 0 0 1
    outer loop
      vertex 14.4185 20.2584 4
      vertex 12.5939 19.5698 4
      vertex 13.7135 18.0733 4
    endloop
  endfacet
  facet normal 0 0 1
    outer loop
      vertex 16.602 18.796 4
      vertex 16.581 20.488 4
      vertex 15.0322 18.6153 4
    endloop
  endfacet
  facet normal -0 0 1
    outer loop
      vertex 17.633 18.7182 4
      vertex 18.566 18.4849 4
      vertex 18.121 20.3824 4
    endloop
  endfacet
  facet normal -0 0 1
    outer loop
      vertex 18.566 18.4849 4
      vertex 19.401 18.096 4
      vertex 19.4823 20.0658 4
    endloop
  endfacet
  facet normal -0 0 1
    outer loop
      vertex 19.401 18.096 4
      vertex 20.1152 17.56 4
      vertex 20.665 19.538 4
    endloop
  endfacet
  facet normal -0 0 1
    outer loop
      vertex 20.1152 17.56 4
      vertex 20.6859 16.8853 4
      vertex 21.6618 18.8027 4
    endloop
  endfacet
  facet normal 0 0 1
    outer loop
      vertex 20.6859 16.8853 4
      vertex 22.4654 17.8633 4
      vertex 21.6618 18.8027 4
    endloop
  endfacet
  facet normal 0 -0 1
    outer loop
      vertex 21.113 16.072 4
      vertex 22.4654 17.8633 4
      vertex 20.6859 16.8853 4
    endloop
  endfacet
  facet normal 0 0 1
    outer loop
      vertex 23.076 16.72 4
      vertex 22.4654 17.8633 4
      vertex 21.113 16.072 4
    endloop
  endfacet
  facet normal 0 0 1
    outer loop
      vertex 20.1152 17.56 4
      vertex 21.6618 18.8027 4
      vertex 20.665 19.538 4
    endloop
  endfacet
  facet normal 0 0 1
    outer loop
      vertex 41.8857 9.672 4
      vertex 40.6288 7.91533 4
      vertex 42.8626 7.6221 4
    endloop
  endfacet
  facet normal 0 0 1
    outer loop
      vertex 19.401 18.096 4
      vertex 20.665 19.538 4
      vertex 19.4823 20.0658 4
    endloop
  endfacet
  facet normal 0 0 1
    outer loop
      vertex 42.8626 7.6221 4
      vertex 40.6288 7.91533 4
      vertex 41.9773 6.6241 4
    endloop
  endfacet
  facet normal 0 -0 1
    outer loop
      vertex 18.566 18.4849 4
      vertex 19.4823 20.0658 4
      vertex 18.121 20.3824 4
    endloop
  endfacet
  facet normal 0 0 1
    outer loop
      vertex 38.3977 4.92212 4
      vertex 39.7207 5.26443 4
      vertex 39.0168 6.86133 4
    endloop
  endfacet
  facet normal 0 -0 1
    outer loop
      vertex 17.633 18.7182 4
      vertex 18.121 20.3824 4
      vertex 16.581 20.488 4
    endloop
  endfacet
  facet normal 0 0 1
    outer loop
      vertex 34.7793 20.2584 4
      vertex 32.9546 19.5698 4
      vertex 34.0743 18.0733 4
    endloop
  endfacet
  facet normal 0 0 1
    outer loop
      vertex 17.633 18.7182 4
      vertex 16.581 20.488 4
      vertex 16.602 18.796 4
    endloop
  endfacet
  facet normal 0 0 1
    outer loop
      vertex 36.9417 20.488 4
      vertex 34.7793 20.2584 4
      vertex 35.393 18.6153 4
    endloop
  endfacet
  facet normal 0 0 1
    outer loop
      vertex 16.581 20.488 4
      vertex 14.4185 20.2584 4
      vertex 15.0322 18.6153 4
    endloop
  endfacet
  facet normal 0 0 1
    outer loop
      vertex 37.9937 18.7182 4
      vertex 36.9417 20.488 4
      vertex 36.9627 18.796 4
    endloop
  endfacet
  facet normal 0 0 1
    outer loop
      vertex 14.4185 20.2584 4
      vertex 13.7135 18.0733 4
      vertex 15.0322 18.6153 4
    endloop
  endfacet
  facet normal 0 0 1
    outer loop
      vertex 12.5939 19.5698 4
      vertex 11.107 18.422 4
      vertex 12.646 17.17 4
    endloop
  endfacet
  facet normal 0 0 1
    outer loop
      vertex 11.107 18.422 4
      vertex 10.0087 16.8699 4
      vertex 11.861 15.952 4
    endloop
  endfacet
  facet normal 0 0 1
    outer loop
      vertex 11.861 15.952 4
      vertex 9.34966 14.9669 4
      vertex 11.39 14.466 4
    endloop
  endfacet
  facet normal 0 0 1
    outer loop
      vertex 11.39 14.466 4
      vertex 9.12999 12.713 4
      vertex 11.233 12.712 4
    endloop
  endfacet
  facet normal 0 0 1
    outer loop
      vertex 11.233 12.712 4
      vertex 9.22833 11.1637 4
      vertex 11.3965 10.9684 4
    endloop
  endfacet
  facet normal 0 0 1
    outer loop
      vertex 11.3965 10.9684 4
      vertex 9.52333 9.75966 4
      vertex 11.8872 9.46843 4
    endloop
  endfacet
  facet normal 0 0 1
    outer loop
      vertex 12.705 8.21199 4
      vertex 11.8872 9.46843 4
      vertex 10.6943 7.40633 4
    endloop
  endfacet
  facet normal 0 0 1
    outer loop
      vertex 12.705 8.21199 4
      vertex 10.6943 7.40633 4
      vertex 11.5523 6.49432 4
    endloop
  endfacet
  facet normal 0 0 1
    outer loop
      vertex 12.705 8.21199 4
      vertex 11.5523 6.49432 4
      vertex 13.8023 7.26643 4
    endloop
  endfacet
  facet normal 0 0 1
    outer loop
      vertex 13.8023 7.26643 4
      vertex 12.589 5.765 4
      vertex 13.7844 5.23332 4
    endloop
  endfacet
  facet normal 0 0 1
    outer loop
      vertex 13.8023 7.26643 4
      vertex 13.7844 5.23332 4
      vertex 15.1303 6.6991 4
    endloop
  endfacet
  facet normal -0 0 1
    outer loop
      vertex 13.7844 5.23332 4
      vertex 15.1188 4.91434 4
      vertex 15.1303 6.6991 4
    endloop
  endfacet
  facet normal -0 0 1
    outer loop
      vertex 15.1188 4.91434 4
      vertex 16.592 4.80801 4
      vertex 16.689 6.50999 4
    endloop
  endfacet
  facet normal 0 0 1
    outer loop
      vertex 34.1631 7.26643 4
      vertex 31.9131 6.49432 4
      vertex 32.9497 5.765 4
    endloop
  endfacet
  facet normal 0 0 1
    outer loop
      vertex 40.6288 7.91533 4
      vertex 40.9217 5.83499 4
      vertex 41.9773 6.6241 4
    endloop
  endfacet
  facet normal 0 -0 1
    outer loop
      vertex 42.8626 7.6221 4
      vertex 43.5777 8.82899 4
      vertex 41.8857 9.672 4
    endloop
  endfacet
  facet normal -0 0 1
    outer loop
      vertex 30.3757 8.50099 4
      vertex 31.0551 7.40633 4
      vertex 32.248 9.46843 4
    endloop
  endfacet
  facet normal 0 0 1
    outer loop
      vertex 32.2217 15.952 4
      vertex 31.4677 18.422 4
      vertex 30.3694 16.8699 4
    endloop
  endfacet
  facet normal 0 0 1
    outer loop
      vertex 33.0067 17.17 4
      vertex 32.9546 19.5698 4
      vertex 31.4677 18.422 4
    endloop
  endfacet
  facet normal 0 -0 1
    outer loop
      vertex 39.7207 5.26443 4
      vertex 40.9217 5.83499 4
      vertex 39.0168 6.86133 4
    endloop
  endfacet
  facet normal -0 0 1
    outer loop
      vertex 39.0168 6.86133 4
      vertex 40.9217 5.83499 4
      vertex 40.6288 7.91533 4
    endloop
  endfacet
  facet normal 0 -0 1
    outer loop
      vertex 38.3977 4.92212 4
      vertex 39.0168 6.86133 4
      vertex 37.0497 6.50999 4
    endloop
  endfacet
  facet normal 0 0 1
    outer loop
      vertex 36.9527 4.80801 4
      vertex 38.3977 4.92212 4
      vertex 37.0497 6.50999 4
    endloop
  endfacet
  facet normal 0 0 1
    outer loop
      vertex 33.0657 8.21199 4
      vertex 32.248 9.46843 4
      vertex 31.0551 7.40633 4
    endloop
  endfacet
  facet normal 0 0 1
    outer loop
      vertex 35.4795 4.91434 4
      vertex 37.0497 6.50999 4
      vertex 35.4911 6.6991 4
    endloop
  endfacet
  facet normal 0 0 1
    outer loop
      vertex 31.7573 10.9684 4
      vertex 29.8841 9.75966 4
      vertex 32.248 9.46843 4
    endloop
  endfacet
  facet normal 0 0 1
    outer loop
      vertex 31.5937 12.712 4
      vertex 29.5891 11.1637 4
      vertex 31.7573 10.9684 4
    endloop
  endfacet
  facet normal 0 0 1
    outer loop
      vertex 31.7507 14.466 4
      vertex 29.4907 12.713 4
      vertex 31.5937 12.712 4
    endloop
  endfacet
  facet normal 0 0 1
    outer loop
      vertex 32.2217 15.952 4
      vertex 29.7104 14.9669 4
      vertex 31.7507 14.466 4
    endloop
  endfacet
  facet normal 0 0 1
    outer loop
      vertex 32.9546 19.5698 4
      vertex 33.0067 17.17 4
      vertex 34.0743 18.0733 4
    endloop
  endfacet
  facet normal 0 0 1
    outer loop
      vertex 34.7793 20.2584 4
      vertex 34.0743 18.0733 4
      vertex 35.393 18.6153 4
    endloop
  endfacet
  facet normal 0 0 1
    outer loop
      vertex 36.9417 20.488 4
      vertex 35.393 18.6153 4
      vertex 36.9627 18.796 4
    endloop
  endfacet
  facet normal 0 0 1
    outer loop
      vertex 38.4817 20.3824 4
      vertex 36.9417 20.488 4
      vertex 37.9937 18.7182 4
    endloop
  endfacet
  facet normal 0 0 1
    outer loop
      vertex 38.4817 20.3824 4
      vertex 37.9937 18.7182 4
      vertex 38.9267 18.4849 4
    endloop
  endfacet
  facet normal 0 0 1
    outer loop
      vertex 39.8431 20.0658 4
      vertex 38.9267 18.4849 4
      vertex 39.7617 18.096 4
    endloop
  endfacet
  facet normal 0 0 1
    outer loop
      vertex 38.4817 20.3824 4
      vertex 38.9267 18.4849 4
      vertex 39.8431 20.0658 4
    endloop
  endfacet
  facet normal -0 0 1
    outer loop
      vertex 39.7617 18.096 4
      vertex 40.476 17.56 4
      vertex 41.0257 19.538 4
    endloop
  endfacet
  facet normal -0 0 1
    outer loop
      vertex 40.476 17.56 4
      vertex 41.0466 16.8853 4
      vertex 42.0225 18.8027 4
    endloop
  endfacet
  facet normal 0 0 1
    outer loop
      vertex 41.0466 16.8853 4
      vertex 42.8262 17.8633 4
      vertex 42.0225 18.8027 4
    endloop
  endfacet
  facet normal 0 -0 1
    outer loop
      vertex 41.4737 16.072 4
      vertex 42.8262 17.8633 4
      vertex 41.0466 16.8853 4
    endloop
  endfacet
  facet normal 0 0 1
    outer loop
      vertex 43.4367 16.72 4
      vertex 42.8262 17.8633 4
      vertex 41.4737 16.072 4
    endloop
  endfacet
  facet normal 0 0 1
    outer loop
      vertex 40.476 17.56 4
      vertex 42.0225 18.8027 4
      vertex 41.0257 19.538 4
    endloop
  endfacet
  facet normal 0 0 1
    outer loop
      vertex 39.7617 18.096 4
      vertex 41.0257 19.538 4
      vertex 39.8431 20.0658 4
    endloop
  endfacet
  facet normal 0 0 1
    outer loop
      vertex 33.0067 17.17 4
      vertex 31.4677 18.422 4
      vertex 32.2217 15.952 4
    endloop
  endfacet
  facet normal 0 0 1
    outer loop
      vertex 32.2217 15.952 4
      vertex 30.3694 16.8699 4
      vertex 29.7104 14.9669 4
    endloop
  endfacet
  facet normal 0 0 1
    outer loop
      vertex 31.7507 14.466 4
      vertex 29.7104 14.9669 4
      vertex 29.4907 12.713 4
    endloop
  endfacet
  facet normal 0 -0 1
    outer loop
      vertex 29.5891 11.1637 4
      vertex 31.5937 12.712 4
      vertex 29.4907 12.713 4
    endloop
  endfacet
  facet normal 0 -0 1
    outer loop
      vertex 29.8841 9.75966 4
      vertex 31.7573 10.9684 4
      vertex 29.5891 11.1637 4
    endloop
  endfacet
  facet normal 0 -0 1
    outer loop
      vertex 30.3757 8.50099 4
      vertex 32.248 9.46843 4
      vertex 29.8841 9.75966 4
    endloop
  endfacet
  facet normal 0 0 1
    outer loop
      vertex 34.1631 7.26643 4
      vertex 33.0657 8.21199 4
      vertex 31.9131 6.49432 4
    endloop
  endfacet
  facet normal -0 0 1
    outer loop
      vertex 34.1452 5.23332 4
      vertex 35.4795 4.91434 4
      vertex 35.4911 6.6991 4
    endloop
  endfacet
  facet normal 0.250493 -0.968118 0
    outer loop
      vertex 19.36 5.26443 2
      vertex 18.037 4.92212 4
      vertex 18.037 4.92212 2
    endloop
  endfacet
  facet normal 0.250493 -0.968118 0
    outer loop
      vertex 19.36 5.26443 2
      vertex 19.36 5.26443 4
      vertex 18.037 4.92212 4
    endloop
  endfacet
  facet normal 0.429106 -0.903254 0
    outer loop
      vertex 20.561 5.83499 2
      vertex 19.36 5.26443 4
      vertex 19.36 5.26443 2
    endloop
  endfacet
  facet normal 0.429106 -0.903254 0
    outer loop
      vertex 20.561 5.83499 2
      vertex 20.561 5.83499 4
      vertex 19.36 5.26443 4
    endloop
  endfacet
  facet normal 0.598756 -0.800931 0
    outer loop
      vertex 21.6165 6.6241 2
      vertex 20.561 5.83499 4
      vertex 20.561 5.83499 2
    endloop
  endfacet
  facet normal 0.598756 -0.800931 0
    outer loop
      vertex 21.6165 6.6241 2
      vertex 21.6165 6.6241 4
      vertex 20.561 5.83499 4
    endloop
  endfacet
  facet normal 0.748072 -0.663617 0
    outer loop
      vertex 22.5019 7.6221 2
      vertex 21.6165 6.6241 4
      vertex 21.6165 6.6241 2
    endloop
  endfacet
  facet normal 0.748072 -0.663617 0
    outer loop
      vertex 22.5019 7.6221 2
      vertex 22.5019 7.6221 4
      vertex 21.6165 6.6241 4
    endloop
  endfacet
  facet normal 0.860316 -0.509761 0
    outer loop
      vertex 23.217 8.82899 2
      vertex 22.5019 7.6221 4
      vertex 22.5019 7.6221 2
    endloop
  endfacet
  facet normal 0.860316 -0.509761 0
    outer loop
      vertex 23.217 8.82899 2
      vertex 23.217 8.82899 4
      vertex 22.5019 7.6221 4
    endloop
  endfacet
  facet normal 0.445944 0.895061 0
    outer loop
      vertex 21.525 9.672 2
      vertex 23.217 8.82899 4
      vertex 23.217 8.82899 2
    endloop
  endfacet
  facet normal 0.445944 0.895061 -0
    outer loop
      vertex 21.525 9.672 2
      vertex 21.525 9.672 4
      vertex 23.217 8.82899 4
    endloop
  endfacet
  facet normal -0.813266 0.581892 0
    outer loop
      vertex 20.2681 7.91533 2
      vertex 21.525 9.672 4
      vertex 21.525 9.672 2
    endloop
  endfacet
  facet normal -0.813266 0.581892 0
    outer loop
      vertex 20.2681 7.91533 2
      vertex 20.2681 7.91533 4
      vertex 21.525 9.672 4
    endloop
  endfacet
  facet normal -0.54725 0.836969 0
    outer loop
      vertex 18.6561 6.86133 2
      vertex 20.2681 7.91533 4
      vertex 20.2681 7.91533 2
    endloop
  endfacet
  facet normal -0.54725 0.836969 0
    outer loop
      vertex 18.6561 6.86133 2
      vertex 18.6561 6.86133 4
      vertex 20.2681 7.91533 4
    endloop
  endfacet
  facet normal -0.175822 0.984422 0
    outer loop
      vertex 16.689 6.50999 2
      vertex 18.6561 6.86133 4
      vertex 18.6561 6.86133 2
    endloop
  endfacet
  facet normal -0.175822 0.984422 0
    outer loop
      vertex 16.689 6.50999 2
      vertex 16.689 6.50999 4
      vertex 18.6561 6.86133 4
    endloop
  endfacet
  facet normal 0.12044 0.992721 0
    outer loop
      vertex 15.1303 6.6991 2
      vertex 16.689 6.50999 4
      vertex 16.689 6.50999 2
    endloop
  endfacet
  facet normal 0.12044 0.992721 -0
    outer loop
      vertex 15.1303 6.6991 2
      vertex 15.1303 6.6991 4
      vertex 16.689 6.50999 4
    endloop
  endfacet
  facet normal 0.392862 0.919597 0
    outer loop
      vertex 13.8023 7.26643 2
      vertex 15.1303 6.6991 4
      vertex 15.1303 6.6991 2
    endloop
  endfacet
  facet normal 0.392862 0.919597 -0
    outer loop
      vertex 13.8023 7.26643 2
      vertex 13.8023 7.26643 4
      vertex 15.1303 6.6991 4
    endloop
  endfacet
  facet normal 0.652772 0.757554 0
    outer loop
      vertex 12.705 8.21199 2
      vertex 13.8023 7.26643 4
      vertex 13.8023 7.26643 2
    endloop
  endfacet
  facet normal 0.652772 0.757554 -0
    outer loop
      vertex 12.705 8.21199 2
      vertex 12.705 8.21199 4
      vertex 13.8023 7.26643 4
    endloop
  endfacet
  facet normal 0.83811 0.545501 0
    outer loop
      vertex 11.8872 9.46843 2
      vertex 12.705 8.21199 4
      vertex 12.705 8.21199 2
    endloop
  endfacet
  facet normal 0.83811 0.545501 -0
    outer loop
      vertex 11.8872 9.46843 2
      vertex 11.8872 9.46843 4
      vertex 12.705 8.21199 4
    endloop
  endfacet
  facet normal 0.950443 0.310897 0
    outer loop
      vertex 11.3965 10.9684 2
      vertex 11.8872 9.46843 4
      vertex 11.8872 9.46843 2
    endloop
  endfacet
  facet normal 0.950443 0.310897 -0
    outer loop
      vertex 11.3965 10.9684 2
      vertex 11.3965 10.9684 4
      vertex 11.8872 9.46843 4
    endloop
  endfacet
  facet normal 0.995629 0.0933974 0
    outer loop
      vertex 11.233 12.712 2
      vertex 11.3965 10.9684 4
      vertex 11.3965 10.9684 2
    endloop
  endfacet
  facet normal 0.995629 0.0933974 -0
    outer loop
      vertex 11.233 12.712 2
      vertex 11.233 12.712 4
      vertex 11.3965 10.9684 4
    endloop
  endfacet
  facet normal 0.996017 -0.0891607 0
    outer loop
      vertex 11.39 14.466 2
      vertex 11.233 12.712 4
      vertex 11.233 12.712 2
    endloop
  endfacet
  facet normal 0.996017 -0.0891607 0
    outer loop
      vertex 11.39 14.466 2
      vertex 11.39 14.466 4
      vertex 11.233 12.712 4
    endloop
  endfacet
  facet normal 0.953264 -0.302139 0
    outer loop
      vertex 11.861 15.952 2
      vertex 11.39 14.466 4
      vertex 11.39 14.466 2
    endloop
  endfacet
  facet normal 0.953264 -0.302139 0
    outer loop
      vertex 11.861 15.952 2
      vertex 11.861 15.952 4
      vertex 11.39 14.466 4
    endloop
  endfacet
  facet normal 0.840549 -0.541735 0
    outer loop
      vertex 12.646 17.17 2
      vertex 11.861 15.952 4
      vertex 11.861 15.952 2
    endloop
  endfacet
  facet normal 0.840549 -0.541735 0
    outer loop
      vertex 12.646 17.17 2
      vertex 12.646 17.17 4
      vertex 11.861 15.952 4
    endloop
  endfacet
  facet normal 0.645946 -0.763383 0
    outer loop
      vertex 13.7135 18.0733 2
      vertex 12.646 17.17 4
      vertex 12.646 17.17 2
    endloop
  endfacet
  facet normal 0.645946 -0.763383 0
    outer loop
      vertex 13.7135 18.0733 2
      vertex 13.7135 18.0733 4
      vertex 12.646 17.17 4
    endloop
  endfacet
  facet normal 0.380167 -0.924918 0
    outer loop
      vertex 15.0322 18.6153 2
      vertex 13.7135 18.0733 4
      vertex 13.7135 18.0733 2
    endloop
  endfacet
  facet normal 0.380167 -0.924918 0
    outer loop
      vertex 15.0322 18.6153 2
      vertex 15.0322 18.6153 4
      vertex 13.7135 18.0733 4
    endloop
  endfacet
  facet normal 0.114334 -0.993442 0
    outer loop
      vertex 16.602 18.796 2
      vertex 15.0322 18.6153 4
      vertex 15.0322 18.6153 2
    endloop
  endfacet
  facet normal 0.114334 -0.993442 0
    outer loop
      vertex 16.602 18.796 2
      vertex 16.602 18.796 4
      vertex 15.0322 18.6153 4
    endloop
  endfacet
  facet normal -0.0752214 -0.997167 0
    outer loop
      vertex 17.633 18.7182 2
      vertex 16.602 18.796 4
      vertex 16.602 18.796 2
    endloop
  endfacet
  facet normal -0.0752214 -0.997167 0
    outer loop
      vertex 17.633 18.7182 2
      vertex 17.633 18.7182 4
      vertex 16.602 18.796 4
    endloop
  endfacet
  facet normal -0.242621 -0.970121 0
    outer loop
      vertex 18.566 18.4849 2
      vertex 17.633 18.7182 4
      vertex 17.633 18.7182 2
    endloop
  endfacet
  facet normal -0.242621 -0.970121 0
    outer loop
      vertex 18.566 18.4849 2
      vertex 18.566 18.4849 4
      vertex 17.633 18.7182 4
    endloop
  endfacet
  facet normal -0.422192 -0.906506 0
    outer loop
      vertex 19.401 18.096 2
      vertex 18.566 18.4849 4
      vertex 18.566 18.4849 2
    endloop
  endfacet
  facet normal -0.422192 -0.906506 0
    outer loop
      vertex 19.401 18.096 2
      vertex 19.401 18.096 4
      vertex 18.566 18.4849 4
    endloop
  endfacet
  facet normal -0.60023 -0.799828 0
    outer loop
      vertex 20.1152 17.56 2
      vertex 19.401 18.096 4
      vertex 19.401 18.096 2
    endloop
  endfacet
  facet normal -0.60023 -0.799828 0
    outer loop
      vertex 20.1152 17.56 2
      vertex 20.1152 17.56 4
      vertex 19.401 18.096 4
    endloop
  endfacet
  facet normal -0.763503 -0.645804 0
    outer loop
      vertex 20.6859 16.8853 2
      vertex 20.1152 17.56 4
      vertex 20.1152 17.56 2
    endloop
  endfacet
  facet normal -0.763503 -0.645804 0
    outer loop
      vertex 20.6859 16.8853 2
      vertex 20.6859 16.8853 4
      vertex 20.1152 17.56 4
    endloop
  endfacet
  facet normal -0.885351 -0.464924 0
    outer loop
      vertex 21.113 16.072 2
      vertex 20.6859 16.8853 4
      vertex 20.6859 16.8853 2
    endloop
  endfacet
  facet normal -0.885351 -0.464924 0
    outer loop
      vertex 21.113 16.072 2
      vertex 21.113 16.072 4
      vertex 20.6859 16.8853 4
    endloop
  endfacet
  facet normal 0.313467 -0.949599 0
    outer loop
      vertex 23.076 16.72 2
      vertex 21.113 16.072 4
      vertex 21.113 16.072 2
    endloop
  endfacet
  facet normal 0.313467 -0.949599 0
    outer loop
      vertex 23.076 16.72 2
      vertex 23.076 16.72 4
      vertex 21.113 16.072 4
    endloop
  endfacet
  facet normal 0.882107 0.471049 0
    outer loop
      vertex 22.4654 17.8633 2
      vertex 23.076 16.72 4
      vertex 23.076 16.72 2
    endloop
  endfacet
  facet normal 0.882107 0.471049 -0
    outer loop
      vertex 22.4654 17.8633 2
      vertex 22.4654 17.8633 4
      vertex 23.076 16.72 4
    endloop
  endfacet
  facet normal 0.759846 0.650103 0
    outer loop
      vertex 21.6618 18.8027 2
      vertex 22.4654 17.8633 4
      vertex 22.4654 17.8633 2
    endloop
  endfacet
  facet normal 0.759846 0.650103 -0
    outer loop
      vertex 21.6618 18.8027 2
      vertex 21.6618 18.8027 4
      vertex 22.4654 17.8633 4
    endloop
  endfacet
  facet normal 0.593652 0.804722 0
    outer loop
      vertex 20.665 19.538 2
      vertex 21.6618 18.8027 4
      vertex 21.6618 18.8027 2
    endloop
  endfacet
  facet normal 0.593652 0.804722 -0
    outer loop
      vertex 20.665 19.538 2
      vertex 20.665 19.538 4
      vertex 21.6618 18.8027 4
    endloop
  endfacet
  facet normal 0.40752 0.913196 0
    outer loop
      vertex 19.4823 20.0658 2
      vertex 20.665 19.538 4
      vertex 20.665 19.538 2
    endloop
  endfacet
  facet normal 0.40752 0.913196 -0
    outer loop
      vertex 19.4823 20.0658 2
      vertex 19.4823 20.0658 4
      vertex 20.665 19.538 4
    endloop
  endfacet
  facet normal 0.226564 0.973996 0
    outer loop
      vertex 18.121 20.3824 2
      vertex 19.4823 20.0658 4
      vertex 19.4823 20.0658 2
    endloop
  endfacet
  facet normal 0.226564 0.973996 -0
    outer loop
      vertex 18.121 20.3824 2
      vertex 18.121 20.3824 4
      vertex 19.4823 20.0658 4
    endloop
  endfacet
  facet normal 0.0683855 0.997659 0
    outer loop
      vertex 16.581 20.488 2
      vertex 18.121 20.3824 4
      vertex 18.121 20.3824 2
    endloop
  endfacet
  facet normal 0.0683855 0.997659 -0
    outer loop
      vertex 16.581 20.488 2
      vertex 16.581 20.488 4
      vertex 18.121 20.3824 4
    endloop
  endfacet
  facet normal -0.105561 0.994413 0
    outer loop
      vertex 14.4185 20.2584 2
      vertex 16.581 20.488 4
      vertex 16.581 20.488 2
    endloop
  endfacet
  facet normal -0.105561 0.994413 0
    outer loop
      vertex 14.4185 20.2584 2
      vertex 14.4185 20.2584 4
      vertex 16.581 20.488 4
    endloop
  endfacet
  facet normal -0.353113 0.935581 0
    outer loop
      vertex 12.5939 19.5698 2
      vertex 14.4185 20.2584 4
      vertex 14.4185 20.2584 2
    endloop
  endfacet
  facet normal -0.353113 0.935581 0
    outer loop
      vertex 12.5939 19.5698 2
      vertex 12.5939 19.5698 4
      vertex 14.4185 20.2584 4
    endloop
  endfacet
  facet normal -0.611049 0.791593 0
    outer loop
      vertex 11.107 18.422 2
      vertex 12.5939 19.5698 4
      vertex 12.5939 19.5698 2
    endloop
  endfacet
  facet normal -0.611049 0.791593 0
    outer loop
      vertex 11.107 18.422 2
      vertex 11.107 18.422 4
      vertex 12.5939 19.5698 4
    endloop
  endfacet
  facet normal -0.816289 0.577643 0
    outer loop
      vertex 10.0087 16.8699 2
      vertex 11.107 18.422 4
      vertex 11.107 18.422 2
    endloop
  endfacet
  facet normal -0.816289 0.577643 0
    outer loop
      vertex 10.0087 16.8699 2
      vertex 10.0087 16.8699 4
      vertex 11.107 18.422 4
    endloop
  endfacet
  facet normal -0.944945 0.327228 0
    outer loop
      vertex 9.34966 14.9669 2
      vertex 10.0087 16.8699 4
      vertex 10.0087 16.8699 2
    endloop
  endfacet
  facet normal -0.944945 0.327228 0
    outer loop
      vertex 9.34966 14.9669 2
      vertex 9.34966 14.9669 4
      vertex 10.0087 16.8699 4
    endloop
  endfacet
  facet normal -0.995284 0.097001 0
    outer loop
      vertex 9.12999 12.713 2
      vertex 9.34966 14.9669 4
      vertex 9.34966 14.9669 2
    endloop
  endfacet
  facet normal -0.995284 0.097001 0
    outer loop
      vertex 9.12999 12.713 2
      vertex 9.12999 12.713 4
      vertex 9.34966 14.9669 4
    endloop
  endfacet
  facet normal -0.997992 -0.0633469 0
    outer loop
      vertex 9.22833 11.1637 2
      vertex 9.12999 12.713 4
      vertex 9.12999 12.713 2
    endloop
  endfacet
  facet normal -0.997992 -0.0633469 0
    outer loop
      vertex 9.22833 11.1637 2
      vertex 9.22833 11.1637 4
      vertex 9.12999 12.713 4
    endloop
  endfacet
  facet normal -0.978632 -0.205622 0
    outer loop
      vertex 9.52333 9.75966 2
      vertex 9.22833 11.1637 4
      vertex 9.22833 11.1637 2
    endloop
  endfacet
  facet normal -0.978632 -0.205622 0
    outer loop
      vertex 9.52333 9.75966 2
      vertex 9.52333 9.75966 4
      vertex 9.22833 11.1637 4
    endloop
  endfacet
  facet normal -0.931457 -0.363852 0
    outer loop
      vertex 10.015 8.50099 2
      vertex 9.52333 9.75966 4
      vertex 9.52333 9.75966 2
    endloop
  endfacet
  facet normal -0.931457 -0.363852 0
    outer loop
      vertex 10.015 8.50099 2
      vertex 10.015 8.50099 4
      vertex 9.52333 9.75966 4
    endloop
  endfacet
  facet normal -0.849684 -0.527292 0
    outer loop
      vertex 10.6943 7.40633 2
      vertex 10.015 8.50099 4
      vertex 10.015 8.50099 2
    endloop
  endfacet
  facet normal -0.849684 -0.527292 0
    outer loop
      vertex 10.6943 7.40633 2
      vertex 10.6943 7.40633 4
      vertex 10.015 8.50099 4
    endloop
  endfacet
  facet normal -0.728341 -0.685215 0
    outer loop
      vertex 11.5523 6.49432 2
      vertex 10.6943 7.40633 4
      vertex 10.6943 7.40633 2
    endloop
  endfacet
  facet normal -0.728341 -0.685215 0
    outer loop
      vertex 11.5523 6.49432 2
      vertex 11.5523 6.49432 4
      vertex 10.6943 7.40633 4
    endloop
  endfacet
  facet normal -0.575397 -0.817874 0
    outer loop
      vertex 12.589 5.765 2
      vertex 11.5523 6.49432 4
      vertex 11.5523 6.49432 2
    endloop
  endfacet
  facet normal -0.575397 -0.817874 0
    outer loop
      vertex 12.589 5.765 2
      vertex 12.589 5.765 4
      vertex 11.5523 6.49432 4
    endloop
  endfacet
  facet normal -0.406372 -0.913708 0
    outer loop
      vertex 13.7844 5.23332 2
      vertex 12.589 5.765 4
      vertex 12.589 5.765 2
    endloop
  endfacet
  facet normal -0.406372 -0.913708 0
    outer loop
      vertex 13.7844 5.23332 2
      vertex 13.7844 5.23332 4
      vertex 12.589 5.765 4
    endloop
  endfacet
  facet normal -0.232508 -0.972595 0
    outer loop
      vertex 15.1188 4.91434 2
      vertex 13.7844 5.23332 4
      vertex 13.7844 5.23332 2
    endloop
  endfacet
  facet normal -0.232508 -0.972595 0
    outer loop
      vertex 15.1188 4.91434 2
      vertex 15.1188 4.91434 4
      vertex 13.7844 5.23332 4
    endloop
  endfacet
  facet normal -0.0719834 -0.997406 0
    outer loop
      vertex 16.592 4.80801 2
      vertex 15.1188 4.91434 4
      vertex 15.1188 4.91434 2
    endloop
  endfacet
  facet normal -0.0719834 -0.997406 0
    outer loop
      vertex 16.592 4.80801 2
      vertex 16.592 4.80801 4
      vertex 15.1188 4.91434 4
    endloop
  endfacet
  facet normal 0.0787209 -0.996897 0
    outer loop
      vertex 18.037 4.92212 2
      vertex 16.592 4.80801 4
      vertex 16.592 4.80801 2
    endloop
  endfacet
  facet normal 0.0787209 -0.996897 0
    outer loop
      vertex 18.037 4.92212 2
      vertex 18.037 4.92212 4
      vertex 16.592 4.80801 4
    endloop
  endfacet
  facet normal 0.250493 -0.968118 0
    outer loop
      vertex 39.7207 5.26443 2
      vertex 38.3977 4.92212 4
      vertex 38.3977 4.92212 2
    endloop
  endfacet
  facet normal 0.250493 -0.968118 0
    outer loop
      vertex 39.7207 5.26443 2
      vertex 39.7207 5.26443 4
      vertex 38.3977 4.92212 4
    endloop
  endfacet
  facet normal 0.429106 -0.903254 0
    outer loop
      vertex 40.9217 5.83499 2
      vertex 39.7207 5.26443 4
      vertex 39.7207 5.26443 2
    endloop
  endfacet
  facet normal 0.429106 -0.903254 0
    outer loop
      vertex 40.9217 5.83499 2
      vertex 40.9217 5.83499 4
      vertex 39.7207 5.26443 4
    endloop
  endfacet
  facet normal 0.598756 -0.800931 0
    outer loop
      vertex 41.9773 6.6241 2
      vertex 40.9217 5.83499 4
      vertex 40.9217 5.83499 2
    endloop
  endfacet
  facet normal 0.598756 -0.800931 0
    outer loop
      vertex 41.9773 6.6241 2
      vertex 41.9773 6.6241 4
      vertex 40.9217 5.83499 4
    endloop
  endfacet
  facet normal 0.748072 -0.663617 0
    outer loop
      vertex 42.8626 7.6221 2
      vertex 41.9773 6.6241 4
      vertex 41.9773 6.6241 2
    endloop
  endfacet
  facet normal 0.748072 -0.663617 0
    outer loop
      vertex 42.8626 7.6221 2
      vertex 42.8626 7.6221 4
      vertex 41.9773 6.6241 4
    endloop
  endfacet
  facet normal 0.860321 -0.509753 0
    outer loop
      vertex 43.5777 8.82899 2
      vertex 42.8626 7.6221 4
      vertex 42.8626 7.6221 2
    endloop
  endfacet
  facet normal 0.860321 -0.509753 0
    outer loop
      vertex 43.5777 8.82899 2
      vertex 43.5777 8.82899 4
      vertex 42.8626 7.6221 4
    endloop
  endfacet
  facet normal 0.445947 0.895059 0
    outer loop
      vertex 41.8857 9.672 2
      vertex 43.5777 8.82899 4
      vertex 43.5777 8.82899 2
    endloop
  endfacet
  facet normal 0.445947 0.895059 -0
    outer loop
      vertex 41.8857 9.672 2
      vertex 41.8857 9.672 4
      vertex 43.5777 8.82899 4
    endloop
  endfacet
  facet normal -0.813266 0.581892 0
    outer loop
      vertex 40.6288 7.91533 2
      vertex 41.8857 9.672 4
      vertex 41.8857 9.672 2
    endloop
  endfacet
  facet normal -0.813266 0.581892 0
    outer loop
      vertex 40.6288 7.91533 2
      vertex 40.6288 7.91533 4
      vertex 41.8857 9.672 4
    endloop
  endfacet
  facet normal -0.54725 0.836969 0
    outer loop
      vertex 39.0168 6.86133 2
      vertex 40.6288 7.91533 4
      vertex 40.6288 7.91533 2
    endloop
  endfacet
  facet normal -0.54725 0.836969 0
    outer loop
      vertex 39.0168 6.86133 2
      vertex 39.0168 6.86133 4
      vertex 40.6288 7.91533 4
    endloop
  endfacet
  facet normal -0.175821 0.984422 0
    outer loop
      vertex 37.0497 6.50999 2
      vertex 39.0168 6.86133 4
      vertex 39.0168 6.86133 2
    endloop
  endfacet
  facet normal -0.175821 0.984422 0
    outer loop
      vertex 37.0497 6.50999 2
      vertex 37.0497 6.50999 4
      vertex 39.0168 6.86133 4
    endloop
  endfacet
  facet normal 0.120441 0.992721 0
    outer loop
      vertex 35.4911 6.6991 2
      vertex 37.0497 6.50999 4
      vertex 37.0497 6.50999 2
    endloop
  endfacet
  facet normal 0.120441 0.992721 -0
    outer loop
      vertex 35.4911 6.6991 2
      vertex 35.4911 6.6991 4
      vertex 37.0497 6.50999 4
    endloop
  endfacet
  facet normal 0.392862 0.919597 0
    outer loop
      vertex 34.1631 7.26643 2
      vertex 35.4911 6.6991 4
      vertex 35.4911 6.6991 2
    endloop
  endfacet
  facet normal 0.392862 0.919597 -0
    outer loop
      vertex 34.1631 7.26643 2
      vertex 34.1631 7.26643 4
      vertex 35.4911 6.6991 4
    endloop
  endfacet
  facet normal 0.652772 0.757554 0
    outer loop
      vertex 33.0657 8.21199 2
      vertex 34.1631 7.26643 4
      vertex 34.1631 7.26643 2
    endloop
  endfacet
  facet normal 0.652772 0.757554 -0
    outer loop
      vertex 33.0657 8.21199 2
      vertex 33.0657 8.21199 4
      vertex 34.1631 7.26643 4
    endloop
  endfacet
  facet normal 0.83811 0.545501 0
    outer loop
      vertex 32.248 9.46843 2
      vertex 33.0657 8.21199 4
      vertex 33.0657 8.21199 2
    endloop
  endfacet
  facet normal 0.83811 0.545501 -0
    outer loop
      vertex 32.248 9.46843 2
      vertex 32.248 9.46843 4
      vertex 33.0657 8.21199 4
    endloop
  endfacet
  facet normal 0.950443 0.310897 0
    outer loop
      vertex 31.7573 10.9684 2
      vertex 32.248 9.46843 4
      vertex 32.248 9.46843 2
    endloop
  endfacet
  facet normal 0.950443 0.310897 -0
    outer loop
      vertex 31.7573 10.9684 2
      vertex 31.7573 10.9684 4
      vertex 32.248 9.46843 4
    endloop
  endfacet
  facet normal 0.995629 0.0933974 0
    outer loop
      vertex 31.5937 12.712 2
      vertex 31.7573 10.9684 4
      vertex 31.7573 10.9684 2
    endloop
  endfacet
  facet normal 0.995629 0.0933974 -0
    outer loop
      vertex 31.5937 12.712 2
      vertex 31.5937 12.712 4
      vertex 31.7573 10.9684 4
    endloop
  endfacet
  facet normal 0.996018 -0.0891521 0
    outer loop
      vertex 31.7507 14.466 2
      vertex 31.5937 12.712 4
      vertex 31.5937 12.712 2
    endloop
  endfacet
  facet normal 0.996018 -0.0891521 0
    outer loop
      vertex 31.7507 14.466 2
      vertex 31.7507 14.466 4
      vertex 31.5937 12.712 4
    endloop
  endfacet
  facet normal 0.953261 -0.302148 0
    outer loop
      vertex 32.2217 15.952 2
      vertex 31.7507 14.466 4
      vertex 31.7507 14.466 2
    endloop
  endfacet
  facet normal 0.953261 -0.302148 0
    outer loop
      vertex 32.2217 15.952 2
      vertex 32.2217 15.952 4
      vertex 31.7507 14.466 4
    endloop
  endfacet
  facet normal 0.840554 -0.541727 0
    outer loop
      vertex 33.0067 17.17 2
      vertex 32.2217 15.952 4
      vertex 32.2217 15.952 2
    endloop
  endfacet
  facet normal 0.840554 -0.541727 0
    outer loop
      vertex 33.0067 17.17 2
      vertex 33.0067 17.17 4
      vertex 32.2217 15.952 4
    endloop
  endfacet
  facet normal 0.64594 -0.763388 0
    outer loop
      vertex 34.0743 18.0733 2
      vertex 33.0067 17.17 4
      vertex 33.0067 17.17 2
    endloop
  endfacet
  facet normal 0.64594 -0.763388 0
    outer loop
      vertex 34.0743 18.0733 2
      vertex 34.0743 18.0733 4
      vertex 33.0067 17.17 4
    endloop
  endfacet
  facet normal 0.380167 -0.924918 0
    outer loop
      vertex 35.393 18.6153 2
      vertex 34.0743 18.0733 4
      vertex 34.0743 18.0733 2
    endloop
  endfacet
  facet normal 0.380167 -0.924918 0
    outer loop
      vertex 35.393 18.6153 2
      vertex 35.393 18.6153 4
      vertex 34.0743 18.0733 4
    endloop
  endfacet
  facet normal 0.114334 -0.993442 0
    outer loop
      vertex 36.9627 18.796 2
      vertex 35.393 18.6153 4
      vertex 35.393 18.6153 2
    endloop
  endfacet
  facet normal 0.114334 -0.993442 0
    outer loop
      vertex 36.9627 18.796 2
      vertex 36.9627 18.796 4
      vertex 35.393 18.6153 4
    endloop
  endfacet
  facet normal -0.0752225 -0.997167 0
    outer loop
      vertex 37.9937 18.7182 2
      vertex 36.9627 18.796 4
      vertex 36.9627 18.796 2
    endloop
  endfacet
  facet normal -0.0752225 -0.997167 0
    outer loop
      vertex 37.9937 18.7182 2
      vertex 37.9937 18.7182 4
      vertex 36.9627 18.796 4
    endloop
  endfacet
  facet normal -0.242621 -0.970121 0
    outer loop
      vertex 38.9267 18.4849 2
      vertex 37.9937 18.7182 4
      vertex 37.9937 18.7182 2
    endloop
  endfacet
  facet normal -0.242621 -0.970121 0
    outer loop
      vertex 38.9267 18.4849 2
      vertex 38.9267 18.4849 4
      vertex 37.9937 18.7182 4
    endloop
  endfacet
  facet normal -0.422186 -0.906509 0
    outer loop
      vertex 39.7617 18.096 2
      vertex 38.9267 18.4849 4
      vertex 38.9267 18.4849 2
    endloop
  endfacet
  facet normal -0.422186 -0.906509 0
    outer loop
      vertex 39.7617 18.096 2
      vertex 39.7617 18.096 4
      vertex 38.9267 18.4849 4
    endloop
  endfacet
  facet normal -0.600238 -0.799822 0
    outer loop
      vertex 40.476 17.56 2
      vertex 39.7617 18.096 4
      vertex 39.7617 18.096 2
    endloop
  endfacet
  facet normal -0.600238 -0.799822 0
    outer loop
      vertex 40.476 17.56 2
      vertex 40.476 17.56 4
      vertex 39.7617 18.096 4
    endloop
  endfacet
  facet normal -0.763494 -0.645815 0
    outer loop
      vertex 41.0466 16.8853 2
      vertex 40.476 17.56 4
      vertex 40.476 17.56 2
    endloop
  endfacet
  facet normal -0.763494 -0.645815 0
    outer loop
      vertex 41.0466 16.8853 2
      vertex 41.0466 16.8853 4
      vertex 40.476 17.56 4
    endloop
  endfacet
  facet normal -0.885351 -0.464924 0
    outer loop
      vertex 41.4737 16.072 2
      vertex 41.0466 16.8853 4
      vertex 41.0466 16.8853 2
    endloop
  endfacet
  facet normal -0.885351 -0.464924 0
    outer loop
      vertex 41.4737 16.072 2
      vertex 41.4737 16.072 4
      vertex 41.0466 16.8853 4
    endloop
  endfacet
  facet normal 0.313467 -0.949599 0
    outer loop
      vertex 43.4367 16.72 2
      vertex 41.4737 16.072 4
      vertex 41.4737 16.072 2
    endloop
  endfacet
  facet normal 0.313467 -0.949599 0
    outer loop
      vertex 43.4367 16.72 2
      vertex 43.4367 16.72 4
      vertex 41.4737 16.072 4
    endloop
  endfacet
  facet normal 0.882102 0.471059 0
    outer loop
      vertex 42.8262 17.8633 2
      vertex 43.4367 16.72 4
      vertex 43.4367 16.72 2
    endloop
  endfacet
  facet normal 0.882102 0.471059 -0
    outer loop
      vertex 42.8262 17.8633 2
      vertex 42.8262 17.8633 4
      vertex 43.4367 16.72 4
    endloop
  endfacet
  facet normal 0.759846 0.650103 0
    outer loop
      vertex 42.0225 18.8027 2
      vertex 42.8262 17.8633 4
      vertex 42.8262 17.8633 2
    endloop
  endfacet
  facet normal 0.759846 0.650103 -0
    outer loop
      vertex 42.0225 18.8027 2
      vertex 42.0225 18.8027 4
      vertex 42.8262 17.8633 4
    endloop
  endfacet
  facet normal 0.593658 0.804717 0
    outer loop
      vertex 41.0257 19.538 2
      vertex 42.0225 18.8027 4
      vertex 42.0225 18.8027 2
    endloop
  endfacet
  facet normal 0.593658 0.804717 -0
    outer loop
      vertex 41.0257 19.538 2
      vertex 41.0257 19.538 4
      vertex 42.0225 18.8027 4
    endloop
  endfacet
  facet normal 0.407515 0.913198 0
    outer loop
      vertex 39.8431 20.0658 2
      vertex 41.0257 19.538 4
      vertex 41.0257 19.538 2
    endloop
  endfacet
  facet normal 0.407515 0.913198 -0
    outer loop
      vertex 39.8431 20.0658 2
      vertex 39.8431 20.0658 4
      vertex 41.0257 19.538 4
    endloop
  endfacet
  facet normal 0.226566 0.973996 0
    outer loop
      vertex 38.4817 20.3824 2
      vertex 39.8431 20.0658 4
      vertex 39.8431 20.0658 2
    endloop
  endfacet
  facet normal 0.226566 0.973996 -0
    outer loop
      vertex 38.4817 20.3824 2
      vertex 38.4817 20.3824 4
      vertex 39.8431 20.0658 4
    endloop
  endfacet
  facet normal 0.0683855 0.997659 0
    outer loop
      vertex 36.9417 20.488 2
      vertex 38.4817 20.3824 4
      vertex 38.4817 20.3824 2
    endloop
  endfacet
  facet normal 0.0683855 0.997659 -0
    outer loop
      vertex 36.9417 20.488 2
      vertex 36.9417 20.488 4
      vertex 38.4817 20.3824 4
    endloop
  endfacet
  facet normal -0.105561 0.994413 0
    outer loop
      vertex 34.7793 20.2584 2
      vertex 36.9417 20.488 4
      vertex 36.9417 20.488 2
    endloop
  endfacet
  facet normal -0.105561 0.994413 0
    outer loop
      vertex 34.7793 20.2584 2
      vertex 34.7793 20.2584 4
      vertex 36.9417 20.488 4
    endloop
  endfacet
  facet normal -0.35311 0.935582 0
    outer loop
      vertex 32.9546 19.5698 2
      vertex 34.7793 20.2584 4
      vertex 34.7793 20.2584 2
    endloop
  endfacet
  facet normal -0.35311 0.935582 0
    outer loop
      vertex 32.9546 19.5698 2
      vertex 32.9546 19.5698 4
      vertex 34.7793 20.2584 4
    endloop
  endfacet
  facet normal -0.611049 0.791593 0
    outer loop
      vertex 31.4677 18.422 2
      vertex 32.9546 19.5698 4
      vertex 32.9546 19.5698 2
    endloop
  endfacet
  facet normal -0.611049 0.791593 0
    outer loop
      vertex 31.4677 18.422 2
      vertex 31.4677 18.422 4
      vertex 32.9546 19.5698 4
    endloop
  endfacet
  facet normal -0.816293 0.577638 0
    outer loop
      vertex 30.3694 16.8699 2
      vertex 31.4677 18.422 4
      vertex 31.4677 18.422 2
    endloop
  endfacet
  facet normal -0.816293 0.577638 0
    outer loop
      vertex 30.3694 16.8699 2
      vertex 30.3694 16.8699 4
      vertex 31.4677 18.422 4
    endloop
  endfacet
  facet normal -0.944945 0.327228 0
    outer loop
      vertex 29.7104 14.9669 2
      vertex 30.3694 16.8699 4
      vertex 30.3694 16.8699 2
    endloop
  endfacet
  facet normal -0.944945 0.327228 0
    outer loop
      vertex 29.7104 14.9669 2
      vertex 29.7104 14.9669 4
      vertex 30.3694 16.8699 4
    endloop
  endfacet
  facet normal -0.995284 0.097001 0
    outer loop
      vertex 29.4907 12.713 2
      vertex 29.7104 14.9669 4
      vertex 29.7104 14.9669 2
    endloop
  endfacet
  facet normal -0.995284 0.097001 0
    outer loop
      vertex 29.4907 12.713 2
      vertex 29.4907 12.713 4
      vertex 29.7104 14.9669 4
    endloop
  endfacet
  facet normal -0.997992 -0.0633371 0
    outer loop
      vertex 29.5891 11.1637 2
      vertex 29.4907 12.713 4
      vertex 29.4907 12.713 2
    endloop
  endfacet
  facet normal -0.997992 -0.0633371 0
    outer loop
      vertex 29.5891 11.1637 2
      vertex 29.5891 11.1637 4
      vertex 29.4907 12.713 4
    endloop
  endfacet
  facet normal -0.978632 -0.205622 0
    outer loop
      vertex 29.8841 9.75966 2
      vertex 29.5891 11.1637 4
      vertex 29.5891 11.1637 2
    endloop
  endfacet
  facet normal -0.978632 -0.205622 0
    outer loop
      vertex 29.8841 9.75966 2
      vertex 29.8841 9.75966 4
      vertex 29.5891 11.1637 4
    endloop
  endfacet
  facet normal -0.931457 -0.363852 0
    outer loop
      vertex 30.3757 8.50099 2
      vertex 29.8841 9.75966 4
      vertex 29.8841 9.75966 2
    endloop
  endfacet
  facet normal -0.931457 -0.363852 0
    outer loop
      vertex 30.3757 8.50099 2
      vertex 30.3757 8.50099 4
      vertex 29.8841 9.75966 4
    endloop
  endfacet
  facet normal -0.849679 -0.527301 0
    outer loop
      vertex 31.0551 7.40633 2
      vertex 30.3757 8.50099 4
      vertex 30.3757 8.50099 2
    endloop
  endfacet
  facet normal -0.849679 -0.527301 0
    outer loop
      vertex 31.0551 7.40633 2
      vertex 31.0551 7.40633 4
      vertex 30.3757 8.50099 4
    endloop
  endfacet
  facet normal -0.728341 -0.685215 0
    outer loop
      vertex 31.9131 6.49432 2
      vertex 31.0551 7.40633 4
      vertex 31.0551 7.40633 2
    endloop
  endfacet
  facet normal -0.728341 -0.685215 0
    outer loop
      vertex 31.9131 6.49432 2
      vertex 31.9131 6.49432 4
      vertex 31.0551 7.40633 4
    endloop
  endfacet
  facet normal -0.575397 -0.817874 0
    outer loop
      vertex 32.9497 5.765 2
      vertex 31.9131 6.49432 4
      vertex 31.9131 6.49432 2
    endloop
  endfacet
  facet normal -0.575397 -0.817874 0
    outer loop
      vertex 32.9497 5.765 2
      vertex 32.9497 5.765 4
      vertex 31.9131 6.49432 4
    endloop
  endfacet
  facet normal -0.406377 -0.913706 0
    outer loop
      vertex 34.1452 5.23332 2
      vertex 32.9497 5.765 4
      vertex 32.9497 5.765 2
    endloop
  endfacet
  facet normal -0.406377 -0.913706 0
    outer loop
      vertex 34.1452 5.23332 2
      vertex 34.1452 5.23332 4
      vertex 32.9497 5.765 4
    endloop
  endfacet
  facet normal -0.232508 -0.972595 0
    outer loop
      vertex 35.4795 4.91434 2
      vertex 34.1452 5.23332 4
      vertex 34.1452 5.23332 2
    endloop
  endfacet
  facet normal -0.232508 -0.972595 0
    outer loop
      vertex 35.4795 4.91434 2
      vertex 35.4795 4.91434 4
      vertex 34.1452 5.23332 4
    endloop
  endfacet
  facet normal -0.0719834 -0.997406 0
    outer loop
      vertex 36.9527 4.80801 2
      vertex 35.4795 4.91434 4
      vertex 35.4795 4.91434 2
    endloop
  endfacet
  facet normal -0.0719834 -0.997406 0
    outer loop
      vertex 36.9527 4.80801 2
      vertex 36.9527 4.80801 4
      vertex 35.4795 4.91434 4
    endloop
  endfacet
  facet normal 0.0787201 -0.996897 0
    outer loop
      vertex 38.3977 4.92212 2
      vertex 36.9527 4.80801 4
      vertex 36.9527 4.80801 2
    endloop
  endfacet
  facet normal 0.0787201 -0.996897 0
    outer loop
      vertex 38.3977 4.92212 2
      vertex 38.3977 4.92212 4
      vertex 36.9527 4.80801 4
    endloop
  endfacet
endsolid OpenSCAD_Model
