solid OpenSCAD_Model
  facet normal 0 0 -1
    outer loop
      vertex 22.5019 7.6221 2
      vertex 20.2681 7.91533 2
      vertex 21.525 9.672 2
    endloop
  endfacet
  facet normal -0 0 -1
    outer loop
      vertex 21.6165 6.6241 2
      vertex 20.561 5.83499 2
      vertex 20.2681 7.91533 2
    endloop
  endfacet
  facet normal 0 0 -1
    outer loop
      vertex 21.6165 6.6241 2
      vertex 20.2681 7.91533 2
      vertex 22.5019 7.6221 2
    endloop
  endfacet
  facet normal 0 -0 -1
    outer loop
      vertex 37.1797 6.489 2
      vertex 37.1797 4.80801 2
      vertex 35.6546 4.91368 2
    endloop
  endfacet
  facet normal -0 0 -1
    outer loop
      vertex 35.5562 6.67444 2
      vertex 34.2766 5.23065 2
      vertex 34.1855 7.23077 2
    endloop
  endfacet
  facet normal 0 0 -1
    outer loop
      vertex 21.525 9.672 2
      vertex 23.217 8.82899 2
      vertex 22.5019 7.6221 2
    endloop
  endfacet
  facet normal 0 0 -1
    outer loop
      vertex 34.2766 5.23065 2
      vertex 33.0457 5.75899 2
      vertex 34.1855 7.23077 2
    endloop
  endfacet
  facet normal 0 0 -1
    outer loop
      vertex 31.9799 6.48677 2
      vertex 31.096 7.40077 2
      vertex 33.0677 8.15799 2
    endloop
  endfacet
  facet normal 0 0 -1
    outer loop
      vertex 18.037 4.92212 2
      vertex 18.6561 6.86133 2
      vertex 19.36 5.26443 2
    endloop
  endfacet
  facet normal 0 0 -1
    outer loop
      vertex 18.037 4.92212 2
      vertex 16.689 6.50999 2
      vertex 18.6561 6.86133 2
    endloop
  endfacet
  facet normal 0 0 -1
    outer loop
      vertex 18.6561 6.86133 2
      vertex 20.561 5.83499 2
      vertex 19.36 5.26443 2
    endloop
  endfacet
  facet normal 0 -0 -1
    outer loop
      vertex 20.2681 7.91533 2
      vertex 20.561 5.83499 2
      vertex 18.6561 6.86133 2
    endloop
  endfacet
  facet normal -0 0 -1
    outer loop
      vertex 18.037 4.92212 2
      vertex 16.592 4.80801 2
      vertex 16.689 6.50999 2
    endloop
  endfacet
  facet normal -0 0 -1
    outer loop
      vertex 16.689 6.50999 2
      vertex 15.1188 4.91434 2
      vertex 15.1303 6.6991 2
    endloop
  endfacet
  facet normal 0 0 -1
    outer loop
      vertex 12.589 5.765 2
      vertex 11.5523 6.49432 2
      vertex 13.8023 7.26643 2
    endloop
  endfacet
  facet normal 0 0 -1
    outer loop
      vertex 10.015 8.50099 2
      vertex 11.8872 9.46843 2
      vertex 10.6943 7.40633 2
    endloop
  endfacet
  facet normal 0 0 -1
    outer loop
      vertex 10.015 8.50099 2
      vertex 9.52333 9.75966 2
      vertex 11.8872 9.46843 2
    endloop
  endfacet
  facet normal 0 0 -1
    outer loop
      vertex 9.52333 9.75966 2
      vertex 9.22833 11.1637 2
      vertex 11.3965 10.9684 2
    endloop
  endfacet
  facet normal 0 0 -1
    outer loop
      vertex 9.22833 11.1637 2
      vertex 9.12999 12.713 2
      vertex 11.233 12.712 2
    endloop
  endfacet
  facet normal 0 0 -1
    outer loop
      vertex 9.12999 12.713 2
      vertex 9.34966 14.9669 2
      vertex 11.39 14.466 2
    endloop
  endfacet
  facet normal 0 0 -1
    outer loop
      vertex 9.34966 14.9669 2
      vertex 10.0087 16.8699 2
      vertex 11.861 15.952 2
    endloop
  endfacet
  facet normal 0 0 -1
    outer loop
      vertex 11.861 15.952 2
      vertex 11.107 18.422 2
      vertex 12.646 17.17 2
    endloop
  endfacet
  facet normal 0 0 -1
    outer loop
      vertex 12.646 17.17 2
      vertex 12.5939 19.5698 2
      vertex 13.7135 18.0733 2
    endloop
  endfacet
  facet normal 0 0 -1
    outer loop
      vertex 13.7135 18.0733 2
      vertex 12.5939 19.5698 2
      vertex 14.4185 20.2584 2
    endloop
  endfacet
  facet normal 0 0 -1
    outer loop
      vertex 15.0322 18.6153 2
      vertex 16.581 20.488 2
      vertex 16.602 18.796 2
    endloop
  endfacet
  facet normal 0 -0 -1
    outer loop
      vertex 18.121 20.3824 2
      vertex 18.566 18.4849 2
      vertex 17.633 18.7182 2
    endloop
  endfacet
  facet normal 0 0 -1
    outer loop
      vertex 19.4823 20.0658 2
      vertex 19.401 18.096 2
      vertex 18.566 18.4849 2
    endloop
  endfacet
  facet normal 0 0 -1
    outer loop
      vertex 20.665 19.538 2
      vertex 20.1152 17.56 2
      vertex 19.401 18.096 2
    endloop
  endfacet
  facet normal 0 0 -1
    outer loop
      vertex 21.6618 18.8027 2
      vertex 20.6859 16.8853 2
      vertex 20.1152 17.56 2
    endloop
  endfacet
  facet normal 0 -0 -1
    outer loop
      vertex 21.6618 18.8027 2
      vertex 22.4654 17.8633 2
      vertex 20.6859 16.8853 2
    endloop
  endfacet
  facet normal 0 0 -1
    outer loop
      vertex 20.6859 16.8853 2
      vertex 22.4654 17.8633 2
      vertex 21.113 16.072 2
    endloop
  endfacet
  facet normal 0 0 -1
    outer loop
      vertex 21.113 16.072 2
      vertex 22.4654 17.8633 2
      vertex 23.076 16.72 2
    endloop
  endfacet
  facet normal 0 -0 -1
    outer loop
      vertex 20.665 19.538 2
      vertex 21.6618 18.8027 2
      vertex 20.1152 17.56 2
    endloop
  endfacet
  facet normal 0 0 -1
    outer loop
      vertex 37.5047 12.68 2
      vertex 43.9807 12.68 2
      vertex 42.0727 10.945 2
    endloop
  endfacet
  facet normal 0 -0 -1
    outer loop
      vertex 19.4823 20.0658 2
      vertex 20.665 19.538 2
      vertex 19.401 18.096 2
    endloop
  endfacet
  facet normal 0 0 -1
    outer loop
      vertex 37.5047 12.68 2
      vertex 42.0727 10.945 2
      vertex 37.5047 10.945 2
    endloop
  endfacet
  facet normal 0 0 -1
    outer loop
      vertex 18.121 20.3824 2
      vertex 19.4823 20.0658 2
      vertex 18.566 18.4849 2
    endloop
  endfacet
  facet normal 0 0 -1
    outer loop
      vertex 40.7825 7.28577 2
      vertex 41.4825 7.69878 2
      vertex 42.1172 6.00076 2
    endloop
  endfacet
  facet normal 0 0 -1
    outer loop
      vertex 16.581 20.488 2
      vertex 18.121 20.3824 2
      vertex 17.633 18.7182 2
    endloop
  endfacet
  facet normal 0 0 -1
    outer loop
      vertex 34.0526 18.0876 2
      vertex 32.984 19.5844 2
      vertex 34.8533 20.2621 2
    endloop
  endfacet
  facet normal 0 0 -1
    outer loop
      vertex 16.602 18.796 2
      vertex 16.581 20.488 2
      vertex 17.633 18.7182 2
    endloop
  endfacet
  facet normal 0 0 -1
    outer loop
      vertex 35.4016 18.6189 2
      vertex 34.8533 20.2621 2
      vertex 37.0817 20.488 2
    endloop
  endfacet
  facet normal 0 0 -1
    outer loop
      vertex 15.0322 18.6153 2
      vertex 14.4185 20.2584 2
      vertex 16.581 20.488 2
    endloop
  endfacet
  facet normal 0 0 -1
    outer loop
      vertex 37.0277 18.796 2
      vertex 37.0817 20.488 2
      vertex 38.101 18.7304 2
    endloop
  endfacet
  facet normal -0 0 -1
    outer loop
      vertex 15.0322 18.6153 2
      vertex 13.7135 18.0733 2
      vertex 14.4185 20.2584 2
    endloop
  endfacet
  facet normal 0 0 -1
    outer loop
      vertex 12.646 17.17 2
      vertex 11.107 18.422 2
      vertex 12.5939 19.5698 2
    endloop
  endfacet
  facet normal 0 0 -1
    outer loop
      vertex 11.861 15.952 2
      vertex 10.0087 16.8699 2
      vertex 11.107 18.422 2
    endloop
  endfacet
  facet normal 0 0 -1
    outer loop
      vertex 11.39 14.466 2
      vertex 9.34966 14.9669 2
      vertex 11.861 15.952 2
    endloop
  endfacet
  facet normal 0 0 -1
    outer loop
      vertex 11.233 12.712 2
      vertex 9.12999 12.713 2
      vertex 11.39 14.466 2
    endloop
  endfacet
  facet normal 0 0 -1
    outer loop
      vertex 11.3965 10.9684 2
      vertex 9.22833 11.1637 2
      vertex 11.233 12.712 2
    endloop
  endfacet
  facet normal 0 0 -1
    outer loop
      vertex 11.8872 9.46843 2
      vertex 9.52333 9.75966 2
      vertex 11.3965 10.9684 2
    endloop
  endfacet
  facet normal 0 0 -1
    outer loop
      vertex 10.6943 7.40633 2
      vertex 11.8872 9.46843 2
      vertex 12.705 8.21199 2
    endloop
  endfacet
  facet normal 0 0 -1
    outer loop
      vertex 11.5523 6.49432 2
      vertex 10.6943 7.40633 2
      vertex 12.705 8.21199 2
    endloop
  endfacet
  facet normal -0 0 -1
    outer loop
      vertex 13.8023 7.26643 2
      vertex 11.5523 6.49432 2
      vertex 12.705 8.21199 2
    endloop
  endfacet
  facet normal 0 0 -1
    outer loop
      vertex 13.7844 5.23332 2
      vertex 12.589 5.765 2
      vertex 13.8023 7.26643 2
    endloop
  endfacet
  facet normal -0 0 -1
    outer loop
      vertex 15.1303 6.6991 2
      vertex 13.7844 5.23332 2
      vertex 13.8023 7.26643 2
    endloop
  endfacet
  facet normal 0 0 -1
    outer loop
      vertex 15.1303 6.6991 2
      vertex 15.1188 4.91434 2
      vertex 13.7844 5.23332 2
    endloop
  endfacet
  facet normal 0 0 -1
    outer loop
      vertex 16.689 6.50999 2
      vertex 16.592 4.80801 2
      vertex 15.1188 4.91434 2
    endloop
  endfacet
  facet normal 0 0 -1
    outer loop
      vertex 33.0457 5.75899 2
      vertex 31.9799 6.48677 2
      vertex 34.1855 7.23077 2
    endloop
  endfacet
  facet normal 0 0 -1
    outer loop
      vertex 42.0727 10.945 2
      vertex 43.9807 7.403 2
      vertex 42.0727 8.18399 2
    endloop
  endfacet
  facet normal 0 0 -1
    outer loop
      vertex 42.0727 8.18399 2
      vertex 43.9807 7.403 2
      vertex 43.1098 6.63977 2
    endloop
  endfacet
  facet normal 0 0 -1
    outer loop
      vertex 42.1172 6.00076 2
      vertex 41.4825 7.69878 2
      vertex 43.1098 6.63977 2
    endloop
  endfacet
  facet normal 0 0 -1
    outer loop
      vertex 29.8848 9.76454 2
      vertex 32.2422 9.40633 2
      vertex 30.3937 8.50099 2
    endloop
  endfacet
  facet normal 0 0 -1
    outer loop
      vertex 29.6995 14.9994 2
      vertex 32.2035 15.9952 2
      vertex 31.7372 14.4989 2
    endloop
  endfacet
  facet normal 0 0 -1
    outer loop
      vertex 31.4737 18.455 2
      vertex 32.984 19.5844 2
      vertex 32.9807 17.202 2
    endloop
  endfacet
  facet normal -0 0 -1
    outer loop
      vertex 35.4016 18.6189 2
      vertex 34.0526 18.0876 2
      vertex 34.8533 20.2621 2
    endloop
  endfacet
  facet normal -0 0 -1
    outer loop
      vertex 34.0526 18.0876 2
      vertex 32.9807 17.202 2
      vertex 32.984 19.5844 2
    endloop
  endfacet
  facet normal 0 -0 -1
    outer loop
      vertex 39.0864 6.69167 2
      vertex 39.7948 5.10933 2
      vertex 38.5205 4.88335 2
    endloop
  endfacet
  facet normal 0 0 -1
    outer loop
      vertex 41.0027 5.48599 2
      vertex 39.9727 6.94499 2
      vertex 40.7825 7.28577 2
    endloop
  endfacet
  facet normal 0 0 -1
    outer loop
      vertex 42.0727 10.945 2
      vertex 43.9807 12.68 2
      vertex 43.9807 7.403 2
    endloop
  endfacet
  facet normal 0 0 -1
    outer loop
      vertex 41.4825 7.69878 2
      vertex 42.0727 8.18399 2
      vertex 43.1098 6.63977 2
    endloop
  endfacet
  facet normal -0 0 -1
    outer loop
      vertex 42.1172 6.00076 2
      vertex 41.0027 5.48599 2
      vertex 40.7825 7.28577 2
    endloop
  endfacet
  facet normal -0 0 -1
    outer loop
      vertex 41.0027 5.48599 2
      vertex 39.7948 5.10933 2
      vertex 39.9727 6.94499 2
    endloop
  endfacet
  facet normal 0 0 -1
    outer loop
      vertex 39.9727 6.94499 2
      vertex 39.7948 5.10933 2
      vertex 39.0864 6.69167 2
    endloop
  endfacet
  facet normal 0 0 -1
    outer loop
      vertex 39.0864 6.69167 2
      vertex 38.5205 4.88335 2
      vertex 38.1554 6.53966 2
    endloop
  endfacet
  facet normal 0 -0 -1
    outer loop
      vertex 38.1554 6.53966 2
      vertex 38.5205 4.88335 2
      vertex 37.1797 4.80801 2
    endloop
  endfacet
  facet normal 0 0 -1
    outer loop
      vertex 37.1797 6.489 2
      vertex 38.1554 6.53966 2
      vertex 37.1797 4.80801 2
    endloop
  endfacet
  facet normal 0 0 -1
    outer loop
      vertex 31.096 7.40077 2
      vertex 32.2422 9.40633 2
      vertex 33.0677 8.15799 2
    endloop
  endfacet
  facet normal 0 0 -1
    outer loop
      vertex 35.5562 6.67444 2
      vertex 37.1797 6.489 2
      vertex 35.6546 4.91368 2
    endloop
  endfacet
  facet normal 0 0 -1
    outer loop
      vertex 32.2422 9.40633 2
      vertex 31.096 7.40077 2
      vertex 30.3937 8.50099 2
    endloop
  endfacet
  facet normal 0 0 -1
    outer loop
      vertex 31.7468 10.9247 2
      vertex 29.5795 11.1685 2
      vertex 31.5817 12.713 2
    endloop
  endfacet
  facet normal 0 0 -1
    outer loop
      vertex 31.5817 12.713 2
      vertex 29.4777 12.713 2
      vertex 31.7372 14.4989 2
    endloop
  endfacet
  facet normal -0 0 -1
    outer loop
      vertex 31.5817 12.713 2
      vertex 29.5795 11.1685 2
      vertex 29.4777 12.713 2
    endloop
  endfacet
  facet normal 0 0 -1
    outer loop
      vertex 32.2035 15.9952 2
      vertex 30.3649 16.9134 2
      vertex 31.4737 18.455 2
    endloop
  endfacet
  facet normal -0 0 -1
    outer loop
      vertex 37.0277 18.796 2
      vertex 35.4016 18.6189 2
      vertex 37.0817 20.488 2
    endloop
  endfacet
  facet normal 0 0 -1
    outer loop
      vertex 38.101 18.7304 2
      vertex 38.6682 20.3933 2
      vertex 39.05 18.5338 2
    endloop
  endfacet
  facet normal 0 0 -1
    outer loop
      vertex 38.101 18.7304 2
      vertex 37.0817 20.488 2
      vertex 38.6682 20.3933 2
    endloop
  endfacet
  facet normal 0 0 -1
    outer loop
      vertex 39.8747 18.206 2
      vertex 39.05 18.5338 2
      vertex 40.0422 20.1093 2
    endloop
  endfacet
  facet normal -0 0 -1
    outer loop
      vertex 40.0422 20.1093 2
      vertex 39.05 18.5338 2
      vertex 38.6682 20.3933 2
    endloop
  endfacet
  facet normal 0 0 -1
    outer loop
      vertex 41.2037 19.636 2
      vertex 40.5832 17.7351 2
      vertex 39.8747 18.206 2
    endloop
  endfacet
  facet normal 0 0 -1
    outer loop
      vertex 42.179 18.9549 2
      vertex 41.1818 17.1091 2
      vertex 40.5832 17.7351 2
    endloop
  endfacet
  facet normal 0 -0 -1
    outer loop
      vertex 42.179 18.9549 2
      vertex 42.9926 18.0462 2
      vertex 41.1818 17.1091 2
    endloop
  endfacet
  facet normal 0 0 -1
    outer loop
      vertex 41.6707 16.328 2
      vertex 42.9926 18.0462 2
      vertex 43.6447 16.91 2
    endloop
  endfacet
  facet normal 0 0 -1
    outer loop
      vertex 41.1818 17.1091 2
      vertex 42.9926 18.0462 2
      vertex 41.6707 16.328 2
    endloop
  endfacet
  facet normal 0 -0 -1
    outer loop
      vertex 41.2037 19.636 2
      vertex 42.179 18.9549 2
      vertex 40.5832 17.7351 2
    endloop
  endfacet
  facet normal 0 -0 -1
    outer loop
      vertex 40.0422 20.1093 2
      vertex 41.2037 19.636 2
      vertex 39.8747 18.206 2
    endloop
  endfacet
  facet normal 0 0 -1
    outer loop
      vertex 32.2035 15.9952 2
      vertex 31.4737 18.455 2
      vertex 32.9807 17.202 2
    endloop
  endfacet
  facet normal 0 0 -1
    outer loop
      vertex 29.6995 14.9994 2
      vertex 30.3649 16.9134 2
      vertex 32.2035 15.9952 2
    endloop
  endfacet
  facet normal 0 0 -1
    outer loop
      vertex 29.4777 12.713 2
      vertex 29.6995 14.9994 2
      vertex 31.7372 14.4989 2
    endloop
  endfacet
  facet normal -0 0 -1
    outer loop
      vertex 31.7468 10.9247 2
      vertex 29.8848 9.76454 2
      vertex 29.5795 11.1685 2
    endloop
  endfacet
  facet normal 0 -0 -1
    outer loop
      vertex 31.7468 10.9247 2
      vertex 32.2422 9.40633 2
      vertex 29.8848 9.76454 2
    endloop
  endfacet
  facet normal 0 0 -1
    outer loop
      vertex 31.9799 6.48677 2
      vertex 33.0677 8.15799 2
      vertex 34.1855 7.23077 2
    endloop
  endfacet
  facet normal 0 -0 -1
    outer loop
      vertex 35.5562 6.67444 2
      vertex 35.6546 4.91368 2
      vertex 34.2766 5.23065 2
    endloop
  endfacet
  facet normal 0 0 1
    outer loop
      vertex 21.525 9.672 4
      vertex 20.2681 7.91533 4
      vertex 22.5019 7.6221 4
    endloop
  endfacet
  facet normal 0 0 1
    outer loop
      vertex 20.2681 7.91533 4
      vertex 20.561 5.83499 4
      vertex 21.6165 6.6241 4
    endloop
  endfacet
  facet normal 0 0 1
    outer loop
      vertex 22.5019 7.6221 4
      vertex 20.2681 7.91533 4
      vertex 21.6165 6.6241 4
    endloop
  endfacet
  facet normal -0 0 1
    outer loop
      vertex 35.6546 4.91368 4
      vertex 37.1797 4.80801 4
      vertex 37.1797 6.489 4
    endloop
  endfacet
  facet normal 0 0 1
    outer loop
      vertex 34.1855 7.23077 4
      vertex 34.2766 5.23065 4
      vertex 35.5562 6.67444 4
    endloop
  endfacet
  facet normal 0 -0 1
    outer loop
      vertex 22.5019 7.6221 4
      vertex 23.217 8.82899 4
      vertex 21.525 9.672 4
    endloop
  endfacet
  facet normal 0 0 1
    outer loop
      vertex 34.1855 7.23077 4
      vertex 33.0457 5.75899 4
      vertex 34.2766 5.23065 4
    endloop
  endfacet
  facet normal 0 0 1
    outer loop
      vertex 33.0677 8.15799 4
      vertex 31.096 7.40077 4
      vertex 31.9799 6.48677 4
    endloop
  endfacet
  facet normal 0 0 1
    outer loop
      vertex 19.36 5.26443 4
      vertex 18.6561 6.86133 4
      vertex 18.037 4.92212 4
    endloop
  endfacet
  facet normal 0 0 1
    outer loop
      vertex 18.6561 6.86133 4
      vertex 16.689 6.50999 4
      vertex 18.037 4.92212 4
    endloop
  endfacet
  facet normal 0 -0 1
    outer loop
      vertex 19.36 5.26443 4
      vertex 20.561 5.83499 4
      vertex 18.6561 6.86133 4
    endloop
  endfacet
  facet normal -0 0 1
    outer loop
      vertex 18.6561 6.86133 4
      vertex 20.561 5.83499 4
      vertex 20.2681 7.91533 4
    endloop
  endfacet
  facet normal 0 0 1
    outer loop
      vertex 16.689 6.50999 4
      vertex 16.592 4.80801 4
      vertex 18.037 4.92212 4
    endloop
  endfacet
  facet normal 0 0 1
    outer loop
      vertex 15.1303 6.6991 4
      vertex 15.1188 4.91434 4
      vertex 16.689 6.50999 4
    endloop
  endfacet
  facet normal 0 0 1
    outer loop
      vertex 13.8023 7.26643 4
      vertex 11.5523 6.49432 4
      vertex 12.589 5.765 4
    endloop
  endfacet
  facet normal 0 -0 1
    outer loop
      vertex 10.6943 7.40633 4
      vertex 11.8872 9.46843 4
      vertex 10.015 8.50099 4
    endloop
  endfacet
  facet normal 0 0 1
    outer loop
      vertex 11.8872 9.46843 4
      vertex 9.52333 9.75966 4
      vertex 10.015 8.50099 4
    endloop
  endfacet
  facet normal 0 0 1
    outer loop
      vertex 11.3965 10.9684 4
      vertex 9.22833 11.1637 4
      vertex 9.52333 9.75966 4
    endloop
  endfacet
  facet normal 0 0 1
    outer loop
      vertex 11.233 12.712 4
      vertex 9.12999 12.713 4
      vertex 9.22833 11.1637 4
    endloop
  endfacet
  facet normal 0 0 1
    outer loop
      vertex 11.39 14.466 4
      vertex 9.34966 14.9669 4
      vertex 9.12999 12.713 4
    endloop
  endfacet
  facet normal 0 0 1
    outer loop
      vertex 11.861 15.952 4
      vertex 10.0087 16.8699 4
      vertex 9.34966 14.9669 4
    endloop
  endfacet
  facet normal 0 0 1
    outer loop
      vertex 12.646 17.17 4
      vertex 11.107 18.422 4
      vertex 11.861 15.952 4
    endloop
  endfacet
  facet normal 0 0 1
    outer loop
      vertex 13.7135 18.0733 4
      vertex 12.5939 19.5698 4
      vertex 12.646 17.17 4
    endloop
  endfacet
  facet normal 0 0 1
    outer loop
      vertex 14.4185 20.2584 4
      vertex 12.5939 19.5698 4
      vertex 13.7135 18.0733 4
    endloop
  endfacet
  facet normal 0 0 1
    outer loop
      vertex 16.602 18.796 4
      vertex 16.581 20.488 4
      vertex 15.0322 18.6153 4
    endloop
  endfacet
  facet normal -0 0 1
    outer loop
      vertex 17.633 18.7182 4
      vertex 18.566 18.4849 4
      vertex 18.121 20.3824 4
    endloop
  endfacet
  facet normal -0 0 1
    outer loop
      vertex 18.566 18.4849 4
      vertex 19.401 18.096 4
      vertex 19.4823 20.0658 4
    endloop
  endfacet
  facet normal -0 0 1
    outer loop
      vertex 19.401 18.096 4
      vertex 20.1152 17.56 4
      vertex 20.665 19.538 4
    endloop
  endfacet
  facet normal -0 0 1
    outer loop
      vertex 20.1152 17.56 4
      vertex 20.6859 16.8853 4
      vertex 21.6618 18.8027 4
    endloop
  endfacet
  facet normal 0 0 1
    outer loop
      vertex 20.6859 16.8853 4
      vertex 22.4654 17.8633 4
      vertex 21.6618 18.8027 4
    endloop
  endfacet
  facet normal 0 -0 1
    outer loop
      vertex 21.113 16.072 4
      vertex 22.4654 17.8633 4
      vertex 20.6859 16.8853 4
    endloop
  endfacet
  facet normal 0 0 1
    outer loop
      vertex 23.076 16.72 4
      vertex 22.4654 17.8633 4
      vertex 21.113 16.072 4
    endloop
  endfacet
  facet normal 0 0 1
    outer loop
      vertex 20.1152 17.56 4
      vertex 21.6618 18.8027 4
      vertex 20.665 19.538 4
    endloop
  endfacet
  facet normal 0 -0 1
    outer loop
      vertex 42.0727 10.945 4
      vertex 43.9807 12.68 4
      vertex 37.5047 12.68 4
    endloop
  endfacet
  facet normal 0 0 1
    outer loop
      vertex 19.401 18.096 4
      vertex 20.665 19.538 4
      vertex 19.4823 20.0658 4
    endloop
  endfacet
  facet normal 0 0 1
    outer loop
      vertex 37.5047 10.945 4
      vertex 42.0727 10.945 4
      vertex 37.5047 12.68 4
    endloop
  endfacet
  facet normal 0 -0 1
    outer loop
      vertex 18.566 18.4849 4
      vertex 19.4823 20.0658 4
      vertex 18.121 20.3824 4
    endloop
  endfacet
  facet normal 0 0 1
    outer loop
      vertex 42.1172 6.00076 4
      vertex 41.4825 7.69878 4
      vertex 40.7825 7.28577 4
    endloop
  endfacet
  facet normal 0 -0 1
    outer loop
      vertex 17.633 18.7182 4
      vertex 18.121 20.3824 4
      vertex 16.581 20.488 4
    endloop
  endfacet
  facet normal 0 0 1
    outer loop
      vertex 34.8533 20.2621 4
      vertex 32.984 19.5844 4
      vertex 34.0526 18.0876 4
    endloop
  endfacet
  facet normal 0 0 1
    outer loop
      vertex 17.633 18.7182 4
      vertex 16.581 20.488 4
      vertex 16.602 18.796 4
    endloop
  endfacet
  facet normal 0 0 1
    outer loop
      vertex 37.0817 20.488 4
      vertex 34.8533 20.2621 4
      vertex 35.4016 18.6189 4
    endloop
  endfacet
  facet normal 0 0 1
    outer loop
      vertex 16.581 20.488 4
      vertex 14.4185 20.2584 4
      vertex 15.0322 18.6153 4
    endloop
  endfacet
  facet normal 0 0 1
    outer loop
      vertex 38.101 18.7304 4
      vertex 37.0817 20.488 4
      vertex 37.0277 18.796 4
    endloop
  endfacet
  facet normal 0 0 1
    outer loop
      vertex 14.4185 20.2584 4
      vertex 13.7135 18.0733 4
      vertex 15.0322 18.6153 4
    endloop
  endfacet
  facet normal 0 0 1
    outer loop
      vertex 12.5939 19.5698 4
      vertex 11.107 18.422 4
      vertex 12.646 17.17 4
    endloop
  endfacet
  facet normal 0 0 1
    outer loop
      vertex 11.107 18.422 4
      vertex 10.0087 16.8699 4
      vertex 11.861 15.952 4
    endloop
  endfacet
  facet normal 0 0 1
    outer loop
      vertex 11.861 15.952 4
      vertex 9.34966 14.9669 4
      vertex 11.39 14.466 4
    endloop
  endfacet
  facet normal 0 0 1
    outer loop
      vertex 11.39 14.466 4
      vertex 9.12999 12.713 4
      vertex 11.233 12.712 4
    endloop
  endfacet
  facet normal 0 0 1
    outer loop
      vertex 11.233 12.712 4
      vertex 9.22833 11.1637 4
      vertex 11.3965 10.9684 4
    endloop
  endfacet
  facet normal 0 0 1
    outer loop
      vertex 11.3965 10.9684 4
      vertex 9.52333 9.75966 4
      vertex 11.8872 9.46843 4
    endloop
  endfacet
  facet normal 0 0 1
    outer loop
      vertex 12.705 8.21199 4
      vertex 11.8872 9.46843 4
      vertex 10.6943 7.40633 4
    endloop
  endfacet
  facet normal 0 0 1
    outer loop
      vertex 12.705 8.21199 4
      vertex 10.6943 7.40633 4
      vertex 11.5523 6.49432 4
    endloop
  endfacet
  facet normal 0 0 1
    outer loop
      vertex 12.705 8.21199 4
      vertex 11.5523 6.49432 4
      vertex 13.8023 7.26643 4
    endloop
  endfacet
  facet normal 0 0 1
    outer loop
      vertex 13.8023 7.26643 4
      vertex 12.589 5.765 4
      vertex 13.7844 5.23332 4
    endloop
  endfacet
  facet normal 0 0 1
    outer loop
      vertex 13.8023 7.26643 4
      vertex 13.7844 5.23332 4
      vertex 15.1303 6.6991 4
    endloop
  endfacet
  facet normal -0 0 1
    outer loop
      vertex 13.7844 5.23332 4
      vertex 15.1188 4.91434 4
      vertex 15.1303 6.6991 4
    endloop
  endfacet
  facet normal -0 0 1
    outer loop
      vertex 15.1188 4.91434 4
      vertex 16.592 4.80801 4
      vertex 16.689 6.50999 4
    endloop
  endfacet
  facet normal 0 0 1
    outer loop
      vertex 34.1855 7.23077 4
      vertex 31.9799 6.48677 4
      vertex 33.0457 5.75899 4
    endloop
  endfacet
  facet normal -0 0 1
    outer loop
      vertex 42.0727 8.18399 4
      vertex 43.9807 7.403 4
      vertex 42.0727 10.945 4
    endloop
  endfacet
  facet normal 0 -0 1
    outer loop
      vertex 43.1098 6.63977 4
      vertex 43.9807 7.403 4
      vertex 42.0727 8.18399 4
    endloop
  endfacet
  facet normal 0 0 1
    outer loop
      vertex 43.1098 6.63977 4
      vertex 41.4825 7.69878 4
      vertex 42.1172 6.00076 4
    endloop
  endfacet
  facet normal 0 -0 1
    outer loop
      vertex 30.3937 8.50099 4
      vertex 32.2422 9.40633 4
      vertex 29.8848 9.76454 4
    endloop
  endfacet
  facet normal 0 -0 1
    outer loop
      vertex 31.7372 14.4989 4
      vertex 32.2035 15.9952 4
      vertex 29.6995 14.9994 4
    endloop
  endfacet
  facet normal 0 -0 1
    outer loop
      vertex 32.9807 17.202 4
      vertex 32.984 19.5844 4
      vertex 31.4737 18.455 4
    endloop
  endfacet
  facet normal 0 0 1
    outer loop
      vertex 34.8533 20.2621 4
      vertex 34.0526 18.0876 4
      vertex 35.4016 18.6189 4
    endloop
  endfacet
  facet normal 0 0 1
    outer loop
      vertex 32.984 19.5844 4
      vertex 32.9807 17.202 4
      vertex 34.0526 18.0876 4
    endloop
  endfacet
  facet normal 0 0 1
    outer loop
      vertex 38.5205 4.88335 4
      vertex 39.7948 5.10933 4
      vertex 39.0864 6.69167 4
    endloop
  endfacet
  facet normal 0 0 1
    outer loop
      vertex 40.7825 7.28577 4
      vertex 39.9727 6.94499 4
      vertex 41.0027 5.48599 4
    endloop
  endfacet
  facet normal 0 -0 1
    outer loop
      vertex 43.9807 7.403 4
      vertex 43.9807 12.68 4
      vertex 42.0727 10.945 4
    endloop
  endfacet
  facet normal 0 0 1
    outer loop
      vertex 43.1098 6.63977 4
      vertex 42.0727 8.18399 4
      vertex 41.4825 7.69878 4
    endloop
  endfacet
  facet normal 0 0 1
    outer loop
      vertex 40.7825 7.28577 4
      vertex 41.0027 5.48599 4
      vertex 42.1172 6.00076 4
    endloop
  endfacet
  facet normal 0 0 1
    outer loop
      vertex 39.9727 6.94499 4
      vertex 39.7948 5.10933 4
      vertex 41.0027 5.48599 4
    endloop
  endfacet
  facet normal -0 0 1
    outer loop
      vertex 39.0864 6.69167 4
      vertex 39.7948 5.10933 4
      vertex 39.9727 6.94499 4
    endloop
  endfacet
  facet normal -0 0 1
    outer loop
      vertex 38.1554 6.53966 4
      vertex 38.5205 4.88335 4
      vertex 39.0864 6.69167 4
    endloop
  endfacet
  facet normal 0 0 1
    outer loop
      vertex 37.1797 4.80801 4
      vertex 38.5205 4.88335 4
      vertex 38.1554 6.53966 4
    endloop
  endfacet
  facet normal 0 0 1
    outer loop
      vertex 37.1797 4.80801 4
      vertex 38.1554 6.53966 4
      vertex 37.1797 6.489 4
    endloop
  endfacet
  facet normal 0 0 1
    outer loop
      vertex 33.0677 8.15799 4
      vertex 32.2422 9.40633 4
      vertex 31.096 7.40077 4
    endloop
  endfacet
  facet normal 0 -0 1
    outer loop
      vertex 35.6546 4.91368 4
      vertex 37.1797 6.489 4
      vertex 35.5562 6.67444 4
    endloop
  endfacet
  facet normal -0 0 1
    outer loop
      vertex 30.3937 8.50099 4
      vertex 31.096 7.40077 4
      vertex 32.2422 9.40633 4
    endloop
  endfacet
  facet normal 0 0 1
    outer loop
      vertex 31.5817 12.713 4
      vertex 29.5795 11.1685 4
      vertex 31.7468 10.9247 4
    endloop
  endfacet
  facet normal 0 0 1
    outer loop
      vertex 31.7372 14.4989 4
      vertex 29.4777 12.713 4
      vertex 31.5817 12.713 4
    endloop
  endfacet
  facet normal -0 0 1
    outer loop
      vertex 29.4777 12.713 4
      vertex 29.5795 11.1685 4
      vertex 31.5817 12.713 4
    endloop
  endfacet
  facet normal 0 0 1
    outer loop
      vertex 31.4737 18.455 4
      vertex 30.3649 16.9134 4
      vertex 32.2035 15.9952 4
    endloop
  endfacet
  facet normal 0 0 1
    outer loop
      vertex 37.0817 20.488 4
      vertex 35.4016 18.6189 4
      vertex 37.0277 18.796 4
    endloop
  endfacet
  facet normal 0 0 1
    outer loop
      vertex 39.05 18.5338 4
      vertex 38.6682 20.3933 4
      vertex 38.101 18.7304 4
    endloop
  endfacet
  facet normal 0 0 1
    outer loop
      vertex 38.6682 20.3933 4
      vertex 37.0817 20.488 4
      vertex 38.101 18.7304 4
    endloop
  endfacet
  facet normal 0 0 1
    outer loop
      vertex 40.0422 20.1093 4
      vertex 39.05 18.5338 4
      vertex 39.8747 18.206 4
    endloop
  endfacet
  facet normal 0 0 1
    outer loop
      vertex 38.6682 20.3933 4
      vertex 39.05 18.5338 4
      vertex 40.0422 20.1093 4
    endloop
  endfacet
  facet normal -0 0 1
    outer loop
      vertex 39.8747 18.206 4
      vertex 40.5832 17.7351 4
      vertex 41.2037 19.636 4
    endloop
  endfacet
  facet normal -0 0 1
    outer loop
      vertex 40.5832 17.7351 4
      vertex 41.1818 17.1091 4
      vertex 42.179 18.9549 4
    endloop
  endfacet
  facet normal 0 0 1
    outer loop
      vertex 41.1818 17.1091 4
      vertex 42.9926 18.0462 4
      vertex 42.179 18.9549 4
    endloop
  endfacet
  facet normal 0 0 1
    outer loop
      vertex 43.6447 16.91 4
      vertex 42.9926 18.0462 4
      vertex 41.6707 16.328 4
    endloop
  endfacet
  facet normal 0 -0 1
    outer loop
      vertex 41.6707 16.328 4
      vertex 42.9926 18.0462 4
      vertex 41.1818 17.1091 4
    endloop
  endfacet
  facet normal 0 0 1
    outer loop
      vertex 40.5832 17.7351 4
      vertex 42.179 18.9549 4
      vertex 41.2037 19.636 4
    endloop
  endfacet
  facet normal 0 0 1
    outer loop
      vertex 39.8747 18.206 4
      vertex 41.2037 19.636 4
      vertex 40.0422 20.1093 4
    endloop
  endfacet
  facet normal 0 0 1
    outer loop
      vertex 32.9807 17.202 4
      vertex 31.4737 18.455 4
      vertex 32.2035 15.9952 4
    endloop
  endfacet
  facet normal 0 0 1
    outer loop
      vertex 32.2035 15.9952 4
      vertex 30.3649 16.9134 4
      vertex 29.6995 14.9994 4
    endloop
  endfacet
  facet normal 0 0 1
    outer loop
      vertex 31.7372 14.4989 4
      vertex 29.6995 14.9994 4
      vertex 29.4777 12.713 4
    endloop
  endfacet
  facet normal 0 0 1
    outer loop
      vertex 29.5795 11.1685 4
      vertex 29.8848 9.76454 4
      vertex 31.7468 10.9247 4
    endloop
  endfacet
  facet normal -0 0 1
    outer loop
      vertex 29.8848 9.76454 4
      vertex 32.2422 9.40633 4
      vertex 31.7468 10.9247 4
    endloop
  endfacet
  facet normal 0 0 1
    outer loop
      vertex 34.1855 7.23077 4
      vertex 33.0677 8.15799 4
      vertex 31.9799 6.48677 4
    endloop
  endfacet
  facet normal -0 0 1
    outer loop
      vertex 34.2766 5.23065 4
      vertex 35.6546 4.91368 4
      vertex 35.5562 6.67444 4
    endloop
  endfacet
  facet normal 0.250493 -0.968118 0
    outer loop
      vertex 19.36 5.26443 2
      vertex 18.037 4.92212 4
      vertex 18.037 4.92212 2
    endloop
  endfacet
  facet normal 0.250493 -0.968118 0
    outer loop
      vertex 19.36 5.26443 2
      vertex 19.36 5.26443 4
      vertex 18.037 4.92212 4
    endloop
  endfacet
  facet normal 0.429106 -0.903254 0
    outer loop
      vertex 20.561 5.83499 2
      vertex 19.36 5.26443 4
      vertex 19.36 5.26443 2
    endloop
  endfacet
  facet normal 0.429106 -0.903254 0
    outer loop
      vertex 20.561 5.83499 2
      vertex 20.561 5.83499 4
      vertex 19.36 5.26443 4
    endloop
  endfacet
  facet normal 0.598756 -0.800931 0
    outer loop
      vertex 21.6165 6.6241 2
      vertex 20.561 5.83499 4
      vertex 20.561 5.83499 2
    endloop
  endfacet
  facet normal 0.598756 -0.800931 0
    outer loop
      vertex 21.6165 6.6241 2
      vertex 21.6165 6.6241 4
      vertex 20.561 5.83499 4
    endloop
  endfacet
  facet normal 0.748072 -0.663617 0
    outer loop
      vertex 22.5019 7.6221 2
      vertex 21.6165 6.6241 4
      vertex 21.6165 6.6241 2
    endloop
  endfacet
  facet normal 0.748072 -0.663617 0
    outer loop
      vertex 22.5019 7.6221 2
      vertex 22.5019 7.6221 4
      vertex 21.6165 6.6241 4
    endloop
  endfacet
  facet normal 0.860316 -0.509761 0
    outer loop
      vertex 23.217 8.82899 2
      vertex 22.5019 7.6221 4
      vertex 22.5019 7.6221 2
    endloop
  endfacet
  facet normal 0.860316 -0.509761 0
    outer loop
      vertex 23.217 8.82899 2
      vertex 23.217 8.82899 4
      vertex 22.5019 7.6221 4
    endloop
  endfacet
  facet normal 0.445944 0.895061 0
    outer loop
      vertex 21.525 9.672 2
      vertex 23.217 8.82899 4
      vertex 23.217 8.82899 2
    endloop
  endfacet
  facet normal 0.445944 0.895061 -0
    outer loop
      vertex 21.525 9.672 2
      vertex 21.525 9.672 4
      vertex 23.217 8.82899 4
    endloop
  endfacet
  facet normal -0.813266 0.581892 0
    outer loop
      vertex 20.2681 7.91533 2
      vertex 21.525 9.672 4
      vertex 21.525 9.672 2
    endloop
  endfacet
  facet normal -0.813266 0.581892 0
    outer loop
      vertex 20.2681 7.91533 2
      vertex 20.2681 7.91533 4
      vertex 21.525 9.672 4
    endloop
  endfacet
  facet normal -0.54725 0.836969 0
    outer loop
      vertex 18.6561 6.86133 2
      vertex 20.2681 7.91533 4
      vertex 20.2681 7.91533 2
    endloop
  endfacet
  facet normal -0.54725 0.836969 0
    outer loop
      vertex 18.6561 6.86133 2
      vertex 18.6561 6.86133 4
      vertex 20.2681 7.91533 4
    endloop
  endfacet
  facet normal -0.175822 0.984422 0
    outer loop
      vertex 16.689 6.50999 2
      vertex 18.6561 6.86133 4
      vertex 18.6561 6.86133 2
    endloop
  endfacet
  facet normal -0.175822 0.984422 0
    outer loop
      vertex 16.689 6.50999 2
      vertex 16.689 6.50999 4
      vertex 18.6561 6.86133 4
    endloop
  endfacet
  facet normal 0.12044 0.992721 0
    outer loop
      vertex 15.1303 6.6991 2
      vertex 16.689 6.50999 4
      vertex 16.689 6.50999 2
    endloop
  endfacet
  facet normal 0.12044 0.992721 -0
    outer loop
      vertex 15.1303 6.6991 2
      vertex 15.1303 6.6991 4
      vertex 16.689 6.50999 4
    endloop
  endfacet
  facet normal 0.392862 0.919597 0
    outer loop
      vertex 13.8023 7.26643 2
      vertex 15.1303 6.6991 4
      vertex 15.1303 6.6991 2
    endloop
  endfacet
  facet normal 0.392862 0.919597 -0
    outer loop
      vertex 13.8023 7.26643 2
      vertex 13.8023 7.26643 4
      vertex 15.1303 6.6991 4
    endloop
  endfacet
  facet normal 0.652772 0.757554 0
    outer loop
      vertex 12.705 8.21199 2
      vertex 13.8023 7.26643 4
      vertex 13.8023 7.26643 2
    endloop
  endfacet
  facet normal 0.652772 0.757554 -0
    outer loop
      vertex 12.705 8.21199 2
      vertex 12.705 8.21199 4
      vertex 13.8023 7.26643 4
    endloop
  endfacet
  facet normal 0.83811 0.545501 0
    outer loop
      vertex 11.8872 9.46843 2
      vertex 12.705 8.21199 4
      vertex 12.705 8.21199 2
    endloop
  endfacet
  facet normal 0.83811 0.545501 -0
    outer loop
      vertex 11.8872 9.46843 2
      vertex 11.8872 9.46843 4
      vertex 12.705 8.21199 4
    endloop
  endfacet
  facet normal 0.950443 0.310897 0
    outer loop
      vertex 11.3965 10.9684 2
      vertex 11.8872 9.46843 4
      vertex 11.8872 9.46843 2
    endloop
  endfacet
  facet normal 0.950443 0.310897 -0
    outer loop
      vertex 11.3965 10.9684 2
      vertex 11.3965 10.9684 4
      vertex 11.8872 9.46843 4
    endloop
  endfacet
  facet normal 0.995629 0.0933974 0
    outer loop
      vertex 11.233 12.712 2
      vertex 11.3965 10.9684 4
      vertex 11.3965 10.9684 2
    endloop
  endfacet
  facet normal 0.995629 0.0933974 -0
    outer loop
      vertex 11.233 12.712 2
      vertex 11.233 12.712 4
      vertex 11.3965 10.9684 4
    endloop
  endfacet
  facet normal 0.996017 -0.0891607 0
    outer loop
      vertex 11.39 14.466 2
      vertex 11.233 12.712 4
      vertex 11.233 12.712 2
    endloop
  endfacet
  facet normal 0.996017 -0.0891607 0
    outer loop
      vertex 11.39 14.466 2
      vertex 11.39 14.466 4
      vertex 11.233 12.712 4
    endloop
  endfacet
  facet normal 0.953264 -0.302139 0
    outer loop
      vertex 11.861 15.952 2
      vertex 11.39 14.466 4
      vertex 11.39 14.466 2
    endloop
  endfacet
  facet normal 0.953264 -0.302139 0
    outer loop
      vertex 11.861 15.952 2
      vertex 11.861 15.952 4
      vertex 11.39 14.466 4
    endloop
  endfacet
  facet normal 0.840549 -0.541735 0
    outer loop
      vertex 12.646 17.17 2
      vertex 11.861 15.952 4
      vertex 11.861 15.952 2
    endloop
  endfacet
  facet normal 0.840549 -0.541735 0
    outer loop
      vertex 12.646 17.17 2
      vertex 12.646 17.17 4
      vertex 11.861 15.952 4
    endloop
  endfacet
  facet normal 0.645946 -0.763383 0
    outer loop
      vertex 13.7135 18.0733 2
      vertex 12.646 17.17 4
      vertex 12.646 17.17 2
    endloop
  endfacet
  facet normal 0.645946 -0.763383 0
    outer loop
      vertex 13.7135 18.0733 2
      vertex 13.7135 18.0733 4
      vertex 12.646 17.17 4
    endloop
  endfacet
  facet normal 0.380167 -0.924918 0
    outer loop
      vertex 15.0322 18.6153 2
      vertex 13.7135 18.0733 4
      vertex 13.7135 18.0733 2
    endloop
  endfacet
  facet normal 0.380167 -0.924918 0
    outer loop
      vertex 15.0322 18.6153 2
      vertex 15.0322 18.6153 4
      vertex 13.7135 18.0733 4
    endloop
  endfacet
  facet normal 0.114334 -0.993442 0
    outer loop
      vertex 16.602 18.796 2
      vertex 15.0322 18.6153 4
      vertex 15.0322 18.6153 2
    endloop
  endfacet
  facet normal 0.114334 -0.993442 0
    outer loop
      vertex 16.602 18.796 2
      vertex 16.602 18.796 4
      vertex 15.0322 18.6153 4
    endloop
  endfacet
  facet normal -0.0752214 -0.997167 0
    outer loop
      vertex 17.633 18.7182 2
      vertex 16.602 18.796 4
      vertex 16.602 18.796 2
    endloop
  endfacet
  facet normal -0.0752214 -0.997167 0
    outer loop
      vertex 17.633 18.7182 2
      vertex 17.633 18.7182 4
      vertex 16.602 18.796 4
    endloop
  endfacet
  facet normal -0.242621 -0.970121 0
    outer loop
      vertex 18.566 18.4849 2
      vertex 17.633 18.7182 4
      vertex 17.633 18.7182 2
    endloop
  endfacet
  facet normal -0.242621 -0.970121 0
    outer loop
      vertex 18.566 18.4849 2
      vertex 18.566 18.4849 4
      vertex 17.633 18.7182 4
    endloop
  endfacet
  facet normal -0.422192 -0.906506 0
    outer loop
      vertex 19.401 18.096 2
      vertex 18.566 18.4849 4
      vertex 18.566 18.4849 2
    endloop
  endfacet
  facet normal -0.422192 -0.906506 0
    outer loop
      vertex 19.401 18.096 2
      vertex 19.401 18.096 4
      vertex 18.566 18.4849 4
    endloop
  endfacet
  facet normal -0.60023 -0.799828 0
    outer loop
      vertex 20.1152 17.56 2
      vertex 19.401 18.096 4
      vertex 19.401 18.096 2
    endloop
  endfacet
  facet normal -0.60023 -0.799828 0
    outer loop
      vertex 20.1152 17.56 2
      vertex 20.1152 17.56 4
      vertex 19.401 18.096 4
    endloop
  endfacet
  facet normal -0.763503 -0.645804 0
    outer loop
      vertex 20.6859 16.8853 2
      vertex 20.1152 17.56 4
      vertex 20.1152 17.56 2
    endloop
  endfacet
  facet normal -0.763503 -0.645804 0
    outer loop
      vertex 20.6859 16.8853 2
      vertex 20.6859 16.8853 4
      vertex 20.1152 17.56 4
    endloop
  endfacet
  facet normal -0.885351 -0.464924 0
    outer loop
      vertex 21.113 16.072 2
      vertex 20.6859 16.8853 4
      vertex 20.6859 16.8853 2
    endloop
  endfacet
  facet normal -0.885351 -0.464924 0
    outer loop
      vertex 21.113 16.072 2
      vertex 21.113 16.072 4
      vertex 20.6859 16.8853 4
    endloop
  endfacet
  facet normal 0.313467 -0.949599 0
    outer loop
      vertex 23.076 16.72 2
      vertex 21.113 16.072 4
      vertex 21.113 16.072 2
    endloop
  endfacet
  facet normal 0.313467 -0.949599 0
    outer loop
      vertex 23.076 16.72 2
      vertex 23.076 16.72 4
      vertex 21.113 16.072 4
    endloop
  endfacet
  facet normal 0.882107 0.471049 0
    outer loop
      vertex 22.4654 17.8633 2
      vertex 23.076 16.72 4
      vertex 23.076 16.72 2
    endloop
  endfacet
  facet normal 0.882107 0.471049 -0
    outer loop
      vertex 22.4654 17.8633 2
      vertex 22.4654 17.8633 4
      vertex 23.076 16.72 4
    endloop
  endfacet
  facet normal 0.759846 0.650103 0
    outer loop
      vertex 21.6618 18.8027 2
      vertex 22.4654 17.8633 4
      vertex 22.4654 17.8633 2
    endloop
  endfacet
  facet normal 0.759846 0.650103 -0
    outer loop
      vertex 21.6618 18.8027 2
      vertex 21.6618 18.8027 4
      vertex 22.4654 17.8633 4
    endloop
  endfacet
  facet normal 0.593652 0.804722 0
    outer loop
      vertex 20.665 19.538 2
      vertex 21.6618 18.8027 4
      vertex 21.6618 18.8027 2
    endloop
  endfacet
  facet normal 0.593652 0.804722 -0
    outer loop
      vertex 20.665 19.538 2
      vertex 20.665 19.538 4
      vertex 21.6618 18.8027 4
    endloop
  endfacet
  facet normal 0.40752 0.913196 0
    outer loop
      vertex 19.4823 20.0658 2
      vertex 20.665 19.538 4
      vertex 20.665 19.538 2
    endloop
  endfacet
  facet normal 0.40752 0.913196 -0
    outer loop
      vertex 19.4823 20.0658 2
      vertex 19.4823 20.0658 4
      vertex 20.665 19.538 4
    endloop
  endfacet
  facet normal 0.226564 0.973996 0
    outer loop
      vertex 18.121 20.3824 2
      vertex 19.4823 20.0658 4
      vertex 19.4823 20.0658 2
    endloop
  endfacet
  facet normal 0.226564 0.973996 -0
    outer loop
      vertex 18.121 20.3824 2
      vertex 18.121 20.3824 4
      vertex 19.4823 20.0658 4
    endloop
  endfacet
  facet normal 0.0683855 0.997659 0
    outer loop
      vertex 16.581 20.488 2
      vertex 18.121 20.3824 4
      vertex 18.121 20.3824 2
    endloop
  endfacet
  facet normal 0.0683855 0.997659 -0
    outer loop
      vertex 16.581 20.488 2
      vertex 16.581 20.488 4
      vertex 18.121 20.3824 4
    endloop
  endfacet
  facet normal -0.105561 0.994413 0
    outer loop
      vertex 14.4185 20.2584 2
      vertex 16.581 20.488 4
      vertex 16.581 20.488 2
    endloop
  endfacet
  facet normal -0.105561 0.994413 0
    outer loop
      vertex 14.4185 20.2584 2
      vertex 14.4185 20.2584 4
      vertex 16.581 20.488 4
    endloop
  endfacet
  facet normal -0.353113 0.935581 0
    outer loop
      vertex 12.5939 19.5698 2
      vertex 14.4185 20.2584 4
      vertex 14.4185 20.2584 2
    endloop
  endfacet
  facet normal -0.353113 0.935581 0
    outer loop
      vertex 12.5939 19.5698 2
      vertex 12.5939 19.5698 4
      vertex 14.4185 20.2584 4
    endloop
  endfacet
  facet normal -0.611049 0.791593 0
    outer loop
      vertex 11.107 18.422 2
      vertex 12.5939 19.5698 4
      vertex 12.5939 19.5698 2
    endloop
  endfacet
  facet normal -0.611049 0.791593 0
    outer loop
      vertex 11.107 18.422 2
      vertex 11.107 18.422 4
      vertex 12.5939 19.5698 4
    endloop
  endfacet
  facet normal -0.816289 0.577643 0
    outer loop
      vertex 10.0087 16.8699 2
      vertex 11.107 18.422 4
      vertex 11.107 18.422 2
    endloop
  endfacet
  facet normal -0.816289 0.577643 0
    outer loop
      vertex 10.0087 16.8699 2
      vertex 10.0087 16.8699 4
      vertex 11.107 18.422 4
    endloop
  endfacet
  facet normal -0.944945 0.327228 0
    outer loop
      vertex 9.34966 14.9669 2
      vertex 10.0087 16.8699 4
      vertex 10.0087 16.8699 2
    endloop
  endfacet
  facet normal -0.944945 0.327228 0
    outer loop
      vertex 9.34966 14.9669 2
      vertex 9.34966 14.9669 4
      vertex 10.0087 16.8699 4
    endloop
  endfacet
  facet normal -0.995284 0.097001 0
    outer loop
      vertex 9.12999 12.713 2
      vertex 9.34966 14.9669 4
      vertex 9.34966 14.9669 2
    endloop
  endfacet
  facet normal -0.995284 0.097001 0
    outer loop
      vertex 9.12999 12.713 2
      vertex 9.12999 12.713 4
      vertex 9.34966 14.9669 4
    endloop
  endfacet
  facet normal -0.997992 -0.0633469 0
    outer loop
      vertex 9.22833 11.1637 2
      vertex 9.12999 12.713 4
      vertex 9.12999 12.713 2
    endloop
  endfacet
  facet normal -0.997992 -0.0633469 0
    outer loop
      vertex 9.22833 11.1637 2
      vertex 9.22833 11.1637 4
      vertex 9.12999 12.713 4
    endloop
  endfacet
  facet normal -0.978632 -0.205622 0
    outer loop
      vertex 9.52333 9.75966 2
      vertex 9.22833 11.1637 4
      vertex 9.22833 11.1637 2
    endloop
  endfacet
  facet normal -0.978632 -0.205622 0
    outer loop
      vertex 9.52333 9.75966 2
      vertex 9.52333 9.75966 4
      vertex 9.22833 11.1637 4
    endloop
  endfacet
  facet normal -0.931457 -0.363852 0
    outer loop
      vertex 10.015 8.50099 2
      vertex 9.52333 9.75966 4
      vertex 9.52333 9.75966 2
    endloop
  endfacet
  facet normal -0.931457 -0.363852 0
    outer loop
      vertex 10.015 8.50099 2
      vertex 10.015 8.50099 4
      vertex 9.52333 9.75966 4
    endloop
  endfacet
  facet normal -0.849684 -0.527292 0
    outer loop
      vertex 10.6943 7.40633 2
      vertex 10.015 8.50099 4
      vertex 10.015 8.50099 2
    endloop
  endfacet
  facet normal -0.849684 -0.527292 0
    outer loop
      vertex 10.6943 7.40633 2
      vertex 10.6943 7.40633 4
      vertex 10.015 8.50099 4
    endloop
  endfacet
  facet normal -0.728341 -0.685215 0
    outer loop
      vertex 11.5523 6.49432 2
      vertex 10.6943 7.40633 4
      vertex 10.6943 7.40633 2
    endloop
  endfacet
  facet normal -0.728341 -0.685215 0
    outer loop
      vertex 11.5523 6.49432 2
      vertex 11.5523 6.49432 4
      vertex 10.6943 7.40633 4
    endloop
  endfacet
  facet normal -0.575397 -0.817874 0
    outer loop
      vertex 12.589 5.765 2
      vertex 11.5523 6.49432 4
      vertex 11.5523 6.49432 2
    endloop
  endfacet
  facet normal -0.575397 -0.817874 0
    outer loop
      vertex 12.589 5.765 2
      vertex 12.589 5.765 4
      vertex 11.5523 6.49432 4
    endloop
  endfacet
  facet normal -0.406372 -0.913708 0
    outer loop
      vertex 13.7844 5.23332 2
      vertex 12.589 5.765 4
      vertex 12.589 5.765 2
    endloop
  endfacet
  facet normal -0.406372 -0.913708 0
    outer loop
      vertex 13.7844 5.23332 2
      vertex 13.7844 5.23332 4
      vertex 12.589 5.765 4
    endloop
  endfacet
  facet normal -0.232508 -0.972595 0
    outer loop
      vertex 15.1188 4.91434 2
      vertex 13.7844 5.23332 4
      vertex 13.7844 5.23332 2
    endloop
  endfacet
  facet normal -0.232508 -0.972595 0
    outer loop
      vertex 15.1188 4.91434 2
      vertex 15.1188 4.91434 4
      vertex 13.7844 5.23332 4
    endloop
  endfacet
  facet normal -0.0719834 -0.997406 0
    outer loop
      vertex 16.592 4.80801 2
      vertex 15.1188 4.91434 4
      vertex 15.1188 4.91434 2
    endloop
  endfacet
  facet normal -0.0719834 -0.997406 0
    outer loop
      vertex 16.592 4.80801 2
      vertex 16.592 4.80801 4
      vertex 15.1188 4.91434 4
    endloop
  endfacet
  facet normal 0.0787209 -0.996897 0
    outer loop
      vertex 18.037 4.92212 2
      vertex 16.592 4.80801 4
      vertex 16.592 4.80801 2
    endloop
  endfacet
  facet normal 0.0787209 -0.996897 0
    outer loop
      vertex 18.037 4.92212 2
      vertex 18.037 4.92212 4
      vertex 16.592 4.80801 4
    endloop
  endfacet
  facet normal 0.174609 -0.984638 0
    outer loop
      vertex 39.7948 5.10933 2
      vertex 38.5205 4.88335 4
      vertex 38.5205 4.88335 2
    endloop
  endfacet
  facet normal 0.174609 -0.984638 0
    outer loop
      vertex 39.7948 5.10933 2
      vertex 39.7948 5.10933 4
      vertex 38.5205 4.88335 4
    endloop
  endfacet
  facet normal 0.297698 -0.95466 0
    outer loop
      vertex 41.0027 5.48599 2
      vertex 39.7948 5.10933 4
      vertex 39.7948 5.10933 2
    endloop
  endfacet
  facet normal 0.297698 -0.95466 0
    outer loop
      vertex 41.0027 5.48599 2
      vertex 41.0027 5.48599 4
      vertex 39.7948 5.10933 4
    endloop
  endfacet
  facet normal 0.419336 -0.907831 0
    outer loop
      vertex 42.1172 6.00076 2
      vertex 41.0027 5.48599 4
      vertex 41.0027 5.48599 2
    endloop
  endfacet
  facet normal 0.419336 -0.907831 0
    outer loop
      vertex 42.1172 6.00076 2
      vertex 42.1172 6.00076 4
      vertex 41.0027 5.48599 4
    endloop
  endfacet
  facet normal 0.541272 -0.840847 0
    outer loop
      vertex 43.1098 6.63977 2
      vertex 42.1172 6.00076 4
      vertex 42.1172 6.00076 2
    endloop
  endfacet
  facet normal 0.541272 -0.840847 0
    outer loop
      vertex 43.1098 6.63977 2
      vertex 43.1098 6.63977 4
      vertex 42.1172 6.00076 4
    endloop
  endfacet
  facet normal 0.659096 -0.752059 0
    outer loop
      vertex 43.9807 7.403 2
      vertex 43.1098 6.63977 4
      vertex 43.1098 6.63977 2
    endloop
  endfacet
  facet normal 0.659096 -0.752059 0
    outer loop
      vertex 43.9807 7.403 2
      vertex 43.9807 7.403 4
      vertex 43.1098 6.63977 4
    endloop
  endfacet
  facet normal 1 0 0
    outer loop
      vertex 43.9807 12.68 2
      vertex 43.9807 7.403 4
      vertex 43.9807 7.403 2
    endloop
  endfacet
  facet normal 1 0 -0
    outer loop
      vertex 43.9807 12.68 2
      vertex 43.9807 12.68 4
      vertex 43.9807 7.403 4
    endloop
  endfacet
  facet normal 0 1 0
    outer loop
      vertex 37.5047 12.68 2
      vertex 43.9807 12.68 4
      vertex 43.9807 12.68 2
    endloop
  endfacet
  facet normal 0 1 0
    outer loop
      vertex 37.5047 12.68 2
      vertex 37.5047 12.68 4
      vertex 43.9807 12.68 4
    endloop
  endfacet
  facet normal -1 0 0
    outer loop
      vertex 37.5047 10.945 2
      vertex 37.5047 12.68 4
      vertex 37.5047 12.68 2
    endloop
  endfacet
  facet normal -1 0 0
    outer loop
      vertex 37.5047 10.945 2
      vertex 37.5047 10.945 4
      vertex 37.5047 12.68 4
    endloop
  endfacet
  facet normal 0 -1 0
    outer loop
      vertex 42.0727 10.945 2
      vertex 37.5047 10.945 4
      vertex 37.5047 10.945 2
    endloop
  endfacet
  facet normal 0 -1 0
    outer loop
      vertex 42.0727 10.945 2
      vertex 42.0727 10.945 4
      vertex 37.5047 10.945 4
    endloop
  endfacet
  facet normal -1 0 0
    outer loop
      vertex 42.0727 8.18399 2
      vertex 42.0727 10.945 4
      vertex 42.0727 10.945 2
    endloop
  endfacet
  facet normal -1 0 0
    outer loop
      vertex 42.0727 8.18399 2
      vertex 42.0727 8.18399 4
      vertex 42.0727 10.945 4
    endloop
  endfacet
  facet normal -0.635041 0.772478 0
    outer loop
      vertex 41.4825 7.69878 2
      vertex 42.0727 8.18399 4
      vertex 42.0727 8.18399 2
    endloop
  endfacet
  facet normal -0.635041 0.772478 0
    outer loop
      vertex 41.4825 7.69878 2
      vertex 41.4825 7.69878 4
      vertex 42.0727 8.18399 4
    endloop
  endfacet
  facet normal -0.508159 0.861263 0
    outer loop
      vertex 40.7825 7.28577 2
      vertex 41.4825 7.69878 4
      vertex 41.4825 7.69878 2
    endloop
  endfacet
  facet normal -0.508159 0.861263 0
    outer loop
      vertex 40.7825 7.28577 2
      vertex 40.7825 7.28577 4
      vertex 41.4825 7.69878 4
    endloop
  endfacet
  facet normal -0.387876 0.921712 0
    outer loop
      vertex 39.9727 6.94499 2
      vertex 40.7825 7.28577 4
      vertex 40.7825 7.28577 2
    endloop
  endfacet
  facet normal -0.387876 0.921712 0
    outer loop
      vertex 39.9727 6.94499 2
      vertex 39.9727 6.94499 4
      vertex 40.7825 7.28577 4
    endloop
  endfacet
  facet normal -0.274809 0.961499 0
    outer loop
      vertex 39.0864 6.69167 2
      vertex 39.9727 6.94499 4
      vertex 39.9727 6.94499 2
    endloop
  endfacet
  facet normal -0.274809 0.961499 0
    outer loop
      vertex 39.0864 6.69167 2
      vertex 39.0864 6.69167 4
      vertex 39.9727 6.94499 4
    endloop
  endfacet
  facet normal -0.16114 0.986932 0
    outer loop
      vertex 38.1554 6.53966 2
      vertex 39.0864 6.69167 4
      vertex 39.0864 6.69167 2
    endloop
  endfacet
  facet normal -0.16114 0.986932 0
    outer loop
      vertex 38.1554 6.53966 2
      vertex 38.1554 6.53966 4
      vertex 39.0864 6.69167 4
    endloop
  endfacet
  facet normal -0.051853 0.998655 0
    outer loop
      vertex 37.1797 6.489 2
      vertex 38.1554 6.53966 4
      vertex 38.1554 6.53966 2
    endloop
  endfacet
  facet normal -0.051853 0.998655 0
    outer loop
      vertex 37.1797 6.489 2
      vertex 37.1797 6.489 4
      vertex 38.1554 6.53966 4
    endloop
  endfacet
  facet normal 0.113481 0.99354 0
    outer loop
      vertex 35.5562 6.67444 2
      vertex 37.1797 6.489 4
      vertex 37.1797 6.489 2
    endloop
  endfacet
  facet normal 0.113481 0.99354 -0
    outer loop
      vertex 35.5562 6.67444 2
      vertex 35.5562 6.67444 4
      vertex 37.1797 6.489 4
    endloop
  endfacet
  facet normal 0.376088 0.926584 0
    outer loop
      vertex 34.1855 7.23077 2
      vertex 35.5562 6.67444 4
      vertex 35.5562 6.67444 2
    endloop
  endfacet
  facet normal 0.376088 0.926584 -0
    outer loop
      vertex 34.1855 7.23077 2
      vertex 34.1855 7.23077 4
      vertex 35.5562 6.67444 4
    endloop
  endfacet
  facet normal 0.638448 0.769665 0
    outer loop
      vertex 33.0677 8.15799 2
      vertex 34.1855 7.23077 4
      vertex 34.1855 7.23077 2
    endloop
  endfacet
  facet normal 0.638448 0.769665 -0
    outer loop
      vertex 33.0677 8.15799 2
      vertex 33.0677 8.15799 4
      vertex 34.1855 7.23077 4
    endloop
  endfacet
  facet normal 0.834099 0.551614 0
    outer loop
      vertex 32.2422 9.40633 2
      vertex 33.0677 8.15799 4
      vertex 33.0677 8.15799 2
    endloop
  endfacet
  facet normal 0.834099 0.551614 -0
    outer loop
      vertex 32.2422 9.40633 2
      vertex 32.2422 9.40633 4
      vertex 33.0677 8.15799 4
    endloop
  endfacet
  facet normal 0.950688 0.310148 0
    outer loop
      vertex 31.7468 10.9247 2
      vertex 32.2422 9.40633 4
      vertex 32.2422 9.40633 2
    endloop
  endfacet
  facet normal 0.950688 0.310148 -0
    outer loop
      vertex 31.7468 10.9247 2
      vertex 31.7468 10.9247 4
      vertex 32.2422 9.40633 4
    endloop
  endfacet
  facet normal 0.995766 0.0919291 0
    outer loop
      vertex 31.5817 12.713 2
      vertex 31.7468 10.9247 4
      vertex 31.7468 10.9247 2
    endloop
  endfacet
  facet normal 0.995766 0.0919291 -0
    outer loop
      vertex 31.5817 12.713 2
      vertex 31.5817 12.713 4
      vertex 31.7468 10.9247 4
    endloop
  endfacet
  facet normal 0.996234 -0.0867108 0
    outer loop
      vertex 31.7372 14.4989 2
      vertex 31.5817 12.713 4
      vertex 31.5817 12.713 2
    endloop
  endfacet
  facet normal 0.996234 -0.0867108 0
    outer loop
      vertex 31.7372 14.4989 2
      vertex 31.7372 14.4989 4
      vertex 31.5817 12.713 4
    endloop
  endfacet
  facet normal 0.954712 -0.297533 0
    outer loop
      vertex 32.2035 15.9952 2
      vertex 31.7372 14.4989 4
      vertex 31.7372 14.4989 2
    endloop
  endfacet
  facet normal 0.954712 -0.297533 0
    outer loop
      vertex 32.2035 15.9952 2
      vertex 32.2035 15.9952 4
      vertex 31.7372 14.4989 4
    endloop
  endfacet
  facet normal 0.840725 -0.541462 0
    outer loop
      vertex 32.9807 17.202 2
      vertex 32.2035 15.9952 4
      vertex 32.2035 15.9952 2
    endloop
  endfacet
  facet normal 0.840725 -0.541462 0
    outer loop
      vertex 32.9807 17.202 2
      vertex 32.9807 17.202 4
      vertex 32.2035 15.9952 4
    endloop
  endfacet
  facet normal 0.636914 -0.770935 0
    outer loop
      vertex 34.0526 18.0876 2
      vertex 32.9807 17.202 4
      vertex 32.9807 17.202 2
    endloop
  endfacet
  facet normal 0.636914 -0.770935 0
    outer loop
      vertex 34.0526 18.0876 2
      vertex 34.0526 18.0876 4
      vertex 32.9807 17.202 4
    endloop
  endfacet
  facet normal 0.366466 -0.930431 0
    outer loop
      vertex 35.4016 18.6189 2
      vertex 34.0526 18.0876 4
      vertex 34.0526 18.0876 2
    endloop
  endfacet
  facet normal 0.366466 -0.930431 0
    outer loop
      vertex 35.4016 18.6189 2
      vertex 35.4016 18.6189 4
      vertex 34.0526 18.0876 4
    endloop
  endfacet
  facet normal 0.108275 -0.994121 0
    outer loop
      vertex 37.0277 18.796 2
      vertex 35.4016 18.6189 4
      vertex 35.4016 18.6189 2
    endloop
  endfacet
  facet normal 0.108275 -0.994121 0
    outer loop
      vertex 37.0277 18.796 2
      vertex 37.0277 18.796 4
      vertex 35.4016 18.6189 4
    endloop
  endfacet
  facet normal -0.0609664 -0.99814 0
    outer loop
      vertex 38.101 18.7304 2
      vertex 37.0277 18.796 4
      vertex 37.0277 18.796 2
    endloop
  endfacet
  facet normal -0.0609664 -0.99814 0
    outer loop
      vertex 38.101 18.7304 2
      vertex 38.101 18.7304 4
      vertex 37.0277 18.796 4
    endloop
  endfacet
  facet normal -0.202927 -0.979194 0
    outer loop
      vertex 39.05 18.5338 2
      vertex 38.101 18.7304 4
      vertex 38.101 18.7304 2
    endloop
  endfacet
  facet normal -0.202927 -0.979194 0
    outer loop
      vertex 39.05 18.5338 2
      vertex 39.05 18.5338 4
      vertex 38.101 18.7304 4
    endloop
  endfacet
  facet normal -0.369312 -0.929306 0
    outer loop
      vertex 39.8747 18.206 2
      vertex 39.05 18.5338 4
      vertex 39.05 18.5338 2
    endloop
  endfacet
  facet normal -0.369312 -0.929306 0
    outer loop
      vertex 39.8747 18.206 2
      vertex 39.8747 18.206 4
      vertex 39.05 18.5338 4
    endloop
  endfacet
  facet normal -0.553557 -0.832811 0
    outer loop
      vertex 40.5832 17.7351 2
      vertex 39.8747 18.206 4
      vertex 39.8747 18.206 2
    endloop
  endfacet
  facet normal -0.553557 -0.832811 0
    outer loop
      vertex 40.5832 17.7351 2
      vertex 40.5832 17.7351 4
      vertex 39.8747 18.206 4
    endloop
  endfacet
  facet normal -0.722715 -0.691147 0
    outer loop
      vertex 41.1818 17.1091 2
      vertex 40.5832 17.7351 4
      vertex 40.5832 17.7351 2
    endloop
  endfacet
  facet normal -0.722715 -0.691147 0
    outer loop
      vertex 41.1818 17.1091 2
      vertex 41.1818 17.1091 4
      vertex 40.5832 17.7351 4
    endloop
  endfacet
  facet normal -0.847659 -0.530542 0
    outer loop
      vertex 41.6707 16.328 2
      vertex 41.1818 17.1091 4
      vertex 41.1818 17.1091 2
    endloop
  endfacet
  facet normal -0.847659 -0.530542 0
    outer loop
      vertex 41.6707 16.328 2
      vertex 41.6707 16.328 4
      vertex 41.1818 17.1091 4
    endloop
  endfacet
  facet normal 0.282798 -0.959179 0
    outer loop
      vertex 43.6447 16.91 2
      vertex 41.6707 16.328 4
      vertex 41.6707 16.328 2
    endloop
  endfacet
  facet normal 0.282798 -0.959179 0
    outer loop
      vertex 43.6447 16.91 2
      vertex 43.6447 16.91 4
      vertex 41.6707 16.328 4
    endloop
  endfacet
  facet normal 0.867313 0.497764 0
    outer loop
      vertex 42.9926 18.0462 2
      vertex 43.6447 16.91 4
      vertex 43.6447 16.91 2
    endloop
  endfacet
  facet normal 0.867313 0.497764 -0
    outer loop
      vertex 42.9926 18.0462 2
      vertex 42.9926 18.0462 4
      vertex 43.6447 16.91 4
    endloop
  endfacet
  facet normal 0.744971 0.667096 0
    outer loop
      vertex 42.179 18.9549 2
      vertex 42.9926 18.0462 4
      vertex 42.9926 18.0462 2
    endloop
  endfacet
  facet normal 0.744971 0.667096 -0
    outer loop
      vertex 42.179 18.9549 2
      vertex 42.179 18.9549 4
      vertex 42.9926 18.0462 4
    endloop
  endfacet
  facet normal 0.572589 0.819843 0
    outer loop
      vertex 41.2037 19.636 2
      vertex 42.179 18.9549 4
      vertex 42.179 18.9549 2
    endloop
  endfacet
  facet normal 0.572589 0.819843 -0
    outer loop
      vertex 41.2037 19.636 2
      vertex 41.2037 19.636 4
      vertex 42.179 18.9549 4
    endloop
  endfacet
  facet normal 0.377375 0.92606 0
    outer loop
      vertex 40.0422 20.1093 2
      vertex 41.2037 19.636 4
      vertex 41.2037 19.636 2
    endloop
  endfacet
  facet normal 0.377375 0.92606 -0
    outer loop
      vertex 40.0422 20.1093 2
      vertex 40.0422 20.1093 4
      vertex 41.2037 19.636 4
    endloop
  endfacet
  facet normal 0.202416 0.9793 0
    outer loop
      vertex 38.6682 20.3933 2
      vertex 40.0422 20.1093 4
      vertex 40.0422 20.1093 2
    endloop
  endfacet
  facet normal 0.202416 0.9793 -0
    outer loop
      vertex 38.6682 20.3933 2
      vertex 38.6682 20.3933 4
      vertex 40.0422 20.1093 4
    endloop
  endfacet
  facet normal 0.0595657 0.998224 0
    outer loop
      vertex 37.0817 20.488 2
      vertex 38.6682 20.3933 4
      vertex 38.6682 20.3933 2
    endloop
  endfacet
  facet normal 0.0595657 0.998224 -0
    outer loop
      vertex 37.0817 20.488 2
      vertex 37.0817 20.488 4
      vertex 38.6682 20.3933 4
    endloop
  endfacet
  facet normal -0.10085 0.994902 0
    outer loop
      vertex 34.8533 20.2621 2
      vertex 37.0817 20.488 4
      vertex 37.0817 20.488 2
    endloop
  endfacet
  facet normal -0.10085 0.994902 0
    outer loop
      vertex 34.8533 20.2621 2
      vertex 34.8533 20.2621 4
      vertex 37.0817 20.488 4
    endloop
  endfacet
  facet normal -0.340812 0.940132 0
    outer loop
      vertex 32.984 19.5844 2
      vertex 34.8533 20.2621 4
      vertex 34.8533 20.2621 2
    endloop
  endfacet
  facet normal -0.340812 0.940132 0
    outer loop
      vertex 32.984 19.5844 2
      vertex 32.984 19.5844 4
      vertex 34.8533 20.2621 4
    endloop
  endfacet
  facet normal -0.598909 0.800817 0
    outer loop
      vertex 31.4737 18.455 2
      vertex 32.984 19.5844 4
      vertex 32.984 19.5844 2
    endloop
  endfacet
  facet normal -0.598909 0.800817 0
    outer loop
      vertex 31.4737 18.455 2
      vertex 31.4737 18.455 4
      vertex 32.984 19.5844 4
    endloop
  endfacet
  facet normal -0.811791 0.583948 0
    outer loop
      vertex 30.3649 16.9134 2
      vertex 31.4737 18.455 4
      vertex 31.4737 18.455 2
    endloop
  endfacet
  facet normal -0.811791 0.583948 0
    outer loop
      vertex 30.3649 16.9134 2
      vertex 30.3649 16.9134 4
      vertex 31.4737 18.455 4
    endloop
  endfacet
  facet normal -0.944557 0.328347 0
    outer loop
      vertex 29.6995 14.9994 2
      vertex 30.3649 16.9134 4
      vertex 30.3649 16.9134 2
    endloop
  endfacet
  facet normal -0.944557 0.328347 0
    outer loop
      vertex 29.6995 14.9994 2
      vertex 29.6995 14.9994 4
      vertex 30.3649 16.9134 4
    endloop
  endfacet
  facet normal -0.995329 0.0965411 0
    outer loop
      vertex 29.4777 12.713 2
      vertex 29.6995 14.9994 4
      vertex 29.6995 14.9994 2
    endloop
  endfacet
  facet normal -0.995329 0.0965411 0
    outer loop
      vertex 29.4777 12.713 2
      vertex 29.4777 12.713 4
      vertex 29.6995 14.9994 4
    endloop
  endfacet
  facet normal -0.997836 -0.0657554 0
    outer loop
      vertex 29.5795 11.1685 2
      vertex 29.4777 12.713 4
      vertex 29.4777 12.713 2
    endloop
  endfacet
  facet normal -0.997836 -0.0657554 0
    outer loop
      vertex 29.5795 11.1685 2
      vertex 29.5795 11.1685 4
      vertex 29.4777 12.713 4
    endloop
  endfacet
  facet normal -0.977161 -0.212502 0
    outer loop
      vertex 29.8848 9.76454 2
      vertex 29.5795 11.1685 4
      vertex 29.5795 11.1685 2
    endloop
  endfacet
  facet normal -0.977161 -0.212502 0
    outer loop
      vertex 29.8848 9.76454 2
      vertex 29.8848 9.76454 4
      vertex 29.5795 11.1685 4
    endloop
  endfacet
  facet normal -0.927594 -0.373589 0
    outer loop
      vertex 30.3937 8.50099 2
      vertex 29.8848 9.76454 4
      vertex 29.8848 9.76454 2
    endloop
  endfacet
  facet normal -0.927594 -0.373589 0
    outer loop
      vertex 30.3937 8.50099 2
      vertex 30.3937 8.50099 4
      vertex 29.8848 9.76454 4
    endloop
  endfacet
  facet normal -0.842937 -0.538012 0
    outer loop
      vertex 31.096 7.40077 2
      vertex 30.3937 8.50099 4
      vertex 30.3937 8.50099 2
    endloop
  endfacet
  facet normal -0.842937 -0.538012 0
    outer loop
      vertex 31.096 7.40077 2
      vertex 31.096 7.40077 4
      vertex 30.3937 8.50099 4
    endloop
  endfacet
  facet normal -0.71881 -0.695206 0
    outer loop
      vertex 31.9799 6.48677 2
      vertex 31.096 7.40077 4
      vertex 31.096 7.40077 2
    endloop
  endfacet
  facet normal -0.71881 -0.695206 0
    outer loop
      vertex 31.9799 6.48677 2
      vertex 31.9799 6.48677 4
      vertex 31.096 7.40077 4
    endloop
  endfacet
  facet normal -0.563926 -0.825825 0
    outer loop
      vertex 33.0457 5.75899 2
      vertex 31.9799 6.48677 4
      vertex 31.9799 6.48677 2
    endloop
  endfacet
  facet normal -0.563926 -0.825825 0
    outer loop
      vertex 33.0457 5.75899 2
      vertex 33.0457 5.75899 4
      vertex 31.9799 6.48677 4
    endloop
  endfacet
  facet normal -0.394429 -0.918926 0
    outer loop
      vertex 34.2766 5.23065 2
      vertex 33.0457 5.75899 4
      vertex 33.0457 5.75899 2
    endloop
  endfacet
  facet normal -0.394429 -0.918926 0
    outer loop
      vertex 34.2766 5.23065 2
      vertex 34.2766 5.23065 4
      vertex 33.0457 5.75899 4
    endloop
  endfacet
  facet normal -0.22417 -0.97455 0
    outer loop
      vertex 35.6546 4.91368 2
      vertex 34.2766 5.23065 4
      vertex 34.2766 5.23065 2
    endloop
  endfacet
  facet normal -0.22417 -0.97455 0
    outer loop
      vertex 35.6546 4.91368 2
      vertex 35.6546 4.91368 4
      vertex 34.2766 5.23065 4
    endloop
  endfacet
  facet normal -0.0691189 -0.997608 0
    outer loop
      vertex 37.1797 4.80801 2
      vertex 35.6546 4.91368 4
      vertex 35.6546 4.91368 2
    endloop
  endfacet
  facet normal -0.0691189 -0.997608 0
    outer loop
      vertex 37.1797 4.80801 2
      vertex 37.1797 4.80801 4
      vertex 35.6546 4.91368 4
    endloop
  endfacet
  facet normal 0.0560974 -0.998425 0
    outer loop
      vertex 38.5205 4.88335 2
      vertex 37.1797 4.80801 4
      vertex 37.1797 4.80801 2
    endloop
  endfacet
  facet normal 0.0560974 -0.998425 0
    outer loop
      vertex 38.5205 4.88335 2
      vertex 38.5205 4.88335 4
      vertex 37.1797 4.80801 4
    endloop
  endfacet
endsolid OpenSCAD_Model
