solid OpenSCAD_Model
  facet normal 0 0 -1
    outer loop
      vertex 22.5019 7.6221 2
      vertex 20.2681 7.91533 2
      vertex 21.525 9.672 2
    endloop
  endfacet
  facet normal -0 0 -1
    outer loop
      vertex 21.6165 6.6241 2
      vertex 20.561 5.83499 2
      vertex 20.2681 7.91533 2
    endloop
  endfacet
  facet normal 0 0 -1
    outer loop
      vertex 21.6165 6.6241 2
      vertex 20.2681 7.91533 2
      vertex 22.5019 7.6221 2
    endloop
  endfacet
  facet normal 0 -0 -1
    outer loop
      vertex 36.9847 6.489 2
      vertex 36.9847 4.80801 2
      vertex 35.4871 4.91368 2
    endloop
  endfacet
  facet normal 0 0 -1
    outer loop
      vertex 31.8727 6.48788 2
      vertex 32.9647 8.16899 2
      vertex 34.0554 7.23566 2
    endloop
  endfacet
  facet normal 0 0 -1
    outer loop
      vertex 21.525 9.672 2
      vertex 23.217 8.82899 2
      vertex 22.5019 7.6221 2
    endloop
  endfacet
  facet normal 0 0 -1
    outer loop
      vertex 32.9217 5.75899 2
      vertex 34.0554 7.23566 2
      vertex 34.1327 5.23065 2
    endloop
  endfacet
  facet normal 0 0 -1
    outer loop
      vertex 18.037 4.92212 2
      vertex 18.6561 6.86133 2
      vertex 19.36 5.26443 2
    endloop
  endfacet
  facet normal 0 0 -1
    outer loop
      vertex 18.037 4.92212 2
      vertex 16.689 6.50999 2
      vertex 18.6561 6.86133 2
    endloop
  endfacet
  facet normal 0 0 -1
    outer loop
      vertex 18.6561 6.86133 2
      vertex 20.561 5.83499 2
      vertex 19.36 5.26443 2
    endloop
  endfacet
  facet normal 0 -0 -1
    outer loop
      vertex 20.2681 7.91533 2
      vertex 20.561 5.83499 2
      vertex 18.6561 6.86133 2
    endloop
  endfacet
  facet normal -0 0 -1
    outer loop
      vertex 18.037 4.92212 2
      vertex 16.592 4.80801 2
      vertex 16.689 6.50999 2
    endloop
  endfacet
  facet normal -0 0 -1
    outer loop
      vertex 16.689 6.50999 2
      vertex 15.1188 4.91434 2
      vertex 15.1303 6.6991 2
    endloop
  endfacet
  facet normal 0 0 -1
    outer loop
      vertex 12.589 5.765 2
      vertex 11.5523 6.49432 2
      vertex 13.8023 7.26643 2
    endloop
  endfacet
  facet normal 0 0 -1
    outer loop
      vertex 10.015 8.50099 2
      vertex 11.8872 9.46843 2
      vertex 10.6943 7.40633 2
    endloop
  endfacet
  facet normal 0 0 -1
    outer loop
      vertex 10.015 8.50099 2
      vertex 9.52333 9.75966 2
      vertex 11.8872 9.46843 2
    endloop
  endfacet
  facet normal 0 0 -1
    outer loop
      vertex 9.52333 9.75966 2
      vertex 9.22833 11.1637 2
      vertex 11.3965 10.9684 2
    endloop
  endfacet
  facet normal 0 0 -1
    outer loop
      vertex 9.22833 11.1637 2
      vertex 9.12999 12.713 2
      vertex 11.233 12.712 2
    endloop
  endfacet
  facet normal 0 0 -1
    outer loop
      vertex 9.12999 12.713 2
      vertex 9.34966 14.9669 2
      vertex 11.39 14.466 2
    endloop
  endfacet
  facet normal 0 0 -1
    outer loop
      vertex 9.34966 14.9669 2
      vertex 10.0087 16.8699 2
      vertex 11.861 15.952 2
    endloop
  endfacet
  facet normal 0 0 -1
    outer loop
      vertex 11.861 15.952 2
      vertex 11.107 18.422 2
      vertex 12.646 17.17 2
    endloop
  endfacet
  facet normal 0 0 -1
    outer loop
      vertex 12.646 17.17 2
      vertex 12.5939 19.5698 2
      vertex 13.7135 18.0733 2
    endloop
  endfacet
  facet normal 0 0 -1
    outer loop
      vertex 13.7135 18.0733 2
      vertex 12.5939 19.5698 2
      vertex 14.4185 20.2584 2
    endloop
  endfacet
  facet normal 0 0 -1
    outer loop
      vertex 15.0322 18.6153 2
      vertex 16.581 20.488 2
      vertex 16.602 18.796 2
    endloop
  endfacet
  facet normal 0 -0 -1
    outer loop
      vertex 18.121 20.3824 2
      vertex 18.566 18.4849 2
      vertex 17.633 18.7182 2
    endloop
  endfacet
  facet normal 0 0 -1
    outer loop
      vertex 19.4823 20.0658 2
      vertex 19.401 18.096 2
      vertex 18.566 18.4849 2
    endloop
  endfacet
  facet normal 0 0 -1
    outer loop
      vertex 20.665 19.538 2
      vertex 20.1152 17.56 2
      vertex 19.401 18.096 2
    endloop
  endfacet
  facet normal 0 0 -1
    outer loop
      vertex 21.6618 18.8027 2
      vertex 20.6859 16.8853 2
      vertex 20.1152 17.56 2
    endloop
  endfacet
  facet normal 0 -0 -1
    outer loop
      vertex 21.6618 18.8027 2
      vertex 22.4654 17.8633 2
      vertex 20.6859 16.8853 2
    endloop
  endfacet
  facet normal 0 0 -1
    outer loop
      vertex 20.6859 16.8853 2
      vertex 22.4654 17.8633 2
      vertex 21.113 16.072 2
    endloop
  endfacet
  facet normal 0 0 -1
    outer loop
      vertex 21.113 16.072 2
      vertex 22.4654 17.8633 2
      vertex 23.076 16.72 2
    endloop
  endfacet
  facet normal 0 -0 -1
    outer loop
      vertex 30.3047 16.8774 2
      vertex 32.1532 15.9881 2
      vertex 29.6357 14.9724 2
    endloop
  endfacet
  facet normal 0 -0 -1
    outer loop
      vertex 20.665 19.538 2
      vertex 21.6618 18.8027 2
      vertex 20.1152 17.56 2
    endloop
  endfacet
  facet normal 0 0 -1
    outer loop
      vertex 41.8344 9.34854 2
      vertex 44.1702 9.79077 2
      vertex 43.6607 8.528 2
    endloop
  endfacet
  facet normal 0 -0 -1
    outer loop
      vertex 19.4823 20.0658 2
      vertex 20.665 19.538 2
      vertex 19.401 18.096 2
    endloop
  endfacet
  facet normal 0 -0 -1
    outer loop
      vertex 42.3064 10.8812 2
      vertex 44.1702 9.79077 2
      vertex 41.8344 9.34854 2
    endloop
  endfacet
  facet normal 0 0 -1
    outer loop
      vertex 18.121 20.3824 2
      vertex 19.4823 20.0658 2
      vertex 18.566 18.4849 2
    endloop
  endfacet
  facet normal 0 0 -1
    outer loop
      vertex 42.4637 12.713 2
      vertex 44.4771 14.2427 2
      vertex 44.5777 12.713 2
    endloop
  endfacet
  facet normal 0 0 -1
    outer loop
      vertex 16.581 20.488 2
      vertex 18.121 20.3824 2
      vertex 17.633 18.7182 2
    endloop
  endfacet
  facet normal -0 0 -1
    outer loop
      vertex 42.1046 18.8538 2
      vertex 39.9552 18.0755 2
      vertex 41.0517 19.563 2
    endloop
  endfacet
  facet normal 0 0 -1
    outer loop
      vertex 16.602 18.796 2
      vertex 16.581 20.488 2
      vertex 17.633 18.7182 2
    endloop
  endfacet
  facet normal -0 0 -1
    outer loop
      vertex 43.6717 16.876 2
      vertex 41.8295 15.9588 2
      vertex 42.978 17.9581 2
    endloop
  endfacet
  facet normal 0 0 -1
    outer loop
      vertex 15.0322 18.6153 2
      vertex 14.4185 20.2584 2
      vertex 16.581 20.488 2
    endloop
  endfacet
  facet normal -0 0 -1
    outer loop
      vertex 15.0322 18.6153 2
      vertex 13.7135 18.0733 2
      vertex 14.4185 20.2584 2
    endloop
  endfacet
  facet normal 0 0 -1
    outer loop
      vertex 12.646 17.17 2
      vertex 11.107 18.422 2
      vertex 12.5939 19.5698 2
    endloop
  endfacet
  facet normal 0 0 -1
    outer loop
      vertex 11.861 15.952 2
      vertex 10.0087 16.8699 2
      vertex 11.107 18.422 2
    endloop
  endfacet
  facet normal 0 0 -1
    outer loop
      vertex 11.39 14.466 2
      vertex 9.34966 14.9669 2
      vertex 11.861 15.952 2
    endloop
  endfacet
  facet normal 0 0 -1
    outer loop
      vertex 11.233 12.712 2
      vertex 9.12999 12.713 2
      vertex 11.39 14.466 2
    endloop
  endfacet
  facet normal 0 0 -1
    outer loop
      vertex 11.3965 10.9684 2
      vertex 9.22833 11.1637 2
      vertex 11.233 12.712 2
    endloop
  endfacet
  facet normal 0 0 -1
    outer loop
      vertex 11.8872 9.46843 2
      vertex 9.52333 9.75966 2
      vertex 11.3965 10.9684 2
    endloop
  endfacet
  facet normal 0 0 -1
    outer loop
      vertex 10.6943 7.40633 2
      vertex 11.8872 9.46843 2
      vertex 12.705 8.21199 2
    endloop
  endfacet
  facet normal 0 0 -1
    outer loop
      vertex 11.5523 6.49432 2
      vertex 10.6943 7.40633 2
      vertex 12.705 8.21199 2
    endloop
  endfacet
  facet normal -0 0 -1
    outer loop
      vertex 13.8023 7.26643 2
      vertex 11.5523 6.49432 2
      vertex 12.705 8.21199 2
    endloop
  endfacet
  facet normal 0 0 -1
    outer loop
      vertex 13.7844 5.23332 2
      vertex 12.589 5.765 2
      vertex 13.8023 7.26643 2
    endloop
  endfacet
  facet normal -0 0 -1
    outer loop
      vertex 15.1303 6.6991 2
      vertex 13.7844 5.23332 2
      vertex 13.8023 7.26643 2
    endloop
  endfacet
  facet normal 0 0 -1
    outer loop
      vertex 15.1303 6.6991 2
      vertex 15.1188 4.91434 2
      vertex 13.7844 5.23332 2
    endloop
  endfacet
  facet normal 0 0 -1
    outer loop
      vertex 16.689 6.50999 2
      vertex 16.592 4.80801 2
      vertex 15.1188 4.91434 2
    endloop
  endfacet
  facet normal 0 0 -1
    outer loop
      vertex 34.1327 5.23065 2
      vertex 35.3954 6.67566 2
      vertex 35.4871 4.91368 2
    endloop
  endfacet
  facet normal 0 0 -1
    outer loop
      vertex 41.0477 8.11499 2
      vertex 41.8344 9.34854 2
      vertex 42.9614 7.42377 2
    endloop
  endfacet
  facet normal 0 0 -1
    outer loop
      vertex 42.3064 10.8812 2
      vertex 42.4637 12.713 2
      vertex 44.4758 11.1858 2
    endloop
  endfacet
  facet normal -0 0 -1
    outer loop
      vertex 42.0847 6.50444 2
      vertex 41.0307 5.76999 2
      vertex 39.9669 7.21165 2
    endloop
  endfacet
  facet normal 0 0 -1
    outer loop
      vertex 39.9669 7.21165 2
      vertex 39.8194 5.23555 2
      vertex 38.6126 6.66966 2
    endloop
  endfacet
  facet normal 0 0 -1
    outer loop
      vertex 42.3052 14.4714 2
      vertex 41.8295 15.9588 2
      vertex 44.1751 15.6303 2
    endloop
  endfacet
  facet normal 0 -0 -1
    outer loop
      vertex 37.0057 20.488 2
      vertex 37.0067 18.796 2
      vertex 35.3887 18.6183 2
    endloop
  endfacet
  facet normal 0 0 -1
    outer loop
      vertex 39.9552 18.0755 2
      vertex 38.6118 18.6159 2
      vertex 39.8409 20.0769 2
    endloop
  endfacet
  facet normal 0 0 -1
    outer loop
      vertex 38.6118 18.6159 2
      vertex 37.0067 18.796 2
      vertex 38.4922 20.3852 2
    endloop
  endfacet
  facet normal 0 0 -1
    outer loop
      vertex 42.1046 18.8538 2
      vertex 41.0367 17.175 2
      vertex 39.9552 18.0755 2
    endloop
  endfacet
  facet normal -0 0 -1
    outer loop
      vertex 42.978 17.9581 2
      vertex 41.0367 17.175 2
      vertex 42.1046 18.8538 2
    endloop
  endfacet
  facet normal 0 0 -1
    outer loop
      vertex 34.7944 20.2591 2
      vertex 37.0057 20.488 2
      vertex 35.3887 18.6183 2
    endloop
  endfacet
  facet normal 0 -0 -1
    outer loop
      vertex 32.9324 19.5724 2
      vertex 32.9487 17.197 2
      vertex 31.4197 18.428 2
    endloop
  endfacet
  facet normal 0 -0 -1
    outer loop
      vertex 34.7944 20.2591 2
      vertex 35.3887 18.6183 2
      vertex 34.0361 18.0853 2
    endloop
  endfacet
  facet normal 0 -0 -1
    outer loop
      vertex 31.6776 10.9352 2
      vertex 32.1603 9.42055 2
      vertex 29.8127 9.77832 2
    endloop
  endfacet
  facet normal 0 0 -1
    outer loop
      vertex 29.8127 9.77832 2
      vertex 32.1603 9.42055 2
      vertex 30.3127 8.51099 2
    endloop
  endfacet
  facet normal 0 0 -1
    outer loop
      vertex 34.0554 7.23566 2
      vertex 35.3954 6.67566 2
      vertex 34.1327 5.23065 2
    endloop
  endfacet
  facet normal -0 0 -1
    outer loop
      vertex 36.9847 6.489 2
      vertex 35.4871 4.91368 2
      vertex 35.3954 6.67566 2
    endloop
  endfacet
  facet normal 0 0 -1
    outer loop
      vertex 36.9847 4.80801 2
      vertex 36.9847 6.489 2
      vertex 38.4707 4.9149 2
    endloop
  endfacet
  facet normal 0 0 -1
    outer loop
      vertex 44.4771 14.2427 2
      vertex 42.3052 14.4714 2
      vertex 44.1751 15.6303 2
    endloop
  endfacet
  facet normal 0 0 -1
    outer loop
      vertex 32.9217 5.75899 2
      vertex 31.8727 6.48788 2
      vertex 34.0554 7.23566 2
    endloop
  endfacet
  facet normal -0 0 -1
    outer loop
      vertex 32.9647 8.16899 2
      vertex 31.0031 7.40521 2
      vertex 32.1603 9.42055 2
    endloop
  endfacet
  facet normal 0 0 -1
    outer loop
      vertex 31.8727 6.48788 2
      vertex 31.0031 7.40521 2
      vertex 32.9647 8.16899 2
    endloop
  endfacet
  facet normal 0 0 -1
    outer loop
      vertex 32.1603 9.42055 2
      vertex 31.0031 7.40521 2
      vertex 30.3127 8.51099 2
    endloop
  endfacet
  facet normal 0 0 -1
    outer loop
      vertex 31.6776 10.9352 2
      vertex 29.5127 11.179 2
      vertex 31.5167 12.713 2
    endloop
  endfacet
  facet normal 0 0 -1
    outer loop
      vertex 29.8127 9.77832 2
      vertex 29.5127 11.179 2
      vertex 31.6776 10.9352 2
    endloop
  endfacet
  facet normal 0 0 -1
    outer loop
      vertex 31.5167 12.713 2
      vertex 29.4127 12.713 2
      vertex 31.6758 14.4934 2
    endloop
  endfacet
  facet normal 0 0 -1
    outer loop
      vertex 29.5127 11.179 2
      vertex 29.4127 12.713 2
      vertex 31.5167 12.713 2
    endloop
  endfacet
  facet normal 0 0 -1
    outer loop
      vertex 31.6758 14.4934 2
      vertex 29.6357 14.9724 2
      vertex 32.1532 15.9881 2
    endloop
  endfacet
  facet normal 0 0 -1
    outer loop
      vertex 29.4127 12.713 2
      vertex 29.6357 14.9724 2
      vertex 31.6758 14.4934 2
    endloop
  endfacet
  facet normal 0 0 -1
    outer loop
      vertex 30.3047 16.8774 2
      vertex 31.4197 18.428 2
      vertex 32.1532 15.9881 2
    endloop
  endfacet
  facet normal -0 0 -1
    outer loop
      vertex 32.9487 17.197 2
      vertex 32.1532 15.9881 2
      vertex 31.4197 18.428 2
    endloop
  endfacet
  facet normal -0 0 -1
    outer loop
      vertex 34.0361 18.0853 2
      vertex 32.9487 17.197 2
      vertex 32.9324 19.5724 2
    endloop
  endfacet
  facet normal 0 0 -1
    outer loop
      vertex 34.7944 20.2591 2
      vertex 34.0361 18.0853 2
      vertex 32.9324 19.5724 2
    endloop
  endfacet
  facet normal 0 0 -1
    outer loop
      vertex 37.0057 20.488 2
      vertex 38.4922 20.3852 2
      vertex 37.0067 18.796 2
    endloop
  endfacet
  facet normal 0 0 -1
    outer loop
      vertex 38.6118 18.6159 2
      vertex 38.4922 20.3852 2
      vertex 39.8409 20.0769 2
    endloop
  endfacet
  facet normal 0 0 -1
    outer loop
      vertex 39.9552 18.0755 2
      vertex 39.8409 20.0769 2
      vertex 41.0517 19.563 2
    endloop
  endfacet
  facet normal 0 0 -1
    outer loop
      vertex 42.978 17.9581 2
      vertex 41.8295 15.9588 2
      vertex 41.0367 17.175 2
    endloop
  endfacet
  facet normal 0 -0 -1
    outer loop
      vertex 43.6717 16.876 2
      vertex 44.1751 15.6303 2
      vertex 41.8295 15.9588 2
    endloop
  endfacet
  facet normal -0 0 -1
    outer loop
      vertex 44.4771 14.2427 2
      vertex 42.4637 12.713 2
      vertex 42.3052 14.4714 2
    endloop
  endfacet
  facet normal -0 0 -1
    outer loop
      vertex 44.5777 12.713 2
      vertex 44.4758 11.1858 2
      vertex 42.4637 12.713 2
    endloop
  endfacet
  facet normal 0 0 -1
    outer loop
      vertex 44.4758 11.1858 2
      vertex 44.1702 9.79077 2
      vertex 42.3064 10.8812 2
    endloop
  endfacet
  facet normal -0 0 -1
    outer loop
      vertex 43.6607 8.528 2
      vertex 42.9614 7.42377 2
      vertex 41.8344 9.34854 2
    endloop
  endfacet
  facet normal -0 0 -1
    outer loop
      vertex 42.9614 7.42377 2
      vertex 42.0847 6.50444 2
      vertex 41.0477 8.11499 2
    endloop
  endfacet
  facet normal 0 -0 -1
    outer loop
      vertex 41.0477 8.11499 2
      vertex 42.0847 6.50444 2
      vertex 39.9669 7.21165 2
    endloop
  endfacet
  facet normal 0 -0 -1
    outer loop
      vertex 39.9669 7.21165 2
      vertex 41.0307 5.76999 2
      vertex 39.8194 5.23555 2
    endloop
  endfacet
  facet normal 0 0 -1
    outer loop
      vertex 36.9847 6.489 2
      vertex 38.6126 6.66966 2
      vertex 38.4707 4.9149 2
    endloop
  endfacet
  facet normal 0 -0 -1
    outer loop
      vertex 38.6126 6.66966 2
      vertex 39.8194 5.23555 2
      vertex 38.4707 4.9149 2
    endloop
  endfacet
  facet normal 0 0 1
    outer loop
      vertex 21.525 9.672 4
      vertex 20.2681 7.91533 4
      vertex 22.5019 7.6221 4
    endloop
  endfacet
  facet normal 0 0 1
    outer loop
      vertex 20.2681 7.91533 4
      vertex 20.561 5.83499 4
      vertex 21.6165 6.6241 4
    endloop
  endfacet
  facet normal 0 0 1
    outer loop
      vertex 22.5019 7.6221 4
      vertex 20.2681 7.91533 4
      vertex 21.6165 6.6241 4
    endloop
  endfacet
  facet normal -0 0 1
    outer loop
      vertex 35.4871 4.91368 4
      vertex 36.9847 4.80801 4
      vertex 36.9847 6.489 4
    endloop
  endfacet
  facet normal 0 0 1
    outer loop
      vertex 34.0554 7.23566 4
      vertex 32.9647 8.16899 4
      vertex 31.8727 6.48788 4
    endloop
  endfacet
  facet normal 0 -0 1
    outer loop
      vertex 22.5019 7.6221 4
      vertex 23.217 8.82899 4
      vertex 21.525 9.672 4
    endloop
  endfacet
  facet normal 0 0 1
    outer loop
      vertex 34.1327 5.23065 4
      vertex 34.0554 7.23566 4
      vertex 32.9217 5.75899 4
    endloop
  endfacet
  facet normal 0 0 1
    outer loop
      vertex 19.36 5.26443 4
      vertex 18.6561 6.86133 4
      vertex 18.037 4.92212 4
    endloop
  endfacet
  facet normal 0 0 1
    outer loop
      vertex 18.6561 6.86133 4
      vertex 16.689 6.50999 4
      vertex 18.037 4.92212 4
    endloop
  endfacet
  facet normal 0 -0 1
    outer loop
      vertex 19.36 5.26443 4
      vertex 20.561 5.83499 4
      vertex 18.6561 6.86133 4
    endloop
  endfacet
  facet normal -0 0 1
    outer loop
      vertex 18.6561 6.86133 4
      vertex 20.561 5.83499 4
      vertex 20.2681 7.91533 4
    endloop
  endfacet
  facet normal 0 0 1
    outer loop
      vertex 16.689 6.50999 4
      vertex 16.592 4.80801 4
      vertex 18.037 4.92212 4
    endloop
  endfacet
  facet normal 0 0 1
    outer loop
      vertex 15.1303 6.6991 4
      vertex 15.1188 4.91434 4
      vertex 16.689 6.50999 4
    endloop
  endfacet
  facet normal 0 0 1
    outer loop
      vertex 13.8023 7.26643 4
      vertex 11.5523 6.49432 4
      vertex 12.589 5.765 4
    endloop
  endfacet
  facet normal 0 -0 1
    outer loop
      vertex 10.6943 7.40633 4
      vertex 11.8872 9.46843 4
      vertex 10.015 8.50099 4
    endloop
  endfacet
  facet normal 0 0 1
    outer loop
      vertex 11.8872 9.46843 4
      vertex 9.52333 9.75966 4
      vertex 10.015 8.50099 4
    endloop
  endfacet
  facet normal 0 0 1
    outer loop
      vertex 11.3965 10.9684 4
      vertex 9.22833 11.1637 4
      vertex 9.52333 9.75966 4
    endloop
  endfacet
  facet normal 0 0 1
    outer loop
      vertex 11.233 12.712 4
      vertex 9.12999 12.713 4
      vertex 9.22833 11.1637 4
    endloop
  endfacet
  facet normal 0 0 1
    outer loop
      vertex 11.39 14.466 4
      vertex 9.34966 14.9669 4
      vertex 9.12999 12.713 4
    endloop
  endfacet
  facet normal 0 0 1
    outer loop
      vertex 11.861 15.952 4
      vertex 10.0087 16.8699 4
      vertex 9.34966 14.9669 4
    endloop
  endfacet
  facet normal 0 0 1
    outer loop
      vertex 12.646 17.17 4
      vertex 11.107 18.422 4
      vertex 11.861 15.952 4
    endloop
  endfacet
  facet normal 0 0 1
    outer loop
      vertex 13.7135 18.0733 4
      vertex 12.5939 19.5698 4
      vertex 12.646 17.17 4
    endloop
  endfacet
  facet normal 0 0 1
    outer loop
      vertex 14.4185 20.2584 4
      vertex 12.5939 19.5698 4
      vertex 13.7135 18.0733 4
    endloop
  endfacet
  facet normal 0 0 1
    outer loop
      vertex 16.602 18.796 4
      vertex 16.581 20.488 4
      vertex 15.0322 18.6153 4
    endloop
  endfacet
  facet normal -0 0 1
    outer loop
      vertex 17.633 18.7182 4
      vertex 18.566 18.4849 4
      vertex 18.121 20.3824 4
    endloop
  endfacet
  facet normal -0 0 1
    outer loop
      vertex 18.566 18.4849 4
      vertex 19.401 18.096 4
      vertex 19.4823 20.0658 4
    endloop
  endfacet
  facet normal -0 0 1
    outer loop
      vertex 19.401 18.096 4
      vertex 20.1152 17.56 4
      vertex 20.665 19.538 4
    endloop
  endfacet
  facet normal -0 0 1
    outer loop
      vertex 20.1152 17.56 4
      vertex 20.6859 16.8853 4
      vertex 21.6618 18.8027 4
    endloop
  endfacet
  facet normal 0 0 1
    outer loop
      vertex 20.6859 16.8853 4
      vertex 22.4654 17.8633 4
      vertex 21.6618 18.8027 4
    endloop
  endfacet
  facet normal 0 -0 1
    outer loop
      vertex 21.113 16.072 4
      vertex 22.4654 17.8633 4
      vertex 20.6859 16.8853 4
    endloop
  endfacet
  facet normal 0 0 1
    outer loop
      vertex 23.076 16.72 4
      vertex 22.4654 17.8633 4
      vertex 21.113 16.072 4
    endloop
  endfacet
  facet normal 0 0 1
    outer loop
      vertex 29.6357 14.9724 4
      vertex 32.1532 15.9881 4
      vertex 30.3047 16.8774 4
    endloop
  endfacet
  facet normal 0 0 1
    outer loop
      vertex 20.1152 17.56 4
      vertex 21.6618 18.8027 4
      vertex 20.665 19.538 4
    endloop
  endfacet
  facet normal 0 -0 1
    outer loop
      vertex 43.6607 8.528 4
      vertex 44.1702 9.79077 4
      vertex 41.8344 9.34854 4
    endloop
  endfacet
  facet normal 0 0 1
    outer loop
      vertex 19.401 18.096 4
      vertex 20.665 19.538 4
      vertex 19.4823 20.0658 4
    endloop
  endfacet
  facet normal 0 0 1
    outer loop
      vertex 41.8344 9.34854 4
      vertex 44.1702 9.79077 4
      vertex 42.3064 10.8812 4
    endloop
  endfacet
  facet normal 0 -0 1
    outer loop
      vertex 18.566 18.4849 4
      vertex 19.4823 20.0658 4
      vertex 18.121 20.3824 4
    endloop
  endfacet
  facet normal 0 0 1
    outer loop
      vertex 44.5777 12.713 4
      vertex 44.4771 14.2427 4
      vertex 42.4637 12.713 4
    endloop
  endfacet
  facet normal 0 -0 1
    outer loop
      vertex 17.633 18.7182 4
      vertex 18.121 20.3824 4
      vertex 16.581 20.488 4
    endloop
  endfacet
  facet normal 0 0 1
    outer loop
      vertex 41.0517 19.563 4
      vertex 39.9552 18.0755 4
      vertex 42.1046 18.8538 4
    endloop
  endfacet
  facet normal 0 0 1
    outer loop
      vertex 17.633 18.7182 4
      vertex 16.581 20.488 4
      vertex 16.602 18.796 4
    endloop
  endfacet
  facet normal 0 0 1
    outer loop
      vertex 42.978 17.9581 4
      vertex 41.8295 15.9588 4
      vertex 43.6717 16.876 4
    endloop
  endfacet
  facet normal 0 0 1
    outer loop
      vertex 16.581 20.488 4
      vertex 14.4185 20.2584 4
      vertex 15.0322 18.6153 4
    endloop
  endfacet
  facet normal 0 0 1
    outer loop
      vertex 14.4185 20.2584 4
      vertex 13.7135 18.0733 4
      vertex 15.0322 18.6153 4
    endloop
  endfacet
  facet normal 0 0 1
    outer loop
      vertex 12.5939 19.5698 4
      vertex 11.107 18.422 4
      vertex 12.646 17.17 4
    endloop
  endfacet
  facet normal 0 0 1
    outer loop
      vertex 11.107 18.422 4
      vertex 10.0087 16.8699 4
      vertex 11.861 15.952 4
    endloop
  endfacet
  facet normal 0 0 1
    outer loop
      vertex 11.861 15.952 4
      vertex 9.34966 14.9669 4
      vertex 11.39 14.466 4
    endloop
  endfacet
  facet normal 0 0 1
    outer loop
      vertex 11.39 14.466 4
      vertex 9.12999 12.713 4
      vertex 11.233 12.712 4
    endloop
  endfacet
  facet normal 0 0 1
    outer loop
      vertex 11.233 12.712 4
      vertex 9.22833 11.1637 4
      vertex 11.3965 10.9684 4
    endloop
  endfacet
  facet normal 0 0 1
    outer loop
      vertex 11.3965 10.9684 4
      vertex 9.52333 9.75966 4
      vertex 11.8872 9.46843 4
    endloop
  endfacet
  facet normal 0 0 1
    outer loop
      vertex 12.705 8.21199 4
      vertex 11.8872 9.46843 4
      vertex 10.6943 7.40633 4
    endloop
  endfacet
  facet normal 0 0 1
    outer loop
      vertex 12.705 8.21199 4
      vertex 10.6943 7.40633 4
      vertex 11.5523 6.49432 4
    endloop
  endfacet
  facet normal 0 0 1
    outer loop
      vertex 12.705 8.21199 4
      vertex 11.5523 6.49432 4
      vertex 13.8023 7.26643 4
    endloop
  endfacet
  facet normal 0 0 1
    outer loop
      vertex 13.8023 7.26643 4
      vertex 12.589 5.765 4
      vertex 13.7844 5.23332 4
    endloop
  endfacet
  facet normal 0 0 1
    outer loop
      vertex 13.8023 7.26643 4
      vertex 13.7844 5.23332 4
      vertex 15.1303 6.6991 4
    endloop
  endfacet
  facet normal -0 0 1
    outer loop
      vertex 13.7844 5.23332 4
      vertex 15.1188 4.91434 4
      vertex 15.1303 6.6991 4
    endloop
  endfacet
  facet normal -0 0 1
    outer loop
      vertex 15.1188 4.91434 4
      vertex 16.592 4.80801 4
      vertex 16.689 6.50999 4
    endloop
  endfacet
  facet normal 0 0 1
    outer loop
      vertex 35.4871 4.91368 4
      vertex 35.3954 6.67566 4
      vertex 34.1327 5.23065 4
    endloop
  endfacet
  facet normal 0 0 1
    outer loop
      vertex 42.9614 7.42377 4
      vertex 41.8344 9.34854 4
      vertex 41.0477 8.11499 4
    endloop
  endfacet
  facet normal 0 0 1
    outer loop
      vertex 44.4758 11.1858 4
      vertex 42.4637 12.713 4
      vertex 42.3064 10.8812 4
    endloop
  endfacet
  facet normal 0 0 1
    outer loop
      vertex 39.9669 7.21165 4
      vertex 41.0307 5.76999 4
      vertex 42.0847 6.50444 4
    endloop
  endfacet
  facet normal -0 0 1
    outer loop
      vertex 38.6126 6.66966 4
      vertex 39.8194 5.23555 4
      vertex 39.9669 7.21165 4
    endloop
  endfacet
  facet normal 0 0 1
    outer loop
      vertex 44.1751 15.6303 4
      vertex 41.8295 15.9588 4
      vertex 42.3052 14.4714 4
    endloop
  endfacet
  facet normal 0 0 1
    outer loop
      vertex 35.3887 18.6183 4
      vertex 37.0067 18.796 4
      vertex 37.0057 20.488 4
    endloop
  endfacet
  facet normal 0 0 1
    outer loop
      vertex 39.8409 20.0769 4
      vertex 38.6118 18.6159 4
      vertex 39.9552 18.0755 4
    endloop
  endfacet
  facet normal 0 0 1
    outer loop
      vertex 38.4922 20.3852 4
      vertex 37.0067 18.796 4
      vertex 38.6118 18.6159 4
    endloop
  endfacet
  facet normal -0 0 1
    outer loop
      vertex 39.9552 18.0755 4
      vertex 41.0367 17.175 4
      vertex 42.1046 18.8538 4
    endloop
  endfacet
  facet normal 0 0 1
    outer loop
      vertex 42.1046 18.8538 4
      vertex 41.0367 17.175 4
      vertex 42.978 17.9581 4
    endloop
  endfacet
  facet normal 0 -0 1
    outer loop
      vertex 35.3887 18.6183 4
      vertex 37.0057 20.488 4
      vertex 34.7944 20.2591 4
    endloop
  endfacet
  facet normal -0 0 1
    outer loop
      vertex 31.4197 18.428 4
      vertex 32.9487 17.197 4
      vertex 32.9324 19.5724 4
    endloop
  endfacet
  facet normal 0 0 1
    outer loop
      vertex 34.0361 18.0853 4
      vertex 35.3887 18.6183 4
      vertex 34.7944 20.2591 4
    endloop
  endfacet
  facet normal -0 0 1
    outer loop
      vertex 29.8127 9.77832 4
      vertex 32.1603 9.42055 4
      vertex 31.6776 10.9352 4
    endloop
  endfacet
  facet normal 0 -0 1
    outer loop
      vertex 30.3127 8.51099 4
      vertex 32.1603 9.42055 4
      vertex 29.8127 9.77832 4
    endloop
  endfacet
  facet normal 0 -0 1
    outer loop
      vertex 34.1327 5.23065 4
      vertex 35.3954 6.67566 4
      vertex 34.0554 7.23566 4
    endloop
  endfacet
  facet normal 0 0 1
    outer loop
      vertex 35.3954 6.67566 4
      vertex 35.4871 4.91368 4
      vertex 36.9847 6.489 4
    endloop
  endfacet
  facet normal 0 0 1
    outer loop
      vertex 38.4707 4.9149 4
      vertex 36.9847 6.489 4
      vertex 36.9847 4.80801 4
    endloop
  endfacet
  facet normal 0 0 1
    outer loop
      vertex 44.1751 15.6303 4
      vertex 42.3052 14.4714 4
      vertex 44.4771 14.2427 4
    endloop
  endfacet
  facet normal 0 0 1
    outer loop
      vertex 34.0554 7.23566 4
      vertex 31.8727 6.48788 4
      vertex 32.9217 5.75899 4
    endloop
  endfacet
  facet normal 0 0 1
    outer loop
      vertex 32.1603 9.42055 4
      vertex 31.0031 7.40521 4
      vertex 32.9647 8.16899 4
    endloop
  endfacet
  facet normal 0 0 1
    outer loop
      vertex 32.9647 8.16899 4
      vertex 31.0031 7.40521 4
      vertex 31.8727 6.48788 4
    endloop
  endfacet
  facet normal -0 0 1
    outer loop
      vertex 30.3127 8.51099 4
      vertex 31.0031 7.40521 4
      vertex 32.1603 9.42055 4
    endloop
  endfacet
  facet normal 0 0 1
    outer loop
      vertex 31.5167 12.713 4
      vertex 29.5127 11.179 4
      vertex 31.6776 10.9352 4
    endloop
  endfacet
  facet normal 0 0 1
    outer loop
      vertex 31.6776 10.9352 4
      vertex 29.5127 11.179 4
      vertex 29.8127 9.77832 4
    endloop
  endfacet
  facet normal 0 0 1
    outer loop
      vertex 31.6758 14.4934 4
      vertex 29.4127 12.713 4
      vertex 31.5167 12.713 4
    endloop
  endfacet
  facet normal 0 0 1
    outer loop
      vertex 31.5167 12.713 4
      vertex 29.4127 12.713 4
      vertex 29.5127 11.179 4
    endloop
  endfacet
  facet normal 0 0 1
    outer loop
      vertex 32.1532 15.9881 4
      vertex 29.6357 14.9724 4
      vertex 31.6758 14.4934 4
    endloop
  endfacet
  facet normal 0 0 1
    outer loop
      vertex 31.6758 14.4934 4
      vertex 29.6357 14.9724 4
      vertex 29.4127 12.713 4
    endloop
  endfacet
  facet normal 0 0 1
    outer loop
      vertex 32.1532 15.9881 4
      vertex 31.4197 18.428 4
      vertex 30.3047 16.8774 4
    endloop
  endfacet
  facet normal 0 0 1
    outer loop
      vertex 31.4197 18.428 4
      vertex 32.1532 15.9881 4
      vertex 32.9487 17.197 4
    endloop
  endfacet
  facet normal 0 0 1
    outer loop
      vertex 32.9324 19.5724 4
      vertex 32.9487 17.197 4
      vertex 34.0361 18.0853 4
    endloop
  endfacet
  facet normal -0 0 1
    outer loop
      vertex 32.9324 19.5724 4
      vertex 34.0361 18.0853 4
      vertex 34.7944 20.2591 4
    endloop
  endfacet
  facet normal 0 -0 1
    outer loop
      vertex 37.0067 18.796 4
      vertex 38.4922 20.3852 4
      vertex 37.0057 20.488 4
    endloop
  endfacet
  facet normal 0 0 1
    outer loop
      vertex 39.8409 20.0769 4
      vertex 38.4922 20.3852 4
      vertex 38.6118 18.6159 4
    endloop
  endfacet
  facet normal 0 0 1
    outer loop
      vertex 41.0517 19.563 4
      vertex 39.8409 20.0769 4
      vertex 39.9552 18.0755 4
    endloop
  endfacet
  facet normal -0 0 1
    outer loop
      vertex 41.0367 17.175 4
      vertex 41.8295 15.9588 4
      vertex 42.978 17.9581 4
    endloop
  endfacet
  facet normal -0 0 1
    outer loop
      vertex 41.8295 15.9588 4
      vertex 44.1751 15.6303 4
      vertex 43.6717 16.876 4
    endloop
  endfacet
  facet normal 0 0 1
    outer loop
      vertex 42.3052 14.4714 4
      vertex 42.4637 12.713 4
      vertex 44.4771 14.2427 4
    endloop
  endfacet
  facet normal -0 0 1
    outer loop
      vertex 42.4637 12.713 4
      vertex 44.4758 11.1858 4
      vertex 44.5777 12.713 4
    endloop
  endfacet
  facet normal -0 0 1
    outer loop
      vertex 42.3064 10.8812 4
      vertex 44.1702 9.79077 4
      vertex 44.4758 11.1858 4
    endloop
  endfacet
  facet normal 0 0 1
    outer loop
      vertex 41.8344 9.34854 4
      vertex 42.9614 7.42377 4
      vertex 43.6607 8.528 4
    endloop
  endfacet
  facet normal 0 0 1
    outer loop
      vertex 41.0477 8.11499 4
      vertex 42.0847 6.50444 4
      vertex 42.9614 7.42377 4
    endloop
  endfacet
  facet normal -0 0 1
    outer loop
      vertex 39.9669 7.21165 4
      vertex 42.0847 6.50444 4
      vertex 41.0477 8.11499 4
    endloop
  endfacet
  facet normal 0 0 1
    outer loop
      vertex 39.8194 5.23555 4
      vertex 41.0307 5.76999 4
      vertex 39.9669 7.21165 4
    endloop
  endfacet
  facet normal 0 -0 1
    outer loop
      vertex 38.4707 4.9149 4
      vertex 38.6126 6.66966 4
      vertex 36.9847 6.489 4
    endloop
  endfacet
  facet normal 0 0 1
    outer loop
      vertex 38.4707 4.9149 4
      vertex 39.8194 5.23555 4
      vertex 38.6126 6.66966 4
    endloop
  endfacet
  facet normal 0.250493 -0.968118 0
    outer loop
      vertex 19.36 5.26443 2
      vertex 18.037 4.92212 4
      vertex 18.037 4.92212 2
    endloop
  endfacet
  facet normal 0.250493 -0.968118 0
    outer loop
      vertex 19.36 5.26443 2
      vertex 19.36 5.26443 4
      vertex 18.037 4.92212 4
    endloop
  endfacet
  facet normal 0.429106 -0.903254 0
    outer loop
      vertex 20.561 5.83499 2
      vertex 19.36 5.26443 4
      vertex 19.36 5.26443 2
    endloop
  endfacet
  facet normal 0.429106 -0.903254 0
    outer loop
      vertex 20.561 5.83499 2
      vertex 20.561 5.83499 4
      vertex 19.36 5.26443 4
    endloop
  endfacet
  facet normal 0.598756 -0.800931 0
    outer loop
      vertex 21.6165 6.6241 2
      vertex 20.561 5.83499 4
      vertex 20.561 5.83499 2
    endloop
  endfacet
  facet normal 0.598756 -0.800931 0
    outer loop
      vertex 21.6165 6.6241 2
      vertex 21.6165 6.6241 4
      vertex 20.561 5.83499 4
    endloop
  endfacet
  facet normal 0.748072 -0.663617 0
    outer loop
      vertex 22.5019 7.6221 2
      vertex 21.6165 6.6241 4
      vertex 21.6165 6.6241 2
    endloop
  endfacet
  facet normal 0.748072 -0.663617 0
    outer loop
      vertex 22.5019 7.6221 2
      vertex 22.5019 7.6221 4
      vertex 21.6165 6.6241 4
    endloop
  endfacet
  facet normal 0.860316 -0.509761 0
    outer loop
      vertex 23.217 8.82899 2
      vertex 22.5019 7.6221 4
      vertex 22.5019 7.6221 2
    endloop
  endfacet
  facet normal 0.860316 -0.509761 0
    outer loop
      vertex 23.217 8.82899 2
      vertex 23.217 8.82899 4
      vertex 22.5019 7.6221 4
    endloop
  endfacet
  facet normal 0.445944 0.895061 0
    outer loop
      vertex 21.525 9.672 2
      vertex 23.217 8.82899 4
      vertex 23.217 8.82899 2
    endloop
  endfacet
  facet normal 0.445944 0.895061 -0
    outer loop
      vertex 21.525 9.672 2
      vertex 21.525 9.672 4
      vertex 23.217 8.82899 4
    endloop
  endfacet
  facet normal -0.813266 0.581892 0
    outer loop
      vertex 20.2681 7.91533 2
      vertex 21.525 9.672 4
      vertex 21.525 9.672 2
    endloop
  endfacet
  facet normal -0.813266 0.581892 0
    outer loop
      vertex 20.2681 7.91533 2
      vertex 20.2681 7.91533 4
      vertex 21.525 9.672 4
    endloop
  endfacet
  facet normal -0.54725 0.836969 0
    outer loop
      vertex 18.6561 6.86133 2
      vertex 20.2681 7.91533 4
      vertex 20.2681 7.91533 2
    endloop
  endfacet
  facet normal -0.54725 0.836969 0
    outer loop
      vertex 18.6561 6.86133 2
      vertex 18.6561 6.86133 4
      vertex 20.2681 7.91533 4
    endloop
  endfacet
  facet normal -0.175822 0.984422 0
    outer loop
      vertex 16.689 6.50999 2
      vertex 18.6561 6.86133 4
      vertex 18.6561 6.86133 2
    endloop
  endfacet
  facet normal -0.175822 0.984422 0
    outer loop
      vertex 16.689 6.50999 2
      vertex 16.689 6.50999 4
      vertex 18.6561 6.86133 4
    endloop
  endfacet
  facet normal 0.12044 0.992721 0
    outer loop
      vertex 15.1303 6.6991 2
      vertex 16.689 6.50999 4
      vertex 16.689 6.50999 2
    endloop
  endfacet
  facet normal 0.12044 0.992721 -0
    outer loop
      vertex 15.1303 6.6991 2
      vertex 15.1303 6.6991 4
      vertex 16.689 6.50999 4
    endloop
  endfacet
  facet normal 0.392862 0.919597 0
    outer loop
      vertex 13.8023 7.26643 2
      vertex 15.1303 6.6991 4
      vertex 15.1303 6.6991 2
    endloop
  endfacet
  facet normal 0.392862 0.919597 -0
    outer loop
      vertex 13.8023 7.26643 2
      vertex 13.8023 7.26643 4
      vertex 15.1303 6.6991 4
    endloop
  endfacet
  facet normal 0.652772 0.757554 0
    outer loop
      vertex 12.705 8.21199 2
      vertex 13.8023 7.26643 4
      vertex 13.8023 7.26643 2
    endloop
  endfacet
  facet normal 0.652772 0.757554 -0
    outer loop
      vertex 12.705 8.21199 2
      vertex 12.705 8.21199 4
      vertex 13.8023 7.26643 4
    endloop
  endfacet
  facet normal 0.83811 0.545501 0
    outer loop
      vertex 11.8872 9.46843 2
      vertex 12.705 8.21199 4
      vertex 12.705 8.21199 2
    endloop
  endfacet
  facet normal 0.83811 0.545501 -0
    outer loop
      vertex 11.8872 9.46843 2
      vertex 11.8872 9.46843 4
      vertex 12.705 8.21199 4
    endloop
  endfacet
  facet normal 0.950443 0.310897 0
    outer loop
      vertex 11.3965 10.9684 2
      vertex 11.8872 9.46843 4
      vertex 11.8872 9.46843 2
    endloop
  endfacet
  facet normal 0.950443 0.310897 -0
    outer loop
      vertex 11.3965 10.9684 2
      vertex 11.3965 10.9684 4
      vertex 11.8872 9.46843 4
    endloop
  endfacet
  facet normal 0.995629 0.0933974 0
    outer loop
      vertex 11.233 12.712 2
      vertex 11.3965 10.9684 4
      vertex 11.3965 10.9684 2
    endloop
  endfacet
  facet normal 0.995629 0.0933974 -0
    outer loop
      vertex 11.233 12.712 2
      vertex 11.233 12.712 4
      vertex 11.3965 10.9684 4
    endloop
  endfacet
  facet normal 0.996017 -0.0891607 0
    outer loop
      vertex 11.39 14.466 2
      vertex 11.233 12.712 4
      vertex 11.233 12.712 2
    endloop
  endfacet
  facet normal 0.996017 -0.0891607 0
    outer loop
      vertex 11.39 14.466 2
      vertex 11.39 14.466 4
      vertex 11.233 12.712 4
    endloop
  endfacet
  facet normal 0.953264 -0.302139 0
    outer loop
      vertex 11.861 15.952 2
      vertex 11.39 14.466 4
      vertex 11.39 14.466 2
    endloop
  endfacet
  facet normal 0.953264 -0.302139 0
    outer loop
      vertex 11.861 15.952 2
      vertex 11.861 15.952 4
      vertex 11.39 14.466 4
    endloop
  endfacet
  facet normal 0.840549 -0.541735 0
    outer loop
      vertex 12.646 17.17 2
      vertex 11.861 15.952 4
      vertex 11.861 15.952 2
    endloop
  endfacet
  facet normal 0.840549 -0.541735 0
    outer loop
      vertex 12.646 17.17 2
      vertex 12.646 17.17 4
      vertex 11.861 15.952 4
    endloop
  endfacet
  facet normal 0.645946 -0.763383 0
    outer loop
      vertex 13.7135 18.0733 2
      vertex 12.646 17.17 4
      vertex 12.646 17.17 2
    endloop
  endfacet
  facet normal 0.645946 -0.763383 0
    outer loop
      vertex 13.7135 18.0733 2
      vertex 13.7135 18.0733 4
      vertex 12.646 17.17 4
    endloop
  endfacet
  facet normal 0.380167 -0.924918 0
    outer loop
      vertex 15.0322 18.6153 2
      vertex 13.7135 18.0733 4
      vertex 13.7135 18.0733 2
    endloop
  endfacet
  facet normal 0.380167 -0.924918 0
    outer loop
      vertex 15.0322 18.6153 2
      vertex 15.0322 18.6153 4
      vertex 13.7135 18.0733 4
    endloop
  endfacet
  facet normal 0.114334 -0.993442 0
    outer loop
      vertex 16.602 18.796 2
      vertex 15.0322 18.6153 4
      vertex 15.0322 18.6153 2
    endloop
  endfacet
  facet normal 0.114334 -0.993442 0
    outer loop
      vertex 16.602 18.796 2
      vertex 16.602 18.796 4
      vertex 15.0322 18.6153 4
    endloop
  endfacet
  facet normal -0.0752214 -0.997167 0
    outer loop
      vertex 17.633 18.7182 2
      vertex 16.602 18.796 4
      vertex 16.602 18.796 2
    endloop
  endfacet
  facet normal -0.0752214 -0.997167 0
    outer loop
      vertex 17.633 18.7182 2
      vertex 17.633 18.7182 4
      vertex 16.602 18.796 4
    endloop
  endfacet
  facet normal -0.242621 -0.970121 0
    outer loop
      vertex 18.566 18.4849 2
      vertex 17.633 18.7182 4
      vertex 17.633 18.7182 2
    endloop
  endfacet
  facet normal -0.242621 -0.970121 0
    outer loop
      vertex 18.566 18.4849 2
      vertex 18.566 18.4849 4
      vertex 17.633 18.7182 4
    endloop
  endfacet
  facet normal -0.422192 -0.906506 0
    outer loop
      vertex 19.401 18.096 2
      vertex 18.566 18.4849 4
      vertex 18.566 18.4849 2
    endloop
  endfacet
  facet normal -0.422192 -0.906506 0
    outer loop
      vertex 19.401 18.096 2
      vertex 19.401 18.096 4
      vertex 18.566 18.4849 4
    endloop
  endfacet
  facet normal -0.60023 -0.799828 0
    outer loop
      vertex 20.1152 17.56 2
      vertex 19.401 18.096 4
      vertex 19.401 18.096 2
    endloop
  endfacet
  facet normal -0.60023 -0.799828 0
    outer loop
      vertex 20.1152 17.56 2
      vertex 20.1152 17.56 4
      vertex 19.401 18.096 4
    endloop
  endfacet
  facet normal -0.763503 -0.645804 0
    outer loop
      vertex 20.6859 16.8853 2
      vertex 20.1152 17.56 4
      vertex 20.1152 17.56 2
    endloop
  endfacet
  facet normal -0.763503 -0.645804 0
    outer loop
      vertex 20.6859 16.8853 2
      vertex 20.6859 16.8853 4
      vertex 20.1152 17.56 4
    endloop
  endfacet
  facet normal -0.885351 -0.464924 0
    outer loop
      vertex 21.113 16.072 2
      vertex 20.6859 16.8853 4
      vertex 20.6859 16.8853 2
    endloop
  endfacet
  facet normal -0.885351 -0.464924 0
    outer loop
      vertex 21.113 16.072 2
      vertex 21.113 16.072 4
      vertex 20.6859 16.8853 4
    endloop
  endfacet
  facet normal 0.313467 -0.949599 0
    outer loop
      vertex 23.076 16.72 2
      vertex 21.113 16.072 4
      vertex 21.113 16.072 2
    endloop
  endfacet
  facet normal 0.313467 -0.949599 0
    outer loop
      vertex 23.076 16.72 2
      vertex 23.076 16.72 4
      vertex 21.113 16.072 4
    endloop
  endfacet
  facet normal 0.882107 0.471049 0
    outer loop
      vertex 22.4654 17.8633 2
      vertex 23.076 16.72 4
      vertex 23.076 16.72 2
    endloop
  endfacet
  facet normal 0.882107 0.471049 -0
    outer loop
      vertex 22.4654 17.8633 2
      vertex 22.4654 17.8633 4
      vertex 23.076 16.72 4
    endloop
  endfacet
  facet normal 0.759846 0.650103 0
    outer loop
      vertex 21.6618 18.8027 2
      vertex 22.4654 17.8633 4
      vertex 22.4654 17.8633 2
    endloop
  endfacet
  facet normal 0.759846 0.650103 -0
    outer loop
      vertex 21.6618 18.8027 2
      vertex 21.6618 18.8027 4
      vertex 22.4654 17.8633 4
    endloop
  endfacet
  facet normal 0.593652 0.804722 0
    outer loop
      vertex 20.665 19.538 2
      vertex 21.6618 18.8027 4
      vertex 21.6618 18.8027 2
    endloop
  endfacet
  facet normal 0.593652 0.804722 -0
    outer loop
      vertex 20.665 19.538 2
      vertex 20.665 19.538 4
      vertex 21.6618 18.8027 4
    endloop
  endfacet
  facet normal 0.40752 0.913196 0
    outer loop
      vertex 19.4823 20.0658 2
      vertex 20.665 19.538 4
      vertex 20.665 19.538 2
    endloop
  endfacet
  facet normal 0.40752 0.913196 -0
    outer loop
      vertex 19.4823 20.0658 2
      vertex 19.4823 20.0658 4
      vertex 20.665 19.538 4
    endloop
  endfacet
  facet normal 0.226564 0.973996 0
    outer loop
      vertex 18.121 20.3824 2
      vertex 19.4823 20.0658 4
      vertex 19.4823 20.0658 2
    endloop
  endfacet
  facet normal 0.226564 0.973996 -0
    outer loop
      vertex 18.121 20.3824 2
      vertex 18.121 20.3824 4
      vertex 19.4823 20.0658 4
    endloop
  endfacet
  facet normal 0.0683855 0.997659 0
    outer loop
      vertex 16.581 20.488 2
      vertex 18.121 20.3824 4
      vertex 18.121 20.3824 2
    endloop
  endfacet
  facet normal 0.0683855 0.997659 -0
    outer loop
      vertex 16.581 20.488 2
      vertex 16.581 20.488 4
      vertex 18.121 20.3824 4
    endloop
  endfacet
  facet normal -0.105561 0.994413 0
    outer loop
      vertex 14.4185 20.2584 2
      vertex 16.581 20.488 4
      vertex 16.581 20.488 2
    endloop
  endfacet
  facet normal -0.105561 0.994413 0
    outer loop
      vertex 14.4185 20.2584 2
      vertex 14.4185 20.2584 4
      vertex 16.581 20.488 4
    endloop
  endfacet
  facet normal -0.353113 0.935581 0
    outer loop
      vertex 12.5939 19.5698 2
      vertex 14.4185 20.2584 4
      vertex 14.4185 20.2584 2
    endloop
  endfacet
  facet normal -0.353113 0.935581 0
    outer loop
      vertex 12.5939 19.5698 2
      vertex 12.5939 19.5698 4
      vertex 14.4185 20.2584 4
    endloop
  endfacet
  facet normal -0.611049 0.791593 0
    outer loop
      vertex 11.107 18.422 2
      vertex 12.5939 19.5698 4
      vertex 12.5939 19.5698 2
    endloop
  endfacet
  facet normal -0.611049 0.791593 0
    outer loop
      vertex 11.107 18.422 2
      vertex 11.107 18.422 4
      vertex 12.5939 19.5698 4
    endloop
  endfacet
  facet normal -0.816289 0.577643 0
    outer loop
      vertex 10.0087 16.8699 2
      vertex 11.107 18.422 4
      vertex 11.107 18.422 2
    endloop
  endfacet
  facet normal -0.816289 0.577643 0
    outer loop
      vertex 10.0087 16.8699 2
      vertex 10.0087 16.8699 4
      vertex 11.107 18.422 4
    endloop
  endfacet
  facet normal -0.944945 0.327228 0
    outer loop
      vertex 9.34966 14.9669 2
      vertex 10.0087 16.8699 4
      vertex 10.0087 16.8699 2
    endloop
  endfacet
  facet normal -0.944945 0.327228 0
    outer loop
      vertex 9.34966 14.9669 2
      vertex 9.34966 14.9669 4
      vertex 10.0087 16.8699 4
    endloop
  endfacet
  facet normal -0.995284 0.097001 0
    outer loop
      vertex 9.12999 12.713 2
      vertex 9.34966 14.9669 4
      vertex 9.34966 14.9669 2
    endloop
  endfacet
  facet normal -0.995284 0.097001 0
    outer loop
      vertex 9.12999 12.713 2
      vertex 9.12999 12.713 4
      vertex 9.34966 14.9669 4
    endloop
  endfacet
  facet normal -0.997992 -0.0633469 0
    outer loop
      vertex 9.22833 11.1637 2
      vertex 9.12999 12.713 4
      vertex 9.12999 12.713 2
    endloop
  endfacet
  facet normal -0.997992 -0.0633469 0
    outer loop
      vertex 9.22833 11.1637 2
      vertex 9.22833 11.1637 4
      vertex 9.12999 12.713 4
    endloop
  endfacet
  facet normal -0.978632 -0.205622 0
    outer loop
      vertex 9.52333 9.75966 2
      vertex 9.22833 11.1637 4
      vertex 9.22833 11.1637 2
    endloop
  endfacet
  facet normal -0.978632 -0.205622 0
    outer loop
      vertex 9.52333 9.75966 2
      vertex 9.52333 9.75966 4
      vertex 9.22833 11.1637 4
    endloop
  endfacet
  facet normal -0.931457 -0.363852 0
    outer loop
      vertex 10.015 8.50099 2
      vertex 9.52333 9.75966 4
      vertex 9.52333 9.75966 2
    endloop
  endfacet
  facet normal -0.931457 -0.363852 0
    outer loop
      vertex 10.015 8.50099 2
      vertex 10.015 8.50099 4
      vertex 9.52333 9.75966 4
    endloop
  endfacet
  facet normal -0.849684 -0.527292 0
    outer loop
      vertex 10.6943 7.40633 2
      vertex 10.015 8.50099 4
      vertex 10.015 8.50099 2
    endloop
  endfacet
  facet normal -0.849684 -0.527292 0
    outer loop
      vertex 10.6943 7.40633 2
      vertex 10.6943 7.40633 4
      vertex 10.015 8.50099 4
    endloop
  endfacet
  facet normal -0.728341 -0.685215 0
    outer loop
      vertex 11.5523 6.49432 2
      vertex 10.6943 7.40633 4
      vertex 10.6943 7.40633 2
    endloop
  endfacet
  facet normal -0.728341 -0.685215 0
    outer loop
      vertex 11.5523 6.49432 2
      vertex 11.5523 6.49432 4
      vertex 10.6943 7.40633 4
    endloop
  endfacet
  facet normal -0.575397 -0.817874 0
    outer loop
      vertex 12.589 5.765 2
      vertex 11.5523 6.49432 4
      vertex 11.5523 6.49432 2
    endloop
  endfacet
  facet normal -0.575397 -0.817874 0
    outer loop
      vertex 12.589 5.765 2
      vertex 12.589 5.765 4
      vertex 11.5523 6.49432 4
    endloop
  endfacet
  facet normal -0.406372 -0.913708 0
    outer loop
      vertex 13.7844 5.23332 2
      vertex 12.589 5.765 4
      vertex 12.589 5.765 2
    endloop
  endfacet
  facet normal -0.406372 -0.913708 0
    outer loop
      vertex 13.7844 5.23332 2
      vertex 13.7844 5.23332 4
      vertex 12.589 5.765 4
    endloop
  endfacet
  facet normal -0.232508 -0.972595 0
    outer loop
      vertex 15.1188 4.91434 2
      vertex 13.7844 5.23332 4
      vertex 13.7844 5.23332 2
    endloop
  endfacet
  facet normal -0.232508 -0.972595 0
    outer loop
      vertex 15.1188 4.91434 2
      vertex 15.1188 4.91434 4
      vertex 13.7844 5.23332 4
    endloop
  endfacet
  facet normal -0.0719834 -0.997406 0
    outer loop
      vertex 16.592 4.80801 2
      vertex 15.1188 4.91434 4
      vertex 15.1188 4.91434 2
    endloop
  endfacet
  facet normal -0.0719834 -0.997406 0
    outer loop
      vertex 16.592 4.80801 2
      vertex 16.592 4.80801 4
      vertex 15.1188 4.91434 4
    endloop
  endfacet
  facet normal 0.0787209 -0.996897 0
    outer loop
      vertex 18.037 4.92212 2
      vertex 16.592 4.80801 4
      vertex 16.592 4.80801 2
    endloop
  endfacet
  facet normal 0.0787209 -0.996897 0
    outer loop
      vertex 18.037 4.92212 2
      vertex 18.037 4.92212 4
      vertex 16.592 4.80801 4
    endloop
  endfacet
  facet normal 0.231305 -0.972881 0
    outer loop
      vertex 39.8194 5.23555 2
      vertex 38.4707 4.9149 4
      vertex 38.4707 4.9149 2
    endloop
  endfacet
  facet normal 0.231305 -0.972881 0
    outer loop
      vertex 39.8194 5.23555 2
      vertex 39.8194 5.23555 4
      vertex 38.4707 4.9149 4
    endloop
  endfacet
  facet normal 0.403657 -0.91491 0
    outer loop
      vertex 41.0307 5.76999 2
      vertex 39.8194 5.23555 4
      vertex 39.8194 5.23555 2
    endloop
  endfacet
  facet normal 0.403657 -0.91491 0
    outer loop
      vertex 41.0307 5.76999 2
      vertex 41.0307 5.76999 4
      vertex 39.8194 5.23555 4
    endloop
  endfacet
  facet normal 0.571711 -0.820455 0
    outer loop
      vertex 42.0847 6.50444 2
      vertex 41.0307 5.76999 4
      vertex 41.0307 5.76999 2
    endloop
  endfacet
  facet normal 0.571711 -0.820455 0
    outer loop
      vertex 42.0847 6.50444 2
      vertex 42.0847 6.50444 4
      vertex 41.0307 5.76999 4
    endloop
  endfacet
  facet normal 0.7237 -0.690115 0
    outer loop
      vertex 42.9614 7.42377 2
      vertex 42.0847 6.50444 4
      vertex 42.0847 6.50444 2
    endloop
  endfacet
  facet normal 0.7237 -0.690115 0
    outer loop
      vertex 42.9614 7.42377 2
      vertex 42.9614 7.42377 4
      vertex 42.0847 6.50444 4
    endloop
  endfacet
  facet normal 0.844821 -0.535048 0
    outer loop
      vertex 43.6607 8.528 2
      vertex 42.9614 7.42377 4
      vertex 42.9614 7.42377 2
    endloop
  endfacet
  facet normal 0.844821 -0.535048 0
    outer loop
      vertex 43.6607 8.528 2
      vertex 43.6607 8.528 4
      vertex 42.9614 7.42377 4
    endloop
  endfacet
  facet normal 0.927374 -0.374135 0
    outer loop
      vertex 44.1702 9.79077 2
      vertex 43.6607 8.528 4
      vertex 43.6607 8.528 2
    endloop
  endfacet
  facet normal 0.927374 -0.374135 0
    outer loop
      vertex 44.1702 9.79077 2
      vertex 44.1702 9.79077 4
      vertex 43.6607 8.528 4
    endloop
  endfacet
  facet normal 0.976826 -0.214036 0
    outer loop
      vertex 44.4758 11.1858 2
      vertex 44.1702 9.79077 4
      vertex 44.1702 9.79077 2
    endloop
  endfacet
  facet normal 0.976826 -0.214036 0
    outer loop
      vertex 44.4758 11.1858 2
      vertex 44.4758 11.1858 4
      vertex 44.1702 9.79077 4
    endloop
  endfacet
  facet normal 0.997782 -0.0665633 0
    outer loop
      vertex 44.5777 12.713 2
      vertex 44.4758 11.1858 4
      vertex 44.4758 11.1858 2
    endloop
  endfacet
  facet normal 0.997782 -0.0665633 0
    outer loop
      vertex 44.5777 12.713 2
      vertex 44.5777 12.713 4
      vertex 44.4758 11.1858 4
    endloop
  endfacet
  facet normal 0.997842 0.0656648 0
    outer loop
      vertex 44.4771 14.2427 2
      vertex 44.5777 12.713 4
      vertex 44.5777 12.713 2
    endloop
  endfacet
  facet normal 0.997842 0.0656648 -0
    outer loop
      vertex 44.4771 14.2427 2
      vertex 44.4771 14.2427 4
      vertex 44.5777 12.713 4
    endloop
  endfacet
  facet normal 0.977127 0.212655 0
    outer loop
      vertex 44.1751 15.6303 2
      vertex 44.4771 14.2427 4
      vertex 44.4771 14.2427 2
    endloop
  endfacet
  facet normal 0.977127 0.212655 -0
    outer loop
      vertex 44.1751 15.6303 2
      vertex 44.1751 15.6303 4
      vertex 44.4771 14.2427 4
    endloop
  endfacet
  facet normal 0.927172 0.374635 0
    outer loop
      vertex 43.6717 16.876 2
      vertex 44.1751 15.6303 4
      vertex 44.1751 15.6303 2
    endloop
  endfacet
  facet normal 0.927172 0.374635 -0
    outer loop
      vertex 43.6717 16.876 2
      vertex 43.6717 16.876 4
      vertex 44.1751 15.6303 4
    endloop
  endfacet
  facet normal 0.841834 0.539737 0
    outer loop
      vertex 42.978 17.9581 2
      vertex 43.6717 16.876 4
      vertex 43.6717 16.876 2
    endloop
  endfacet
  facet normal 0.841834 0.539737 -0
    outer loop
      vertex 42.978 17.9581 2
      vertex 42.978 17.9581 4
      vertex 43.6717 16.876 4
    endloop
  endfacet
  facet normal 0.715985 0.698116 0
    outer loop
      vertex 42.1046 18.8538 2
      vertex 42.978 17.9581 4
      vertex 42.978 17.9581 2
    endloop
  endfacet
  facet normal 0.715985 0.698116 -0
    outer loop
      vertex 42.1046 18.8538 2
      vertex 42.1046 18.8538 4
      vertex 42.978 17.9581 4
    endloop
  endfacet
  facet normal 0.558663 0.829395 0
    outer loop
      vertex 41.0517 19.563 2
      vertex 42.1046 18.8538 4
      vertex 42.1046 18.8538 2
    endloop
  endfacet
  facet normal 0.558663 0.829395 -0
    outer loop
      vertex 41.0517 19.563 2
      vertex 41.0517 19.563 4
      vertex 42.1046 18.8538 4
    endloop
  endfacet
  facet normal 0.390666 0.920532 0
    outer loop
      vertex 39.8409 20.0769 2
      vertex 41.0517 19.563 4
      vertex 41.0517 19.563 2
    endloop
  endfacet
  facet normal 0.390666 0.920532 -0
    outer loop
      vertex 39.8409 20.0769 2
      vertex 39.8409 20.0769 4
      vertex 41.0517 19.563 4
    endloop
  endfacet
  facet normal 0.222869 0.974848 0
    outer loop
      vertex 38.4922 20.3852 2
      vertex 39.8409 20.0769 4
      vertex 39.8409 20.0769 2
    endloop
  endfacet
  facet normal 0.222869 0.974848 -0
    outer loop
      vertex 38.4922 20.3852 2
      vertex 38.4922 20.3852 4
      vertex 39.8409 20.0769 4
    endloop
  endfacet
  facet normal 0.0689827 0.997618 0
    outer loop
      vertex 37.0057 20.488 2
      vertex 38.4922 20.3852 4
      vertex 38.4922 20.3852 2
    endloop
  endfacet
  facet normal 0.0689827 0.997618 -0
    outer loop
      vertex 37.0057 20.488 2
      vertex 37.0057 20.488 4
      vertex 38.4922 20.3852 4
    endloop
  endfacet
  facet normal -0.102954 0.994686 0
    outer loop
      vertex 34.7944 20.2591 2
      vertex 37.0057 20.488 4
      vertex 37.0057 20.488 2
    endloop
  endfacet
  facet normal -0.102954 0.994686 0
    outer loop
      vertex 34.7944 20.2591 2
      vertex 34.7944 20.2591 4
      vertex 37.0057 20.488 4
    endloop
  endfacet
  facet normal -0.346005 0.938233 0
    outer loop
      vertex 32.9324 19.5724 2
      vertex 34.7944 20.2591 4
      vertex 34.7944 20.2591 2
    endloop
  endfacet
  facet normal -0.346005 0.938233 0
    outer loop
      vertex 32.9324 19.5724 2
      vertex 32.9324 19.5724 4
      vertex 34.7944 20.2591 4
    endloop
  endfacet
  facet normal -0.603349 0.797477 0
    outer loop
      vertex 31.4197 18.428 2
      vertex 32.9324 19.5724 4
      vertex 32.9324 19.5724 2
    endloop
  endfacet
  facet normal -0.603349 0.797477 0
    outer loop
      vertex 31.4197 18.428 2
      vertex 31.4197 18.428 4
      vertex 32.9324 19.5724 4
    endloop
  endfacet
  facet normal -0.81188 0.583825 0
    outer loop
      vertex 30.3047 16.8774 2
      vertex 31.4197 18.428 4
      vertex 31.4197 18.428 2
    endloop
  endfacet
  facet normal -0.81188 0.583825 0
    outer loop
      vertex 30.3047 16.8774 2
      vertex 30.3047 16.8774 4
      vertex 31.4197 18.428 4
    endloop
  endfacet
  facet normal -0.943512 0.331339 0
    outer loop
      vertex 29.6357 14.9724 2
      vertex 30.3047 16.8774 4
      vertex 30.3047 16.8774 2
    endloop
  endfacet
  facet normal -0.943512 0.331339 0
    outer loop
      vertex 29.6357 14.9724 2
      vertex 29.6357 14.9724 4
      vertex 30.3047 16.8774 4
    endloop
  endfacet
  facet normal -0.995164 0.0982227 0
    outer loop
      vertex 29.4127 12.713 2
      vertex 29.6357 14.9724 4
      vertex 29.6357 14.9724 2
    endloop
  endfacet
  facet normal -0.995164 0.0982227 0
    outer loop
      vertex 29.4127 12.713 2
      vertex 29.4127 12.713 4
      vertex 29.6357 14.9724 4
    endloop
  endfacet
  facet normal -0.997882 -0.0650544 0
    outer loop
      vertex 29.5127 11.179 2
      vertex 29.4127 12.713 4
      vertex 29.4127 12.713 2
    endloop
  endfacet
  facet normal -0.997882 -0.0650544 0
    outer loop
      vertex 29.5127 11.179 2
      vertex 29.5127 11.179 4
      vertex 29.4127 12.713 4
    endloop
  endfacet
  facet normal -0.977825 -0.209426 0
    outer loop
      vertex 29.8127 9.77832 2
      vertex 29.5127 11.179 4
      vertex 29.5127 11.179 2
    endloop
  endfacet
  facet normal -0.977825 -0.209426 0
    outer loop
      vertex 29.8127 9.77832 2
      vertex 29.8127 9.77832 4
      vertex 29.5127 11.179 4
    endloop
  endfacet
  facet normal -0.930221 -0.366999 0
    outer loop
      vertex 30.3127 8.51099 2
      vertex 29.8127 9.77832 4
      vertex 29.8127 9.77832 2
    endloop
  endfacet
  facet normal -0.930221 -0.366999 0
    outer loop
      vertex 30.3127 8.51099 2
      vertex 30.3127 8.51099 4
      vertex 29.8127 9.77832 4
    endloop
  endfacet
  facet normal -0.848264 -0.529574 0
    outer loop
      vertex 31.0031 7.40521 2
      vertex 30.3127 8.51099 4
      vertex 30.3127 8.51099 2
    endloop
  endfacet
  facet normal -0.848264 -0.529574 0
    outer loop
      vertex 31.0031 7.40521 2
      vertex 31.0031 7.40521 4
      vertex 30.3127 8.51099 4
    endloop
  endfacet
  facet normal -0.725705 -0.688006 0
    outer loop
      vertex 31.8727 6.48788 2
      vertex 31.0031 7.40521 4
      vertex 31.0031 7.40521 2
    endloop
  endfacet
  facet normal -0.725705 -0.688006 0
    outer loop
      vertex 31.8727 6.48788 2
      vertex 31.8727 6.48788 4
      vertex 31.0031 7.40521 4
    endloop
  endfacet
  facet normal -0.570622 -0.821213 0
    outer loop
      vertex 32.9217 5.75899 2
      vertex 31.8727 6.48788 4
      vertex 31.8727 6.48788 2
    endloop
  endfacet
  facet normal -0.570622 -0.821213 0
    outer loop
      vertex 32.9217 5.75899 2
      vertex 32.9217 5.75899 4
      vertex 31.8727 6.48788 4
    endloop
  endfacet
  facet normal -0.399881 -0.916567 0
    outer loop
      vertex 34.1327 5.23065 2
      vertex 32.9217 5.75899 4
      vertex 32.9217 5.75899 2
    endloop
  endfacet
  facet normal -0.399881 -0.916567 0
    outer loop
      vertex 34.1327 5.23065 2
      vertex 34.1327 5.23065 4
      vertex 32.9217 5.75899 4
    endloop
  endfacet
  facet normal -0.227885 -0.973688 0
    outer loop
      vertex 35.4871 4.91368 2
      vertex 34.1327 5.23065 4
      vertex 34.1327 5.23065 2
    endloop
  endfacet
  facet normal -0.227885 -0.973688 0
    outer loop
      vertex 35.4871 4.91368 2
      vertex 35.4871 4.91368 4
      vertex 34.1327 5.23065 4
    endloop
  endfacet
  facet normal -0.0703789 -0.99752 0
    outer loop
      vertex 36.9847 4.80801 2
      vertex 35.4871 4.91368 4
      vertex 35.4871 4.91368 2
    endloop
  endfacet
  facet normal -0.0703789 -0.99752 0
    outer loop
      vertex 36.9847 4.80801 2
      vertex 36.9847 4.80801 4
      vertex 35.4871 4.91368 4
    endloop
  endfacet
  facet normal 0.0717449 -0.997423 0
    outer loop
      vertex 38.4707 4.9149 2
      vertex 36.9847 4.80801 4
      vertex 36.9847 4.80801 2
    endloop
  endfacet
  facet normal 0.0717449 -0.997423 0
    outer loop
      vertex 38.4707 4.9149 2
      vertex 38.4707 4.9149 4
      vertex 36.9847 4.80801 4
    endloop
  endfacet
  facet normal 0.385592 0.922669 -0
    outer loop
      vertex 34.0554 7.23566 2
      vertex 34.0554 7.23566 4
      vertex 35.3954 6.67566 2
    endloop
  endfacet
  facet normal 0.385592 0.922669 0
    outer loop
      vertex 35.3954 6.67566 4
      vertex 35.3954 6.67566 2
      vertex 34.0554 7.23566 4
    endloop
  endfacet
  facet normal 0.650179 0.759781 -0
    outer loop
      vertex 32.9647 8.16899 2
      vertex 32.9647 8.16899 4
      vertex 34.0554 7.23566 2
    endloop
  endfacet
  facet normal 0.650179 0.759781 0
    outer loop
      vertex 34.0554 7.23566 4
      vertex 34.0554 7.23566 2
      vertex 32.9647 8.16899 4
    endloop
  endfacet
  facet normal 0.841218 0.540696 -0
    outer loop
      vertex 32.1603 9.42055 2
      vertex 32.1603 9.42055 4
      vertex 32.9647 8.16899 2
    endloop
  endfacet
  facet normal 0.841218 0.540696 0
    outer loop
      vertex 32.9647 8.16899 4
      vertex 32.9647 8.16899 2
      vertex 32.1603 9.42055 4
    endloop
  endfacet
  facet normal 0.952793 0.303619 -0
    outer loop
      vertex 31.6776 10.9352 2
      vertex 31.6776 10.9352 4
      vertex 32.1603 9.42055 2
    endloop
  endfacet
  facet normal 0.952793 0.303619 0
    outer loop
      vertex 32.1603 9.42055 4
      vertex 32.1603 9.42055 2
      vertex 31.6776 10.9352 4
    endloop
  endfacet
  facet normal 0.99593 0.0901311 -0
    outer loop
      vertex 31.5167 12.713 2
      vertex 31.5167 12.713 4
      vertex 31.6776 10.9352 2
    endloop
  endfacet
  facet normal 0.99593 0.0901311 0
    outer loop
      vertex 31.6776 10.9352 4
      vertex 31.6776 10.9352 2
      vertex 31.5167 12.713 4
    endloop
  endfacet
  facet normal 0.996031 -0.0890071 0
    outer loop
      vertex 31.6758 14.4934 2
      vertex 31.6758 14.4934 4
      vertex 31.5167 12.713 2
    endloop
  endfacet
  facet normal 0.996031 -0.0890071 0
    outer loop
      vertex 31.5167 12.713 4
      vertex 31.5167 12.713 2
      vertex 31.6758 14.4934 4
    endloop
  endfacet
  facet normal 0.9526 -0.304226 0
    outer loop
      vertex 32.1532 15.9881 2
      vertex 32.1532 15.9881 4
      vertex 31.6758 14.4934 2
    endloop
  endfacet
  facet normal 0.9526 -0.304226 0
    outer loop
      vertex 31.6758 14.4934 4
      vertex 31.6758 14.4934 2
      vertex 32.1532 15.9881 4
    endloop
  endfacet
  facet normal 0.835346 -0.549724 0
    outer loop
      vertex 32.9487 17.197 2
      vertex 32.9487 17.197 4
      vertex 32.1532 15.9881 2
    endloop
  endfacet
  facet normal 0.835346 -0.549724 0
    outer loop
      vertex 32.1532 15.9881 4
      vertex 32.1532 15.9881 2
      vertex 32.9487 17.197 4
    endloop
  endfacet
  facet normal 0.63268 -0.774413 0
    outer loop
      vertex 34.0361 18.0853 2
      vertex 34.0361 18.0853 4
      vertex 32.9487 17.197 2
    endloop
  endfacet
  facet normal 0.63268 -0.774413 0
    outer loop
      vertex 32.9487 17.197 4
      vertex 32.9487 17.197 2
      vertex 34.0361 18.0853 4
    endloop
  endfacet
  facet normal 0.366607 -0.930376 0
    outer loop
      vertex 35.3887 18.6183 2
      vertex 35.3887 18.6183 4
      vertex 34.0361 18.0853 2
    endloop
  endfacet
  facet normal 0.366607 -0.930376 0
    outer loop
      vertex 34.0361 18.0853 4
      vertex 34.0361 18.0853 2
      vertex 35.3887 18.6183 4
    endloop
  endfacet
  facet normal 0.109145 -0.994026 0
    outer loop
      vertex 37.0067 18.796 2
      vertex 37.0067 18.796 4
      vertex 35.3887 18.6183 2
    endloop
  endfacet
  facet normal 0.109145 -0.994026 0
    outer loop
      vertex 35.3887 18.6183 4
      vertex 35.3887 18.6183 2
      vertex 37.0067 18.796 4
    endloop
  endfacet
  facet normal -0.111513 -0.993763 0
    outer loop
      vertex 38.6118 18.6159 2
      vertex 38.6118 18.6159 4
      vertex 37.0067 18.796 2
    endloop
  endfacet
  facet normal -0.111513 -0.993763 -0
    outer loop
      vertex 37.0067 18.796 4
      vertex 37.0067 18.796 2
      vertex 38.6118 18.6159 4
    endloop
  endfacet
  facet normal -0.373172 -0.927762 0
    outer loop
      vertex 39.9552 18.0755 2
      vertex 39.9552 18.0755 4
      vertex 38.6118 18.6159 2
    endloop
  endfacet
  facet normal -0.373172 -0.927762 -0
    outer loop
      vertex 38.6118 18.6159 4
      vertex 38.6118 18.6159 2
      vertex 39.9552 18.0755 4
    endloop
  endfacet
  facet normal -0.639879 -0.768475 0
    outer loop
      vertex 41.0367 17.175 2
      vertex 41.0367 17.175 4
      vertex 39.9552 18.0755 2
    endloop
  endfacet
  facet normal -0.639879 -0.768475 -0
    outer loop
      vertex 39.9552 18.0755 4
      vertex 39.9552 18.0755 2
      vertex 41.0367 17.175 4
    endloop
  endfacet
  facet normal -0.837736 -0.546075 0
    outer loop
      vertex 41.8295 15.9588 2
      vertex 41.8295 15.9588 4
      vertex 41.0367 17.175 2
    endloop
  endfacet
  facet normal -0.837736 -0.546075 -0
    outer loop
      vertex 41.0367 17.175 4
      vertex 41.0367 17.175 2
      vertex 41.8295 15.9588 4
    endloop
  endfacet
  facet normal -0.952477 -0.30461 0
    outer loop
      vertex 42.3052 14.4714 2
      vertex 42.3052 14.4714 4
      vertex 41.8295 15.9588 2
    endloop
  endfacet
  facet normal -0.952477 -0.30461 -0
    outer loop
      vertex 41.8295 15.9588 4
      vertex 41.8295 15.9588 2
      vertex 42.3052 14.4714 4
    endloop
  endfacet
  facet normal -0.99596 -0.0898032 0
    outer loop
      vertex 42.4637 12.713 2
      vertex 42.4637 12.713 4
      vertex 42.3052 14.4714 2
    endloop
  endfacet
  facet normal -0.99596 -0.0898032 -0
    outer loop
      vertex 42.3052 14.4714 4
      vertex 42.3052 14.4714 2
      vertex 42.4637 12.713 4
    endloop
  endfacet
  facet normal -0.996332 0.0855756 0
    outer loop
      vertex 42.3064 10.8812 2
      vertex 42.3064 10.8812 4
      vertex 42.4637 12.713 2
    endloop
  endfacet
  facet normal -0.996332 0.0855756 0
    outer loop
      vertex 42.4637 12.713 4
      vertex 42.4637 12.713 2
      vertex 42.3064 10.8812 4
    endloop
  endfacet
  facet normal -0.955707 0.294319 0
    outer loop
      vertex 41.8344 9.34854 2
      vertex 41.8344 9.34854 4
      vertex 42.3064 10.8812 2
    endloop
  endfacet
  facet normal -0.955707 0.294319 0
    outer loop
      vertex 42.3064 10.8812 4
      vertex 42.3064 10.8812 2
      vertex 41.8344 9.34854 4
    endloop
  endfacet
  facet normal -0.843141 0.537692 0
    outer loop
      vertex 41.0477 8.11499 2
      vertex 41.0477 8.11499 4
      vertex 41.8344 9.34854 2
    endloop
  endfacet
  facet normal -0.843141 0.537692 0
    outer loop
      vertex 41.8344 9.34854 4
      vertex 41.8344 9.34854 2
      vertex 41.0477 8.11499 4
    endloop
  endfacet
  facet normal -0.641309 0.767283 0
    outer loop
      vertex 39.9669 7.21165 2
      vertex 39.9669 7.21165 4
      vertex 41.0477 8.11499 2
    endloop
  endfacet
  facet normal -0.641309 0.767283 0
    outer loop
      vertex 41.0477 8.11499 4
      vertex 41.0477 8.11499 2
      vertex 39.9669 7.21165 4
    endloop
  endfacet
  facet normal -0.371546 0.928415 0
    outer loop
      vertex 38.6126 6.66966 2
      vertex 38.6126 6.66966 4
      vertex 39.9669 7.21165 2
    endloop
  endfacet
  facet normal -0.371546 0.928415 0
    outer loop
      vertex 39.9669 7.21165 4
      vertex 39.9669 7.21165 2
      vertex 38.6126 6.66966 4
    endloop
  endfacet
  facet normal -0.110304 0.993898 0
    outer loop
      vertex 36.9847 6.489 2
      vertex 36.9847 6.489 4
      vertex 38.6126 6.66966 2
    endloop
  endfacet
  facet normal -0.110304 0.993898 0
    outer loop
      vertex 38.6126 6.66966 4
      vertex 38.6126 6.66966 2
      vertex 36.9847 6.489 4
    endloop
  endfacet
  facet normal 0.116644 0.993174 -0
    outer loop
      vertex 35.3954 6.67566 2
      vertex 35.3954 6.67566 4
      vertex 36.9847 6.489 2
    endloop
  endfacet
  facet normal 0.116644 0.993174 0
    outer loop
      vertex 36.9847 6.489 4
      vertex 36.9847 6.489 2
      vertex 35.3954 6.67566 4
    endloop
  endfacet
endsolid OpenSCAD_Model
