solid OpenSCAD_Model
  facet normal 0 0 -1
    outer loop
      vertex 9.81799 5 2
      vertex 9.81799 20.296 2
      vertex 11.889 12.034 2
    endloop
  endfacet
  facet normal 0 0 -1
    outer loop
      vertex 11.889 6.69199 2
      vertex 21.832 6.69199 2
      vertex 21.832 5 2
    endloop
  endfacet
  facet normal 0 0 -1
    outer loop
      vertex 11.889 12.034 2
      vertex 9.81799 20.296 2
      vertex 11.889 13.704 2
    endloop
  endfacet
  facet normal 0 -0 -1
    outer loop
      vertex 11.889 6.69199 2
      vertex 21.832 5 2
      vertex 9.81799 5 2
    endloop
  endfacet
  facet normal 0 0 -1
    outer loop
      vertex 11.889 13.704 2
      vertex 20.738 13.704 2
      vertex 20.738 12.034 2
    endloop
  endfacet
  facet normal 0 0 -1
    outer loop
      vertex 11.889 12.034 2
      vertex 11.889 13.704 2
      vertex 20.738 12.034 2
    endloop
  endfacet
  facet normal 0 0 -1
    outer loop
      vertex 11.889 13.704 2
      vertex 9.81799 20.296 2
      vertex 11.889 18.604 2
    endloop
  endfacet
  facet normal 0 0 -1
    outer loop
      vertex 11.889 18.604 2
      vertex 21.388 20.296 2
      vertex 21.388 18.604 2
    endloop
  endfacet
  facet normal 0 0 -1
    outer loop
      vertex 11.889 18.604 2
      vertex 9.81799 20.296 2
      vertex 21.388 20.296 2
    endloop
  endfacet
  facet normal -0 0 -1
    outer loop
      vertex 11.889 6.69199 2
      vertex 9.81799 5 2
      vertex 11.889 12.034 2
    endloop
  endfacet
  facet normal 0 0 -1
    outer loop
      vertex 30.6946 12.632 2
      vertex 28.6236 20.296 2
      vertex 30.6946 20.296 2
    endloop
  endfacet
  facet normal 0 0 -1
    outer loop
      vertex 30.6946 12.632 2
      vertex 38.0346 20.296 2
      vertex 33.9816 13.652 2
    endloop
  endfacet
  facet normal 0 0 -1
    outer loop
      vertex 41.3406 5 2
      vertex 38.7706 5 2
      vertex 33.9816 13.652 2
    endloop
  endfacet
  facet normal -0 0 -1
    outer loop
      vertex 40.4746 20.296 2
      vertex 33.9816 13.652 2
      vertex 38.0346 20.296 2
    endloop
  endfacet
  facet normal 0 -0 -1
    outer loop
      vertex 33.9816 13.652 2
      vertex 38.7706 5 2
      vertex 32.6836 12.382 2
    endloop
  endfacet
  facet normal 0 0 -1
    outer loop
      vertex 30.6946 10.862 2
      vertex 30.6946 12.632 2
      vertex 32.6836 12.382 2
    endloop
  endfacet
  facet normal 0 0 -1
    outer loop
      vertex 30.6946 12.632 2
      vertex 33.9816 13.652 2
      vertex 32.6836 12.382 2
    endloop
  endfacet
  facet normal 0 0 -1
    outer loop
      vertex 30.6946 5 2
      vertex 28.6236 5 2
      vertex 30.6946 10.862 2
    endloop
  endfacet
  facet normal -0 0 -1
    outer loop
      vertex 30.6946 12.632 2
      vertex 28.6236 5 2
      vertex 28.6236 20.296 2
    endloop
  endfacet
  facet normal -0 0 -1
    outer loop
      vertex 30.6946 10.862 2
      vertex 28.6236 5 2
      vertex 30.6946 12.632 2
    endloop
  endfacet
  facet normal 0 0 1
    outer loop
      vertex 11.889 12.034 4
      vertex 9.81799 20.296 4
      vertex 9.81799 5 4
    endloop
  endfacet
  facet normal 0 -0 1
    outer loop
      vertex 21.832 5 4
      vertex 21.832 6.69199 4
      vertex 11.889 6.69199 4
    endloop
  endfacet
  facet normal 0 0 1
    outer loop
      vertex 11.889 13.704 4
      vertex 9.81799 20.296 4
      vertex 11.889 12.034 4
    endloop
  endfacet
  facet normal 0 0 1
    outer loop
      vertex 9.81799 5 4
      vertex 21.832 5 4
      vertex 11.889 6.69199 4
    endloop
  endfacet
  facet normal 0 -0 1
    outer loop
      vertex 20.738 12.034 4
      vertex 20.738 13.704 4
      vertex 11.889 13.704 4
    endloop
  endfacet
  facet normal 0 0 1
    outer loop
      vertex 20.738 12.034 4
      vertex 11.889 13.704 4
      vertex 11.889 12.034 4
    endloop
  endfacet
  facet normal 0 0 1
    outer loop
      vertex 11.889 18.604 4
      vertex 9.81799 20.296 4
      vertex 11.889 13.704 4
    endloop
  endfacet
  facet normal 0 -0 1
    outer loop
      vertex 21.388 18.604 4
      vertex 21.388 20.296 4
      vertex 11.889 18.604 4
    endloop
  endfacet
  facet normal 0 0 1
    outer loop
      vertex 21.388 20.296 4
      vertex 9.81799 20.296 4
      vertex 11.889 18.604 4
    endloop
  endfacet
  facet normal 0 0 1
    outer loop
      vertex 11.889 12.034 4
      vertex 9.81799 5 4
      vertex 11.889 6.69199 4
    endloop
  endfacet
  facet normal 0 0 1
    outer loop
      vertex 30.6946 20.296 4
      vertex 28.6236 20.296 4
      vertex 30.6946 12.632 4
    endloop
  endfacet
  facet normal 0 -0 1
    outer loop
      vertex 33.9816 13.652 4
      vertex 38.0346 20.296 4
      vertex 30.6946 12.632 4
    endloop
  endfacet
  facet normal 0 0 1
    outer loop
      vertex 33.9816 13.652 4
      vertex 38.7706 5 4
      vertex 41.3406 5 4
    endloop
  endfacet
  facet normal -0 0 1
    outer loop
      vertex 38.0346 20.296 4
      vertex 33.9816 13.652 4
      vertex 40.4746 20.296 4
    endloop
  endfacet
  facet normal -0 0 1
    outer loop
      vertex 32.6836 12.382 4
      vertex 38.7706 5 4
      vertex 33.9816 13.652 4
    endloop
  endfacet
  facet normal 0 0 1
    outer loop
      vertex 32.6836 12.382 4
      vertex 30.6946 12.632 4
      vertex 30.6946 10.862 4
    endloop
  endfacet
  facet normal 0 -0 1
    outer loop
      vertex 32.6836 12.382 4
      vertex 33.9816 13.652 4
      vertex 30.6946 12.632 4
    endloop
  endfacet
  facet normal 0 0 1
    outer loop
      vertex 30.6946 10.862 4
      vertex 28.6236 5 4
      vertex 30.6946 5 4
    endloop
  endfacet
  facet normal 0 0 1
    outer loop
      vertex 28.6236 20.296 4
      vertex 28.6236 5 4
      vertex 30.6946 12.632 4
    endloop
  endfacet
  facet normal 0 0 1
    outer loop
      vertex 30.6946 12.632 4
      vertex 28.6236 5 4
      vertex 30.6946 10.862 4
    endloop
  endfacet
  facet normal 0 1 0
    outer loop
      vertex 11.889 6.69199 2
      vertex 21.832 6.69199 4
      vertex 21.832 6.69199 2
    endloop
  endfacet
  facet normal 0 1 0
    outer loop
      vertex 11.889 6.69199 2
      vertex 11.889 6.69199 4
      vertex 21.832 6.69199 4
    endloop
  endfacet
  facet normal 1 0 0
    outer loop
      vertex 11.889 12.034 2
      vertex 11.889 6.69199 4
      vertex 11.889 6.69199 2
    endloop
  endfacet
  facet normal 1 0 -0
    outer loop
      vertex 11.889 12.034 2
      vertex 11.889 12.034 4
      vertex 11.889 6.69199 4
    endloop
  endfacet
  facet normal 0 -1 0
    outer loop
      vertex 20.738 12.034 2
      vertex 11.889 12.034 4
      vertex 11.889 12.034 2
    endloop
  endfacet
  facet normal 0 -1 0
    outer loop
      vertex 20.738 12.034 2
      vertex 20.738 12.034 4
      vertex 11.889 12.034 4
    endloop
  endfacet
  facet normal 1 0 0
    outer loop
      vertex 20.738 13.704 2
      vertex 20.738 12.034 4
      vertex 20.738 12.034 2
    endloop
  endfacet
  facet normal 1 0 -0
    outer loop
      vertex 20.738 13.704 2
      vertex 20.738 13.704 4
      vertex 20.738 12.034 4
    endloop
  endfacet
  facet normal 0 1 0
    outer loop
      vertex 11.889 13.704 2
      vertex 20.738 13.704 4
      vertex 20.738 13.704 2
    endloop
  endfacet
  facet normal 0 1 0
    outer loop
      vertex 11.889 13.704 2
      vertex 11.889 13.704 4
      vertex 20.738 13.704 4
    endloop
  endfacet
  facet normal 1 0 0
    outer loop
      vertex 11.889 18.604 2
      vertex 11.889 13.704 4
      vertex 11.889 13.704 2
    endloop
  endfacet
  facet normal 1 0 -0
    outer loop
      vertex 11.889 18.604 2
      vertex 11.889 18.604 4
      vertex 11.889 13.704 4
    endloop
  endfacet
  facet normal 0 -1 0
    outer loop
      vertex 21.388 18.604 2
      vertex 11.889 18.604 4
      vertex 11.889 18.604 2
    endloop
  endfacet
  facet normal 0 -1 0
    outer loop
      vertex 21.388 18.604 2
      vertex 21.388 18.604 4
      vertex 11.889 18.604 4
    endloop
  endfacet
  facet normal 1 0 0
    outer loop
      vertex 21.388 20.296 2
      vertex 21.388 18.604 4
      vertex 21.388 18.604 2
    endloop
  endfacet
  facet normal 1 0 -0
    outer loop
      vertex 21.388 20.296 2
      vertex 21.388 20.296 4
      vertex 21.388 18.604 4
    endloop
  endfacet
  facet normal 0 1 0
    outer loop
      vertex 9.81799 20.296 2
      vertex 21.388 20.296 4
      vertex 21.388 20.296 2
    endloop
  endfacet
  facet normal 0 1 0
    outer loop
      vertex 9.81799 20.296 2
      vertex 9.81799 20.296 4
      vertex 21.388 20.296 4
    endloop
  endfacet
  facet normal -1 0 0
    outer loop
      vertex 9.81799 5 2
      vertex 9.81799 20.296 4
      vertex 9.81799 20.296 2
    endloop
  endfacet
  facet normal -1 0 0
    outer loop
      vertex 9.81799 5 2
      vertex 9.81799 5 4
      vertex 9.81799 20.296 4
    endloop
  endfacet
  facet normal 0 -1 0
    outer loop
      vertex 21.832 5 2
      vertex 9.81799 5 4
      vertex 9.81799 5 2
    endloop
  endfacet
  facet normal 0 -1 0
    outer loop
      vertex 21.832 5 2
      vertex 21.832 5 4
      vertex 9.81799 5 4
    endloop
  endfacet
  facet normal 1 0 0
    outer loop
      vertex 21.832 6.69199 2
      vertex 21.832 5 4
      vertex 21.832 5 2
    endloop
  endfacet
  facet normal 1 0 -0
    outer loop
      vertex 21.832 6.69199 2
      vertex 21.832 6.69199 4
      vertex 21.832 5 4
    endloop
  endfacet
  facet normal 0.607196 -0.794552 0
    outer loop
      vertex 32.6836 12.382 2
      vertex 30.6946 10.862 4
      vertex 30.6946 10.862 2
    endloop
  endfacet
  facet normal 0.607196 -0.794552 0
    outer loop
      vertex 32.6836 12.382 2
      vertex 32.6836 12.382 4
      vertex 30.6946 10.862 4
    endloop
  endfacet
  facet normal -0.771535 -0.636187 0
    outer loop
      vertex 38.7706 5 2
      vertex 32.6836 12.382 4
      vertex 32.6836 12.382 2
    endloop
  endfacet
  facet normal -0.771535 -0.636187 0
    outer loop
      vertex 38.7706 5 2
      vertex 38.7706 5 4
      vertex 32.6836 12.382 4
    endloop
  endfacet
  facet normal 0 -1 0
    outer loop
      vertex 41.3406 5 2
      vertex 38.7706 5 4
      vertex 38.7706 5 2
    endloop
  endfacet
  facet normal 0 -1 0
    outer loop
      vertex 41.3406 5 2
      vertex 41.3406 5 4
      vertex 38.7706 5 4
    endloop
  endfacet
  facet normal 0.76173 0.647894 0
    outer loop
      vertex 33.9816 13.652 2
      vertex 41.3406 5 4
      vertex 41.3406 5 2
    endloop
  endfacet
  facet normal 0.76173 0.647894 -0
    outer loop
      vertex 33.9816 13.652 2
      vertex 33.9816 13.652 4
      vertex 41.3406 5 4
    endloop
  endfacet
  facet normal 0.715186 -0.698934 0
    outer loop
      vertex 40.4746 20.296 2
      vertex 33.9816 13.652 4
      vertex 33.9816 13.652 2
    endloop
  endfacet
  facet normal 0.715186 -0.698934 0
    outer loop
      vertex 40.4746 20.296 2
      vertex 40.4746 20.296 4
      vertex 33.9816 13.652 4
    endloop
  endfacet
  facet normal 0 1 0
    outer loop
      vertex 38.0346 20.296 2
      vertex 40.4746 20.296 4
      vertex 40.4746 20.296 2
    endloop
  endfacet
  facet normal 0 1 0
    outer loop
      vertex 38.0346 20.296 2
      vertex 38.0346 20.296 4
      vertex 40.4746 20.296 4
    endloop
  endfacet
  facet normal -0.722208 0.691676 0
    outer loop
      vertex 30.6946 12.632 2
      vertex 38.0346 20.296 4
      vertex 38.0346 20.296 2
    endloop
  endfacet
  facet normal -0.722208 0.691676 0
    outer loop
      vertex 30.6946 12.632 2
      vertex 30.6946 12.632 4
      vertex 38.0346 20.296 4
    endloop
  endfacet
  facet normal 1 0 0
    outer loop
      vertex 30.6946 20.296 2
      vertex 30.6946 12.632 4
      vertex 30.6946 12.632 2
    endloop
  endfacet
  facet normal 1 0 -0
    outer loop
      vertex 30.6946 20.296 2
      vertex 30.6946 20.296 4
      vertex 30.6946 12.632 4
    endloop
  endfacet
  facet normal 0 1 0
    outer loop
      vertex 28.6236 20.296 2
      vertex 30.6946 20.296 4
      vertex 30.6946 20.296 2
    endloop
  endfacet
  facet normal 0 1 0
    outer loop
      vertex 28.6236 20.296 2
      vertex 28.6236 20.296 4
      vertex 30.6946 20.296 4
    endloop
  endfacet
  facet normal -1 0 0
    outer loop
      vertex 28.6236 5 2
      vertex 28.6236 20.296 4
      vertex 28.6236 20.296 2
    endloop
  endfacet
  facet normal -1 0 0
    outer loop
      vertex 28.6236 5 2
      vertex 28.6236 5 4
      vertex 28.6236 20.296 4
    endloop
  endfacet
  facet normal 0 -1 0
    outer loop
      vertex 30.6946 5 2
      vertex 28.6236 5 4
      vertex 28.6236 5 2
    endloop
  endfacet
  facet normal 0 -1 0
    outer loop
      vertex 30.6946 5 2
      vertex 30.6946 5 4
      vertex 28.6236 5 4
    endloop
  endfacet
  facet normal 1 0 0
    outer loop
      vertex 30.6946 10.862 2
      vertex 30.6946 5 4
      vertex 30.6946 5 2
    endloop
  endfacet
  facet normal 1 0 -0
    outer loop
      vertex 30.6946 10.862 2
      vertex 30.6946 10.862 4
      vertex 30.6946 5 4
    endloop
  endfacet
endsolid OpenSCAD_Model
