solid OpenSCAD_Model
  facet normal 0 0 -1
    outer loop
      vertex 9.81799 5 2
      vertex 9.81799 20.296 2
      vertex 11.889 12.034 2
    endloop
  endfacet
  facet normal 0 0 -1
    outer loop
      vertex 11.889 6.69199 2
      vertex 21.832 6.69199 2
      vertex 21.832 5 2
    endloop
  endfacet
  facet normal 0 0 -1
    outer loop
      vertex 11.889 12.034 2
      vertex 9.81799 20.296 2
      vertex 11.889 13.704 2
    endloop
  endfacet
  facet normal 0 -0 -1
    outer loop
      vertex 11.889 6.69199 2
      vertex 21.832 5 2
      vertex 9.81799 5 2
    endloop
  endfacet
  facet normal -0 0 -1
    outer loop
      vertex 41.4926 20.296 2
      vertex 35.1166 9.52499 2
      vertex 39.3126 20.296 2
    endloop
  endfacet
  facet normal 0 0 -1
    outer loop
      vertex 11.889 13.704 2
      vertex 20.738 13.704 2
      vertex 20.738 12.034 2
    endloop
  endfacet
  facet normal 0 0 -1
    outer loop
      vertex 11.889 12.034 2
      vertex 11.889 13.704 2
      vertex 20.738 12.034 2
    endloop
  endfacet
  facet normal 0 0 -1
    outer loop
      vertex 11.889 13.704 2
      vertex 9.81799 20.296 2
      vertex 11.889 18.604 2
    endloop
  endfacet
  facet normal 0 0 -1
    outer loop
      vertex 11.889 18.604 2
      vertex 21.388 20.296 2
      vertex 21.388 18.604 2
    endloop
  endfacet
  facet normal 0 0 -1
    outer loop
      vertex 11.889 18.604 2
      vertex 9.81799 20.296 2
      vertex 21.388 20.296 2
    endloop
  endfacet
  facet normal -0 0 -1
    outer loop
      vertex 11.889 6.69199 2
      vertex 9.81799 5 2
      vertex 11.889 12.034 2
    endloop
  endfacet
  facet normal 0 0 -1
    outer loop
      vertex 26.9026 20.296 2
      vertex 29.0816 20.296 2
      vertex 33.2996 9.52499 2
    endloop
  endfacet
  facet normal 0 0 -1
    outer loop
      vertex 35.2716 5 2
      vertex 35.1166 9.52499 2
      vertex 41.4926 20.296 2
    endloop
  endfacet
  facet normal 0 0 -1
    outer loop
      vertex 35.2716 5 2
      vertex 34.2086 6.82199 2
      vertex 35.1166 9.52499 2
    endloop
  endfacet
  facet normal 0 0 -1
    outer loop
      vertex 35.2716 5 2
      vertex 33.1246 5 2
      vertex 34.2086 6.82199 2
    endloop
  endfacet
  facet normal 0 0 -1
    outer loop
      vertex 33.1246 5 2
      vertex 33.2996 9.52499 2
      vertex 34.2086 6.82199 2
    endloop
  endfacet
  facet normal -0 0 -1
    outer loop
      vertex 33.2996 9.52499 2
      vertex 33.1246 5 2
      vertex 26.9026 20.296 2
    endloop
  endfacet
  facet normal 0 0 1
    outer loop
      vertex 11.889 12.034 4
      vertex 9.81799 20.296 4
      vertex 9.81799 5 4
    endloop
  endfacet
  facet normal 0 -0 1
    outer loop
      vertex 21.832 5 4
      vertex 21.832 6.69199 4
      vertex 11.889 6.69199 4
    endloop
  endfacet
  facet normal 0 0 1
    outer loop
      vertex 11.889 13.704 4
      vertex 9.81799 20.296 4
      vertex 11.889 12.034 4
    endloop
  endfacet
  facet normal 0 0 1
    outer loop
      vertex 9.81799 5 4
      vertex 21.832 5 4
      vertex 11.889 6.69199 4
    endloop
  endfacet
  facet normal -0 0 1
    outer loop
      vertex 39.3126 20.296 4
      vertex 35.1166 9.52499 4
      vertex 41.4926 20.296 4
    endloop
  endfacet
  facet normal 0 -0 1
    outer loop
      vertex 20.738 12.034 4
      vertex 20.738 13.704 4
      vertex 11.889 13.704 4
    endloop
  endfacet
  facet normal 0 0 1
    outer loop
      vertex 20.738 12.034 4
      vertex 11.889 13.704 4
      vertex 11.889 12.034 4
    endloop
  endfacet
  facet normal 0 0 1
    outer loop
      vertex 11.889 18.604 4
      vertex 9.81799 20.296 4
      vertex 11.889 13.704 4
    endloop
  endfacet
  facet normal 0 -0 1
    outer loop
      vertex 21.388 18.604 4
      vertex 21.388 20.296 4
      vertex 11.889 18.604 4
    endloop
  endfacet
  facet normal 0 0 1
    outer loop
      vertex 21.388 20.296 4
      vertex 9.81799 20.296 4
      vertex 11.889 18.604 4
    endloop
  endfacet
  facet normal 0 0 1
    outer loop
      vertex 11.889 12.034 4
      vertex 9.81799 5 4
      vertex 11.889 6.69199 4
    endloop
  endfacet
  facet normal 0 0 1
    outer loop
      vertex 33.2996 9.52499 4
      vertex 29.0816 20.296 4
      vertex 26.9026 20.296 4
    endloop
  endfacet
  facet normal 0 0 1
    outer loop
      vertex 41.4926 20.296 4
      vertex 35.1166 9.52499 4
      vertex 35.2716 5 4
    endloop
  endfacet
  facet normal 0 0 1
    outer loop
      vertex 35.1166 9.52499 4
      vertex 34.2086 6.82199 4
      vertex 35.2716 5 4
    endloop
  endfacet
  facet normal 0 0 1
    outer loop
      vertex 34.2086 6.82199 4
      vertex 33.1246 5 4
      vertex 35.2716 5 4
    endloop
  endfacet
  facet normal 0 0 1
    outer loop
      vertex 34.2086 6.82199 4
      vertex 33.2996 9.52499 4
      vertex 33.1246 5 4
    endloop
  endfacet
  facet normal 0 0 1
    outer loop
      vertex 26.9026 20.296 4
      vertex 33.1246 5 4
      vertex 33.2996 9.52499 4
    endloop
  endfacet
  facet normal 0 1 0
    outer loop
      vertex 11.889 6.69199 2
      vertex 21.832 6.69199 4
      vertex 21.832 6.69199 2
    endloop
  endfacet
  facet normal 0 1 0
    outer loop
      vertex 11.889 6.69199 2
      vertex 11.889 6.69199 4
      vertex 21.832 6.69199 4
    endloop
  endfacet
  facet normal 1 0 0
    outer loop
      vertex 11.889 12.034 2
      vertex 11.889 6.69199 4
      vertex 11.889 6.69199 2
    endloop
  endfacet
  facet normal 1 0 -0
    outer loop
      vertex 11.889 12.034 2
      vertex 11.889 12.034 4
      vertex 11.889 6.69199 4
    endloop
  endfacet
  facet normal 0 -1 0
    outer loop
      vertex 20.738 12.034 2
      vertex 11.889 12.034 4
      vertex 11.889 12.034 2
    endloop
  endfacet
  facet normal 0 -1 0
    outer loop
      vertex 20.738 12.034 2
      vertex 20.738 12.034 4
      vertex 11.889 12.034 4
    endloop
  endfacet
  facet normal 1 0 0
    outer loop
      vertex 20.738 13.704 2
      vertex 20.738 12.034 4
      vertex 20.738 12.034 2
    endloop
  endfacet
  facet normal 1 0 -0
    outer loop
      vertex 20.738 13.704 2
      vertex 20.738 13.704 4
      vertex 20.738 12.034 4
    endloop
  endfacet
  facet normal 0 1 0
    outer loop
      vertex 11.889 13.704 2
      vertex 20.738 13.704 4
      vertex 20.738 13.704 2
    endloop
  endfacet
  facet normal 0 1 0
    outer loop
      vertex 11.889 13.704 2
      vertex 11.889 13.704 4
      vertex 20.738 13.704 4
    endloop
  endfacet
  facet normal 1 0 0
    outer loop
      vertex 11.889 18.604 2
      vertex 11.889 13.704 4
      vertex 11.889 13.704 2
    endloop
  endfacet
  facet normal 1 0 -0
    outer loop
      vertex 11.889 18.604 2
      vertex 11.889 18.604 4
      vertex 11.889 13.704 4
    endloop
  endfacet
  facet normal 0 -1 0
    outer loop
      vertex 21.388 18.604 2
      vertex 11.889 18.604 4
      vertex 11.889 18.604 2
    endloop
  endfacet
  facet normal 0 -1 0
    outer loop
      vertex 21.388 18.604 2
      vertex 21.388 18.604 4
      vertex 11.889 18.604 4
    endloop
  endfacet
  facet normal 1 0 0
    outer loop
      vertex 21.388 20.296 2
      vertex 21.388 18.604 4
      vertex 21.388 18.604 2
    endloop
  endfacet
  facet normal 1 0 -0
    outer loop
      vertex 21.388 20.296 2
      vertex 21.388 20.296 4
      vertex 21.388 18.604 4
    endloop
  endfacet
  facet normal 0 1 0
    outer loop
      vertex 9.81799 20.296 2
      vertex 21.388 20.296 4
      vertex 21.388 20.296 2
    endloop
  endfacet
  facet normal 0 1 0
    outer loop
      vertex 9.81799 20.296 2
      vertex 9.81799 20.296 4
      vertex 21.388 20.296 4
    endloop
  endfacet
  facet normal -1 0 0
    outer loop
      vertex 9.81799 5 2
      vertex 9.81799 20.296 4
      vertex 9.81799 20.296 2
    endloop
  endfacet
  facet normal -1 0 0
    outer loop
      vertex 9.81799 5 2
      vertex 9.81799 5 4
      vertex 9.81799 20.296 4
    endloop
  endfacet
  facet normal 0 -1 0
    outer loop
      vertex 21.832 5 2
      vertex 9.81799 5 4
      vertex 9.81799 5 2
    endloop
  endfacet
  facet normal 0 -1 0
    outer loop
      vertex 21.832 5 2
      vertex 21.832 5 4
      vertex 9.81799 5 4
    endloop
  endfacet
  facet normal 1 0 0
    outer loop
      vertex 21.832 6.69199 2
      vertex 21.832 5 4
      vertex 21.832 5 2
    endloop
  endfacet
  facet normal 1 0 -0
    outer loop
      vertex 21.832 6.69199 2
      vertex 21.832 6.69199 4
      vertex 21.832 5 4
    endloop
  endfacet
  facet normal 0 1 0
    outer loop
      vertex 39.3126 20.296 2
      vertex 41.4926 20.296 4
      vertex 41.4926 20.296 2
    endloop
  endfacet
  facet normal 0 1 0
    outer loop
      vertex 39.3126 20.296 2
      vertex 39.3126 20.296 4
      vertex 41.4926 20.296 4
    endloop
  endfacet
  facet normal -0.931792 0.362993 0
    outer loop
      vertex 35.1166 9.52499 2
      vertex 39.3126 20.296 4
      vertex 39.3126 20.296 2
    endloop
  endfacet
  facet normal -0.931792 0.362993 0
    outer loop
      vertex 35.1166 9.52499 2
      vertex 35.1166 9.52499 4
      vertex 39.3126 20.296 4
    endloop
  endfacet
  facet normal -0.947944 0.318438 0
    outer loop
      vertex 34.2086 6.82199 2
      vertex 35.1166 9.52499 4
      vertex 35.1166 9.52499 2
    endloop
  endfacet
  facet normal -0.947944 0.318438 0
    outer loop
      vertex 34.2086 6.82199 2
      vertex 34.2086 6.82199 4
      vertex 35.1166 9.52499 4
    endloop
  endfacet
  facet normal 0.947839 0.31875 0
    outer loop
      vertex 33.2996 9.52499 2
      vertex 34.2086 6.82199 4
      vertex 34.2086 6.82199 2
    endloop
  endfacet
  facet normal 0.947839 0.31875 -0
    outer loop
      vertex 33.2996 9.52499 2
      vertex 33.2996 9.52499 4
      vertex 34.2086 6.82199 4
    endloop
  endfacet
  facet normal 0.931147 0.364644 0
    outer loop
      vertex 29.0816 20.296 2
      vertex 33.2996 9.52499 4
      vertex 33.2996 9.52499 2
    endloop
  endfacet
  facet normal 0.931147 0.364644 -0
    outer loop
      vertex 29.0816 20.296 2
      vertex 29.0816 20.296 4
      vertex 33.2996 9.52499 4
    endloop
  endfacet
  facet normal 0 1 0
    outer loop
      vertex 26.9026 20.296 2
      vertex 29.0816 20.296 4
      vertex 29.0816 20.296 2
    endloop
  endfacet
  facet normal 0 1 0
    outer loop
      vertex 26.9026 20.296 2
      vertex 26.9026 20.296 4
      vertex 29.0816 20.296 4
    endloop
  endfacet
  facet normal -0.926297 -0.376793 0
    outer loop
      vertex 33.1246 5 2
      vertex 26.9026 20.296 4
      vertex 26.9026 20.296 2
    endloop
  endfacet
  facet normal -0.926297 -0.376793 0
    outer loop
      vertex 33.1246 5 2
      vertex 33.1246 5 4
      vertex 26.9026 20.296 4
    endloop
  endfacet
  facet normal 0 -1 0
    outer loop
      vertex 35.2716 5 2
      vertex 33.1246 5 4
      vertex 33.1246 5 2
    endloop
  endfacet
  facet normal 0 -1 0
    outer loop
      vertex 35.2716 5 2
      vertex 35.2716 5 4
      vertex 33.1246 5 4
    endloop
  endfacet
  facet normal 0.926319 -0.376741 0
    outer loop
      vertex 41.4926 20.296 2
      vertex 35.2716 5 4
      vertex 35.2716 5 2
    endloop
  endfacet
  facet normal 0.926319 -0.376741 0
    outer loop
      vertex 41.4926 20.296 2
      vertex 41.4926 20.296 4
      vertex 35.2716 5 4
    endloop
  endfacet
endsolid OpenSCAD_Model
