solid OpenSCAD_Model
  facet normal 0 0 -1
    outer loop
      vertex 9.81799 5 2
      vertex 9.81799 20.296 2
      vertex 11.889 12.034 2
    endloop
  endfacet
  facet normal 0 0 -1
    outer loop
      vertex 11.889 6.69199 2
      vertex 21.832 6.69199 2
      vertex 21.832 5 2
    endloop
  endfacet
  facet normal 0 0 -1
    outer loop
      vertex 11.889 12.034 2
      vertex 9.81799 20.296 2
      vertex 11.889 13.704 2
    endloop
  endfacet
  facet normal 0 -0 -1
    outer loop
      vertex 11.889 6.69199 2
      vertex 21.832 5 2
      vertex 9.81799 5 2
    endloop
  endfacet
  facet normal 0 0 -1
    outer loop
      vertex 11.889 13.704 2
      vertex 20.738 13.704 2
      vertex 20.738 12.034 2
    endloop
  endfacet
  facet normal 0 0 -1
    outer loop
      vertex 35.2196 5 2
      vertex 33.1586 11.34 2
      vertex 35.2196 11.34 2
    endloop
  endfacet
  facet normal 0 0 -1
    outer loop
      vertex 11.889 12.034 2
      vertex 11.889 13.704 2
      vertex 20.738 12.034 2
    endloop
  endfacet
  facet normal 0 0 -1
    outer loop
      vertex 11.889 13.704 2
      vertex 9.81799 20.296 2
      vertex 11.889 18.604 2
    endloop
  endfacet
  facet normal 0 0 -1
    outer loop
      vertex 29.5696 20.296 2
      vertex 34.2106 13.01 2
      vertex 33.1586 11.34 2
    endloop
  endfacet
  facet normal 0 0 -1
    outer loop
      vertex 11.889 18.604 2
      vertex 21.388 20.296 2
      vertex 21.388 18.604 2
    endloop
  endfacet
  facet normal 0 0 -1
    outer loop
      vertex 11.889 18.604 2
      vertex 9.81799 20.296 2
      vertex 21.388 20.296 2
    endloop
  endfacet
  facet normal -0 0 -1
    outer loop
      vertex 11.889 6.69199 2
      vertex 9.81799 5 2
      vertex 11.889 12.034 2
    endloop
  endfacet
  facet normal 0 0 -1
    outer loop
      vertex 27.2926 20.296 2
      vertex 29.5696 20.296 2
      vertex 33.1586 11.34 2
    endloop
  endfacet
  facet normal -0 0 -1
    outer loop
      vertex 41.1026 20.296 2
      vertex 35.2196 11.34 2
      vertex 38.8246 20.296 2
    endloop
  endfacet
  facet normal 0 0 -1
    outer loop
      vertex 35.2196 11.34 2
      vertex 34.2106 13.01 2
      vertex 38.8246 20.296 2
    endloop
  endfacet
  facet normal 0 0 -1
    outer loop
      vertex 33.1586 11.34 2
      vertex 34.2106 13.01 2
      vertex 35.2196 11.34 2
    endloop
  endfacet
  facet normal 0 0 -1
    outer loop
      vertex 35.2196 5 2
      vertex 33.1586 5 2
      vertex 33.1586 11.34 2
    endloop
  endfacet
  facet normal 0 0 1
    outer loop
      vertex 11.889 12.034 4
      vertex 9.81799 20.296 4
      vertex 9.81799 5 4
    endloop
  endfacet
  facet normal 0 -0 1
    outer loop
      vertex 21.832 5 4
      vertex 21.832 6.69199 4
      vertex 11.889 6.69199 4
    endloop
  endfacet
  facet normal 0 0 1
    outer loop
      vertex 11.889 13.704 4
      vertex 9.81799 20.296 4
      vertex 11.889 12.034 4
    endloop
  endfacet
  facet normal 0 0 1
    outer loop
      vertex 9.81799 5 4
      vertex 21.832 5 4
      vertex 11.889 6.69199 4
    endloop
  endfacet
  facet normal 0 -0 1
    outer loop
      vertex 20.738 12.034 4
      vertex 20.738 13.704 4
      vertex 11.889 13.704 4
    endloop
  endfacet
  facet normal 0 0 1
    outer loop
      vertex 35.2196 11.34 4
      vertex 33.1586 11.34 4
      vertex 35.2196 5 4
    endloop
  endfacet
  facet normal 0 0 1
    outer loop
      vertex 20.738 12.034 4
      vertex 11.889 13.704 4
      vertex 11.889 12.034 4
    endloop
  endfacet
  facet normal 0 0 1
    outer loop
      vertex 11.889 18.604 4
      vertex 9.81799 20.296 4
      vertex 11.889 13.704 4
    endloop
  endfacet
  facet normal 0 -0 1
    outer loop
      vertex 33.1586 11.34 4
      vertex 34.2106 13.01 4
      vertex 29.5696 20.296 4
    endloop
  endfacet
  facet normal 0 -0 1
    outer loop
      vertex 21.388 18.604 4
      vertex 21.388 20.296 4
      vertex 11.889 18.604 4
    endloop
  endfacet
  facet normal 0 0 1
    outer loop
      vertex 21.388 20.296 4
      vertex 9.81799 20.296 4
      vertex 11.889 18.604 4
    endloop
  endfacet
  facet normal 0 0 1
    outer loop
      vertex 11.889 12.034 4
      vertex 9.81799 5 4
      vertex 11.889 6.69199 4
    endloop
  endfacet
  facet normal 0 0 1
    outer loop
      vertex 33.1586 11.34 4
      vertex 29.5696 20.296 4
      vertex 27.2926 20.296 4
    endloop
  endfacet
  facet normal -0 0 1
    outer loop
      vertex 38.8246 20.296 4
      vertex 35.2196 11.34 4
      vertex 41.1026 20.296 4
    endloop
  endfacet
  facet normal 0 0 1
    outer loop
      vertex 38.8246 20.296 4
      vertex 34.2106 13.01 4
      vertex 35.2196 11.34 4
    endloop
  endfacet
  facet normal 0 0 1
    outer loop
      vertex 35.2196 11.34 4
      vertex 34.2106 13.01 4
      vertex 33.1586 11.34 4
    endloop
  endfacet
  facet normal 0 0 1
    outer loop
      vertex 33.1586 11.34 4
      vertex 33.1586 5 4
      vertex 35.2196 5 4
    endloop
  endfacet
  facet normal 0 1 0
    outer loop
      vertex 11.889 6.69199 2
      vertex 21.832 6.69199 4
      vertex 21.832 6.69199 2
    endloop
  endfacet
  facet normal 0 1 0
    outer loop
      vertex 11.889 6.69199 2
      vertex 11.889 6.69199 4
      vertex 21.832 6.69199 4
    endloop
  endfacet
  facet normal 1 0 0
    outer loop
      vertex 11.889 12.034 2
      vertex 11.889 6.69199 4
      vertex 11.889 6.69199 2
    endloop
  endfacet
  facet normal 1 0 -0
    outer loop
      vertex 11.889 12.034 2
      vertex 11.889 12.034 4
      vertex 11.889 6.69199 4
    endloop
  endfacet
  facet normal 0 -1 0
    outer loop
      vertex 20.738 12.034 2
      vertex 11.889 12.034 4
      vertex 11.889 12.034 2
    endloop
  endfacet
  facet normal 0 -1 0
    outer loop
      vertex 20.738 12.034 2
      vertex 20.738 12.034 4
      vertex 11.889 12.034 4
    endloop
  endfacet
  facet normal 1 0 0
    outer loop
      vertex 20.738 13.704 2
      vertex 20.738 12.034 4
      vertex 20.738 12.034 2
    endloop
  endfacet
  facet normal 1 0 -0
    outer loop
      vertex 20.738 13.704 2
      vertex 20.738 13.704 4
      vertex 20.738 12.034 4
    endloop
  endfacet
  facet normal 0 1 0
    outer loop
      vertex 11.889 13.704 2
      vertex 20.738 13.704 4
      vertex 20.738 13.704 2
    endloop
  endfacet
  facet normal 0 1 0
    outer loop
      vertex 11.889 13.704 2
      vertex 11.889 13.704 4
      vertex 20.738 13.704 4
    endloop
  endfacet
  facet normal 1 0 0
    outer loop
      vertex 11.889 18.604 2
      vertex 11.889 13.704 4
      vertex 11.889 13.704 2
    endloop
  endfacet
  facet normal 1 0 -0
    outer loop
      vertex 11.889 18.604 2
      vertex 11.889 18.604 4
      vertex 11.889 13.704 4
    endloop
  endfacet
  facet normal 0 -1 0
    outer loop
      vertex 21.388 18.604 2
      vertex 11.889 18.604 4
      vertex 11.889 18.604 2
    endloop
  endfacet
  facet normal 0 -1 0
    outer loop
      vertex 21.388 18.604 2
      vertex 21.388 18.604 4
      vertex 11.889 18.604 4
    endloop
  endfacet
  facet normal 1 0 0
    outer loop
      vertex 21.388 20.296 2
      vertex 21.388 18.604 4
      vertex 21.388 18.604 2
    endloop
  endfacet
  facet normal 1 0 -0
    outer loop
      vertex 21.388 20.296 2
      vertex 21.388 20.296 4
      vertex 21.388 18.604 4
    endloop
  endfacet
  facet normal 0 1 0
    outer loop
      vertex 9.81799 20.296 2
      vertex 21.388 20.296 4
      vertex 21.388 20.296 2
    endloop
  endfacet
  facet normal 0 1 0
    outer loop
      vertex 9.81799 20.296 2
      vertex 9.81799 20.296 4
      vertex 21.388 20.296 4
    endloop
  endfacet
  facet normal -1 0 0
    outer loop
      vertex 9.81799 5 2
      vertex 9.81799 20.296 4
      vertex 9.81799 20.296 2
    endloop
  endfacet
  facet normal -1 0 0
    outer loop
      vertex 9.81799 5 2
      vertex 9.81799 5 4
      vertex 9.81799 20.296 4
    endloop
  endfacet
  facet normal 0 -1 0
    outer loop
      vertex 21.832 5 2
      vertex 9.81799 5 4
      vertex 9.81799 5 2
    endloop
  endfacet
  facet normal 0 -1 0
    outer loop
      vertex 21.832 5 2
      vertex 21.832 5 4
      vertex 9.81799 5 4
    endloop
  endfacet
  facet normal 1 0 0
    outer loop
      vertex 21.832 6.69199 2
      vertex 21.832 5 4
      vertex 21.832 5 2
    endloop
  endfacet
  facet normal 1 0 -0
    outer loop
      vertex 21.832 6.69199 2
      vertex 21.832 6.69199 4
      vertex 21.832 5 4
    endloop
  endfacet
  facet normal 0.835807 -0.549023 0
    outer loop
      vertex 41.1026 20.296 2
      vertex 35.2196 11.34 4
      vertex 35.2196 11.34 2
    endloop
  endfacet
  facet normal 0.835807 -0.549023 0
    outer loop
      vertex 41.1026 20.296 2
      vertex 41.1026 20.296 4
      vertex 35.2196 11.34 4
    endloop
  endfacet
  facet normal 0 1 0
    outer loop
      vertex 38.8246 20.296 2
      vertex 41.1026 20.296 4
      vertex 41.1026 20.296 2
    endloop
  endfacet
  facet normal 0 1 0
    outer loop
      vertex 38.8246 20.296 2
      vertex 38.8246 20.296 4
      vertex 41.1026 20.296 4
    endloop
  endfacet
  facet normal -0.844843 0.535014 0
    outer loop
      vertex 34.2106 13.01 2
      vertex 38.8246 20.296 4
      vertex 38.8246 20.296 2
    endloop
  endfacet
  facet normal -0.844843 0.535014 0
    outer loop
      vertex 34.2106 13.01 2
      vertex 34.2106 13.01 4
      vertex 38.8246 20.296 4
    endloop
  endfacet
  facet normal 0.843428 0.537242 0
    outer loop
      vertex 29.5696 20.296 2
      vertex 34.2106 13.01 4
      vertex 34.2106 13.01 2
    endloop
  endfacet
  facet normal 0.843428 0.537242 -0
    outer loop
      vertex 29.5696 20.296 2
      vertex 29.5696 20.296 4
      vertex 34.2106 13.01 4
    endloop
  endfacet
  facet normal 0 1 0
    outer loop
      vertex 27.2926 20.296 2
      vertex 29.5696 20.296 4
      vertex 29.5696 20.296 2
    endloop
  endfacet
  facet normal 0 1 0
    outer loop
      vertex 27.2926 20.296 2
      vertex 27.2926 20.296 4
      vertex 29.5696 20.296 4
    endloop
  endfacet
  facet normal -0.836535 -0.547914 0
    outer loop
      vertex 33.1586 11.34 2
      vertex 27.2926 20.296 4
      vertex 27.2926 20.296 2
    endloop
  endfacet
  facet normal -0.836535 -0.547914 0
    outer loop
      vertex 33.1586 11.34 2
      vertex 33.1586 11.34 4
      vertex 27.2926 20.296 4
    endloop
  endfacet
  facet normal -1 0 0
    outer loop
      vertex 33.1586 5 2
      vertex 33.1586 11.34 4
      vertex 33.1586 11.34 2
    endloop
  endfacet
  facet normal -1 0 0
    outer loop
      vertex 33.1586 5 2
      vertex 33.1586 5 4
      vertex 33.1586 11.34 4
    endloop
  endfacet
  facet normal 0 -1 0
    outer loop
      vertex 35.2196 5 2
      vertex 33.1586 5 4
      vertex 33.1586 5 2
    endloop
  endfacet
  facet normal 0 -1 0
    outer loop
      vertex 35.2196 5 2
      vertex 35.2196 5 4
      vertex 33.1586 5 4
    endloop
  endfacet
  facet normal 1 0 0
    outer loop
      vertex 35.2196 11.34 2
      vertex 35.2196 5 4
      vertex 35.2196 5 2
    endloop
  endfacet
  facet normal 1 0 -0
    outer loop
      vertex 35.2196 11.34 2
      vertex 35.2196 11.34 4
      vertex 35.2196 5 4
    endloop
  endfacet
endsolid OpenSCAD_Model
