solid OpenSCAD_Model
  facet normal 0 0 -1
    outer loop
      vertex 9.81799 5 2
      vertex 9.81799 20.296 2
      vertex 11.889 12.034 2
    endloop
  endfacet
  facet normal 0 0 -1
    outer loop
      vertex 11.889 6.69199 2
      vertex 21.832 6.69199 2
      vertex 21.832 5 2
    endloop
  endfacet
  facet normal 0 0 -1
    outer loop
      vertex 11.889 12.034 2
      vertex 9.81799 20.296 2
      vertex 11.889 13.704 2
    endloop
  endfacet
  facet normal 0 -0 -1
    outer loop
      vertex 11.889 6.69199 2
      vertex 21.832 5 2
      vertex 9.81799 5 2
    endloop
  endfacet
  facet normal 0 0 -1
    outer loop
      vertex 11.889 13.704 2
      vertex 20.738 13.704 2
      vertex 20.738 12.034 2
    endloop
  endfacet
  facet normal 0 0 -1
    outer loop
      vertex 11.889 12.034 2
      vertex 11.889 13.704 2
      vertex 20.738 12.034 2
    endloop
  endfacet
  facet normal 0 0 -1
    outer loop
      vertex 11.889 13.704 2
      vertex 9.81799 20.296 2
      vertex 11.889 18.604 2
    endloop
  endfacet
  facet normal 0 0 -1
    outer loop
      vertex 11.889 18.604 2
      vertex 21.388 20.296 2
      vertex 21.388 18.604 2
    endloop
  endfacet
  facet normal 0 0 -1
    outer loop
      vertex 11.889 18.604 2
      vertex 9.81799 20.296 2
      vertex 21.388 20.296 2
    endloop
  endfacet
  facet normal -0 0 -1
    outer loop
      vertex 11.889 6.69199 2
      vertex 9.81799 5 2
      vertex 11.889 12.034 2
    endloop
  endfacet
  facet normal 0 0 -1
    outer loop
      vertex 28.3026 18.604 2
      vertex 28.3026 20.296 2
      vertex 36.8166 18.604 2
    endloop
  endfacet
  facet normal 0 0 -1
    outer loop
      vertex 39.6796 5 2
      vertex 29.8636 6.69199 2
      vertex 39.6796 6.69199 2
    endloop
  endfacet
  facet normal -0 0 -1
    outer loop
      vertex 39.1696 20.296 2
      vertex 36.8166 18.604 2
      vertex 28.3026 20.296 2
    endloop
  endfacet
  facet normal 0 0 -1
    outer loop
      vertex 39.6796 5 2
      vertex 27.5106 5 2
      vertex 29.8636 6.69199 2
    endloop
  endfacet
  facet normal 0 0 -1
    outer loop
      vertex 29.8636 6.69199 2
      vertex 36.8166 18.604 2
      vertex 39.1696 18.789 2
    endloop
  endfacet
  facet normal 0 0 -1
    outer loop
      vertex 36.8166 18.604 2
      vertex 39.1696 20.296 2
      vertex 39.1696 18.789 2
    endloop
  endfacet
  facet normal 0 0 -1
    outer loop
      vertex 27.5106 5 2
      vertex 27.5106 6.55099 2
      vertex 29.8636 6.69199 2
    endloop
  endfacet
  facet normal -0 0 -1
    outer loop
      vertex 29.8636 6.69199 2
      vertex 27.5106 6.55099 2
      vertex 36.8166 18.604 2
    endloop
  endfacet
  facet normal 0 0 1
    outer loop
      vertex 11.889 12.034 4
      vertex 9.81799 20.296 4
      vertex 9.81799 5 4
    endloop
  endfacet
  facet normal 0 -0 1
    outer loop
      vertex 21.832 5 4
      vertex 21.832 6.69199 4
      vertex 11.889 6.69199 4
    endloop
  endfacet
  facet normal 0 0 1
    outer loop
      vertex 11.889 13.704 4
      vertex 9.81799 20.296 4
      vertex 11.889 12.034 4
    endloop
  endfacet
  facet normal 0 0 1
    outer loop
      vertex 9.81799 5 4
      vertex 21.832 5 4
      vertex 11.889 6.69199 4
    endloop
  endfacet
  facet normal 0 -0 1
    outer loop
      vertex 20.738 12.034 4
      vertex 20.738 13.704 4
      vertex 11.889 13.704 4
    endloop
  endfacet
  facet normal 0 0 1
    outer loop
      vertex 20.738 12.034 4
      vertex 11.889 13.704 4
      vertex 11.889 12.034 4
    endloop
  endfacet
  facet normal 0 0 1
    outer loop
      vertex 11.889 18.604 4
      vertex 9.81799 20.296 4
      vertex 11.889 13.704 4
    endloop
  endfacet
  facet normal 0 -0 1
    outer loop
      vertex 21.388 18.604 4
      vertex 21.388 20.296 4
      vertex 11.889 18.604 4
    endloop
  endfacet
  facet normal 0 0 1
    outer loop
      vertex 21.388 20.296 4
      vertex 9.81799 20.296 4
      vertex 11.889 18.604 4
    endloop
  endfacet
  facet normal 0 0 1
    outer loop
      vertex 11.889 12.034 4
      vertex 9.81799 5 4
      vertex 11.889 6.69199 4
    endloop
  endfacet
  facet normal 0 0 1
    outer loop
      vertex 36.8166 18.604 4
      vertex 28.3026 20.296 4
      vertex 28.3026 18.604 4
    endloop
  endfacet
  facet normal 0 0 1
    outer loop
      vertex 39.6796 6.69199 4
      vertex 29.8636 6.69199 4
      vertex 39.6796 5 4
    endloop
  endfacet
  facet normal -0 0 1
    outer loop
      vertex 28.3026 20.296 4
      vertex 36.8166 18.604 4
      vertex 39.1696 20.296 4
    endloop
  endfacet
  facet normal 0 0 1
    outer loop
      vertex 29.8636 6.69199 4
      vertex 27.5106 5 4
      vertex 39.6796 5 4
    endloop
  endfacet
  facet normal 0 0 1
    outer loop
      vertex 39.1696 18.789 4
      vertex 36.8166 18.604 4
      vertex 29.8636 6.69199 4
    endloop
  endfacet
  facet normal 0 -0 1
    outer loop
      vertex 39.1696 18.789 4
      vertex 39.1696 20.296 4
      vertex 36.8166 18.604 4
    endloop
  endfacet
  facet normal 0 0 1
    outer loop
      vertex 29.8636 6.69199 4
      vertex 27.5106 6.55099 4
      vertex 27.5106 5 4
    endloop
  endfacet
  facet normal 0 0 1
    outer loop
      vertex 36.8166 18.604 4
      vertex 27.5106 6.55099 4
      vertex 29.8636 6.69199 4
    endloop
  endfacet
  facet normal 0 1 0
    outer loop
      vertex 11.889 6.69199 2
      vertex 21.832 6.69199 4
      vertex 21.832 6.69199 2
    endloop
  endfacet
  facet normal 0 1 0
    outer loop
      vertex 11.889 6.69199 2
      vertex 11.889 6.69199 4
      vertex 21.832 6.69199 4
    endloop
  endfacet
  facet normal 1 0 0
    outer loop
      vertex 11.889 12.034 2
      vertex 11.889 6.69199 4
      vertex 11.889 6.69199 2
    endloop
  endfacet
  facet normal 1 0 -0
    outer loop
      vertex 11.889 12.034 2
      vertex 11.889 12.034 4
      vertex 11.889 6.69199 4
    endloop
  endfacet
  facet normal 0 -1 0
    outer loop
      vertex 20.738 12.034 2
      vertex 11.889 12.034 4
      vertex 11.889 12.034 2
    endloop
  endfacet
  facet normal 0 -1 0
    outer loop
      vertex 20.738 12.034 2
      vertex 20.738 12.034 4
      vertex 11.889 12.034 4
    endloop
  endfacet
  facet normal 1 0 0
    outer loop
      vertex 20.738 13.704 2
      vertex 20.738 12.034 4
      vertex 20.738 12.034 2
    endloop
  endfacet
  facet normal 1 0 -0
    outer loop
      vertex 20.738 13.704 2
      vertex 20.738 13.704 4
      vertex 20.738 12.034 4
    endloop
  endfacet
  facet normal 0 1 0
    outer loop
      vertex 11.889 13.704 2
      vertex 20.738 13.704 4
      vertex 20.738 13.704 2
    endloop
  endfacet
  facet normal 0 1 0
    outer loop
      vertex 11.889 13.704 2
      vertex 11.889 13.704 4
      vertex 20.738 13.704 4
    endloop
  endfacet
  facet normal 1 0 0
    outer loop
      vertex 11.889 18.604 2
      vertex 11.889 13.704 4
      vertex 11.889 13.704 2
    endloop
  endfacet
  facet normal 1 0 -0
    outer loop
      vertex 11.889 18.604 2
      vertex 11.889 18.604 4
      vertex 11.889 13.704 4
    endloop
  endfacet
  facet normal 0 -1 0
    outer loop
      vertex 21.388 18.604 2
      vertex 11.889 18.604 4
      vertex 11.889 18.604 2
    endloop
  endfacet
  facet normal 0 -1 0
    outer loop
      vertex 21.388 18.604 2
      vertex 21.388 18.604 4
      vertex 11.889 18.604 4
    endloop
  endfacet
  facet normal 1 0 0
    outer loop
      vertex 21.388 20.296 2
      vertex 21.388 18.604 4
      vertex 21.388 18.604 2
    endloop
  endfacet
  facet normal 1 0 -0
    outer loop
      vertex 21.388 20.296 2
      vertex 21.388 20.296 4
      vertex 21.388 18.604 4
    endloop
  endfacet
  facet normal 0 1 0
    outer loop
      vertex 9.81799 20.296 2
      vertex 21.388 20.296 4
      vertex 21.388 20.296 2
    endloop
  endfacet
  facet normal 0 1 0
    outer loop
      vertex 9.81799 20.296 2
      vertex 9.81799 20.296 4
      vertex 21.388 20.296 4
    endloop
  endfacet
  facet normal -1 0 0
    outer loop
      vertex 9.81799 5 2
      vertex 9.81799 20.296 4
      vertex 9.81799 20.296 2
    endloop
  endfacet
  facet normal -1 0 0
    outer loop
      vertex 9.81799 5 2
      vertex 9.81799 5 4
      vertex 9.81799 20.296 4
    endloop
  endfacet
  facet normal 0 -1 0
    outer loop
      vertex 21.832 5 2
      vertex 9.81799 5 4
      vertex 9.81799 5 2
    endloop
  endfacet
  facet normal 0 -1 0
    outer loop
      vertex 21.832 5 2
      vertex 21.832 5 4
      vertex 9.81799 5 4
    endloop
  endfacet
  facet normal 1 0 0
    outer loop
      vertex 21.832 6.69199 2
      vertex 21.832 5 4
      vertex 21.832 5 2
    endloop
  endfacet
  facet normal 1 0 -0
    outer loop
      vertex 21.832 6.69199 2
      vertex 21.832 6.69199 4
      vertex 21.832 5 4
    endloop
  endfacet
  facet normal 0 1 0
    outer loop
      vertex 29.8636 6.69199 2
      vertex 39.6796 6.69199 4
      vertex 39.6796 6.69199 2
    endloop
  endfacet
  facet normal 0 1 0
    outer loop
      vertex 29.8636 6.69199 2
      vertex 29.8636 6.69199 4
      vertex 39.6796 6.69199 4
    endloop
  endfacet
  facet normal 0.792605 -0.609736 0
    outer loop
      vertex 39.1696 18.789 2
      vertex 29.8636 6.69199 4
      vertex 29.8636 6.69199 2
    endloop
  endfacet
  facet normal 0.792605 -0.609736 0
    outer loop
      vertex 39.1696 18.789 2
      vertex 39.1696 18.789 4
      vertex 29.8636 6.69199 4
    endloop
  endfacet
  facet normal 1 0 0
    outer loop
      vertex 39.1696 20.296 2
      vertex 39.1696 18.789 4
      vertex 39.1696 18.789 2
    endloop
  endfacet
  facet normal 1 0 -0
    outer loop
      vertex 39.1696 20.296 2
      vertex 39.1696 20.296 4
      vertex 39.1696 18.789 4
    endloop
  endfacet
  facet normal 0 1 0
    outer loop
      vertex 28.3026 20.296 2
      vertex 39.1696 20.296 4
      vertex 39.1696 20.296 2
    endloop
  endfacet
  facet normal 0 1 0
    outer loop
      vertex 28.3026 20.296 2
      vertex 28.3026 20.296 4
      vertex 39.1696 20.296 4
    endloop
  endfacet
  facet normal -1 0 0
    outer loop
      vertex 28.3026 18.604 2
      vertex 28.3026 20.296 4
      vertex 28.3026 20.296 2
    endloop
  endfacet
  facet normal -1 0 0
    outer loop
      vertex 28.3026 18.604 2
      vertex 28.3026 18.604 4
      vertex 28.3026 20.296 4
    endloop
  endfacet
  facet normal 0 -1 0
    outer loop
      vertex 36.8166 18.604 2
      vertex 28.3026 18.604 4
      vertex 28.3026 18.604 2
    endloop
  endfacet
  facet normal 0 -1 0
    outer loop
      vertex 36.8166 18.604 2
      vertex 36.8166 18.604 4
      vertex 28.3026 18.604 4
    endloop
  endfacet
  facet normal -0.791529 0.611132 0
    outer loop
      vertex 27.5106 6.55099 2
      vertex 36.8166 18.604 4
      vertex 36.8166 18.604 2
    endloop
  endfacet
  facet normal -0.791529 0.611132 0
    outer loop
      vertex 27.5106 6.55099 2
      vertex 27.5106 6.55099 4
      vertex 36.8166 18.604 4
    endloop
  endfacet
  facet normal -1 0 0
    outer loop
      vertex 27.5106 5 2
      vertex 27.5106 6.55099 4
      vertex 27.5106 6.55099 2
    endloop
  endfacet
  facet normal -1 0 0
    outer loop
      vertex 27.5106 5 2
      vertex 27.5106 5 4
      vertex 27.5106 6.55099 4
    endloop
  endfacet
  facet normal 0 -1 0
    outer loop
      vertex 39.6796 5 2
      vertex 27.5106 5 4
      vertex 27.5106 5 2
    endloop
  endfacet
  facet normal 0 -1 0
    outer loop
      vertex 39.6796 5 2
      vertex 39.6796 5 4
      vertex 27.5106 5 4
    endloop
  endfacet
  facet normal 1 0 0
    outer loop
      vertex 39.6796 6.69199 2
      vertex 39.6796 5 4
      vertex 39.6796 5 2
    endloop
  endfacet
  facet normal 1 0 -0
    outer loop
      vertex 39.6796 6.69199 2
      vertex 39.6796 6.69199 4
      vertex 39.6796 5 4
    endloop
  endfacet
endsolid OpenSCAD_Model
