solid OpenSCAD_Model
  facet normal 0 0 -1
    outer loop
      vertex 20.418 11.223 2
      vertex 11.893 12.936 2
      vertex 20.418 12.936 2
    endloop
  endfacet
  facet normal 0 0 -1
    outer loop
      vertex 20.418 11.223 2
      vertex 11.893 11.223 2
      vertex 11.893 12.936 2
    endloop
  endfacet
  facet normal 0 -0 -1
    outer loop
      vertex 11.893 12.936 2
      vertex 11.893 11.223 2
      vertex 9.82199 5 2
    endloop
  endfacet
  facet normal 0 0 -1
    outer loop
      vertex 30.1833 16.114 2
      vertex 29.9323 20.296 2
      vertex 30.5078 16.9993 2
    endloop
  endfacet
  facet normal -0 0 -1
    outer loop
      vertex 11.893 12.936 2
      vertex 9.82199 5 2
      vertex 9.82199 20.296 2
    endloop
  endfacet
  facet normal -0 -0 -1
    outer loop
      vertex 11.893 18.604 2
      vertex 11.893 12.936 2
      vertex 9.82199 20.296 2
    endloop
  endfacet
  facet normal 0 0 -1
    outer loop
      vertex 27.6093 9.46399 2
      vertex 28.2363 11.08 2
      vertex 34.5523 9.46399 2
    endloop
  endfacet
  facet normal 0 0 -1
    outer loop
      vertex 20.679 18.604 2
      vertex 11.893 18.604 2
      vertex 20.679 20.296 2
    endloop
  endfacet
  facet normal 0 0 -1
    outer loop
      vertex 34.5523 9.46399 2
      vertex 33.9363 11.08 2
      vertex 38.4083 5 2
    endloop
  endfacet
  facet normal -0 0 -1
    outer loop
      vertex 20.679 20.296 2
      vertex 11.893 18.604 2
      vertex 9.82199 20.296 2
    endloop
  endfacet
  facet normal 0 -0 -1
    outer loop
      vertex 11.893 11.223 2
      vertex 11.893 5 2
      vertex 9.82199 5 2
    endloop
  endfacet
  facet normal 0 0 -1
    outer loop
      vertex 27.6093 9.46399 2
      vertex 25.8573 5 2
      vertex 23.7103 5 2
    endloop
  endfacet
  facet normal 0 0 -1
    outer loop
      vertex 23.7103 5 2
      vertex 29.9323 20.296 2
      vertex 28.2363 11.08 2
    endloop
  endfacet
  facet normal 0 0 -1
    outer loop
      vertex 34.5523 9.46399 2
      vertex 28.2363 11.08 2
      vertex 33.9363 11.08 2
    endloop
  endfacet
  facet normal 0 0 -1
    outer loop
      vertex 34.5523 9.46399 2
      vertex 38.4083 5 2
      vertex 36.2933 5 2
    endloop
  endfacet
  facet normal 0 0 -1
    outer loop
      vertex 33.9363 11.08 2
      vertex 32.2853 20.296 2
      vertex 38.4083 5 2
    endloop
  endfacet
  facet normal -0 0 -1
    outer loop
      vertex 27.6093 9.46399 2
      vertex 23.7103 5 2
      vertex 28.2363 11.08 2
    endloop
  endfacet
  facet normal 0 0 -1
    outer loop
      vertex 28.2363 11.08 2
      vertex 29.9323 20.296 2
      vertex 30.1833 16.114 2
    endloop
  endfacet
  facet normal 0 0 -1
    outer loop
      vertex 31.0813 18.734 2
      vertex 32.2853 20.296 2
      vertex 31.3733 17.832 2
    endloop
  endfacet
  facet normal 0 0 -1
    outer loop
      vertex 30.5078 16.9993 2
      vertex 29.9323 20.296 2
      vertex 30.7748 17.7713 2
    endloop
  endfacet
  facet normal 0 0 -1
    outer loop
      vertex 30.7748 17.7713 2
      vertex 29.9323 20.296 2
      vertex 31.0813 18.734 2
    endloop
  endfacet
  facet normal 0 0 -1
    outer loop
      vertex 31.0813 18.734 2
      vertex 29.9323 20.296 2
      vertex 32.2853 20.296 2
    endloop
  endfacet
  facet normal 0 0 -1
    outer loop
      vertex 31.3733 17.832 2
      vertex 32.2853 20.296 2
      vertex 31.5753 17.2231 2
    endloop
  endfacet
  facet normal 0 0 -1
    outer loop
      vertex 31.5753 17.2231 2
      vertex 32.2853 20.296 2
      vertex 31.7773 16.6578 2
    endloop
  endfacet
  facet normal 0 0 -1
    outer loop
      vertex 31.7773 16.6578 2
      vertex 32.2853 20.296 2
      vertex 33.9363 11.08 2
    endloop
  endfacet
  facet normal 0 0 1
    outer loop
      vertex 20.418 12.936 4
      vertex 11.893 12.936 4
      vertex 20.418 11.223 4
    endloop
  endfacet
  facet normal 0 0 1
    outer loop
      vertex 11.893 12.936 4
      vertex 11.893 11.223 4
      vertex 20.418 11.223 4
    endloop
  endfacet
  facet normal 0 0 1
    outer loop
      vertex 9.82199 5 4
      vertex 11.893 11.223 4
      vertex 11.893 12.936 4
    endloop
  endfacet
  facet normal 0 0 1
    outer loop
      vertex 30.5078 16.9993 4
      vertex 29.9323 20.296 4
      vertex 30.1833 16.114 4
    endloop
  endfacet
  facet normal 0 0 1
    outer loop
      vertex 9.82199 20.296 4
      vertex 9.82199 5 4
      vertex 11.893 12.936 4
    endloop
  endfacet
  facet normal 0 0 1
    outer loop
      vertex 9.82199 20.296 4
      vertex 11.893 12.936 4
      vertex 11.893 18.604 4
    endloop
  endfacet
  facet normal 0 0 1
    outer loop
      vertex 34.5523 9.46399 4
      vertex 28.2363 11.08 4
      vertex 27.6093 9.46399 4
    endloop
  endfacet
  facet normal 0 0 1
    outer loop
      vertex 20.679 20.296 4
      vertex 11.893 18.604 4
      vertex 20.679 18.604 4
    endloop
  endfacet
  facet normal 0 0 1
    outer loop
      vertex 38.4083 5 4
      vertex 33.9363 11.08 4
      vertex 34.5523 9.46399 4
    endloop
  endfacet
  facet normal -0 0 1
    outer loop
      vertex 9.82199 20.296 4
      vertex 11.893 18.604 4
      vertex 20.679 20.296 4
    endloop
  endfacet
  facet normal 0 0 1
    outer loop
      vertex 9.82199 5 4
      vertex 11.893 5 4
      vertex 11.893 11.223 4
    endloop
  endfacet
  facet normal 0 0 1
    outer loop
      vertex 23.7103 5 4
      vertex 25.8573 5 4
      vertex 27.6093 9.46399 4
    endloop
  endfacet
  facet normal 0 -0 1
    outer loop
      vertex 28.2363 11.08 4
      vertex 29.9323 20.296 4
      vertex 23.7103 5 4
    endloop
  endfacet
  facet normal 0 0 1
    outer loop
      vertex 33.9363 11.08 4
      vertex 28.2363 11.08 4
      vertex 34.5523 9.46399 4
    endloop
  endfacet
  facet normal 0 -0 1
    outer loop
      vertex 36.2933 5 4
      vertex 38.4083 5 4
      vertex 34.5523 9.46399 4
    endloop
  endfacet
  facet normal 0 0 1
    outer loop
      vertex 38.4083 5 4
      vertex 32.2853 20.296 4
      vertex 33.9363 11.08 4
    endloop
  endfacet
  facet normal 0 0 1
    outer loop
      vertex 28.2363 11.08 4
      vertex 23.7103 5 4
      vertex 27.6093 9.46399 4
    endloop
  endfacet
  facet normal 0 0 1
    outer loop
      vertex 30.1833 16.114 4
      vertex 29.9323 20.296 4
      vertex 28.2363 11.08 4
    endloop
  endfacet
  facet normal 0 -0 1
    outer loop
      vertex 31.3733 17.832 4
      vertex 32.2853 20.296 4
      vertex 31.0813 18.734 4
    endloop
  endfacet
  facet normal 0 0 1
    outer loop
      vertex 30.7748 17.7713 4
      vertex 29.9323 20.296 4
      vertex 30.5078 16.9993 4
    endloop
  endfacet
  facet normal 0 0 1
    outer loop
      vertex 31.0813 18.734 4
      vertex 29.9323 20.296 4
      vertex 30.7748 17.7713 4
    endloop
  endfacet
  facet normal 0 0 1
    outer loop
      vertex 32.2853 20.296 4
      vertex 29.9323 20.296 4
      vertex 31.0813 18.734 4
    endloop
  endfacet
  facet normal 0 -0 1
    outer loop
      vertex 31.5753 17.2231 4
      vertex 32.2853 20.296 4
      vertex 31.3733 17.832 4
    endloop
  endfacet
  facet normal 0 -0 1
    outer loop
      vertex 31.7773 16.6578 4
      vertex 32.2853 20.296 4
      vertex 31.5753 17.2231 4
    endloop
  endfacet
  facet normal 0 0 1
    outer loop
      vertex 33.9363 11.08 4
      vertex 32.2853 20.296 4
      vertex 31.7773 16.6578 4
    endloop
  endfacet
  facet normal 0 -1 0
    outer loop
      vertex 20.418 11.223 2
      vertex 11.893 11.223 4
      vertex 11.893 11.223 2
    endloop
  endfacet
  facet normal 0 -1 0
    outer loop
      vertex 20.418 11.223 2
      vertex 20.418 11.223 4
      vertex 11.893 11.223 4
    endloop
  endfacet
  facet normal 1 0 0
    outer loop
      vertex 20.418 12.936 2
      vertex 20.418 11.223 4
      vertex 20.418 11.223 2
    endloop
  endfacet
  facet normal 1 0 -0
    outer loop
      vertex 20.418 12.936 2
      vertex 20.418 12.936 4
      vertex 20.418 11.223 4
    endloop
  endfacet
  facet normal 0 1 0
    outer loop
      vertex 11.893 12.936 2
      vertex 20.418 12.936 4
      vertex 20.418 12.936 2
    endloop
  endfacet
  facet normal 0 1 0
    outer loop
      vertex 11.893 12.936 2
      vertex 11.893 12.936 4
      vertex 20.418 12.936 4
    endloop
  endfacet
  facet normal 1 0 0
    outer loop
      vertex 11.893 18.604 2
      vertex 11.893 12.936 4
      vertex 11.893 12.936 2
    endloop
  endfacet
  facet normal 1 0 -0
    outer loop
      vertex 11.893 18.604 2
      vertex 11.893 18.604 4
      vertex 11.893 12.936 4
    endloop
  endfacet
  facet normal 0 -1 0
    outer loop
      vertex 20.679 18.604 2
      vertex 11.893 18.604 4
      vertex 11.893 18.604 2
    endloop
  endfacet
  facet normal 0 -1 0
    outer loop
      vertex 20.679 18.604 2
      vertex 20.679 18.604 4
      vertex 11.893 18.604 4
    endloop
  endfacet
  facet normal 1 0 0
    outer loop
      vertex 20.679 20.296 2
      vertex 20.679 18.604 4
      vertex 20.679 18.604 2
    endloop
  endfacet
  facet normal 1 0 -0
    outer loop
      vertex 20.679 20.296 2
      vertex 20.679 20.296 4
      vertex 20.679 18.604 4
    endloop
  endfacet
  facet normal 0 1 0
    outer loop
      vertex 9.82199 20.296 2
      vertex 20.679 20.296 4
      vertex 20.679 20.296 2
    endloop
  endfacet
  facet normal 0 1 0
    outer loop
      vertex 9.82199 20.296 2
      vertex 9.82199 20.296 4
      vertex 20.679 20.296 4
    endloop
  endfacet
  facet normal -1 0 0
    outer loop
      vertex 9.82199 5 2
      vertex 9.82199 20.296 4
      vertex 9.82199 20.296 2
    endloop
  endfacet
  facet normal -1 0 0
    outer loop
      vertex 9.82199 5 2
      vertex 9.82199 5 4
      vertex 9.82199 20.296 4
    endloop
  endfacet
  facet normal 0 -1 0
    outer loop
      vertex 11.893 5 2
      vertex 9.82199 5 4
      vertex 9.82199 5 2
    endloop
  endfacet
  facet normal 0 -1 0
    outer loop
      vertex 11.893 5 2
      vertex 11.893 5 4
      vertex 9.82199 5 4
    endloop
  endfacet
  facet normal 1 0 0
    outer loop
      vertex 11.893 11.223 2
      vertex 11.893 5 4
      vertex 11.893 5 2
    endloop
  endfacet
  facet normal 1 0 -0
    outer loop
      vertex 11.893 11.223 2
      vertex 11.893 11.223 4
      vertex 11.893 5 4
    endloop
  endfacet
  facet normal 0 -1 0
    outer loop
      vertex 34.5523 9.46399 2
      vertex 27.6093 9.46399 4
      vertex 27.6093 9.46399 2
    endloop
  endfacet
  facet normal 0 -1 0
    outer loop
      vertex 34.5523 9.46399 2
      vertex 34.5523 9.46399 4
      vertex 27.6093 9.46399 4
    endloop
  endfacet
  facet normal -0.931652 -0.363353 0
    outer loop
      vertex 36.2933 5 2
      vertex 34.5523 9.46399 4
      vertex 34.5523 9.46399 2
    endloop
  endfacet
  facet normal -0.931652 -0.363353 0
    outer loop
      vertex 36.2933 5 2
      vertex 36.2933 5 4
      vertex 34.5523 9.46399 4
    endloop
  endfacet
  facet normal 0 -1 0
    outer loop
      vertex 38.4083 5 2
      vertex 36.2933 5 4
      vertex 36.2933 5 2
    endloop
  endfacet
  facet normal 0 -1 0
    outer loop
      vertex 38.4083 5 2
      vertex 38.4083 5 4
      vertex 36.2933 5 4
    endloop
  endfacet
  facet normal 0.92838 0.371632 0
    outer loop
      vertex 32.2853 20.296 2
      vertex 38.4083 5 4
      vertex 38.4083 5 2
    endloop
  endfacet
  facet normal 0.92838 0.371632 -0
    outer loop
      vertex 32.2853 20.296 2
      vertex 32.2853 20.296 4
      vertex 38.4083 5 4
    endloop
  endfacet
  facet normal 0 1 0
    outer loop
      vertex 29.9323 20.296 2
      vertex 32.2853 20.296 4
      vertex 32.2853 20.296 2
    endloop
  endfacet
  facet normal 0 1 0
    outer loop
      vertex 29.9323 20.296 2
      vertex 29.9323 20.296 4
      vertex 32.2853 20.296 4
    endloop
  endfacet
  facet normal -0.926297 0.376793 0
    outer loop
      vertex 23.7103 5 2
      vertex 29.9323 20.296 4
      vertex 29.9323 20.296 2
    endloop
  endfacet
  facet normal -0.926297 0.376793 0
    outer loop
      vertex 23.7103 5 2
      vertex 23.7103 5 4
      vertex 29.9323 20.296 4
    endloop
  endfacet
  facet normal 0 -1 0
    outer loop
      vertex 25.8573 5 2
      vertex 23.7103 5 4
      vertex 23.7103 5 2
    endloop
  endfacet
  facet normal 0 -1 0
    outer loop
      vertex 25.8573 5 2
      vertex 25.8573 5 4
      vertex 23.7103 5 4
    endloop
  endfacet
  facet normal 0.930873 -0.365343 0
    outer loop
      vertex 27.6093 9.46399 2
      vertex 25.8573 5 4
      vertex 25.8573 5 2
    endloop
  endfacet
  facet normal 0.930873 -0.365343 0
    outer loop
      vertex 27.6093 9.46399 2
      vertex 27.6093 9.46399 4
      vertex 25.8573 5 4
    endloop
  endfacet
  facet normal 0.932672 -0.360727 0
    outer loop
      vertex 30.1833 16.114 2
      vertex 30.1833 16.114 4
      vertex 28.2363 11.08 2
    endloop
  endfacet
  facet normal 0.932672 -0.360727 0
    outer loop
      vertex 28.2363 11.08 4
      vertex 28.2363 11.08 2
      vertex 30.1833 16.114 4
    endloop
  endfacet
  facet normal 0.938899 -0.344192 0
    outer loop
      vertex 30.5078 16.9993 2
      vertex 30.5078 16.9993 4
      vertex 30.1833 16.114 2
    endloop
  endfacet
  facet normal 0.938899 -0.344192 0
    outer loop
      vertex 30.1833 16.114 4
      vertex 30.1833 16.114 2
      vertex 30.5078 16.9993 4
    endloop
  endfacet
  facet normal 0.945074 -0.326855 0
    outer loop
      vertex 30.7748 17.7713 2
      vertex 30.7748 17.7713 4
      vertex 30.5078 16.9993 2
    endloop
  endfacet
  facet normal 0.945074 -0.326855 0
    outer loop
      vertex 30.5078 16.9993 4
      vertex 30.5078 16.9993 2
      vertex 30.7748 17.7713 4
    endloop
  endfacet
  facet normal 0.952881 -0.303344 0
    outer loop
      vertex 31.0813 18.734 2
      vertex 31.0813 18.734 4
      vertex 30.7748 17.7713 2
    endloop
  endfacet
  facet normal 0.952881 -0.303344 0
    outer loop
      vertex 30.7748 17.7713 4
      vertex 30.7748 17.7713 2
      vertex 31.0813 18.734 4
    endloop
  endfacet
  facet normal -0.951393 -0.307979 0
    outer loop
      vertex 31.3733 17.832 2
      vertex 31.3733 17.832 4
      vertex 31.0813 18.734 2
    endloop
  endfacet
  facet normal -0.951393 -0.307979 -0
    outer loop
      vertex 31.0813 18.734 4
      vertex 31.0813 18.734 2
      vertex 31.3733 17.832 4
    endloop
  endfacet
  facet normal -0.949134 -0.314872 0
    outer loop
      vertex 31.5753 17.2231 2
      vertex 31.5753 17.2231 4
      vertex 31.3733 17.832 2
    endloop
  endfacet
  facet normal -0.949134 -0.314872 -0
    outer loop
      vertex 31.3733 17.832 4
      vertex 31.3733 17.832 2
      vertex 31.5753 17.2231 4
    endloop
  endfacet
  facet normal -0.941684 -0.336499 0
    outer loop
      vertex 31.7773 16.6578 2
      vertex 31.7773 16.6578 4
      vertex 31.5753 17.2231 2
    endloop
  endfacet
  facet normal -0.941684 -0.336499 -0
    outer loop
      vertex 31.5753 17.2231 4
      vertex 31.5753 17.2231 2
      vertex 31.7773 16.6578 4
    endloop
  endfacet
  facet normal -0.932576 -0.360973 0
    outer loop
      vertex 33.9363 11.08 2
      vertex 33.9363 11.08 4
      vertex 31.7773 16.6578 2
    endloop
  endfacet
  facet normal -0.932576 -0.360973 -0
    outer loop
      vertex 31.7773 16.6578 4
      vertex 31.7773 16.6578 2
      vertex 33.9363 11.08 4
    endloop
  endfacet
  facet normal 0 1 0
    outer loop
      vertex 28.2363 11.08 2
      vertex 28.2363 11.08 4
      vertex 33.9363 11.08 2
    endloop
  endfacet
  facet normal 0 1 0
    outer loop
      vertex 33.9363 11.08 4
      vertex 33.9363 11.08 2
      vertex 28.2363 11.08 4
    endloop
  endfacet
endsolid OpenSCAD_Model
