solid OpenSCAD_Model
  facet normal 0 0 -1
    outer loop
      vertex 20.418 11.223 2
      vertex 11.893 12.936 2
      vertex 20.418 12.936 2
    endloop
  endfacet
  facet normal 0 0 -1
    outer loop
      vertex 20.418 11.223 2
      vertex 11.893 11.223 2
      vertex 11.893 12.936 2
    endloop
  endfacet
  facet normal 0 -0 -1
    outer loop
      vertex 11.893 12.936 2
      vertex 11.893 11.223 2
      vertex 9.82199 5 2
    endloop
  endfacet
  facet normal 0 0 -1
    outer loop
      vertex 36.3249 10.9556 2
      vertex 35.0632 11.8529 2
      vertex 36.1702 12.8097 2
    endloop
  endfacet
  facet normal -0 0 -1
    outer loop
      vertex 11.893 12.936 2
      vertex 9.82199 5 2
      vertex 9.82199 20.296 2
    endloop
  endfacet
  facet normal -0 -0 -1
    outer loop
      vertex 11.893 18.604 2
      vertex 11.893 12.936 2
      vertex 9.82199 20.296 2
    endloop
  endfacet
  facet normal 0 0 -1
    outer loop
      vertex 38.1783 6.98532 2
      vertex 36.361 7.90755 2
      vertex 36.6493 8.60689 2
    endloop
  endfacet
  facet normal 0 0 -1
    outer loop
      vertex 20.679 18.604 2
      vertex 11.893 18.604 2
      vertex 20.679 20.296 2
    endloop
  endfacet
  facet normal 0 0 -1
    outer loop
      vertex 36.6493 8.60689 2
      vertex 36.7455 9.45999 2
      vertex 38.8374 9.29599 2
    endloop
  endfacet
  facet normal -0 0 -1
    outer loop
      vertex 20.679 20.296 2
      vertex 11.893 18.604 2
      vertex 9.82199 20.296 2
    endloop
  endfacet
  facet normal 0 -0 -1
    outer loop
      vertex 11.893 11.223 2
      vertex 11.893 5 2
      vertex 9.82199 5 2
    endloop
  endfacet
  facet normal -0 0 -1
    outer loop
      vertex 34.8633 5.12566 2
      vertex 33.2315 5 2
      vertex 34.2707 6.73711 2
    endloop
  endfacet
  facet normal 0 0 -1
    outer loop
      vertex 38.3997 11.0973 2
      vertex 36.7455 9.45999 2
      vertex 36.3249 10.9556 2
    endloop
  endfacet
  facet normal 0 -0 -1
    outer loop
      vertex 37.8524 11.823 2
      vertex 38.3997 11.0973 2
      vertex 36.3249 10.9556 2
    endloop
  endfacet
  facet normal 0 -0 -1
    outer loop
      vertex 37.1039 12.4037 2
      vertex 37.8524 11.823 2
      vertex 36.3249 10.9556 2
    endloop
  endfacet
  facet normal 0 0 -1
    outer loop
      vertex 36.1702 12.8097 2
      vertex 37.1039 12.4037 2
      vertex 36.3249 10.9556 2
    endloop
  endfacet
  facet normal -0 0 -1
    outer loop
      vertex 38.728 10.255 2
      vertex 36.7455 9.45999 2
      vertex 38.3997 11.0973 2
    endloop
  endfacet
  facet normal 0 0 -1
    outer loop
      vertex 35.0632 11.8529 2
      vertex 32.9604 12.152 2
      vertex 35.0515 13.041 2
    endloop
  endfacet
  facet normal 0 0 -1
    outer loop
      vertex 36.2377 5.50266 2
      vertex 35.8804 7.362 2
      vertex 37.3544 6.131 2
    endloop
  endfacet
  facet normal 0 0 -1
    outer loop
      vertex 33.2315 5 2
      vertex 29.1115 6.659 2
      vertex 33.1235 6.659 2
    endloop
  endfacet
  facet normal 0 0 -1
    outer loop
      vertex 29.1115 13.768 2
      vertex 27.0405 20.296 2
      vertex 29.1115 18.637 2
    endloop
  endfacet
  facet normal 0 0 -1
    outer loop
      vertex 37.8663 15.711 2
      vertex 35.8685 16.323 2
      vertex 37.9505 16.57 2
    endloop
  endfacet
  facet normal 0 0 -1
    outer loop
      vertex 37.9505 16.57 2
      vertex 35.7747 17.0735 2
      vertex 37.354 18.64 2
    endloop
  endfacet
  facet normal 0 0 -1
    outer loop
      vertex 35.4933 17.6665 2
      vertex 37.354 18.64 2
      vertex 35.7747 17.0735 2
    endloop
  endfacet
  facet normal 0 0 -1
    outer loop
      vertex 33.564 18.5775 2
      vertex 32.5825 20.296 2
      vertex 35.5647 19.882 2
    endloop
  endfacet
  facet normal 0 0 -1
    outer loop
      vertex 33.564 18.5775 2
      vertex 32.5815 18.637 2
      vertex 32.5825 20.296 2
    endloop
  endfacet
  facet normal 0 0 -1
    outer loop
      vertex 27.0405 20.296 2
      vertex 29.1115 13.768 2
      vertex 29.1115 12.152 2
    endloop
  endfacet
  facet normal -0 0 -1
    outer loop
      vertex 29.1115 12.152 2
      vertex 27.0405 5 2
      vertex 27.0405 20.296 2
    endloop
  endfacet
  facet normal 0 0 -1
    outer loop
      vertex 29.1115 18.637 2
      vertex 27.0405 20.296 2
      vertex 32.5825 20.296 2
    endloop
  endfacet
  facet normal 0 0 -1
    outer loop
      vertex 32.5815 18.637 2
      vertex 29.1115 18.637 2
      vertex 32.5825 20.296 2
    endloop
  endfacet
  facet normal 0 0 -1
    outer loop
      vertex 33.564 18.5775 2
      vertex 35.5647 19.882 2
      vertex 34.3783 18.3992 2
    endloop
  endfacet
  facet normal 0 0 -1
    outer loop
      vertex 34.3783 18.3992 2
      vertex 35.5647 19.882 2
      vertex 35.0245 18.102 2
    endloop
  endfacet
  facet normal 0 0 -1
    outer loop
      vertex 35.4933 17.6665 2
      vertex 35.5647 19.882 2
      vertex 37.354 18.64 2
    endloop
  endfacet
  facet normal 0 0 -1
    outer loop
      vertex 35.0245 18.102 2
      vertex 35.5647 19.882 2
      vertex 35.4933 17.6665 2
    endloop
  endfacet
  facet normal -0 0 -1
    outer loop
      vertex 37.9505 16.57 2
      vertex 35.8685 16.323 2
      vertex 35.7747 17.0735 2
    endloop
  endfacet
  facet normal 0 0 -1
    outer loop
      vertex 37.8663 15.711 2
      vertex 37.614 14.9487 2
      vertex 35.7778 15.531 2
    endloop
  endfacet
  facet normal -0 0 -1
    outer loop
      vertex 37.8663 15.711 2
      vertex 35.7778 15.531 2
      vertex 35.8685 16.323 2
    endloop
  endfacet
  facet normal 0 -0 -1
    outer loop
      vertex 35.7778 15.531 2
      vertex 37.1935 14.283 2
      vertex 35.5058 14.8883 2
    endloop
  endfacet
  facet normal -0 0 -1
    outer loop
      vertex 37.614 14.9487 2
      vertex 37.1935 14.283 2
      vertex 35.7778 15.531 2
    endloop
  endfacet
  facet normal 0 0 -1
    outer loop
      vertex 35.5058 14.8883 2
      vertex 36.619 13.7334 2
      vertex 35.905 13.3194 2
    endloop
  endfacet
  facet normal -0 0 -1
    outer loop
      vertex 37.1935 14.283 2
      vertex 36.619 13.7334 2
      vertex 35.5058 14.8883 2
    endloop
  endfacet
  facet normal 0 -0 -1
    outer loop
      vertex 35.5058 14.8883 2
      vertex 35.905 13.3194 2
      vertex 35.0525 14.395 2
    endloop
  endfacet
  facet normal 0 -0 -1
    outer loop
      vertex 35.0525 14.395 2
      vertex 35.905 13.3194 2
      vertex 35.0515 13.041 2
    endloop
  endfacet
  facet normal 0 0 -1
    outer loop
      vertex 34.4152 14.0467 2
      vertex 35.0525 14.395 2
      vertex 35.0515 13.041 2
    endloop
  endfacet
  facet normal 0 0 -1
    outer loop
      vertex 32.5815 13.768 2
      vertex 33.5916 13.8377 2
      vertex 32.9604 12.152 2
    endloop
  endfacet
  facet normal 0 0 -1
    outer loop
      vertex 33.5916 13.8377 2
      vertex 34.4152 14.0467 2
      vertex 35.0515 13.041 2
    endloop
  endfacet
  facet normal 0 0 -1
    outer loop
      vertex 33.2315 5 2
      vertex 33.1235 6.659 2
      vertex 34.2707 6.73711 2
    endloop
  endfacet
  facet normal 0 0 -1
    outer loop
      vertex 29.1115 12.152 2
      vertex 29.1115 13.768 2
      vertex 32.5815 13.768 2
    endloop
  endfacet
  facet normal 0 0 -1
    outer loop
      vertex 27.0405 5 2
      vertex 29.1115 6.659 2
      vertex 33.2315 5 2
    endloop
  endfacet
  facet normal 0 0 -1
    outer loop
      vertex 27.0405 5 2
      vertex 29.1115 12.152 2
      vertex 29.1115 6.659 2
    endloop
  endfacet
  facet normal -0 0 -1
    outer loop
      vertex 35.0515 13.041 2
      vertex 32.9604 12.152 2
      vertex 33.5916 13.8377 2
    endloop
  endfacet
  facet normal 0 0 -1
    outer loop
      vertex 32.9604 12.152 2
      vertex 29.1115 12.152 2
      vertex 32.5815 13.768 2
    endloop
  endfacet
  facet normal -0 0 -1
    outer loop
      vertex 36.1702 12.8097 2
      vertex 35.0632 11.8529 2
      vertex 35.0515 13.041 2
    endloop
  endfacet
  facet normal 0 -0 -1
    outer loop
      vertex 38.728 10.255 2
      vertex 38.8374 9.29599 2
      vertex 36.7455 9.45999 2
    endloop
  endfacet
  facet normal 0 0 -1
    outer loop
      vertex 36.6493 8.60689 2
      vertex 38.6727 8.04033 2
      vertex 38.1783 6.98532 2
    endloop
  endfacet
  facet normal 0 0 -1
    outer loop
      vertex 38.8374 9.29599 2
      vertex 38.6727 8.04033 2
      vertex 36.6493 8.60689 2
    endloop
  endfacet
  facet normal -0 0 -1
    outer loop
      vertex 38.1783 6.98532 2
      vertex 37.3544 6.131 2
      vertex 36.361 7.90755 2
    endloop
  endfacet
  facet normal 0 0 -1
    outer loop
      vertex 35.8804 7.362 2
      vertex 36.361 7.90755 2
      vertex 37.3544 6.131 2
    endloop
  endfacet
  facet normal 0 0 -1
    outer loop
      vertex 35.1897 6.97144 2
      vertex 35.8804 7.362 2
      vertex 36.2377 5.50266 2
    endloop
  endfacet
  facet normal 0 0 -1
    outer loop
      vertex 34.8633 5.12566 2
      vertex 35.1897 6.97144 2
      vertex 36.2377 5.50266 2
    endloop
  endfacet
  facet normal 0 0 -1
    outer loop
      vertex 34.8633 5.12566 2
      vertex 34.2707 6.73711 2
      vertex 35.1897 6.97144 2
    endloop
  endfacet
  facet normal 0 0 1
    outer loop
      vertex 20.418 12.936 4
      vertex 11.893 12.936 4
      vertex 20.418 11.223 4
    endloop
  endfacet
  facet normal 0 0 1
    outer loop
      vertex 11.893 12.936 4
      vertex 11.893 11.223 4
      vertex 20.418 11.223 4
    endloop
  endfacet
  facet normal 0 0 1
    outer loop
      vertex 9.82199 5 4
      vertex 11.893 11.223 4
      vertex 11.893 12.936 4
    endloop
  endfacet
  facet normal 0 0 1
    outer loop
      vertex 36.1702 12.8097 4
      vertex 35.0632 11.8529 4
      vertex 36.3249 10.9556 4
    endloop
  endfacet
  facet normal 0 0 1
    outer loop
      vertex 9.82199 20.296 4
      vertex 9.82199 5 4
      vertex 11.893 12.936 4
    endloop
  endfacet
  facet normal 0 0 1
    outer loop
      vertex 9.82199 20.296 4
      vertex 11.893 12.936 4
      vertex 11.893 18.604 4
    endloop
  endfacet
  facet normal 0 0 1
    outer loop
      vertex 36.6493 8.60689 4
      vertex 36.361 7.90755 4
      vertex 38.1783 6.98532 4
    endloop
  endfacet
  facet normal 0 0 1
    outer loop
      vertex 20.679 20.296 4
      vertex 11.893 18.604 4
      vertex 20.679 18.604 4
    endloop
  endfacet
  facet normal 0 0 1
    outer loop
      vertex 38.8374 9.29599 4
      vertex 36.7455 9.45999 4
      vertex 36.6493 8.60689 4
    endloop
  endfacet
  facet normal -0 0 1
    outer loop
      vertex 9.82199 20.296 4
      vertex 11.893 18.604 4
      vertex 20.679 20.296 4
    endloop
  endfacet
  facet normal 0 0 1
    outer loop
      vertex 9.82199 5 4
      vertex 11.893 5 4
      vertex 11.893 11.223 4
    endloop
  endfacet
  facet normal 0 0 1
    outer loop
      vertex 34.2707 6.73711 4
      vertex 33.2315 5 4
      vertex 34.8633 5.12566 4
    endloop
  endfacet
  facet normal -0 0 1
    outer loop
      vertex 36.3249 10.9556 4
      vertex 36.7455 9.45999 4
      vertex 38.3997 11.0973 4
    endloop
  endfacet
  facet normal 0 0 1
    outer loop
      vertex 36.3249 10.9556 4
      vertex 38.3997 11.0973 4
      vertex 37.8524 11.823 4
    endloop
  endfacet
  facet normal 0 0 1
    outer loop
      vertex 36.3249 10.9556 4
      vertex 37.8524 11.823 4
      vertex 37.1039 12.4037 4
    endloop
  endfacet
  facet normal 0 -0 1
    outer loop
      vertex 36.3249 10.9556 4
      vertex 37.1039 12.4037 4
      vertex 36.1702 12.8097 4
    endloop
  endfacet
  facet normal 0 0 1
    outer loop
      vertex 38.3997 11.0973 4
      vertex 36.7455 9.45999 4
      vertex 38.728 10.255 4
    endloop
  endfacet
  facet normal 0 0 1
    outer loop
      vertex 35.0515 13.041 4
      vertex 32.9604 12.152 4
      vertex 35.0632 11.8529 4
    endloop
  endfacet
  facet normal 0 0 1
    outer loop
      vertex 37.3544 6.131 4
      vertex 35.8804 7.362 4
      vertex 36.2377 5.50266 4
    endloop
  endfacet
  facet normal 0 0 1
    outer loop
      vertex 33.1235 6.659 4
      vertex 29.1115 6.659 4
      vertex 33.2315 5 4
    endloop
  endfacet
  facet normal 0 0 1
    outer loop
      vertex 29.1115 18.637 4
      vertex 27.0405 20.296 4
      vertex 29.1115 13.768 4
    endloop
  endfacet
  facet normal 0 0 1
    outer loop
      vertex 37.9505 16.57 4
      vertex 35.8685 16.323 4
      vertex 37.8663 15.711 4
    endloop
  endfacet
  facet normal 0 0 1
    outer loop
      vertex 37.354 18.64 4
      vertex 35.7747 17.0735 4
      vertex 37.9505 16.57 4
    endloop
  endfacet
  facet normal 0 -0 1
    outer loop
      vertex 35.7747 17.0735 4
      vertex 37.354 18.64 4
      vertex 35.4933 17.6665 4
    endloop
  endfacet
  facet normal 0 0 1
    outer loop
      vertex 35.5647 19.882 4
      vertex 32.5825 20.296 4
      vertex 33.564 18.5775 4
    endloop
  endfacet
  facet normal 0 0 1
    outer loop
      vertex 32.5825 20.296 4
      vertex 32.5815 18.637 4
      vertex 33.564 18.5775 4
    endloop
  endfacet
  facet normal 0 -0 1
    outer loop
      vertex 29.1115 12.152 4
      vertex 29.1115 13.768 4
      vertex 27.0405 20.296 4
    endloop
  endfacet
  facet normal 0 0 1
    outer loop
      vertex 27.0405 20.296 4
      vertex 27.0405 5 4
      vertex 29.1115 12.152 4
    endloop
  endfacet
  facet normal 0 0 1
    outer loop
      vertex 32.5825 20.296 4
      vertex 27.0405 20.296 4
      vertex 29.1115 18.637 4
    endloop
  endfacet
  facet normal 0 0 1
    outer loop
      vertex 32.5825 20.296 4
      vertex 29.1115 18.637 4
      vertex 32.5815 18.637 4
    endloop
  endfacet
  facet normal 0 -0 1
    outer loop
      vertex 34.3783 18.3992 4
      vertex 35.5647 19.882 4
      vertex 33.564 18.5775 4
    endloop
  endfacet
  facet normal 0 -0 1
    outer loop
      vertex 35.0245 18.102 4
      vertex 35.5647 19.882 4
      vertex 34.3783 18.3992 4
    endloop
  endfacet
  facet normal 0 0 1
    outer loop
      vertex 37.354 18.64 4
      vertex 35.5647 19.882 4
      vertex 35.4933 17.6665 4
    endloop
  endfacet
  facet normal 0 -0 1
    outer loop
      vertex 35.4933 17.6665 4
      vertex 35.5647 19.882 4
      vertex 35.0245 18.102 4
    endloop
  endfacet
  facet normal 0 0 1
    outer loop
      vertex 35.7747 17.0735 4
      vertex 35.8685 16.323 4
      vertex 37.9505 16.57 4
    endloop
  endfacet
  facet normal -0 0 1
    outer loop
      vertex 35.7778 15.531 4
      vertex 37.614 14.9487 4
      vertex 37.8663 15.711 4
    endloop
  endfacet
  facet normal 0 0 1
    outer loop
      vertex 35.8685 16.323 4
      vertex 35.7778 15.531 4
      vertex 37.8663 15.711 4
    endloop
  endfacet
  facet normal -0 0 1
    outer loop
      vertex 35.5058 14.8883 4
      vertex 37.1935 14.283 4
      vertex 35.7778 15.531 4
    endloop
  endfacet
  facet normal 0 0 1
    outer loop
      vertex 35.7778 15.531 4
      vertex 37.1935 14.283 4
      vertex 37.614 14.9487 4
    endloop
  endfacet
  facet normal 0 -0 1
    outer loop
      vertex 35.905 13.3194 4
      vertex 36.619 13.7334 4
      vertex 35.5058 14.8883 4
    endloop
  endfacet
  facet normal 0 0 1
    outer loop
      vertex 35.5058 14.8883 4
      vertex 36.619 13.7334 4
      vertex 37.1935 14.283 4
    endloop
  endfacet
  facet normal -0 0 1
    outer loop
      vertex 35.0525 14.395 4
      vertex 35.905 13.3194 4
      vertex 35.5058 14.8883 4
    endloop
  endfacet
  facet normal 0 0 1
    outer loop
      vertex 35.0515 13.041 4
      vertex 35.905 13.3194 4
      vertex 35.0525 14.395 4
    endloop
  endfacet
  facet normal 0 -0 1
    outer loop
      vertex 35.0515 13.041 4
      vertex 35.0525 14.395 4
      vertex 34.4152 14.0467 4
    endloop
  endfacet
  facet normal 0 -0 1
    outer loop
      vertex 32.9604 12.152 4
      vertex 33.5916 13.8377 4
      vertex 32.5815 13.768 4
    endloop
  endfacet
  facet normal 0 0 1
    outer loop
      vertex 35.0515 13.041 4
      vertex 34.4152 14.0467 4
      vertex 33.5916 13.8377 4
    endloop
  endfacet
  facet normal 0 0 1
    outer loop
      vertex 34.2707 6.73711 4
      vertex 33.1235 6.659 4
      vertex 33.2315 5 4
    endloop
  endfacet
  facet normal 0 0 1
    outer loop
      vertex 32.5815 13.768 4
      vertex 29.1115 13.768 4
      vertex 29.1115 12.152 4
    endloop
  endfacet
  facet normal 0 0 1
    outer loop
      vertex 33.2315 5 4
      vertex 29.1115 6.659 4
      vertex 27.0405 5 4
    endloop
  endfacet
  facet normal 0 -0 1
    outer loop
      vertex 29.1115 6.659 4
      vertex 29.1115 12.152 4
      vertex 27.0405 5 4
    endloop
  endfacet
  facet normal 0 0 1
    outer loop
      vertex 33.5916 13.8377 4
      vertex 32.9604 12.152 4
      vertex 35.0515 13.041 4
    endloop
  endfacet
  facet normal 0 0 1
    outer loop
      vertex 32.5815 13.768 4
      vertex 29.1115 12.152 4
      vertex 32.9604 12.152 4
    endloop
  endfacet
  facet normal 0 0 1
    outer loop
      vertex 35.0515 13.041 4
      vertex 35.0632 11.8529 4
      vertex 36.1702 12.8097 4
    endloop
  endfacet
  facet normal -0 0 1
    outer loop
      vertex 36.7455 9.45999 4
      vertex 38.8374 9.29599 4
      vertex 38.728 10.255 4
    endloop
  endfacet
  facet normal 0 -0 1
    outer loop
      vertex 38.1783 6.98532 4
      vertex 38.6727 8.04033 4
      vertex 36.6493 8.60689 4
    endloop
  endfacet
  facet normal -0 0 1
    outer loop
      vertex 36.6493 8.60689 4
      vertex 38.6727 8.04033 4
      vertex 38.8374 9.29599 4
    endloop
  endfacet
  facet normal 0 0 1
    outer loop
      vertex 36.361 7.90755 4
      vertex 37.3544 6.131 4
      vertex 38.1783 6.98532 4
    endloop
  endfacet
  facet normal 0 0 1
    outer loop
      vertex 37.3544 6.131 4
      vertex 36.361 7.90755 4
      vertex 35.8804 7.362 4
    endloop
  endfacet
  facet normal 0 0 1
    outer loop
      vertex 36.2377 5.50266 4
      vertex 35.8804 7.362 4
      vertex 35.1897 6.97144 4
    endloop
  endfacet
  facet normal 0 0 1
    outer loop
      vertex 36.2377 5.50266 4
      vertex 35.1897 6.97144 4
      vertex 34.8633 5.12566 4
    endloop
  endfacet
  facet normal 0 0 1
    outer loop
      vertex 35.1897 6.97144 4
      vertex 34.2707 6.73711 4
      vertex 34.8633 5.12566 4
    endloop
  endfacet
  facet normal 0 -1 0
    outer loop
      vertex 20.418 11.223 2
      vertex 11.893 11.223 4
      vertex 11.893 11.223 2
    endloop
  endfacet
  facet normal 0 -1 0
    outer loop
      vertex 20.418 11.223 2
      vertex 20.418 11.223 4
      vertex 11.893 11.223 4
    endloop
  endfacet
  facet normal 1 0 0
    outer loop
      vertex 20.418 12.936 2
      vertex 20.418 11.223 4
      vertex 20.418 11.223 2
    endloop
  endfacet
  facet normal 1 0 -0
    outer loop
      vertex 20.418 12.936 2
      vertex 20.418 12.936 4
      vertex 20.418 11.223 4
    endloop
  endfacet
  facet normal 0 1 0
    outer loop
      vertex 11.893 12.936 2
      vertex 20.418 12.936 4
      vertex 20.418 12.936 2
    endloop
  endfacet
  facet normal 0 1 0
    outer loop
      vertex 11.893 12.936 2
      vertex 11.893 12.936 4
      vertex 20.418 12.936 4
    endloop
  endfacet
  facet normal 1 0 0
    outer loop
      vertex 11.893 18.604 2
      vertex 11.893 12.936 4
      vertex 11.893 12.936 2
    endloop
  endfacet
  facet normal 1 0 -0
    outer loop
      vertex 11.893 18.604 2
      vertex 11.893 18.604 4
      vertex 11.893 12.936 4
    endloop
  endfacet
  facet normal 0 -1 0
    outer loop
      vertex 20.679 18.604 2
      vertex 11.893 18.604 4
      vertex 11.893 18.604 2
    endloop
  endfacet
  facet normal 0 -1 0
    outer loop
      vertex 20.679 18.604 2
      vertex 20.679 18.604 4
      vertex 11.893 18.604 4
    endloop
  endfacet
  facet normal 1 0 0
    outer loop
      vertex 20.679 20.296 2
      vertex 20.679 18.604 4
      vertex 20.679 18.604 2
    endloop
  endfacet
  facet normal 1 0 -0
    outer loop
      vertex 20.679 20.296 2
      vertex 20.679 20.296 4
      vertex 20.679 18.604 4
    endloop
  endfacet
  facet normal 0 1 0
    outer loop
      vertex 9.82199 20.296 2
      vertex 20.679 20.296 4
      vertex 20.679 20.296 2
    endloop
  endfacet
  facet normal 0 1 0
    outer loop
      vertex 9.82199 20.296 2
      vertex 9.82199 20.296 4
      vertex 20.679 20.296 4
    endloop
  endfacet
  facet normal -1 0 0
    outer loop
      vertex 9.82199 5 2
      vertex 9.82199 20.296 4
      vertex 9.82199 20.296 2
    endloop
  endfacet
  facet normal -1 0 0
    outer loop
      vertex 9.82199 5 2
      vertex 9.82199 5 4
      vertex 9.82199 20.296 4
    endloop
  endfacet
  facet normal 0 -1 0
    outer loop
      vertex 11.893 5 2
      vertex 9.82199 5 4
      vertex 9.82199 5 2
    endloop
  endfacet
  facet normal 0 -1 0
    outer loop
      vertex 11.893 5 2
      vertex 11.893 5 4
      vertex 9.82199 5 4
    endloop
  endfacet
  facet normal 1 0 0
    outer loop
      vertex 11.893 11.223 2
      vertex 11.893 5 4
      vertex 11.893 5 2
    endloop
  endfacet
  facet normal 1 0 -0
    outer loop
      vertex 11.893 11.223 2
      vertex 11.893 11.223 4
      vertex 11.893 5 4
    endloop
  endfacet
  facet normal 0.264542 -0.964374 0
    outer loop
      vertex 36.2377 5.50266 2
      vertex 34.8633 5.12566 4
      vertex 34.8633 5.12566 2
    endloop
  endfacet
  facet normal 0.264542 -0.964374 0
    outer loop
      vertex 36.2377 5.50266 2
      vertex 36.2377 5.50266 4
      vertex 34.8633 5.12566 4
    endloop
  endfacet
  facet normal 0.490353 -0.871524 0
    outer loop
      vertex 37.3544 6.131 2
      vertex 36.2377 5.50266 4
      vertex 36.2377 5.50266 2
    endloop
  endfacet
  facet normal 0.490353 -0.871524 0
    outer loop
      vertex 37.3544 6.131 2
      vertex 37.3544 6.131 4
      vertex 36.2377 5.50266 4
    endloop
  endfacet
  facet normal 0.719808 -0.694173 0
    outer loop
      vertex 38.1783 6.98532 2
      vertex 37.3544 6.131 4
      vertex 37.3544 6.131 2
    endloop
  endfacet
  facet normal 0.719808 -0.694173 0
    outer loop
      vertex 38.1783 6.98532 2
      vertex 38.1783 6.98532 4
      vertex 37.3544 6.131 4
    endloop
  endfacet
  facet normal 0.905529 -0.424285 0
    outer loop
      vertex 38.6727 8.04033 2
      vertex 38.1783 6.98532 4
      vertex 38.1783 6.98532 2
    endloop
  endfacet
  facet normal 0.905529 -0.424285 0
    outer loop
      vertex 38.6727 8.04033 2
      vertex 38.6727 8.04033 4
      vertex 38.1783 6.98532 4
    endloop
  endfacet
  facet normal 0.991499 -0.130114 0
    outer loop
      vertex 38.8374 9.29599 2
      vertex 38.6727 8.04033 4
      vertex 38.6727 8.04033 2
    endloop
  endfacet
  facet normal 0.991499 -0.130114 0
    outer loop
      vertex 38.8374 9.29599 2
      vertex 38.8374 9.29599 4
      vertex 38.6727 8.04033 4
    endloop
  endfacet
  facet normal 0.993552 0.113379 0
    outer loop
      vertex 38.728 10.255 2
      vertex 38.8374 9.29599 4
      vertex 38.8374 9.29599 2
    endloop
  endfacet
  facet normal 0.993552 0.113379 -0
    outer loop
      vertex 38.728 10.255 2
      vertex 38.728 10.255 4
      vertex 38.8374 9.29599 4
    endloop
  endfacet
  facet normal 0.931718 0.363182 0
    outer loop
      vertex 38.3997 11.0973 2
      vertex 38.728 10.255 4
      vertex 38.728 10.255 2
    endloop
  endfacet
  facet normal 0.931718 0.363182 -0
    outer loop
      vertex 38.3997 11.0973 2
      vertex 38.3997 11.0973 4
      vertex 38.728 10.255 4
    endloop
  endfacet
  facet normal 0.79843 0.602088 0
    outer loop
      vertex 37.8524 11.823 2
      vertex 38.3997 11.0973 4
      vertex 38.3997 11.0973 2
    endloop
  endfacet
  facet normal 0.79843 0.602088 -0
    outer loop
      vertex 37.8524 11.823 2
      vertex 37.8524 11.823 4
      vertex 38.3997 11.0973 4
    endloop
  endfacet
  facet normal 0.612922 0.790143 0
    outer loop
      vertex 37.1039 12.4037 2
      vertex 37.8524 11.823 4
      vertex 37.8524 11.823 2
    endloop
  endfacet
  facet normal 0.612922 0.790143 -0
    outer loop
      vertex 37.1039 12.4037 2
      vertex 37.1039 12.4037 4
      vertex 37.8524 11.823 4
    endloop
  endfacet
  facet normal 0.398778 0.917048 0
    outer loop
      vertex 36.1702 12.8097 2
      vertex 37.1039 12.4037 4
      vertex 37.1039 12.4037 2
    endloop
  endfacet
  facet normal 0.398778 0.917048 -0
    outer loop
      vertex 36.1702 12.8097 2
      vertex 36.1702 12.8097 4
      vertex 37.1039 12.4037 4
    endloop
  endfacet
  facet normal 0.202482 0.979286 0
    outer loop
      vertex 35.0515 13.041 2
      vertex 36.1702 12.8097 4
      vertex 36.1702 12.8097 2
    endloop
  endfacet
  facet normal 0.202482 0.979286 -0
    outer loop
      vertex 35.0515 13.041 2
      vertex 35.0515 13.041 4
      vertex 36.1702 12.8097 4
    endloop
  endfacet
  facet normal 0.310144 -0.95069 0
    outer loop
      vertex 35.905 13.3194 2
      vertex 35.0515 13.041 4
      vertex 35.0515 13.041 2
    endloop
  endfacet
  facet normal 0.310144 -0.95069 0
    outer loop
      vertex 35.905 13.3194 2
      vertex 35.905 13.3194 4
      vertex 35.0515 13.041 4
    endloop
  endfacet
  facet normal 0.501616 -0.86509 0
    outer loop
      vertex 36.619 13.7334 2
      vertex 35.905 13.3194 4
      vertex 35.905 13.3194 2
    endloop
  endfacet
  facet normal 0.501616 -0.86509 0
    outer loop
      vertex 36.619 13.7334 2
      vertex 36.619 13.7334 4
      vertex 35.905 13.3194 4
    endloop
  endfacet
  facet normal 0.691271 -0.722596 0
    outer loop
      vertex 37.1935 14.283 2
      vertex 36.619 13.7334 4
      vertex 36.619 13.7334 2
    endloop
  endfacet
  facet normal 0.691271 -0.722596 0
    outer loop
      vertex 37.1935 14.283 2
      vertex 37.1935 14.283 4
      vertex 36.619 13.7334 4
    endloop
  endfacet
  facet normal 0.845407 -0.534123 0
    outer loop
      vertex 37.614 14.9487 2
      vertex 37.1935 14.283 4
      vertex 37.1935 14.283 2
    endloop
  endfacet
  facet normal 0.845407 -0.534123 0
    outer loop
      vertex 37.614 14.9487 2
      vertex 37.614 14.9487 4
      vertex 37.1935 14.283 4
    endloop
  endfacet
  facet normal 0.949346 -0.314232 0
    outer loop
      vertex 37.8663 15.711 2
      vertex 37.614 14.9487 4
      vertex 37.614 14.9487 2
    endloop
  endfacet
  facet normal 0.949346 -0.314232 0
    outer loop
      vertex 37.8663 15.711 2
      vertex 37.8663 15.711 4
      vertex 37.614 14.9487 4
    endloop
  endfacet
  facet normal 0.995241 -0.0974468 0
    outer loop
      vertex 37.9505 16.57 2
      vertex 37.8663 15.711 4
      vertex 37.8663 15.711 2
    endloop
  endfacet
  facet normal 0.995241 -0.0974468 0
    outer loop
      vertex 37.9505 16.57 2
      vertex 37.9505 16.57 4
      vertex 37.8663 15.711 4
    endloop
  endfacet
  facet normal 0.960906 0.276875 0
    outer loop
      vertex 37.354 18.64 2
      vertex 37.9505 16.57 4
      vertex 37.9505 16.57 2
    endloop
  endfacet
  facet normal 0.960906 0.276875 -0
    outer loop
      vertex 37.354 18.64 2
      vertex 37.354 18.64 4
      vertex 37.9505 16.57 4
    endloop
  endfacet
  facet normal 0.570211 0.821498 0
    outer loop
      vertex 35.5647 19.882 2
      vertex 37.354 18.64 4
      vertex 37.354 18.64 2
    endloop
  endfacet
  facet normal 0.570211 0.821498 -0
    outer loop
      vertex 35.5647 19.882 2
      vertex 35.5647 19.882 4
      vertex 37.354 18.64 4
    endloop
  endfacet
  facet normal 0.137504 0.990501 0
    outer loop
      vertex 32.5825 20.296 2
      vertex 35.5647 19.882 4
      vertex 35.5647 19.882 2
    endloop
  endfacet
  facet normal 0.137504 0.990501 -0
    outer loop
      vertex 32.5825 20.296 2
      vertex 32.5825 20.296 4
      vertex 35.5647 19.882 4
    endloop
  endfacet
  facet normal 0 1 0
    outer loop
      vertex 27.0405 20.296 2
      vertex 32.5825 20.296 4
      vertex 32.5825 20.296 2
    endloop
  endfacet
  facet normal 0 1 0
    outer loop
      vertex 27.0405 20.296 2
      vertex 27.0405 20.296 4
      vertex 32.5825 20.296 4
    endloop
  endfacet
  facet normal -1 0 0
    outer loop
      vertex 27.0405 5 2
      vertex 27.0405 20.296 4
      vertex 27.0405 20.296 2
    endloop
  endfacet
  facet normal -1 0 0
    outer loop
      vertex 27.0405 5 2
      vertex 27.0405 5 4
      vertex 27.0405 20.296 4
    endloop
  endfacet
  facet normal 0 -1 0
    outer loop
      vertex 33.2315 5 2
      vertex 27.0405 5 4
      vertex 27.0405 5 2
    endloop
  endfacet
  facet normal 0 -1 0
    outer loop
      vertex 33.2315 5 2
      vertex 33.2315 5 4
      vertex 27.0405 5 4
    endloop
  endfacet
  facet normal 0.0767735 -0.997049 0
    outer loop
      vertex 34.8633 5.12566 2
      vertex 33.2315 5 4
      vertex 33.2315 5 2
    endloop
  endfacet
  facet normal 0.0767735 -0.997049 0
    outer loop
      vertex 34.8633 5.12566 2
      vertex 34.8633 5.12566 4
      vertex 33.2315 5 4
    endloop
  endfacet
  facet normal 1 0 -0
    outer loop
      vertex 29.1115 18.637 2
      vertex 29.1115 18.637 4
      vertex 29.1115 13.768 2
    endloop
  endfacet
  facet normal 1 -0 0
    outer loop
      vertex 29.1115 13.768 4
      vertex 29.1115 13.768 2
      vertex 29.1115 18.637 4
    endloop
  endfacet
  facet normal 0 -1 0
    outer loop
      vertex 32.5815 18.637 2
      vertex 32.5815 18.637 4
      vertex 29.1115 18.637 2
    endloop
  endfacet
  facet normal 0 -1 0
    outer loop
      vertex 29.1115 18.637 4
      vertex 29.1115 18.637 2
      vertex 32.5815 18.637 4
    endloop
  endfacet
  facet normal -0.060393 -0.998175 0
    outer loop
      vertex 33.564 18.5775 2
      vertex 33.564 18.5775 4
      vertex 32.5815 18.637 2
    endloop
  endfacet
  facet normal -0.060393 -0.998175 -0
    outer loop
      vertex 32.5815 18.637 4
      vertex 32.5815 18.637 2
      vertex 33.564 18.5775 4
    endloop
  endfacet
  facet normal -0.21392 -0.976851 0
    outer loop
      vertex 34.3783 18.3992 2
      vertex 34.3783 18.3992 4
      vertex 33.564 18.5775 2
    endloop
  endfacet
  facet normal -0.21392 -0.976851 -0
    outer loop
      vertex 33.564 18.5775 4
      vertex 33.564 18.5775 2
      vertex 34.3783 18.3992 4
    endloop
  endfacet
  facet normal -0.417919 -0.908484 0
    outer loop
      vertex 35.0245 18.102 2
      vertex 35.0245 18.102 4
      vertex 34.3783 18.3992 2
    endloop
  endfacet
  facet normal -0.417919 -0.908484 -0
    outer loop
      vertex 34.3783 18.3992 4
      vertex 34.3783 18.3992 2
      vertex 35.0245 18.102 4
    endloop
  endfacet
  facet normal -0.680489 -0.732759 0
    outer loop
      vertex 35.4933 17.6665 2
      vertex 35.4933 17.6665 4
      vertex 35.0245 18.102 2
    endloop
  endfacet
  facet normal -0.680489 -0.732759 -0
    outer loop
      vertex 35.0245 18.102 4
      vertex 35.0245 18.102 2
      vertex 35.4933 17.6665 4
    endloop
  endfacet
  facet normal -0.903484 -0.428622 0
    outer loop
      vertex 35.7747 17.0735 2
      vertex 35.7747 17.0735 4
      vertex 35.4933 17.6665 2
    endloop
  endfacet
  facet normal -0.903484 -0.428622 -0
    outer loop
      vertex 35.4933 17.6665 4
      vertex 35.4933 17.6665 2
      vertex 35.7747 17.0735 4
    endloop
  endfacet
  facet normal -0.992284 -0.123985 0
    outer loop
      vertex 35.8685 16.323 2
      vertex 35.8685 16.323 4
      vertex 35.7747 17.0735 2
    endloop
  endfacet
  facet normal -0.992284 -0.123985 -0
    outer loop
      vertex 35.7747 17.0735 4
      vertex 35.7747 17.0735 2
      vertex 35.8685 16.323 4
    endloop
  endfacet
  facet normal -0.993511 0.113736 0
    outer loop
      vertex 35.7778 15.531 2
      vertex 35.7778 15.531 4
      vertex 35.8685 16.323 2
    endloop
  endfacet
  facet normal -0.993511 0.113736 0
    outer loop
      vertex 35.8685 16.323 4
      vertex 35.8685 16.323 2
      vertex 35.7778 15.531 4
    endloop
  endfacet
  facet normal -0.920914 0.389767 0
    outer loop
      vertex 35.5058 14.8883 2
      vertex 35.5058 14.8883 4
      vertex 35.7778 15.531 2
    endloop
  endfacet
  facet normal -0.920914 0.389767 0
    outer loop
      vertex 35.7778 15.531 4
      vertex 35.7778 15.531 2
      vertex 35.5058 14.8883 4
    endloop
  endfacet
  facet normal -0.736334 0.676618 0
    outer loop
      vertex 35.0525 14.395 2
      vertex 35.0525 14.395 4
      vertex 35.5058 14.8883 2
    endloop
  endfacet
  facet normal -0.736334 0.676618 0
    outer loop
      vertex 35.5058 14.8883 4
      vertex 35.5058 14.8883 2
      vertex 35.0525 14.395 4
    endloop
  endfacet
  facet normal -0.47965 0.87746 0
    outer loop
      vertex 34.4152 14.0467 2
      vertex 34.4152 14.0467 4
      vertex 35.0525 14.395 2
    endloop
  endfacet
  facet normal -0.47965 0.87746 0
    outer loop
      vertex 35.0525 14.395 4
      vertex 35.0525 14.395 2
      vertex 34.4152 14.0467 4
    endloop
  endfacet
  facet normal -0.245948 0.969283 0
    outer loop
      vertex 33.5916 13.8377 2
      vertex 33.5916 13.8377 4
      vertex 34.4152 14.0467 2
    endloop
  endfacet
  facet normal -0.245948 0.969283 0
    outer loop
      vertex 34.4152 14.0467 4
      vertex 34.4152 14.0467 2
      vertex 33.5916 13.8377 4
    endloop
  endfacet
  facet normal -0.0688104 0.99763 0
    outer loop
      vertex 32.5815 13.768 2
      vertex 32.5815 13.768 4
      vertex 33.5916 13.8377 2
    endloop
  endfacet
  facet normal -0.0688104 0.99763 0
    outer loop
      vertex 33.5916 13.8377 4
      vertex 33.5916 13.8377 2
      vertex 32.5815 13.768 4
    endloop
  endfacet
  facet normal 0 1 0
    outer loop
      vertex 29.1115 13.768 2
      vertex 29.1115 13.768 4
      vertex 32.5815 13.768 2
    endloop
  endfacet
  facet normal 0 1 0
    outer loop
      vertex 32.5815 13.768 4
      vertex 32.5815 13.768 2
      vertex 29.1115 13.768 4
    endloop
  endfacet
  facet normal 1 0 -0
    outer loop
      vertex 29.1115 12.152 2
      vertex 29.1115 12.152 4
      vertex 29.1115 6.659 2
    endloop
  endfacet
  facet normal 1 -0 0
    outer loop
      vertex 29.1115 6.659 4
      vertex 29.1115 6.659 2
      vertex 29.1115 12.152 4
    endloop
  endfacet
  facet normal 0 -1 0
    outer loop
      vertex 32.9604 12.152 2
      vertex 32.9604 12.152 4
      vertex 29.1115 12.152 2
    endloop
  endfacet
  facet normal 0 -1 0
    outer loop
      vertex 29.1115 12.152 4
      vertex 29.1115 12.152 2
      vertex 32.9604 12.152 4
    endloop
  endfacet
  facet normal -0.140831 -0.990034 0
    outer loop
      vertex 35.0632 11.8529 2
      vertex 35.0632 11.8529 4
      vertex 32.9604 12.152 2
    endloop
  endfacet
  facet normal -0.140831 -0.990034 -0
    outer loop
      vertex 32.9604 12.152 4
      vertex 32.9604 12.152 2
      vertex 35.0632 11.8529 4
    endloop
  endfacet
  facet normal -0.579586 -0.814911 0
    outer loop
      vertex 36.3249 10.9556 2
      vertex 36.3249 10.9556 4
      vertex 35.0632 11.8529 2
    endloop
  endfacet
  facet normal -0.579586 -0.814911 -0
    outer loop
      vertex 35.0632 11.8529 4
      vertex 35.0632 11.8529 2
      vertex 36.3249 10.9556 4
    endloop
  endfacet
  facet normal -0.962662 -0.270708 0
    outer loop
      vertex 36.7455 9.45999 2
      vertex 36.7455 9.45999 4
      vertex 36.3249 10.9556 2
    endloop
  endfacet
  facet normal -0.962662 -0.270708 -0
    outer loop
      vertex 36.3249 10.9556 4
      vertex 36.3249 10.9556 2
      vertex 36.7455 9.45999 4
    endloop
  endfacet
  facet normal -0.993713 0.111957 0
    outer loop
      vertex 36.6493 8.60689 2
      vertex 36.6493 8.60689 4
      vertex 36.7455 9.45999 2
    endloop
  endfacet
  facet normal -0.993713 0.111957 0
    outer loop
      vertex 36.7455 9.45999 4
      vertex 36.7455 9.45999 2
      vertex 36.6493 8.60689 4
    endloop
  endfacet
  facet normal -0.924508 0.381164 0
    outer loop
      vertex 36.361 7.90755 2
      vertex 36.361 7.90755 4
      vertex 36.6493 8.60689 2
    endloop
  endfacet
  facet normal -0.924508 0.381164 0
    outer loop
      vertex 36.6493 8.60689 4
      vertex 36.6493 8.60689 2
      vertex 36.361 7.90755 4
    endloop
  endfacet
  facet normal -0.750387 0.660999 0
    outer loop
      vertex 35.8804 7.362 2
      vertex 35.8804 7.362 4
      vertex 36.361 7.90755 2
    endloop
  endfacet
  facet normal -0.750387 0.660999 0
    outer loop
      vertex 36.361 7.90755 4
      vertex 36.361 7.90755 2
      vertex 35.8804 7.362 4
    endloop
  endfacet
  facet normal -0.492183 0.870492 0
    outer loop
      vertex 35.1897 6.97144 2
      vertex 35.1897 6.97144 4
      vertex 35.8804 7.362 2
    endloop
  endfacet
  facet normal -0.492183 0.870492 0
    outer loop
      vertex 35.8804 7.362 4
      vertex 35.8804 7.362 2
      vertex 35.1897 6.97144 4
    endloop
  endfacet
  facet normal -0.247076 0.968996 0
    outer loop
      vertex 34.2707 6.73711 2
      vertex 34.2707 6.73711 4
      vertex 35.1897 6.97144 2
    endloop
  endfacet
  facet normal -0.247076 0.968996 0
    outer loop
      vertex 35.1897 6.97144 4
      vertex 35.1897 6.97144 2
      vertex 34.2707 6.73711 4
    endloop
  endfacet
  facet normal -0.067929 0.99769 0
    outer loop
      vertex 33.1235 6.659 2
      vertex 33.1235 6.659 4
      vertex 34.2707 6.73711 2
    endloop
  endfacet
  facet normal -0.067929 0.99769 0
    outer loop
      vertex 34.2707 6.73711 4
      vertex 34.2707 6.73711 2
      vertex 33.1235 6.659 4
    endloop
  endfacet
  facet normal 0 1 0
    outer loop
      vertex 29.1115 6.659 2
      vertex 29.1115 6.659 4
      vertex 33.1235 6.659 2
    endloop
  endfacet
  facet normal 0 1 0
    outer loop
      vertex 33.1235 6.659 4
      vertex 33.1235 6.659 2
      vertex 29.1115 6.659 4
    endloop
  endfacet
endsolid OpenSCAD_Model
