solid OpenSCAD_Model
  facet normal 0 0 -1
    outer loop
      vertex 20.418 11.223 2
      vertex 11.893 12.936 2
      vertex 20.418 12.936 2
    endloop
  endfacet
  facet normal 0 0 -1
    outer loop
      vertex 20.418 11.223 2
      vertex 11.893 11.223 2
      vertex 11.893 12.936 2
    endloop
  endfacet
  facet normal 0 -0 -1
    outer loop
      vertex 11.893 12.936 2
      vertex 11.893 11.223 2
      vertex 9.82199 5 2
    endloop
  endfacet
  facet normal -0 0 -1
    outer loop
      vertex 11.893 12.936 2
      vertex 9.82199 5 2
      vertex 9.82199 20.296 2
    endloop
  endfacet
  facet normal -0 -0 -1
    outer loop
      vertex 11.893 18.604 2
      vertex 11.893 12.936 2
      vertex 9.82199 20.296 2
    endloop
  endfacet
  facet normal 0 0 -1
    outer loop
      vertex 20.679 18.604 2
      vertex 11.893 18.604 2
      vertex 20.679 20.296 2
    endloop
  endfacet
  facet normal -0 0 -1
    outer loop
      vertex 20.679 20.296 2
      vertex 11.893 18.604 2
      vertex 9.82199 20.296 2
    endloop
  endfacet
  facet normal 0 -0 -1
    outer loop
      vertex 11.893 11.223 2
      vertex 11.893 5 2
      vertex 9.82199 5 2
    endloop
  endfacet
  facet normal 0 -0 -1
    outer loop
      vertex 29.1185 12.097 2
      vertex 29.1185 5 2
      vertex 27.0475 5 2
    endloop
  endfacet
  facet normal -0 0 -1
    outer loop
      vertex 39.4725 20.296 2
      vertex 37.4015 13.832 2
      vertex 37.4015 20.296 2
    endloop
  endfacet
  facet normal 0 0 -1
    outer loop
      vertex 37.4015 12.097 2
      vertex 39.4725 5 2
      vertex 37.4015 5 2
    endloop
  endfacet
  facet normal 0 0 -1
    outer loop
      vertex 37.4015 12.097 2
      vertex 39.4725 20.296 2
      vertex 39.4725 5 2
    endloop
  endfacet
  facet normal 0 0 -1
    outer loop
      vertex 39.4725 20.296 2
      vertex 37.4015 12.097 2
      vertex 37.4015 13.832 2
    endloop
  endfacet
  facet normal -0 -0 -1
    outer loop
      vertex 37.4015 13.832 2
      vertex 37.4015 12.097 2
      vertex 29.1185 13.832 2
    endloop
  endfacet
  facet normal -0 -0 -1
    outer loop
      vertex 29.1185 20.296 2
      vertex 29.1185 13.832 2
      vertex 27.0475 20.296 2
    endloop
  endfacet
  facet normal 0 0 -1
    outer loop
      vertex 29.1185 13.832 2
      vertex 37.4015 12.097 2
      vertex 29.1185 12.097 2
    endloop
  endfacet
  facet normal -0 -0 -1
    outer loop
      vertex 29.1185 13.832 2
      vertex 29.1185 12.097 2
      vertex 27.0475 20.296 2
    endloop
  endfacet
  facet normal -0 0 -1
    outer loop
      vertex 29.1185 12.097 2
      vertex 27.0475 5 2
      vertex 27.0475 20.296 2
    endloop
  endfacet
  facet normal 0 0 1
    outer loop
      vertex 20.418 12.936 4
      vertex 11.893 12.936 4
      vertex 20.418 11.223 4
    endloop
  endfacet
  facet normal 0 0 1
    outer loop
      vertex 11.893 12.936 4
      vertex 11.893 11.223 4
      vertex 20.418 11.223 4
    endloop
  endfacet
  facet normal 0 0 1
    outer loop
      vertex 9.82199 5 4
      vertex 11.893 11.223 4
      vertex 11.893 12.936 4
    endloop
  endfacet
  facet normal 0 0 1
    outer loop
      vertex 9.82199 20.296 4
      vertex 9.82199 5 4
      vertex 11.893 12.936 4
    endloop
  endfacet
  facet normal 0 0 1
    outer loop
      vertex 9.82199 20.296 4
      vertex 11.893 12.936 4
      vertex 11.893 18.604 4
    endloop
  endfacet
  facet normal 0 0 1
    outer loop
      vertex 20.679 20.296 4
      vertex 11.893 18.604 4
      vertex 20.679 18.604 4
    endloop
  endfacet
  facet normal -0 0 1
    outer loop
      vertex 9.82199 20.296 4
      vertex 11.893 18.604 4
      vertex 20.679 20.296 4
    endloop
  endfacet
  facet normal 0 0 1
    outer loop
      vertex 9.82199 5 4
      vertex 11.893 5 4
      vertex 11.893 11.223 4
    endloop
  endfacet
  facet normal 0 0 1
    outer loop
      vertex 27.0475 5 4
      vertex 29.1185 5 4
      vertex 29.1185 12.097 4
    endloop
  endfacet
  facet normal -0 0 1
    outer loop
      vertex 37.4015 20.296 4
      vertex 37.4015 13.832 4
      vertex 39.4725 20.296 4
    endloop
  endfacet
  facet normal 0 0 1
    outer loop
      vertex 37.4015 5 4
      vertex 39.4725 5 4
      vertex 37.4015 12.097 4
    endloop
  endfacet
  facet normal 0 -0 1
    outer loop
      vertex 39.4725 5 4
      vertex 39.4725 20.296 4
      vertex 37.4015 12.097 4
    endloop
  endfacet
  facet normal -0 0 1
    outer loop
      vertex 37.4015 13.832 4
      vertex 37.4015 12.097 4
      vertex 39.4725 20.296 4
    endloop
  endfacet
  facet normal -0 0 1
    outer loop
      vertex 29.1185 13.832 4
      vertex 37.4015 12.097 4
      vertex 37.4015 13.832 4
    endloop
  endfacet
  facet normal -0 0 1
    outer loop
      vertex 27.0475 20.296 4
      vertex 29.1185 13.832 4
      vertex 29.1185 20.296 4
    endloop
  endfacet
  facet normal 0 0 1
    outer loop
      vertex 29.1185 12.097 4
      vertex 37.4015 12.097 4
      vertex 29.1185 13.832 4
    endloop
  endfacet
  facet normal 0 0 1
    outer loop
      vertex 27.0475 20.296 4
      vertex 29.1185 12.097 4
      vertex 29.1185 13.832 4
    endloop
  endfacet
  facet normal 0 0 1
    outer loop
      vertex 27.0475 20.296 4
      vertex 27.0475 5 4
      vertex 29.1185 12.097 4
    endloop
  endfacet
  facet normal 0 -1 0
    outer loop
      vertex 20.418 11.223 2
      vertex 11.893 11.223 4
      vertex 11.893 11.223 2
    endloop
  endfacet
  facet normal 0 -1 0
    outer loop
      vertex 20.418 11.223 2
      vertex 20.418 11.223 4
      vertex 11.893 11.223 4
    endloop
  endfacet
  facet normal 1 0 0
    outer loop
      vertex 20.418 12.936 2
      vertex 20.418 11.223 4
      vertex 20.418 11.223 2
    endloop
  endfacet
  facet normal 1 0 -0
    outer loop
      vertex 20.418 12.936 2
      vertex 20.418 12.936 4
      vertex 20.418 11.223 4
    endloop
  endfacet
  facet normal 0 1 0
    outer loop
      vertex 11.893 12.936 2
      vertex 20.418 12.936 4
      vertex 20.418 12.936 2
    endloop
  endfacet
  facet normal 0 1 0
    outer loop
      vertex 11.893 12.936 2
      vertex 11.893 12.936 4
      vertex 20.418 12.936 4
    endloop
  endfacet
  facet normal 1 0 0
    outer loop
      vertex 11.893 18.604 2
      vertex 11.893 12.936 4
      vertex 11.893 12.936 2
    endloop
  endfacet
  facet normal 1 0 -0
    outer loop
      vertex 11.893 18.604 2
      vertex 11.893 18.604 4
      vertex 11.893 12.936 4
    endloop
  endfacet
  facet normal 0 -1 0
    outer loop
      vertex 20.679 18.604 2
      vertex 11.893 18.604 4
      vertex 11.893 18.604 2
    endloop
  endfacet
  facet normal 0 -1 0
    outer loop
      vertex 20.679 18.604 2
      vertex 20.679 18.604 4
      vertex 11.893 18.604 4
    endloop
  endfacet
  facet normal 1 0 0
    outer loop
      vertex 20.679 20.296 2
      vertex 20.679 18.604 4
      vertex 20.679 18.604 2
    endloop
  endfacet
  facet normal 1 0 -0
    outer loop
      vertex 20.679 20.296 2
      vertex 20.679 20.296 4
      vertex 20.679 18.604 4
    endloop
  endfacet
  facet normal 0 1 0
    outer loop
      vertex 9.82199 20.296 2
      vertex 20.679 20.296 4
      vertex 20.679 20.296 2
    endloop
  endfacet
  facet normal 0 1 0
    outer loop
      vertex 9.82199 20.296 2
      vertex 9.82199 20.296 4
      vertex 20.679 20.296 4
    endloop
  endfacet
  facet normal -1 0 0
    outer loop
      vertex 9.82199 5 2
      vertex 9.82199 20.296 4
      vertex 9.82199 20.296 2
    endloop
  endfacet
  facet normal -1 0 0
    outer loop
      vertex 9.82199 5 2
      vertex 9.82199 5 4
      vertex 9.82199 20.296 4
    endloop
  endfacet
  facet normal 0 -1 0
    outer loop
      vertex 11.893 5 2
      vertex 9.82199 5 4
      vertex 9.82199 5 2
    endloop
  endfacet
  facet normal 0 -1 0
    outer loop
      vertex 11.893 5 2
      vertex 11.893 5 4
      vertex 9.82199 5 4
    endloop
  endfacet
  facet normal 1 0 0
    outer loop
      vertex 11.893 11.223 2
      vertex 11.893 5 4
      vertex 11.893 5 2
    endloop
  endfacet
  facet normal 1 0 -0
    outer loop
      vertex 11.893 11.223 2
      vertex 11.893 11.223 4
      vertex 11.893 5 4
    endloop
  endfacet
  facet normal 0 -1 0
    outer loop
      vertex 37.4015 12.097 2
      vertex 29.1185 12.097 4
      vertex 29.1185 12.097 2
    endloop
  endfacet
  facet normal 0 -1 0
    outer loop
      vertex 37.4015 12.097 2
      vertex 37.4015 12.097 4
      vertex 29.1185 12.097 4
    endloop
  endfacet
  facet normal -1 0 0
    outer loop
      vertex 37.4015 5 2
      vertex 37.4015 12.097 4
      vertex 37.4015 12.097 2
    endloop
  endfacet
  facet normal -1 0 0
    outer loop
      vertex 37.4015 5 2
      vertex 37.4015 5 4
      vertex 37.4015 12.097 4
    endloop
  endfacet
  facet normal 0 -1 0
    outer loop
      vertex 39.4725 5 2
      vertex 37.4015 5 4
      vertex 37.4015 5 2
    endloop
  endfacet
  facet normal 0 -1 0
    outer loop
      vertex 39.4725 5 2
      vertex 39.4725 5 4
      vertex 37.4015 5 4
    endloop
  endfacet
  facet normal 1 0 0
    outer loop
      vertex 39.4725 20.296 2
      vertex 39.4725 5 4
      vertex 39.4725 5 2
    endloop
  endfacet
  facet normal 1 0 -0
    outer loop
      vertex 39.4725 20.296 2
      vertex 39.4725 20.296 4
      vertex 39.4725 5 4
    endloop
  endfacet
  facet normal 0 1 0
    outer loop
      vertex 37.4015 20.296 2
      vertex 39.4725 20.296 4
      vertex 39.4725 20.296 2
    endloop
  endfacet
  facet normal 0 1 0
    outer loop
      vertex 37.4015 20.296 2
      vertex 37.4015 20.296 4
      vertex 39.4725 20.296 4
    endloop
  endfacet
  facet normal -1 0 0
    outer loop
      vertex 37.4015 13.832 2
      vertex 37.4015 20.296 4
      vertex 37.4015 20.296 2
    endloop
  endfacet
  facet normal -1 0 0
    outer loop
      vertex 37.4015 13.832 2
      vertex 37.4015 13.832 4
      vertex 37.4015 20.296 4
    endloop
  endfacet
  facet normal 0 1 0
    outer loop
      vertex 29.1185 13.832 2
      vertex 37.4015 13.832 4
      vertex 37.4015 13.832 2
    endloop
  endfacet
  facet normal 0 1 0
    outer loop
      vertex 29.1185 13.832 2
      vertex 29.1185 13.832 4
      vertex 37.4015 13.832 4
    endloop
  endfacet
  facet normal 1 0 0
    outer loop
      vertex 29.1185 20.296 2
      vertex 29.1185 13.832 4
      vertex 29.1185 13.832 2
    endloop
  endfacet
  facet normal 1 0 -0
    outer loop
      vertex 29.1185 20.296 2
      vertex 29.1185 20.296 4
      vertex 29.1185 13.832 4
    endloop
  endfacet
  facet normal 0 1 0
    outer loop
      vertex 27.0475 20.296 2
      vertex 29.1185 20.296 4
      vertex 29.1185 20.296 2
    endloop
  endfacet
  facet normal 0 1 0
    outer loop
      vertex 27.0475 20.296 2
      vertex 27.0475 20.296 4
      vertex 29.1185 20.296 4
    endloop
  endfacet
  facet normal -1 0 0
    outer loop
      vertex 27.0475 5 2
      vertex 27.0475 20.296 4
      vertex 27.0475 20.296 2
    endloop
  endfacet
  facet normal -1 0 0
    outer loop
      vertex 27.0475 5 2
      vertex 27.0475 5 4
      vertex 27.0475 20.296 4
    endloop
  endfacet
  facet normal 0 -1 0
    outer loop
      vertex 29.1185 5 2
      vertex 27.0475 5 4
      vertex 27.0475 5 2
    endloop
  endfacet
  facet normal 0 -1 0
    outer loop
      vertex 29.1185 5 2
      vertex 29.1185 5 4
      vertex 27.0475 5 4
    endloop
  endfacet
  facet normal 1 0 0
    outer loop
      vertex 29.1185 12.097 2
      vertex 29.1185 5 4
      vertex 29.1185 5 2
    endloop
  endfacet
  facet normal 1 0 -0
    outer loop
      vertex 29.1185 12.097 2
      vertex 29.1185 12.097 4
      vertex 29.1185 5 4
    endloop
  endfacet
endsolid OpenSCAD_Model
