solid OpenSCAD_Model
  facet normal 0 0 -1
    outer loop
      vertex 20.418 11.223 2
      vertex 11.893 12.936 2
      vertex 20.418 12.936 2
    endloop
  endfacet
  facet normal 0 0 -1
    outer loop
      vertex 20.418 11.223 2
      vertex 11.893 11.223 2
      vertex 11.893 12.936 2
    endloop
  endfacet
  facet normal 0 -0 -1
    outer loop
      vertex 11.893 12.936 2
      vertex 11.893 11.223 2
      vertex 9.82199 5 2
    endloop
  endfacet
  facet normal 0 0 -1
    outer loop
      vertex 29.1115 12.616 2
      vertex 27.0405 20.296 2
      vertex 29.1115 18.637 2
    endloop
  endfacet
  facet normal -0 0 -1
    outer loop
      vertex 11.893 12.936 2
      vertex 9.82199 5 2
      vertex 9.82199 20.296 2
    endloop
  endfacet
  facet normal -0 -0 -1
    outer loop
      vertex 11.893 18.604 2
      vertex 11.893 12.936 2
      vertex 9.82199 20.296 2
    endloop
  endfacet
  facet normal 0 0 -1
    outer loop
      vertex 20.679 18.604 2
      vertex 11.893 18.604 2
      vertex 20.679 20.296 2
    endloop
  endfacet
  facet normal 0 0 -1
    outer loop
      vertex 33.5905 10.979 2
      vertex 33.2955 12.616 2
      vertex 35.0935 11.121 2
    endloop
  endfacet
  facet normal -0 0 -1
    outer loop
      vertex 20.679 20.296 2
      vertex 11.893 18.604 2
      vertex 9.82199 20.296 2
    endloop
  endfacet
  facet normal 0 -0 -1
    outer loop
      vertex 11.893 11.223 2
      vertex 11.893 5 2
      vertex 9.82199 5 2
    endloop
  endfacet
  facet normal 0 -0 -1
    outer loop
      vertex 29.1115 10.979 2
      vertex 29.1115 5 2
      vertex 27.0405 5 2
    endloop
  endfacet
  facet normal -0 0 -1
    outer loop
      vertex 37.4255 12.257 2
      vertex 36.3718 11.547 2
      vertex 35.2177 12.9565 2
    endloop
  endfacet
  facet normal 0 0 -1
    outer loop
      vertex 35.1795 18.3085 2
      vertex 36.3638 19.7613 2
      vertex 37.4305 19.093 2
    endloop
  endfacet
  facet normal 0 0 -1
    outer loop
      vertex 38.6806 14.357 2
      vertex 36.7554 15.681 2
      vertex 38.8374 15.703 2
    endloop
  endfacet
  facet normal -0 0 -1
    outer loop
      vertex 38.6806 14.357 2
      vertex 36.371 13.9782 2
      vertex 36.7554 15.681 2
    endloop
  endfacet
  facet normal -0 0 -1
    outer loop
      vertex 38.6811 17.0521 2
      vertex 36.7554 15.681 2
      vertex 36.3615 17.3232 2
    endloop
  endfacet
  facet normal 0 0 -1
    outer loop
      vertex 36.371 13.9782 2
      vertex 38.2099 13.2083 2
      vertex 37.4255 12.257 2
    endloop
  endfacet
  facet normal 0 0 -1
    outer loop
      vertex 35.1795 18.3085 2
      vertex 35.0398 20.1623 2
      vertex 36.3638 19.7613 2
    endloop
  endfacet
  facet normal -0 0 -1
    outer loop
      vertex 38.2121 18.1821 2
      vertex 36.3615 17.3232 2
      vertex 37.4305 19.093 2
    endloop
  endfacet
  facet normal 0 -0 -1
    outer loop
      vertex 35.0398 20.1623 2
      vertex 35.1795 18.3085 2
      vertex 33.2095 18.637 2
    endloop
  endfacet
  facet normal 0 -0 -1
    outer loop
      vertex 38.2121 18.1821 2
      vertex 38.6811 17.0521 2
      vertex 36.3615 17.3232 2
    endloop
  endfacet
  facet normal 0 0 -1
    outer loop
      vertex 33.2095 18.637 2
      vertex 33.4585 20.296 2
      vertex 35.0398 20.1623 2
    endloop
  endfacet
  facet normal 0 0 -1
    outer loop
      vertex 33.5905 10.979 2
      vertex 29.1115 10.979 2
      vertex 33.2955 12.616 2
    endloop
  endfacet
  facet normal -0 0 -1
    outer loop
      vertex 33.2955 12.616 2
      vertex 29.1115 10.979 2
      vertex 29.1115 12.616 2
    endloop
  endfacet
  facet normal -0 0 -1
    outer loop
      vertex 29.1115 10.979 2
      vertex 27.0405 5 2
      vertex 29.1115 12.616 2
    endloop
  endfacet
  facet normal -0 0 -1
    outer loop
      vertex 29.1115 12.616 2
      vertex 27.0405 5 2
      vertex 27.0405 20.296 2
    endloop
  endfacet
  facet normal 0 0 -1
    outer loop
      vertex 29.1115 18.637 2
      vertex 27.0405 20.296 2
      vertex 33.4585 20.296 2
    endloop
  endfacet
  facet normal 0 0 -1
    outer loop
      vertex 33.2095 18.637 2
      vertex 29.1115 18.637 2
      vertex 33.4585 20.296 2
    endloop
  endfacet
  facet normal 0 0 -1
    outer loop
      vertex 36.3615 17.3232 2
      vertex 35.1795 18.3085 2
      vertex 37.4305 19.093 2
    endloop
  endfacet
  facet normal 0 -0 -1
    outer loop
      vertex 38.6811 17.0521 2
      vertex 38.8374 15.703 2
      vertex 36.7554 15.681 2
    endloop
  endfacet
  facet normal 0 0 -1
    outer loop
      vertex 38.6806 14.357 2
      vertex 38.2099 13.2083 2
      vertex 36.371 13.9782 2
    endloop
  endfacet
  facet normal 0 -0 -1
    outer loop
      vertex 36.371 13.9782 2
      vertex 37.4255 12.257 2
      vertex 35.2177 12.9565 2
    endloop
  endfacet
  facet normal 0 0 -1
    outer loop
      vertex 33.2955 12.616 2
      vertex 35.2177 12.9565 2
      vertex 35.0935 11.121 2
    endloop
  endfacet
  facet normal 0 -0 -1
    outer loop
      vertex 35.2177 12.9565 2
      vertex 36.3718 11.547 2
      vertex 35.0935 11.121 2
    endloop
  endfacet
  facet normal 0 0 1
    outer loop
      vertex 20.418 12.936 4
      vertex 11.893 12.936 4
      vertex 20.418 11.223 4
    endloop
  endfacet
  facet normal 0 0 1
    outer loop
      vertex 11.893 12.936 4
      vertex 11.893 11.223 4
      vertex 20.418 11.223 4
    endloop
  endfacet
  facet normal 0 0 1
    outer loop
      vertex 9.82199 5 4
      vertex 11.893 11.223 4
      vertex 11.893 12.936 4
    endloop
  endfacet
  facet normal 0 0 1
    outer loop
      vertex 29.1115 18.637 4
      vertex 27.0405 20.296 4
      vertex 29.1115 12.616 4
    endloop
  endfacet
  facet normal 0 0 1
    outer loop
      vertex 9.82199 20.296 4
      vertex 9.82199 5 4
      vertex 11.893 12.936 4
    endloop
  endfacet
  facet normal 0 0 1
    outer loop
      vertex 9.82199 20.296 4
      vertex 11.893 12.936 4
      vertex 11.893 18.604 4
    endloop
  endfacet
  facet normal 0 0 1
    outer loop
      vertex 20.679 20.296 4
      vertex 11.893 18.604 4
      vertex 20.679 18.604 4
    endloop
  endfacet
  facet normal 0 0 1
    outer loop
      vertex 35.0935 11.121 4
      vertex 33.2955 12.616 4
      vertex 33.5905 10.979 4
    endloop
  endfacet
  facet normal -0 0 1
    outer loop
      vertex 9.82199 20.296 4
      vertex 11.893 18.604 4
      vertex 20.679 20.296 4
    endloop
  endfacet
  facet normal 0 0 1
    outer loop
      vertex 9.82199 5 4
      vertex 11.893 5 4
      vertex 11.893 11.223 4
    endloop
  endfacet
  facet normal 0 0 1
    outer loop
      vertex 27.0405 5 4
      vertex 29.1115 5 4
      vertex 29.1115 10.979 4
    endloop
  endfacet
  facet normal 0 0 1
    outer loop
      vertex 35.2177 12.9565 4
      vertex 36.3718 11.547 4
      vertex 37.4255 12.257 4
    endloop
  endfacet
  facet normal 0 0 1
    outer loop
      vertex 37.4305 19.093 4
      vertex 36.3638 19.7613 4
      vertex 35.1795 18.3085 4
    endloop
  endfacet
  facet normal 0 0 1
    outer loop
      vertex 38.8374 15.703 4
      vertex 36.7554 15.681 4
      vertex 38.6806 14.357 4
    endloop
  endfacet
  facet normal 0 0 1
    outer loop
      vertex 36.7554 15.681 4
      vertex 36.371 13.9782 4
      vertex 38.6806 14.357 4
    endloop
  endfacet
  facet normal 0 0 1
    outer loop
      vertex 36.3615 17.3232 4
      vertex 36.7554 15.681 4
      vertex 38.6811 17.0521 4
    endloop
  endfacet
  facet normal 0 -0 1
    outer loop
      vertex 37.4255 12.257 4
      vertex 38.2099 13.2083 4
      vertex 36.371 13.9782 4
    endloop
  endfacet
  facet normal 0 0 1
    outer loop
      vertex 36.3638 19.7613 4
      vertex 35.0398 20.1623 4
      vertex 35.1795 18.3085 4
    endloop
  endfacet
  facet normal 0 0 1
    outer loop
      vertex 37.4305 19.093 4
      vertex 36.3615 17.3232 4
      vertex 38.2121 18.1821 4
    endloop
  endfacet
  facet normal -0 0 1
    outer loop
      vertex 33.2095 18.637 4
      vertex 35.1795 18.3085 4
      vertex 35.0398 20.1623 4
    endloop
  endfacet
  facet normal -0 0 1
    outer loop
      vertex 36.3615 17.3232 4
      vertex 38.6811 17.0521 4
      vertex 38.2121 18.1821 4
    endloop
  endfacet
  facet normal 0 0 1
    outer loop
      vertex 35.0398 20.1623 4
      vertex 33.4585 20.296 4
      vertex 33.2095 18.637 4
    endloop
  endfacet
  facet normal 0 0 1
    outer loop
      vertex 33.2955 12.616 4
      vertex 29.1115 10.979 4
      vertex 33.5905 10.979 4
    endloop
  endfacet
  facet normal -0 0 1
    outer loop
      vertex 29.1115 12.616 4
      vertex 29.1115 10.979 4
      vertex 33.2955 12.616 4
    endloop
  endfacet
  facet normal 0 0 1
    outer loop
      vertex 29.1115 12.616 4
      vertex 27.0405 5 4
      vertex 29.1115 10.979 4
    endloop
  endfacet
  facet normal 0 0 1
    outer loop
      vertex 27.0405 20.296 4
      vertex 27.0405 5 4
      vertex 29.1115 12.616 4
    endloop
  endfacet
  facet normal 0 0 1
    outer loop
      vertex 33.4585 20.296 4
      vertex 27.0405 20.296 4
      vertex 29.1115 18.637 4
    endloop
  endfacet
  facet normal 0 0 1
    outer loop
      vertex 33.4585 20.296 4
      vertex 29.1115 18.637 4
      vertex 33.2095 18.637 4
    endloop
  endfacet
  facet normal 0 0 1
    outer loop
      vertex 37.4305 19.093 4
      vertex 35.1795 18.3085 4
      vertex 36.3615 17.3232 4
    endloop
  endfacet
  facet normal 0 0 1
    outer loop
      vertex 36.7554 15.681 4
      vertex 38.8374 15.703 4
      vertex 38.6811 17.0521 4
    endloop
  endfacet
  facet normal -0 0 1
    outer loop
      vertex 36.371 13.9782 4
      vertex 38.2099 13.2083 4
      vertex 38.6806 14.357 4
    endloop
  endfacet
  facet normal -0 0 1
    outer loop
      vertex 35.2177 12.9565 4
      vertex 37.4255 12.257 4
      vertex 36.371 13.9782 4
    endloop
  endfacet
  facet normal 0 -0 1
    outer loop
      vertex 35.0935 11.121 4
      vertex 35.2177 12.9565 4
      vertex 33.2955 12.616 4
    endloop
  endfacet
  facet normal 0 0 1
    outer loop
      vertex 35.0935 11.121 4
      vertex 36.3718 11.547 4
      vertex 35.2177 12.9565 4
    endloop
  endfacet
  facet normal 0 -1 0
    outer loop
      vertex 20.418 11.223 2
      vertex 11.893 11.223 4
      vertex 11.893 11.223 2
    endloop
  endfacet
  facet normal 0 -1 0
    outer loop
      vertex 20.418 11.223 2
      vertex 20.418 11.223 4
      vertex 11.893 11.223 4
    endloop
  endfacet
  facet normal 1 0 0
    outer loop
      vertex 20.418 12.936 2
      vertex 20.418 11.223 4
      vertex 20.418 11.223 2
    endloop
  endfacet
  facet normal 1 0 -0
    outer loop
      vertex 20.418 12.936 2
      vertex 20.418 12.936 4
      vertex 20.418 11.223 4
    endloop
  endfacet
  facet normal 0 1 0
    outer loop
      vertex 11.893 12.936 2
      vertex 20.418 12.936 4
      vertex 20.418 12.936 2
    endloop
  endfacet
  facet normal 0 1 0
    outer loop
      vertex 11.893 12.936 2
      vertex 11.893 12.936 4
      vertex 20.418 12.936 4
    endloop
  endfacet
  facet normal 1 0 0
    outer loop
      vertex 11.893 18.604 2
      vertex 11.893 12.936 4
      vertex 11.893 12.936 2
    endloop
  endfacet
  facet normal 1 0 -0
    outer loop
      vertex 11.893 18.604 2
      vertex 11.893 18.604 4
      vertex 11.893 12.936 4
    endloop
  endfacet
  facet normal 0 -1 0
    outer loop
      vertex 20.679 18.604 2
      vertex 11.893 18.604 4
      vertex 11.893 18.604 2
    endloop
  endfacet
  facet normal 0 -1 0
    outer loop
      vertex 20.679 18.604 2
      vertex 20.679 18.604 4
      vertex 11.893 18.604 4
    endloop
  endfacet
  facet normal 1 0 0
    outer loop
      vertex 20.679 20.296 2
      vertex 20.679 18.604 4
      vertex 20.679 18.604 2
    endloop
  endfacet
  facet normal 1 0 -0
    outer loop
      vertex 20.679 20.296 2
      vertex 20.679 20.296 4
      vertex 20.679 18.604 4
    endloop
  endfacet
  facet normal 0 1 0
    outer loop
      vertex 9.82199 20.296 2
      vertex 20.679 20.296 4
      vertex 20.679 20.296 2
    endloop
  endfacet
  facet normal 0 1 0
    outer loop
      vertex 9.82199 20.296 2
      vertex 9.82199 20.296 4
      vertex 20.679 20.296 4
    endloop
  endfacet
  facet normal -1 0 0
    outer loop
      vertex 9.82199 5 2
      vertex 9.82199 20.296 4
      vertex 9.82199 20.296 2
    endloop
  endfacet
  facet normal -1 0 0
    outer loop
      vertex 9.82199 5 2
      vertex 9.82199 5 4
      vertex 9.82199 20.296 4
    endloop
  endfacet
  facet normal 0 -1 0
    outer loop
      vertex 11.893 5 2
      vertex 9.82199 5 4
      vertex 9.82199 5 2
    endloop
  endfacet
  facet normal 0 -1 0
    outer loop
      vertex 11.893 5 2
      vertex 11.893 5 4
      vertex 9.82199 5 4
    endloop
  endfacet
  facet normal 1 0 0
    outer loop
      vertex 11.893 11.223 2
      vertex 11.893 5 4
      vertex 11.893 5 2
    endloop
  endfacet
  facet normal 1 0 -0
    outer loop
      vertex 11.893 11.223 2
      vertex 11.893 11.223 4
      vertex 11.893 5 4
    endloop
  endfacet
  facet normal 0 -1 0
    outer loop
      vertex 33.5905 10.979 2
      vertex 29.1115 10.979 4
      vertex 29.1115 10.979 2
    endloop
  endfacet
  facet normal 0 -1 0
    outer loop
      vertex 33.5905 10.979 2
      vertex 33.5905 10.979 4
      vertex 29.1115 10.979 4
    endloop
  endfacet
  facet normal 0.0940574 -0.995567 0
    outer loop
      vertex 35.0935 11.121 2
      vertex 33.5905 10.979 4
      vertex 33.5905 10.979 2
    endloop
  endfacet
  facet normal 0.0940574 -0.995567 0
    outer loop
      vertex 35.0935 11.121 2
      vertex 35.0935 11.121 4
      vertex 33.5905 10.979 4
    endloop
  endfacet
  facet normal 0.316163 -0.948705 0
    outer loop
      vertex 36.3718 11.547 2
      vertex 35.0935 11.121 4
      vertex 35.0935 11.121 2
    endloop
  endfacet
  facet normal 0.316163 -0.948705 0
    outer loop
      vertex 36.3718 11.547 2
      vertex 36.3718 11.547 4
      vertex 35.0935 11.121 4
    endloop
  endfacet
  facet normal 0.558801 -0.829302 0
    outer loop
      vertex 37.4255 12.257 2
      vertex 36.3718 11.547 4
      vertex 36.3718 11.547 2
    endloop
  endfacet
  facet normal 0.558801 -0.829302 0
    outer loop
      vertex 37.4255 12.257 2
      vertex 37.4255 12.257 4
      vertex 36.3718 11.547 4
    endloop
  endfacet
  facet normal 0.771539 -0.636182 0
    outer loop
      vertex 38.2099 13.2083 2
      vertex 37.4255 12.257 4
      vertex 37.4255 12.257 2
    endloop
  endfacet
  facet normal 0.771539 -0.636182 0
    outer loop
      vertex 38.2099 13.2083 2
      vertex 38.2099 13.2083 4
      vertex 37.4255 12.257 4
    endloop
  endfacet
  facet normal 0.925336 -0.379149 0
    outer loop
      vertex 38.6806 14.357 2
      vertex 38.2099 13.2083 4
      vertex 38.2099 13.2083 2
    endloop
  endfacet
  facet normal 0.925336 -0.379149 0
    outer loop
      vertex 38.6806 14.357 2
      vertex 38.6806 14.357 4
      vertex 38.2099 13.2083 4
    endloop
  endfacet
  facet normal 0.993275 -0.115778 0
    outer loop
      vertex 38.8374 15.703 2
      vertex 38.6806 14.357 4
      vertex 38.6806 14.357 2
    endloop
  endfacet
  facet normal 0.993275 -0.115778 0
    outer loop
      vertex 38.8374 15.703 2
      vertex 38.8374 15.703 4
      vertex 38.6806 14.357 4
    endloop
  endfacet
  facet normal 0.993354 0.115103 0
    outer loop
      vertex 38.6811 17.0521 2
      vertex 38.8374 15.703 4
      vertex 38.8374 15.703 2
    endloop
  endfacet
  facet normal 0.993354 0.115103 -0
    outer loop
      vertex 38.6811 17.0521 2
      vertex 38.6811 17.0521 4
      vertex 38.8374 15.703 4
    endloop
  endfacet
  facet normal 0.923604 0.383348 0
    outer loop
      vertex 38.2121 18.1821 2
      vertex 38.6811 17.0521 4
      vertex 38.6811 17.0521 2
    endloop
  endfacet
  facet normal 0.923604 0.383348 -0
    outer loop
      vertex 38.2121 18.1821 2
      vertex 38.2121 18.1821 4
      vertex 38.6811 17.0521 4
    endloop
  endfacet
  facet normal 0.758886 0.651224 0
    outer loop
      vertex 37.4305 19.093 2
      vertex 38.2121 18.1821 4
      vertex 38.2121 18.1821 2
    endloop
  endfacet
  facet normal 0.758886 0.651224 -0
    outer loop
      vertex 37.4305 19.093 2
      vertex 37.4305 19.093 4
      vertex 38.2121 18.1821 4
    endloop
  endfacet
  facet normal 0.530952 0.847402 0
    outer loop
      vertex 36.3638 19.7613 2
      vertex 37.4305 19.093 4
      vertex 37.4305 19.093 2
    endloop
  endfacet
  facet normal 0.530952 0.847402 -0
    outer loop
      vertex 36.3638 19.7613 2
      vertex 36.3638 19.7613 4
      vertex 37.4305 19.093 4
    endloop
  endfacet
  facet normal 0.289867 0.957067 0
    outer loop
      vertex 35.0398 20.1623 2
      vertex 36.3638 19.7613 4
      vertex 36.3638 19.7613 2
    endloop
  endfacet
  facet normal 0.289867 0.957067 -0
    outer loop
      vertex 35.0398 20.1623 2
      vertex 35.0398 20.1623 4
      vertex 36.3638 19.7613 4
    endloop
  endfacet
  facet normal 0.0842279 0.996447 0
    outer loop
      vertex 33.4585 20.296 2
      vertex 35.0398 20.1623 4
      vertex 35.0398 20.1623 2
    endloop
  endfacet
  facet normal 0.0842279 0.996447 -0
    outer loop
      vertex 33.4585 20.296 2
      vertex 33.4585 20.296 4
      vertex 35.0398 20.1623 4
    endloop
  endfacet
  facet normal 0 1 0
    outer loop
      vertex 27.0405 20.296 2
      vertex 33.4585 20.296 4
      vertex 33.4585 20.296 2
    endloop
  endfacet
  facet normal 0 1 0
    outer loop
      vertex 27.0405 20.296 2
      vertex 27.0405 20.296 4
      vertex 33.4585 20.296 4
    endloop
  endfacet
  facet normal -1 0 0
    outer loop
      vertex 27.0405 5 2
      vertex 27.0405 20.296 4
      vertex 27.0405 20.296 2
    endloop
  endfacet
  facet normal -1 0 0
    outer loop
      vertex 27.0405 5 2
      vertex 27.0405 5 4
      vertex 27.0405 20.296 4
    endloop
  endfacet
  facet normal 0 -1 0
    outer loop
      vertex 29.1115 5 2
      vertex 27.0405 5 4
      vertex 27.0405 5 2
    endloop
  endfacet
  facet normal 0 -1 0
    outer loop
      vertex 29.1115 5 2
      vertex 29.1115 5 4
      vertex 27.0405 5 4
    endloop
  endfacet
  facet normal 1 0 0
    outer loop
      vertex 29.1115 10.979 2
      vertex 29.1115 5 4
      vertex 29.1115 5 2
    endloop
  endfacet
  facet normal 1 0 -0
    outer loop
      vertex 29.1115 10.979 2
      vertex 29.1115 10.979 4
      vertex 29.1115 5 4
    endloop
  endfacet
  facet normal 1 0 -0
    outer loop
      vertex 29.1115 18.637 2
      vertex 29.1115 18.637 4
      vertex 29.1115 12.616 2
    endloop
  endfacet
  facet normal 1 -0 0
    outer loop
      vertex 29.1115 12.616 4
      vertex 29.1115 12.616 2
      vertex 29.1115 18.637 4
    endloop
  endfacet
  facet normal 0 -1 0
    outer loop
      vertex 33.2095 18.637 2
      vertex 33.2095 18.637 4
      vertex 29.1115 18.637 2
    endloop
  endfacet
  facet normal 0 -1 0
    outer loop
      vertex 29.1115 18.637 4
      vertex 29.1115 18.637 2
      vertex 33.2095 18.637 4
    endloop
  endfacet
  facet normal -0.164454 -0.986385 0
    outer loop
      vertex 35.1795 18.3085 2
      vertex 35.1795 18.3085 4
      vertex 33.2095 18.637 2
    endloop
  endfacet
  facet normal -0.164454 -0.986385 -0
    outer loop
      vertex 33.2095 18.637 4
      vertex 33.2095 18.637 2
      vertex 35.1795 18.3085 4
    endloop
  endfacet
  facet normal -0.640316 -0.768112 0
    outer loop
      vertex 36.3615 17.3232 2
      vertex 36.3615 17.3232 4
      vertex 35.1795 18.3085 2
    endloop
  endfacet
  facet normal -0.640316 -0.768112 -0
    outer loop
      vertex 35.1795 18.3085 4
      vertex 35.1795 18.3085 2
      vertex 36.3615 17.3232 4
    endloop
  endfacet
  facet normal -0.972405 -0.233298 0
    outer loop
      vertex 36.7554 15.681 2
      vertex 36.7554 15.681 4
      vertex 36.3615 17.3232 2
    endloop
  endfacet
  facet normal -0.972405 -0.233298 -0
    outer loop
      vertex 36.3615 17.3232 4
      vertex 36.3615 17.3232 2
      vertex 36.7554 15.681 4
    endloop
  endfacet
  facet normal -0.975448 0.220231 0
    outer loop
      vertex 36.371 13.9782 2
      vertex 36.371 13.9782 4
      vertex 36.7554 15.681 2
    endloop
  endfacet
  facet normal -0.975448 0.220231 0
    outer loop
      vertex 36.7554 15.681 4
      vertex 36.7554 15.681 2
      vertex 36.371 13.9782 4
    endloop
  endfacet
  facet normal -0.663092 0.748538 0
    outer loop
      vertex 35.2177 12.9565 2
      vertex 35.2177 12.9565 4
      vertex 36.371 13.9782 2
    endloop
  endfacet
  facet normal -0.663092 0.748538 0
    outer loop
      vertex 36.371 13.9782 4
      vertex 36.371 13.9782 2
      vertex 35.2177 12.9565 4
    endloop
  endfacet
  facet normal -0.174446 0.984667 0
    outer loop
      vertex 33.2955 12.616 2
      vertex 33.2955 12.616 4
      vertex 35.2177 12.9565 2
    endloop
  endfacet
  facet normal -0.174446 0.984667 0
    outer loop
      vertex 35.2177 12.9565 4
      vertex 35.2177 12.9565 2
      vertex 33.2955 12.616 4
    endloop
  endfacet
  facet normal 0 1 0
    outer loop
      vertex 29.1115 12.616 2
      vertex 29.1115 12.616 4
      vertex 33.2955 12.616 2
    endloop
  endfacet
  facet normal 0 1 0
    outer loop
      vertex 33.2955 12.616 4
      vertex 33.2955 12.616 2
      vertex 29.1115 12.616 4
    endloop
  endfacet
endsolid OpenSCAD_Model
