solid OpenSCAD_Model
  facet normal 0 0 -1
    outer loop
      vertex 20.418 11.223 2
      vertex 11.893 12.936 2
      vertex 20.418 12.936 2
    endloop
  endfacet
  facet normal 0 0 -1
    outer loop
      vertex 20.418 11.223 2
      vertex 11.893 11.223 2
      vertex 11.893 12.936 2
    endloop
  endfacet
  facet normal 0 -0 -1
    outer loop
      vertex 11.893 12.936 2
      vertex 11.893 11.223 2
      vertex 9.82199 5 2
    endloop
  endfacet
  facet normal 0 0 -1
    outer loop
      vertex 34.8508 14.2942 2
      vertex 33.8621 10.6679 2
      vertex 32.2203 11.2622 2
    endloop
  endfacet
  facet normal -0 0 -1
    outer loop
      vertex 11.893 12.936 2
      vertex 9.82199 5 2
      vertex 9.82199 20.296 2
    endloop
  endfacet
  facet normal -0 -0 -1
    outer loop
      vertex 11.893 18.604 2
      vertex 11.893 12.936 2
      vertex 9.82199 20.296 2
    endloop
  endfacet
  facet normal -0 0 -1
    outer loop
      vertex 33.8621 10.6679 2
      vertex 31.7335 9.42699 2
      vertex 32.2203 11.2622 2
    endloop
  endfacet
  facet normal 0 0 -1
    outer loop
      vertex 20.679 18.604 2
      vertex 11.893 18.604 2
      vertex 20.679 20.296 2
    endloop
  endfacet
  facet normal -0 0 -1
    outer loop
      vertex 34.8508 14.2942 2
      vertex 32.2203 11.2622 2
      vertex 33.225 14.8852 2
    endloop
  endfacet
  facet normal -0 0 -1
    outer loop
      vertex 20.679 20.296 2
      vertex 11.893 18.604 2
      vertex 9.82199 20.296 2
    endloop
  endfacet
  facet normal 0 -0 -1
    outer loop
      vertex 11.893 11.223 2
      vertex 11.893 5 2
      vertex 9.82199 5 2
    endloop
  endfacet
  facet normal 0 -0 -1
    outer loop
      vertex 31.1304 6.82199 2
      vertex 32.3015 5 2
      vertex 29.8295 5 2
    endloop
  endfacet
  facet normal 0 0 -1
    outer loop
      vertex 35.2675 15.879 2
      vertex 34.8508 14.2942 2
      vertex 33.225 14.8852 2
    endloop
  endfacet
  facet normal -0 0 -1
    outer loop
      vertex 35.567 17.1919 2
      vertex 33.225 14.8852 2
      vertex 34.7475 20.296 2
    endloop
  endfacet
  facet normal -0 0 -1
    outer loop
      vertex 35.7455 17.986 2
      vertex 35.567 17.1919 2
      vertex 34.7475 20.296 2
    endloop
  endfacet
  facet normal 0 -0 -1
    outer loop
      vertex 43.9805 20.296 2
      vertex 46.1385 20.296 2
      vertex 42.366 14.5024 2
    endloop
  endfacet
  facet normal 0 0 -1
    outer loop
      vertex 41.6304 5 2
      vertex 39.1584 5 2
      vertex 40.3504 6.82199 2
    endloop
  endfacet
  facet normal 0 0 -1
    outer loop
      vertex 34.7475 20.296 2
      vertex 36.7315 20.296 2
      vertex 35.7455 17.986 2
    endloop
  endfacet
  facet normal -0 0 -1
    outer loop
      vertex 35.2675 15.879 2
      vertex 33.225 14.8852 2
      vertex 35.567 17.1919 2
    endloop
  endfacet
  facet normal 0 0 -1
    outer loop
      vertex 30.2285 10.579 2
      vertex 25.3204 20.296 2
      vertex 27.4785 20.296 2
    endloop
  endfacet
  facet normal 0 -0 -1
    outer loop
      vertex 40.0896 7.98021 2
      vertex 40.3504 6.82199 2
      vertex 39.1584 5 2
    endloop
  endfacet
  facet normal 0 -0 -1
    outer loop
      vertex 42.366 14.5024 2
      vertex 46.1385 20.296 2
      vertex 41.6304 5 2
    endloop
  endfacet
  facet normal 0 0 -1
    outer loop
      vertex 41.6304 5 2
      vertex 41.348 10.8164 2
      vertex 42.366 14.5024 2
    endloop
  endfacet
  facet normal 0 0 -1
    outer loop
      vertex 41.6304 5 2
      vertex 40.9265 9.23799 2
      vertex 41.348 10.8164 2
    endloop
  endfacet
  facet normal 0 0 -1
    outer loop
      vertex 39.1584 5 2
      vertex 36.5065 14.718 2
      vertex 39.3945 10.774 2
    endloop
  endfacet
  facet normal 0 0 -1
    outer loop
      vertex 41.6304 5 2
      vertex 40.4485 7.202 2
      vertex 40.9265 9.23799 2
    endloop
  endfacet
  facet normal 0 0 -1
    outer loop
      vertex 39.1584 5 2
      vertex 39.7709 9.29755 2
      vertex 40.0896 7.98021 2
    endloop
  endfacet
  facet normal 0 0 -1
    outer loop
      vertex 41.6304 5 2
      vertex 40.3504 6.82199 2
      vertex 40.4485 7.202 2
    endloop
  endfacet
  facet normal 0 0 -1
    outer loop
      vertex 39.1584 5 2
      vertex 39.3945 10.774 2
      vertex 39.7709 9.29755 2
    endloop
  endfacet
  facet normal 0 0 -1
    outer loop
      vertex 36.7315 20.296 2
      vertex 36.0522 16.5758 2
      vertex 35.7455 17.986 2
    endloop
  endfacet
  facet normal 0 0 -1
    outer loop
      vertex 36.5065 14.718 2
      vertex 36.3059 15.4864 2
      vertex 39.3945 10.774 2
    endloop
  endfacet
  facet normal 0 0 -1
    outer loop
      vertex 36.3059 15.4864 2
      vertex 36.7315 20.296 2
      vertex 39.3945 10.774 2
    endloop
  endfacet
  facet normal 0 0 -1
    outer loop
      vertex 36.0522 16.5758 2
      vertex 36.7315 20.296 2
      vertex 36.3059 15.4864 2
    endloop
  endfacet
  facet normal 0 0 -1
    outer loop
      vertex 33.8621 10.6679 2
      vertex 31.5145 8.51044 2
      vertex 31.7335 9.42699 2
    endloop
  endfacet
  facet normal 0 0 -1
    outer loop
      vertex 33.8621 10.6679 2
      vertex 32.3015 5 2
      vertex 31.5145 8.51044 2
    endloop
  endfacet
  facet normal 0 -0 -1
    outer loop
      vertex 31.5145 8.51044 2
      vertex 32.3015 5 2
      vertex 31.3134 7.64211 2
    endloop
  endfacet
  facet normal 0 -0 -1
    outer loop
      vertex 31.3134 7.64211 2
      vertex 32.3015 5 2
      vertex 31.1304 6.82199 2
    endloop
  endfacet
  facet normal -0 0 -1
    outer loop
      vertex 30.8467 8.09854 2
      vertex 29.8295 5 2
      vertex 30.546 9.35088 2
    endloop
  endfacet
  facet normal -0 0 -1
    outer loop
      vertex 31.1304 6.82199 2
      vertex 29.8295 5 2
      vertex 30.8467 8.09854 2
    endloop
  endfacet
  facet normal -0 0 -1
    outer loop
      vertex 30.2285 10.579 2
      vertex 29.8295 5 2
      vertex 25.3204 20.296 2
    endloop
  endfacet
  facet normal -0 0 -1
    outer loop
      vertex 30.546 9.35088 2
      vertex 29.8295 5 2
      vertex 30.2285 10.579 2
    endloop
  endfacet
  facet normal 0 0 1
    outer loop
      vertex 20.418 12.936 4
      vertex 11.893 12.936 4
      vertex 20.418 11.223 4
    endloop
  endfacet
  facet normal 0 0 1
    outer loop
      vertex 11.893 12.936 4
      vertex 11.893 11.223 4
      vertex 20.418 11.223 4
    endloop
  endfacet
  facet normal 0 0 1
    outer loop
      vertex 9.82199 5 4
      vertex 11.893 11.223 4
      vertex 11.893 12.936 4
    endloop
  endfacet
  facet normal -0 0 1
    outer loop
      vertex 32.2203 11.2622 4
      vertex 33.8621 10.6679 4
      vertex 34.8508 14.2942 4
    endloop
  endfacet
  facet normal 0 0 1
    outer loop
      vertex 9.82199 20.296 4
      vertex 9.82199 5 4
      vertex 11.893 12.936 4
    endloop
  endfacet
  facet normal 0 0 1
    outer loop
      vertex 9.82199 20.296 4
      vertex 11.893 12.936 4
      vertex 11.893 18.604 4
    endloop
  endfacet
  facet normal 0 0 1
    outer loop
      vertex 32.2203 11.2622 4
      vertex 31.7335 9.42699 4
      vertex 33.8621 10.6679 4
    endloop
  endfacet
  facet normal 0 0 1
    outer loop
      vertex 20.679 20.296 4
      vertex 11.893 18.604 4
      vertex 20.679 18.604 4
    endloop
  endfacet
  facet normal 0 0 1
    outer loop
      vertex 33.225 14.8852 4
      vertex 32.2203 11.2622 4
      vertex 34.8508 14.2942 4
    endloop
  endfacet
  facet normal -0 0 1
    outer loop
      vertex 9.82199 20.296 4
      vertex 11.893 18.604 4
      vertex 20.679 20.296 4
    endloop
  endfacet
  facet normal 0 0 1
    outer loop
      vertex 9.82199 5 4
      vertex 11.893 5 4
      vertex 11.893 11.223 4
    endloop
  endfacet
  facet normal 0 0 1
    outer loop
      vertex 29.8295 5 4
      vertex 32.3015 5 4
      vertex 31.1304 6.82199 4
    endloop
  endfacet
  facet normal -0 0 1
    outer loop
      vertex 33.225 14.8852 4
      vertex 34.8508 14.2942 4
      vertex 35.2675 15.879 4
    endloop
  endfacet
  facet normal 0 0 1
    outer loop
      vertex 34.7475 20.296 4
      vertex 33.225 14.8852 4
      vertex 35.567 17.1919 4
    endloop
  endfacet
  facet normal 0 0 1
    outer loop
      vertex 34.7475 20.296 4
      vertex 35.567 17.1919 4
      vertex 35.7455 17.986 4
    endloop
  endfacet
  facet normal 0 0 1
    outer loop
      vertex 42.366 14.5024 4
      vertex 46.1385 20.296 4
      vertex 43.9805 20.296 4
    endloop
  endfacet
  facet normal 0 0 1
    outer loop
      vertex 40.3504 6.82199 4
      vertex 39.1584 5 4
      vertex 41.6304 5 4
    endloop
  endfacet
  facet normal 0 -0 1
    outer loop
      vertex 35.7455 17.986 4
      vertex 36.7315 20.296 4
      vertex 34.7475 20.296 4
    endloop
  endfacet
  facet normal 0 0 1
    outer loop
      vertex 35.567 17.1919 4
      vertex 33.225 14.8852 4
      vertex 35.2675 15.879 4
    endloop
  endfacet
  facet normal 0 0 1
    outer loop
      vertex 27.4785 20.296 4
      vertex 25.3204 20.296 4
      vertex 30.2285 10.579 4
    endloop
  endfacet
  facet normal 0 0 1
    outer loop
      vertex 39.1584 5 4
      vertex 40.3504 6.82199 4
      vertex 40.0896 7.98021 4
    endloop
  endfacet
  facet normal 0 0 1
    outer loop
      vertex 41.6304 5 4
      vertex 46.1385 20.296 4
      vertex 42.366 14.5024 4
    endloop
  endfacet
  facet normal 0 0 1
    outer loop
      vertex 42.366 14.5024 4
      vertex 41.348 10.8164 4
      vertex 41.6304 5 4
    endloop
  endfacet
  facet normal 0 0 1
    outer loop
      vertex 41.348 10.8164 4
      vertex 40.9265 9.23799 4
      vertex 41.6304 5 4
    endloop
  endfacet
  facet normal 0 0 1
    outer loop
      vertex 39.3945 10.774 4
      vertex 36.5065 14.718 4
      vertex 39.1584 5 4
    endloop
  endfacet
  facet normal 0 0 1
    outer loop
      vertex 40.9265 9.23799 4
      vertex 40.4485 7.202 4
      vertex 41.6304 5 4
    endloop
  endfacet
  facet normal 0 0 1
    outer loop
      vertex 40.0896 7.98021 4
      vertex 39.7709 9.29755 4
      vertex 39.1584 5 4
    endloop
  endfacet
  facet normal 0 0 1
    outer loop
      vertex 40.4485 7.202 4
      vertex 40.3504 6.82199 4
      vertex 41.6304 5 4
    endloop
  endfacet
  facet normal 0 0 1
    outer loop
      vertex 39.7709 9.29755 4
      vertex 39.3945 10.774 4
      vertex 39.1584 5 4
    endloop
  endfacet
  facet normal -0 0 1
    outer loop
      vertex 35.7455 17.986 4
      vertex 36.0522 16.5758 4
      vertex 36.7315 20.296 4
    endloop
  endfacet
  facet normal 0 0 1
    outer loop
      vertex 39.3945 10.774 4
      vertex 36.3059 15.4864 4
      vertex 36.5065 14.718 4
    endloop
  endfacet
  facet normal 0 0 1
    outer loop
      vertex 39.3945 10.774 4
      vertex 36.7315 20.296 4
      vertex 36.3059 15.4864 4
    endloop
  endfacet
  facet normal 0 -0 1
    outer loop
      vertex 36.3059 15.4864 4
      vertex 36.7315 20.296 4
      vertex 36.0522 16.5758 4
    endloop
  endfacet
  facet normal -0 0 1
    outer loop
      vertex 31.7335 9.42699 4
      vertex 31.5145 8.51044 4
      vertex 33.8621 10.6679 4
    endloop
  endfacet
  facet normal -0 0 1
    outer loop
      vertex 31.5145 8.51044 4
      vertex 32.3015 5 4
      vertex 33.8621 10.6679 4
    endloop
  endfacet
  facet normal -0 0 1
    outer loop
      vertex 31.3134 7.64211 4
      vertex 32.3015 5 4
      vertex 31.5145 8.51044 4
    endloop
  endfacet
  facet normal -0 0 1
    outer loop
      vertex 31.1304 6.82199 4
      vertex 32.3015 5 4
      vertex 31.3134 7.64211 4
    endloop
  endfacet
  facet normal 0 0 1
    outer loop
      vertex 30.546 9.35088 4
      vertex 29.8295 5 4
      vertex 30.8467 8.09854 4
    endloop
  endfacet
  facet normal 0 0 1
    outer loop
      vertex 30.8467 8.09854 4
      vertex 29.8295 5 4
      vertex 31.1304 6.82199 4
    endloop
  endfacet
  facet normal 0 0 1
    outer loop
      vertex 25.3204 20.296 4
      vertex 29.8295 5 4
      vertex 30.2285 10.579 4
    endloop
  endfacet
  facet normal 0 0 1
    outer loop
      vertex 30.2285 10.579 4
      vertex 29.8295 5 4
      vertex 30.546 9.35088 4
    endloop
  endfacet
  facet normal 0 -1 0
    outer loop
      vertex 20.418 11.223 2
      vertex 11.893 11.223 4
      vertex 11.893 11.223 2
    endloop
  endfacet
  facet normal 0 -1 0
    outer loop
      vertex 20.418 11.223 2
      vertex 20.418 11.223 4
      vertex 11.893 11.223 4
    endloop
  endfacet
  facet normal 1 0 0
    outer loop
      vertex 20.418 12.936 2
      vertex 20.418 11.223 4
      vertex 20.418 11.223 2
    endloop
  endfacet
  facet normal 1 0 -0
    outer loop
      vertex 20.418 12.936 2
      vertex 20.418 12.936 4
      vertex 20.418 11.223 4
    endloop
  endfacet
  facet normal 0 1 0
    outer loop
      vertex 11.893 12.936 2
      vertex 20.418 12.936 4
      vertex 20.418 12.936 2
    endloop
  endfacet
  facet normal 0 1 0
    outer loop
      vertex 11.893 12.936 2
      vertex 11.893 12.936 4
      vertex 20.418 12.936 4
    endloop
  endfacet
  facet normal 1 0 0
    outer loop
      vertex 11.893 18.604 2
      vertex 11.893 12.936 4
      vertex 11.893 12.936 2
    endloop
  endfacet
  facet normal 1 0 -0
    outer loop
      vertex 11.893 18.604 2
      vertex 11.893 18.604 4
      vertex 11.893 12.936 4
    endloop
  endfacet
  facet normal 0 -1 0
    outer loop
      vertex 20.679 18.604 2
      vertex 11.893 18.604 4
      vertex 11.893 18.604 2
    endloop
  endfacet
  facet normal 0 -1 0
    outer loop
      vertex 20.679 18.604 2
      vertex 20.679 18.604 4
      vertex 11.893 18.604 4
    endloop
  endfacet
  facet normal 1 0 0
    outer loop
      vertex 20.679 20.296 2
      vertex 20.679 18.604 4
      vertex 20.679 18.604 2
    endloop
  endfacet
  facet normal 1 0 -0
    outer loop
      vertex 20.679 20.296 2
      vertex 20.679 20.296 4
      vertex 20.679 18.604 4
    endloop
  endfacet
  facet normal 0 1 0
    outer loop
      vertex 9.82199 20.296 2
      vertex 20.679 20.296 4
      vertex 20.679 20.296 2
    endloop
  endfacet
  facet normal 0 1 0
    outer loop
      vertex 9.82199 20.296 2
      vertex 9.82199 20.296 4
      vertex 20.679 20.296 4
    endloop
  endfacet
  facet normal -1 0 0
    outer loop
      vertex 9.82199 5 2
      vertex 9.82199 20.296 4
      vertex 9.82199 20.296 2
    endloop
  endfacet
  facet normal -1 0 0
    outer loop
      vertex 9.82199 5 2
      vertex 9.82199 5 4
      vertex 9.82199 20.296 4
    endloop
  endfacet
  facet normal 0 -1 0
    outer loop
      vertex 11.893 5 2
      vertex 9.82199 5 4
      vertex 9.82199 5 2
    endloop
  endfacet
  facet normal 0 -1 0
    outer loop
      vertex 11.893 5 2
      vertex 11.893 5 4
      vertex 9.82199 5 4
    endloop
  endfacet
  facet normal 1 0 0
    outer loop
      vertex 11.893 11.223 2
      vertex 11.893 5 4
      vertex 11.893 5 2
    endloop
  endfacet
  facet normal 1 0 -0
    outer loop
      vertex 11.893 11.223 2
      vertex 11.893 11.223 4
      vertex 11.893 5 4
    endloop
  endfacet
  facet normal 0.964787 -0.263033 0
    outer loop
      vertex 34.8508 14.2942 2
      vertex 33.8621 10.6679 4
      vertex 33.8621 10.6679 2
    endloop
  endfacet
  facet normal 0.964787 -0.263033 0
    outer loop
      vertex 34.8508 14.2942 2
      vertex 34.8508 14.2942 4
      vertex 33.8621 10.6679 4
    endloop
  endfacet
  facet normal 0.967131 -0.254279 0
    outer loop
      vertex 35.2675 15.879 2
      vertex 34.8508 14.2942 4
      vertex 34.8508 14.2942 2
    endloop
  endfacet
  facet normal 0.967131 -0.254279 0
    outer loop
      vertex 35.2675 15.879 2
      vertex 35.2675 15.879 4
      vertex 34.8508 14.2942 4
    endloop
  endfacet
  facet normal 0.974946 -0.222442 0
    outer loop
      vertex 35.567 17.1919 2
      vertex 35.2675 15.879 4
      vertex 35.2675 15.879 2
    endloop
  endfacet
  facet normal 0.974946 -0.222442 0
    outer loop
      vertex 35.567 17.1919 2
      vertex 35.567 17.1919 4
      vertex 35.2675 15.879 4
    endloop
  endfacet
  facet normal 0.975669 -0.21925 0
    outer loop
      vertex 35.7455 17.986 2
      vertex 35.567 17.1919 4
      vertex 35.567 17.1919 2
    endloop
  endfacet
  facet normal 0.975669 -0.21925 0
    outer loop
      vertex 35.7455 17.986 2
      vertex 35.7455 17.986 4
      vertex 35.567 17.1919 4
    endloop
  endfacet
  facet normal -0.977146 -0.212568 0
    outer loop
      vertex 36.0522 16.5758 2
      vertex 35.7455 17.986 4
      vertex 35.7455 17.986 2
    endloop
  endfacet
  facet normal -0.977146 -0.212568 0
    outer loop
      vertex 36.0522 16.5758 2
      vertex 36.0522 16.5758 4
      vertex 35.7455 17.986 4
    endloop
  endfacet
  facet normal -0.973943 -0.226791 0
    outer loop
      vertex 36.3059 15.4864 2
      vertex 36.0522 16.5758 4
      vertex 36.0522 16.5758 2
    endloop
  endfacet
  facet normal -0.973943 -0.226791 0
    outer loop
      vertex 36.3059 15.4864 2
      vertex 36.3059 15.4864 4
      vertex 36.0522 16.5758 4
    endloop
  endfacet
  facet normal -0.967587 -0.252536 0
    outer loop
      vertex 36.5065 14.718 2
      vertex 36.3059 15.4864 4
      vertex 36.3059 15.4864 2
    endloop
  endfacet
  facet normal -0.967587 -0.252536 0
    outer loop
      vertex 36.5065 14.718 2
      vertex 36.5065 14.718 4
      vertex 36.3059 15.4864 4
    endloop
  endfacet
  facet normal -0.964723 -0.263268 0
    outer loop
      vertex 39.1584 5 2
      vertex 36.5065 14.718 4
      vertex 36.5065 14.718 2
    endloop
  endfacet
  facet normal -0.964723 -0.263268 0
    outer loop
      vertex 39.1584 5 2
      vertex 39.1584 5 4
      vertex 36.5065 14.718 4
    endloop
  endfacet
  facet normal 0 -1 0
    outer loop
      vertex 41.6304 5 2
      vertex 39.1584 5 4
      vertex 39.1584 5 2
    endloop
  endfacet
  facet normal 0 -1 0
    outer loop
      vertex 41.6304 5 2
      vertex 41.6304 5 4
      vertex 39.1584 5 4
    endloop
  endfacet
  facet normal 0.959209 -0.282697 0
    outer loop
      vertex 46.1385 20.296 2
      vertex 41.6304 5 4
      vertex 41.6304 5 2
    endloop
  endfacet
  facet normal 0.959209 -0.282697 0
    outer loop
      vertex 46.1385 20.296 2
      vertex 46.1385 20.296 4
      vertex 41.6304 5 4
    endloop
  endfacet
  facet normal 0 1 0
    outer loop
      vertex 43.9805 20.296 2
      vertex 46.1385 20.296 4
      vertex 46.1385 20.296 2
    endloop
  endfacet
  facet normal 0 1 0
    outer loop
      vertex 43.9805 20.296 2
      vertex 43.9805 20.296 4
      vertex 46.1385 20.296 4
    endloop
  endfacet
  facet normal -0.963298 0.268434 0
    outer loop
      vertex 42.366 14.5024 2
      vertex 43.9805 20.296 4
      vertex 43.9805 20.296 2
    endloop
  endfacet
  facet normal -0.963298 0.268434 0
    outer loop
      vertex 42.366 14.5024 2
      vertex 42.366 14.5024 4
      vertex 43.9805 20.296 4
    endloop
  endfacet
  facet normal -0.963914 0.266215 0
    outer loop
      vertex 41.348 10.8164 2
      vertex 42.366 14.5024 4
      vertex 42.366 14.5024 2
    endloop
  endfacet
  facet normal -0.963914 0.266215 0
    outer loop
      vertex 41.348 10.8164 2
      vertex 41.348 10.8164 4
      vertex 42.366 14.5024 4
    endloop
  endfacet
  facet normal -0.966138 0.258026 0
    outer loop
      vertex 40.9265 9.23799 2
      vertex 41.348 10.8164 4
      vertex 41.348 10.8164 2
    endloop
  endfacet
  facet normal -0.966138 0.258026 0
    outer loop
      vertex 40.9265 9.23799 2
      vertex 40.9265 9.23799 4
      vertex 41.348 10.8164 4
    endloop
  endfacet
  facet normal -0.97353 0.228559 0
    outer loop
      vertex 40.4485 7.202 2
      vertex 40.9265 9.23799 4
      vertex 40.9265 9.23799 2
    endloop
  endfacet
  facet normal -0.97353 0.228559 0
    outer loop
      vertex 40.4485 7.202 2
      vertex 40.4485 7.202 4
      vertex 40.9265 9.23799 4
    endloop
  endfacet
  facet normal -0.968313 0.249738 0
    outer loop
      vertex 40.3504 6.82199 2
      vertex 40.4485 7.202 4
      vertex 40.4485 7.202 2
    endloop
  endfacet
  facet normal -0.968313 0.249738 0
    outer loop
      vertex 40.3504 6.82199 2
      vertex 40.3504 6.82199 4
      vertex 40.4485 7.202 4
    endloop
  endfacet
  facet normal 0.975559 0.219737 0
    outer loop
      vertex 40.0896 7.98021 2
      vertex 40.3504 6.82199 4
      vertex 40.3504 6.82199 2
    endloop
  endfacet
  facet normal 0.975559 0.219737 -0
    outer loop
      vertex 40.0896 7.98021 2
      vertex 40.0896 7.98021 4
      vertex 40.3504 6.82199 4
    endloop
  endfacet
  facet normal 0.971967 0.235119 0
    outer loop
      vertex 39.7709 9.29755 2
      vertex 40.0896 7.98021 4
      vertex 40.0896 7.98021 2
    endloop
  endfacet
  facet normal 0.971967 0.235119 -0
    outer loop
      vertex 39.7709 9.29755 2
      vertex 39.7709 9.29755 4
      vertex 40.0896 7.98021 4
    endloop
  endfacet
  facet normal 0.968999 0.247067 0
    outer loop
      vertex 39.3945 10.774 2
      vertex 39.7709 9.29755 4
      vertex 39.7709 9.29755 2
    endloop
  endfacet
  facet normal 0.968999 0.247067 -0
    outer loop
      vertex 39.3945 10.774 2
      vertex 39.3945 10.774 4
      vertex 39.7709 9.29755 4
    endloop
  endfacet
  facet normal 0.963047 0.269333 0
    outer loop
      vertex 36.7315 20.296 2
      vertex 39.3945 10.774 4
      vertex 39.3945 10.774 2
    endloop
  endfacet
  facet normal 0.963047 0.269333 -0
    outer loop
      vertex 36.7315 20.296 2
      vertex 36.7315 20.296 4
      vertex 39.3945 10.774 4
    endloop
  endfacet
  facet normal 0 1 0
    outer loop
      vertex 34.7475 20.296 2
      vertex 36.7315 20.296 4
      vertex 36.7315 20.296 2
    endloop
  endfacet
  facet normal 0 1 0
    outer loop
      vertex 34.7475 20.296 2
      vertex 34.7475 20.296 4
      vertex 36.7315 20.296 4
    endloop
  endfacet
  facet normal -0.96262 0.270855 0
    outer loop
      vertex 33.225 14.8852 2
      vertex 34.7475 20.296 4
      vertex 34.7475 20.296 2
    endloop
  endfacet
  facet normal -0.96262 0.270855 0
    outer loop
      vertex 33.225 14.8852 2
      vertex 33.225 14.8852 4
      vertex 34.7475 20.296 4
    endloop
  endfacet
  facet normal -0.963636 0.267219 0
    outer loop
      vertex 32.2203 11.2622 2
      vertex 33.225 14.8852 4
      vertex 33.225 14.8852 2
    endloop
  endfacet
  facet normal -0.963636 0.267219 0
    outer loop
      vertex 32.2203 11.2622 2
      vertex 32.2203 11.2622 4
      vertex 33.225 14.8852 4
    endloop
  endfacet
  facet normal -0.966564 0.256426 0
    outer loop
      vertex 31.7335 9.42699 2
      vertex 32.2203 11.2622 4
      vertex 32.2203 11.2622 2
    endloop
  endfacet
  facet normal -0.966564 0.256426 0
    outer loop
      vertex 31.7335 9.42699 2
      vertex 31.7335 9.42699 4
      vertex 32.2203 11.2622 4
    endloop
  endfacet
  facet normal -0.972619 0.232407 0
    outer loop
      vertex 31.5145 8.51044 2
      vertex 31.7335 9.42699 4
      vertex 31.7335 9.42699 2
    endloop
  endfacet
  facet normal -0.972619 0.232407 0
    outer loop
      vertex 31.5145 8.51044 2
      vertex 31.5145 8.51044 4
      vertex 31.7335 9.42699 4
    endloop
  endfacet
  facet normal -0.974239 0.22552 0
    outer loop
      vertex 31.3134 7.64211 2
      vertex 31.5145 8.51044 4
      vertex 31.5145 8.51044 2
    endloop
  endfacet
  facet normal -0.974239 0.22552 0
    outer loop
      vertex 31.3134 7.64211 2
      vertex 31.3134 7.64211 4
      vertex 31.5145 8.51044 4
    endloop
  endfacet
  facet normal -0.975997 0.217782 0
    outer loop
      vertex 31.1304 6.82199 2
      vertex 31.3134 7.64211 4
      vertex 31.3134 7.64211 2
    endloop
  endfacet
  facet normal -0.975997 0.217782 0
    outer loop
      vertex 31.1304 6.82199 2
      vertex 31.1304 6.82199 4
      vertex 31.3134 7.64211 4
    endloop
  endfacet
  facet normal 0.976173 0.216996 0
    outer loop
      vertex 30.8467 8.09854 2
      vertex 31.1304 6.82199 4
      vertex 31.1304 6.82199 2
    endloop
  endfacet
  facet normal 0.976173 0.216996 -0
    outer loop
      vertex 30.8467 8.09854 2
      vertex 30.8467 8.09854 4
      vertex 31.1304 6.82199 4
    endloop
  endfacet
  facet normal 0.972367 0.233457 0
    outer loop
      vertex 30.546 9.35088 2
      vertex 30.8467 8.09854 4
      vertex 30.8467 8.09854 2
    endloop
  endfacet
  facet normal 0.972367 0.233457 -0
    outer loop
      vertex 30.546 9.35088 2
      vertex 30.546 9.35088 4
      vertex 30.8467 8.09854 4
    endloop
  endfacet
  facet normal 0.96816 0.250334 0
    outer loop
      vertex 30.2285 10.579 2
      vertex 30.546 9.35088 4
      vertex 30.546 9.35088 2
    endloop
  endfacet
  facet normal 0.96816 0.250334 -0
    outer loop
      vertex 30.2285 10.579 2
      vertex 30.2285 10.579 4
      vertex 30.546 9.35088 4
    endloop
  endfacet
  facet normal 0.962208 0.272314 0
    outer loop
      vertex 27.4785 20.296 2
      vertex 30.2285 10.579 4
      vertex 30.2285 10.579 2
    endloop
  endfacet
  facet normal 0.962208 0.272314 -0
    outer loop
      vertex 27.4785 20.296 2
      vertex 27.4785 20.296 4
      vertex 30.2285 10.579 4
    endloop
  endfacet
  facet normal 0 1 0
    outer loop
      vertex 25.3204 20.296 2
      vertex 27.4785 20.296 4
      vertex 27.4785 20.296 2
    endloop
  endfacet
  facet normal 0 1 0
    outer loop
      vertex 25.3204 20.296 2
      vertex 25.3204 20.296 4
      vertex 27.4785 20.296 4
    endloop
  endfacet
  facet normal -0.959192 -0.282754 0
    outer loop
      vertex 29.8295 5 2
      vertex 25.3204 20.296 4
      vertex 25.3204 20.296 2
    endloop
  endfacet
  facet normal -0.959192 -0.282754 0
    outer loop
      vertex 29.8295 5 2
      vertex 29.8295 5 4
      vertex 25.3204 20.296 4
    endloop
  endfacet
  facet normal 0 -1 0
    outer loop
      vertex 32.3015 5 2
      vertex 29.8295 5 4
      vertex 29.8295 5 2
    endloop
  endfacet
  facet normal 0 -1 0
    outer loop
      vertex 32.3015 5 2
      vertex 32.3015 5 4
      vertex 29.8295 5 4
    endloop
  endfacet
  facet normal 0.964118 -0.265473 0
    outer loop
      vertex 33.8621 10.6679 2
      vertex 32.3015 5 4
      vertex 32.3015 5 2
    endloop
  endfacet
  facet normal 0.964118 -0.265473 0
    outer loop
      vertex 33.8621 10.6679 2
      vertex 33.8621 10.6679 4
      vertex 32.3015 5 4
    endloop
  endfacet
endsolid OpenSCAD_Model
