solid OpenSCAD_Model
  facet normal 0 0 -1
    outer loop
      vertex 20.179 13.832 2
      vertex 20.179 20.296 2
      vertex 22.25 20.296 2
    endloop
  endfacet
  facet normal 0 0 -1
    outer loop
      vertex 11.896 12.097 2
      vertex 9.825 20.296 2
      vertex 11.896 13.832 2
    endloop
  endfacet
  facet normal 0 0 -1
    outer loop
      vertex 9.825 20.296 2
      vertex 11.896 12.097 2
      vertex 9.825 5 2
    endloop
  endfacet
  facet normal 0 0 -1
    outer loop
      vertex 20.179 12.097 2
      vertex 22.25 5 2
      vertex 20.179 5 2
    endloop
  endfacet
  facet normal 0 0 -1
    outer loop
      vertex 20.179 12.097 2
      vertex 22.25 20.296 2
      vertex 22.25 5 2
    endloop
  endfacet
  facet normal 0 0 -1
    outer loop
      vertex 11.896 13.832 2
      vertex 20.179 13.832 2
      vertex 20.179 12.097 2
    endloop
  endfacet
  facet normal 0 0 -1
    outer loop
      vertex 20.179 13.832 2
      vertex 22.25 20.296 2
      vertex 20.179 12.097 2
    endloop
  endfacet
  facet normal 0 0 -1
    outer loop
      vertex 11.896 12.097 2
      vertex 11.896 13.832 2
      vertex 20.179 12.097 2
    endloop
  endfacet
  facet normal 0 0 -1
    outer loop
      vertex 11.896 13.832 2
      vertex 9.825 20.296 2
      vertex 11.896 20.296 2
    endloop
  endfacet
  facet normal 0 0 -1
    outer loop
      vertex 11.896 5 2
      vertex 9.825 5 2
      vertex 11.896 12.097 2
    endloop
  endfacet
  facet normal -0 -0 -1
    outer loop
      vertex 39.9757 6.69199 2
      vertex 39.9757 5 2
      vertex 32.2537 6.69199 2
    endloop
  endfacet
  facet normal 0 -0 -1
    outer loop
      vertex 32.2537 6.69199 2
      vertex 39.9757 5 2
      vertex 30.1827 5 2
    endloop
  endfacet
  facet normal 0 0 -1
    outer loop
      vertex 30.1827 20.296 2
      vertex 32.2537 20.296 2
      vertex 32.2537 6.69199 2
    endloop
  endfacet
  facet normal -0 0 -1
    outer loop
      vertex 32.2537 6.69199 2
      vertex 30.1827 5 2
      vertex 30.1827 20.296 2
    endloop
  endfacet
  facet normal 0 0 1
    outer loop
      vertex 22.25 20.296 4
      vertex 20.179 20.296 4
      vertex 20.179 13.832 4
    endloop
  endfacet
  facet normal 0 0 1
    outer loop
      vertex 11.896 13.832 4
      vertex 9.825 20.296 4
      vertex 11.896 12.097 4
    endloop
  endfacet
  facet normal 0 0 1
    outer loop
      vertex 9.825 5 4
      vertex 11.896 12.097 4
      vertex 9.825 20.296 4
    endloop
  endfacet
  facet normal 0 0 1
    outer loop
      vertex 20.179 5 4
      vertex 22.25 5 4
      vertex 20.179 12.097 4
    endloop
  endfacet
  facet normal 0 -0 1
    outer loop
      vertex 22.25 5 4
      vertex 22.25 20.296 4
      vertex 20.179 12.097 4
    endloop
  endfacet
  facet normal 0 -0 1
    outer loop
      vertex 20.179 12.097 4
      vertex 20.179 13.832 4
      vertex 11.896 13.832 4
    endloop
  endfacet
  facet normal 0 0 1
    outer loop
      vertex 20.179 12.097 4
      vertex 22.25 20.296 4
      vertex 20.179 13.832 4
    endloop
  endfacet
  facet normal 0 0 1
    outer loop
      vertex 20.179 12.097 4
      vertex 11.896 13.832 4
      vertex 11.896 12.097 4
    endloop
  endfacet
  facet normal 0 0 1
    outer loop
      vertex 11.896 20.296 4
      vertex 9.825 20.296 4
      vertex 11.896 13.832 4
    endloop
  endfacet
  facet normal 0 0 1
    outer loop
      vertex 11.896 12.097 4
      vertex 9.825 5 4
      vertex 11.896 5 4
    endloop
  endfacet
  facet normal -0 0 1
    outer loop
      vertex 32.2537 6.69199 4
      vertex 39.9757 5 4
      vertex 39.9757 6.69199 4
    endloop
  endfacet
  facet normal 0 0 1
    outer loop
      vertex 30.1827 5 4
      vertex 39.9757 5 4
      vertex 32.2537 6.69199 4
    endloop
  endfacet
  facet normal 0 -0 1
    outer loop
      vertex 32.2537 6.69199 4
      vertex 32.2537 20.296 4
      vertex 30.1827 20.296 4
    endloop
  endfacet
  facet normal 0 0 1
    outer loop
      vertex 30.1827 20.296 4
      vertex 30.1827 5 4
      vertex 32.2537 6.69199 4
    endloop
  endfacet
  facet normal 0 -1 0
    outer loop
      vertex 20.179 12.097 2
      vertex 11.896 12.097 4
      vertex 11.896 12.097 2
    endloop
  endfacet
  facet normal 0 -1 0
    outer loop
      vertex 20.179 12.097 2
      vertex 20.179 12.097 4
      vertex 11.896 12.097 4
    endloop
  endfacet
  facet normal -1 0 0
    outer loop
      vertex 20.179 5 2
      vertex 20.179 12.097 4
      vertex 20.179 12.097 2
    endloop
  endfacet
  facet normal -1 0 0
    outer loop
      vertex 20.179 5 2
      vertex 20.179 5 4
      vertex 20.179 12.097 4
    endloop
  endfacet
  facet normal 0 -1 0
    outer loop
      vertex 22.25 5 2
      vertex 20.179 5 4
      vertex 20.179 5 2
    endloop
  endfacet
  facet normal 0 -1 0
    outer loop
      vertex 22.25 5 2
      vertex 22.25 5 4
      vertex 20.179 5 4
    endloop
  endfacet
  facet normal 1 0 0
    outer loop
      vertex 22.25 20.296 2
      vertex 22.25 5 4
      vertex 22.25 5 2
    endloop
  endfacet
  facet normal 1 0 -0
    outer loop
      vertex 22.25 20.296 2
      vertex 22.25 20.296 4
      vertex 22.25 5 4
    endloop
  endfacet
  facet normal 0 1 0
    outer loop
      vertex 20.179 20.296 2
      vertex 22.25 20.296 4
      vertex 22.25 20.296 2
    endloop
  endfacet
  facet normal 0 1 0
    outer loop
      vertex 20.179 20.296 2
      vertex 20.179 20.296 4
      vertex 22.25 20.296 4
    endloop
  endfacet
  facet normal -1 0 0
    outer loop
      vertex 20.179 13.832 2
      vertex 20.179 20.296 4
      vertex 20.179 20.296 2
    endloop
  endfacet
  facet normal -1 0 0
    outer loop
      vertex 20.179 13.832 2
      vertex 20.179 13.832 4
      vertex 20.179 20.296 4
    endloop
  endfacet
  facet normal 0 1 0
    outer loop
      vertex 11.896 13.832 2
      vertex 20.179 13.832 4
      vertex 20.179 13.832 2
    endloop
  endfacet
  facet normal 0 1 0
    outer loop
      vertex 11.896 13.832 2
      vertex 11.896 13.832 4
      vertex 20.179 13.832 4
    endloop
  endfacet
  facet normal 1 0 0
    outer loop
      vertex 11.896 20.296 2
      vertex 11.896 13.832 4
      vertex 11.896 13.832 2
    endloop
  endfacet
  facet normal 1 0 -0
    outer loop
      vertex 11.896 20.296 2
      vertex 11.896 20.296 4
      vertex 11.896 13.832 4
    endloop
  endfacet
  facet normal 0 1 0
    outer loop
      vertex 9.825 20.296 2
      vertex 11.896 20.296 4
      vertex 11.896 20.296 2
    endloop
  endfacet
  facet normal 0 1 0
    outer loop
      vertex 9.825 20.296 2
      vertex 9.825 20.296 4
      vertex 11.896 20.296 4
    endloop
  endfacet
  facet normal -1 0 0
    outer loop
      vertex 9.825 5 2
      vertex 9.825 20.296 4
      vertex 9.825 20.296 2
    endloop
  endfacet
  facet normal -1 0 0
    outer loop
      vertex 9.825 5 2
      vertex 9.825 5 4
      vertex 9.825 20.296 4
    endloop
  endfacet
  facet normal 0 -1 0
    outer loop
      vertex 11.896 5 2
      vertex 9.825 5 4
      vertex 9.825 5 2
    endloop
  endfacet
  facet normal 0 -1 0
    outer loop
      vertex 11.896 5 2
      vertex 11.896 5 4
      vertex 9.825 5 4
    endloop
  endfacet
  facet normal 1 0 0
    outer loop
      vertex 11.896 12.097 2
      vertex 11.896 5 4
      vertex 11.896 5 2
    endloop
  endfacet
  facet normal 1 0 -0
    outer loop
      vertex 11.896 12.097 2
      vertex 11.896 12.097 4
      vertex 11.896 5 4
    endloop
  endfacet
  facet normal 0 1 0
    outer loop
      vertex 32.2537 6.69199 2
      vertex 39.9757 6.69199 4
      vertex 39.9757 6.69199 2
    endloop
  endfacet
  facet normal 0 1 0
    outer loop
      vertex 32.2537 6.69199 2
      vertex 32.2537 6.69199 4
      vertex 39.9757 6.69199 4
    endloop
  endfacet
  facet normal 1 0 0
    outer loop
      vertex 32.2537 20.296 2
      vertex 32.2537 6.69199 4
      vertex 32.2537 6.69199 2
    endloop
  endfacet
  facet normal 1 0 -0
    outer loop
      vertex 32.2537 20.296 2
      vertex 32.2537 20.296 4
      vertex 32.2537 6.69199 4
    endloop
  endfacet
  facet normal 0 1 0
    outer loop
      vertex 30.1827 20.296 2
      vertex 32.2537 20.296 4
      vertex 32.2537 20.296 2
    endloop
  endfacet
  facet normal 0 1 0
    outer loop
      vertex 30.1827 20.296 2
      vertex 30.1827 20.296 4
      vertex 32.2537 20.296 4
    endloop
  endfacet
  facet normal -1 0 0
    outer loop
      vertex 30.1827 5 2
      vertex 30.1827 20.296 4
      vertex 30.1827 20.296 2
    endloop
  endfacet
  facet normal -1 0 0
    outer loop
      vertex 30.1827 5 2
      vertex 30.1827 5 4
      vertex 30.1827 20.296 4
    endloop
  endfacet
  facet normal 0 -1 0
    outer loop
      vertex 39.9757 5 2
      vertex 30.1827 5 4
      vertex 30.1827 5 2
    endloop
  endfacet
  facet normal 0 -1 0
    outer loop
      vertex 39.9757 5 2
      vertex 39.9757 5 4
      vertex 30.1827 5 4
    endloop
  endfacet
  facet normal 1 0 0
    outer loop
      vertex 39.9757 6.69199 2
      vertex 39.9757 5 4
      vertex 39.9757 5 2
    endloop
  endfacet
  facet normal 1 0 -0
    outer loop
      vertex 39.9757 6.69199 2
      vertex 39.9757 6.69199 4
      vertex 39.9757 5 4
    endloop
  endfacet
endsolid OpenSCAD_Model
