solid OpenSCAD_Model
  facet normal 0 0 -1
    outer loop
      vertex 20.179 13.832 2
      vertex 20.179 20.296 2
      vertex 22.25 20.296 2
    endloop
  endfacet
  facet normal 0 0 -1
    outer loop
      vertex 11.896 12.097 2
      vertex 9.825 20.296 2
      vertex 11.896 13.832 2
    endloop
  endfacet
  facet normal 0 0 -1
    outer loop
      vertex 9.825 20.296 2
      vertex 11.896 12.097 2
      vertex 9.825 5 2
    endloop
  endfacet
  facet normal 0 0 -1
    outer loop
      vertex 20.179 12.097 2
      vertex 22.25 5 2
      vertex 20.179 5 2
    endloop
  endfacet
  facet normal 0 0 -1
    outer loop
      vertex 20.179 12.097 2
      vertex 22.25 20.296 2
      vertex 22.25 5 2
    endloop
  endfacet
  facet normal -0 0 -1
    outer loop
      vertex 37.5467 4.8869 2
      vertex 36.3007 4.80801 2
      vertex 36.2887 6.489 2
    endloop
  endfacet
  facet normal 0 0 -1
    outer loop
      vertex 11.896 13.832 2
      vertex 20.179 13.832 2
      vertex 20.179 12.097 2
    endloop
  endfacet
  facet normal 0 0 -1
    outer loop
      vertex 20.179 13.832 2
      vertex 22.25 20.296 2
      vertex 20.179 12.097 2
    endloop
  endfacet
  facet normal 0 0 -1
    outer loop
      vertex 11.896 12.097 2
      vertex 11.896 13.832 2
      vertex 20.179 12.097 2
    endloop
  endfacet
  facet normal 0 0 -1
    outer loop
      vertex 11.896 13.832 2
      vertex 9.825 20.296 2
      vertex 11.896 20.296 2
    endloop
  endfacet
  facet normal 0 0 -1
    outer loop
      vertex 11.896 5 2
      vertex 9.825 5 2
      vertex 11.896 12.097 2
    endloop
  endfacet
  facet normal 0 -0 -1
    outer loop
      vertex 40.5203 9.56599 2
      vertex 42.3585 8.52455 2
      vertex 40.138 8.47299 2
    endloop
  endfacet
  facet normal 0 0 -1
    outer loop
      vertex 40.138 8.47299 2
      vertex 42.3585 8.52455 2
      vertex 41.9207 7.57199 2
    endloop
  endfacet
  facet normal 0 0 -1
    outer loop
      vertex 42.3585 8.52455 2
      vertex 40.5203 9.56599 2
      vertex 42.6212 9.59021 2
    endloop
  endfacet
  facet normal -0 0 -1
    outer loop
      vertex 42.6212 9.59021 2
      vertex 40.5203 9.56599 2
      vertex 40.6477 10.889 2
    endloop
  endfacet
  facet normal 0 0 -1
    outer loop
      vertex 41.3236 6.74643 2
      vertex 40.138 8.47299 2
      vertex 41.9207 7.57199 2
    endloop
  endfacet
  facet normal 0 0 -1
    outer loop
      vertex 40.6477 10.889 2
      vertex 42.7087 10.769 2
      vertex 42.6212 9.59021 2
    endloop
  endfacet
  facet normal 0 0 -1
    outer loop
      vertex 38.6345 6.98721 2
      vertex 39.5007 7.60999 2
      vertex 39.6947 5.51799 2
    endloop
  endfacet
  facet normal 0 -0 -1
    outer loop
      vertex 42.7087 20.296 2
      vertex 42.7087 10.769 2
      vertex 40.6477 10.889 2
    endloop
  endfacet
  facet normal 0 0 -1
    outer loop
      vertex 40.6477 20.296 2
      vertex 42.7087 20.296 2
      vertex 40.6477 10.889 2
    endloop
  endfacet
  facet normal 0 0 -1
    outer loop
      vertex 38.6781 5.12355 2
      vertex 38.6345 6.98721 2
      vertex 39.6947 5.51799 2
    endloop
  endfacet
  facet normal 0 0 -1
    outer loop
      vertex 41.3236 6.74643 2
      vertex 39.5007 7.60999 2
      vertex 40.138 8.47299 2
    endloop
  endfacet
  facet normal 0 0 -1
    outer loop
      vertex 39.5007 7.60999 2
      vertex 40.5816 6.06177 2
      vertex 39.6947 5.51799 2
    endloop
  endfacet
  facet normal -0 0 -1
    outer loop
      vertex 41.3236 6.74643 2
      vertex 40.5816 6.06177 2
      vertex 39.5007 7.60999 2
    endloop
  endfacet
  facet normal 0 0 -1
    outer loop
      vertex 38.6781 5.12355 2
      vertex 37.5638 6.61354 2
      vertex 38.6345 6.98721 2
    endloop
  endfacet
  facet normal -0 0 -1
    outer loop
      vertex 38.6781 5.12355 2
      vertex 37.5467 4.8869 2
      vertex 37.5638 6.61354 2
    endloop
  endfacet
  facet normal 0 0 -1
    outer loop
      vertex 37.5638 6.61354 2
      vertex 37.5467 4.8869 2
      vertex 36.2887 6.489 2
    endloop
  endfacet
  facet normal -0 0 -1
    outer loop
      vertex 36.2887 6.489 2
      vertex 35.1011 4.8839 2
      vertex 35.0532 6.60944 2
    endloop
  endfacet
  facet normal 0 0 -1
    outer loop
      vertex 33.0197 5.491 2
      vertex 33.2127 7.573 2
      vertex 34.0278 6.97076 2
    endloop
  endfacet
  facet normal 0 0 -1
    outer loop
      vertex 32.1557 6.01488 2
      vertex 31.4317 6.67589 2
      vertex 33.2127 7.573 2
    endloop
  endfacet
  facet normal -0 0 -1
    outer loop
      vertex 32.6211 8.40755 2
      vertex 30.4194 8.39665 2
      vertex 32.2661 9.46588 2
    endloop
  endfacet
  facet normal 0 0 -1
    outer loop
      vertex 31.4317 6.67589 2
      vertex 30.8477 7.474 2
      vertex 32.6211 8.40755 2
    endloop
  endfacet
  facet normal 0 0 -1
    outer loop
      vertex 30.1624 9.42999 2
      vertex 32.1477 10.748 2
      vertex 32.2661 9.46588 2
    endloop
  endfacet
  facet normal 0 0 -1
    outer loop
      vertex 30.1624 9.42999 2
      vertex 30.0767 10.574 2
      vertex 32.1477 10.748 2
    endloop
  endfacet
  facet normal -0 -0 -1
    outer loop
      vertex 32.1477 20.296 2
      vertex 32.1477 10.748 2
      vertex 30.0767 20.296 2
    endloop
  endfacet
  facet normal -0 0 -1
    outer loop
      vertex 32.1477 10.748 2
      vertex 30.0767 10.574 2
      vertex 30.0767 20.296 2
    endloop
  endfacet
  facet normal 0 0 -1
    outer loop
      vertex 30.4194 8.39665 2
      vertex 30.1624 9.42999 2
      vertex 32.2661 9.46588 2
    endloop
  endfacet
  facet normal 0 0 -1
    outer loop
      vertex 30.8477 7.474 2
      vertex 30.4194 8.39665 2
      vertex 32.6211 8.40755 2
    endloop
  endfacet
  facet normal 0 0 -1
    outer loop
      vertex 31.4317 6.67589 2
      vertex 32.6211 8.40755 2
      vertex 33.2127 7.573 2
    endloop
  endfacet
  facet normal 0 0 -1
    outer loop
      vertex 32.1557 6.01488 2
      vertex 33.2127 7.573 2
      vertex 33.0197 5.491 2
    endloop
  endfacet
  facet normal 0 0 -1
    outer loop
      vertex 33.0197 5.491 2
      vertex 34.0278 6.97076 2
      vertex 34.0074 5.11154 2
    endloop
  endfacet
  facet normal 0 0 -1
    outer loop
      vertex 34.0074 5.11154 2
      vertex 34.0278 6.97076 2
      vertex 35.0532 6.60944 2
    endloop
  endfacet
  facet normal 0 0 -1
    outer loop
      vertex 35.1011 4.8839 2
      vertex 34.0074 5.11154 2
      vertex 35.0532 6.60944 2
    endloop
  endfacet
  facet normal 0 0 -1
    outer loop
      vertex 36.3007 4.80801 2
      vertex 35.1011 4.8839 2
      vertex 36.2887 6.489 2
    endloop
  endfacet
  facet normal 0 0 1
    outer loop
      vertex 22.25 20.296 4
      vertex 20.179 20.296 4
      vertex 20.179 13.832 4
    endloop
  endfacet
  facet normal 0 0 1
    outer loop
      vertex 11.896 13.832 4
      vertex 9.825 20.296 4
      vertex 11.896 12.097 4
    endloop
  endfacet
  facet normal 0 0 1
    outer loop
      vertex 9.825 5 4
      vertex 11.896 12.097 4
      vertex 9.825 20.296 4
    endloop
  endfacet
  facet normal 0 0 1
    outer loop
      vertex 20.179 5 4
      vertex 22.25 5 4
      vertex 20.179 12.097 4
    endloop
  endfacet
  facet normal 0 -0 1
    outer loop
      vertex 22.25 5 4
      vertex 22.25 20.296 4
      vertex 20.179 12.097 4
    endloop
  endfacet
  facet normal 0 0 1
    outer loop
      vertex 36.2887 6.489 4
      vertex 36.3007 4.80801 4
      vertex 37.5467 4.8869 4
    endloop
  endfacet
  facet normal 0 -0 1
    outer loop
      vertex 20.179 12.097 4
      vertex 20.179 13.832 4
      vertex 11.896 13.832 4
    endloop
  endfacet
  facet normal 0 0 1
    outer loop
      vertex 20.179 12.097 4
      vertex 22.25 20.296 4
      vertex 20.179 13.832 4
    endloop
  endfacet
  facet normal 0 0 1
    outer loop
      vertex 20.179 12.097 4
      vertex 11.896 13.832 4
      vertex 11.896 12.097 4
    endloop
  endfacet
  facet normal 0 0 1
    outer loop
      vertex 11.896 20.296 4
      vertex 9.825 20.296 4
      vertex 11.896 13.832 4
    endloop
  endfacet
  facet normal 0 0 1
    outer loop
      vertex 11.896 12.097 4
      vertex 9.825 5 4
      vertex 11.896 5 4
    endloop
  endfacet
  facet normal 0 0 1
    outer loop
      vertex 40.138 8.47299 4
      vertex 42.3585 8.52455 4
      vertex 40.5203 9.56599 4
    endloop
  endfacet
  facet normal 0 -0 1
    outer loop
      vertex 41.9207 7.57199 4
      vertex 42.3585 8.52455 4
      vertex 40.138 8.47299 4
    endloop
  endfacet
  facet normal 0 0 1
    outer loop
      vertex 42.6212 9.59021 4
      vertex 40.5203 9.56599 4
      vertex 42.3585 8.52455 4
    endloop
  endfacet
  facet normal 0 0 1
    outer loop
      vertex 40.6477 10.889 4
      vertex 40.5203 9.56599 4
      vertex 42.6212 9.59021 4
    endloop
  endfacet
  facet normal 0 0 1
    outer loop
      vertex 41.9207 7.57199 4
      vertex 40.138 8.47299 4
      vertex 41.3236 6.74643 4
    endloop
  endfacet
  facet normal 0 -0 1
    outer loop
      vertex 42.6212 9.59021 4
      vertex 42.7087 10.769 4
      vertex 40.6477 10.889 4
    endloop
  endfacet
  facet normal 0 0 1
    outer loop
      vertex 39.6947 5.51799 4
      vertex 39.5007 7.60999 4
      vertex 38.6345 6.98721 4
    endloop
  endfacet
  facet normal -0 0 1
    outer loop
      vertex 40.6477 10.889 4
      vertex 42.7087 10.769 4
      vertex 42.7087 20.296 4
    endloop
  endfacet
  facet normal 0 0 1
    outer loop
      vertex 40.6477 10.889 4
      vertex 42.7087 20.296 4
      vertex 40.6477 20.296 4
    endloop
  endfacet
  facet normal 0 0 1
    outer loop
      vertex 39.6947 5.51799 4
      vertex 38.6345 6.98721 4
      vertex 38.6781 5.12355 4
    endloop
  endfacet
  facet normal 0 0 1
    outer loop
      vertex 40.138 8.47299 4
      vertex 39.5007 7.60999 4
      vertex 41.3236 6.74643 4
    endloop
  endfacet
  facet normal 0 -0 1
    outer loop
      vertex 39.6947 5.51799 4
      vertex 40.5816 6.06177 4
      vertex 39.5007 7.60999 4
    endloop
  endfacet
  facet normal 0 0 1
    outer loop
      vertex 39.5007 7.60999 4
      vertex 40.5816 6.06177 4
      vertex 41.3236 6.74643 4
    endloop
  endfacet
  facet normal 0 0 1
    outer loop
      vertex 38.6345 6.98721 4
      vertex 37.5638 6.61354 4
      vertex 38.6781 5.12355 4
    endloop
  endfacet
  facet normal 0 0 1
    outer loop
      vertex 37.5638 6.61354 4
      vertex 37.5467 4.8869 4
      vertex 38.6781 5.12355 4
    endloop
  endfacet
  facet normal -0 0 1
    outer loop
      vertex 36.2887 6.489 4
      vertex 37.5467 4.8869 4
      vertex 37.5638 6.61354 4
    endloop
  endfacet
  facet normal 0 0 1
    outer loop
      vertex 35.0532 6.60944 4
      vertex 35.1011 4.8839 4
      vertex 36.2887 6.489 4
    endloop
  endfacet
  facet normal 0 0 1
    outer loop
      vertex 34.0278 6.97076 4
      vertex 33.2127 7.573 4
      vertex 33.0197 5.491 4
    endloop
  endfacet
  facet normal 0 0 1
    outer loop
      vertex 33.2127 7.573 4
      vertex 31.4317 6.67589 4
      vertex 32.1557 6.01488 4
    endloop
  endfacet
  facet normal 0 0 1
    outer loop
      vertex 32.2661 9.46588 4
      vertex 30.4194 8.39665 4
      vertex 32.6211 8.40755 4
    endloop
  endfacet
  facet normal 0 0 1
    outer loop
      vertex 32.6211 8.40755 4
      vertex 30.8477 7.474 4
      vertex 31.4317 6.67589 4
    endloop
  endfacet
  facet normal 0 0 1
    outer loop
      vertex 32.2661 9.46588 4
      vertex 32.1477 10.748 4
      vertex 30.1624 9.42999 4
    endloop
  endfacet
  facet normal 0 0 1
    outer loop
      vertex 32.1477 10.748 4
      vertex 30.0767 10.574 4
      vertex 30.1624 9.42999 4
    endloop
  endfacet
  facet normal -0 0 1
    outer loop
      vertex 30.0767 20.296 4
      vertex 32.1477 10.748 4
      vertex 32.1477 20.296 4
    endloop
  endfacet
  facet normal 0 0 1
    outer loop
      vertex 30.0767 20.296 4
      vertex 30.0767 10.574 4
      vertex 32.1477 10.748 4
    endloop
  endfacet
  facet normal 0 0 1
    outer loop
      vertex 32.2661 9.46588 4
      vertex 30.1624 9.42999 4
      vertex 30.4194 8.39665 4
    endloop
  endfacet
  facet normal 0 0 1
    outer loop
      vertex 32.6211 8.40755 4
      vertex 30.4194 8.39665 4
      vertex 30.8477 7.474 4
    endloop
  endfacet
  facet normal 0 0 1
    outer loop
      vertex 33.2127 7.573 4
      vertex 32.6211 8.40755 4
      vertex 31.4317 6.67589 4
    endloop
  endfacet
  facet normal 0 -0 1
    outer loop
      vertex 33.0197 5.491 4
      vertex 33.2127 7.573 4
      vertex 32.1557 6.01488 4
    endloop
  endfacet
  facet normal 0 -0 1
    outer loop
      vertex 34.0074 5.11154 4
      vertex 34.0278 6.97076 4
      vertex 33.0197 5.491 4
    endloop
  endfacet
  facet normal 0 0 1
    outer loop
      vertex 35.0532 6.60944 4
      vertex 34.0278 6.97076 4
      vertex 34.0074 5.11154 4
    endloop
  endfacet
  facet normal 0 0 1
    outer loop
      vertex 35.0532 6.60944 4
      vertex 34.0074 5.11154 4
      vertex 35.1011 4.8839 4
    endloop
  endfacet
  facet normal 0 0 1
    outer loop
      vertex 36.2887 6.489 4
      vertex 35.1011 4.8839 4
      vertex 36.3007 4.80801 4
    endloop
  endfacet
  facet normal 0 -1 0
    outer loop
      vertex 20.179 12.097 2
      vertex 11.896 12.097 4
      vertex 11.896 12.097 2
    endloop
  endfacet
  facet normal 0 -1 0
    outer loop
      vertex 20.179 12.097 2
      vertex 20.179 12.097 4
      vertex 11.896 12.097 4
    endloop
  endfacet
  facet normal -1 0 0
    outer loop
      vertex 20.179 5 2
      vertex 20.179 12.097 4
      vertex 20.179 12.097 2
    endloop
  endfacet
  facet normal -1 0 0
    outer loop
      vertex 20.179 5 2
      vertex 20.179 5 4
      vertex 20.179 12.097 4
    endloop
  endfacet
  facet normal 0 -1 0
    outer loop
      vertex 22.25 5 2
      vertex 20.179 5 4
      vertex 20.179 5 2
    endloop
  endfacet
  facet normal 0 -1 0
    outer loop
      vertex 22.25 5 2
      vertex 22.25 5 4
      vertex 20.179 5 4
    endloop
  endfacet
  facet normal 1 0 0
    outer loop
      vertex 22.25 20.296 2
      vertex 22.25 5 4
      vertex 22.25 5 2
    endloop
  endfacet
  facet normal 1 0 -0
    outer loop
      vertex 22.25 20.296 2
      vertex 22.25 20.296 4
      vertex 22.25 5 4
    endloop
  endfacet
  facet normal 0 1 0
    outer loop
      vertex 20.179 20.296 2
      vertex 22.25 20.296 4
      vertex 22.25 20.296 2
    endloop
  endfacet
  facet normal 0 1 0
    outer loop
      vertex 20.179 20.296 2
      vertex 20.179 20.296 4
      vertex 22.25 20.296 4
    endloop
  endfacet
  facet normal -1 0 0
    outer loop
      vertex 20.179 13.832 2
      vertex 20.179 20.296 4
      vertex 20.179 20.296 2
    endloop
  endfacet
  facet normal -1 0 0
    outer loop
      vertex 20.179 13.832 2
      vertex 20.179 13.832 4
      vertex 20.179 20.296 4
    endloop
  endfacet
  facet normal 0 1 0
    outer loop
      vertex 11.896 13.832 2
      vertex 20.179 13.832 4
      vertex 20.179 13.832 2
    endloop
  endfacet
  facet normal 0 1 0
    outer loop
      vertex 11.896 13.832 2
      vertex 11.896 13.832 4
      vertex 20.179 13.832 4
    endloop
  endfacet
  facet normal 1 0 0
    outer loop
      vertex 11.896 20.296 2
      vertex 11.896 13.832 4
      vertex 11.896 13.832 2
    endloop
  endfacet
  facet normal 1 0 -0
    outer loop
      vertex 11.896 20.296 2
      vertex 11.896 20.296 4
      vertex 11.896 13.832 4
    endloop
  endfacet
  facet normal 0 1 0
    outer loop
      vertex 9.825 20.296 2
      vertex 11.896 20.296 4
      vertex 11.896 20.296 2
    endloop
  endfacet
  facet normal 0 1 0
    outer loop
      vertex 9.825 20.296 2
      vertex 9.825 20.296 4
      vertex 11.896 20.296 4
    endloop
  endfacet
  facet normal -1 0 0
    outer loop
      vertex 9.825 5 2
      vertex 9.825 20.296 4
      vertex 9.825 20.296 2
    endloop
  endfacet
  facet normal -1 0 0
    outer loop
      vertex 9.825 5 2
      vertex 9.825 5 4
      vertex 9.825 20.296 4
    endloop
  endfacet
  facet normal 0 -1 0
    outer loop
      vertex 11.896 5 2
      vertex 9.825 5 4
      vertex 9.825 5 2
    endloop
  endfacet
  facet normal 0 -1 0
    outer loop
      vertex 11.896 5 2
      vertex 11.896 5 4
      vertex 9.825 5 4
    endloop
  endfacet
  facet normal 1 0 0
    outer loop
      vertex 11.896 12.097 2
      vertex 11.896 5 4
      vertex 11.896 5 2
    endloop
  endfacet
  facet normal 1 0 -0
    outer loop
      vertex 11.896 12.097 2
      vertex 11.896 12.097 4
      vertex 11.896 5 4
    endloop
  endfacet
  facet normal 0.204745 -0.978815 0
    outer loop
      vertex 38.6781 5.12355 2
      vertex 37.5467 4.8869 4
      vertex 37.5467 4.8869 2
    endloop
  endfacet
  facet normal 0.204745 -0.978815 0
    outer loop
      vertex 38.6781 5.12355 2
      vertex 38.6781 5.12355 4
      vertex 37.5467 4.8869 4
    endloop
  endfacet
  facet normal 0.361706 -0.932292 0
    outer loop
      vertex 39.6947 5.51799 2
      vertex 38.6781 5.12355 4
      vertex 38.6781 5.12355 2
    endloop
  endfacet
  facet normal 0.361706 -0.932292 0
    outer loop
      vertex 39.6947 5.51799 2
      vertex 39.6947 5.51799 4
      vertex 38.6781 5.12355 4
    endloop
  endfacet
  facet normal 0.522703 -0.852515 0
    outer loop
      vertex 40.5816 6.06177 2
      vertex 39.6947 5.51799 4
      vertex 39.6947 5.51799 2
    endloop
  endfacet
  facet normal 0.522703 -0.852515 0
    outer loop
      vertex 40.5816 6.06177 2
      vertex 40.5816 6.06177 4
      vertex 39.6947 5.51799 4
    endloop
  endfacet
  facet normal 0.678138 -0.734934 0
    outer loop
      vertex 41.3236 6.74643 2
      vertex 40.5816 6.06177 4
      vertex 40.5816 6.06177 2
    endloop
  endfacet
  facet normal 0.678138 -0.734934 0
    outer loop
      vertex 41.3236 6.74643 2
      vertex 41.3236 6.74643 4
      vertex 40.5816 6.06177 4
    endloop
  endfacet
  facet normal 0.810275 -0.58605 0
    outer loop
      vertex 41.9207 7.57199 2
      vertex 41.3236 6.74643 4
      vertex 41.3236 6.74643 2
    endloop
  endfacet
  facet normal 0.810275 -0.58605 0
    outer loop
      vertex 41.9207 7.57199 2
      vertex 41.9207 7.57199 4
      vertex 41.3236 6.74643 4
    endloop
  endfacet
  facet normal 0.908636 -0.417588 0
    outer loop
      vertex 42.3585 8.52455 2
      vertex 41.9207 7.57199 4
      vertex 41.9207 7.57199 2
    endloop
  endfacet
  facet normal 0.908636 -0.417588 0
    outer loop
      vertex 42.3585 8.52455 2
      vertex 42.3585 8.52455 4
      vertex 41.9207 7.57199 4
    endloop
  endfacet
  facet normal 0.970938 -0.239332 0
    outer loop
      vertex 42.6212 9.59021 2
      vertex 42.3585 8.52455 4
      vertex 42.3585 8.52455 2
    endloop
  endfacet
  facet normal 0.970938 -0.239332 0
    outer loop
      vertex 42.6212 9.59021 2
      vertex 42.6212 9.59021 4
      vertex 42.3585 8.52455 4
    endloop
  endfacet
  facet normal 0.997253 -0.0740714 0
    outer loop
      vertex 42.7087 10.769 2
      vertex 42.6212 9.59021 4
      vertex 42.6212 9.59021 2
    endloop
  endfacet
  facet normal 0.997253 -0.0740714 0
    outer loop
      vertex 42.7087 10.769 2
      vertex 42.7087 10.769 4
      vertex 42.6212 9.59021 4
    endloop
  endfacet
  facet normal 1 0 0
    outer loop
      vertex 42.7087 20.296 2
      vertex 42.7087 10.769 4
      vertex 42.7087 10.769 2
    endloop
  endfacet
  facet normal 1 0 -0
    outer loop
      vertex 42.7087 20.296 2
      vertex 42.7087 20.296 4
      vertex 42.7087 10.769 4
    endloop
  endfacet
  facet normal 0 1 0
    outer loop
      vertex 40.6477 20.296 2
      vertex 42.7087 20.296 4
      vertex 42.7087 20.296 2
    endloop
  endfacet
  facet normal 0 1 0
    outer loop
      vertex 40.6477 20.296 2
      vertex 40.6477 20.296 4
      vertex 42.7087 20.296 4
    endloop
  endfacet
  facet normal -1 0 0
    outer loop
      vertex 40.6477 10.889 2
      vertex 40.6477 20.296 4
      vertex 40.6477 20.296 2
    endloop
  endfacet
  facet normal -1 0 0
    outer loop
      vertex 40.6477 10.889 2
      vertex 40.6477 10.889 4
      vertex 40.6477 20.296 4
    endloop
  endfacet
  facet normal -0.995393 0.0958839 0
    outer loop
      vertex 40.5203 9.56599 2
      vertex 40.6477 10.889 4
      vertex 40.6477 10.889 2
    endloop
  endfacet
  facet normal -0.995393 0.0958839 0
    outer loop
      vertex 40.5203 9.56599 2
      vertex 40.5203 9.56599 4
      vertex 40.6477 10.889 4
    endloop
  endfacet
  facet normal -0.943915 0.330188 0
    outer loop
      vertex 40.138 8.47299 2
      vertex 40.5203 9.56599 4
      vertex 40.5203 9.56599 2
    endloop
  endfacet
  facet normal -0.943915 0.330188 0
    outer loop
      vertex 40.138 8.47299 2
      vertex 40.138 8.47299 4
      vertex 40.5203 9.56599 4
    endloop
  endfacet
  facet normal -0.804467 0.593998 0
    outer loop
      vertex 39.5007 7.60999 2
      vertex 40.138 8.47299 4
      vertex 40.138 8.47299 2
    endloop
  endfacet
  facet normal -0.804467 0.593998 0
    outer loop
      vertex 39.5007 7.60999 2
      vertex 39.5007 7.60999 4
      vertex 40.138 8.47299 4
    endloop
  endfacet
  facet normal -0.583742 0.811939 0
    outer loop
      vertex 38.6345 6.98721 2
      vertex 39.5007 7.60999 4
      vertex 39.5007 7.60999 2
    endloop
  endfacet
  facet normal -0.583742 0.811939 0
    outer loop
      vertex 38.6345 6.98721 2
      vertex 38.6345 6.98721 4
      vertex 39.5007 7.60999 4
    endloop
  endfacet
  facet normal -0.329518 0.944149 0
    outer loop
      vertex 37.5638 6.61354 2
      vertex 38.6345 6.98721 4
      vertex 38.6345 6.98721 2
    endloop
  endfacet
  facet normal -0.329518 0.944149 0
    outer loop
      vertex 37.5638 6.61354 2
      vertex 37.5638 6.61354 4
      vertex 38.6345 6.98721 4
    endloop
  endfacet
  facet normal -0.0972099 0.995264 0
    outer loop
      vertex 36.2887 6.489 2
      vertex 37.5638 6.61354 4
      vertex 37.5638 6.61354 2
    endloop
  endfacet
  facet normal -0.0972099 0.995264 0
    outer loop
      vertex 36.2887 6.489 2
      vertex 36.2887 6.489 4
      vertex 37.5638 6.61354 4
    endloop
  endfacet
  facet normal 0.0970159 0.995283 0
    outer loop
      vertex 35.0532 6.60944 2
      vertex 36.2887 6.489 4
      vertex 36.2887 6.489 2
    endloop
  endfacet
  facet normal 0.0970159 0.995283 -0
    outer loop
      vertex 35.0532 6.60944 2
      vertex 35.0532 6.60944 4
      vertex 36.2887 6.489 4
    endloop
  endfacet
  facet normal 0.332368 0.94315 0
    outer loop
      vertex 34.0278 6.97076 2
      vertex 35.0532 6.60944 4
      vertex 35.0532 6.60944 2
    endloop
  endfacet
  facet normal 0.332368 0.94315 -0
    outer loop
      vertex 34.0278 6.97076 2
      vertex 34.0278 6.97076 4
      vertex 35.0532 6.60944 4
    endloop
  endfacet
  facet normal 0.594239 0.804288 0
    outer loop
      vertex 33.2127 7.573 2
      vertex 34.0278 6.97076 4
      vertex 34.0278 6.97076 2
    endloop
  endfacet
  facet normal 0.594239 0.804288 -0
    outer loop
      vertex 33.2127 7.573 2
      vertex 33.2127 7.573 4
      vertex 34.0278 6.97076 4
    endloop
  endfacet
  facet normal 0.815777 0.578366 0
    outer loop
      vertex 32.6211 8.40755 2
      vertex 33.2127 7.573 4
      vertex 33.2127 7.573 2
    endloop
  endfacet
  facet normal 0.815777 0.578366 -0
    outer loop
      vertex 32.6211 8.40755 2
      vertex 32.6211 8.40755 4
      vertex 33.2127 7.573 4
    endloop
  endfacet
  facet normal 0.948086 0.318015 0
    outer loop
      vertex 32.2661 9.46588 2
      vertex 32.6211 8.40755 4
      vertex 32.6211 8.40755 2
    endloop
  endfacet
  facet normal 0.948086 0.318015 -0
    outer loop
      vertex 32.2661 9.46588 2
      vertex 32.2661 9.46588 4
      vertex 32.6211 8.40755 4
    endloop
  endfacet
  facet normal 0.995768 0.0919045 0
    outer loop
      vertex 32.1477 10.748 2
      vertex 32.2661 9.46588 4
      vertex 32.2661 9.46588 2
    endloop
  endfacet
  facet normal 0.995768 0.0919045 -0
    outer loop
      vertex 32.1477 10.748 2
      vertex 32.1477 10.748 4
      vertex 32.2661 9.46588 4
    endloop
  endfacet
  facet normal 1 0 0
    outer loop
      vertex 32.1477 20.296 2
      vertex 32.1477 10.748 4
      vertex 32.1477 10.748 2
    endloop
  endfacet
  facet normal 1 0 -0
    outer loop
      vertex 32.1477 20.296 2
      vertex 32.1477 20.296 4
      vertex 32.1477 10.748 4
    endloop
  endfacet
  facet normal 0 1 0
    outer loop
      vertex 30.0767 20.296 2
      vertex 32.1477 20.296 4
      vertex 32.1477 20.296 2
    endloop
  endfacet
  facet normal 0 1 0
    outer loop
      vertex 30.0767 20.296 2
      vertex 30.0767 20.296 4
      vertex 32.1477 20.296 4
    endloop
  endfacet
  facet normal -1 0 0
    outer loop
      vertex 30.0767 10.574 2
      vertex 30.0767 20.296 4
      vertex 30.0767 20.296 2
    endloop
  endfacet
  facet normal -1 0 0
    outer loop
      vertex 30.0767 10.574 2
      vertex 30.0767 10.574 4
      vertex 30.0767 20.296 4
    endloop
  endfacet
  facet normal -0.997208 -0.0746712 0
    outer loop
      vertex 30.1624 9.42999 2
      vertex 30.0767 10.574 4
      vertex 30.0767 10.574 2
    endloop
  endfacet
  facet normal -0.997208 -0.0746712 0
    outer loop
      vertex 30.1624 9.42999 2
      vertex 30.1624 9.42999 4
      vertex 30.0767 10.574 4
    endloop
  endfacet
  facet normal -0.970436 -0.241359 0
    outer loop
      vertex 30.4194 8.39665 2
      vertex 30.1624 9.42999 4
      vertex 30.1624 9.42999 2
    endloop
  endfacet
  facet normal -0.970436 -0.241359 0
    outer loop
      vertex 30.4194 8.39665 2
      vertex 30.4194 8.39665 4
      vertex 30.1624 9.42999 4
    endloop
  endfacet
  facet normal -0.907026 -0.421075 0
    outer loop
      vertex 30.8477 7.474 2
      vertex 30.4194 8.39665 4
      vertex 30.4194 8.39665 2
    endloop
  endfacet
  facet normal -0.907026 -0.421075 0
    outer loop
      vertex 30.8477 7.474 2
      vertex 30.8477 7.474 4
      vertex 30.4194 8.39665 4
    endloop
  endfacet
  facet normal -0.807023 -0.590521 0
    outer loop
      vertex 31.4317 6.67589 2
      vertex 30.8477 7.474 4
      vertex 30.8477 7.474 2
    endloop
  endfacet
  facet normal -0.807023 -0.590521 0
    outer loop
      vertex 31.4317 6.67589 2
      vertex 31.4317 6.67589 4
      vertex 30.8477 7.474 4
    endloop
  endfacet
  facet normal -0.674252 -0.738502 0
    outer loop
      vertex 32.1557 6.01488 2
      vertex 31.4317 6.67589 4
      vertex 31.4317 6.67589 2
    endloop
  endfacet
  facet normal -0.674252 -0.738502 0
    outer loop
      vertex 32.1557 6.01488 2
      vertex 32.1557 6.01488 4
      vertex 31.4317 6.67589 4
    endloop
  endfacet
  facet normal -0.518479 -0.855091 0
    outer loop
      vertex 33.0197 5.491 2
      vertex 32.1557 6.01488 4
      vertex 32.1557 6.01488 2
    endloop
  endfacet
  facet normal -0.518479 -0.855091 0
    outer loop
      vertex 33.0197 5.491 2
      vertex 33.0197 5.491 4
      vertex 32.1557 6.01488 4
    endloop
  endfacet
  facet normal -0.358635 -0.933478 0
    outer loop
      vertex 34.0074 5.11154 2
      vertex 33.0197 5.491 4
      vertex 33.0197 5.491 2
    endloop
  endfacet
  facet normal -0.358635 -0.933478 0
    outer loop
      vertex 34.0074 5.11154 2
      vertex 34.0074 5.11154 4
      vertex 33.0197 5.491 4
    endloop
  endfacet
  facet normal -0.20378 -0.979017 0
    outer loop
      vertex 35.1011 4.8839 2
      vertex 34.0074 5.11154 4
      vertex 34.0074 5.11154 2
    endloop
  endfacet
  facet normal -0.20378 -0.979017 0
    outer loop
      vertex 35.1011 4.8839 2
      vertex 35.1011 4.8839 4
      vertex 34.0074 5.11154 4
    endloop
  endfacet
  facet normal -0.0631267 -0.998006 0
    outer loop
      vertex 36.3007 4.80801 2
      vertex 35.1011 4.8839 4
      vertex 35.1011 4.8839 2
    endloop
  endfacet
  facet normal -0.0631267 -0.998006 0
    outer loop
      vertex 36.3007 4.80801 2
      vertex 36.3007 4.80801 4
      vertex 35.1011 4.8839 4
    endloop
  endfacet
  facet normal 0.0631863 -0.998002 0
    outer loop
      vertex 37.5467 4.8869 2
      vertex 36.3007 4.80801 4
      vertex 36.3007 4.80801 2
    endloop
  endfacet
  facet normal 0.0631863 -0.998002 0
    outer loop
      vertex 37.5467 4.8869 2
      vertex 37.5467 4.8869 4
      vertex 36.3007 4.80801 4
    endloop
  endfacet
endsolid OpenSCAD_Model
