solid OpenSCAD_Model
  facet normal 0 0 -1
    outer loop
      vertex 20.179 13.832 2
      vertex 20.179 20.296 2
      vertex 22.25 20.296 2
    endloop
  endfacet
  facet normal 0 0 -1
    outer loop
      vertex 11.896 12.097 2
      vertex 9.825 20.296 2
      vertex 11.896 13.832 2
    endloop
  endfacet
  facet normal 0 0 -1
    outer loop
      vertex 9.825 20.296 2
      vertex 11.896 12.097 2
      vertex 9.825 5 2
    endloop
  endfacet
  facet normal 0 0 -1
    outer loop
      vertex 20.179 12.097 2
      vertex 22.25 5 2
      vertex 20.179 5 2
    endloop
  endfacet
  facet normal 0 0 -1
    outer loop
      vertex 20.179 12.097 2
      vertex 22.25 20.296 2
      vertex 22.25 5 2
    endloop
  endfacet
  facet normal 0 0 -1
    outer loop
      vertex 11.896 13.832 2
      vertex 20.179 13.832 2
      vertex 20.179 12.097 2
    endloop
  endfacet
  facet normal 0 0 -1
    outer loop
      vertex 20.179 13.832 2
      vertex 22.25 20.296 2
      vertex 20.179 12.097 2
    endloop
  endfacet
  facet normal 0 0 -1
    outer loop
      vertex 11.896 12.097 2
      vertex 11.896 13.832 2
      vertex 20.179 12.097 2
    endloop
  endfacet
  facet normal 0 0 -1
    outer loop
      vertex 11.896 13.832 2
      vertex 9.825 20.296 2
      vertex 11.896 20.296 2
    endloop
  endfacet
  facet normal 0 0 -1
    outer loop
      vertex 11.896 5 2
      vertex 9.825 5 2
      vertex 11.896 12.097 2
    endloop
  endfacet
  facet normal 0 -0 -1
    outer loop
      vertex 36.6717 9.52499 2
      vertex 36.8267 5 2
      vertex 35.7637 6.82199 2
    endloop
  endfacet
  facet normal 0 -0 -1
    outer loop
      vertex 40.8677 20.296 2
      vertex 43.0477 20.296 2
      vertex 36.6717 9.52499 2
    endloop
  endfacet
  facet normal 0 0 -1
    outer loop
      vertex 36.6717 9.52499 2
      vertex 43.0477 20.296 2
      vertex 36.8267 5 2
    endloop
  endfacet
  facet normal 0 -0 -1
    outer loop
      vertex 35.7637 6.82199 2
      vertex 36.8267 5 2
      vertex 34.6797 5 2
    endloop
  endfacet
  facet normal -0 -0 -1
    outer loop
      vertex 30.6367 20.296 2
      vertex 34.8547 9.52499 2
      vertex 28.4577 20.296 2
    endloop
  endfacet
  facet normal -0 0 -1
    outer loop
      vertex 35.7637 6.82199 2
      vertex 34.6797 5 2
      vertex 34.8547 9.52499 2
    endloop
  endfacet
  facet normal -0 0 -1
    outer loop
      vertex 34.8547 9.52499 2
      vertex 34.6797 5 2
      vertex 28.4577 20.296 2
    endloop
  endfacet
  facet normal 0 0 1
    outer loop
      vertex 22.25 20.296 4
      vertex 20.179 20.296 4
      vertex 20.179 13.832 4
    endloop
  endfacet
  facet normal 0 0 1
    outer loop
      vertex 11.896 13.832 4
      vertex 9.825 20.296 4
      vertex 11.896 12.097 4
    endloop
  endfacet
  facet normal 0 0 1
    outer loop
      vertex 9.825 5 4
      vertex 11.896 12.097 4
      vertex 9.825 20.296 4
    endloop
  endfacet
  facet normal 0 0 1
    outer loop
      vertex 20.179 5 4
      vertex 22.25 5 4
      vertex 20.179 12.097 4
    endloop
  endfacet
  facet normal 0 -0 1
    outer loop
      vertex 22.25 5 4
      vertex 22.25 20.296 4
      vertex 20.179 12.097 4
    endloop
  endfacet
  facet normal 0 -0 1
    outer loop
      vertex 20.179 12.097 4
      vertex 20.179 13.832 4
      vertex 11.896 13.832 4
    endloop
  endfacet
  facet normal 0 0 1
    outer loop
      vertex 20.179 12.097 4
      vertex 22.25 20.296 4
      vertex 20.179 13.832 4
    endloop
  endfacet
  facet normal 0 0 1
    outer loop
      vertex 20.179 12.097 4
      vertex 11.896 13.832 4
      vertex 11.896 12.097 4
    endloop
  endfacet
  facet normal 0 0 1
    outer loop
      vertex 11.896 20.296 4
      vertex 9.825 20.296 4
      vertex 11.896 13.832 4
    endloop
  endfacet
  facet normal 0 0 1
    outer loop
      vertex 11.896 12.097 4
      vertex 9.825 5 4
      vertex 11.896 5 4
    endloop
  endfacet
  facet normal -0 0 1
    outer loop
      vertex 35.7637 6.82199 4
      vertex 36.8267 5 4
      vertex 36.6717 9.52499 4
    endloop
  endfacet
  facet normal 0 0 1
    outer loop
      vertex 36.6717 9.52499 4
      vertex 43.0477 20.296 4
      vertex 40.8677 20.296 4
    endloop
  endfacet
  facet normal 0 -0 1
    outer loop
      vertex 36.8267 5 4
      vertex 43.0477 20.296 4
      vertex 36.6717 9.52499 4
    endloop
  endfacet
  facet normal 0 0 1
    outer loop
      vertex 34.6797 5 4
      vertex 36.8267 5 4
      vertex 35.7637 6.82199 4
    endloop
  endfacet
  facet normal -0 0 1
    outer loop
      vertex 28.4577 20.296 4
      vertex 34.8547 9.52499 4
      vertex 30.6367 20.296 4
    endloop
  endfacet
  facet normal 0 0 1
    outer loop
      vertex 34.8547 9.52499 4
      vertex 34.6797 5 4
      vertex 35.7637 6.82199 4
    endloop
  endfacet
  facet normal 0 0 1
    outer loop
      vertex 28.4577 20.296 4
      vertex 34.6797 5 4
      vertex 34.8547 9.52499 4
    endloop
  endfacet
  facet normal 0 -1 0
    outer loop
      vertex 20.179 12.097 2
      vertex 11.896 12.097 4
      vertex 11.896 12.097 2
    endloop
  endfacet
  facet normal 0 -1 0
    outer loop
      vertex 20.179 12.097 2
      vertex 20.179 12.097 4
      vertex 11.896 12.097 4
    endloop
  endfacet
  facet normal -1 0 0
    outer loop
      vertex 20.179 5 2
      vertex 20.179 12.097 4
      vertex 20.179 12.097 2
    endloop
  endfacet
  facet normal -1 0 0
    outer loop
      vertex 20.179 5 2
      vertex 20.179 5 4
      vertex 20.179 12.097 4
    endloop
  endfacet
  facet normal 0 -1 0
    outer loop
      vertex 22.25 5 2
      vertex 20.179 5 4
      vertex 20.179 5 2
    endloop
  endfacet
  facet normal 0 -1 0
    outer loop
      vertex 22.25 5 2
      vertex 22.25 5 4
      vertex 20.179 5 4
    endloop
  endfacet
  facet normal 1 0 0
    outer loop
      vertex 22.25 20.296 2
      vertex 22.25 5 4
      vertex 22.25 5 2
    endloop
  endfacet
  facet normal 1 0 -0
    outer loop
      vertex 22.25 20.296 2
      vertex 22.25 20.296 4
      vertex 22.25 5 4
    endloop
  endfacet
  facet normal 0 1 0
    outer loop
      vertex 20.179 20.296 2
      vertex 22.25 20.296 4
      vertex 22.25 20.296 2
    endloop
  endfacet
  facet normal 0 1 0
    outer loop
      vertex 20.179 20.296 2
      vertex 20.179 20.296 4
      vertex 22.25 20.296 4
    endloop
  endfacet
  facet normal -1 0 0
    outer loop
      vertex 20.179 13.832 2
      vertex 20.179 20.296 4
      vertex 20.179 20.296 2
    endloop
  endfacet
  facet normal -1 0 0
    outer loop
      vertex 20.179 13.832 2
      vertex 20.179 13.832 4
      vertex 20.179 20.296 4
    endloop
  endfacet
  facet normal 0 1 0
    outer loop
      vertex 11.896 13.832 2
      vertex 20.179 13.832 4
      vertex 20.179 13.832 2
    endloop
  endfacet
  facet normal 0 1 0
    outer loop
      vertex 11.896 13.832 2
      vertex 11.896 13.832 4
      vertex 20.179 13.832 4
    endloop
  endfacet
  facet normal 1 0 0
    outer loop
      vertex 11.896 20.296 2
      vertex 11.896 13.832 4
      vertex 11.896 13.832 2
    endloop
  endfacet
  facet normal 1 0 -0
    outer loop
      vertex 11.896 20.296 2
      vertex 11.896 20.296 4
      vertex 11.896 13.832 4
    endloop
  endfacet
  facet normal 0 1 0
    outer loop
      vertex 9.825 20.296 2
      vertex 11.896 20.296 4
      vertex 11.896 20.296 2
    endloop
  endfacet
  facet normal 0 1 0
    outer loop
      vertex 9.825 20.296 2
      vertex 9.825 20.296 4
      vertex 11.896 20.296 4
    endloop
  endfacet
  facet normal -1 0 0
    outer loop
      vertex 9.825 5 2
      vertex 9.825 20.296 4
      vertex 9.825 20.296 2
    endloop
  endfacet
  facet normal -1 0 0
    outer loop
      vertex 9.825 5 2
      vertex 9.825 5 4
      vertex 9.825 20.296 4
    endloop
  endfacet
  facet normal 0 -1 0
    outer loop
      vertex 11.896 5 2
      vertex 9.825 5 4
      vertex 9.825 5 2
    endloop
  endfacet
  facet normal 0 -1 0
    outer loop
      vertex 11.896 5 2
      vertex 11.896 5 4
      vertex 9.825 5 4
    endloop
  endfacet
  facet normal 1 0 0
    outer loop
      vertex 11.896 12.097 2
      vertex 11.896 5 4
      vertex 11.896 5 2
    endloop
  endfacet
  facet normal 1 0 -0
    outer loop
      vertex 11.896 12.097 2
      vertex 11.896 12.097 4
      vertex 11.896 5 4
    endloop
  endfacet
  facet normal 0 1 0
    outer loop
      vertex 40.8677 20.296 2
      vertex 43.0477 20.296 4
      vertex 43.0477 20.296 2
    endloop
  endfacet
  facet normal 0 1 0
    outer loop
      vertex 40.8677 20.296 2
      vertex 40.8677 20.296 4
      vertex 43.0477 20.296 4
    endloop
  endfacet
  facet normal -0.931792 0.362993 0
    outer loop
      vertex 36.6717 9.52499 2
      vertex 40.8677 20.296 4
      vertex 40.8677 20.296 2
    endloop
  endfacet
  facet normal -0.931792 0.362993 0
    outer loop
      vertex 36.6717 9.52499 2
      vertex 36.6717 9.52499 4
      vertex 40.8677 20.296 4
    endloop
  endfacet
  facet normal -0.947944 0.318438 0
    outer loop
      vertex 35.7637 6.82199 2
      vertex 36.6717 9.52499 4
      vertex 36.6717 9.52499 2
    endloop
  endfacet
  facet normal -0.947944 0.318438 0
    outer loop
      vertex 35.7637 6.82199 2
      vertex 35.7637 6.82199 4
      vertex 36.6717 9.52499 4
    endloop
  endfacet
  facet normal 0.947839 0.31875 0
    outer loop
      vertex 34.8547 9.52499 2
      vertex 35.7637 6.82199 4
      vertex 35.7637 6.82199 2
    endloop
  endfacet
  facet normal 0.947839 0.31875 -0
    outer loop
      vertex 34.8547 9.52499 2
      vertex 34.8547 9.52499 4
      vertex 35.7637 6.82199 4
    endloop
  endfacet
  facet normal 0.931147 0.364644 0
    outer loop
      vertex 30.6367 20.296 2
      vertex 34.8547 9.52499 4
      vertex 34.8547 9.52499 2
    endloop
  endfacet
  facet normal 0.931147 0.364644 -0
    outer loop
      vertex 30.6367 20.296 2
      vertex 30.6367 20.296 4
      vertex 34.8547 9.52499 4
    endloop
  endfacet
  facet normal 0 1 0
    outer loop
      vertex 28.4577 20.296 2
      vertex 30.6367 20.296 4
      vertex 30.6367 20.296 2
    endloop
  endfacet
  facet normal 0 1 0
    outer loop
      vertex 28.4577 20.296 2
      vertex 28.4577 20.296 4
      vertex 30.6367 20.296 4
    endloop
  endfacet
  facet normal -0.926297 -0.376793 0
    outer loop
      vertex 34.6797 5 2
      vertex 28.4577 20.296 4
      vertex 28.4577 20.296 2
    endloop
  endfacet
  facet normal -0.926297 -0.376793 0
    outer loop
      vertex 34.6797 5 2
      vertex 34.6797 5 4
      vertex 28.4577 20.296 4
    endloop
  endfacet
  facet normal 0 -1 0
    outer loop
      vertex 36.8267 5 2
      vertex 34.6797 5 4
      vertex 34.6797 5 2
    endloop
  endfacet
  facet normal 0 -1 0
    outer loop
      vertex 36.8267 5 2
      vertex 36.8267 5 4
      vertex 34.6797 5 4
    endloop
  endfacet
  facet normal 0.926319 -0.376741 0
    outer loop
      vertex 43.0477 20.296 2
      vertex 36.8267 5 4
      vertex 36.8267 5 2
    endloop
  endfacet
  facet normal 0.926319 -0.376741 0
    outer loop
      vertex 43.0477 20.296 2
      vertex 43.0477 20.296 4
      vertex 36.8267 5 4
    endloop
  endfacet
endsolid OpenSCAD_Model
