solid OpenSCAD_Model
  facet normal 0 0 -1
    outer loop
      vertex 20.179 13.832 2
      vertex 20.179 20.296 2
      vertex 22.25 20.296 2
    endloop
  endfacet
  facet normal 0 0 -1
    outer loop
      vertex 11.896 12.097 2
      vertex 9.825 20.296 2
      vertex 11.896 13.832 2
    endloop
  endfacet
  facet normal 0 0 -1
    outer loop
      vertex 9.825 20.296 2
      vertex 11.896 12.097 2
      vertex 9.825 5 2
    endloop
  endfacet
  facet normal 0 0 -1
    outer loop
      vertex 20.179 12.097 2
      vertex 22.25 5 2
      vertex 20.179 5 2
    endloop
  endfacet
  facet normal 0 0 -1
    outer loop
      vertex 20.179 12.097 2
      vertex 22.25 20.296 2
      vertex 22.25 5 2
    endloop
  endfacet
  facet normal 0 0 -1
    outer loop
      vertex 11.896 13.832 2
      vertex 20.179 13.832 2
      vertex 20.179 12.097 2
    endloop
  endfacet
  facet normal 0 0 -1
    outer loop
      vertex 20.179 13.832 2
      vertex 22.25 20.296 2
      vertex 20.179 12.097 2
    endloop
  endfacet
  facet normal 0 0 -1
    outer loop
      vertex 11.896 12.097 2
      vertex 11.896 13.832 2
      vertex 20.179 12.097 2
    endloop
  endfacet
  facet normal 0 0 -1
    outer loop
      vertex 11.896 13.832 2
      vertex 9.825 20.296 2
      vertex 11.896 20.296 2
    endloop
  endfacet
  facet normal 0 0 -1
    outer loop
      vertex 11.896 5 2
      vertex 9.825 5 2
      vertex 11.896 12.097 2
    endloop
  endfacet
  facet normal 0 0 -1
    outer loop
      vertex 36.7747 11.34 2
      vertex 34.7137 11.34 2
      vertex 35.7657 13.01 2
    endloop
  endfacet
  facet normal -0 -0 -1
    outer loop
      vertex 36.7747 11.34 2
      vertex 36.7747 5 2
      vertex 34.7137 11.34 2
    endloop
  endfacet
  facet normal 0 -0 -1
    outer loop
      vertex 40.3797 20.296 2
      vertex 42.6577 20.296 2
      vertex 36.7747 11.34 2
    endloop
  endfacet
  facet normal -0 -0 -1
    outer loop
      vertex 31.1247 20.296 2
      vertex 34.7137 11.34 2
      vertex 28.8477 20.296 2
    endloop
  endfacet
  facet normal 0 0 -1
    outer loop
      vertex 35.7657 13.01 2
      vertex 40.3797 20.296 2
      vertex 36.7747 11.34 2
    endloop
  endfacet
  facet normal -0 0 -1
    outer loop
      vertex 35.7657 13.01 2
      vertex 34.7137 11.34 2
      vertex 31.1247 20.296 2
    endloop
  endfacet
  facet normal 0 0 -1
    outer loop
      vertex 34.7137 11.34 2
      vertex 36.7747 5 2
      vertex 34.7137 5 2
    endloop
  endfacet
  facet normal 0 0 1
    outer loop
      vertex 22.25 20.296 4
      vertex 20.179 20.296 4
      vertex 20.179 13.832 4
    endloop
  endfacet
  facet normal 0 0 1
    outer loop
      vertex 11.896 13.832 4
      vertex 9.825 20.296 4
      vertex 11.896 12.097 4
    endloop
  endfacet
  facet normal 0 0 1
    outer loop
      vertex 9.825 5 4
      vertex 11.896 12.097 4
      vertex 9.825 20.296 4
    endloop
  endfacet
  facet normal 0 0 1
    outer loop
      vertex 20.179 5 4
      vertex 22.25 5 4
      vertex 20.179 12.097 4
    endloop
  endfacet
  facet normal 0 -0 1
    outer loop
      vertex 22.25 5 4
      vertex 22.25 20.296 4
      vertex 20.179 12.097 4
    endloop
  endfacet
  facet normal 0 -0 1
    outer loop
      vertex 20.179 12.097 4
      vertex 20.179 13.832 4
      vertex 11.896 13.832 4
    endloop
  endfacet
  facet normal 0 0 1
    outer loop
      vertex 20.179 12.097 4
      vertex 22.25 20.296 4
      vertex 20.179 13.832 4
    endloop
  endfacet
  facet normal 0 0 1
    outer loop
      vertex 20.179 12.097 4
      vertex 11.896 13.832 4
      vertex 11.896 12.097 4
    endloop
  endfacet
  facet normal 0 0 1
    outer loop
      vertex 11.896 20.296 4
      vertex 9.825 20.296 4
      vertex 11.896 13.832 4
    endloop
  endfacet
  facet normal 0 0 1
    outer loop
      vertex 11.896 12.097 4
      vertex 9.825 5 4
      vertex 11.896 5 4
    endloop
  endfacet
  facet normal 0 0 1
    outer loop
      vertex 35.7657 13.01 4
      vertex 34.7137 11.34 4
      vertex 36.7747 11.34 4
    endloop
  endfacet
  facet normal -0 0 1
    outer loop
      vertex 34.7137 11.34 4
      vertex 36.7747 5 4
      vertex 36.7747 11.34 4
    endloop
  endfacet
  facet normal 0 0 1
    outer loop
      vertex 36.7747 11.34 4
      vertex 42.6577 20.296 4
      vertex 40.3797 20.296 4
    endloop
  endfacet
  facet normal -0 0 1
    outer loop
      vertex 28.8477 20.296 4
      vertex 34.7137 11.34 4
      vertex 31.1247 20.296 4
    endloop
  endfacet
  facet normal 0 -0 1
    outer loop
      vertex 36.7747 11.34 4
      vertex 40.3797 20.296 4
      vertex 35.7657 13.01 4
    endloop
  endfacet
  facet normal 0 0 1
    outer loop
      vertex 31.1247 20.296 4
      vertex 34.7137 11.34 4
      vertex 35.7657 13.01 4
    endloop
  endfacet
  facet normal 0 0 1
    outer loop
      vertex 34.7137 5 4
      vertex 36.7747 5 4
      vertex 34.7137 11.34 4
    endloop
  endfacet
  facet normal 0 -1 0
    outer loop
      vertex 20.179 12.097 2
      vertex 11.896 12.097 4
      vertex 11.896 12.097 2
    endloop
  endfacet
  facet normal 0 -1 0
    outer loop
      vertex 20.179 12.097 2
      vertex 20.179 12.097 4
      vertex 11.896 12.097 4
    endloop
  endfacet
  facet normal -1 0 0
    outer loop
      vertex 20.179 5 2
      vertex 20.179 12.097 4
      vertex 20.179 12.097 2
    endloop
  endfacet
  facet normal -1 0 0
    outer loop
      vertex 20.179 5 2
      vertex 20.179 5 4
      vertex 20.179 12.097 4
    endloop
  endfacet
  facet normal 0 -1 0
    outer loop
      vertex 22.25 5 2
      vertex 20.179 5 4
      vertex 20.179 5 2
    endloop
  endfacet
  facet normal 0 -1 0
    outer loop
      vertex 22.25 5 2
      vertex 22.25 5 4
      vertex 20.179 5 4
    endloop
  endfacet
  facet normal 1 0 0
    outer loop
      vertex 22.25 20.296 2
      vertex 22.25 5 4
      vertex 22.25 5 2
    endloop
  endfacet
  facet normal 1 0 -0
    outer loop
      vertex 22.25 20.296 2
      vertex 22.25 20.296 4
      vertex 22.25 5 4
    endloop
  endfacet
  facet normal 0 1 0
    outer loop
      vertex 20.179 20.296 2
      vertex 22.25 20.296 4
      vertex 22.25 20.296 2
    endloop
  endfacet
  facet normal 0 1 0
    outer loop
      vertex 20.179 20.296 2
      vertex 20.179 20.296 4
      vertex 22.25 20.296 4
    endloop
  endfacet
  facet normal -1 0 0
    outer loop
      vertex 20.179 13.832 2
      vertex 20.179 20.296 4
      vertex 20.179 20.296 2
    endloop
  endfacet
  facet normal -1 0 0
    outer loop
      vertex 20.179 13.832 2
      vertex 20.179 13.832 4
      vertex 20.179 20.296 4
    endloop
  endfacet
  facet normal 0 1 0
    outer loop
      vertex 11.896 13.832 2
      vertex 20.179 13.832 4
      vertex 20.179 13.832 2
    endloop
  endfacet
  facet normal 0 1 0
    outer loop
      vertex 11.896 13.832 2
      vertex 11.896 13.832 4
      vertex 20.179 13.832 4
    endloop
  endfacet
  facet normal 1 0 0
    outer loop
      vertex 11.896 20.296 2
      vertex 11.896 13.832 4
      vertex 11.896 13.832 2
    endloop
  endfacet
  facet normal 1 0 -0
    outer loop
      vertex 11.896 20.296 2
      vertex 11.896 20.296 4
      vertex 11.896 13.832 4
    endloop
  endfacet
  facet normal 0 1 0
    outer loop
      vertex 9.825 20.296 2
      vertex 11.896 20.296 4
      vertex 11.896 20.296 2
    endloop
  endfacet
  facet normal 0 1 0
    outer loop
      vertex 9.825 20.296 2
      vertex 9.825 20.296 4
      vertex 11.896 20.296 4
    endloop
  endfacet
  facet normal -1 0 0
    outer loop
      vertex 9.825 5 2
      vertex 9.825 20.296 4
      vertex 9.825 20.296 2
    endloop
  endfacet
  facet normal -1 0 0
    outer loop
      vertex 9.825 5 2
      vertex 9.825 5 4
      vertex 9.825 20.296 4
    endloop
  endfacet
  facet normal 0 -1 0
    outer loop
      vertex 11.896 5 2
      vertex 9.825 5 4
      vertex 9.825 5 2
    endloop
  endfacet
  facet normal 0 -1 0
    outer loop
      vertex 11.896 5 2
      vertex 11.896 5 4
      vertex 9.825 5 4
    endloop
  endfacet
  facet normal 1 0 0
    outer loop
      vertex 11.896 12.097 2
      vertex 11.896 5 4
      vertex 11.896 5 2
    endloop
  endfacet
  facet normal 1 0 -0
    outer loop
      vertex 11.896 12.097 2
      vertex 11.896 12.097 4
      vertex 11.896 5 4
    endloop
  endfacet
  facet normal 0.835807 -0.549023 0
    outer loop
      vertex 42.6577 20.296 2
      vertex 36.7747 11.34 4
      vertex 36.7747 11.34 2
    endloop
  endfacet
  facet normal 0.835807 -0.549023 0
    outer loop
      vertex 42.6577 20.296 2
      vertex 42.6577 20.296 4
      vertex 36.7747 11.34 4
    endloop
  endfacet
  facet normal 0 1 0
    outer loop
      vertex 40.3797 20.296 2
      vertex 42.6577 20.296 4
      vertex 42.6577 20.296 2
    endloop
  endfacet
  facet normal 0 1 0
    outer loop
      vertex 40.3797 20.296 2
      vertex 40.3797 20.296 4
      vertex 42.6577 20.296 4
    endloop
  endfacet
  facet normal -0.844843 0.535014 0
    outer loop
      vertex 35.7657 13.01 2
      vertex 40.3797 20.296 4
      vertex 40.3797 20.296 2
    endloop
  endfacet
  facet normal -0.844843 0.535014 0
    outer loop
      vertex 35.7657 13.01 2
      vertex 35.7657 13.01 4
      vertex 40.3797 20.296 4
    endloop
  endfacet
  facet normal 0.843428 0.537242 0
    outer loop
      vertex 31.1247 20.296 2
      vertex 35.7657 13.01 4
      vertex 35.7657 13.01 2
    endloop
  endfacet
  facet normal 0.843428 0.537242 -0
    outer loop
      vertex 31.1247 20.296 2
      vertex 31.1247 20.296 4
      vertex 35.7657 13.01 4
    endloop
  endfacet
  facet normal 0 1 0
    outer loop
      vertex 28.8477 20.296 2
      vertex 31.1247 20.296 4
      vertex 31.1247 20.296 2
    endloop
  endfacet
  facet normal 0 1 0
    outer loop
      vertex 28.8477 20.296 2
      vertex 28.8477 20.296 4
      vertex 31.1247 20.296 4
    endloop
  endfacet
  facet normal -0.836535 -0.547914 0
    outer loop
      vertex 34.7137 11.34 2
      vertex 28.8477 20.296 4
      vertex 28.8477 20.296 2
    endloop
  endfacet
  facet normal -0.836535 -0.547914 0
    outer loop
      vertex 34.7137 11.34 2
      vertex 34.7137 11.34 4
      vertex 28.8477 20.296 4
    endloop
  endfacet
  facet normal -1 0 0
    outer loop
      vertex 34.7137 5 2
      vertex 34.7137 11.34 4
      vertex 34.7137 11.34 2
    endloop
  endfacet
  facet normal -1 0 0
    outer loop
      vertex 34.7137 5 2
      vertex 34.7137 5 4
      vertex 34.7137 11.34 4
    endloop
  endfacet
  facet normal 0 -1 0
    outer loop
      vertex 36.7747 5 2
      vertex 34.7137 5 4
      vertex 34.7137 5 2
    endloop
  endfacet
  facet normal 0 -1 0
    outer loop
      vertex 36.7747 5 2
      vertex 36.7747 5 4
      vertex 34.7137 5 4
    endloop
  endfacet
  facet normal 1 0 0
    outer loop
      vertex 36.7747 11.34 2
      vertex 36.7747 5 4
      vertex 36.7747 5 2
    endloop
  endfacet
  facet normal 1 0 -0
    outer loop
      vertex 36.7747 11.34 2
      vertex 36.7747 11.34 4
      vertex 36.7747 5 4
    endloop
  endfacet
endsolid OpenSCAD_Model
