solid OpenSCAD_Model
  facet normal 0 0 -1
    outer loop
      vertex 30.3349 7.6221 2
      vertex 28.1011 7.91533 2
      vertex 29.358 9.672 2
    endloop
  endfacet
  facet normal -0 0 -1
    outer loop
      vertex 29.4496 6.6241 2
      vertex 28.394 5.83499 2
      vertex 28.1011 7.91533 2
    endloop
  endfacet
  facet normal 0 0 -1
    outer loop
      vertex 29.4496 6.6241 2
      vertex 28.1011 7.91533 2
      vertex 30.3349 7.6221 2
    endloop
  endfacet
  facet normal 0 0 -1
    outer loop
      vertex 29.358 9.672 2
      vertex 31.05 8.82899 2
      vertex 30.3349 7.6221 2
    endloop
  endfacet
  facet normal 0 0 -1
    outer loop
      vertex 25.87 4.92212 2
      vertex 26.4891 6.86133 2
      vertex 27.193 5.26443 2
    endloop
  endfacet
  facet normal 0 0 -1
    outer loop
      vertex 25.87 4.92212 2
      vertex 24.522 6.50999 2
      vertex 26.4891 6.86133 2
    endloop
  endfacet
  facet normal 0 0 -1
    outer loop
      vertex 26.4891 6.86133 2
      vertex 28.394 5.83499 2
      vertex 27.193 5.26443 2
    endloop
  endfacet
  facet normal 0 -0 -1
    outer loop
      vertex 28.1011 7.91533 2
      vertex 28.394 5.83499 2
      vertex 26.4891 6.86133 2
    endloop
  endfacet
  facet normal -0 0 -1
    outer loop
      vertex 25.87 4.92212 2
      vertex 24.425 4.80801 2
      vertex 24.522 6.50999 2
    endloop
  endfacet
  facet normal -0 0 -1
    outer loop
      vertex 24.522 6.50999 2
      vertex 22.9518 4.91434 2
      vertex 22.9633 6.6991 2
    endloop
  endfacet
  facet normal 0 0 -1
    outer loop
      vertex 20.422 5.765 2
      vertex 19.3853 6.49432 2
      vertex 21.6353 7.26643 2
    endloop
  endfacet
  facet normal 0 0 -1
    outer loop
      vertex 17.848 8.50099 2
      vertex 19.7202 9.46843 2
      vertex 18.5273 7.40633 2
    endloop
  endfacet
  facet normal 0 0 -1
    outer loop
      vertex 17.848 8.50099 2
      vertex 17.3563 9.75966 2
      vertex 19.7202 9.46843 2
    endloop
  endfacet
  facet normal 0 0 -1
    outer loop
      vertex 17.3563 9.75966 2
      vertex 17.0613 11.1637 2
      vertex 19.2296 10.9684 2
    endloop
  endfacet
  facet normal 0 0 -1
    outer loop
      vertex 17.0613 11.1637 2
      vertex 16.963 12.713 2
      vertex 19.066 12.712 2
    endloop
  endfacet
  facet normal 0 0 -1
    outer loop
      vertex 16.963 12.713 2
      vertex 17.1827 14.9669 2
      vertex 19.223 14.466 2
    endloop
  endfacet
  facet normal 0 0 -1
    outer loop
      vertex 17.1827 14.9669 2
      vertex 17.8417 16.8699 2
      vertex 19.694 15.952 2
    endloop
  endfacet
  facet normal 0 0 -1
    outer loop
      vertex 19.694 15.952 2
      vertex 18.94 18.422 2
      vertex 20.479 17.17 2
    endloop
  endfacet
  facet normal 0 0 -1
    outer loop
      vertex 20.479 17.17 2
      vertex 20.4269 19.5698 2
      vertex 21.5466 18.0733 2
    endloop
  endfacet
  facet normal 0 0 -1
    outer loop
      vertex 21.5466 18.0733 2
      vertex 20.4269 19.5698 2
      vertex 22.2516 20.2584 2
    endloop
  endfacet
  facet normal 0 0 -1
    outer loop
      vertex 22.8652 18.6153 2
      vertex 24.414 20.488 2
      vertex 24.435 18.796 2
    endloop
  endfacet
  facet normal 0 -0 -1
    outer loop
      vertex 25.954 20.3824 2
      vertex 26.399 18.4849 2
      vertex 25.466 18.7182 2
    endloop
  endfacet
  facet normal 0 0 -1
    outer loop
      vertex 27.3153 20.0658 2
      vertex 27.234 18.096 2
      vertex 26.399 18.4849 2
    endloop
  endfacet
  facet normal 0 0 -1
    outer loop
      vertex 28.498 19.538 2
      vertex 27.9482 17.56 2
      vertex 27.234 18.096 2
    endloop
  endfacet
  facet normal 0 0 -1
    outer loop
      vertex 29.4948 18.8027 2
      vertex 28.5189 16.8853 2
      vertex 27.9482 17.56 2
    endloop
  endfacet
  facet normal 0 -0 -1
    outer loop
      vertex 29.4948 18.8027 2
      vertex 30.2984 17.8633 2
      vertex 28.5189 16.8853 2
    endloop
  endfacet
  facet normal 0 0 -1
    outer loop
      vertex 28.5189 16.8853 2
      vertex 30.2984 17.8633 2
      vertex 28.946 16.072 2
    endloop
  endfacet
  facet normal 0 0 -1
    outer loop
      vertex 28.946 16.072 2
      vertex 30.2984 17.8633 2
      vertex 30.909 16.72 2
    endloop
  endfacet
  facet normal 0 -0 -1
    outer loop
      vertex 28.498 19.538 2
      vertex 29.4948 18.8027 2
      vertex 27.9482 17.56 2
    endloop
  endfacet
  facet normal 0 -0 -1
    outer loop
      vertex 27.3153 20.0658 2
      vertex 28.498 19.538 2
      vertex 27.234 18.096 2
    endloop
  endfacet
  facet normal 0 0 -1
    outer loop
      vertex 25.954 20.3824 2
      vertex 27.3153 20.0658 2
      vertex 26.399 18.4849 2
    endloop
  endfacet
  facet normal 0 0 -1
    outer loop
      vertex 24.414 20.488 2
      vertex 25.954 20.3824 2
      vertex 25.466 18.7182 2
    endloop
  endfacet
  facet normal 0 0 -1
    outer loop
      vertex 24.435 18.796 2
      vertex 24.414 20.488 2
      vertex 25.466 18.7182 2
    endloop
  endfacet
  facet normal 0 0 -1
    outer loop
      vertex 22.8652 18.6153 2
      vertex 22.2516 20.2584 2
      vertex 24.414 20.488 2
    endloop
  endfacet
  facet normal -0 0 -1
    outer loop
      vertex 22.8652 18.6153 2
      vertex 21.5466 18.0733 2
      vertex 22.2516 20.2584 2
    endloop
  endfacet
  facet normal 0 0 -1
    outer loop
      vertex 20.479 17.17 2
      vertex 18.94 18.422 2
      vertex 20.4269 19.5698 2
    endloop
  endfacet
  facet normal 0 0 -1
    outer loop
      vertex 19.694 15.952 2
      vertex 17.8417 16.8699 2
      vertex 18.94 18.422 2
    endloop
  endfacet
  facet normal 0 0 -1
    outer loop
      vertex 19.223 14.466 2
      vertex 17.1827 14.9669 2
      vertex 19.694 15.952 2
    endloop
  endfacet
  facet normal 0 0 -1
    outer loop
      vertex 19.066 12.712 2
      vertex 16.963 12.713 2
      vertex 19.223 14.466 2
    endloop
  endfacet
  facet normal 0 0 -1
    outer loop
      vertex 19.2296 10.9684 2
      vertex 17.0613 11.1637 2
      vertex 19.066 12.712 2
    endloop
  endfacet
  facet normal 0 0 -1
    outer loop
      vertex 19.7202 9.46843 2
      vertex 17.3563 9.75966 2
      vertex 19.2296 10.9684 2
    endloop
  endfacet
  facet normal 0 0 -1
    outer loop
      vertex 18.5273 7.40633 2
      vertex 19.7202 9.46843 2
      vertex 20.538 8.21199 2
    endloop
  endfacet
  facet normal 0 0 -1
    outer loop
      vertex 19.3853 6.49432 2
      vertex 18.5273 7.40633 2
      vertex 20.538 8.21199 2
    endloop
  endfacet
  facet normal -0 0 -1
    outer loop
      vertex 21.6353 7.26643 2
      vertex 19.3853 6.49432 2
      vertex 20.538 8.21199 2
    endloop
  endfacet
  facet normal 0 0 -1
    outer loop
      vertex 21.6174 5.23332 2
      vertex 20.422 5.765 2
      vertex 21.6353 7.26643 2
    endloop
  endfacet
  facet normal -0 0 -1
    outer loop
      vertex 22.9633 6.6991 2
      vertex 21.6174 5.23332 2
      vertex 21.6353 7.26643 2
    endloop
  endfacet
  facet normal 0 0 -1
    outer loop
      vertex 22.9633 6.6991 2
      vertex 22.9518 4.91434 2
      vertex 21.6174 5.23332 2
    endloop
  endfacet
  facet normal 0 0 -1
    outer loop
      vertex 24.522 6.50999 2
      vertex 24.425 4.80801 2
      vertex 22.9518 4.91434 2
    endloop
  endfacet
  facet normal -0 -0 -1
    outer loop
      vertex 12.113 20.296 2
      vertex 12.113 5 2
      vertex 10.041 20.296 2
    endloop
  endfacet
  facet normal 0 0 -1
    outer loop
      vertex 10.041 20.296 2
      vertex 12.113 5 2
      vertex 10.041 5 2
    endloop
  endfacet
  facet normal 0 0 1
    outer loop
      vertex 29.358 9.672 4
      vertex 28.1011 7.91533 4
      vertex 30.3349 7.6221 4
    endloop
  endfacet
  facet normal 0 0 1
    outer loop
      vertex 28.1011 7.91533 4
      vertex 28.394 5.83499 4
      vertex 29.4496 6.6241 4
    endloop
  endfacet
  facet normal 0 0 1
    outer loop
      vertex 30.3349 7.6221 4
      vertex 28.1011 7.91533 4
      vertex 29.4496 6.6241 4
    endloop
  endfacet
  facet normal 0 -0 1
    outer loop
      vertex 30.3349 7.6221 4
      vertex 31.05 8.82899 4
      vertex 29.358 9.672 4
    endloop
  endfacet
  facet normal 0 0 1
    outer loop
      vertex 27.193 5.26443 4
      vertex 26.4891 6.86133 4
      vertex 25.87 4.92212 4
    endloop
  endfacet
  facet normal 0 0 1
    outer loop
      vertex 26.4891 6.86133 4
      vertex 24.522 6.50999 4
      vertex 25.87 4.92212 4
    endloop
  endfacet
  facet normal 0 -0 1
    outer loop
      vertex 27.193 5.26443 4
      vertex 28.394 5.83499 4
      vertex 26.4891 6.86133 4
    endloop
  endfacet
  facet normal -0 0 1
    outer loop
      vertex 26.4891 6.86133 4
      vertex 28.394 5.83499 4
      vertex 28.1011 7.91533 4
    endloop
  endfacet
  facet normal 0 0 1
    outer loop
      vertex 24.522 6.50999 4
      vertex 24.425 4.80801 4
      vertex 25.87 4.92212 4
    endloop
  endfacet
  facet normal 0 0 1
    outer loop
      vertex 22.9633 6.6991 4
      vertex 22.9518 4.91434 4
      vertex 24.522 6.50999 4
    endloop
  endfacet
  facet normal 0 0 1
    outer loop
      vertex 21.6353 7.26643 4
      vertex 19.3853 6.49432 4
      vertex 20.422 5.765 4
    endloop
  endfacet
  facet normal 0 -0 1
    outer loop
      vertex 18.5273 7.40633 4
      vertex 19.7202 9.46843 4
      vertex 17.848 8.50099 4
    endloop
  endfacet
  facet normal 0 0 1
    outer loop
      vertex 19.7202 9.46843 4
      vertex 17.3563 9.75966 4
      vertex 17.848 8.50099 4
    endloop
  endfacet
  facet normal 0 0 1
    outer loop
      vertex 19.2296 10.9684 4
      vertex 17.0613 11.1637 4
      vertex 17.3563 9.75966 4
    endloop
  endfacet
  facet normal 0 0 1
    outer loop
      vertex 19.066 12.712 4
      vertex 16.963 12.713 4
      vertex 17.0613 11.1637 4
    endloop
  endfacet
  facet normal 0 0 1
    outer loop
      vertex 19.223 14.466 4
      vertex 17.1827 14.9669 4
      vertex 16.963 12.713 4
    endloop
  endfacet
  facet normal 0 0 1
    outer loop
      vertex 19.694 15.952 4
      vertex 17.8417 16.8699 4
      vertex 17.1827 14.9669 4
    endloop
  endfacet
  facet normal 0 0 1
    outer loop
      vertex 20.479 17.17 4
      vertex 18.94 18.422 4
      vertex 19.694 15.952 4
    endloop
  endfacet
  facet normal 0 0 1
    outer loop
      vertex 21.5466 18.0733 4
      vertex 20.4269 19.5698 4
      vertex 20.479 17.17 4
    endloop
  endfacet
  facet normal 0 0 1
    outer loop
      vertex 22.2516 20.2584 4
      vertex 20.4269 19.5698 4
      vertex 21.5466 18.0733 4
    endloop
  endfacet
  facet normal 0 0 1
    outer loop
      vertex 24.435 18.796 4
      vertex 24.414 20.488 4
      vertex 22.8652 18.6153 4
    endloop
  endfacet
  facet normal -0 0 1
    outer loop
      vertex 25.466 18.7182 4
      vertex 26.399 18.4849 4
      vertex 25.954 20.3824 4
    endloop
  endfacet
  facet normal -0 0 1
    outer loop
      vertex 26.399 18.4849 4
      vertex 27.234 18.096 4
      vertex 27.3153 20.0658 4
    endloop
  endfacet
  facet normal -0 0 1
    outer loop
      vertex 27.234 18.096 4
      vertex 27.9482 17.56 4
      vertex 28.498 19.538 4
    endloop
  endfacet
  facet normal -0 0 1
    outer loop
      vertex 27.9482 17.56 4
      vertex 28.5189 16.8853 4
      vertex 29.4948 18.8027 4
    endloop
  endfacet
  facet normal 0 0 1
    outer loop
      vertex 28.5189 16.8853 4
      vertex 30.2984 17.8633 4
      vertex 29.4948 18.8027 4
    endloop
  endfacet
  facet normal 0 -0 1
    outer loop
      vertex 28.946 16.072 4
      vertex 30.2984 17.8633 4
      vertex 28.5189 16.8853 4
    endloop
  endfacet
  facet normal 0 0 1
    outer loop
      vertex 30.909 16.72 4
      vertex 30.2984 17.8633 4
      vertex 28.946 16.072 4
    endloop
  endfacet
  facet normal 0 0 1
    outer loop
      vertex 27.9482 17.56 4
      vertex 29.4948 18.8027 4
      vertex 28.498 19.538 4
    endloop
  endfacet
  facet normal 0 0 1
    outer loop
      vertex 27.234 18.096 4
      vertex 28.498 19.538 4
      vertex 27.3153 20.0658 4
    endloop
  endfacet
  facet normal 0 -0 1
    outer loop
      vertex 26.399 18.4849 4
      vertex 27.3153 20.0658 4
      vertex 25.954 20.3824 4
    endloop
  endfacet
  facet normal 0 -0 1
    outer loop
      vertex 25.466 18.7182 4
      vertex 25.954 20.3824 4
      vertex 24.414 20.488 4
    endloop
  endfacet
  facet normal 0 0 1
    outer loop
      vertex 25.466 18.7182 4
      vertex 24.414 20.488 4
      vertex 24.435 18.796 4
    endloop
  endfacet
  facet normal 0 0 1
    outer loop
      vertex 24.414 20.488 4
      vertex 22.2516 20.2584 4
      vertex 22.8652 18.6153 4
    endloop
  endfacet
  facet normal 0 0 1
    outer loop
      vertex 22.2516 20.2584 4
      vertex 21.5466 18.0733 4
      vertex 22.8652 18.6153 4
    endloop
  endfacet
  facet normal 0 0 1
    outer loop
      vertex 20.4269 19.5698 4
      vertex 18.94 18.422 4
      vertex 20.479 17.17 4
    endloop
  endfacet
  facet normal 0 0 1
    outer loop
      vertex 18.94 18.422 4
      vertex 17.8417 16.8699 4
      vertex 19.694 15.952 4
    endloop
  endfacet
  facet normal 0 0 1
    outer loop
      vertex 19.694 15.952 4
      vertex 17.1827 14.9669 4
      vertex 19.223 14.466 4
    endloop
  endfacet
  facet normal 0 0 1
    outer loop
      vertex 19.223 14.466 4
      vertex 16.963 12.713 4
      vertex 19.066 12.712 4
    endloop
  endfacet
  facet normal 0 0 1
    outer loop
      vertex 19.066 12.712 4
      vertex 17.0613 11.1637 4
      vertex 19.2296 10.9684 4
    endloop
  endfacet
  facet normal 0 0 1
    outer loop
      vertex 19.2296 10.9684 4
      vertex 17.3563 9.75966 4
      vertex 19.7202 9.46843 4
    endloop
  endfacet
  facet normal 0 0 1
    outer loop
      vertex 20.538 8.21199 4
      vertex 19.7202 9.46843 4
      vertex 18.5273 7.40633 4
    endloop
  endfacet
  facet normal 0 0 1
    outer loop
      vertex 20.538 8.21199 4
      vertex 18.5273 7.40633 4
      vertex 19.3853 6.49432 4
    endloop
  endfacet
  facet normal 0 0 1
    outer loop
      vertex 20.538 8.21199 4
      vertex 19.3853 6.49432 4
      vertex 21.6353 7.26643 4
    endloop
  endfacet
  facet normal 0 0 1
    outer loop
      vertex 21.6353 7.26643 4
      vertex 20.422 5.765 4
      vertex 21.6174 5.23332 4
    endloop
  endfacet
  facet normal 0 0 1
    outer loop
      vertex 21.6353 7.26643 4
      vertex 21.6174 5.23332 4
      vertex 22.9633 6.6991 4
    endloop
  endfacet
  facet normal -0 0 1
    outer loop
      vertex 21.6174 5.23332 4
      vertex 22.9518 4.91434 4
      vertex 22.9633 6.6991 4
    endloop
  endfacet
  facet normal -0 0 1
    outer loop
      vertex 22.9518 4.91434 4
      vertex 24.425 4.80801 4
      vertex 24.522 6.50999 4
    endloop
  endfacet
  facet normal -0 0 1
    outer loop
      vertex 10.041 20.296 4
      vertex 12.113 5 4
      vertex 12.113 20.296 4
    endloop
  endfacet
  facet normal 0 0 1
    outer loop
      vertex 10.041 5 4
      vertex 12.113 5 4
      vertex 10.041 20.296 4
    endloop
  endfacet
  facet normal 0.250493 -0.968118 0
    outer loop
      vertex 27.193 5.26443 2
      vertex 25.87 4.92212 4
      vertex 25.87 4.92212 2
    endloop
  endfacet
  facet normal 0.250493 -0.968118 0
    outer loop
      vertex 27.193 5.26443 2
      vertex 27.193 5.26443 4
      vertex 25.87 4.92212 4
    endloop
  endfacet
  facet normal 0.429106 -0.903254 0
    outer loop
      vertex 28.394 5.83499 2
      vertex 27.193 5.26443 4
      vertex 27.193 5.26443 2
    endloop
  endfacet
  facet normal 0.429106 -0.903254 0
    outer loop
      vertex 28.394 5.83499 2
      vertex 28.394 5.83499 4
      vertex 27.193 5.26443 4
    endloop
  endfacet
  facet normal 0.598756 -0.800931 0
    outer loop
      vertex 29.4496 6.6241 2
      vertex 28.394 5.83499 4
      vertex 28.394 5.83499 2
    endloop
  endfacet
  facet normal 0.598756 -0.800931 0
    outer loop
      vertex 29.4496 6.6241 2
      vertex 29.4496 6.6241 4
      vertex 28.394 5.83499 4
    endloop
  endfacet
  facet normal 0.748072 -0.663617 0
    outer loop
      vertex 30.3349 7.6221 2
      vertex 29.4496 6.6241 4
      vertex 29.4496 6.6241 2
    endloop
  endfacet
  facet normal 0.748072 -0.663617 0
    outer loop
      vertex 30.3349 7.6221 2
      vertex 30.3349 7.6221 4
      vertex 29.4496 6.6241 4
    endloop
  endfacet
  facet normal 0.860316 -0.509761 0
    outer loop
      vertex 31.05 8.82899 2
      vertex 30.3349 7.6221 4
      vertex 30.3349 7.6221 2
    endloop
  endfacet
  facet normal 0.860316 -0.509761 0
    outer loop
      vertex 31.05 8.82899 2
      vertex 31.05 8.82899 4
      vertex 30.3349 7.6221 4
    endloop
  endfacet
  facet normal 0.445944 0.895061 0
    outer loop
      vertex 29.358 9.672 2
      vertex 31.05 8.82899 4
      vertex 31.05 8.82899 2
    endloop
  endfacet
  facet normal 0.445944 0.895061 -0
    outer loop
      vertex 29.358 9.672 2
      vertex 29.358 9.672 4
      vertex 31.05 8.82899 4
    endloop
  endfacet
  facet normal -0.813266 0.581892 0
    outer loop
      vertex 28.1011 7.91533 2
      vertex 29.358 9.672 4
      vertex 29.358 9.672 2
    endloop
  endfacet
  facet normal -0.813266 0.581892 0
    outer loop
      vertex 28.1011 7.91533 2
      vertex 28.1011 7.91533 4
      vertex 29.358 9.672 4
    endloop
  endfacet
  facet normal -0.54725 0.836969 0
    outer loop
      vertex 26.4891 6.86133 2
      vertex 28.1011 7.91533 4
      vertex 28.1011 7.91533 2
    endloop
  endfacet
  facet normal -0.54725 0.836969 0
    outer loop
      vertex 26.4891 6.86133 2
      vertex 26.4891 6.86133 4
      vertex 28.1011 7.91533 4
    endloop
  endfacet
  facet normal -0.175822 0.984422 0
    outer loop
      vertex 24.522 6.50999 2
      vertex 26.4891 6.86133 4
      vertex 26.4891 6.86133 2
    endloop
  endfacet
  facet normal -0.175822 0.984422 0
    outer loop
      vertex 24.522 6.50999 2
      vertex 24.522 6.50999 4
      vertex 26.4891 6.86133 4
    endloop
  endfacet
  facet normal 0.12044 0.992721 0
    outer loop
      vertex 22.9633 6.6991 2
      vertex 24.522 6.50999 4
      vertex 24.522 6.50999 2
    endloop
  endfacet
  facet normal 0.12044 0.992721 -0
    outer loop
      vertex 22.9633 6.6991 2
      vertex 22.9633 6.6991 4
      vertex 24.522 6.50999 4
    endloop
  endfacet
  facet normal 0.392862 0.919597 0
    outer loop
      vertex 21.6353 7.26643 2
      vertex 22.9633 6.6991 4
      vertex 22.9633 6.6991 2
    endloop
  endfacet
  facet normal 0.392862 0.919597 -0
    outer loop
      vertex 21.6353 7.26643 2
      vertex 21.6353 7.26643 4
      vertex 22.9633 6.6991 4
    endloop
  endfacet
  facet normal 0.652772 0.757554 0
    outer loop
      vertex 20.538 8.21199 2
      vertex 21.6353 7.26643 4
      vertex 21.6353 7.26643 2
    endloop
  endfacet
  facet normal 0.652772 0.757554 -0
    outer loop
      vertex 20.538 8.21199 2
      vertex 20.538 8.21199 4
      vertex 21.6353 7.26643 4
    endloop
  endfacet
  facet normal 0.83811 0.545501 0
    outer loop
      vertex 19.7202 9.46843 2
      vertex 20.538 8.21199 4
      vertex 20.538 8.21199 2
    endloop
  endfacet
  facet normal 0.83811 0.545501 -0
    outer loop
      vertex 19.7202 9.46843 2
      vertex 19.7202 9.46843 4
      vertex 20.538 8.21199 4
    endloop
  endfacet
  facet normal 0.950443 0.310897 0
    outer loop
      vertex 19.2296 10.9684 2
      vertex 19.7202 9.46843 4
      vertex 19.7202 9.46843 2
    endloop
  endfacet
  facet normal 0.950443 0.310897 -0
    outer loop
      vertex 19.2296 10.9684 2
      vertex 19.2296 10.9684 4
      vertex 19.7202 9.46843 4
    endloop
  endfacet
  facet normal 0.995629 0.0933974 0
    outer loop
      vertex 19.066 12.712 2
      vertex 19.2296 10.9684 4
      vertex 19.2296 10.9684 2
    endloop
  endfacet
  facet normal 0.995629 0.0933974 -0
    outer loop
      vertex 19.066 12.712 2
      vertex 19.066 12.712 4
      vertex 19.2296 10.9684 4
    endloop
  endfacet
  facet normal 0.996017 -0.0891607 0
    outer loop
      vertex 19.223 14.466 2
      vertex 19.066 12.712 4
      vertex 19.066 12.712 2
    endloop
  endfacet
  facet normal 0.996017 -0.0891607 0
    outer loop
      vertex 19.223 14.466 2
      vertex 19.223 14.466 4
      vertex 19.066 12.712 4
    endloop
  endfacet
  facet normal 0.953264 -0.302139 0
    outer loop
      vertex 19.694 15.952 2
      vertex 19.223 14.466 4
      vertex 19.223 14.466 2
    endloop
  endfacet
  facet normal 0.953264 -0.302139 0
    outer loop
      vertex 19.694 15.952 2
      vertex 19.694 15.952 4
      vertex 19.223 14.466 4
    endloop
  endfacet
  facet normal 0.840549 -0.541735 0
    outer loop
      vertex 20.479 17.17 2
      vertex 19.694 15.952 4
      vertex 19.694 15.952 2
    endloop
  endfacet
  facet normal 0.840549 -0.541735 0
    outer loop
      vertex 20.479 17.17 2
      vertex 20.479 17.17 4
      vertex 19.694 15.952 4
    endloop
  endfacet
  facet normal 0.645946 -0.763383 0
    outer loop
      vertex 21.5466 18.0733 2
      vertex 20.479 17.17 4
      vertex 20.479 17.17 2
    endloop
  endfacet
  facet normal 0.645946 -0.763383 0
    outer loop
      vertex 21.5466 18.0733 2
      vertex 21.5466 18.0733 4
      vertex 20.479 17.17 4
    endloop
  endfacet
  facet normal 0.380167 -0.924918 0
    outer loop
      vertex 22.8652 18.6153 2
      vertex 21.5466 18.0733 4
      vertex 21.5466 18.0733 2
    endloop
  endfacet
  facet normal 0.380167 -0.924918 0
    outer loop
      vertex 22.8652 18.6153 2
      vertex 22.8652 18.6153 4
      vertex 21.5466 18.0733 4
    endloop
  endfacet
  facet normal 0.114334 -0.993442 0
    outer loop
      vertex 24.435 18.796 2
      vertex 22.8652 18.6153 4
      vertex 22.8652 18.6153 2
    endloop
  endfacet
  facet normal 0.114334 -0.993442 0
    outer loop
      vertex 24.435 18.796 2
      vertex 24.435 18.796 4
      vertex 22.8652 18.6153 4
    endloop
  endfacet
  facet normal -0.0752214 -0.997167 0
    outer loop
      vertex 25.466 18.7182 2
      vertex 24.435 18.796 4
      vertex 24.435 18.796 2
    endloop
  endfacet
  facet normal -0.0752214 -0.997167 0
    outer loop
      vertex 25.466 18.7182 2
      vertex 25.466 18.7182 4
      vertex 24.435 18.796 4
    endloop
  endfacet
  facet normal -0.242621 -0.970121 0
    outer loop
      vertex 26.399 18.4849 2
      vertex 25.466 18.7182 4
      vertex 25.466 18.7182 2
    endloop
  endfacet
  facet normal -0.242621 -0.970121 0
    outer loop
      vertex 26.399 18.4849 2
      vertex 26.399 18.4849 4
      vertex 25.466 18.7182 4
    endloop
  endfacet
  facet normal -0.422192 -0.906506 0
    outer loop
      vertex 27.234 18.096 2
      vertex 26.399 18.4849 4
      vertex 26.399 18.4849 2
    endloop
  endfacet
  facet normal -0.422192 -0.906506 0
    outer loop
      vertex 27.234 18.096 2
      vertex 27.234 18.096 4
      vertex 26.399 18.4849 4
    endloop
  endfacet
  facet normal -0.60023 -0.799828 0
    outer loop
      vertex 27.9482 17.56 2
      vertex 27.234 18.096 4
      vertex 27.234 18.096 2
    endloop
  endfacet
  facet normal -0.60023 -0.799828 0
    outer loop
      vertex 27.9482 17.56 2
      vertex 27.9482 17.56 4
      vertex 27.234 18.096 4
    endloop
  endfacet
  facet normal -0.763503 -0.645804 0
    outer loop
      vertex 28.5189 16.8853 2
      vertex 27.9482 17.56 4
      vertex 27.9482 17.56 2
    endloop
  endfacet
  facet normal -0.763503 -0.645804 0
    outer loop
      vertex 28.5189 16.8853 2
      vertex 28.5189 16.8853 4
      vertex 27.9482 17.56 4
    endloop
  endfacet
  facet normal -0.885351 -0.464924 0
    outer loop
      vertex 28.946 16.072 2
      vertex 28.5189 16.8853 4
      vertex 28.5189 16.8853 2
    endloop
  endfacet
  facet normal -0.885351 -0.464924 0
    outer loop
      vertex 28.946 16.072 2
      vertex 28.946 16.072 4
      vertex 28.5189 16.8853 4
    endloop
  endfacet
  facet normal 0.313467 -0.949599 0
    outer loop
      vertex 30.909 16.72 2
      vertex 28.946 16.072 4
      vertex 28.946 16.072 2
    endloop
  endfacet
  facet normal 0.313467 -0.949599 0
    outer loop
      vertex 30.909 16.72 2
      vertex 30.909 16.72 4
      vertex 28.946 16.072 4
    endloop
  endfacet
  facet normal 0.882107 0.471049 0
    outer loop
      vertex 30.2984 17.8633 2
      vertex 30.909 16.72 4
      vertex 30.909 16.72 2
    endloop
  endfacet
  facet normal 0.882107 0.471049 -0
    outer loop
      vertex 30.2984 17.8633 2
      vertex 30.2984 17.8633 4
      vertex 30.909 16.72 4
    endloop
  endfacet
  facet normal 0.759846 0.650103 0
    outer loop
      vertex 29.4948 18.8027 2
      vertex 30.2984 17.8633 4
      vertex 30.2984 17.8633 2
    endloop
  endfacet
  facet normal 0.759846 0.650103 -0
    outer loop
      vertex 29.4948 18.8027 2
      vertex 29.4948 18.8027 4
      vertex 30.2984 17.8633 4
    endloop
  endfacet
  facet normal 0.593652 0.804722 0
    outer loop
      vertex 28.498 19.538 2
      vertex 29.4948 18.8027 4
      vertex 29.4948 18.8027 2
    endloop
  endfacet
  facet normal 0.593652 0.804722 -0
    outer loop
      vertex 28.498 19.538 2
      vertex 28.498 19.538 4
      vertex 29.4948 18.8027 4
    endloop
  endfacet
  facet normal 0.40752 0.913196 0
    outer loop
      vertex 27.3153 20.0658 2
      vertex 28.498 19.538 4
      vertex 28.498 19.538 2
    endloop
  endfacet
  facet normal 0.40752 0.913196 -0
    outer loop
      vertex 27.3153 20.0658 2
      vertex 27.3153 20.0658 4
      vertex 28.498 19.538 4
    endloop
  endfacet
  facet normal 0.226564 0.973996 0
    outer loop
      vertex 25.954 20.3824 2
      vertex 27.3153 20.0658 4
      vertex 27.3153 20.0658 2
    endloop
  endfacet
  facet normal 0.226564 0.973996 -0
    outer loop
      vertex 25.954 20.3824 2
      vertex 25.954 20.3824 4
      vertex 27.3153 20.0658 4
    endloop
  endfacet
  facet normal 0.0683855 0.997659 0
    outer loop
      vertex 24.414 20.488 2
      vertex 25.954 20.3824 4
      vertex 25.954 20.3824 2
    endloop
  endfacet
  facet normal 0.0683855 0.997659 -0
    outer loop
      vertex 24.414 20.488 2
      vertex 24.414 20.488 4
      vertex 25.954 20.3824 4
    endloop
  endfacet
  facet normal -0.105561 0.994413 0
    outer loop
      vertex 22.2516 20.2584 2
      vertex 24.414 20.488 4
      vertex 24.414 20.488 2
    endloop
  endfacet
  facet normal -0.105561 0.994413 0
    outer loop
      vertex 22.2516 20.2584 2
      vertex 22.2516 20.2584 4
      vertex 24.414 20.488 4
    endloop
  endfacet
  facet normal -0.353113 0.935581 0
    outer loop
      vertex 20.4269 19.5698 2
      vertex 22.2516 20.2584 4
      vertex 22.2516 20.2584 2
    endloop
  endfacet
  facet normal -0.353113 0.935581 0
    outer loop
      vertex 20.4269 19.5698 2
      vertex 20.4269 19.5698 4
      vertex 22.2516 20.2584 4
    endloop
  endfacet
  facet normal -0.611049 0.791593 0
    outer loop
      vertex 18.94 18.422 2
      vertex 20.4269 19.5698 4
      vertex 20.4269 19.5698 2
    endloop
  endfacet
  facet normal -0.611049 0.791593 0
    outer loop
      vertex 18.94 18.422 2
      vertex 18.94 18.422 4
      vertex 20.4269 19.5698 4
    endloop
  endfacet
  facet normal -0.816289 0.577643 0
    outer loop
      vertex 17.8417 16.8699 2
      vertex 18.94 18.422 4
      vertex 18.94 18.422 2
    endloop
  endfacet
  facet normal -0.816289 0.577643 0
    outer loop
      vertex 17.8417 16.8699 2
      vertex 17.8417 16.8699 4
      vertex 18.94 18.422 4
    endloop
  endfacet
  facet normal -0.944945 0.327228 0
    outer loop
      vertex 17.1827 14.9669 2
      vertex 17.8417 16.8699 4
      vertex 17.8417 16.8699 2
    endloop
  endfacet
  facet normal -0.944945 0.327228 0
    outer loop
      vertex 17.1827 14.9669 2
      vertex 17.1827 14.9669 4
      vertex 17.8417 16.8699 4
    endloop
  endfacet
  facet normal -0.995284 0.097001 0
    outer loop
      vertex 16.963 12.713 2
      vertex 17.1827 14.9669 4
      vertex 17.1827 14.9669 2
    endloop
  endfacet
  facet normal -0.995284 0.097001 0
    outer loop
      vertex 16.963 12.713 2
      vertex 16.963 12.713 4
      vertex 17.1827 14.9669 4
    endloop
  endfacet
  facet normal -0.997992 -0.0633469 0
    outer loop
      vertex 17.0613 11.1637 2
      vertex 16.963 12.713 4
      vertex 16.963 12.713 2
    endloop
  endfacet
  facet normal -0.997992 -0.0633469 0
    outer loop
      vertex 17.0613 11.1637 2
      vertex 17.0613 11.1637 4
      vertex 16.963 12.713 4
    endloop
  endfacet
  facet normal -0.978632 -0.205622 0
    outer loop
      vertex 17.3563 9.75966 2
      vertex 17.0613 11.1637 4
      vertex 17.0613 11.1637 2
    endloop
  endfacet
  facet normal -0.978632 -0.205622 0
    outer loop
      vertex 17.3563 9.75966 2
      vertex 17.3563 9.75966 4
      vertex 17.0613 11.1637 4
    endloop
  endfacet
  facet normal -0.931457 -0.363852 0
    outer loop
      vertex 17.848 8.50099 2
      vertex 17.3563 9.75966 4
      vertex 17.3563 9.75966 2
    endloop
  endfacet
  facet normal -0.931457 -0.363852 0
    outer loop
      vertex 17.848 8.50099 2
      vertex 17.848 8.50099 4
      vertex 17.3563 9.75966 4
    endloop
  endfacet
  facet normal -0.849684 -0.527292 0
    outer loop
      vertex 18.5273 7.40633 2
      vertex 17.848 8.50099 4
      vertex 17.848 8.50099 2
    endloop
  endfacet
  facet normal -0.849684 -0.527292 0
    outer loop
      vertex 18.5273 7.40633 2
      vertex 18.5273 7.40633 4
      vertex 17.848 8.50099 4
    endloop
  endfacet
  facet normal -0.728341 -0.685215 0
    outer loop
      vertex 19.3853 6.49432 2
      vertex 18.5273 7.40633 4
      vertex 18.5273 7.40633 2
    endloop
  endfacet
  facet normal -0.728341 -0.685215 0
    outer loop
      vertex 19.3853 6.49432 2
      vertex 19.3853 6.49432 4
      vertex 18.5273 7.40633 4
    endloop
  endfacet
  facet normal -0.575397 -0.817874 0
    outer loop
      vertex 20.422 5.765 2
      vertex 19.3853 6.49432 4
      vertex 19.3853 6.49432 2
    endloop
  endfacet
  facet normal -0.575397 -0.817874 0
    outer loop
      vertex 20.422 5.765 2
      vertex 20.422 5.765 4
      vertex 19.3853 6.49432 4
    endloop
  endfacet
  facet normal -0.406372 -0.913708 0
    outer loop
      vertex 21.6174 5.23332 2
      vertex 20.422 5.765 4
      vertex 20.422 5.765 2
    endloop
  endfacet
  facet normal -0.406372 -0.913708 0
    outer loop
      vertex 21.6174 5.23332 2
      vertex 21.6174 5.23332 4
      vertex 20.422 5.765 4
    endloop
  endfacet
  facet normal -0.232508 -0.972595 0
    outer loop
      vertex 22.9518 4.91434 2
      vertex 21.6174 5.23332 4
      vertex 21.6174 5.23332 2
    endloop
  endfacet
  facet normal -0.232508 -0.972595 0
    outer loop
      vertex 22.9518 4.91434 2
      vertex 22.9518 4.91434 4
      vertex 21.6174 5.23332 4
    endloop
  endfacet
  facet normal -0.0719834 -0.997406 0
    outer loop
      vertex 24.425 4.80801 2
      vertex 22.9518 4.91434 4
      vertex 22.9518 4.91434 2
    endloop
  endfacet
  facet normal -0.0719834 -0.997406 0
    outer loop
      vertex 24.425 4.80801 2
      vertex 24.425 4.80801 4
      vertex 22.9518 4.91434 4
    endloop
  endfacet
  facet normal 0.0787209 -0.996897 0
    outer loop
      vertex 25.87 4.92212 2
      vertex 24.425 4.80801 4
      vertex 24.425 4.80801 2
    endloop
  endfacet
  facet normal 0.0787209 -0.996897 0
    outer loop
      vertex 25.87 4.92212 2
      vertex 25.87 4.92212 4
      vertex 24.425 4.80801 4
    endloop
  endfacet
  facet normal 0 1 0
    outer loop
      vertex 10.041 20.296 2
      vertex 12.113 20.296 4
      vertex 12.113 20.296 2
    endloop
  endfacet
  facet normal 0 1 0
    outer loop
      vertex 10.041 20.296 2
      vertex 10.041 20.296 4
      vertex 12.113 20.296 4
    endloop
  endfacet
  facet normal -1 0 0
    outer loop
      vertex 10.041 5 2
      vertex 10.041 20.296 4
      vertex 10.041 20.296 2
    endloop
  endfacet
  facet normal -1 0 0
    outer loop
      vertex 10.041 5 2
      vertex 10.041 5 4
      vertex 10.041 20.296 4
    endloop
  endfacet
  facet normal 0 -1 0
    outer loop
      vertex 12.113 5 2
      vertex 10.041 5 4
      vertex 10.041 5 2
    endloop
  endfacet
  facet normal 0 -1 0
    outer loop
      vertex 12.113 5 2
      vertex 12.113 5 4
      vertex 10.041 5 4
    endloop
  endfacet
  facet normal 1 0 0
    outer loop
      vertex 12.113 20.296 2
      vertex 12.113 5 4
      vertex 12.113 5 2
    endloop
  endfacet
  facet normal 1 0 -0
    outer loop
      vertex 12.113 20.296 2
      vertex 12.113 20.296 4
      vertex 12.113 5 4
    endloop
  endfacet
endsolid OpenSCAD_Model
