solid OpenSCAD_Model
  facet normal 0 0 -1
    outer loop
      vertex 10.041 20.296 2
      vertex 12.113 20.296 2
      vertex 12.113 5 2
    endloop
  endfacet
  facet normal 0 0 -1
    outer loop
      vertex 10.041 20.296 2
      vertex 12.113 5 2
      vertex 10.041 5 2
    endloop
  endfacet
  facet normal -0 -0 -1
    outer loop
      vertex 19.946 20.296 2
      vertex 19.946 5 2
      vertex 17.874 20.296 2
    endloop
  endfacet
  facet normal 0 0 -1
    outer loop
      vertex 19.946 5 2
      vertex 17.874 5 2
      vertex 17.874 20.296 2
    endloop
  endfacet
  facet normal 0 -0 1
    outer loop
      vertex 12.113 5 4
      vertex 12.113 20.296 4
      vertex 10.041 20.296 4
    endloop
  endfacet
  facet normal 0 0 1
    outer loop
      vertex 10.041 5 4
      vertex 12.113 5 4
      vertex 10.041 20.296 4
    endloop
  endfacet
  facet normal -0 0 1
    outer loop
      vertex 17.874 20.296 4
      vertex 19.946 5 4
      vertex 19.946 20.296 4
    endloop
  endfacet
  facet normal 0 0 1
    outer loop
      vertex 17.874 20.296 4
      vertex 17.874 5 4
      vertex 19.946 5 4
    endloop
  endfacet
  facet normal 0 1 0
    outer loop
      vertex 10.041 20.296 2
      vertex 12.113 20.296 4
      vertex 12.113 20.296 2
    endloop
  endfacet
  facet normal 0 1 0
    outer loop
      vertex 10.041 20.296 2
      vertex 10.041 20.296 4
      vertex 12.113 20.296 4
    endloop
  endfacet
  facet normal -1 0 0
    outer loop
      vertex 10.041 5 2
      vertex 10.041 20.296 4
      vertex 10.041 20.296 2
    endloop
  endfacet
  facet normal -1 0 0
    outer loop
      vertex 10.041 5 2
      vertex 10.041 5 4
      vertex 10.041 20.296 4
    endloop
  endfacet
  facet normal 0 -1 0
    outer loop
      vertex 12.113 5 2
      vertex 10.041 5 4
      vertex 10.041 5 2
    endloop
  endfacet
  facet normal 0 -1 0
    outer loop
      vertex 12.113 5 2
      vertex 12.113 5 4
      vertex 10.041 5 4
    endloop
  endfacet
  facet normal 1 0 0
    outer loop
      vertex 12.113 20.296 2
      vertex 12.113 5 4
      vertex 12.113 5 2
    endloop
  endfacet
  facet normal 1 0 -0
    outer loop
      vertex 12.113 20.296 2
      vertex 12.113 20.296 4
      vertex 12.113 5 4
    endloop
  endfacet
  facet normal 0 1 0
    outer loop
      vertex 17.874 20.296 2
      vertex 19.946 20.296 4
      vertex 19.946 20.296 2
    endloop
  endfacet
  facet normal 0 1 0
    outer loop
      vertex 17.874 20.296 2
      vertex 17.874 20.296 4
      vertex 19.946 20.296 4
    endloop
  endfacet
  facet normal -1 0 0
    outer loop
      vertex 17.874 5 2
      vertex 17.874 20.296 4
      vertex 17.874 20.296 2
    endloop
  endfacet
  facet normal -1 0 0
    outer loop
      vertex 17.874 5 2
      vertex 17.874 5 4
      vertex 17.874 20.296 4
    endloop
  endfacet
  facet normal 0 -1 0
    outer loop
      vertex 19.946 5 2
      vertex 17.874 5 4
      vertex 17.874 5 2
    endloop
  endfacet
  facet normal 0 -1 0
    outer loop
      vertex 19.946 5 2
      vertex 19.946 5 4
      vertex 17.874 5 4
    endloop
  endfacet
  facet normal 1 0 0
    outer loop
      vertex 19.946 20.296 2
      vertex 19.946 5 4
      vertex 19.946 5 2
    endloop
  endfacet
  facet normal 1 0 -0
    outer loop
      vertex 19.946 20.296 2
      vertex 19.946 20.296 4
      vertex 19.946 5 4
    endloop
  endfacet
endsolid OpenSCAD_Model
