solid OpenSCAD_Model
  facet normal 0 0 -1
    outer loop
      vertex 10.041 20.296 2
      vertex 12.113 20.296 2
      vertex 12.113 5 2
    endloop
  endfacet
  facet normal 0 0 -1
    outer loop
      vertex 10.041 20.296 2
      vertex 12.113 5 2
      vertex 10.041 5 2
    endloop
  endfacet
  facet normal 0 0 -1
    outer loop
      vertex 27.448 5 2
      vertex 19.726 6.69199 2
      vertex 27.448 6.69199 2
    endloop
  endfacet
  facet normal -0 -0 -1
    outer loop
      vertex 19.726 20.296 2
      vertex 19.726 6.69199 2
      vertex 17.655 20.296 2
    endloop
  endfacet
  facet normal 0 0 -1
    outer loop
      vertex 27.448 5 2
      vertex 17.655 5 2
      vertex 19.726 6.69199 2
    endloop
  endfacet
  facet normal -0 0 -1
    outer loop
      vertex 19.726 6.69199 2
      vertex 17.655 5 2
      vertex 17.655 20.296 2
    endloop
  endfacet
  facet normal 0 -0 1
    outer loop
      vertex 12.113 5 4
      vertex 12.113 20.296 4
      vertex 10.041 20.296 4
    endloop
  endfacet
  facet normal 0 0 1
    outer loop
      vertex 10.041 5 4
      vertex 12.113 5 4
      vertex 10.041 20.296 4
    endloop
  endfacet
  facet normal 0 0 1
    outer loop
      vertex 27.448 6.69199 4
      vertex 19.726 6.69199 4
      vertex 27.448 5 4
    endloop
  endfacet
  facet normal -0 0 1
    outer loop
      vertex 17.655 20.296 4
      vertex 19.726 6.69199 4
      vertex 19.726 20.296 4
    endloop
  endfacet
  facet normal 0 0 1
    outer loop
      vertex 19.726 6.69199 4
      vertex 17.655 5 4
      vertex 27.448 5 4
    endloop
  endfacet
  facet normal 0 0 1
    outer loop
      vertex 17.655 20.296 4
      vertex 17.655 5 4
      vertex 19.726 6.69199 4
    endloop
  endfacet
  facet normal 0 1 0
    outer loop
      vertex 10.041 20.296 2
      vertex 12.113 20.296 4
      vertex 12.113 20.296 2
    endloop
  endfacet
  facet normal 0 1 0
    outer loop
      vertex 10.041 20.296 2
      vertex 10.041 20.296 4
      vertex 12.113 20.296 4
    endloop
  endfacet
  facet normal -1 0 0
    outer loop
      vertex 10.041 5 2
      vertex 10.041 20.296 4
      vertex 10.041 20.296 2
    endloop
  endfacet
  facet normal -1 0 0
    outer loop
      vertex 10.041 5 2
      vertex 10.041 5 4
      vertex 10.041 20.296 4
    endloop
  endfacet
  facet normal 0 -1 0
    outer loop
      vertex 12.113 5 2
      vertex 10.041 5 4
      vertex 10.041 5 2
    endloop
  endfacet
  facet normal 0 -1 0
    outer loop
      vertex 12.113 5 2
      vertex 12.113 5 4
      vertex 10.041 5 4
    endloop
  endfacet
  facet normal 1 0 0
    outer loop
      vertex 12.113 20.296 2
      vertex 12.113 5 4
      vertex 12.113 5 2
    endloop
  endfacet
  facet normal 1 0 -0
    outer loop
      vertex 12.113 20.296 2
      vertex 12.113 20.296 4
      vertex 12.113 5 4
    endloop
  endfacet
  facet normal 0 1 0
    outer loop
      vertex 19.726 6.69199 2
      vertex 27.448 6.69199 4
      vertex 27.448 6.69199 2
    endloop
  endfacet
  facet normal 0 1 0
    outer loop
      vertex 19.726 6.69199 2
      vertex 19.726 6.69199 4
      vertex 27.448 6.69199 4
    endloop
  endfacet
  facet normal 1 0 0
    outer loop
      vertex 19.726 20.296 2
      vertex 19.726 6.69199 4
      vertex 19.726 6.69199 2
    endloop
  endfacet
  facet normal 1 0 -0
    outer loop
      vertex 19.726 20.296 2
      vertex 19.726 20.296 4
      vertex 19.726 6.69199 4
    endloop
  endfacet
  facet normal 0 1 0
    outer loop
      vertex 17.655 20.296 2
      vertex 19.726 20.296 4
      vertex 19.726 20.296 2
    endloop
  endfacet
  facet normal 0 1 0
    outer loop
      vertex 17.655 20.296 2
      vertex 17.655 20.296 4
      vertex 19.726 20.296 4
    endloop
  endfacet
  facet normal -1 0 0
    outer loop
      vertex 17.655 5 2
      vertex 17.655 20.296 4
      vertex 17.655 20.296 2
    endloop
  endfacet
  facet normal -1 0 0
    outer loop
      vertex 17.655 5 2
      vertex 17.655 5 4
      vertex 17.655 20.296 4
    endloop
  endfacet
  facet normal 0 -1 0
    outer loop
      vertex 27.448 5 2
      vertex 17.655 5 4
      vertex 17.655 5 2
    endloop
  endfacet
  facet normal 0 -1 0
    outer loop
      vertex 27.448 5 2
      vertex 27.448 5 4
      vertex 17.655 5 4
    endloop
  endfacet
  facet normal 1 0 0
    outer loop
      vertex 27.448 6.69199 2
      vertex 27.448 5 4
      vertex 27.448 5 2
    endloop
  endfacet
  facet normal 1 0 -0
    outer loop
      vertex 27.448 6.69199 2
      vertex 27.448 6.69199 4
      vertex 27.448 5 4
    endloop
  endfacet
endsolid OpenSCAD_Model
