solid OpenSCAD_Model
  facet normal 0 0 -1
    outer loop
      vertex 29.478 0.882233 2
      vertex 29.713 2.38968 2
      vertex 30.141 1.01501 2
    endloop
  endfacet
  facet normal 0 0 -1
    outer loop
      vertex 29.297 2.34268 2
      vertex 29.713 2.38968 2
      vertex 29.478 0.882233 2
    endloop
  endfacet
  facet normal 0 0 -1
    outer loop
      vertex 29.713 2.38968 2
      vertex 30.141 2.468 2
      vertex 30.141 1.01501 2
    endloop
  endfacet
  facet normal 0 0 -1
    outer loop
      vertex 28.893 2.32701 2
      vertex 29.297 2.34268 2
      vertex 29.478 0.882233 2
    endloop
  endfacet
  facet normal 0 0 -1
    outer loop
      vertex 28.8343 0.802567 2
      vertex 28.893 2.32701 2
      vertex 29.478 0.882233 2
    endloop
  endfacet
  facet normal -0 0 -1
    outer loop
      vertex 28.8343 0.802567 2
      vertex 28.21 0.776001 2
      vertex 28.893 2.32701 2
    endloop
  endfacet
  facet normal -0 0 -1
    outer loop
      vertex 28.893 2.32701 2
      vertex 28.21 0.776001 2
      vertex 28.1983 2.39479 2
    endloop
  endfacet
  facet normal -0 0 -1
    outer loop
      vertex 28.1983 2.39479 2
      vertex 27.1824 0.879227 2
      vertex 27.589 2.59811 2
    endloop
  endfacet
  facet normal 0 0 -1
    outer loop
      vertex 25.514 1.705 2
      vertex 26.615 3.42767 2
      vertex 27.065 2.93701 2
    endloop
  endfacet
  facet normal 0 0 -1
    outer loop
      vertex 24.2753 3.49701 2
      vertex 26.2263 4.08768 2
      vertex 24.852 2.46268 2
    endloop
  endfacet
  facet normal 0 0 -1
    outer loop
      vertex 27.6892 5.35933 2
      vertex 26.0849 6.62633 2
      vertex 27.4392 7.17032 2
    endloop
  endfacet
  facet normal 0 0 -1
    outer loop
      vertex 19.6326 9.38699 2
      vertex 17.249 9.85988 2
      vertex 19.1499 10.907 2
    endloop
  endfacet
  facet normal -0 0 -1
    outer loop
      vertex 31.3269 8.89377 2
      vertex 30.423 7.37799 2
      vertex 29.3067 9.31499 2
    endloop
  endfacet
  facet normal -0 0 -1
    outer loop
      vertex 31.8692 10.6651 2
      vertex 31.3269 8.89377 2
      vertex 29.7787 10.853 2
    endloop
  endfacet
  facet normal 0 0 -1
    outer loop
      vertex 28.52 8.077 2
      vertex 30.423 7.37799 2
      vertex 29.1972 6.17966 2
    endloop
  endfacet
  facet normal 0 0 -1
    outer loop
      vertex 29.936 12.691 2
      vertex 32.05 12.692 2
      vertex 31.8692 10.6651 2
    endloop
  endfacet
  facet normal -0 0 -1
    outer loop
      vertex 27.3131 20.076 2
      vertex 26.0841 18.6152 2
      vertex 25.9644 20.385 2
    endloop
  endfacet
  facet normal 0 0 -1
    outer loop
      vertex 24.479 18.796 2
      vertex 25.9644 20.385 2
      vertex 26.0841 18.6152 2
    endloop
  endfacet
  facet normal 0 0 -1
    outer loop
      vertex 28.509 17.169 2
      vertex 27.4274 18.0729 2
      vertex 29.5769 18.8495 2
    endloop
  endfacet
  facet normal 0 0 -1
    outer loop
      vertex 29.3018 15.9488 2
      vertex 28.509 17.169 2
      vertex 30.4502 17.9512 2
    endloop
  endfacet
  facet normal 0 0 -1
    outer loop
      vertex 24.478 20.488 2
      vertex 22.861 18.6177 2
      vertex 22.2667 20.2584 2
    endloop
  endfacet
  facet normal -0 0 -1
    outer loop
      vertex 31.144 16.866 2
      vertex 29.3018 15.9488 2
      vertex 30.4502 17.9512 2
    endloop
  endfacet
  facet normal 0 0 -1
    outer loop
      vertex 19.6254 15.9777 2
      vertex 19.1481 14.4777 2
      vertex 17.108 14.9571 2
    endloop
  endfacet
  facet normal 0 -0 -1
    outer loop
      vertex 20.4047 19.5698 2
      vertex 20.421 17.191 2
      vertex 18.892 18.422 2
    endloop
  endfacet
  facet normal 0 -0 -1
    outer loop
      vertex 22.2667 20.2584 2
      vertex 22.861 18.6177 2
      vertex 21.5083 18.0827 2
    endloop
  endfacet
  facet normal 0 0 -1
    outer loop
      vertex 23.784 4.80801 2
      vertex 22.8677 6.63232 2
      vertex 24.457 6.44499 2
    endloop
  endfacet
  facet normal 0 -0 -1
    outer loop
      vertex 20.437 8.131 2
      vertex 21.5277 7.19432 2
      vertex 20.079 5.89699 2
    endloop
  endfacet
  facet normal 0 -0 -1
    outer loop
      vertex 21.5277 7.19432 2
      vertex 22.8677 6.63232 2
      vertex 21.1827 5.34 2
    endloop
  endfacet
  facet normal 0 0 -1
    outer loop
      vertex 21.1827 5.34 2
      vertex 22.8677 6.63232 2
      vertex 22.4177 4.97701 2
    endloop
  endfacet
  facet normal 0 0 -1
    outer loop
      vertex 22.4177 4.97701 2
      vertex 22.8677 6.63232 2
      vertex 23.784 4.80801 2
    endloop
  endfacet
  facet normal 0 0 -1
    outer loop
      vertex 19.1236 6.6371 2
      vertex 20.437 8.131 2
      vertex 20.079 5.89699 2
    endloop
  endfacet
  facet normal 0 0 -1
    outer loop
      vertex 18.3319 7.54811 2
      vertex 20.437 8.131 2
      vertex 19.1236 6.6371 2
    endloop
  endfacet
  facet normal 0 0 -1
    outer loop
      vertex 24.852 2.46268 2
      vertex 26.2263 4.08768 2
      vertex 26.615 3.42767 2
    endloop
  endfacet
  facet normal 0 0 -1
    outer loop
      vertex 26.2838 1.1889 2
      vertex 25.514 1.705 2
      vertex 27.065 2.93701 2
    endloop
  endfacet
  facet normal 0 0 -1
    outer loop
      vertex 24.2753 3.49701 2
      vertex 25.899 4.91701 2
      vertex 26.2263 4.08768 2
    endloop
  endfacet
  facet normal 0 -0 -1
    outer loop
      vertex 24.457 6.44499 2
      vertex 25.899 4.91701 2
      vertex 23.784 4.80801 2
    endloop
  endfacet
  facet normal 0 0 -1
    outer loop
      vertex 23.784 4.80801 2
      vertex 25.899 4.91701 2
      vertex 24.2753 3.49701 2
    endloop
  endfacet
  facet normal 0 0 -1
    outer loop
      vertex 24.852 2.46268 2
      vertex 26.615 3.42767 2
      vertex 25.514 1.705 2
    endloop
  endfacet
  facet normal -0 0 -1
    outer loop
      vertex 27.589 2.59811 2
      vertex 26.2838 1.1889 2
      vertex 27.065 2.93701 2
    endloop
  endfacet
  facet normal 0 0 -1
    outer loop
      vertex 27.589 2.59811 2
      vertex 27.1824 0.879227 2
      vertex 26.2838 1.1889 2
    endloop
  endfacet
  facet normal 0 -0 -1
    outer loop
      vertex 28.1983 2.39479 2
      vertex 28.21 0.776001 2
      vertex 27.1824 0.879227 2
    endloop
  endfacet
  facet normal 0 0 -1
    outer loop
      vertex 29.3018 15.9488 2
      vertex 31.6473 15.6169 2
      vertex 29.7775 14.4561 2
    endloop
  endfacet
  facet normal 0 0 -1
    outer loop
      vertex 17.704 8.62999 2
      vertex 19.6326 9.38699 2
      vertex 18.3319 7.54811 2
    endloop
  endfacet
  facet normal 0 0 -1
    outer loop
      vertex 21.5277 7.19432 2
      vertex 21.1827 5.34 2
      vertex 20.079 5.89699 2
    endloop
  endfacet
  facet normal -0 0 -1
    outer loop
      vertex 32.05 12.692 2
      vertex 29.936 12.691 2
      vertex 31.9493 14.2256 2
    endloop
  endfacet
  facet normal 0 0 -1
    outer loop
      vertex 18.3319 7.54811 2
      vertex 19.6326 9.38699 2
      vertex 20.437 8.131 2
    endloop
  endfacet
  facet normal 0 0 -1
    outer loop
      vertex 17.704 8.62999 2
      vertex 17.249 9.85988 2
      vertex 19.6326 9.38699 2
    endloop
  endfacet
  facet normal 0 0 -1
    outer loop
      vertex 19.1499 10.907 2
      vertex 16.976 11.2135 2
      vertex 18.989 12.691 2
    endloop
  endfacet
  facet normal 0 0 -1
    outer loop
      vertex 17.249 9.85988 2
      vertex 16.976 11.2135 2
      vertex 19.1499 10.907 2
    endloop
  endfacet
  facet normal 0 0 -1
    outer loop
      vertex 18.989 12.691 2
      vertex 16.885 12.691 2
      vertex 19.1481 14.4777 2
    endloop
  endfacet
  facet normal 0 0 -1
    outer loop
      vertex 16.976 11.2135 2
      vertex 16.885 12.691 2
      vertex 18.989 12.691 2
    endloop
  endfacet
  facet normal -0 0 -1
    outer loop
      vertex 19.1481 14.4777 2
      vertex 16.885 12.691 2
      vertex 17.108 14.9571 2
    endloop
  endfacet
  facet normal 0 0 -1
    outer loop
      vertex 19.6254 15.9777 2
      vertex 17.777 16.8674 2
      vertex 18.892 18.422 2
    endloop
  endfacet
  facet normal 0 0 -1
    outer loop
      vertex 17.108 14.9571 2
      vertex 17.777 16.8674 2
      vertex 19.6254 15.9777 2
    endloop
  endfacet
  facet normal -0 0 -1
    outer loop
      vertex 20.421 17.191 2
      vertex 19.6254 15.9777 2
      vertex 18.892 18.422 2
    endloop
  endfacet
  facet normal -0 0 -1
    outer loop
      vertex 21.5083 18.0827 2
      vertex 20.421 17.191 2
      vertex 20.4047 19.5698 2
    endloop
  endfacet
  facet normal 0 0 -1
    outer loop
      vertex 22.2667 20.2584 2
      vertex 21.5083 18.0827 2
      vertex 20.4047 19.5698 2
    endloop
  endfacet
  facet normal 0 0 -1
    outer loop
      vertex 24.479 18.796 2
      vertex 24.478 20.488 2
      vertex 25.9644 20.385 2
    endloop
  endfacet
  facet normal 0 0 -1
    outer loop
      vertex 22.861 18.6177 2
      vertex 24.478 20.488 2
      vertex 24.479 18.796 2
    endloop
  endfacet
  facet normal 0 -0 -1
    outer loop
      vertex 27.3131 20.076 2
      vertex 27.4274 18.0729 2
      vertex 26.0841 18.6152 2
    endloop
  endfacet
  facet normal 0 0 -1
    outer loop
      vertex 27.4274 18.0729 2
      vertex 28.524 19.561 2
      vertex 29.5769 18.8495 2
    endloop
  endfacet
  facet normal 0 0 -1
    outer loop
      vertex 27.3131 20.076 2
      vertex 28.524 19.561 2
      vertex 27.4274 18.0729 2
    endloop
  endfacet
  facet normal 0 0 -1
    outer loop
      vertex 28.509 17.169 2
      vertex 29.5769 18.8495 2
      vertex 30.4502 17.9512 2
    endloop
  endfacet
  facet normal 0 -0 -1
    outer loop
      vertex 31.144 16.866 2
      vertex 31.6473 15.6169 2
      vertex 29.3018 15.9488 2
    endloop
  endfacet
  facet normal 0 0 -1
    outer loop
      vertex 29.7775 14.4561 2
      vertex 31.9493 14.2256 2
      vertex 29.936 12.691 2
    endloop
  endfacet
  facet normal 0 -0 -1
    outer loop
      vertex 31.6473 15.6169 2
      vertex 31.9493 14.2256 2
      vertex 29.7775 14.4561 2
    endloop
  endfacet
  facet normal 0 0 -1
    outer loop
      vertex 31.8692 10.6651 2
      vertex 29.7787 10.853 2
      vertex 29.936 12.691 2
    endloop
  endfacet
  facet normal 0 0 -1
    outer loop
      vertex 31.3269 8.89377 2
      vertex 29.3067 9.31499 2
      vertex 29.7787 10.853 2
    endloop
  endfacet
  facet normal 0 0 -1
    outer loop
      vertex 30.423 7.37799 2
      vertex 28.52 8.077 2
      vertex 29.3067 9.31499 2
    endloop
  endfacet
  facet normal 0 0 -1
    outer loop
      vertex 29.1972 6.17966 2
      vertex 27.4392 7.17032 2
      vertex 28.52 8.077 2
    endloop
  endfacet
  facet normal -0 0 -1
    outer loop
      vertex 29.1972 6.17966 2
      vertex 27.6892 5.35933 2
      vertex 27.4392 7.17032 2
    endloop
  endfacet
  facet normal -0 0 -1
    outer loop
      vertex 27.6892 5.35933 2
      vertex 25.899 4.91701 2
      vertex 26.0849 6.62633 2
    endloop
  endfacet
  facet normal 0 0 -1
    outer loop
      vertex 26.0849 6.62633 2
      vertex 25.899 4.91701 2
      vertex 24.457 6.44499 2
    endloop
  endfacet
  facet normal -0 -0 -1
    outer loop
      vertex 12.113 20.296 2
      vertex 12.113 5 2
      vertex 10.041 20.296 2
    endloop
  endfacet
  facet normal 0 0 -1
    outer loop
      vertex 10.041 20.296 2
      vertex 12.113 5 2
      vertex 10.041 5 2
    endloop
  endfacet
  facet normal 0 0 1
    outer loop
      vertex 30.141 1.01501 4
      vertex 29.713 2.38968 4
      vertex 29.478 0.882233 4
    endloop
  endfacet
  facet normal 0 -0 1
    outer loop
      vertex 29.478 0.882233 4
      vertex 29.713 2.38968 4
      vertex 29.297 2.34268 4
    endloop
  endfacet
  facet normal 0 -0 1
    outer loop
      vertex 30.141 1.01501 4
      vertex 30.141 2.468 4
      vertex 29.713 2.38968 4
    endloop
  endfacet
  facet normal 0 0 1
    outer loop
      vertex 29.478 0.882233 4
      vertex 29.297 2.34268 4
      vertex 28.893 2.32701 4
    endloop
  endfacet
  facet normal 0 0 1
    outer loop
      vertex 29.478 0.882233 4
      vertex 28.893 2.32701 4
      vertex 28.8343 0.802567 4
    endloop
  endfacet
  facet normal 0 0 1
    outer loop
      vertex 28.893 2.32701 4
      vertex 28.21 0.776001 4
      vertex 28.8343 0.802567 4
    endloop
  endfacet
  facet normal 0 0 1
    outer loop
      vertex 28.1983 2.39479 4
      vertex 28.21 0.776001 4
      vertex 28.893 2.32701 4
    endloop
  endfacet
  facet normal 0 0 1
    outer loop
      vertex 27.589 2.59811 4
      vertex 27.1824 0.879227 4
      vertex 28.1983 2.39479 4
    endloop
  endfacet
  facet normal 0 0 1
    outer loop
      vertex 27.065 2.93701 4
      vertex 26.615 3.42767 4
      vertex 25.514 1.705 4
    endloop
  endfacet
  facet normal 0 -0 1
    outer loop
      vertex 24.852 2.46268 4
      vertex 26.2263 4.08768 4
      vertex 24.2753 3.49701 4
    endloop
  endfacet
  facet normal 0 0 1
    outer loop
      vertex 27.4392 7.17032 4
      vertex 26.0849 6.62633 4
      vertex 27.6892 5.35933 4
    endloop
  endfacet
  facet normal 0 0 1
    outer loop
      vertex 19.1499 10.907 4
      vertex 17.249 9.85988 4
      vertex 19.6326 9.38699 4
    endloop
  endfacet
  facet normal 0 0 1
    outer loop
      vertex 29.3067 9.31499 4
      vertex 30.423 7.37799 4
      vertex 31.3269 8.89377 4
    endloop
  endfacet
  facet normal 0 0 1
    outer loop
      vertex 29.7787 10.853 4
      vertex 31.3269 8.89377 4
      vertex 31.8692 10.6651 4
    endloop
  endfacet
  facet normal 0 -0 1
    outer loop
      vertex 29.1972 6.17966 4
      vertex 30.423 7.37799 4
      vertex 28.52 8.077 4
    endloop
  endfacet
  facet normal 0 -0 1
    outer loop
      vertex 31.8692 10.6651 4
      vertex 32.05 12.692 4
      vertex 29.936 12.691 4
    endloop
  endfacet
  facet normal 0 0 1
    outer loop
      vertex 25.9644 20.385 4
      vertex 26.0841 18.6152 4
      vertex 27.3131 20.076 4
    endloop
  endfacet
  facet normal 0 0 1
    outer loop
      vertex 26.0841 18.6152 4
      vertex 25.9644 20.385 4
      vertex 24.479 18.796 4
    endloop
  endfacet
  facet normal 0 0 1
    outer loop
      vertex 29.5769 18.8495 4
      vertex 27.4274 18.0729 4
      vertex 28.509 17.169 4
    endloop
  endfacet
  facet normal 0 0 1
    outer loop
      vertex 30.4502 17.9512 4
      vertex 28.509 17.169 4
      vertex 29.3018 15.9488 4
    endloop
  endfacet
  facet normal -0 0 1
    outer loop
      vertex 22.2667 20.2584 4
      vertex 22.861 18.6177 4
      vertex 24.478 20.488 4
    endloop
  endfacet
  facet normal 0 0 1
    outer loop
      vertex 30.4502 17.9512 4
      vertex 29.3018 15.9488 4
      vertex 31.144 16.866 4
    endloop
  endfacet
  facet normal -0 0 1
    outer loop
      vertex 17.108 14.9571 4
      vertex 19.1481 14.4777 4
      vertex 19.6254 15.9777 4
    endloop
  endfacet
  facet normal -0 0 1
    outer loop
      vertex 18.892 18.422 4
      vertex 20.421 17.191 4
      vertex 20.4047 19.5698 4
    endloop
  endfacet
  facet normal 0 0 1
    outer loop
      vertex 21.5083 18.0827 4
      vertex 22.861 18.6177 4
      vertex 22.2667 20.2584 4
    endloop
  endfacet
  facet normal 0 0 1
    outer loop
      vertex 24.457 6.44499 4
      vertex 22.8677 6.63232 4
      vertex 23.784 4.80801 4
    endloop
  endfacet
  facet normal 0 0 1
    outer loop
      vertex 20.079 5.89699 4
      vertex 21.5277 7.19432 4
      vertex 20.437 8.131 4
    endloop
  endfacet
  facet normal 0 0 1
    outer loop
      vertex 21.1827 5.34 4
      vertex 22.8677 6.63232 4
      vertex 21.5277 7.19432 4
    endloop
  endfacet
  facet normal 0 -0 1
    outer loop
      vertex 22.4177 4.97701 4
      vertex 22.8677 6.63232 4
      vertex 21.1827 5.34 4
    endloop
  endfacet
  facet normal 0 0 1
    outer loop
      vertex 23.784 4.80801 4
      vertex 22.8677 6.63232 4
      vertex 22.4177 4.97701 4
    endloop
  endfacet
  facet normal 0 -0 1
    outer loop
      vertex 20.079 5.89699 4
      vertex 20.437 8.131 4
      vertex 19.1236 6.6371 4
    endloop
  endfacet
  facet normal 0 -0 1
    outer loop
      vertex 19.1236 6.6371 4
      vertex 20.437 8.131 4
      vertex 18.3319 7.54811 4
    endloop
  endfacet
  facet normal 0 0 1
    outer loop
      vertex 26.615 3.42767 4
      vertex 26.2263 4.08768 4
      vertex 24.852 2.46268 4
    endloop
  endfacet
  facet normal 0 0 1
    outer loop
      vertex 27.065 2.93701 4
      vertex 25.514 1.705 4
      vertex 26.2838 1.1889 4
    endloop
  endfacet
  facet normal 0 0 1
    outer loop
      vertex 26.2263 4.08768 4
      vertex 25.899 4.91701 4
      vertex 24.2753 3.49701 4
    endloop
  endfacet
  facet normal 0 0 1
    outer loop
      vertex 23.784 4.80801 4
      vertex 25.899 4.91701 4
      vertex 24.457 6.44499 4
    endloop
  endfacet
  facet normal 0 -0 1
    outer loop
      vertex 24.2753 3.49701 4
      vertex 25.899 4.91701 4
      vertex 23.784 4.80801 4
    endloop
  endfacet
  facet normal 0 -0 1
    outer loop
      vertex 25.514 1.705 4
      vertex 26.615 3.42767 4
      vertex 24.852 2.46268 4
    endloop
  endfacet
  facet normal 0 0 1
    outer loop
      vertex 27.065 2.93701 4
      vertex 26.2838 1.1889 4
      vertex 27.589 2.59811 4
    endloop
  endfacet
  facet normal -0 0 1
    outer loop
      vertex 26.2838 1.1889 4
      vertex 27.1824 0.879227 4
      vertex 27.589 2.59811 4
    endloop
  endfacet
  facet normal -0 0 1
    outer loop
      vertex 27.1824 0.879227 4
      vertex 28.21 0.776001 4
      vertex 28.1983 2.39479 4
    endloop
  endfacet
  facet normal 0 -0 1
    outer loop
      vertex 29.7775 14.4561 4
      vertex 31.6473 15.6169 4
      vertex 29.3018 15.9488 4
    endloop
  endfacet
  facet normal 0 -0 1
    outer loop
      vertex 18.3319 7.54811 4
      vertex 19.6326 9.38699 4
      vertex 17.704 8.62999 4
    endloop
  endfacet
  facet normal -0 0 1
    outer loop
      vertex 20.079 5.89699 4
      vertex 21.1827 5.34 4
      vertex 21.5277 7.19432 4
    endloop
  endfacet
  facet normal 0 0 1
    outer loop
      vertex 31.9493 14.2256 4
      vertex 29.936 12.691 4
      vertex 32.05 12.692 4
    endloop
  endfacet
  facet normal 0 0 1
    outer loop
      vertex 20.437 8.131 4
      vertex 19.6326 9.38699 4
      vertex 18.3319 7.54811 4
    endloop
  endfacet
  facet normal 0 0 1
    outer loop
      vertex 19.6326 9.38699 4
      vertex 17.249 9.85988 4
      vertex 17.704 8.62999 4
    endloop
  endfacet
  facet normal 0 0 1
    outer loop
      vertex 18.989 12.691 4
      vertex 16.976 11.2135 4
      vertex 19.1499 10.907 4
    endloop
  endfacet
  facet normal 0 0 1
    outer loop
      vertex 19.1499 10.907 4
      vertex 16.976 11.2135 4
      vertex 17.249 9.85988 4
    endloop
  endfacet
  facet normal 0 0 1
    outer loop
      vertex 19.1481 14.4777 4
      vertex 16.885 12.691 4
      vertex 18.989 12.691 4
    endloop
  endfacet
  facet normal 0 0 1
    outer loop
      vertex 18.989 12.691 4
      vertex 16.885 12.691 4
      vertex 16.976 11.2135 4
    endloop
  endfacet
  facet normal 0 0 1
    outer loop
      vertex 17.108 14.9571 4
      vertex 16.885 12.691 4
      vertex 19.1481 14.4777 4
    endloop
  endfacet
  facet normal 0 0 1
    outer loop
      vertex 18.892 18.422 4
      vertex 17.777 16.8674 4
      vertex 19.6254 15.9777 4
    endloop
  endfacet
  facet normal 0 0 1
    outer loop
      vertex 19.6254 15.9777 4
      vertex 17.777 16.8674 4
      vertex 17.108 14.9571 4
    endloop
  endfacet
  facet normal 0 0 1
    outer loop
      vertex 18.892 18.422 4
      vertex 19.6254 15.9777 4
      vertex 20.421 17.191 4
    endloop
  endfacet
  facet normal 0 0 1
    outer loop
      vertex 20.4047 19.5698 4
      vertex 20.421 17.191 4
      vertex 21.5083 18.0827 4
    endloop
  endfacet
  facet normal -0 0 1
    outer loop
      vertex 20.4047 19.5698 4
      vertex 21.5083 18.0827 4
      vertex 22.2667 20.2584 4
    endloop
  endfacet
  facet normal 0 0 1
    outer loop
      vertex 25.9644 20.385 4
      vertex 24.478 20.488 4
      vertex 24.479 18.796 4
    endloop
  endfacet
  facet normal 0 0 1
    outer loop
      vertex 24.479 18.796 4
      vertex 24.478 20.488 4
      vertex 22.861 18.6177 4
    endloop
  endfacet
  facet normal -0 0 1
    outer loop
      vertex 26.0841 18.6152 4
      vertex 27.4274 18.0729 4
      vertex 27.3131 20.076 4
    endloop
  endfacet
  facet normal 0 0 1
    outer loop
      vertex 29.5769 18.8495 4
      vertex 28.524 19.561 4
      vertex 27.4274 18.0729 4
    endloop
  endfacet
  facet normal 0 -0 1
    outer loop
      vertex 27.4274 18.0729 4
      vertex 28.524 19.561 4
      vertex 27.3131 20.076 4
    endloop
  endfacet
  facet normal 0 0 1
    outer loop
      vertex 30.4502 17.9512 4
      vertex 29.5769 18.8495 4
      vertex 28.509 17.169 4
    endloop
  endfacet
  facet normal -0 0 1
    outer loop
      vertex 29.3018 15.9488 4
      vertex 31.6473 15.6169 4
      vertex 31.144 16.866 4
    endloop
  endfacet
  facet normal 0 -0 1
    outer loop
      vertex 29.936 12.691 4
      vertex 31.9493 14.2256 4
      vertex 29.7775 14.4561 4
    endloop
  endfacet
  facet normal -0 0 1
    outer loop
      vertex 29.7775 14.4561 4
      vertex 31.9493 14.2256 4
      vertex 31.6473 15.6169 4
    endloop
  endfacet
  facet normal 0 0 1
    outer loop
      vertex 29.936 12.691 4
      vertex 29.7787 10.853 4
      vertex 31.8692 10.6651 4
    endloop
  endfacet
  facet normal 0 0 1
    outer loop
      vertex 29.7787 10.853 4
      vertex 29.3067 9.31499 4
      vertex 31.3269 8.89377 4
    endloop
  endfacet
  facet normal 0 0 1
    outer loop
      vertex 29.3067 9.31499 4
      vertex 28.52 8.077 4
      vertex 30.423 7.37799 4
    endloop
  endfacet
  facet normal 0 0 1
    outer loop
      vertex 28.52 8.077 4
      vertex 27.4392 7.17032 4
      vertex 29.1972 6.17966 4
    endloop
  endfacet
  facet normal 0 0 1
    outer loop
      vertex 27.4392 7.17032 4
      vertex 27.6892 5.35933 4
      vertex 29.1972 6.17966 4
    endloop
  endfacet
  facet normal 0 0 1
    outer loop
      vertex 26.0849 6.62633 4
      vertex 25.899 4.91701 4
      vertex 27.6892 5.35933 4
    endloop
  endfacet
  facet normal -0 0 1
    outer loop
      vertex 24.457 6.44499 4
      vertex 25.899 4.91701 4
      vertex 26.0849 6.62633 4
    endloop
  endfacet
  facet normal -0 0 1
    outer loop
      vertex 10.041 20.296 4
      vertex 12.113 5 4
      vertex 12.113 20.296 4
    endloop
  endfacet
  facet normal 0 0 1
    outer loop
      vertex 10.041 5 4
      vertex 12.113 5 4
      vertex 10.041 20.296 4
    endloop
  endfacet
  facet normal 0.122833 -0.992427 0
    outer loop
      vertex 29.478 0.882233 2
      vertex 28.8343 0.802567 4
      vertex 28.8343 0.802567 2
    endloop
  endfacet
  facet normal 0.122833 -0.992427 0
    outer loop
      vertex 29.478 0.882233 2
      vertex 29.478 0.882233 4
      vertex 28.8343 0.802567 4
    endloop
  endfacet
  facet normal 0.196372 -0.980529 0
    outer loop
      vertex 30.141 1.01501 2
      vertex 29.478 0.882233 4
      vertex 29.478 0.882233 2
    endloop
  endfacet
  facet normal 0.196372 -0.980529 0
    outer loop
      vertex 30.141 1.01501 2
      vertex 30.141 1.01501 4
      vertex 29.478 0.882233 4
    endloop
  endfacet
  facet normal 1 0 0
    outer loop
      vertex 30.141 2.468 2
      vertex 30.141 1.01501 4
      vertex 30.141 1.01501 2
    endloop
  endfacet
  facet normal 1 0 -0
    outer loop
      vertex 30.141 2.468 2
      vertex 30.141 2.468 4
      vertex 30.141 1.01501 4
    endloop
  endfacet
  facet normal -0.180006 0.983666 0
    outer loop
      vertex 29.713 2.38968 2
      vertex 30.141 2.468 4
      vertex 30.141 2.468 2
    endloop
  endfacet
  facet normal -0.180006 0.983666 0
    outer loop
      vertex 29.713 2.38968 2
      vertex 29.713 2.38968 4
      vertex 30.141 2.468 4
    endloop
  endfacet
  facet normal -0.11226 0.993679 0
    outer loop
      vertex 29.297 2.34268 2
      vertex 29.713 2.38968 4
      vertex 29.713 2.38968 2
    endloop
  endfacet
  facet normal -0.11226 0.993679 0
    outer loop
      vertex 29.297 2.34268 2
      vertex 29.297 2.34268 4
      vertex 29.713 2.38968 4
    endloop
  endfacet
  facet normal -0.0387607 0.999249 0
    outer loop
      vertex 28.893 2.32701 2
      vertex 29.297 2.34268 4
      vertex 29.297 2.34268 2
    endloop
  endfacet
  facet normal -0.0387607 0.999249 0
    outer loop
      vertex 28.893 2.32701 2
      vertex 28.893 2.32701 4
      vertex 29.297 2.34268 4
    endloop
  endfacet
  facet normal 0.0971095 0.995274 0
    outer loop
      vertex 28.1983 2.39479 2
      vertex 28.893 2.32701 4
      vertex 28.893 2.32701 2
    endloop
  endfacet
  facet normal 0.0971095 0.995274 -0
    outer loop
      vertex 28.1983 2.39479 2
      vertex 28.1983 2.39479 4
      vertex 28.893 2.32701 4
    endloop
  endfacet
  facet normal 0.316527 0.948583 0
    outer loop
      vertex 27.589 2.59811 2
      vertex 28.1983 2.39479 4
      vertex 28.1983 2.39479 2
    endloop
  endfacet
  facet normal 0.316527 0.948583 -0
    outer loop
      vertex 27.589 2.59811 2
      vertex 27.589 2.59811 4
      vertex 28.1983 2.39479 4
    endloop
  endfacet
  facet normal 0.543068 0.839689 0
    outer loop
      vertex 27.065 2.93701 2
      vertex 27.589 2.59811 4
      vertex 27.589 2.59811 2
    endloop
  endfacet
  facet normal 0.543068 0.839689 -0
    outer loop
      vertex 27.065 2.93701 2
      vertex 27.065 2.93701 4
      vertex 27.589 2.59811 4
    endloop
  endfacet
  facet normal 0.736987 0.675907 0
    outer loop
      vertex 26.615 3.42767 2
      vertex 27.065 2.93701 4
      vertex 27.065 2.93701 2
    endloop
  endfacet
  facet normal 0.736987 0.675907 -0
    outer loop
      vertex 26.615 3.42767 2
      vertex 26.615 3.42767 4
      vertex 27.065 2.93701 4
    endloop
  endfacet
  facet normal 0.861686 0.507441 0
    outer loop
      vertex 26.2263 4.08768 2
      vertex 26.615 3.42767 4
      vertex 26.615 3.42767 2
    endloop
  endfacet
  facet normal 0.861686 0.507441 -0
    outer loop
      vertex 26.2263 4.08768 2
      vertex 26.2263 4.08768 4
      vertex 26.615 3.42767 4
    endloop
  endfacet
  facet normal 0.930169 0.367132 0
    outer loop
      vertex 25.899 4.91701 2
      vertex 26.2263 4.08768 4
      vertex 26.2263 4.08768 2
    endloop
  endfacet
  facet normal 0.930169 0.367132 -0
    outer loop
      vertex 25.899 4.91701 2
      vertex 25.899 4.91701 4
      vertex 26.2263 4.08768 4
    endloop
  endfacet
  facet normal 0.239863 -0.970807 0
    outer loop
      vertex 27.6892 5.35933 2
      vertex 25.899 4.91701 4
      vertex 25.899 4.91701 2
    endloop
  endfacet
  facet normal 0.239863 -0.970807 0
    outer loop
      vertex 27.6892 5.35933 2
      vertex 27.6892 5.35933 4
      vertex 25.899 4.91701 4
    endloop
  endfacet
  facet normal 0.477857 -0.878437 0
    outer loop
      vertex 29.1972 6.17966 2
      vertex 27.6892 5.35933 4
      vertex 27.6892 5.35933 2
    endloop
  endfacet
  facet normal 0.477857 -0.878437 0
    outer loop
      vertex 29.1972 6.17966 2
      vertex 29.1972 6.17966 4
      vertex 27.6892 5.35933 4
    endloop
  endfacet
  facet normal 0.699055 -0.715068 0
    outer loop
      vertex 30.423 7.37799 2
      vertex 29.1972 6.17966 4
      vertex 29.1972 6.17966 2
    endloop
  endfacet
  facet normal 0.699055 -0.715068 0
    outer loop
      vertex 30.423 7.37799 2
      vertex 30.423 7.37799 4
      vertex 29.1972 6.17966 4
    endloop
  endfacet
  facet normal 0.858885 -0.512168 0
    outer loop
      vertex 31.3269 8.89377 2
      vertex 30.423 7.37799 4
      vertex 30.423 7.37799 2
    endloop
  endfacet
  facet normal 0.858885 -0.512168 0
    outer loop
      vertex 31.3269 8.89377 2
      vertex 31.3269 8.89377 4
      vertex 30.423 7.37799 4
    endloop
  endfacet
  facet normal 0.956187 -0.292755 0
    outer loop
      vertex 31.8692 10.6651 2
      vertex 31.3269 8.89377 4
      vertex 31.3269 8.89377 2
    endloop
  endfacet
  facet normal 0.956187 -0.292755 0
    outer loop
      vertex 31.8692 10.6651 2
      vertex 31.8692 10.6651 4
      vertex 31.3269 8.89377 4
    endloop
  endfacet
  facet normal 0.996046 -0.0888413 0
    outer loop
      vertex 32.05 12.692 2
      vertex 31.8692 10.6651 4
      vertex 31.8692 10.6651 2
    endloop
  endfacet
  facet normal 0.996046 -0.0888413 0
    outer loop
      vertex 32.05 12.692 2
      vertex 32.05 12.692 4
      vertex 31.8692 10.6651 4
    endloop
  endfacet
  facet normal 0.997853 0.0654982 0
    outer loop
      vertex 31.9493 14.2256 2
      vertex 32.05 12.692 4
      vertex 32.05 12.692 2
    endloop
  endfacet
  facet normal 0.997853 0.0654982 -0
    outer loop
      vertex 31.9493 14.2256 2
      vertex 31.9493 14.2256 4
      vertex 32.05 12.692 4
    endloop
  endfacet
  facet normal 0.977243 0.212121 0
    outer loop
      vertex 31.6473 15.6169 2
      vertex 31.9493 14.2256 4
      vertex 31.9493 14.2256 2
    endloop
  endfacet
  facet normal 0.977243 0.212121 -0
    outer loop
      vertex 31.6473 15.6169 2
      vertex 31.6473 15.6169 4
      vertex 31.9493 14.2256 4
    endloop
  endfacet
  facet normal 0.927527 0.373755 0
    outer loop
      vertex 31.144 16.866 2
      vertex 31.6473 15.6169 4
      vertex 31.6473 15.6169 2
    endloop
  endfacet
  facet normal 0.927527 0.373755 -0
    outer loop
      vertex 31.144 16.866 2
      vertex 31.144 16.866 4
      vertex 31.6473 15.6169 4
    endloop
  endfacet
  facet normal 0.842543 0.53863 0
    outer loop
      vertex 30.4502 17.9512 2
      vertex 31.144 16.866 4
      vertex 31.144 16.866 2
    endloop
  endfacet
  facet normal 0.842543 0.53863 -0
    outer loop
      vertex 30.4502 17.9512 2
      vertex 30.4502 17.9512 4
      vertex 31.144 16.866 4
    endloop
  endfacet
  facet normal 0.717011 0.697062 0
    outer loop
      vertex 29.5769 18.8495 2
      vertex 30.4502 17.9512 4
      vertex 30.4502 17.9512 2
    endloop
  endfacet
  facet normal 0.717011 0.697062 -0
    outer loop
      vertex 29.5769 18.8495 2
      vertex 29.5769 18.8495 4
      vertex 30.4502 17.9512 4
    endloop
  endfacet
  facet normal 0.559874 0.828578 0
    outer loop
      vertex 28.524 19.561 2
      vertex 29.5769 18.8495 4
      vertex 29.5769 18.8495 2
    endloop
  endfacet
  facet normal 0.559874 0.828578 -0
    outer loop
      vertex 28.524 19.561 2
      vertex 28.524 19.561 4
      vertex 29.5769 18.8495 4
    endloop
  endfacet
  facet normal 0.391379 0.92023 0
    outer loop
      vertex 27.3131 20.076 2
      vertex 28.524 19.561 4
      vertex 28.524 19.561 2
    endloop
  endfacet
  facet normal 0.391379 0.92023 -0
    outer loop
      vertex 27.3131 20.076 2
      vertex 27.3131 20.076 4
      vertex 28.524 19.561 4
    endloop
  endfacet
  facet normal 0.223333 0.974742 0
    outer loop
      vertex 25.9644 20.385 2
      vertex 27.3131 20.076 4
      vertex 27.3131 20.076 2
    endloop
  endfacet
  facet normal 0.223333 0.974742 -0
    outer loop
      vertex 25.9644 20.385 2
      vertex 25.9644 20.385 4
      vertex 27.3131 20.076 4
    endloop
  endfacet
  facet normal 0.0691247 0.997608 0
    outer loop
      vertex 24.478 20.488 2
      vertex 25.9644 20.385 4
      vertex 25.9644 20.385 2
    endloop
  endfacet
  facet normal 0.0691247 0.997608 -0
    outer loop
      vertex 24.478 20.488 2
      vertex 24.478 20.488 4
      vertex 25.9644 20.385 4
    endloop
  endfacet
  facet normal -0.103253 0.994655 0
    outer loop
      vertex 22.2667 20.2584 2
      vertex 24.478 20.488 4
      vertex 24.478 20.488 2
    endloop
  endfacet
  facet normal -0.103253 0.994655 0
    outer loop
      vertex 22.2667 20.2584 2
      vertex 22.2667 20.2584 4
      vertex 24.478 20.488 4
    endloop
  endfacet
  facet normal -0.346892 0.937905 0
    outer loop
      vertex 20.4047 19.5698 2
      vertex 22.2667 20.2584 4
      vertex 22.2667 20.2584 2
    endloop
  endfacet
  facet normal -0.346892 0.937905 0
    outer loop
      vertex 20.4047 19.5698 2
      vertex 20.4047 19.5698 4
      vertex 22.2667 20.2584 4
    endloop
  endfacet
  facet normal -0.604462 0.796634 0
    outer loop
      vertex 18.892 18.422 2
      vertex 20.4047 19.5698 4
      vertex 20.4047 19.5698 2
    endloop
  endfacet
  facet normal -0.604462 0.796634 0
    outer loop
      vertex 18.892 18.422 2
      vertex 18.892 18.422 4
      vertex 20.4047 19.5698 4
    endloop
  endfacet
  facet normal -0.812594 0.58283 0
    outer loop
      vertex 17.777 16.8674 2
      vertex 18.892 18.422 4
      vertex 18.892 18.422 2
    endloop
  endfacet
  facet normal -0.812594 0.58283 0
    outer loop
      vertex 17.777 16.8674 2
      vertex 17.777 16.8674 4
      vertex 18.892 18.422 4
    endloop
  endfacet
  facet normal -0.9438 0.330517 0
    outer loop
      vertex 17.108 14.9571 2
      vertex 17.777 16.8674 4
      vertex 17.777 16.8674 2
    endloop
  endfacet
  facet normal -0.9438 0.330517 0
    outer loop
      vertex 17.108 14.9571 2
      vertex 17.108 14.9571 4
      vertex 17.777 16.8674 4
    endloop
  endfacet
  facet normal -0.995193 0.0979365 0
    outer loop
      vertex 16.885 12.691 2
      vertex 17.108 14.9571 4
      vertex 17.108 14.9571 2
    endloop
  endfacet
  facet normal -0.995193 0.0979365 0
    outer loop
      vertex 16.885 12.691 2
      vertex 16.885 12.691 4
      vertex 17.108 14.9571 4
    endloop
  endfacet
  facet normal -0.998108 -0.0614785 0
    outer loop
      vertex 16.976 11.2135 2
      vertex 16.885 12.691 4
      vertex 16.885 12.691 2
    endloop
  endfacet
  facet normal -0.998108 -0.0614785 0
    outer loop
      vertex 16.976 11.2135 2
      vertex 16.976 11.2135 4
      vertex 16.885 12.691 4
    endloop
  endfacet
  facet normal -0.980264 -0.19769 0
    outer loop
      vertex 17.249 9.85988 2
      vertex 16.976 11.2135 4
      vertex 16.976 11.2135 2
    endloop
  endfacet
  facet normal -0.980264 -0.19769 0
    outer loop
      vertex 17.249 9.85988 2
      vertex 17.249 9.85988 4
      vertex 16.976 11.2135 4
    endloop
  endfacet
  facet normal -0.937876 -0.346971 0
    outer loop
      vertex 17.704 8.62999 2
      vertex 17.249 9.85988 4
      vertex 17.249 9.85988 2
    endloop
  endfacet
  facet normal -0.937876 -0.346971 0
    outer loop
      vertex 17.704 8.62999 2
      vertex 17.704 8.62999 4
      vertex 17.249 9.85988 4
    endloop
  endfacet
  facet normal -0.864889 -0.501963 0
    outer loop
      vertex 18.3319 7.54811 2
      vertex 17.704 8.62999 4
      vertex 17.704 8.62999 2
    endloop
  endfacet
  facet normal -0.864889 -0.501963 0
    outer loop
      vertex 18.3319 7.54811 2
      vertex 18.3319 7.54811 4
      vertex 17.704 8.62999 4
    endloop
  endfacet
  facet normal -0.754822 -0.65593 0
    outer loop
      vertex 19.1236 6.6371 2
      vertex 18.3319 7.54811 4
      vertex 18.3319 7.54811 2
    endloop
  endfacet
  facet normal -0.754822 -0.65593 0
    outer loop
      vertex 19.1236 6.6371 2
      vertex 19.1236 6.6371 4
      vertex 18.3319 7.54811 4
    endloop
  endfacet
  facet normal -0.612387 -0.790558 0
    outer loop
      vertex 20.079 5.89699 2
      vertex 19.1236 6.6371 4
      vertex 19.1236 6.6371 2
    endloop
  endfacet
  facet normal -0.612387 -0.790558 0
    outer loop
      vertex 20.079 5.89699 2
      vertex 20.079 5.89699 4
      vertex 19.1236 6.6371 4
    endloop
  endfacet
  facet normal -0.450548 -0.892752 0
    outer loop
      vertex 21.1827 5.34 2
      vertex 20.079 5.89699 4
      vertex 20.079 5.89699 2
    endloop
  endfacet
  facet normal -0.450548 -0.892752 0
    outer loop
      vertex 21.1827 5.34 2
      vertex 21.1827 5.34 4
      vertex 20.079 5.89699 4
    endloop
  endfacet
  facet normal -0.281992 -0.959417 0
    outer loop
      vertex 22.4177 4.97701 2
      vertex 21.1827 5.34 4
      vertex 21.1827 5.34 2
    endloop
  endfacet
  facet normal -0.281992 -0.959417 0
    outer loop
      vertex 22.4177 4.97701 2
      vertex 22.4177 4.97701 4
      vertex 21.1827 5.34 4
    endloop
  endfacet
  facet normal -0.122747 -0.992438 0
    outer loop
      vertex 23.784 4.80801 2
      vertex 22.4177 4.97701 4
      vertex 22.4177 4.97701 2
    endloop
  endfacet
  facet normal -0.122747 -0.992438 0
    outer loop
      vertex 23.784 4.80801 2
      vertex 23.784 4.80801 4
      vertex 22.4177 4.97701 4
    endloop
  endfacet
  facet normal -0.936398 -0.350939 0
    outer loop
      vertex 24.2753 3.49701 2
      vertex 23.784 4.80801 4
      vertex 23.784 4.80801 2
    endloop
  endfacet
  facet normal -0.936398 -0.350939 0
    outer loop
      vertex 24.2753 3.49701 2
      vertex 24.2753 3.49701 4
      vertex 23.784 4.80801 4
    endloop
  endfacet
  facet normal -0.873423 -0.486963 0
    outer loop
      vertex 24.852 2.46268 2
      vertex 24.2753 3.49701 4
      vertex 24.2753 3.49701 2
    endloop
  endfacet
  facet normal -0.873423 -0.486963 0
    outer loop
      vertex 24.852 2.46268 2
      vertex 24.852 2.46268 4
      vertex 24.2753 3.49701 4
    endloop
  endfacet
  facet normal -0.753051 -0.657962 0
    outer loop
      vertex 25.514 1.705 2
      vertex 24.852 2.46268 4
      vertex 24.852 2.46268 2
    endloop
  endfacet
  facet normal -0.753051 -0.657962 0
    outer loop
      vertex 25.514 1.705 2
      vertex 25.514 1.705 4
      vertex 24.852 2.46268 4
    endloop
  endfacet
  facet normal -0.556875 -0.830596 0
    outer loop
      vertex 26.2838 1.1889 2
      vertex 25.514 1.705 4
      vertex 25.514 1.705 2
    endloop
  endfacet
  facet normal -0.556875 -0.830596 0
    outer loop
      vertex 26.2838 1.1889 2
      vertex 26.2838 1.1889 4
      vertex 25.514 1.705 4
    endloop
  endfacet
  facet normal -0.325795 -0.94544 0
    outer loop
      vertex 27.1824 0.879227 2
      vertex 26.2838 1.1889 4
      vertex 26.2838 1.1889 2
    endloop
  endfacet
  facet normal -0.325795 -0.94544 0
    outer loop
      vertex 27.1824 0.879227 2
      vertex 27.1824 0.879227 4
      vertex 26.2838 1.1889 4
    endloop
  endfacet
  facet normal -0.0999543 -0.994992 0
    outer loop
      vertex 28.21 0.776001 2
      vertex 27.1824 0.879227 4
      vertex 27.1824 0.879227 2
    endloop
  endfacet
  facet normal -0.0999543 -0.994992 0
    outer loop
      vertex 28.21 0.776001 2
      vertex 28.21 0.776001 4
      vertex 27.1824 0.879227 4
    endloop
  endfacet
  facet normal 0.0425121 -0.999096 0
    outer loop
      vertex 28.8343 0.802567 2
      vertex 28.21 0.776001 4
      vertex 28.21 0.776001 2
    endloop
  endfacet
  facet normal 0.0425121 -0.999096 0
    outer loop
      vertex 28.8343 0.802567 2
      vertex 28.8343 0.802567 4
      vertex 28.21 0.776001 4
    endloop
  endfacet
  facet normal 0.386763 0.922179 -0
    outer loop
      vertex 21.5277 7.19432 2
      vertex 21.5277 7.19432 4
      vertex 22.8677 6.63232 2
    endloop
  endfacet
  facet normal 0.386763 0.922179 0
    outer loop
      vertex 22.8677 6.63232 4
      vertex 22.8677 6.63232 2
      vertex 21.5277 7.19432 4
    endloop
  endfacet
  facet normal 0.65152 0.758631 -0
    outer loop
      vertex 20.437 8.131 2
      vertex 20.437 8.131 4
      vertex 21.5277 7.19432 2
    endloop
  endfacet
  facet normal 0.65152 0.758631 0
    outer loop
      vertex 21.5277 7.19432 4
      vertex 21.5277 7.19432 2
      vertex 20.437 8.131 4
    endloop
  endfacet
  facet normal 0.842087 0.539342 -0
    outer loop
      vertex 19.6326 9.38699 2
      vertex 19.6326 9.38699 4
      vertex 20.437 8.131 2
    endloop
  endfacet
  facet normal 0.842087 0.539342 0
    outer loop
      vertex 20.437 8.131 4
      vertex 20.437 8.131 2
      vertex 19.6326 9.38699 4
    endloop
  endfacet
  facet normal 0.953102 0.30265 -0
    outer loop
      vertex 19.1499 10.907 2
      vertex 19.1499 10.907 4
      vertex 19.6326 9.38699 2
    endloop
  endfacet
  facet normal 0.953102 0.30265 0
    outer loop
      vertex 19.6326 9.38699 4
      vertex 19.6326 9.38699 2
      vertex 19.1499 10.907 4
    endloop
  endfacet
  facet normal 0.995958 0.0898199 -0
    outer loop
      vertex 18.989 12.691 2
      vertex 18.989 12.691 4
      vertex 19.1499 10.907 2
    endloop
  endfacet
  facet normal 0.995958 0.0898199 0
    outer loop
      vertex 19.1499 10.907 4
      vertex 19.1499 10.907 2
      vertex 18.989 12.691 4
    endloop
  endfacet
  facet normal 0.996058 -0.0887078 0
    outer loop
      vertex 19.1481 14.4777 2
      vertex 19.1481 14.4777 4
      vertex 18.989 12.691 2
    endloop
  endfacet
  facet normal 0.996058 -0.0887078 0
    outer loop
      vertex 18.989 12.691 4
      vertex 18.989 12.691 2
      vertex 19.1481 14.4777 4
    endloop
  endfacet
  facet normal 0.952916 -0.303234 0
    outer loop
      vertex 19.6254 15.9777 2
      vertex 19.6254 15.9777 4
      vertex 19.1481 14.4777 2
    endloop
  endfacet
  facet normal 0.952916 -0.303234 0
    outer loop
      vertex 19.1481 14.4777 4
      vertex 19.1481 14.4777 2
      vertex 19.6254 15.9777 4
    endloop
  endfacet
  facet normal 0.836265 -0.548325 0
    outer loop
      vertex 20.421 17.191 2
      vertex 20.421 17.191 4
      vertex 19.6254 15.9777 2
    endloop
  endfacet
  facet normal 0.836265 -0.548325 0
    outer loop
      vertex 19.6254 15.9777 4
      vertex 19.6254 15.9777 2
      vertex 20.421 17.191 4
    endloop
  endfacet
  facet normal 0.634103 -0.773249 0
    outer loop
      vertex 21.5083 18.0827 2
      vertex 21.5083 18.0827 4
      vertex 20.421 17.191 2
    endloop
  endfacet
  facet normal 0.634103 -0.773249 0
    outer loop
      vertex 20.421 17.191 4
      vertex 20.421 17.191 2
      vertex 21.5083 18.0827 4
    endloop
  endfacet
  facet normal 0.367792 -0.929908 0
    outer loop
      vertex 22.861 18.6177 2
      vertex 22.861 18.6177 4
      vertex 21.5083 18.0827 2
    endloop
  endfacet
  facet normal 0.367792 -0.929908 0
    outer loop
      vertex 21.5083 18.0827 4
      vertex 21.5083 18.0827 2
      vertex 22.861 18.6177 4
    endloop
  endfacet
  facet normal 0.109553 -0.993981 0
    outer loop
      vertex 24.479 18.796 2
      vertex 24.479 18.796 4
      vertex 22.861 18.6177 2
    endloop
  endfacet
  facet normal 0.109553 -0.993981 0
    outer loop
      vertex 22.861 18.6177 4
      vertex 22.861 18.6177 2
      vertex 24.479 18.796 4
    endloop
  endfacet
  facet normal -0.111915 -0.993718 0
    outer loop
      vertex 26.0841 18.6152 2
      vertex 26.0841 18.6152 4
      vertex 24.479 18.796 2
    endloop
  endfacet
  facet normal -0.111915 -0.993718 -0
    outer loop
      vertex 24.479 18.796 4
      vertex 24.479 18.796 2
      vertex 26.0841 18.6152 4
    endloop
  endfacet
  facet normal -0.374369 -0.92728 0
    outer loop
      vertex 27.4274 18.0729 2
      vertex 27.4274 18.0729 4
      vertex 26.0841 18.6152 2
    endloop
  endfacet
  facet normal -0.374369 -0.92728 -0
    outer loop
      vertex 26.0841 18.6152 4
      vertex 26.0841 18.6152 2
      vertex 27.4274 18.0729 4
    endloop
  endfacet
  facet normal -0.641267 -0.767318 0
    outer loop
      vertex 28.509 17.169 2
      vertex 28.509 17.169 4
      vertex 27.4274 18.0729 2
    endloop
  endfacet
  facet normal -0.641267 -0.767318 -0
    outer loop
      vertex 27.4274 18.0729 4
      vertex 27.4274 18.0729 2
      vertex 28.509 17.169 4
    endloop
  endfacet
  facet normal -0.83856 -0.54481 0
    outer loop
      vertex 29.3018 15.9488 2
      vertex 29.3018 15.9488 4
      vertex 28.509 17.169 2
    endloop
  endfacet
  facet normal -0.83856 -0.54481 -0
    outer loop
      vertex 28.509 17.169 4
      vertex 28.509 17.169 2
      vertex 29.3018 15.9488 4
    endloop
  endfacet
  facet normal -0.95279 -0.30363 0
    outer loop
      vertex 29.7775 14.4561 2
      vertex 29.7775 14.4561 4
      vertex 29.3018 15.9488 2
    endloop
  endfacet
  facet normal -0.95279 -0.30363 -0
    outer loop
      vertex 29.3018 15.9488 4
      vertex 29.3018 15.9488 2
      vertex 29.7775 14.4561 4
    endloop
  endfacet
  facet normal -0.99599 -0.0894667 0
    outer loop
      vertex 29.936 12.691 2
      vertex 29.936 12.691 4
      vertex 29.7775 14.4561 2
    endloop
  endfacet
  facet normal -0.99599 -0.0894667 -0
    outer loop
      vertex 29.7775 14.4561 4
      vertex 29.7775 14.4561 2
      vertex 29.936 12.691 4
    endloop
  endfacet
  facet normal -0.996356 0.0852885 0
    outer loop
      vertex 29.7787 10.853 2
      vertex 29.7787 10.853 4
      vertex 29.936 12.691 2
    endloop
  endfacet
  facet normal -0.996356 0.0852885 0
    outer loop
      vertex 29.936 12.691 4
      vertex 29.936 12.691 2
      vertex 29.7787 10.853 4
    endloop
  endfacet
  facet normal -0.955994 0.293385 0
    outer loop
      vertex 29.3067 9.31499 2
      vertex 29.3067 9.31499 4
      vertex 29.7787 10.853 2
    endloop
  endfacet
  facet normal -0.955994 0.293385 0
    outer loop
      vertex 29.7787 10.853 4
      vertex 29.7787 10.853 2
      vertex 29.3067 9.31499 4
    endloop
  endfacet
  facet normal -0.844015 0.536319 0
    outer loop
      vertex 28.52 8.077 2
      vertex 28.52 8.077 4
      vertex 29.3067 9.31499 2
    endloop
  endfacet
  facet normal -0.844015 0.536319 0
    outer loop
      vertex 29.3067 9.31499 4
      vertex 29.3067 9.31499 2
      vertex 28.52 8.077 4
    endloop
  endfacet
  facet normal -0.642702 0.766116 0
    outer loop
      vertex 27.4392 7.17032 2
      vertex 27.4392 7.17032 4
      vertex 28.52 8.077 2
    endloop
  endfacet
  facet normal -0.642702 0.766116 0
    outer loop
      vertex 28.52 8.077 4
      vertex 28.52 8.077 2
      vertex 27.4392 7.17032 4
    endloop
  endfacet
  facet normal -0.372722 0.927943 0
    outer loop
      vertex 26.0849 6.62633 2
      vertex 26.0849 6.62633 4
      vertex 27.4392 7.17032 2
    endloop
  endfacet
  facet normal -0.372722 0.927943 0
    outer loop
      vertex 27.4392 7.17032 4
      vertex 27.4392 7.17032 2
      vertex 26.0849 6.62633 4
    endloop
  endfacet
  facet normal -0.110709 0.993853 0
    outer loop
      vertex 24.457 6.44499 2
      vertex 24.457 6.44499 4
      vertex 26.0849 6.62633 2
    endloop
  endfacet
  facet normal -0.110709 0.993853 0
    outer loop
      vertex 26.0849 6.62633 4
      vertex 26.0849 6.62633 2
      vertex 24.457 6.44499 4
    endloop
  endfacet
  facet normal 0.117058 0.993125 -0
    outer loop
      vertex 22.8677 6.63232 2
      vertex 22.8677 6.63232 4
      vertex 24.457 6.44499 2
    endloop
  endfacet
  facet normal 0.117058 0.993125 0
    outer loop
      vertex 24.457 6.44499 4
      vertex 24.457 6.44499 2
      vertex 22.8677 6.63232 4
    endloop
  endfacet
  facet normal 0 1 0
    outer loop
      vertex 10.041 20.296 2
      vertex 12.113 20.296 4
      vertex 12.113 20.296 2
    endloop
  endfacet
  facet normal 0 1 0
    outer loop
      vertex 10.041 20.296 2
      vertex 10.041 20.296 4
      vertex 12.113 20.296 4
    endloop
  endfacet
  facet normal -1 0 0
    outer loop
      vertex 10.041 5 2
      vertex 10.041 20.296 4
      vertex 10.041 20.296 2
    endloop
  endfacet
  facet normal -1 0 0
    outer loop
      vertex 10.041 5 2
      vertex 10.041 5 4
      vertex 10.041 20.296 4
    endloop
  endfacet
  facet normal 0 -1 0
    outer loop
      vertex 12.113 5 2
      vertex 10.041 5 4
      vertex 10.041 5 2
    endloop
  endfacet
  facet normal 0 -1 0
    outer loop
      vertex 12.113 5 2
      vertex 12.113 5 4
      vertex 10.041 5 4
    endloop
  endfacet
  facet normal 1 0 0
    outer loop
      vertex 12.113 20.296 2
      vertex 12.113 5 4
      vertex 12.113 5 2
    endloop
  endfacet
  facet normal 1 0 -0
    outer loop
      vertex 12.113 20.296 2
      vertex 12.113 20.296 4
      vertex 12.113 5 4
    endloop
  endfacet
endsolid OpenSCAD_Model
