solid OpenSCAD_Model
  facet normal 0 0 -1
    outer loop
      vertex 10.041 20.296 2
      vertex 12.113 20.296 2
      vertex 12.113 5 2
    endloop
  endfacet
  facet normal 0 0 -1
    outer loop
      vertex 10.041 20.296 2
      vertex 12.113 5 2
      vertex 10.041 5 2
    endloop
  endfacet
  facet normal -0 0 -1
    outer loop
      vertex 30.52 20.296 2
      vertex 24.144 9.52499 2
      vertex 28.34 20.296 2
    endloop
  endfacet
  facet normal 0 0 -1
    outer loop
      vertex 30.52 20.296 2
      vertex 24.299 5 2
      vertex 24.144 9.52499 2
    endloop
  endfacet
  facet normal 0 0 -1
    outer loop
      vertex 24.299 5 2
      vertex 23.236 6.82199 2
      vertex 24.144 9.52499 2
    endloop
  endfacet
  facet normal -0 -0 -1
    outer loop
      vertex 18.109 20.296 2
      vertex 22.327 9.52499 2
      vertex 15.93 20.296 2
    endloop
  endfacet
  facet normal 0 0 -1
    outer loop
      vertex 24.299 5 2
      vertex 22.152 5 2
      vertex 23.236 6.82199 2
    endloop
  endfacet
  facet normal 0 0 -1
    outer loop
      vertex 22.152 5 2
      vertex 22.327 9.52499 2
      vertex 23.236 6.82199 2
    endloop
  endfacet
  facet normal -0 0 -1
    outer loop
      vertex 22.327 9.52499 2
      vertex 22.152 5 2
      vertex 15.93 20.296 2
    endloop
  endfacet
  facet normal 0 -0 1
    outer loop
      vertex 12.113 5 4
      vertex 12.113 20.296 4
      vertex 10.041 20.296 4
    endloop
  endfacet
  facet normal 0 0 1
    outer loop
      vertex 10.041 5 4
      vertex 12.113 5 4
      vertex 10.041 20.296 4
    endloop
  endfacet
  facet normal -0 0 1
    outer loop
      vertex 28.34 20.296 4
      vertex 24.144 9.52499 4
      vertex 30.52 20.296 4
    endloop
  endfacet
  facet normal -0 0 1
    outer loop
      vertex 24.144 9.52499 4
      vertex 24.299 5 4
      vertex 30.52 20.296 4
    endloop
  endfacet
  facet normal 0 0 1
    outer loop
      vertex 24.144 9.52499 4
      vertex 23.236 6.82199 4
      vertex 24.299 5 4
    endloop
  endfacet
  facet normal -0 0 1
    outer loop
      vertex 15.93 20.296 4
      vertex 22.327 9.52499 4
      vertex 18.109 20.296 4
    endloop
  endfacet
  facet normal 0 0 1
    outer loop
      vertex 23.236 6.82199 4
      vertex 22.152 5 4
      vertex 24.299 5 4
    endloop
  endfacet
  facet normal 0 0 1
    outer loop
      vertex 23.236 6.82199 4
      vertex 22.327 9.52499 4
      vertex 22.152 5 4
    endloop
  endfacet
  facet normal 0 0 1
    outer loop
      vertex 15.93 20.296 4
      vertex 22.152 5 4
      vertex 22.327 9.52499 4
    endloop
  endfacet
  facet normal 0 1 0
    outer loop
      vertex 10.041 20.296 2
      vertex 12.113 20.296 4
      vertex 12.113 20.296 2
    endloop
  endfacet
  facet normal 0 1 0
    outer loop
      vertex 10.041 20.296 2
      vertex 10.041 20.296 4
      vertex 12.113 20.296 4
    endloop
  endfacet
  facet normal -1 0 0
    outer loop
      vertex 10.041 5 2
      vertex 10.041 20.296 4
      vertex 10.041 20.296 2
    endloop
  endfacet
  facet normal -1 0 0
    outer loop
      vertex 10.041 5 2
      vertex 10.041 5 4
      vertex 10.041 20.296 4
    endloop
  endfacet
  facet normal 0 -1 0
    outer loop
      vertex 12.113 5 2
      vertex 10.041 5 4
      vertex 10.041 5 2
    endloop
  endfacet
  facet normal 0 -1 0
    outer loop
      vertex 12.113 5 2
      vertex 12.113 5 4
      vertex 10.041 5 4
    endloop
  endfacet
  facet normal 1 0 0
    outer loop
      vertex 12.113 20.296 2
      vertex 12.113 5 4
      vertex 12.113 5 2
    endloop
  endfacet
  facet normal 1 0 -0
    outer loop
      vertex 12.113 20.296 2
      vertex 12.113 20.296 4
      vertex 12.113 5 4
    endloop
  endfacet
  facet normal 0 1 0
    outer loop
      vertex 28.34 20.296 2
      vertex 30.52 20.296 4
      vertex 30.52 20.296 2
    endloop
  endfacet
  facet normal 0 1 0
    outer loop
      vertex 28.34 20.296 2
      vertex 28.34 20.296 4
      vertex 30.52 20.296 4
    endloop
  endfacet
  facet normal -0.931792 0.362993 0
    outer loop
      vertex 24.144 9.52499 2
      vertex 28.34 20.296 4
      vertex 28.34 20.296 2
    endloop
  endfacet
  facet normal -0.931792 0.362993 0
    outer loop
      vertex 24.144 9.52499 2
      vertex 24.144 9.52499 4
      vertex 28.34 20.296 4
    endloop
  endfacet
  facet normal -0.947945 0.318433 0
    outer loop
      vertex 23.236 6.82199 2
      vertex 24.144 9.52499 4
      vertex 24.144 9.52499 2
    endloop
  endfacet
  facet normal -0.947945 0.318433 0
    outer loop
      vertex 23.236 6.82199 2
      vertex 23.236 6.82199 4
      vertex 24.144 9.52499 4
    endloop
  endfacet
  facet normal 0.947837 0.318755 0
    outer loop
      vertex 22.327 9.52499 2
      vertex 23.236 6.82199 4
      vertex 23.236 6.82199 2
    endloop
  endfacet
  facet normal 0.947837 0.318755 -0
    outer loop
      vertex 22.327 9.52499 2
      vertex 22.327 9.52499 4
      vertex 23.236 6.82199 4
    endloop
  endfacet
  facet normal 0.931147 0.364644 0
    outer loop
      vertex 18.109 20.296 2
      vertex 22.327 9.52499 4
      vertex 22.327 9.52499 2
    endloop
  endfacet
  facet normal 0.931147 0.364644 -0
    outer loop
      vertex 18.109 20.296 2
      vertex 18.109 20.296 4
      vertex 22.327 9.52499 4
    endloop
  endfacet
  facet normal 0 1 0
    outer loop
      vertex 15.93 20.296 2
      vertex 18.109 20.296 4
      vertex 18.109 20.296 2
    endloop
  endfacet
  facet normal 0 1 0
    outer loop
      vertex 15.93 20.296 2
      vertex 15.93 20.296 4
      vertex 18.109 20.296 4
    endloop
  endfacet
  facet normal -0.926297 -0.376793 0
    outer loop
      vertex 22.152 5 2
      vertex 15.93 20.296 4
      vertex 15.93 20.296 2
    endloop
  endfacet
  facet normal -0.926297 -0.376793 0
    outer loop
      vertex 22.152 5 2
      vertex 22.152 5 4
      vertex 15.93 20.296 4
    endloop
  endfacet
  facet normal 0 -1 0
    outer loop
      vertex 24.299 5 2
      vertex 22.152 5 4
      vertex 22.152 5 2
    endloop
  endfacet
  facet normal 0 -1 0
    outer loop
      vertex 24.299 5 2
      vertex 24.299 5 4
      vertex 22.152 5 4
    endloop
  endfacet
  facet normal 0.926318 -0.376742 0
    outer loop
      vertex 30.52 20.296 2
      vertex 24.299 5 4
      vertex 24.299 5 2
    endloop
  endfacet
  facet normal 0.926318 -0.376742 0
    outer loop
      vertex 30.52 20.296 2
      vertex 30.52 20.296 4
      vertex 24.299 5 4
    endloop
  endfacet
endsolid OpenSCAD_Model
