solid OpenSCAD_Model
  facet normal 0 0 -1
    outer loop
      vertex 17.3489 8.20099 2
      vertex 16.9465 7.03566 2
      vertex 15.1313 7.86066 2
    endloop
  endfacet
  facet normal 0 0 -1
    outer loop
      vertex 17.483 9.577 2
      vertex 17.3489 8.20099 2
      vertex 15.3493 8.61732 2
    endloop
  endfacet
  facet normal -0 0 -1
    outer loop
      vertex 17.3489 8.20099 2
      vertex 15.1313 7.86066 2
      vertex 15.3493 8.61732 2
    endloop
  endfacet
  facet normal 0 0 -1
    outer loop
      vertex 15.3493 8.61732 2
      vertex 15.422 9.534 2
      vertex 17.483 9.577 2
    endloop
  endfacet
  facet normal 0 0 -1
    outer loop
      vertex 12.47 18.604 2
      vertex 12.47 20.296 2
      vertex 15.422 18.604 2
    endloop
  endfacet
  facet normal 0 -0 -1
    outer loop
      vertex 31.3781 20.0794 2
      vertex 32.2598 17.9734 2
      vertex 30.7544 18.4711 2
    endloop
  endfacet
  facet normal 0 0 -1
    outer loop
      vertex 14.2702 4.94945 2
      vertex 14.2788 6.83344 2
      vertex 15.3722 5.37376 2
    endloop
  endfacet
  facet normal -0 0 -1
    outer loop
      vertex 12.981 6.489 2
      vertex 12.97 4.80801 2
      vertex 12.3291 6.56744 2
    endloop
  endfacet
  facet normal 0 0 -1
    outer loop
      vertex 17.483 9.577 2
      vertex 15.422 18.604 2
      vertex 17.483 20.296 2
    endloop
  endfacet
  facet normal 0 0 -1
    outer loop
      vertex 15.422 18.604 2
      vertex 12.47 20.296 2
      vertex 17.483 20.296 2
    endloop
  endfacet
  facet normal -0 0 -1
    outer loop
      vertex 17.483 9.577 2
      vertex 15.422 9.534 2
      vertex 15.422 18.604 2
    endloop
  endfacet
  facet normal -0 0 -1
    outer loop
      vertex 14.2702 4.94945 2
      vertex 12.97 4.80801 2
      vertex 13.6831 6.5751 2
    endloop
  endfacet
  facet normal -0 0 -1
    outer loop
      vertex 16.9465 7.03566 2
      vertex 16.276 6.08099 2
      vertex 15.1313 7.86066 2
    endloop
  endfacet
  facet normal 0 0 -1
    outer loop
      vertex 14.768 7.26399 2
      vertex 16.276 6.08099 2
      vertex 15.3722 5.37376 2
    endloop
  endfacet
  facet normal 0 -0 -1
    outer loop
      vertex 15.1313 7.86066 2
      vertex 16.276 6.08099 2
      vertex 14.768 7.26399 2
    endloop
  endfacet
  facet normal 0 0 -1
    outer loop
      vertex 14.2788 6.83344 2
      vertex 14.768 7.26399 2
      vertex 15.3722 5.37376 2
    endloop
  endfacet
  facet normal 0 0 -1
    outer loop
      vertex 13.6831 6.5751 2
      vertex 14.2788 6.83344 2
      vertex 14.2702 4.94945 2
    endloop
  endfacet
  facet normal 0 0 -1
    outer loop
      vertex 13.6831 6.5751 2
      vertex 12.97 4.80801 2
      vertex 12.981 6.489 2
    endloop
  endfacet
  facet normal -0 0 -1
    outer loop
      vertex 12.3291 6.56744 2
      vertex 10.7262 5.25421 2
      vertex 11.7548 6.80276 2
    endloop
  endfacet
  facet normal 0 0 -1
    outer loop
      vertex 10.7262 5.25421 2
      vertex 9.18555 6.59288 2
      vertex 11.258 7.19499 2
    endloop
  endfacet
  facet normal 0 0 -1
    outer loop
      vertex 9.18555 6.59288 2
      vertex 10.5611 8.38211 2
      vertex 10.8551 7.7271 2
    endloop
  endfacet
  facet normal -0 0 -1
    outer loop
      vertex 11.258 7.19499 2
      vertex 9.18555 6.59288 2
      vertex 10.8551 7.7271 2
    endloop
  endfacet
  facet normal -0 0 -1
    outer loop
      vertex 10.5611 8.38211 2
      vertex 9.18555 6.59288 2
      vertex 8.34799 8.82399 2
    endloop
  endfacet
  facet normal 0 -0 -1
    outer loop
      vertex 10.376 9.15999 2
      vertex 10.5611 8.38211 2
      vertex 8.34799 8.82399 2
    endloop
  endfacet
  facet normal -0 0 -1
    outer loop
      vertex 11.7548 6.80276 2
      vertex 10.7262 5.25421 2
      vertex 11.258 7.19499 2
    endloop
  endfacet
  facet normal 0 -0 -1
    outer loop
      vertex 12.3291 6.56744 2
      vertex 12.97 4.80801 2
      vertex 10.7262 5.25421 2
    endloop
  endfacet
  facet normal -0 0 -1
    outer loop
      vertex 31.0652 5.10487 2
      vertex 29.6459 5 2
      vertex 30.4839 6.741 2
    endloop
  endfacet
  facet normal 0 0 -1
    outer loop
      vertex 36.1739 8.66399 2
      vertex 34.7104 10.5081 2
      vertex 36.6866 9.91299 2
    endloop
  endfacet
  facet normal 0 0 -1
    outer loop
      vertex 36.6866 9.91299 2
      vertex 34.7104 10.5081 2
      vertex 36.9943 11.2933 2
    endloop
  endfacet
  facet normal 0 -0 -1
    outer loop
      vertex 34.3299 9.52599 2
      vertex 35.4728 7.57288 2
      vertex 33.8074 8.67166 2
    endloop
  endfacet
  facet normal 0 0 -1
    outer loop
      vertex 37.0969 12.805 2
      vertex 36.9943 11.2933 2
      vertex 34.9388 11.6011 2
    endloop
  endfacet
  facet normal 0 0 -1
    outer loop
      vertex 33.1534 7.96199 2
      vertex 33.8074 8.67166 2
      vertex 34.6001 6.66621 2
    endloop
  endfacet
  facet normal 0 0 -1
    outer loop
      vertex 35.0149 12.805 2
      vertex 34.8415 14.552 2
      vertex 37.0969 12.805 2
    endloop
  endfacet
  facet normal 0 -0 -1
    outer loop
      vertex 32.3679 7.39699 2
      vertex 32.3685 5.41954 2
      vertex 31.4712 6.987 2
    endloop
  endfacet
  facet normal -0 0 -1
    outer loop
      vertex 36.8621 15.0181 2
      vertex 34.8415 14.552 2
      vertex 36.1578 16.8654 2
    endloop
  endfacet
  facet normal 0 0 -1
    outer loop
      vertex 28.9829 20.296 2
      vertex 31.3781 20.0794 2
      vertex 30.7544 18.4711 2
    endloop
  endfacet
  facet normal 0 0 -1
    outer loop
      vertex 28.9389 18.637 2
      vertex 25.9929 18.637 2
      vertex 28.9829 20.296 2
    endloop
  endfacet
  facet normal 0 0 -1
    outer loop
      vertex 34.8415 14.552 2
      vertex 34.3215 15.9983 2
      vertex 36.1578 16.8654 2
    endloop
  endfacet
  facet normal 0 0 -1
    outer loop
      vertex 29.6459 5 2
      vertex 29.4059 6.659 2
      vertex 30.4839 6.741 2
    endloop
  endfacet
  facet normal -0 -0 -1
    outer loop
      vertex 29.4059 6.659 2
      vertex 29.6459 5 2
      vertex 25.9929 6.659 2
    endloop
  endfacet
  facet normal 0 0 -1
    outer loop
      vertex 23.9219 20.296 2
      vertex 25.9929 6.659 2
      vertex 23.9219 5 2
    endloop
  endfacet
  facet normal 0 -0 -1
    outer loop
      vertex 25.9929 6.659 2
      vertex 29.6459 5 2
      vertex 23.9219 5 2
    endloop
  endfacet
  facet normal -0 0 -1
    outer loop
      vertex 28.9829 20.296 2
      vertex 25.9929 18.637 2
      vertex 23.9219 20.296 2
    endloop
  endfacet
  facet normal -0 -0 -1
    outer loop
      vertex 25.9929 18.637 2
      vertex 25.9929 6.659 2
      vertex 23.9219 20.296 2
    endloop
  endfacet
  facet normal 0 0 -1
    outer loop
      vertex 28.9389 18.637 2
      vertex 28.9829 20.296 2
      vertex 30.7544 18.4711 2
    endloop
  endfacet
  facet normal 0 0 -1
    outer loop
      vertex 32.2598 17.9734 2
      vertex 33.3784 19.4298 2
      vertex 33.4549 17.144 2
    endloop
  endfacet
  facet normal 0 0 -1
    outer loop
      vertex 31.3781 20.0794 2
      vertex 33.3784 19.4298 2
      vertex 32.2598 17.9734 2
    endloop
  endfacet
  facet normal 0 0 -1
    outer loop
      vertex 33.4549 17.144 2
      vertex 34.9839 18.347 2
      vertex 34.3215 15.9983 2
    endloop
  endfacet
  facet normal 0 0 -1
    outer loop
      vertex 33.3784 19.4298 2
      vertex 34.9839 18.347 2
      vertex 33.4549 17.144 2
    endloop
  endfacet
  facet normal 0 0 -1
    outer loop
      vertex 34.3215 15.9983 2
      vertex 34.9839 18.347 2
      vertex 36.1578 16.8654 2
    endloop
  endfacet
  facet normal 0 -0 -1
    outer loop
      vertex 36.8621 15.0181 2
      vertex 37.0969 12.805 2
      vertex 34.8415 14.552 2
    endloop
  endfacet
  facet normal 0 -0 -1
    outer loop
      vertex 35.0149 12.805 2
      vertex 37.0969 12.805 2
      vertex 34.9388 11.6011 2
    endloop
  endfacet
  facet normal 0 -0 -1
    outer loop
      vertex 34.9388 11.6011 2
      vertex 36.9943 11.2933 2
      vertex 34.7104 10.5081 2
    endloop
  endfacet
  facet normal 0 0 -1
    outer loop
      vertex 36.1739 8.66399 2
      vertex 34.3299 9.52599 2
      vertex 34.7104 10.5081 2
    endloop
  endfacet
  facet normal 0 0 -1
    outer loop
      vertex 34.3299 9.52599 2
      vertex 36.1739 8.66399 2
      vertex 35.4728 7.57288 2
    endloop
  endfacet
  facet normal 0 0 -1
    outer loop
      vertex 33.8074 8.67166 2
      vertex 35.4728 7.57288 2
      vertex 34.6001 6.66621 2
    endloop
  endfacet
  facet normal 0 0 -1
    outer loop
      vertex 33.1534 7.96199 2
      vertex 34.6001 6.66621 2
      vertex 33.5559 5.94398 2
    endloop
  endfacet
  facet normal 0 0 -1
    outer loop
      vertex 32.3679 7.39699 2
      vertex 33.1534 7.96199 2
      vertex 33.5559 5.94398 2
    endloop
  endfacet
  facet normal 0 0 -1
    outer loop
      vertex 32.3685 5.41954 2
      vertex 32.3679 7.39699 2
      vertex 33.5559 5.94398 2
    endloop
  endfacet
  facet normal 0 0 -1
    outer loop
      vertex 31.0652 5.10487 2
      vertex 31.4712 6.987 2
      vertex 32.3685 5.41954 2
    endloop
  endfacet
  facet normal 0 0 -1
    outer loop
      vertex 31.0652 5.10487 2
      vertex 30.4839 6.741 2
      vertex 31.4712 6.987 2
    endloop
  endfacet
  facet normal -0 0 1
    outer loop
      vertex 15.1313 7.86066 4
      vertex 16.9465 7.03566 4
      vertex 17.3489 8.20099 4
    endloop
  endfacet
  facet normal -0 0 1
    outer loop
      vertex 15.3493 8.61732 4
      vertex 17.3489 8.20099 4
      vertex 17.483 9.577 4
    endloop
  endfacet
  facet normal 0 0 1
    outer loop
      vertex 15.3493 8.61732 4
      vertex 15.1313 7.86066 4
      vertex 17.3489 8.20099 4
    endloop
  endfacet
  facet normal 0 0 1
    outer loop
      vertex 17.483 9.577 4
      vertex 15.422 9.534 4
      vertex 15.3493 8.61732 4
    endloop
  endfacet
  facet normal 0 0 1
    outer loop
      vertex 15.422 18.604 4
      vertex 12.47 20.296 4
      vertex 12.47 18.604 4
    endloop
  endfacet
  facet normal -0 0 1
    outer loop
      vertex 30.7544 18.4711 4
      vertex 32.2598 17.9734 4
      vertex 31.3781 20.0794 4
    endloop
  endfacet
  facet normal 0 0 1
    outer loop
      vertex 15.3722 5.37376 4
      vertex 14.2788 6.83344 4
      vertex 14.2702 4.94945 4
    endloop
  endfacet
  facet normal 0 0 1
    outer loop
      vertex 12.3291 6.56744 4
      vertex 12.97 4.80801 4
      vertex 12.981 6.489 4
    endloop
  endfacet
  facet normal 0 0 1
    outer loop
      vertex 17.483 20.296 4
      vertex 15.422 18.604 4
      vertex 17.483 9.577 4
    endloop
  endfacet
  facet normal 0 0 1
    outer loop
      vertex 17.483 20.296 4
      vertex 12.47 20.296 4
      vertex 15.422 18.604 4
    endloop
  endfacet
  facet normal 0 0 1
    outer loop
      vertex 15.422 18.604 4
      vertex 15.422 9.534 4
      vertex 17.483 9.577 4
    endloop
  endfacet
  facet normal 0 0 1
    outer loop
      vertex 13.6831 6.5751 4
      vertex 12.97 4.80801 4
      vertex 14.2702 4.94945 4
    endloop
  endfacet
  facet normal 0 0 1
    outer loop
      vertex 15.1313 7.86066 4
      vertex 16.276 6.08099 4
      vertex 16.9465 7.03566 4
    endloop
  endfacet
  facet normal 0 -0 1
    outer loop
      vertex 15.3722 5.37376 4
      vertex 16.276 6.08099 4
      vertex 14.768 7.26399 4
    endloop
  endfacet
  facet normal -0 0 1
    outer loop
      vertex 14.768 7.26399 4
      vertex 16.276 6.08099 4
      vertex 15.1313 7.86066 4
    endloop
  endfacet
  facet normal 0 0 1
    outer loop
      vertex 15.3722 5.37376 4
      vertex 14.768 7.26399 4
      vertex 14.2788 6.83344 4
    endloop
  endfacet
  facet normal 0 -0 1
    outer loop
      vertex 14.2702 4.94945 4
      vertex 14.2788 6.83344 4
      vertex 13.6831 6.5751 4
    endloop
  endfacet
  facet normal -0 0 1
    outer loop
      vertex 12.981 6.489 4
      vertex 12.97 4.80801 4
      vertex 13.6831 6.5751 4
    endloop
  endfacet
  facet normal 0 0 1
    outer loop
      vertex 11.7548 6.80276 4
      vertex 10.7262 5.25421 4
      vertex 12.3291 6.56744 4
    endloop
  endfacet
  facet normal 0 0 1
    outer loop
      vertex 11.258 7.19499 4
      vertex 9.18555 6.59288 4
      vertex 10.7262 5.25421 4
    endloop
  endfacet
  facet normal 0 0 1
    outer loop
      vertex 10.8551 7.7271 4
      vertex 10.5611 8.38211 4
      vertex 9.18555 6.59288 4
    endloop
  endfacet
  facet normal 0 0 1
    outer loop
      vertex 10.8551 7.7271 4
      vertex 9.18555 6.59288 4
      vertex 11.258 7.19499 4
    endloop
  endfacet
  facet normal 0 0 1
    outer loop
      vertex 8.34799 8.82399 4
      vertex 9.18555 6.59288 4
      vertex 10.5611 8.38211 4
    endloop
  endfacet
  facet normal -0 0 1
    outer loop
      vertex 8.34799 8.82399 4
      vertex 10.5611 8.38211 4
      vertex 10.376 9.15999 4
    endloop
  endfacet
  facet normal 0 0 1
    outer loop
      vertex 11.258 7.19499 4
      vertex 10.7262 5.25421 4
      vertex 11.7548 6.80276 4
    endloop
  endfacet
  facet normal -0 0 1
    outer loop
      vertex 10.7262 5.25421 4
      vertex 12.97 4.80801 4
      vertex 12.3291 6.56744 4
    endloop
  endfacet
  facet normal 0 0 1
    outer loop
      vertex 30.4839 6.741 4
      vertex 29.6459 5 4
      vertex 31.0652 5.10487 4
    endloop
  endfacet
  facet normal 0 0 1
    outer loop
      vertex 36.6866 9.91299 4
      vertex 34.7104 10.5081 4
      vertex 36.1739 8.66399 4
    endloop
  endfacet
  facet normal 0 0 1
    outer loop
      vertex 36.9943 11.2933 4
      vertex 34.7104 10.5081 4
      vertex 36.6866 9.91299 4
    endloop
  endfacet
  facet normal -0 0 1
    outer loop
      vertex 33.8074 8.67166 4
      vertex 35.4728 7.57288 4
      vertex 34.3299 9.52599 4
    endloop
  endfacet
  facet normal -0 0 1
    outer loop
      vertex 34.9388 11.6011 4
      vertex 36.9943 11.2933 4
      vertex 37.0969 12.805 4
    endloop
  endfacet
  facet normal 0 0 1
    outer loop
      vertex 34.6001 6.66621 4
      vertex 33.8074 8.67166 4
      vertex 33.1534 7.96199 4
    endloop
  endfacet
  facet normal 0 0 1
    outer loop
      vertex 37.0969 12.805 4
      vertex 34.8415 14.552 4
      vertex 35.0149 12.805 4
    endloop
  endfacet
  facet normal -0 0 1
    outer loop
      vertex 31.4712 6.987 4
      vertex 32.3685 5.41954 4
      vertex 32.3679 7.39699 4
    endloop
  endfacet
  facet normal 0 0 1
    outer loop
      vertex 36.1578 16.8654 4
      vertex 34.8415 14.552 4
      vertex 36.8621 15.0181 4
    endloop
  endfacet
  facet normal 0 -0 1
    outer loop
      vertex 30.7544 18.4711 4
      vertex 31.3781 20.0794 4
      vertex 28.9829 20.296 4
    endloop
  endfacet
  facet normal 0 0 1
    outer loop
      vertex 28.9829 20.296 4
      vertex 25.9929 18.637 4
      vertex 28.9389 18.637 4
    endloop
  endfacet
  facet normal 0 0 1
    outer loop
      vertex 36.1578 16.8654 4
      vertex 34.3215 15.9983 4
      vertex 34.8415 14.552 4
    endloop
  endfacet
  facet normal 0 0 1
    outer loop
      vertex 30.4839 6.741 4
      vertex 29.4059 6.659 4
      vertex 29.6459 5 4
    endloop
  endfacet
  facet normal -0 0 1
    outer loop
      vertex 25.9929 6.659 4
      vertex 29.6459 5 4
      vertex 29.4059 6.659 4
    endloop
  endfacet
  facet normal 0 0 1
    outer loop
      vertex 23.9219 5 4
      vertex 25.9929 6.659 4
      vertex 23.9219 20.296 4
    endloop
  endfacet
  facet normal 0 0 1
    outer loop
      vertex 23.9219 5 4
      vertex 29.6459 5 4
      vertex 25.9929 6.659 4
    endloop
  endfacet
  facet normal -0 0 1
    outer loop
      vertex 23.9219 20.296 4
      vertex 25.9929 18.637 4
      vertex 28.9829 20.296 4
    endloop
  endfacet
  facet normal 0 0 1
    outer loop
      vertex 23.9219 20.296 4
      vertex 25.9929 6.659 4
      vertex 25.9929 18.637 4
    endloop
  endfacet
  facet normal 0 0 1
    outer loop
      vertex 30.7544 18.4711 4
      vertex 28.9829 20.296 4
      vertex 28.9389 18.637 4
    endloop
  endfacet
  facet normal 0 0 1
    outer loop
      vertex 33.4549 17.144 4
      vertex 33.3784 19.4298 4
      vertex 32.2598 17.9734 4
    endloop
  endfacet
  facet normal 0 -0 1
    outer loop
      vertex 32.2598 17.9734 4
      vertex 33.3784 19.4298 4
      vertex 31.3781 20.0794 4
    endloop
  endfacet
  facet normal 0 -0 1
    outer loop
      vertex 34.3215 15.9983 4
      vertex 34.9839 18.347 4
      vertex 33.4549 17.144 4
    endloop
  endfacet
  facet normal 0 -0 1
    outer loop
      vertex 33.4549 17.144 4
      vertex 34.9839 18.347 4
      vertex 33.3784 19.4298 4
    endloop
  endfacet
  facet normal 0 0 1
    outer loop
      vertex 36.1578 16.8654 4
      vertex 34.9839 18.347 4
      vertex 34.3215 15.9983 4
    endloop
  endfacet
  facet normal -0 0 1
    outer loop
      vertex 34.8415 14.552 4
      vertex 37.0969 12.805 4
      vertex 36.8621 15.0181 4
    endloop
  endfacet
  facet normal 0 0 1
    outer loop
      vertex 34.9388 11.6011 4
      vertex 37.0969 12.805 4
      vertex 35.0149 12.805 4
    endloop
  endfacet
  facet normal 0 0 1
    outer loop
      vertex 34.7104 10.5081 4
      vertex 36.9943 11.2933 4
      vertex 34.9388 11.6011 4
    endloop
  endfacet
  facet normal 0 0 1
    outer loop
      vertex 34.7104 10.5081 4
      vertex 34.3299 9.52599 4
      vertex 36.1739 8.66399 4
    endloop
  endfacet
  facet normal 0 -0 1
    outer loop
      vertex 35.4728 7.57288 4
      vertex 36.1739 8.66399 4
      vertex 34.3299 9.52599 4
    endloop
  endfacet
  facet normal 0 -0 1
    outer loop
      vertex 34.6001 6.66621 4
      vertex 35.4728 7.57288 4
      vertex 33.8074 8.67166 4
    endloop
  endfacet
  facet normal 0 -0 1
    outer loop
      vertex 33.5559 5.94398 4
      vertex 34.6001 6.66621 4
      vertex 33.1534 7.96199 4
    endloop
  endfacet
  facet normal 0 0 1
    outer loop
      vertex 33.5559 5.94398 4
      vertex 33.1534 7.96199 4
      vertex 32.3679 7.39699 4
    endloop
  endfacet
  facet normal 0 0 1
    outer loop
      vertex 33.5559 5.94398 4
      vertex 32.3679 7.39699 4
      vertex 32.3685 5.41954 4
    endloop
  endfacet
  facet normal 0 0 1
    outer loop
      vertex 32.3685 5.41954 4
      vertex 31.4712 6.987 4
      vertex 31.0652 5.10487 4
    endloop
  endfacet
  facet normal 0 0 1
    outer loop
      vertex 31.4712 6.987 4
      vertex 30.4839 6.741 4
      vertex 31.0652 5.10487 4
    endloop
  endfacet
  facet normal 0.359329 -0.933211 0
    outer loop
      vertex 15.3722 5.37376 2
      vertex 14.2702 4.94945 4
      vertex 14.2702 4.94945 2
    endloop
  endfacet
  facet normal 0.359329 -0.933211 0
    outer loop
      vertex 15.3722 5.37376 2
      vertex 15.3722 5.37376 4
      vertex 14.2702 4.94945 4
    endloop
  endfacet
  facet normal 0.616268 -0.787537 0
    outer loop
      vertex 16.276 6.08099 2
      vertex 15.3722 5.37376 4
      vertex 15.3722 5.37376 2
    endloop
  endfacet
  facet normal 0.616268 -0.787537 0
    outer loop
      vertex 16.276 6.08099 2
      vertex 16.276 6.08099 4
      vertex 15.3722 5.37376 4
    endloop
  endfacet
  facet normal 0.818306 -0.574783 0
    outer loop
      vertex 16.9465 7.03566 2
      vertex 16.276 6.08099 4
      vertex 16.276 6.08099 2
    endloop
  endfacet
  facet normal 0.818306 -0.574783 0
    outer loop
      vertex 16.9465 7.03566 2
      vertex 16.9465 7.03566 4
      vertex 16.276 6.08099 4
    endloop
  endfacet
  facet normal 0.94525 -0.326347 0
    outer loop
      vertex 17.3489 8.20099 2
      vertex 16.9465 7.03566 4
      vertex 16.9465 7.03566 2
    endloop
  endfacet
  facet normal 0.94525 -0.326347 0
    outer loop
      vertex 17.3489 8.20099 2
      vertex 17.3489 8.20099 4
      vertex 16.9465 7.03566 4
    endloop
  endfacet
  facet normal 0.995284 -0.0970032 0
    outer loop
      vertex 17.483 9.577 2
      vertex 17.3489 8.20099 4
      vertex 17.3489 8.20099 2
    endloop
  endfacet
  facet normal 0.995284 -0.0970032 0
    outer loop
      vertex 17.483 9.577 2
      vertex 17.483 9.577 4
      vertex 17.3489 8.20099 4
    endloop
  endfacet
  facet normal 1 0 0
    outer loop
      vertex 17.483 20.296 2
      vertex 17.483 9.577 4
      vertex 17.483 9.577 2
    endloop
  endfacet
  facet normal 1 0 -0
    outer loop
      vertex 17.483 20.296 2
      vertex 17.483 20.296 4
      vertex 17.483 9.577 4
    endloop
  endfacet
  facet normal 0 1 0
    outer loop
      vertex 12.47 20.296 2
      vertex 17.483 20.296 4
      vertex 17.483 20.296 2
    endloop
  endfacet
  facet normal 0 1 0
    outer loop
      vertex 12.47 20.296 2
      vertex 12.47 20.296 4
      vertex 17.483 20.296 4
    endloop
  endfacet
  facet normal -1 0 0
    outer loop
      vertex 12.47 18.604 2
      vertex 12.47 20.296 4
      vertex 12.47 20.296 2
    endloop
  endfacet
  facet normal -1 0 0
    outer loop
      vertex 12.47 18.604 2
      vertex 12.47 18.604 4
      vertex 12.47 20.296 4
    endloop
  endfacet
  facet normal 0 -1 0
    outer loop
      vertex 15.422 18.604 2
      vertex 12.47 18.604 4
      vertex 12.47 18.604 2
    endloop
  endfacet
  facet normal 0 -1 0
    outer loop
      vertex 15.422 18.604 2
      vertex 15.422 18.604 4
      vertex 12.47 18.604 4
    endloop
  endfacet
  facet normal -1 0 0
    outer loop
      vertex 15.422 9.534 2
      vertex 15.422 18.604 4
      vertex 15.422 18.604 2
    endloop
  endfacet
  facet normal -1 0 0
    outer loop
      vertex 15.422 9.534 2
      vertex 15.422 9.534 4
      vertex 15.422 18.604 4
    endloop
  endfacet
  facet normal -0.996872 0.0790362 0
    outer loop
      vertex 15.3493 8.61732 2
      vertex 15.422 9.534 4
      vertex 15.422 9.534 2
    endloop
  endfacet
  facet normal -0.996872 0.0790362 0
    outer loop
      vertex 15.3493 8.61732 2
      vertex 15.3493 8.61732 4
      vertex 15.422 9.534 4
    endloop
  endfacet
  facet normal -0.960919 0.276829 0
    outer loop
      vertex 15.1313 7.86066 2
      vertex 15.3493 8.61732 4
      vertex 15.3493 8.61732 2
    endloop
  endfacet
  facet normal -0.960919 0.276829 0
    outer loop
      vertex 15.1313 7.86066 2
      vertex 15.1313 7.86066 4
      vertex 15.3493 8.61732 4
    endloop
  endfacet
  facet normal -0.8541 0.520109 0
    outer loop
      vertex 14.768 7.26399 2
      vertex 15.1313 7.86066 4
      vertex 15.1313 7.86066 2
    endloop
  endfacet
  facet normal -0.8541 0.520109 0
    outer loop
      vertex 14.768 7.26399 2
      vertex 14.768 7.26399 4
      vertex 15.1313 7.86066 4
    endloop
  endfacet
  facet normal -0.66066 0.750685 0
    outer loop
      vertex 14.2788 6.83344 2
      vertex 14.768 7.26399 4
      vertex 14.768 7.26399 2
    endloop
  endfacet
  facet normal -0.66066 0.750685 0
    outer loop
      vertex 14.2788 6.83344 2
      vertex 14.2788 6.83344 4
      vertex 14.768 7.26399 4
    endloop
  endfacet
  facet normal -0.397884 0.917436 0
    outer loop
      vertex 13.6831 6.5751 2
      vertex 14.2788 6.83344 4
      vertex 14.2788 6.83344 2
    endloop
  endfacet
  facet normal -0.397884 0.917436 0
    outer loop
      vertex 13.6831 6.5751 2
      vertex 13.6831 6.5751 4
      vertex 14.2788 6.83344 4
    endloop
  endfacet
  facet normal -0.121725 0.992564 0
    outer loop
      vertex 12.981 6.489 2
      vertex 13.6831 6.5751 4
      vertex 13.6831 6.5751 2
    endloop
  endfacet
  facet normal -0.121725 0.992564 0
    outer loop
      vertex 12.981 6.489 2
      vertex 12.981 6.489 4
      vertex 13.6831 6.5751 4
    endloop
  endfacet
  facet normal 0.119474 0.992837 0
    outer loop
      vertex 12.3291 6.56744 2
      vertex 12.981 6.489 4
      vertex 12.981 6.489 2
    endloop
  endfacet
  facet normal 0.119474 0.992837 -0
    outer loop
      vertex 12.3291 6.56744 2
      vertex 12.3291 6.56744 4
      vertex 12.981 6.489 4
    endloop
  endfacet
  facet normal 0.379143 0.925338 0
    outer loop
      vertex 11.7548 6.80276 2
      vertex 12.3291 6.56744 4
      vertex 12.3291 6.56744 2
    endloop
  endfacet
  facet normal 0.379143 0.925338 -0
    outer loop
      vertex 11.7548 6.80276 2
      vertex 11.7548 6.80276 4
      vertex 12.3291 6.56744 4
    endloop
  endfacet
  facet normal 0.619676 0.784858 0
    outer loop
      vertex 11.258 7.19499 2
      vertex 11.7548 6.80276 4
      vertex 11.7548 6.80276 2
    endloop
  endfacet
  facet normal 0.619676 0.784858 -0
    outer loop
      vertex 11.258 7.19499 2
      vertex 11.258 7.19499 4
      vertex 11.7548 6.80276 4
    endloop
  endfacet
  facet normal 0.797248 0.603652 0
    outer loop
      vertex 10.8551 7.7271 2
      vertex 11.258 7.19499 4
      vertex 11.258 7.19499 2
    endloop
  endfacet
  facet normal 0.797248 0.603652 -0
    outer loop
      vertex 10.8551 7.7271 2
      vertex 10.8551 7.7271 4
      vertex 11.258 7.19499 4
    endloop
  endfacet
  facet normal 0.912312 0.409496 0
    outer loop
      vertex 10.5611 8.38211 2
      vertex 10.8551 7.7271 4
      vertex 10.8551 7.7271 2
    endloop
  endfacet
  facet normal 0.912312 0.409496 -0
    outer loop
      vertex 10.5611 8.38211 2
      vertex 10.5611 8.38211 4
      vertex 10.8551 7.7271 4
    endloop
  endfacet
  facet normal 0.972836 0.231497 0
    outer loop
      vertex 10.376 9.15999 2
      vertex 10.5611 8.38211 4
      vertex 10.5611 8.38211 2
    endloop
  endfacet
  facet normal 0.972836 0.231497 -0
    outer loop
      vertex 10.376 9.15999 2
      vertex 10.376 9.15999 4
      vertex 10.5611 8.38211 4
    endloop
  endfacet
  facet normal -0.163452 0.986551 0
    outer loop
      vertex 8.34799 8.82399 2
      vertex 10.376 9.15999 4
      vertex 10.376 9.15999 2
    endloop
  endfacet
  facet normal -0.163452 0.986551 0
    outer loop
      vertex 8.34799 8.82399 2
      vertex 8.34799 8.82399 4
      vertex 10.376 9.15999 4
    endloop
  endfacet
  facet normal -0.936207 -0.35145 0
    outer loop
      vertex 9.18555 6.59288 2
      vertex 8.34799 8.82399 4
      vertex 8.34799 8.82399 2
    endloop
  endfacet
  facet normal -0.936207 -0.35145 0
    outer loop
      vertex 9.18555 6.59288 2
      vertex 9.18555 6.59288 4
      vertex 8.34799 8.82399 4
    endloop
  endfacet
  facet normal -0.655889 -0.754858 0
    outer loop
      vertex 10.7262 5.25421 2
      vertex 9.18555 6.59288 4
      vertex 9.18555 6.59288 2
    endloop
  endfacet
  facet normal -0.655889 -0.754858 0
    outer loop
      vertex 10.7262 5.25421 2
      vertex 10.7262 5.25421 4
      vertex 9.18555 6.59288 4
    endloop
  endfacet
  facet normal -0.195041 -0.980795 0
    outer loop
      vertex 12.97 4.80801 2
      vertex 10.7262 5.25421 4
      vertex 10.7262 5.25421 2
    endloop
  endfacet
  facet normal -0.195041 -0.980795 0
    outer loop
      vertex 12.97 4.80801 2
      vertex 12.97 4.80801 4
      vertex 10.7262 5.25421 4
    endloop
  endfacet
  facet normal 0.108138 -0.994136 0
    outer loop
      vertex 14.2702 4.94945 2
      vertex 12.97 4.80801 4
      vertex 12.97 4.80801 2
    endloop
  endfacet
  facet normal 0.108138 -0.994136 0
    outer loop
      vertex 14.2702 4.94945 2
      vertex 14.2702 4.94945 4
      vertex 12.97 4.80801 4
    endloop
  endfacet
  facet normal 0.23469 -0.97207 0
    outer loop
      vertex 32.3685 5.41954 2
      vertex 31.0652 5.10487 4
      vertex 31.0652 5.10487 2
    endloop
  endfacet
  facet normal 0.23469 -0.97207 0
    outer loop
      vertex 32.3685 5.41954 2
      vertex 32.3685 5.41954 4
      vertex 31.0652 5.10487 4
    endloop
  endfacet
  facet normal 0.404041 -0.914741 0
    outer loop
      vertex 33.5559 5.94398 2
      vertex 32.3685 5.41954 4
      vertex 32.3685 5.41954 2
    endloop
  endfacet
  facet normal 0.404041 -0.914741 0
    outer loop
      vertex 33.5559 5.94398 2
      vertex 33.5559 5.94398 4
      vertex 32.3685 5.41954 4
    endloop
  endfacet
  facet normal 0.568841 -0.822447 0
    outer loop
      vertex 34.6001 6.66621 2
      vertex 33.5559 5.94398 4
      vertex 33.5559 5.94398 2
    endloop
  endfacet
  facet normal 0.568841 -0.822447 0
    outer loop
      vertex 34.6001 6.66621 2
      vertex 34.6001 6.66621 4
      vertex 33.5559 5.94398 4
    endloop
  endfacet
  facet normal 0.72048 -0.693476 0
    outer loop
      vertex 35.4728 7.57288 2
      vertex 34.6001 6.66621 4
      vertex 34.6001 6.66621 2
    endloop
  endfacet
  facet normal 0.72048 -0.693476 0
    outer loop
      vertex 35.4728 7.57288 2
      vertex 35.4728 7.57288 4
      vertex 34.6001 6.66621 4
    endloop
  endfacet
  facet normal 0.84129 -0.540585 0
    outer loop
      vertex 36.1739 8.66399 2
      vertex 35.4728 7.57288 4
      vertex 35.4728 7.57288 2
    endloop
  endfacet
  facet normal 0.84129 -0.540585 0
    outer loop
      vertex 36.1739 8.66399 2
      vertex 36.1739 8.66399 4
      vertex 35.4728 7.57288 4
    endloop
  endfacet
  facet normal 0.925075 -0.379783 0
    outer loop
      vertex 36.6866 9.91299 2
      vertex 36.1739 8.66399 4
      vertex 36.1739 8.66399 2
    endloop
  endfacet
  facet normal 0.925075 -0.379783 0
    outer loop
      vertex 36.6866 9.91299 2
      vertex 36.6866 9.91299 4
      vertex 36.1739 8.66399 4
    endloop
  endfacet
  facet normal 0.976048 -0.217553 0
    outer loop
      vertex 36.9943 11.2933 2
      vertex 36.6866 9.91299 4
      vertex 36.6866 9.91299 2
    endloop
  endfacet
  facet normal 0.976048 -0.217553 0
    outer loop
      vertex 36.9943 11.2933 2
      vertex 36.9943 11.2933 4
      vertex 36.6866 9.91299 4
    endloop
  endfacet
  facet normal 0.997707 -0.067686 0
    outer loop
      vertex 37.0969 12.805 2
      vertex 36.9943 11.2933 4
      vertex 36.9943 11.2933 2
    endloop
  endfacet
  facet normal 0.997707 -0.067686 0
    outer loop
      vertex 37.0969 12.805 2
      vertex 37.0969 12.805 4
      vertex 36.9943 11.2933 4
    endloop
  endfacet
  facet normal 0.99442 0.105491 0
    outer loop
      vertex 36.8621 15.0181 2
      vertex 37.0969 12.805 4
      vertex 37.0969 12.805 2
    endloop
  endfacet
  facet normal 0.99442 0.105491 -0
    outer loop
      vertex 36.8621 15.0181 2
      vertex 36.8621 15.0181 4
      vertex 37.0969 12.805 4
    endloop
  endfacet
  facet normal 0.93439 0.356253 0
    outer loop
      vertex 36.1578 16.8654 2
      vertex 36.8621 15.0181 4
      vertex 36.8621 15.0181 2
    endloop
  endfacet
  facet normal 0.93439 0.356253 -0
    outer loop
      vertex 36.1578 16.8654 2
      vertex 36.1578 16.8654 4
      vertex 36.8621 15.0181 4
    endloop
  endfacet
  facet normal 0.78379 0.621026 0
    outer loop
      vertex 34.9839 18.347 2
      vertex 36.1578 16.8654 4
      vertex 36.1578 16.8654 2
    endloop
  endfacet
  facet normal 0.78379 0.621026 -0
    outer loop
      vertex 34.9839 18.347 2
      vertex 34.9839 18.347 4
      vertex 36.1578 16.8654 4
    endloop
  endfacet
  facet normal 0.559153 0.829065 0
    outer loop
      vertex 33.3784 19.4298 2
      vertex 34.9839 18.347 4
      vertex 34.9839 18.347 2
    endloop
  endfacet
  facet normal 0.559153 0.829065 -0
    outer loop
      vertex 33.3784 19.4298 2
      vertex 33.3784 19.4298 4
      vertex 34.9839 18.347 4
    endloop
  endfacet
  facet normal 0.308899 0.951095 0
    outer loop
      vertex 31.3781 20.0794 2
      vertex 33.3784 19.4298 4
      vertex 33.3784 19.4298 2
    endloop
  endfacet
  facet normal 0.308899 0.951095 -0
    outer loop
      vertex 31.3781 20.0794 2
      vertex 31.3781 20.0794 4
      vertex 33.3784 19.4298 4
    endloop
  endfacet
  facet normal 0.0900432 0.995938 0
    outer loop
      vertex 28.9829 20.296 2
      vertex 31.3781 20.0794 4
      vertex 31.3781 20.0794 2
    endloop
  endfacet
  facet normal 0.0900432 0.995938 -0
    outer loop
      vertex 28.9829 20.296 2
      vertex 28.9829 20.296 4
      vertex 31.3781 20.0794 4
    endloop
  endfacet
  facet normal 0 1 0
    outer loop
      vertex 23.9219 20.296 2
      vertex 28.9829 20.296 4
      vertex 28.9829 20.296 2
    endloop
  endfacet
  facet normal 0 1 0
    outer loop
      vertex 23.9219 20.296 2
      vertex 23.9219 20.296 4
      vertex 28.9829 20.296 4
    endloop
  endfacet
  facet normal -1 0 0
    outer loop
      vertex 23.9219 5 2
      vertex 23.9219 20.296 4
      vertex 23.9219 20.296 2
    endloop
  endfacet
  facet normal -1 0 0
    outer loop
      vertex 23.9219 5 2
      vertex 23.9219 5 4
      vertex 23.9219 20.296 4
    endloop
  endfacet
  facet normal 0 -1 0
    outer loop
      vertex 29.6459 5 2
      vertex 23.9219 5 4
      vertex 23.9219 5 2
    endloop
  endfacet
  facet normal 0 -1 0
    outer loop
      vertex 29.6459 5 2
      vertex 29.6459 5 4
      vertex 23.9219 5 4
    endloop
  endfacet
  facet normal 0.0736888 -0.997281 0
    outer loop
      vertex 31.0652 5.10487 2
      vertex 29.6459 5 4
      vertex 29.6459 5 2
    endloop
  endfacet
  facet normal 0.0736888 -0.997281 0
    outer loop
      vertex 31.0652 5.10487 2
      vertex 31.0652 5.10487 4
      vertex 29.6459 5 4
    endloop
  endfacet
  facet normal 1 0 -0
    outer loop
      vertex 25.9929 18.637 2
      vertex 25.9929 18.637 4
      vertex 25.9929 6.659 2
    endloop
  endfacet
  facet normal 1 -0 0
    outer loop
      vertex 25.9929 6.659 4
      vertex 25.9929 6.659 2
      vertex 25.9929 18.637 4
    endloop
  endfacet
  facet normal 0 -1 0
    outer loop
      vertex 28.9389 18.637 2
      vertex 28.9389 18.637 4
      vertex 25.9929 18.637 2
    endloop
  endfacet
  facet normal 0 -1 0
    outer loop
      vertex 25.9929 18.637 4
      vertex 25.9929 18.637 2
      vertex 28.9389 18.637 4
    endloop
  endfacet
  facet normal -0.0909946 -0.995851 0
    outer loop
      vertex 30.7544 18.4711 2
      vertex 30.7544 18.4711 4
      vertex 28.9389 18.637 2
    endloop
  endfacet
  facet normal -0.0909946 -0.995851 -0
    outer loop
      vertex 28.9389 18.637 4
      vertex 28.9389 18.637 2
      vertex 30.7544 18.4711 4
    endloop
  endfacet
  facet normal -0.313894 -0.949458 0
    outer loop
      vertex 32.2598 17.9734 2
      vertex 32.2598 17.9734 4
      vertex 30.7544 18.4711 2
    endloop
  endfacet
  facet normal -0.313894 -0.949458 -0
    outer loop
      vertex 30.7544 18.4711 4
      vertex 30.7544 18.4711 2
      vertex 32.2598 17.9734 4
    endloop
  endfacet
  facet normal -0.570162 -0.821532 0
    outer loop
      vertex 33.4549 17.144 2
      vertex 33.4549 17.144 4
      vertex 32.2598 17.9734 2
    endloop
  endfacet
  facet normal -0.570162 -0.821532 -0
    outer loop
      vertex 32.2598 17.9734 4
      vertex 32.2598 17.9734 2
      vertex 33.4549 17.144 4
    endloop
  endfacet
  facet normal -0.797517 -0.603297 0
    outer loop
      vertex 34.3215 15.9983 2
      vertex 34.3215 15.9983 4
      vertex 33.4549 17.144 2
    endloop
  endfacet
  facet normal -0.797517 -0.603297 -0
    outer loop
      vertex 33.4549 17.144 4
      vertex 33.4549 17.144 2
      vertex 34.3215 15.9983 4
    endloop
  endfacet
  facet normal -0.941028 -0.33833 0
    outer loop
      vertex 34.8415 14.552 2
      vertex 34.8415 14.552 4
      vertex 34.3215 15.9983 2
    endloop
  endfacet
  facet normal -0.941028 -0.33833 -0
    outer loop
      vertex 34.3215 15.9983 4
      vertex 34.3215 15.9983 2
      vertex 34.8415 14.552 4
    endloop
  endfacet
  facet normal -0.995114 -0.0987283 0
    outer loop
      vertex 35.0149 12.805 2
      vertex 35.0149 12.805 4
      vertex 34.8415 14.552 2
    endloop
  endfacet
  facet normal -0.995114 -0.0987283 -0
    outer loop
      vertex 34.8415 14.552 4
      vertex 34.8415 14.552 2
      vertex 35.0149 12.805 4
    endloop
  endfacet
  facet normal -0.998008 0.0630949 0
    outer loop
      vertex 34.9388 11.6011 2
      vertex 34.9388 11.6011 4
      vertex 35.0149 12.805 2
    endloop
  endfacet
  facet normal -0.998008 0.0630949 0
    outer loop
      vertex 35.0149 12.805 4
      vertex 35.0149 12.805 2
      vertex 34.9388 11.6011 4
    endloop
  endfacet
  facet normal -0.978869 0.20449 0
    outer loop
      vertex 34.7104 10.5081 2
      vertex 34.7104 10.5081 4
      vertex 34.9388 11.6011 2
    endloop
  endfacet
  facet normal -0.978869 0.20449 0
    outer loop
      vertex 34.9388 11.6011 4
      vertex 34.9388 11.6011 2
      vertex 34.7104 10.5081 4
    endloop
  endfacet
  facet normal -0.932447 0.361308 0
    outer loop
      vertex 34.3299 9.52599 2
      vertex 34.3299 9.52599 4
      vertex 34.7104 10.5081 2
    endloop
  endfacet
  facet normal -0.932447 0.361308 0
    outer loop
      vertex 34.7104 10.5081 4
      vertex 34.7104 10.5081 2
      vertex 34.3299 9.52599 4
    endloop
  endfacet
  facet normal -0.853122 0.521711 0
    outer loop
      vertex 33.8074 8.67166 2
      vertex 33.8074 8.67166 4
      vertex 34.3299 9.52599 2
    endloop
  endfacet
  facet normal -0.853122 0.521711 0
    outer loop
      vertex 34.3299 9.52599 4
      vertex 34.3299 9.52599 2
      vertex 33.8074 8.67166 4
    endloop
  endfacet
  facet normal -0.735366 0.67767 0
    outer loop
      vertex 33.1534 7.96199 2
      vertex 33.1534 7.96199 4
      vertex 33.8074 8.67166 2
    endloop
  endfacet
  facet normal -0.735366 0.67767 0
    outer loop
      vertex 33.8074 8.67166 4
      vertex 33.8074 8.67166 2
      vertex 33.1534 7.96199 4
    endloop
  endfacet
  facet normal -0.583899 0.811826 0
    outer loop
      vertex 32.3679 7.39699 2
      vertex 32.3679 7.39699 4
      vertex 33.1534 7.96199 2
    endloop
  endfacet
  facet normal -0.583899 0.811826 0
    outer loop
      vertex 33.1534 7.96199 4
      vertex 33.1534 7.96199 2
      vertex 32.3679 7.39699 4
    endloop
  endfacet
  facet normal -0.41583 0.909443 0
    outer loop
      vertex 31.4712 6.987 2
      vertex 31.4712 6.987 4
      vertex 32.3679 7.39699 2
    endloop
  endfacet
  facet normal -0.41583 0.909443 0
    outer loop
      vertex 32.3679 7.39699 4
      vertex 32.3679 7.39699 2
      vertex 31.4712 6.987 4
    endloop
  endfacet
  facet normal -0.241766 0.970334 0
    outer loop
      vertex 30.4839 6.741 2
      vertex 30.4839 6.741 4
      vertex 31.4712 6.987 2
    endloop
  endfacet
  facet normal -0.241766 0.970334 0
    outer loop
      vertex 31.4712 6.987 4
      vertex 31.4712 6.987 2
      vertex 30.4839 6.741 4
    endloop
  endfacet
  facet normal -0.0758481 0.997119 0
    outer loop
      vertex 29.4059 6.659 2
      vertex 29.4059 6.659 4
      vertex 30.4839 6.741 2
    endloop
  endfacet
  facet normal -0.0758481 0.997119 0
    outer loop
      vertex 30.4839 6.741 4
      vertex 30.4839 6.741 2
      vertex 29.4059 6.659 4
    endloop
  endfacet
  facet normal 0 1 0
    outer loop
      vertex 25.9929 6.659 2
      vertex 25.9929 6.659 4
      vertex 29.4059 6.659 2
    endloop
  endfacet
  facet normal 0 1 0
    outer loop
      vertex 29.4059 6.659 4
      vertex 29.4059 6.659 2
      vertex 25.9929 6.659 4
    endloop
  endfacet
endsolid OpenSCAD_Model
