solid OpenSCAD_Model
  facet normal 0 0 -1
    outer loop
      vertex 17.3489 8.20099 2
      vertex 16.9465 7.03566 2
      vertex 15.1313 7.86066 2
    endloop
  endfacet
  facet normal 0 0 -1
    outer loop
      vertex 17.483 9.577 2
      vertex 17.3489 8.20099 2
      vertex 15.3493 8.61732 2
    endloop
  endfacet
  facet normal -0 0 -1
    outer loop
      vertex 17.3489 8.20099 2
      vertex 15.1313 7.86066 2
      vertex 15.3493 8.61732 2
    endloop
  endfacet
  facet normal 0 0 -1
    outer loop
      vertex 25.3549 7.19499 2
      vertex 24.8231 5.25421 2
      vertex 23.2824 6.59288 2
    endloop
  endfacet
  facet normal 0 0 -1
    outer loop
      vertex 26.426 6.56744 2
      vertex 27.0779 6.489 2
      vertex 27.0669 4.80801 2
    endloop
  endfacet
  facet normal 0 0 -1
    outer loop
      vertex 15.3493 8.61732 2
      vertex 15.422 9.534 2
      vertex 17.483 9.577 2
    endloop
  endfacet
  facet normal 0 0 -1
    outer loop
      vertex 12.47 18.604 2
      vertex 12.47 20.296 2
      vertex 15.422 18.604 2
    endloop
  endfacet
  facet normal 0 -0 -1
    outer loop
      vertex 29.4462 8.61732 2
      vertex 31.4458 8.20099 2
      vertex 29.2282 7.86066 2
    endloop
  endfacet
  facet normal 0 0 -1
    outer loop
      vertex 14.2702 4.94945 2
      vertex 14.2788 6.83344 2
      vertex 15.3722 5.37376 2
    endloop
  endfacet
  facet normal -0 0 -1
    outer loop
      vertex 12.981 6.489 2
      vertex 12.97 4.80801 2
      vertex 12.3291 6.56744 2
    endloop
  endfacet
  facet normal 0 0 -1
    outer loop
      vertex 17.483 9.577 2
      vertex 15.422 18.604 2
      vertex 17.483 20.296 2
    endloop
  endfacet
  facet normal 0 0 -1
    outer loop
      vertex 15.422 18.604 2
      vertex 12.47 20.296 2
      vertex 17.483 20.296 2
    endloop
  endfacet
  facet normal -0 0 -1
    outer loop
      vertex 17.483 9.577 2
      vertex 15.422 9.534 2
      vertex 15.422 18.604 2
    endloop
  endfacet
  facet normal -0 0 -1
    outer loop
      vertex 14.2702 4.94945 2
      vertex 12.97 4.80801 2
      vertex 13.6831 6.5751 2
    endloop
  endfacet
  facet normal -0 0 -1
    outer loop
      vertex 16.9465 7.03566 2
      vertex 16.276 6.08099 2
      vertex 15.1313 7.86066 2
    endloop
  endfacet
  facet normal 0 0 -1
    outer loop
      vertex 14.768 7.26399 2
      vertex 16.276 6.08099 2
      vertex 15.3722 5.37376 2
    endloop
  endfacet
  facet normal 0 -0 -1
    outer loop
      vertex 15.1313 7.86066 2
      vertex 16.276 6.08099 2
      vertex 14.768 7.26399 2
    endloop
  endfacet
  facet normal 0 0 -1
    outer loop
      vertex 14.2788 6.83344 2
      vertex 14.768 7.26399 2
      vertex 15.3722 5.37376 2
    endloop
  endfacet
  facet normal 0 0 -1
    outer loop
      vertex 13.6831 6.5751 2
      vertex 14.2788 6.83344 2
      vertex 14.2702 4.94945 2
    endloop
  endfacet
  facet normal 0 0 -1
    outer loop
      vertex 13.6831 6.5751 2
      vertex 12.97 4.80801 2
      vertex 12.981 6.489 2
    endloop
  endfacet
  facet normal -0 0 -1
    outer loop
      vertex 12.3291 6.56744 2
      vertex 10.7262 5.25421 2
      vertex 11.7548 6.80276 2
    endloop
  endfacet
  facet normal 0 0 -1
    outer loop
      vertex 10.7262 5.25421 2
      vertex 9.18555 6.59288 2
      vertex 11.258 7.19499 2
    endloop
  endfacet
  facet normal 0 0 -1
    outer loop
      vertex 9.18555 6.59288 2
      vertex 10.5611 8.38211 2
      vertex 10.8551 7.7271 2
    endloop
  endfacet
  facet normal -0 0 -1
    outer loop
      vertex 11.258 7.19499 2
      vertex 9.18555 6.59288 2
      vertex 10.8551 7.7271 2
    endloop
  endfacet
  facet normal -0 0 -1
    outer loop
      vertex 10.5611 8.38211 2
      vertex 9.18555 6.59288 2
      vertex 8.34799 8.82399 2
    endloop
  endfacet
  facet normal 0 -0 -1
    outer loop
      vertex 10.376 9.15999 2
      vertex 10.5611 8.38211 2
      vertex 8.34799 8.82399 2
    endloop
  endfacet
  facet normal -0 0 -1
    outer loop
      vertex 11.7548 6.80276 2
      vertex 10.7262 5.25421 2
      vertex 11.258 7.19499 2
    endloop
  endfacet
  facet normal 0 -0 -1
    outer loop
      vertex 12.3291 6.56744 2
      vertex 12.97 4.80801 2
      vertex 10.7262 5.25421 2
    endloop
  endfacet
  facet normal 0 0 -1
    outer loop
      vertex 29.2282 7.86066 2
      vertex 31.4458 8.20099 2
      vertex 31.0434 7.03566 2
    endloop
  endfacet
  facet normal 0 0 -1
    outer loop
      vertex 29.4462 8.61732 2
      vertex 31.5799 9.577 2
      vertex 31.4458 8.20099 2
    endloop
  endfacet
  facet normal 0 0 -1
    outer loop
      vertex 29.4691 5.37376 2
      vertex 28.8649 7.26399 2
      vertex 30.3729 6.08099 2
    endloop
  endfacet
  facet normal 0 0 -1
    outer loop
      vertex 31.5799 9.577 2
      vertex 29.4462 8.61732 2
      vertex 29.5189 9.534 2
    endloop
  endfacet
  facet normal 0 0 -1
    outer loop
      vertex 29.5189 18.604 2
      vertex 31.5799 9.577 2
      vertex 29.5189 9.534 2
    endloop
  endfacet
  facet normal 0 0 -1
    outer loop
      vertex 26.5669 18.604 2
      vertex 26.5669 20.296 2
      vertex 29.5189 18.604 2
    endloop
  endfacet
  facet normal 0 0 -1
    outer loop
      vertex 26.5669 20.296 2
      vertex 31.5799 20.296 2
      vertex 29.5189 18.604 2
    endloop
  endfacet
  facet normal 0 0 -1
    outer loop
      vertex 29.5189 18.604 2
      vertex 31.5799 20.296 2
      vertex 31.5799 9.577 2
    endloop
  endfacet
  facet normal 0 0 -1
    outer loop
      vertex 29.4691 5.37376 2
      vertex 28.3756 6.83344 2
      vertex 28.8649 7.26399 2
    endloop
  endfacet
  facet normal 0 0 -1
    outer loop
      vertex 29.2282 7.86066 2
      vertex 31.0434 7.03566 2
      vertex 30.3729 6.08099 2
    endloop
  endfacet
  facet normal 0 0 -1
    outer loop
      vertex 28.8649 7.26399 2
      vertex 29.2282 7.86066 2
      vertex 30.3729 6.08099 2
    endloop
  endfacet
  facet normal -0 0 -1
    outer loop
      vertex 29.4691 5.37376 2
      vertex 28.3671 4.94945 2
      vertex 28.3756 6.83344 2
    endloop
  endfacet
  facet normal 0 0 -1
    outer loop
      vertex 28.3756 6.83344 2
      vertex 28.3671 4.94945 2
      vertex 27.78 6.5751 2
    endloop
  endfacet
  facet normal 0 -0 -1
    outer loop
      vertex 27.78 6.5751 2
      vertex 28.3671 4.94945 2
      vertex 27.0669 4.80801 2
    endloop
  endfacet
  facet normal 0 -0 -1
    outer loop
      vertex 27.0779 6.489 2
      vertex 27.78 6.5751 2
      vertex 27.0669 4.80801 2
    endloop
  endfacet
  facet normal -0 0 -1
    outer loop
      vertex 26.426 6.56744 2
      vertex 24.8231 5.25421 2
      vertex 25.8516 6.80276 2
    endloop
  endfacet
  facet normal 0 -0 -1
    outer loop
      vertex 24.658 8.38211 2
      vertex 24.952 7.7271 2
      vertex 23.2824 6.59288 2
    endloop
  endfacet
  facet normal 0 0 -1
    outer loop
      vertex 23.2824 6.59288 2
      vertex 22.4449 8.82399 2
      vertex 24.658 8.38211 2
    endloop
  endfacet
  facet normal 0 0 -1
    outer loop
      vertex 24.658 8.38211 2
      vertex 22.4449 8.82399 2
      vertex 24.4729 9.15999 2
    endloop
  endfacet
  facet normal 0 0 -1
    outer loop
      vertex 24.8231 5.25421 2
      vertex 25.3549 7.19499 2
      vertex 25.8516 6.80276 2
    endloop
  endfacet
  facet normal 0 0 -1
    outer loop
      vertex 23.2824 6.59288 2
      vertex 24.952 7.7271 2
      vertex 25.3549 7.19499 2
    endloop
  endfacet
  facet normal 0 0 -1
    outer loop
      vertex 24.8231 5.25421 2
      vertex 26.426 6.56744 2
      vertex 27.0669 4.80801 2
    endloop
  endfacet
  facet normal -0 0 1
    outer loop
      vertex 15.1313 7.86066 4
      vertex 16.9465 7.03566 4
      vertex 17.3489 8.20099 4
    endloop
  endfacet
  facet normal -0 0 1
    outer loop
      vertex 15.3493 8.61732 4
      vertex 17.3489 8.20099 4
      vertex 17.483 9.577 4
    endloop
  endfacet
  facet normal 0 0 1
    outer loop
      vertex 15.3493 8.61732 4
      vertex 15.1313 7.86066 4
      vertex 17.3489 8.20099 4
    endloop
  endfacet
  facet normal -0 0 1
    outer loop
      vertex 23.2824 6.59288 4
      vertex 24.8231 5.25421 4
      vertex 25.3549 7.19499 4
    endloop
  endfacet
  facet normal 0 -0 1
    outer loop
      vertex 27.0669 4.80801 4
      vertex 27.0779 6.489 4
      vertex 26.426 6.56744 4
    endloop
  endfacet
  facet normal 0 0 1
    outer loop
      vertex 17.483 9.577 4
      vertex 15.422 9.534 4
      vertex 15.3493 8.61732 4
    endloop
  endfacet
  facet normal 0 0 1
    outer loop
      vertex 15.422 18.604 4
      vertex 12.47 20.296 4
      vertex 12.47 18.604 4
    endloop
  endfacet
  facet normal 0 0 1
    outer loop
      vertex 29.2282 7.86066 4
      vertex 31.4458 8.20099 4
      vertex 29.4462 8.61732 4
    endloop
  endfacet
  facet normal 0 0 1
    outer loop
      vertex 15.3722 5.37376 4
      vertex 14.2788 6.83344 4
      vertex 14.2702 4.94945 4
    endloop
  endfacet
  facet normal 0 0 1
    outer loop
      vertex 12.3291 6.56744 4
      vertex 12.97 4.80801 4
      vertex 12.981 6.489 4
    endloop
  endfacet
  facet normal 0 0 1
    outer loop
      vertex 17.483 20.296 4
      vertex 15.422 18.604 4
      vertex 17.483 9.577 4
    endloop
  endfacet
  facet normal 0 0 1
    outer loop
      vertex 17.483 20.296 4
      vertex 12.47 20.296 4
      vertex 15.422 18.604 4
    endloop
  endfacet
  facet normal 0 0 1
    outer loop
      vertex 15.422 18.604 4
      vertex 15.422 9.534 4
      vertex 17.483 9.577 4
    endloop
  endfacet
  facet normal 0 0 1
    outer loop
      vertex 13.6831 6.5751 4
      vertex 12.97 4.80801 4
      vertex 14.2702 4.94945 4
    endloop
  endfacet
  facet normal 0 0 1
    outer loop
      vertex 15.1313 7.86066 4
      vertex 16.276 6.08099 4
      vertex 16.9465 7.03566 4
    endloop
  endfacet
  facet normal 0 -0 1
    outer loop
      vertex 15.3722 5.37376 4
      vertex 16.276 6.08099 4
      vertex 14.768 7.26399 4
    endloop
  endfacet
  facet normal -0 0 1
    outer loop
      vertex 14.768 7.26399 4
      vertex 16.276 6.08099 4
      vertex 15.1313 7.86066 4
    endloop
  endfacet
  facet normal 0 0 1
    outer loop
      vertex 15.3722 5.37376 4
      vertex 14.768 7.26399 4
      vertex 14.2788 6.83344 4
    endloop
  endfacet
  facet normal 0 -0 1
    outer loop
      vertex 14.2702 4.94945 4
      vertex 14.2788 6.83344 4
      vertex 13.6831 6.5751 4
    endloop
  endfacet
  facet normal -0 0 1
    outer loop
      vertex 12.981 6.489 4
      vertex 12.97 4.80801 4
      vertex 13.6831 6.5751 4
    endloop
  endfacet
  facet normal 0 0 1
    outer loop
      vertex 11.7548 6.80276 4
      vertex 10.7262 5.25421 4
      vertex 12.3291 6.56744 4
    endloop
  endfacet
  facet normal 0 0 1
    outer loop
      vertex 11.258 7.19499 4
      vertex 9.18555 6.59288 4
      vertex 10.7262 5.25421 4
    endloop
  endfacet
  facet normal 0 0 1
    outer loop
      vertex 10.8551 7.7271 4
      vertex 10.5611 8.38211 4
      vertex 9.18555 6.59288 4
    endloop
  endfacet
  facet normal 0 0 1
    outer loop
      vertex 10.8551 7.7271 4
      vertex 9.18555 6.59288 4
      vertex 11.258 7.19499 4
    endloop
  endfacet
  facet normal 0 0 1
    outer loop
      vertex 8.34799 8.82399 4
      vertex 9.18555 6.59288 4
      vertex 10.5611 8.38211 4
    endloop
  endfacet
  facet normal -0 0 1
    outer loop
      vertex 8.34799 8.82399 4
      vertex 10.5611 8.38211 4
      vertex 10.376 9.15999 4
    endloop
  endfacet
  facet normal 0 0 1
    outer loop
      vertex 11.258 7.19499 4
      vertex 10.7262 5.25421 4
      vertex 11.7548 6.80276 4
    endloop
  endfacet
  facet normal -0 0 1
    outer loop
      vertex 10.7262 5.25421 4
      vertex 12.97 4.80801 4
      vertex 12.3291 6.56744 4
    endloop
  endfacet
  facet normal 0 -0 1
    outer loop
      vertex 31.0434 7.03566 4
      vertex 31.4458 8.20099 4
      vertex 29.2282 7.86066 4
    endloop
  endfacet
  facet normal 0 -0 1
    outer loop
      vertex 31.4458 8.20099 4
      vertex 31.5799 9.577 4
      vertex 29.4462 8.61732 4
    endloop
  endfacet
  facet normal 0 0 1
    outer loop
      vertex 30.3729 6.08099 4
      vertex 28.8649 7.26399 4
      vertex 29.4691 5.37376 4
    endloop
  endfacet
  facet normal -0 0 1
    outer loop
      vertex 29.5189 9.534 4
      vertex 29.4462 8.61732 4
      vertex 31.5799 9.577 4
    endloop
  endfacet
  facet normal 0 0 1
    outer loop
      vertex 29.5189 9.534 4
      vertex 31.5799 9.577 4
      vertex 29.5189 18.604 4
    endloop
  endfacet
  facet normal 0 0 1
    outer loop
      vertex 29.5189 18.604 4
      vertex 26.5669 20.296 4
      vertex 26.5669 18.604 4
    endloop
  endfacet
  facet normal 0 -0 1
    outer loop
      vertex 29.5189 18.604 4
      vertex 31.5799 20.296 4
      vertex 26.5669 20.296 4
    endloop
  endfacet
  facet normal 0 -0 1
    outer loop
      vertex 31.5799 9.577 4
      vertex 31.5799 20.296 4
      vertex 29.5189 18.604 4
    endloop
  endfacet
  facet normal 0 0 1
    outer loop
      vertex 28.8649 7.26399 4
      vertex 28.3756 6.83344 4
      vertex 29.4691 5.37376 4
    endloop
  endfacet
  facet normal 0 -0 1
    outer loop
      vertex 30.3729 6.08099 4
      vertex 31.0434 7.03566 4
      vertex 29.2282 7.86066 4
    endloop
  endfacet
  facet normal 0 0 1
    outer loop
      vertex 30.3729 6.08099 4
      vertex 29.2282 7.86066 4
      vertex 28.8649 7.26399 4
    endloop
  endfacet
  facet normal 0 0 1
    outer loop
      vertex 28.3756 6.83344 4
      vertex 28.3671 4.94945 4
      vertex 29.4691 5.37376 4
    endloop
  endfacet
  facet normal -0 0 1
    outer loop
      vertex 27.78 6.5751 4
      vertex 28.3671 4.94945 4
      vertex 28.3756 6.83344 4
    endloop
  endfacet
  facet normal 0 0 1
    outer loop
      vertex 27.0669 4.80801 4
      vertex 28.3671 4.94945 4
      vertex 27.78 6.5751 4
    endloop
  endfacet
  facet normal 0 0 1
    outer loop
      vertex 27.0669 4.80801 4
      vertex 27.78 6.5751 4
      vertex 27.0779 6.489 4
    endloop
  endfacet
  facet normal 0 0 1
    outer loop
      vertex 25.8516 6.80276 4
      vertex 24.8231 5.25421 4
      vertex 26.426 6.56744 4
    endloop
  endfacet
  facet normal 0 0 1
    outer loop
      vertex 23.2824 6.59288 4
      vertex 24.952 7.7271 4
      vertex 24.658 8.38211 4
    endloop
  endfacet
  facet normal 0 0 1
    outer loop
      vertex 24.658 8.38211 4
      vertex 22.4449 8.82399 4
      vertex 23.2824 6.59288 4
    endloop
  endfacet
  facet normal 0 0 1
    outer loop
      vertex 24.4729 9.15999 4
      vertex 22.4449 8.82399 4
      vertex 24.658 8.38211 4
    endloop
  endfacet
  facet normal 0 0 1
    outer loop
      vertex 25.8516 6.80276 4
      vertex 25.3549 7.19499 4
      vertex 24.8231 5.25421 4
    endloop
  endfacet
  facet normal 0 0 1
    outer loop
      vertex 25.3549 7.19499 4
      vertex 24.952 7.7271 4
      vertex 23.2824 6.59288 4
    endloop
  endfacet
  facet normal 0 0 1
    outer loop
      vertex 27.0669 4.80801 4
      vertex 26.426 6.56744 4
      vertex 24.8231 5.25421 4
    endloop
  endfacet
  facet normal 0.359329 -0.933211 0
    outer loop
      vertex 15.3722 5.37376 2
      vertex 14.2702 4.94945 4
      vertex 14.2702 4.94945 2
    endloop
  endfacet
  facet normal 0.359329 -0.933211 0
    outer loop
      vertex 15.3722 5.37376 2
      vertex 15.3722 5.37376 4
      vertex 14.2702 4.94945 4
    endloop
  endfacet
  facet normal 0.616268 -0.787537 0
    outer loop
      vertex 16.276 6.08099 2
      vertex 15.3722 5.37376 4
      vertex 15.3722 5.37376 2
    endloop
  endfacet
  facet normal 0.616268 -0.787537 0
    outer loop
      vertex 16.276 6.08099 2
      vertex 16.276 6.08099 4
      vertex 15.3722 5.37376 4
    endloop
  endfacet
  facet normal 0.818306 -0.574783 0
    outer loop
      vertex 16.9465 7.03566 2
      vertex 16.276 6.08099 4
      vertex 16.276 6.08099 2
    endloop
  endfacet
  facet normal 0.818306 -0.574783 0
    outer loop
      vertex 16.9465 7.03566 2
      vertex 16.9465 7.03566 4
      vertex 16.276 6.08099 4
    endloop
  endfacet
  facet normal 0.94525 -0.326347 0
    outer loop
      vertex 17.3489 8.20099 2
      vertex 16.9465 7.03566 4
      vertex 16.9465 7.03566 2
    endloop
  endfacet
  facet normal 0.94525 -0.326347 0
    outer loop
      vertex 17.3489 8.20099 2
      vertex 17.3489 8.20099 4
      vertex 16.9465 7.03566 4
    endloop
  endfacet
  facet normal 0.995284 -0.0970032 0
    outer loop
      vertex 17.483 9.577 2
      vertex 17.3489 8.20099 4
      vertex 17.3489 8.20099 2
    endloop
  endfacet
  facet normal 0.995284 -0.0970032 0
    outer loop
      vertex 17.483 9.577 2
      vertex 17.483 9.577 4
      vertex 17.3489 8.20099 4
    endloop
  endfacet
  facet normal 1 0 0
    outer loop
      vertex 17.483 20.296 2
      vertex 17.483 9.577 4
      vertex 17.483 9.577 2
    endloop
  endfacet
  facet normal 1 0 -0
    outer loop
      vertex 17.483 20.296 2
      vertex 17.483 20.296 4
      vertex 17.483 9.577 4
    endloop
  endfacet
  facet normal 0 1 0
    outer loop
      vertex 12.47 20.296 2
      vertex 17.483 20.296 4
      vertex 17.483 20.296 2
    endloop
  endfacet
  facet normal 0 1 0
    outer loop
      vertex 12.47 20.296 2
      vertex 12.47 20.296 4
      vertex 17.483 20.296 4
    endloop
  endfacet
  facet normal -1 0 0
    outer loop
      vertex 12.47 18.604 2
      vertex 12.47 20.296 4
      vertex 12.47 20.296 2
    endloop
  endfacet
  facet normal -1 0 0
    outer loop
      vertex 12.47 18.604 2
      vertex 12.47 18.604 4
      vertex 12.47 20.296 4
    endloop
  endfacet
  facet normal 0 -1 0
    outer loop
      vertex 15.422 18.604 2
      vertex 12.47 18.604 4
      vertex 12.47 18.604 2
    endloop
  endfacet
  facet normal 0 -1 0
    outer loop
      vertex 15.422 18.604 2
      vertex 15.422 18.604 4
      vertex 12.47 18.604 4
    endloop
  endfacet
  facet normal -1 0 0
    outer loop
      vertex 15.422 9.534 2
      vertex 15.422 18.604 4
      vertex 15.422 18.604 2
    endloop
  endfacet
  facet normal -1 0 0
    outer loop
      vertex 15.422 9.534 2
      vertex 15.422 9.534 4
      vertex 15.422 18.604 4
    endloop
  endfacet
  facet normal -0.996872 0.0790362 0
    outer loop
      vertex 15.3493 8.61732 2
      vertex 15.422 9.534 4
      vertex 15.422 9.534 2
    endloop
  endfacet
  facet normal -0.996872 0.0790362 0
    outer loop
      vertex 15.3493 8.61732 2
      vertex 15.3493 8.61732 4
      vertex 15.422 9.534 4
    endloop
  endfacet
  facet normal -0.960919 0.276829 0
    outer loop
      vertex 15.1313 7.86066 2
      vertex 15.3493 8.61732 4
      vertex 15.3493 8.61732 2
    endloop
  endfacet
  facet normal -0.960919 0.276829 0
    outer loop
      vertex 15.1313 7.86066 2
      vertex 15.1313 7.86066 4
      vertex 15.3493 8.61732 4
    endloop
  endfacet
  facet normal -0.8541 0.520109 0
    outer loop
      vertex 14.768 7.26399 2
      vertex 15.1313 7.86066 4
      vertex 15.1313 7.86066 2
    endloop
  endfacet
  facet normal -0.8541 0.520109 0
    outer loop
      vertex 14.768 7.26399 2
      vertex 14.768 7.26399 4
      vertex 15.1313 7.86066 4
    endloop
  endfacet
  facet normal -0.66066 0.750685 0
    outer loop
      vertex 14.2788 6.83344 2
      vertex 14.768 7.26399 4
      vertex 14.768 7.26399 2
    endloop
  endfacet
  facet normal -0.66066 0.750685 0
    outer loop
      vertex 14.2788 6.83344 2
      vertex 14.2788 6.83344 4
      vertex 14.768 7.26399 4
    endloop
  endfacet
  facet normal -0.397884 0.917436 0
    outer loop
      vertex 13.6831 6.5751 2
      vertex 14.2788 6.83344 4
      vertex 14.2788 6.83344 2
    endloop
  endfacet
  facet normal -0.397884 0.917436 0
    outer loop
      vertex 13.6831 6.5751 2
      vertex 13.6831 6.5751 4
      vertex 14.2788 6.83344 4
    endloop
  endfacet
  facet normal -0.121725 0.992564 0
    outer loop
      vertex 12.981 6.489 2
      vertex 13.6831 6.5751 4
      vertex 13.6831 6.5751 2
    endloop
  endfacet
  facet normal -0.121725 0.992564 0
    outer loop
      vertex 12.981 6.489 2
      vertex 12.981 6.489 4
      vertex 13.6831 6.5751 4
    endloop
  endfacet
  facet normal 0.119474 0.992837 0
    outer loop
      vertex 12.3291 6.56744 2
      vertex 12.981 6.489 4
      vertex 12.981 6.489 2
    endloop
  endfacet
  facet normal 0.119474 0.992837 -0
    outer loop
      vertex 12.3291 6.56744 2
      vertex 12.3291 6.56744 4
      vertex 12.981 6.489 4
    endloop
  endfacet
  facet normal 0.379143 0.925338 0
    outer loop
      vertex 11.7548 6.80276 2
      vertex 12.3291 6.56744 4
      vertex 12.3291 6.56744 2
    endloop
  endfacet
  facet normal 0.379143 0.925338 -0
    outer loop
      vertex 11.7548 6.80276 2
      vertex 11.7548 6.80276 4
      vertex 12.3291 6.56744 4
    endloop
  endfacet
  facet normal 0.619676 0.784858 0
    outer loop
      vertex 11.258 7.19499 2
      vertex 11.7548 6.80276 4
      vertex 11.7548 6.80276 2
    endloop
  endfacet
  facet normal 0.619676 0.784858 -0
    outer loop
      vertex 11.258 7.19499 2
      vertex 11.258 7.19499 4
      vertex 11.7548 6.80276 4
    endloop
  endfacet
  facet normal 0.797248 0.603652 0
    outer loop
      vertex 10.8551 7.7271 2
      vertex 11.258 7.19499 4
      vertex 11.258 7.19499 2
    endloop
  endfacet
  facet normal 0.797248 0.603652 -0
    outer loop
      vertex 10.8551 7.7271 2
      vertex 10.8551 7.7271 4
      vertex 11.258 7.19499 4
    endloop
  endfacet
  facet normal 0.912312 0.409496 0
    outer loop
      vertex 10.5611 8.38211 2
      vertex 10.8551 7.7271 4
      vertex 10.8551 7.7271 2
    endloop
  endfacet
  facet normal 0.912312 0.409496 -0
    outer loop
      vertex 10.5611 8.38211 2
      vertex 10.5611 8.38211 4
      vertex 10.8551 7.7271 4
    endloop
  endfacet
  facet normal 0.972836 0.231497 0
    outer loop
      vertex 10.376 9.15999 2
      vertex 10.5611 8.38211 4
      vertex 10.5611 8.38211 2
    endloop
  endfacet
  facet normal 0.972836 0.231497 -0
    outer loop
      vertex 10.376 9.15999 2
      vertex 10.376 9.15999 4
      vertex 10.5611 8.38211 4
    endloop
  endfacet
  facet normal -0.163452 0.986551 0
    outer loop
      vertex 8.34799 8.82399 2
      vertex 10.376 9.15999 4
      vertex 10.376 9.15999 2
    endloop
  endfacet
  facet normal -0.163452 0.986551 0
    outer loop
      vertex 8.34799 8.82399 2
      vertex 8.34799 8.82399 4
      vertex 10.376 9.15999 4
    endloop
  endfacet
  facet normal -0.936207 -0.35145 0
    outer loop
      vertex 9.18555 6.59288 2
      vertex 8.34799 8.82399 4
      vertex 8.34799 8.82399 2
    endloop
  endfacet
  facet normal -0.936207 -0.35145 0
    outer loop
      vertex 9.18555 6.59288 2
      vertex 9.18555 6.59288 4
      vertex 8.34799 8.82399 4
    endloop
  endfacet
  facet normal -0.655889 -0.754858 0
    outer loop
      vertex 10.7262 5.25421 2
      vertex 9.18555 6.59288 4
      vertex 9.18555 6.59288 2
    endloop
  endfacet
  facet normal -0.655889 -0.754858 0
    outer loop
      vertex 10.7262 5.25421 2
      vertex 10.7262 5.25421 4
      vertex 9.18555 6.59288 4
    endloop
  endfacet
  facet normal -0.195041 -0.980795 0
    outer loop
      vertex 12.97 4.80801 2
      vertex 10.7262 5.25421 4
      vertex 10.7262 5.25421 2
    endloop
  endfacet
  facet normal -0.195041 -0.980795 0
    outer loop
      vertex 12.97 4.80801 2
      vertex 12.97 4.80801 4
      vertex 10.7262 5.25421 4
    endloop
  endfacet
  facet normal 0.108138 -0.994136 0
    outer loop
      vertex 14.2702 4.94945 2
      vertex 12.97 4.80801 4
      vertex 12.97 4.80801 2
    endloop
  endfacet
  facet normal 0.108138 -0.994136 0
    outer loop
      vertex 14.2702 4.94945 2
      vertex 14.2702 4.94945 4
      vertex 12.97 4.80801 4
    endloop
  endfacet
  facet normal 0.359329 -0.933211 0
    outer loop
      vertex 29.4691 5.37376 2
      vertex 28.3671 4.94945 4
      vertex 28.3671 4.94945 2
    endloop
  endfacet
  facet normal 0.359329 -0.933211 0
    outer loop
      vertex 29.4691 5.37376 2
      vertex 29.4691 5.37376 4
      vertex 28.3671 4.94945 4
    endloop
  endfacet
  facet normal 0.616268 -0.787537 0
    outer loop
      vertex 30.3729 6.08099 2
      vertex 29.4691 5.37376 4
      vertex 29.4691 5.37376 2
    endloop
  endfacet
  facet normal 0.616268 -0.787537 0
    outer loop
      vertex 30.3729 6.08099 2
      vertex 30.3729 6.08099 4
      vertex 29.4691 5.37376 4
    endloop
  endfacet
  facet normal 0.818306 -0.574783 0
    outer loop
      vertex 31.0434 7.03566 2
      vertex 30.3729 6.08099 4
      vertex 30.3729 6.08099 2
    endloop
  endfacet
  facet normal 0.818306 -0.574783 0
    outer loop
      vertex 31.0434 7.03566 2
      vertex 31.0434 7.03566 4
      vertex 30.3729 6.08099 4
    endloop
  endfacet
  facet normal 0.94525 -0.326347 0
    outer loop
      vertex 31.4458 8.20099 2
      vertex 31.0434 7.03566 4
      vertex 31.0434 7.03566 2
    endloop
  endfacet
  facet normal 0.94525 -0.326347 0
    outer loop
      vertex 31.4458 8.20099 2
      vertex 31.4458 8.20099 4
      vertex 31.0434 7.03566 4
    endloop
  endfacet
  facet normal 0.995284 -0.0970032 0
    outer loop
      vertex 31.5799 9.577 2
      vertex 31.4458 8.20099 4
      vertex 31.4458 8.20099 2
    endloop
  endfacet
  facet normal 0.995284 -0.0970032 0
    outer loop
      vertex 31.5799 9.577 2
      vertex 31.5799 9.577 4
      vertex 31.4458 8.20099 4
    endloop
  endfacet
  facet normal 1 0 0
    outer loop
      vertex 31.5799 20.296 2
      vertex 31.5799 9.577 4
      vertex 31.5799 9.577 2
    endloop
  endfacet
  facet normal 1 0 -0
    outer loop
      vertex 31.5799 20.296 2
      vertex 31.5799 20.296 4
      vertex 31.5799 9.577 4
    endloop
  endfacet
  facet normal 0 1 0
    outer loop
      vertex 26.5669 20.296 2
      vertex 31.5799 20.296 4
      vertex 31.5799 20.296 2
    endloop
  endfacet
  facet normal 0 1 0
    outer loop
      vertex 26.5669 20.296 2
      vertex 26.5669 20.296 4
      vertex 31.5799 20.296 4
    endloop
  endfacet
  facet normal -1 0 0
    outer loop
      vertex 26.5669 18.604 2
      vertex 26.5669 20.296 4
      vertex 26.5669 20.296 2
    endloop
  endfacet
  facet normal -1 0 0
    outer loop
      vertex 26.5669 18.604 2
      vertex 26.5669 18.604 4
      vertex 26.5669 20.296 4
    endloop
  endfacet
  facet normal 0 -1 0
    outer loop
      vertex 29.5189 18.604 2
      vertex 26.5669 18.604 4
      vertex 26.5669 18.604 2
    endloop
  endfacet
  facet normal 0 -1 0
    outer loop
      vertex 29.5189 18.604 2
      vertex 29.5189 18.604 4
      vertex 26.5669 18.604 4
    endloop
  endfacet
  facet normal -1 0 0
    outer loop
      vertex 29.5189 9.534 2
      vertex 29.5189 18.604 4
      vertex 29.5189 18.604 2
    endloop
  endfacet
  facet normal -1 0 0
    outer loop
      vertex 29.5189 9.534 2
      vertex 29.5189 9.534 4
      vertex 29.5189 18.604 4
    endloop
  endfacet
  facet normal -0.996873 0.0790197 0
    outer loop
      vertex 29.4462 8.61732 2
      vertex 29.5189 9.534 4
      vertex 29.5189 9.534 2
    endloop
  endfacet
  facet normal -0.996873 0.0790197 0
    outer loop
      vertex 29.4462 8.61732 2
      vertex 29.4462 8.61732 4
      vertex 29.5189 9.534 4
    endloop
  endfacet
  facet normal -0.960914 0.276847 0
    outer loop
      vertex 29.2282 7.86066 2
      vertex 29.4462 8.61732 4
      vertex 29.4462 8.61732 2
    endloop
  endfacet
  facet normal -0.960914 0.276847 0
    outer loop
      vertex 29.2282 7.86066 2
      vertex 29.2282 7.86066 4
      vertex 29.4462 8.61732 4
    endloop
  endfacet
  facet normal -0.85411 0.520093 0
    outer loop
      vertex 28.8649 7.26399 2
      vertex 29.2282 7.86066 4
      vertex 29.2282 7.86066 2
    endloop
  endfacet
  facet normal -0.85411 0.520093 0
    outer loop
      vertex 28.8649 7.26399 2
      vertex 28.8649 7.26399 4
      vertex 29.2282 7.86066 4
    endloop
  endfacet
  facet normal -0.66066 0.750685 0
    outer loop
      vertex 28.3756 6.83344 2
      vertex 28.8649 7.26399 4
      vertex 28.8649 7.26399 2
    endloop
  endfacet
  facet normal -0.66066 0.750685 0
    outer loop
      vertex 28.3756 6.83344 2
      vertex 28.3756 6.83344 4
      vertex 28.8649 7.26399 4
    endloop
  endfacet
  facet normal -0.397884 0.917436 0
    outer loop
      vertex 27.78 6.5751 2
      vertex 28.3756 6.83344 4
      vertex 28.3756 6.83344 2
    endloop
  endfacet
  facet normal -0.397884 0.917436 0
    outer loop
      vertex 27.78 6.5751 2
      vertex 27.78 6.5751 4
      vertex 28.3756 6.83344 4
    endloop
  endfacet
  facet normal -0.121725 0.992564 0
    outer loop
      vertex 27.0779 6.489 2
      vertex 27.78 6.5751 4
      vertex 27.78 6.5751 2
    endloop
  endfacet
  facet normal -0.121725 0.992564 0
    outer loop
      vertex 27.0779 6.489 2
      vertex 27.0779 6.489 4
      vertex 27.78 6.5751 4
    endloop
  endfacet
  facet normal 0.119474 0.992837 0
    outer loop
      vertex 26.426 6.56744 2
      vertex 27.0779 6.489 4
      vertex 27.0779 6.489 2
    endloop
  endfacet
  facet normal 0.119474 0.992837 -0
    outer loop
      vertex 26.426 6.56744 2
      vertex 26.426 6.56744 4
      vertex 27.0779 6.489 4
    endloop
  endfacet
  facet normal 0.379134 0.925342 0
    outer loop
      vertex 25.8516 6.80276 2
      vertex 26.426 6.56744 4
      vertex 26.426 6.56744 2
    endloop
  endfacet
  facet normal 0.379134 0.925342 -0
    outer loop
      vertex 25.8516 6.80276 2
      vertex 25.8516 6.80276 4
      vertex 26.426 6.56744 4
    endloop
  endfacet
  facet normal 0.619687 0.784849 0
    outer loop
      vertex 25.3549 7.19499 2
      vertex 25.8516 6.80276 4
      vertex 25.8516 6.80276 2
    endloop
  endfacet
  facet normal 0.619687 0.784849 -0
    outer loop
      vertex 25.3549 7.19499 2
      vertex 25.3549 7.19499 4
      vertex 25.8516 6.80276 4
    endloop
  endfacet
  facet normal 0.797248 0.603652 0
    outer loop
      vertex 24.952 7.7271 2
      vertex 25.3549 7.19499 4
      vertex 25.3549 7.19499 2
    endloop
  endfacet
  facet normal 0.797248 0.603652 -0
    outer loop
      vertex 24.952 7.7271 2
      vertex 24.952 7.7271 4
      vertex 25.3549 7.19499 4
    endloop
  endfacet
  facet normal 0.912312 0.409496 0
    outer loop
      vertex 24.658 8.38211 2
      vertex 24.952 7.7271 4
      vertex 24.952 7.7271 2
    endloop
  endfacet
  facet normal 0.912312 0.409496 -0
    outer loop
      vertex 24.658 8.38211 2
      vertex 24.658 8.38211 4
      vertex 24.952 7.7271 4
    endloop
  endfacet
  facet normal 0.972836 0.231497 0
    outer loop
      vertex 24.4729 9.15999 2
      vertex 24.658 8.38211 4
      vertex 24.658 8.38211 2
    endloop
  endfacet
  facet normal 0.972836 0.231497 -0
    outer loop
      vertex 24.4729 9.15999 2
      vertex 24.4729 9.15999 4
      vertex 24.658 8.38211 4
    endloop
  endfacet
  facet normal -0.163452 0.986551 0
    outer loop
      vertex 22.4449 8.82399 2
      vertex 24.4729 9.15999 4
      vertex 24.4729 9.15999 2
    endloop
  endfacet
  facet normal -0.163452 0.986551 0
    outer loop
      vertex 22.4449 8.82399 2
      vertex 22.4449 8.82399 4
      vertex 24.4729 9.15999 4
    endloop
  endfacet
  facet normal -0.936207 -0.35145 0
    outer loop
      vertex 23.2824 6.59288 2
      vertex 22.4449 8.82399 4
      vertex 22.4449 8.82399 2
    endloop
  endfacet
  facet normal -0.936207 -0.35145 0
    outer loop
      vertex 23.2824 6.59288 2
      vertex 23.2824 6.59288 4
      vertex 22.4449 8.82399 4
    endloop
  endfacet
  facet normal -0.655889 -0.754858 0
    outer loop
      vertex 24.8231 5.25421 2
      vertex 23.2824 6.59288 4
      vertex 23.2824 6.59288 2
    endloop
  endfacet
  facet normal -0.655889 -0.754858 0
    outer loop
      vertex 24.8231 5.25421 2
      vertex 24.8231 5.25421 4
      vertex 23.2824 6.59288 4
    endloop
  endfacet
  facet normal -0.195041 -0.980795 0
    outer loop
      vertex 27.0669 4.80801 2
      vertex 24.8231 5.25421 4
      vertex 24.8231 5.25421 2
    endloop
  endfacet
  facet normal -0.195041 -0.980795 0
    outer loop
      vertex 27.0669 4.80801 2
      vertex 27.0669 4.80801 4
      vertex 24.8231 5.25421 4
    endloop
  endfacet
  facet normal 0.108138 -0.994136 0
    outer loop
      vertex 28.3671 4.94945 2
      vertex 27.0669 4.80801 4
      vertex 27.0669 4.80801 2
    endloop
  endfacet
  facet normal 0.108138 -0.994136 0
    outer loop
      vertex 28.3671 4.94945 2
      vertex 28.3671 4.94945 4
      vertex 27.0669 4.80801 4
    endloop
  endfacet
endsolid OpenSCAD_Model
