solid OpenSCAD_Model
  facet normal 0 0 -1
    outer loop
      vertex 35.5705 9.34854 2
      vertex 37.9063 9.79077 2
      vertex 37.3969 8.528 2
    endloop
  endfacet
  facet normal 0 0 -1
    outer loop
      vertex 34.7839 8.11499 2
      vertex 35.5705 9.34854 2
      vertex 36.6975 7.42377 2
    endloop
  endfacet
  facet normal 0 -0 -1
    outer loop
      vertex 36.0425 10.8812 2
      vertex 37.9063 9.79077 2
      vertex 35.5705 9.34854 2
    endloop
  endfacet
  facet normal 0 0 -1
    outer loop
      vertex 36.0425 10.8812 2
      vertex 36.1999 12.713 2
      vertex 38.212 11.1858 2
    endloop
  endfacet
  facet normal -0 0 -1
    outer loop
      vertex 35.8209 6.50444 2
      vertex 34.7669 5.76999 2
      vertex 33.7031 7.21165 2
    endloop
  endfacet
  facet normal 0 0 -1
    outer loop
      vertex 38.3139 12.713 2
      vertex 36.1999 12.713 2
      vertex 38.2132 14.2427 2
    endloop
  endfacet
  facet normal 0 0 -1
    outer loop
      vertex 32.3488 6.66966 2
      vertex 33.7031 7.21165 2
      vertex 33.5555 5.23555 2
    endloop
  endfacet
  facet normal -0 0 -1
    outer loop
      vertex 37.9112 15.6303 2
      vertex 36.0413 14.4714 2
      vertex 35.5656 15.9588 2
    endloop
  endfacet
  facet normal -0 0 -1
    outer loop
      vertex 33.577 20.0769 2
      vertex 32.348 18.6159 2
      vertex 32.2283 20.3852 2
    endloop
  endfacet
  facet normal 0 0 -1
    outer loop
      vertex 30.7429 18.796 2
      vertex 32.2283 20.3852 2
      vertex 32.348 18.6159 2
    endloop
  endfacet
  facet normal 0 0 -1
    outer loop
      vertex 34.7729 17.175 2
      vertex 33.6913 18.0755 2
      vertex 35.8408 18.8538 2
    endloop
  endfacet
  facet normal 0 0 -1
    outer loop
      vertex 35.5656 15.9588 2
      vertex 34.7729 17.175 2
      vertex 36.7141 17.9581 2
    endloop
  endfacet
  facet normal 0 0 -1
    outer loop
      vertex 30.7419 20.488 2
      vertex 29.1249 18.6183 2
      vertex 28.5305 20.2591 2
    endloop
  endfacet
  facet normal -0 0 -1
    outer loop
      vertex 37.4079 16.876 2
      vertex 35.5656 15.9588 2
      vertex 36.7141 17.9581 2
    endloop
  endfacet
  facet normal 0 -0 -1
    outer loop
      vertex 26.6685 19.5724 2
      vertex 26.6849 17.197 2
      vertex 25.1559 18.428 2
    endloop
  endfacet
  facet normal 0 -0 -1
    outer loop
      vertex 25.1559 18.428 2
      vertex 25.8893 15.9881 2
      vertex 24.0409 16.8774 2
    endloop
  endfacet
  facet normal 0 0 -1
    outer loop
      vertex 25.8893 15.9881 2
      vertex 25.412 14.4934 2
      vertex 23.3719 14.9724 2
    endloop
  endfacet
  facet normal 0 0 -1
    outer loop
      vertex 25.412 14.4934 2
      vertex 25.2529 12.713 2
      vertex 23.1489 12.713 2
    endloop
  endfacet
  facet normal 0 -0 -1
    outer loop
      vertex 25.2529 12.713 2
      vertex 25.4138 10.9352 2
      vertex 23.2489 11.179 2
    endloop
  endfacet
  facet normal 0 0 -1
    outer loop
      vertex 12.47 18.604 2
      vertex 12.47 20.296 2
      vertex 15.422 18.604 2
    endloop
  endfacet
  facet normal 0 0 -1
    outer loop
      vertex 26.6685 19.5724 2
      vertex 27.7722 18.0853 2
      vertex 26.6849 17.197 2
    endloop
  endfacet
  facet normal 0 0 -1
    outer loop
      vertex 23.5489 9.77832 2
      vertex 25.4138 10.9352 2
      vertex 25.8964 9.42055 2
    endloop
  endfacet
  facet normal -0 0 -1
    outer loop
      vertex 32.2069 4.9149 2
      vertex 30.7209 4.80801 2
      vertex 30.7209 6.489 2
    endloop
  endfacet
  facet normal 0 0 -1
    outer loop
      vertex 16.9465 7.03566 2
      vertex 15.1313 7.86066 2
      vertex 17.3489 8.20099 2
    endloop
  endfacet
  facet normal 0 0 -1
    outer loop
      vertex 24.7392 7.40521 2
      vertex 26.7009 8.16899 2
      vertex 25.6089 6.48788 2
    endloop
  endfacet
  facet normal 0 0 -1
    outer loop
      vertex 15.1313 7.86066 2
      vertex 15.3493 8.61732 2
      vertex 17.3489 8.20099 2
    endloop
  endfacet
  facet normal 0 0 -1
    outer loop
      vertex 27.8689 5.23065 2
      vertex 29.1315 6.67566 2
      vertex 29.2232 4.91368 2
    endloop
  endfacet
  facet normal 0 0 -1
    outer loop
      vertex 27.7915 7.23566 2
      vertex 29.1315 6.67566 2
      vertex 27.8689 5.23065 2
    endloop
  endfacet
  facet normal 0 0 -1
    outer loop
      vertex 26.6579 5.75899 2
      vertex 27.7915 7.23566 2
      vertex 27.8689 5.23065 2
    endloop
  endfacet
  facet normal 0 0 -1
    outer loop
      vertex 25.6089 6.48788 2
      vertex 26.7009 8.16899 2
      vertex 27.7915 7.23566 2
    endloop
  endfacet
  facet normal -0 0 -1
    outer loop
      vertex 30.7209 6.489 2
      vertex 29.2232 4.91368 2
      vertex 29.1315 6.67566 2
    endloop
  endfacet
  facet normal 0 -0 -1
    outer loop
      vertex 30.7209 6.489 2
      vertex 30.7209 4.80801 2
      vertex 29.2232 4.91368 2
    endloop
  endfacet
  facet normal 0 0 -1
    outer loop
      vertex 24.0489 8.51099 2
      vertex 25.8964 9.42055 2
      vertex 24.7392 7.40521 2
    endloop
  endfacet
  facet normal 0 0 -1
    outer loop
      vertex 26.6579 5.75899 2
      vertex 25.6089 6.48788 2
      vertex 27.7915 7.23566 2
    endloop
  endfacet
  facet normal 0 0 -1
    outer loop
      vertex 24.7392 7.40521 2
      vertex 25.8964 9.42055 2
      vertex 26.7009 8.16899 2
    endloop
  endfacet
  facet normal 0 0 -1
    outer loop
      vertex 24.0489 8.51099 2
      vertex 23.5489 9.77832 2
      vertex 25.8964 9.42055 2
    endloop
  endfacet
  facet normal -0 0 -1
    outer loop
      vertex 25.4138 10.9352 2
      vertex 23.5489 9.77832 2
      vertex 23.2489 11.179 2
    endloop
  endfacet
  facet normal -0 0 -1
    outer loop
      vertex 25.2529 12.713 2
      vertex 23.2489 11.179 2
      vertex 23.1489 12.713 2
    endloop
  endfacet
  facet normal -0 0 -1
    outer loop
      vertex 25.412 14.4934 2
      vertex 23.1489 12.713 2
      vertex 23.3719 14.9724 2
    endloop
  endfacet
  facet normal -0 0 -1
    outer loop
      vertex 25.8893 15.9881 2
      vertex 23.3719 14.9724 2
      vertex 24.0409 16.8774 2
    endloop
  endfacet
  facet normal -0 0 -1
    outer loop
      vertex 26.6849 17.197 2
      vertex 25.8893 15.9881 2
      vertex 25.1559 18.428 2
    endloop
  endfacet
  facet normal 0 0 -1
    outer loop
      vertex 26.6685 19.5724 2
      vertex 28.5305 20.2591 2
      vertex 27.7722 18.0853 2
    endloop
  endfacet
  facet normal 0 0 -1
    outer loop
      vertex 27.7722 18.0853 2
      vertex 28.5305 20.2591 2
      vertex 29.1249 18.6183 2
    endloop
  endfacet
  facet normal 0 0 -1
    outer loop
      vertex 30.7429 18.796 2
      vertex 30.7419 20.488 2
      vertex 32.2283 20.3852 2
    endloop
  endfacet
  facet normal 0 0 -1
    outer loop
      vertex 29.1249 18.6183 2
      vertex 30.7419 20.488 2
      vertex 30.7429 18.796 2
    endloop
  endfacet
  facet normal 0 -0 -1
    outer loop
      vertex 33.577 20.0769 2
      vertex 33.6913 18.0755 2
      vertex 32.348 18.6159 2
    endloop
  endfacet
  facet normal 0 0 -1
    outer loop
      vertex 33.6913 18.0755 2
      vertex 34.7879 19.563 2
      vertex 35.8408 18.8538 2
    endloop
  endfacet
  facet normal 0 0 -1
    outer loop
      vertex 33.577 20.0769 2
      vertex 34.7879 19.563 2
      vertex 33.6913 18.0755 2
    endloop
  endfacet
  facet normal 0 0 -1
    outer loop
      vertex 34.7729 17.175 2
      vertex 35.8408 18.8538 2
      vertex 36.7141 17.9581 2
    endloop
  endfacet
  facet normal 0 -0 -1
    outer loop
      vertex 37.4079 16.876 2
      vertex 37.9112 15.6303 2
      vertex 35.5656 15.9588 2
    endloop
  endfacet
  facet normal 0 0 -1
    outer loop
      vertex 36.0413 14.4714 2
      vertex 38.2132 14.2427 2
      vertex 36.1999 12.713 2
    endloop
  endfacet
  facet normal 0 -0 -1
    outer loop
      vertex 37.9112 15.6303 2
      vertex 38.2132 14.2427 2
      vertex 36.0413 14.4714 2
    endloop
  endfacet
  facet normal -0 0 -1
    outer loop
      vertex 38.3139 12.713 2
      vertex 38.212 11.1858 2
      vertex 36.1999 12.713 2
    endloop
  endfacet
  facet normal 0 0 -1
    outer loop
      vertex 38.212 11.1858 2
      vertex 37.9063 9.79077 2
      vertex 36.0425 10.8812 2
    endloop
  endfacet
  facet normal -0 0 -1
    outer loop
      vertex 37.3969 8.528 2
      vertex 36.6975 7.42377 2
      vertex 35.5705 9.34854 2
    endloop
  endfacet
  facet normal -0 0 -1
    outer loop
      vertex 36.6975 7.42377 2
      vertex 35.8209 6.50444 2
      vertex 34.7839 8.11499 2
    endloop
  endfacet
  facet normal 0 -0 -1
    outer loop
      vertex 34.7839 8.11499 2
      vertex 35.8209 6.50444 2
      vertex 33.7031 7.21165 2
    endloop
  endfacet
  facet normal 0 -0 -1
    outer loop
      vertex 33.7031 7.21165 2
      vertex 34.7669 5.76999 2
      vertex 33.5555 5.23555 2
    endloop
  endfacet
  facet normal 0 0 -1
    outer loop
      vertex 30.7209 6.489 2
      vertex 32.3488 6.66966 2
      vertex 32.2069 4.9149 2
    endloop
  endfacet
  facet normal 0 -0 -1
    outer loop
      vertex 32.3488 6.66966 2
      vertex 33.5555 5.23555 2
      vertex 32.2069 4.9149 2
    endloop
  endfacet
  facet normal 0 0 -1
    outer loop
      vertex 15.3493 8.61732 2
      vertex 17.483 9.577 2
      vertex 17.3489 8.20099 2
    endloop
  endfacet
  facet normal 0 0 -1
    outer loop
      vertex 15.3493 8.61732 2
      vertex 15.422 9.534 2
      vertex 17.483 9.577 2
    endloop
  endfacet
  facet normal 0 0 -1
    outer loop
      vertex 14.2702 4.94945 2
      vertex 14.2788 6.83344 2
      vertex 15.3722 5.37376 2
    endloop
  endfacet
  facet normal -0 0 -1
    outer loop
      vertex 12.981 6.489 2
      vertex 12.97 4.80801 2
      vertex 12.3291 6.56744 2
    endloop
  endfacet
  facet normal 0 0 -1
    outer loop
      vertex 17.483 9.577 2
      vertex 15.422 18.604 2
      vertex 17.483 20.296 2
    endloop
  endfacet
  facet normal 0 0 -1
    outer loop
      vertex 15.422 18.604 2
      vertex 12.47 20.296 2
      vertex 17.483 20.296 2
    endloop
  endfacet
  facet normal -0 0 -1
    outer loop
      vertex 17.483 9.577 2
      vertex 15.422 9.534 2
      vertex 15.422 18.604 2
    endloop
  endfacet
  facet normal -0 0 -1
    outer loop
      vertex 14.2702 4.94945 2
      vertex 12.97 4.80801 2
      vertex 13.6831 6.5751 2
    endloop
  endfacet
  facet normal -0 0 -1
    outer loop
      vertex 16.9465 7.03566 2
      vertex 16.276 6.08099 2
      vertex 15.1313 7.86066 2
    endloop
  endfacet
  facet normal 0 0 -1
    outer loop
      vertex 14.768 7.26399 2
      vertex 16.276 6.08099 2
      vertex 15.3722 5.37376 2
    endloop
  endfacet
  facet normal 0 -0 -1
    outer loop
      vertex 15.1313 7.86066 2
      vertex 16.276 6.08099 2
      vertex 14.768 7.26399 2
    endloop
  endfacet
  facet normal 0 0 -1
    outer loop
      vertex 14.2788 6.83344 2
      vertex 14.768 7.26399 2
      vertex 15.3722 5.37376 2
    endloop
  endfacet
  facet normal 0 0 -1
    outer loop
      vertex 13.6831 6.5751 2
      vertex 14.2788 6.83344 2
      vertex 14.2702 4.94945 2
    endloop
  endfacet
  facet normal 0 0 -1
    outer loop
      vertex 13.6831 6.5751 2
      vertex 12.97 4.80801 2
      vertex 12.981 6.489 2
    endloop
  endfacet
  facet normal -0 0 -1
    outer loop
      vertex 12.3291 6.56744 2
      vertex 10.7262 5.25421 2
      vertex 11.7548 6.80276 2
    endloop
  endfacet
  facet normal 0 0 -1
    outer loop
      vertex 10.7262 5.25421 2
      vertex 9.18555 6.59288 2
      vertex 11.258 7.19499 2
    endloop
  endfacet
  facet normal 0 0 -1
    outer loop
      vertex 9.18555 6.59288 2
      vertex 10.5611 8.38211 2
      vertex 10.8551 7.7271 2
    endloop
  endfacet
  facet normal -0 0 -1
    outer loop
      vertex 11.258 7.19499 2
      vertex 9.18555 6.59288 2
      vertex 10.8551 7.7271 2
    endloop
  endfacet
  facet normal -0 0 -1
    outer loop
      vertex 10.5611 8.38211 2
      vertex 9.18555 6.59288 2
      vertex 8.34799 8.82399 2
    endloop
  endfacet
  facet normal 0 -0 -1
    outer loop
      vertex 10.376 9.15999 2
      vertex 10.5611 8.38211 2
      vertex 8.34799 8.82399 2
    endloop
  endfacet
  facet normal -0 0 -1
    outer loop
      vertex 11.7548 6.80276 2
      vertex 10.7262 5.25421 2
      vertex 11.258 7.19499 2
    endloop
  endfacet
  facet normal 0 -0 -1
    outer loop
      vertex 12.3291 6.56744 2
      vertex 12.97 4.80801 2
      vertex 10.7262 5.25421 2
    endloop
  endfacet
  facet normal 0 -0 1
    outer loop
      vertex 37.3969 8.528 4
      vertex 37.9063 9.79077 4
      vertex 35.5705 9.34854 4
    endloop
  endfacet
  facet normal 0 0 1
    outer loop
      vertex 36.6975 7.42377 4
      vertex 35.5705 9.34854 4
      vertex 34.7839 8.11499 4
    endloop
  endfacet
  facet normal 0 0 1
    outer loop
      vertex 35.5705 9.34854 4
      vertex 37.9063 9.79077 4
      vertex 36.0425 10.8812 4
    endloop
  endfacet
  facet normal 0 0 1
    outer loop
      vertex 38.212 11.1858 4
      vertex 36.1999 12.713 4
      vertex 36.0425 10.8812 4
    endloop
  endfacet
  facet normal 0 0 1
    outer loop
      vertex 33.7031 7.21165 4
      vertex 34.7669 5.76999 4
      vertex 35.8209 6.50444 4
    endloop
  endfacet
  facet normal 0 0 1
    outer loop
      vertex 38.2132 14.2427 4
      vertex 36.1999 12.713 4
      vertex 38.3139 12.713 4
    endloop
  endfacet
  facet normal 0 -0 1
    outer loop
      vertex 33.5555 5.23555 4
      vertex 33.7031 7.21165 4
      vertex 32.3488 6.66966 4
    endloop
  endfacet
  facet normal 0 0 1
    outer loop
      vertex 35.5656 15.9588 4
      vertex 36.0413 14.4714 4
      vertex 37.9112 15.6303 4
    endloop
  endfacet
  facet normal 0 0 1
    outer loop
      vertex 32.2283 20.3852 4
      vertex 32.348 18.6159 4
      vertex 33.577 20.0769 4
    endloop
  endfacet
  facet normal 0 0 1
    outer loop
      vertex 32.348 18.6159 4
      vertex 32.2283 20.3852 4
      vertex 30.7429 18.796 4
    endloop
  endfacet
  facet normal 0 0 1
    outer loop
      vertex 35.8408 18.8538 4
      vertex 33.6913 18.0755 4
      vertex 34.7729 17.175 4
    endloop
  endfacet
  facet normal 0 0 1
    outer loop
      vertex 36.7141 17.9581 4
      vertex 34.7729 17.175 4
      vertex 35.5656 15.9588 4
    endloop
  endfacet
  facet normal -0 0 1
    outer loop
      vertex 28.5305 20.2591 4
      vertex 29.1249 18.6183 4
      vertex 30.7419 20.488 4
    endloop
  endfacet
  facet normal 0 0 1
    outer loop
      vertex 36.7141 17.9581 4
      vertex 35.5656 15.9588 4
      vertex 37.4079 16.876 4
    endloop
  endfacet
  facet normal -0 0 1
    outer loop
      vertex 25.1559 18.428 4
      vertex 26.6849 17.197 4
      vertex 26.6685 19.5724 4
    endloop
  endfacet
  facet normal -0 0 1
    outer loop
      vertex 24.0409 16.8774 4
      vertex 25.8893 15.9881 4
      vertex 25.1559 18.428 4
    endloop
  endfacet
  facet normal -0 0 1
    outer loop
      vertex 23.3719 14.9724 4
      vertex 25.412 14.4934 4
      vertex 25.8893 15.9881 4
    endloop
  endfacet
  facet normal 0 0 1
    outer loop
      vertex 23.1489 12.713 4
      vertex 25.2529 12.713 4
      vertex 25.412 14.4934 4
    endloop
  endfacet
  facet normal -0 0 1
    outer loop
      vertex 23.2489 11.179 4
      vertex 25.4138 10.9352 4
      vertex 25.2529 12.713 4
    endloop
  endfacet
  facet normal 0 0 1
    outer loop
      vertex 15.422 18.604 4
      vertex 12.47 20.296 4
      vertex 12.47 18.604 4
    endloop
  endfacet
  facet normal 0 -0 1
    outer loop
      vertex 26.6849 17.197 4
      vertex 27.7722 18.0853 4
      vertex 26.6685 19.5724 4
    endloop
  endfacet
  facet normal 0 0 1
    outer loop
      vertex 25.8964 9.42055 4
      vertex 25.4138 10.9352 4
      vertex 23.5489 9.77832 4
    endloop
  endfacet
  facet normal 0 0 1
    outer loop
      vertex 30.7209 6.489 4
      vertex 30.7209 4.80801 4
      vertex 32.2069 4.9149 4
    endloop
  endfacet
  facet normal 0 0 1
    outer loop
      vertex 17.3489 8.20099 4
      vertex 15.1313 7.86066 4
      vertex 16.9465 7.03566 4
    endloop
  endfacet
  facet normal 0 -0 1
    outer loop
      vertex 25.6089 6.48788 4
      vertex 26.7009 8.16899 4
      vertex 24.7392 7.40521 4
    endloop
  endfacet
  facet normal 0 0 1
    outer loop
      vertex 17.3489 8.20099 4
      vertex 15.3493 8.61732 4
      vertex 15.1313 7.86066 4
    endloop
  endfacet
  facet normal 0 0 1
    outer loop
      vertex 29.2232 4.91368 4
      vertex 29.1315 6.67566 4
      vertex 27.8689 5.23065 4
    endloop
  endfacet
  facet normal 0 -0 1
    outer loop
      vertex 27.8689 5.23065 4
      vertex 29.1315 6.67566 4
      vertex 27.7915 7.23566 4
    endloop
  endfacet
  facet normal 0 0 1
    outer loop
      vertex 27.8689 5.23065 4
      vertex 27.7915 7.23566 4
      vertex 26.6579 5.75899 4
    endloop
  endfacet
  facet normal 0 0 1
    outer loop
      vertex 27.7915 7.23566 4
      vertex 26.7009 8.16899 4
      vertex 25.6089 6.48788 4
    endloop
  endfacet
  facet normal 0 0 1
    outer loop
      vertex 29.1315 6.67566 4
      vertex 29.2232 4.91368 4
      vertex 30.7209 6.489 4
    endloop
  endfacet
  facet normal -0 0 1
    outer loop
      vertex 29.2232 4.91368 4
      vertex 30.7209 4.80801 4
      vertex 30.7209 6.489 4
    endloop
  endfacet
  facet normal 0 -0 1
    outer loop
      vertex 24.7392 7.40521 4
      vertex 25.8964 9.42055 4
      vertex 24.0489 8.51099 4
    endloop
  endfacet
  facet normal 0 0 1
    outer loop
      vertex 27.7915 7.23566 4
      vertex 25.6089 6.48788 4
      vertex 26.6579 5.75899 4
    endloop
  endfacet
  facet normal 0 0 1
    outer loop
      vertex 26.7009 8.16899 4
      vertex 25.8964 9.42055 4
      vertex 24.7392 7.40521 4
    endloop
  endfacet
  facet normal 0 0 1
    outer loop
      vertex 25.8964 9.42055 4
      vertex 23.5489 9.77832 4
      vertex 24.0489 8.51099 4
    endloop
  endfacet
  facet normal 0 0 1
    outer loop
      vertex 23.2489 11.179 4
      vertex 23.5489 9.77832 4
      vertex 25.4138 10.9352 4
    endloop
  endfacet
  facet normal -0 0 1
    outer loop
      vertex 23.1489 12.713 4
      vertex 23.2489 11.179 4
      vertex 25.2529 12.713 4
    endloop
  endfacet
  facet normal 0 0 1
    outer loop
      vertex 23.3719 14.9724 4
      vertex 23.1489 12.713 4
      vertex 25.412 14.4934 4
    endloop
  endfacet
  facet normal 0 0 1
    outer loop
      vertex 24.0409 16.8774 4
      vertex 23.3719 14.9724 4
      vertex 25.8893 15.9881 4
    endloop
  endfacet
  facet normal 0 0 1
    outer loop
      vertex 25.1559 18.428 4
      vertex 25.8893 15.9881 4
      vertex 26.6849 17.197 4
    endloop
  endfacet
  facet normal 0 -0 1
    outer loop
      vertex 27.7722 18.0853 4
      vertex 28.5305 20.2591 4
      vertex 26.6685 19.5724 4
    endloop
  endfacet
  facet normal 0 0 1
    outer loop
      vertex 29.1249 18.6183 4
      vertex 28.5305 20.2591 4
      vertex 27.7722 18.0853 4
    endloop
  endfacet
  facet normal 0 0 1
    outer loop
      vertex 32.2283 20.3852 4
      vertex 30.7419 20.488 4
      vertex 30.7429 18.796 4
    endloop
  endfacet
  facet normal 0 0 1
    outer loop
      vertex 30.7429 18.796 4
      vertex 30.7419 20.488 4
      vertex 29.1249 18.6183 4
    endloop
  endfacet
  facet normal -0 0 1
    outer loop
      vertex 32.348 18.6159 4
      vertex 33.6913 18.0755 4
      vertex 33.577 20.0769 4
    endloop
  endfacet
  facet normal 0 0 1
    outer loop
      vertex 35.8408 18.8538 4
      vertex 34.7879 19.563 4
      vertex 33.6913 18.0755 4
    endloop
  endfacet
  facet normal 0 -0 1
    outer loop
      vertex 33.6913 18.0755 4
      vertex 34.7879 19.563 4
      vertex 33.577 20.0769 4
    endloop
  endfacet
  facet normal 0 0 1
    outer loop
      vertex 36.7141 17.9581 4
      vertex 35.8408 18.8538 4
      vertex 34.7729 17.175 4
    endloop
  endfacet
  facet normal -0 0 1
    outer loop
      vertex 35.5656 15.9588 4
      vertex 37.9112 15.6303 4
      vertex 37.4079 16.876 4
    endloop
  endfacet
  facet normal 0 -0 1
    outer loop
      vertex 36.1999 12.713 4
      vertex 38.2132 14.2427 4
      vertex 36.0413 14.4714 4
    endloop
  endfacet
  facet normal -0 0 1
    outer loop
      vertex 36.0413 14.4714 4
      vertex 38.2132 14.2427 4
      vertex 37.9112 15.6303 4
    endloop
  endfacet
  facet normal -0 0 1
    outer loop
      vertex 36.1999 12.713 4
      vertex 38.212 11.1858 4
      vertex 38.3139 12.713 4
    endloop
  endfacet
  facet normal -0 0 1
    outer loop
      vertex 36.0425 10.8812 4
      vertex 37.9063 9.79077 4
      vertex 38.212 11.1858 4
    endloop
  endfacet
  facet normal 0 0 1
    outer loop
      vertex 35.5705 9.34854 4
      vertex 36.6975 7.42377 4
      vertex 37.3969 8.528 4
    endloop
  endfacet
  facet normal 0 0 1
    outer loop
      vertex 34.7839 8.11499 4
      vertex 35.8209 6.50444 4
      vertex 36.6975 7.42377 4
    endloop
  endfacet
  facet normal -0 0 1
    outer loop
      vertex 33.7031 7.21165 4
      vertex 35.8209 6.50444 4
      vertex 34.7839 8.11499 4
    endloop
  endfacet
  facet normal 0 0 1
    outer loop
      vertex 33.5555 5.23555 4
      vertex 34.7669 5.76999 4
      vertex 33.7031 7.21165 4
    endloop
  endfacet
  facet normal 0 -0 1
    outer loop
      vertex 32.2069 4.9149 4
      vertex 32.3488 6.66966 4
      vertex 30.7209 6.489 4
    endloop
  endfacet
  facet normal 0 0 1
    outer loop
      vertex 32.2069 4.9149 4
      vertex 33.5555 5.23555 4
      vertex 32.3488 6.66966 4
    endloop
  endfacet
  facet normal 0 -0 1
    outer loop
      vertex 17.3489 8.20099 4
      vertex 17.483 9.577 4
      vertex 15.3493 8.61732 4
    endloop
  endfacet
  facet normal 0 0 1
    outer loop
      vertex 17.483 9.577 4
      vertex 15.422 9.534 4
      vertex 15.3493 8.61732 4
    endloop
  endfacet
  facet normal 0 0 1
    outer loop
      vertex 15.3722 5.37376 4
      vertex 14.2788 6.83344 4
      vertex 14.2702 4.94945 4
    endloop
  endfacet
  facet normal 0 0 1
    outer loop
      vertex 12.3291 6.56744 4
      vertex 12.97 4.80801 4
      vertex 12.981 6.489 4
    endloop
  endfacet
  facet normal 0 0 1
    outer loop
      vertex 17.483 20.296 4
      vertex 15.422 18.604 4
      vertex 17.483 9.577 4
    endloop
  endfacet
  facet normal 0 0 1
    outer loop
      vertex 17.483 20.296 4
      vertex 12.47 20.296 4
      vertex 15.422 18.604 4
    endloop
  endfacet
  facet normal 0 0 1
    outer loop
      vertex 15.422 18.604 4
      vertex 15.422 9.534 4
      vertex 17.483 9.577 4
    endloop
  endfacet
  facet normal 0 0 1
    outer loop
      vertex 13.6831 6.5751 4
      vertex 12.97 4.80801 4
      vertex 14.2702 4.94945 4
    endloop
  endfacet
  facet normal 0 0 1
    outer loop
      vertex 15.1313 7.86066 4
      vertex 16.276 6.08099 4
      vertex 16.9465 7.03566 4
    endloop
  endfacet
  facet normal 0 -0 1
    outer loop
      vertex 15.3722 5.37376 4
      vertex 16.276 6.08099 4
      vertex 14.768 7.26399 4
    endloop
  endfacet
  facet normal -0 0 1
    outer loop
      vertex 14.768 7.26399 4
      vertex 16.276 6.08099 4
      vertex 15.1313 7.86066 4
    endloop
  endfacet
  facet normal 0 0 1
    outer loop
      vertex 15.3722 5.37376 4
      vertex 14.768 7.26399 4
      vertex 14.2788 6.83344 4
    endloop
  endfacet
  facet normal 0 -0 1
    outer loop
      vertex 14.2702 4.94945 4
      vertex 14.2788 6.83344 4
      vertex 13.6831 6.5751 4
    endloop
  endfacet
  facet normal -0 0 1
    outer loop
      vertex 12.981 6.489 4
      vertex 12.97 4.80801 4
      vertex 13.6831 6.5751 4
    endloop
  endfacet
  facet normal 0 0 1
    outer loop
      vertex 11.7548 6.80276 4
      vertex 10.7262 5.25421 4
      vertex 12.3291 6.56744 4
    endloop
  endfacet
  facet normal 0 0 1
    outer loop
      vertex 11.258 7.19499 4
      vertex 9.18555 6.59288 4
      vertex 10.7262 5.25421 4
    endloop
  endfacet
  facet normal 0 0 1
    outer loop
      vertex 10.8551 7.7271 4
      vertex 10.5611 8.38211 4
      vertex 9.18555 6.59288 4
    endloop
  endfacet
  facet normal 0 0 1
    outer loop
      vertex 10.8551 7.7271 4
      vertex 9.18555 6.59288 4
      vertex 11.258 7.19499 4
    endloop
  endfacet
  facet normal 0 0 1
    outer loop
      vertex 8.34799 8.82399 4
      vertex 9.18555 6.59288 4
      vertex 10.5611 8.38211 4
    endloop
  endfacet
  facet normal -0 0 1
    outer loop
      vertex 8.34799 8.82399 4
      vertex 10.5611 8.38211 4
      vertex 10.376 9.15999 4
    endloop
  endfacet
  facet normal 0 0 1
    outer loop
      vertex 11.258 7.19499 4
      vertex 10.7262 5.25421 4
      vertex 11.7548 6.80276 4
    endloop
  endfacet
  facet normal -0 0 1
    outer loop
      vertex 10.7262 5.25421 4
      vertex 12.97 4.80801 4
      vertex 12.3291 6.56744 4
    endloop
  endfacet
  facet normal 0.231305 -0.972881 0
    outer loop
      vertex 33.5555 5.23555 2
      vertex 32.2069 4.9149 4
      vertex 32.2069 4.9149 2
    endloop
  endfacet
  facet normal 0.231305 -0.972881 0
    outer loop
      vertex 33.5555 5.23555 2
      vertex 33.5555 5.23555 4
      vertex 32.2069 4.9149 4
    endloop
  endfacet
  facet normal 0.403657 -0.91491 0
    outer loop
      vertex 34.7669 5.76999 2
      vertex 33.5555 5.23555 4
      vertex 33.5555 5.23555 2
    endloop
  endfacet
  facet normal 0.403657 -0.91491 0
    outer loop
      vertex 34.7669 5.76999 2
      vertex 34.7669 5.76999 4
      vertex 33.5555 5.23555 4
    endloop
  endfacet
  facet normal 0.571711 -0.820455 0
    outer loop
      vertex 35.8209 6.50444 2
      vertex 34.7669 5.76999 4
      vertex 34.7669 5.76999 2
    endloop
  endfacet
  facet normal 0.571711 -0.820455 0
    outer loop
      vertex 35.8209 6.50444 2
      vertex 35.8209 6.50444 4
      vertex 34.7669 5.76999 4
    endloop
  endfacet
  facet normal 0.723694 -0.690121 0
    outer loop
      vertex 36.6975 7.42377 2
      vertex 35.8209 6.50444 4
      vertex 35.8209 6.50444 2
    endloop
  endfacet
  facet normal 0.723694 -0.690121 0
    outer loop
      vertex 36.6975 7.42377 2
      vertex 36.6975 7.42377 4
      vertex 35.8209 6.50444 4
    endloop
  endfacet
  facet normal 0.844827 -0.53504 0
    outer loop
      vertex 37.3969 8.528 2
      vertex 36.6975 7.42377 4
      vertex 36.6975 7.42377 2
    endloop
  endfacet
  facet normal 0.844827 -0.53504 0
    outer loop
      vertex 37.3969 8.528 2
      vertex 37.3969 8.528 4
      vertex 36.6975 7.42377 4
    endloop
  endfacet
  facet normal 0.927374 -0.374135 0
    outer loop
      vertex 37.9063 9.79077 2
      vertex 37.3969 8.528 4
      vertex 37.3969 8.528 2
    endloop
  endfacet
  facet normal 0.927374 -0.374135 0
    outer loop
      vertex 37.9063 9.79077 2
      vertex 37.9063 9.79077 4
      vertex 37.3969 8.528 4
    endloop
  endfacet
  facet normal 0.976826 -0.214036 0
    outer loop
      vertex 38.212 11.1858 2
      vertex 37.9063 9.79077 4
      vertex 37.9063 9.79077 2
    endloop
  endfacet
  facet normal 0.976826 -0.214036 0
    outer loop
      vertex 38.212 11.1858 2
      vertex 38.212 11.1858 4
      vertex 37.9063 9.79077 4
    endloop
  endfacet
  facet normal 0.997782 -0.0665733 0
    outer loop
      vertex 38.3139 12.713 2
      vertex 38.212 11.1858 4
      vertex 38.212 11.1858 2
    endloop
  endfacet
  facet normal 0.997782 -0.0665733 0
    outer loop
      vertex 38.3139 12.713 2
      vertex 38.3139 12.713 4
      vertex 38.212 11.1858 4
    endloop
  endfacet
  facet normal 0.997841 0.0656747 0
    outer loop
      vertex 38.2132 14.2427 2
      vertex 38.3139 12.713 4
      vertex 38.3139 12.713 2
    endloop
  endfacet
  facet normal 0.997841 0.0656747 -0
    outer loop
      vertex 38.2132 14.2427 2
      vertex 38.2132 14.2427 4
      vertex 38.3139 12.713 4
    endloop
  endfacet
  facet normal 0.977127 0.212655 0
    outer loop
      vertex 37.9112 15.6303 2
      vertex 38.2132 14.2427 4
      vertex 38.2132 14.2427 2
    endloop
  endfacet
  facet normal 0.977127 0.212655 -0
    outer loop
      vertex 37.9112 15.6303 2
      vertex 37.9112 15.6303 4
      vertex 38.2132 14.2427 4
    endloop
  endfacet
  facet normal 0.927172 0.374635 0
    outer loop
      vertex 37.4079 16.876 2
      vertex 37.9112 15.6303 4
      vertex 37.9112 15.6303 2
    endloop
  endfacet
  facet normal 0.927172 0.374635 -0
    outer loop
      vertex 37.4079 16.876 2
      vertex 37.4079 16.876 4
      vertex 37.9112 15.6303 4
    endloop
  endfacet
  facet normal 0.841839 0.539728 0
    outer loop
      vertex 36.7141 17.9581 2
      vertex 37.4079 16.876 4
      vertex 37.4079 16.876 2
    endloop
  endfacet
  facet normal 0.841839 0.539728 -0
    outer loop
      vertex 36.7141 17.9581 2
      vertex 36.7141 17.9581 4
      vertex 37.4079 16.876 4
    endloop
  endfacet
  facet normal 0.715979 0.698122 0
    outer loop
      vertex 35.8408 18.8538 2
      vertex 36.7141 17.9581 4
      vertex 36.7141 17.9581 2
    endloop
  endfacet
  facet normal 0.715979 0.698122 -0
    outer loop
      vertex 35.8408 18.8538 2
      vertex 35.8408 18.8538 4
      vertex 36.7141 17.9581 4
    endloop
  endfacet
  facet normal 0.558669 0.829391 0
    outer loop
      vertex 34.7879 19.563 2
      vertex 35.8408 18.8538 4
      vertex 35.8408 18.8538 2
    endloop
  endfacet
  facet normal 0.558669 0.829391 -0
    outer loop
      vertex 34.7879 19.563 2
      vertex 34.7879 19.563 4
      vertex 35.8408 18.8538 4
    endloop
  endfacet
  facet normal 0.390662 0.920534 0
    outer loop
      vertex 33.577 20.0769 2
      vertex 34.7879 19.563 4
      vertex 34.7879 19.563 2
    endloop
  endfacet
  facet normal 0.390662 0.920534 -0
    outer loop
      vertex 33.577 20.0769 2
      vertex 33.577 20.0769 4
      vertex 34.7879 19.563 4
    endloop
  endfacet
  facet normal 0.222872 0.974848 0
    outer loop
      vertex 32.2283 20.3852 2
      vertex 33.577 20.0769 4
      vertex 33.577 20.0769 2
    endloop
  endfacet
  facet normal 0.222872 0.974848 -0
    outer loop
      vertex 32.2283 20.3852 2
      vertex 32.2283 20.3852 4
      vertex 33.577 20.0769 4
    endloop
  endfacet
  facet normal 0.068982 0.997618 0
    outer loop
      vertex 30.7419 20.488 2
      vertex 32.2283 20.3852 4
      vertex 32.2283 20.3852 2
    endloop
  endfacet
  facet normal 0.068982 0.997618 -0
    outer loop
      vertex 30.7419 20.488 2
      vertex 30.7419 20.488 4
      vertex 32.2283 20.3852 4
    endloop
  endfacet
  facet normal -0.102954 0.994686 0
    outer loop
      vertex 28.5305 20.2591 2
      vertex 30.7419 20.488 4
      vertex 30.7419 20.488 2
    endloop
  endfacet
  facet normal -0.102954 0.994686 0
    outer loop
      vertex 28.5305 20.2591 2
      vertex 28.5305 20.2591 4
      vertex 30.7419 20.488 4
    endloop
  endfacet
  facet normal -0.346005 0.938233 0
    outer loop
      vertex 26.6685 19.5724 2
      vertex 28.5305 20.2591 4
      vertex 28.5305 20.2591 2
    endloop
  endfacet
  facet normal -0.346005 0.938233 0
    outer loop
      vertex 26.6685 19.5724 2
      vertex 26.6685 19.5724 4
      vertex 28.5305 20.2591 4
    endloop
  endfacet
  facet normal -0.603349 0.797477 0
    outer loop
      vertex 25.1559 18.428 2
      vertex 26.6685 19.5724 4
      vertex 26.6685 19.5724 2
    endloop
  endfacet
  facet normal -0.603349 0.797477 0
    outer loop
      vertex 25.1559 18.428 2
      vertex 25.1559 18.428 4
      vertex 26.6685 19.5724 4
    endloop
  endfacet
  facet normal -0.81188 0.583825 0
    outer loop
      vertex 24.0409 16.8774 2
      vertex 25.1559 18.428 4
      vertex 25.1559 18.428 2
    endloop
  endfacet
  facet normal -0.81188 0.583825 0
    outer loop
      vertex 24.0409 16.8774 2
      vertex 24.0409 16.8774 4
      vertex 25.1559 18.428 4
    endloop
  endfacet
  facet normal -0.943512 0.331339 0
    outer loop
      vertex 23.3719 14.9724 2
      vertex 24.0409 16.8774 4
      vertex 24.0409 16.8774 2
    endloop
  endfacet
  facet normal -0.943512 0.331339 0
    outer loop
      vertex 23.3719 14.9724 2
      vertex 23.3719 14.9724 4
      vertex 24.0409 16.8774 4
    endloop
  endfacet
  facet normal -0.995164 0.0982227 0
    outer loop
      vertex 23.1489 12.713 2
      vertex 23.3719 14.9724 4
      vertex 23.3719 14.9724 2
    endloop
  endfacet
  facet normal -0.995164 0.0982227 0
    outer loop
      vertex 23.1489 12.713 2
      vertex 23.1489 12.713 4
      vertex 23.3719 14.9724 4
    endloop
  endfacet
  facet normal -0.997882 -0.0650544 0
    outer loop
      vertex 23.2489 11.179 2
      vertex 23.1489 12.713 4
      vertex 23.1489 12.713 2
    endloop
  endfacet
  facet normal -0.997882 -0.0650544 0
    outer loop
      vertex 23.2489 11.179 2
      vertex 23.2489 11.179 4
      vertex 23.1489 12.713 4
    endloop
  endfacet
  facet normal -0.977822 -0.209436 0
    outer loop
      vertex 23.5489 9.77832 2
      vertex 23.2489 11.179 4
      vertex 23.2489 11.179 2
    endloop
  endfacet
  facet normal -0.977822 -0.209436 0
    outer loop
      vertex 23.5489 9.77832 2
      vertex 23.5489 9.77832 4
      vertex 23.2489 11.179 4
    endloop
  endfacet
  facet normal -0.930221 -0.366999 0
    outer loop
      vertex 24.0489 8.51099 2
      vertex 23.5489 9.77832 4
      vertex 23.5489 9.77832 2
    endloop
  endfacet
  facet normal -0.930221 -0.366999 0
    outer loop
      vertex 24.0489 8.51099 2
      vertex 24.0489 8.51099 4
      vertex 23.5489 9.77832 4
    endloop
  endfacet
  facet normal -0.848269 -0.529565 0
    outer loop
      vertex 24.7392 7.40521 2
      vertex 24.0489 8.51099 4
      vertex 24.0489 8.51099 2
    endloop
  endfacet
  facet normal -0.848269 -0.529565 0
    outer loop
      vertex 24.7392 7.40521 2
      vertex 24.7392 7.40521 4
      vertex 24.0489 8.51099 4
    endloop
  endfacet
  facet normal -0.725705 -0.688006 0
    outer loop
      vertex 25.6089 6.48788 2
      vertex 24.7392 7.40521 4
      vertex 24.7392 7.40521 2
    endloop
  endfacet
  facet normal -0.725705 -0.688006 0
    outer loop
      vertex 25.6089 6.48788 2
      vertex 25.6089 6.48788 4
      vertex 24.7392 7.40521 4
    endloop
  endfacet
  facet normal -0.570622 -0.821213 0
    outer loop
      vertex 26.6579 5.75899 2
      vertex 25.6089 6.48788 4
      vertex 25.6089 6.48788 2
    endloop
  endfacet
  facet normal -0.570622 -0.821213 0
    outer loop
      vertex 26.6579 5.75899 2
      vertex 26.6579 5.75899 4
      vertex 25.6089 6.48788 4
    endloop
  endfacet
  facet normal -0.399881 -0.916567 0
    outer loop
      vertex 27.8689 5.23065 2
      vertex 26.6579 5.75899 4
      vertex 26.6579 5.75899 2
    endloop
  endfacet
  facet normal -0.399881 -0.916567 0
    outer loop
      vertex 27.8689 5.23065 2
      vertex 27.8689 5.23065 4
      vertex 26.6579 5.75899 4
    endloop
  endfacet
  facet normal -0.227883 -0.973689 0
    outer loop
      vertex 29.2232 4.91368 2
      vertex 27.8689 5.23065 4
      vertex 27.8689 5.23065 2
    endloop
  endfacet
  facet normal -0.227883 -0.973689 0
    outer loop
      vertex 29.2232 4.91368 2
      vertex 29.2232 4.91368 4
      vertex 27.8689 5.23065 4
    endloop
  endfacet
  facet normal -0.0703796 -0.99752 0
    outer loop
      vertex 30.7209 4.80801 2
      vertex 29.2232 4.91368 4
      vertex 29.2232 4.91368 2
    endloop
  endfacet
  facet normal -0.0703796 -0.99752 0
    outer loop
      vertex 30.7209 4.80801 2
      vertex 30.7209 4.80801 4
      vertex 29.2232 4.91368 4
    endloop
  endfacet
  facet normal 0.0717449 -0.997423 0
    outer loop
      vertex 32.2069 4.9149 2
      vertex 30.7209 4.80801 4
      vertex 30.7209 4.80801 2
    endloop
  endfacet
  facet normal 0.0717449 -0.997423 0
    outer loop
      vertex 32.2069 4.9149 2
      vertex 32.2069 4.9149 4
      vertex 30.7209 4.80801 4
    endloop
  endfacet
  facet normal 0.385592 0.922669 -0
    outer loop
      vertex 27.7915 7.23566 2
      vertex 27.7915 7.23566 4
      vertex 29.1315 6.67566 2
    endloop
  endfacet
  facet normal 0.385592 0.922669 0
    outer loop
      vertex 29.1315 6.67566 4
      vertex 29.1315 6.67566 2
      vertex 27.7915 7.23566 4
    endloop
  endfacet
  facet normal 0.650179 0.759781 -0
    outer loop
      vertex 26.7009 8.16899 2
      vertex 26.7009 8.16899 4
      vertex 27.7915 7.23566 2
    endloop
  endfacet
  facet normal 0.650179 0.759781 0
    outer loop
      vertex 27.7915 7.23566 4
      vertex 27.7915 7.23566 2
      vertex 26.7009 8.16899 4
    endloop
  endfacet
  facet normal 0.841218 0.540696 -0
    outer loop
      vertex 25.8964 9.42055 2
      vertex 25.8964 9.42055 4
      vertex 26.7009 8.16899 2
    endloop
  endfacet
  facet normal 0.841218 0.540696 0
    outer loop
      vertex 26.7009 8.16899 4
      vertex 26.7009 8.16899 2
      vertex 25.8964 9.42055 4
    endloop
  endfacet
  facet normal 0.952793 0.303619 -0
    outer loop
      vertex 25.4138 10.9352 2
      vertex 25.4138 10.9352 4
      vertex 25.8964 9.42055 2
    endloop
  endfacet
  facet normal 0.952793 0.303619 0
    outer loop
      vertex 25.8964 9.42055 4
      vertex 25.8964 9.42055 2
      vertex 25.4138 10.9352 4
    endloop
  endfacet
  facet normal 0.99593 0.0901311 -0
    outer loop
      vertex 25.2529 12.713 2
      vertex 25.2529 12.713 4
      vertex 25.4138 10.9352 2
    endloop
  endfacet
  facet normal 0.99593 0.0901311 0
    outer loop
      vertex 25.4138 10.9352 4
      vertex 25.4138 10.9352 2
      vertex 25.2529 12.713 4
    endloop
  endfacet
  facet normal 0.996031 -0.0890071 0
    outer loop
      vertex 25.412 14.4934 2
      vertex 25.412 14.4934 4
      vertex 25.2529 12.713 2
    endloop
  endfacet
  facet normal 0.996031 -0.0890071 0
    outer loop
      vertex 25.2529 12.713 4
      vertex 25.2529 12.713 2
      vertex 25.412 14.4934 4
    endloop
  endfacet
  facet normal 0.9526 -0.304226 0
    outer loop
      vertex 25.8893 15.9881 2
      vertex 25.8893 15.9881 4
      vertex 25.412 14.4934 2
    endloop
  endfacet
  facet normal 0.9526 -0.304226 0
    outer loop
      vertex 25.412 14.4934 4
      vertex 25.412 14.4934 2
      vertex 25.8893 15.9881 4
    endloop
  endfacet
  facet normal 0.835346 -0.549724 0
    outer loop
      vertex 26.6849 17.197 2
      vertex 26.6849 17.197 4
      vertex 25.8893 15.9881 2
    endloop
  endfacet
  facet normal 0.835346 -0.549724 0
    outer loop
      vertex 25.8893 15.9881 4
      vertex 25.8893 15.9881 2
      vertex 26.6849 17.197 4
    endloop
  endfacet
  facet normal 0.63268 -0.774413 0
    outer loop
      vertex 27.7722 18.0853 2
      vertex 27.7722 18.0853 4
      vertex 26.6849 17.197 2
    endloop
  endfacet
  facet normal 0.63268 -0.774413 0
    outer loop
      vertex 26.6849 17.197 4
      vertex 26.6849 17.197 2
      vertex 27.7722 18.0853 4
    endloop
  endfacet
  facet normal 0.366607 -0.930376 0
    outer loop
      vertex 29.1249 18.6183 2
      vertex 29.1249 18.6183 4
      vertex 27.7722 18.0853 2
    endloop
  endfacet
  facet normal 0.366607 -0.930376 0
    outer loop
      vertex 27.7722 18.0853 4
      vertex 27.7722 18.0853 2
      vertex 29.1249 18.6183 4
    endloop
  endfacet
  facet normal 0.109144 -0.994026 0
    outer loop
      vertex 30.7429 18.796 2
      vertex 30.7429 18.796 4
      vertex 29.1249 18.6183 2
    endloop
  endfacet
  facet normal 0.109144 -0.994026 0
    outer loop
      vertex 29.1249 18.6183 4
      vertex 29.1249 18.6183 2
      vertex 30.7429 18.796 4
    endloop
  endfacet
  facet normal -0.111514 -0.993763 0
    outer loop
      vertex 32.348 18.6159 2
      vertex 32.348 18.6159 4
      vertex 30.7429 18.796 2
    endloop
  endfacet
  facet normal -0.111514 -0.993763 -0
    outer loop
      vertex 30.7429 18.796 4
      vertex 30.7429 18.796 2
      vertex 32.348 18.6159 4
    endloop
  endfacet
  facet normal -0.373172 -0.927762 0
    outer loop
      vertex 33.6913 18.0755 2
      vertex 33.6913 18.0755 4
      vertex 32.348 18.6159 2
    endloop
  endfacet
  facet normal -0.373172 -0.927762 -0
    outer loop
      vertex 32.348 18.6159 4
      vertex 32.348 18.6159 2
      vertex 33.6913 18.0755 4
    endloop
  endfacet
  facet normal -0.639874 -0.76848 0
    outer loop
      vertex 34.7729 17.175 2
      vertex 34.7729 17.175 4
      vertex 33.6913 18.0755 2
    endloop
  endfacet
  facet normal -0.639874 -0.76848 -0
    outer loop
      vertex 33.6913 18.0755 4
      vertex 33.6913 18.0755 2
      vertex 34.7729 17.175 4
    endloop
  endfacet
  facet normal -0.837741 -0.546067 0
    outer loop
      vertex 35.5656 15.9588 2
      vertex 35.5656 15.9588 4
      vertex 34.7729 17.175 2
    endloop
  endfacet
  facet normal -0.837741 -0.546067 -0
    outer loop
      vertex 34.7729 17.175 4
      vertex 34.7729 17.175 2
      vertex 35.5656 15.9588 4
    endloop
  endfacet
  facet normal -0.952477 -0.30461 0
    outer loop
      vertex 36.0413 14.4714 2
      vertex 36.0413 14.4714 4
      vertex 35.5656 15.9588 2
    endloop
  endfacet
  facet normal -0.952477 -0.30461 -0
    outer loop
      vertex 35.5656 15.9588 4
      vertex 35.5656 15.9588 2
      vertex 36.0413 14.4714 4
    endloop
  endfacet
  facet normal -0.995959 -0.0898118 0
    outer loop
      vertex 36.1999 12.713 2
      vertex 36.1999 12.713 4
      vertex 36.0413 14.4714 2
    endloop
  endfacet
  facet normal -0.995959 -0.0898118 -0
    outer loop
      vertex 36.0413 14.4714 4
      vertex 36.0413 14.4714 2
      vertex 36.1999 12.713 4
    endloop
  endfacet
  facet normal -0.996332 0.0855756 0
    outer loop
      vertex 36.0425 10.8812 2
      vertex 36.0425 10.8812 4
      vertex 36.1999 12.713 2
    endloop
  endfacet
  facet normal -0.996332 0.0855756 0
    outer loop
      vertex 36.1999 12.713 4
      vertex 36.1999 12.713 2
      vertex 36.0425 10.8812 4
    endloop
  endfacet
  facet normal -0.955707 0.294319 0
    outer loop
      vertex 35.5705 9.34854 2
      vertex 35.5705 9.34854 4
      vertex 36.0425 10.8812 2
    endloop
  endfacet
  facet normal -0.955707 0.294319 0
    outer loop
      vertex 36.0425 10.8812 4
      vertex 36.0425 10.8812 2
      vertex 35.5705 9.34854 4
    endloop
  endfacet
  facet normal -0.843141 0.537692 0
    outer loop
      vertex 34.7839 8.11499 2
      vertex 34.7839 8.11499 4
      vertex 35.5705 9.34854 2
    endloop
  endfacet
  facet normal -0.843141 0.537692 0
    outer loop
      vertex 35.5705 9.34854 4
      vertex 35.5705 9.34854 2
      vertex 34.7839 8.11499 4
    endloop
  endfacet
  facet normal -0.641309 0.767283 0
    outer loop
      vertex 33.7031 7.21165 2
      vertex 33.7031 7.21165 4
      vertex 34.7839 8.11499 2
    endloop
  endfacet
  facet normal -0.641309 0.767283 0
    outer loop
      vertex 34.7839 8.11499 4
      vertex 34.7839 8.11499 2
      vertex 33.7031 7.21165 4
    endloop
  endfacet
  facet normal -0.371542 0.928416 0
    outer loop
      vertex 32.3488 6.66966 2
      vertex 32.3488 6.66966 4
      vertex 33.7031 7.21165 2
    endloop
  endfacet
  facet normal -0.371542 0.928416 0
    outer loop
      vertex 33.7031 7.21165 4
      vertex 33.7031 7.21165 2
      vertex 32.3488 6.66966 4
    endloop
  endfacet
  facet normal -0.110304 0.993898 0
    outer loop
      vertex 30.7209 6.489 2
      vertex 30.7209 6.489 4
      vertex 32.3488 6.66966 2
    endloop
  endfacet
  facet normal -0.110304 0.993898 0
    outer loop
      vertex 32.3488 6.66966 4
      vertex 32.3488 6.66966 2
      vertex 30.7209 6.489 4
    endloop
  endfacet
  facet normal 0.116644 0.993174 -0
    outer loop
      vertex 29.1315 6.67566 2
      vertex 29.1315 6.67566 4
      vertex 30.7209 6.489 2
    endloop
  endfacet
  facet normal 0.116644 0.993174 0
    outer loop
      vertex 30.7209 6.489 4
      vertex 30.7209 6.489 2
      vertex 29.1315 6.67566 4
    endloop
  endfacet
  facet normal 0.359329 -0.933211 0
    outer loop
      vertex 15.3722 5.37376 2
      vertex 14.2702 4.94945 4
      vertex 14.2702 4.94945 2
    endloop
  endfacet
  facet normal 0.359329 -0.933211 0
    outer loop
      vertex 15.3722 5.37376 2
      vertex 15.3722 5.37376 4
      vertex 14.2702 4.94945 4
    endloop
  endfacet
  facet normal 0.616268 -0.787537 0
    outer loop
      vertex 16.276 6.08099 2
      vertex 15.3722 5.37376 4
      vertex 15.3722 5.37376 2
    endloop
  endfacet
  facet normal 0.616268 -0.787537 0
    outer loop
      vertex 16.276 6.08099 2
      vertex 16.276 6.08099 4
      vertex 15.3722 5.37376 4
    endloop
  endfacet
  facet normal 0.818306 -0.574783 0
    outer loop
      vertex 16.9465 7.03566 2
      vertex 16.276 6.08099 4
      vertex 16.276 6.08099 2
    endloop
  endfacet
  facet normal 0.818306 -0.574783 0
    outer loop
      vertex 16.9465 7.03566 2
      vertex 16.9465 7.03566 4
      vertex 16.276 6.08099 4
    endloop
  endfacet
  facet normal 0.94525 -0.326347 0
    outer loop
      vertex 17.3489 8.20099 2
      vertex 16.9465 7.03566 4
      vertex 16.9465 7.03566 2
    endloop
  endfacet
  facet normal 0.94525 -0.326347 0
    outer loop
      vertex 17.3489 8.20099 2
      vertex 17.3489 8.20099 4
      vertex 16.9465 7.03566 4
    endloop
  endfacet
  facet normal 0.995284 -0.0970032 0
    outer loop
      vertex 17.483 9.577 2
      vertex 17.3489 8.20099 4
      vertex 17.3489 8.20099 2
    endloop
  endfacet
  facet normal 0.995284 -0.0970032 0
    outer loop
      vertex 17.483 9.577 2
      vertex 17.483 9.577 4
      vertex 17.3489 8.20099 4
    endloop
  endfacet
  facet normal 1 0 0
    outer loop
      vertex 17.483 20.296 2
      vertex 17.483 9.577 4
      vertex 17.483 9.577 2
    endloop
  endfacet
  facet normal 1 0 -0
    outer loop
      vertex 17.483 20.296 2
      vertex 17.483 20.296 4
      vertex 17.483 9.577 4
    endloop
  endfacet
  facet normal 0 1 0
    outer loop
      vertex 12.47 20.296 2
      vertex 17.483 20.296 4
      vertex 17.483 20.296 2
    endloop
  endfacet
  facet normal 0 1 0
    outer loop
      vertex 12.47 20.296 2
      vertex 12.47 20.296 4
      vertex 17.483 20.296 4
    endloop
  endfacet
  facet normal -1 0 0
    outer loop
      vertex 12.47 18.604 2
      vertex 12.47 20.296 4
      vertex 12.47 20.296 2
    endloop
  endfacet
  facet normal -1 0 0
    outer loop
      vertex 12.47 18.604 2
      vertex 12.47 18.604 4
      vertex 12.47 20.296 4
    endloop
  endfacet
  facet normal 0 -1 0
    outer loop
      vertex 15.422 18.604 2
      vertex 12.47 18.604 4
      vertex 12.47 18.604 2
    endloop
  endfacet
  facet normal 0 -1 0
    outer loop
      vertex 15.422 18.604 2
      vertex 15.422 18.604 4
      vertex 12.47 18.604 4
    endloop
  endfacet
  facet normal -1 0 0
    outer loop
      vertex 15.422 9.534 2
      vertex 15.422 18.604 4
      vertex 15.422 18.604 2
    endloop
  endfacet
  facet normal -1 0 0
    outer loop
      vertex 15.422 9.534 2
      vertex 15.422 9.534 4
      vertex 15.422 18.604 4
    endloop
  endfacet
  facet normal -0.996872 0.0790362 0
    outer loop
      vertex 15.3493 8.61732 2
      vertex 15.422 9.534 4
      vertex 15.422 9.534 2
    endloop
  endfacet
  facet normal -0.996872 0.0790362 0
    outer loop
      vertex 15.3493 8.61732 2
      vertex 15.3493 8.61732 4
      vertex 15.422 9.534 4
    endloop
  endfacet
  facet normal -0.960919 0.276829 0
    outer loop
      vertex 15.1313 7.86066 2
      vertex 15.3493 8.61732 4
      vertex 15.3493 8.61732 2
    endloop
  endfacet
  facet normal -0.960919 0.276829 0
    outer loop
      vertex 15.1313 7.86066 2
      vertex 15.1313 7.86066 4
      vertex 15.3493 8.61732 4
    endloop
  endfacet
  facet normal -0.8541 0.520109 0
    outer loop
      vertex 14.768 7.26399 2
      vertex 15.1313 7.86066 4
      vertex 15.1313 7.86066 2
    endloop
  endfacet
  facet normal -0.8541 0.520109 0
    outer loop
      vertex 14.768 7.26399 2
      vertex 14.768 7.26399 4
      vertex 15.1313 7.86066 4
    endloop
  endfacet
  facet normal -0.66066 0.750685 0
    outer loop
      vertex 14.2788 6.83344 2
      vertex 14.768 7.26399 4
      vertex 14.768 7.26399 2
    endloop
  endfacet
  facet normal -0.66066 0.750685 0
    outer loop
      vertex 14.2788 6.83344 2
      vertex 14.2788 6.83344 4
      vertex 14.768 7.26399 4
    endloop
  endfacet
  facet normal -0.397884 0.917436 0
    outer loop
      vertex 13.6831 6.5751 2
      vertex 14.2788 6.83344 4
      vertex 14.2788 6.83344 2
    endloop
  endfacet
  facet normal -0.397884 0.917436 0
    outer loop
      vertex 13.6831 6.5751 2
      vertex 13.6831 6.5751 4
      vertex 14.2788 6.83344 4
    endloop
  endfacet
  facet normal -0.121725 0.992564 0
    outer loop
      vertex 12.981 6.489 2
      vertex 13.6831 6.5751 4
      vertex 13.6831 6.5751 2
    endloop
  endfacet
  facet normal -0.121725 0.992564 0
    outer loop
      vertex 12.981 6.489 2
      vertex 12.981 6.489 4
      vertex 13.6831 6.5751 4
    endloop
  endfacet
  facet normal 0.119474 0.992837 0
    outer loop
      vertex 12.3291 6.56744 2
      vertex 12.981 6.489 4
      vertex 12.981 6.489 2
    endloop
  endfacet
  facet normal 0.119474 0.992837 -0
    outer loop
      vertex 12.3291 6.56744 2
      vertex 12.3291 6.56744 4
      vertex 12.981 6.489 4
    endloop
  endfacet
  facet normal 0.379143 0.925338 0
    outer loop
      vertex 11.7548 6.80276 2
      vertex 12.3291 6.56744 4
      vertex 12.3291 6.56744 2
    endloop
  endfacet
  facet normal 0.379143 0.925338 -0
    outer loop
      vertex 11.7548 6.80276 2
      vertex 11.7548 6.80276 4
      vertex 12.3291 6.56744 4
    endloop
  endfacet
  facet normal 0.619676 0.784858 0
    outer loop
      vertex 11.258 7.19499 2
      vertex 11.7548 6.80276 4
      vertex 11.7548 6.80276 2
    endloop
  endfacet
  facet normal 0.619676 0.784858 -0
    outer loop
      vertex 11.258 7.19499 2
      vertex 11.258 7.19499 4
      vertex 11.7548 6.80276 4
    endloop
  endfacet
  facet normal 0.797248 0.603652 0
    outer loop
      vertex 10.8551 7.7271 2
      vertex 11.258 7.19499 4
      vertex 11.258 7.19499 2
    endloop
  endfacet
  facet normal 0.797248 0.603652 -0
    outer loop
      vertex 10.8551 7.7271 2
      vertex 10.8551 7.7271 4
      vertex 11.258 7.19499 4
    endloop
  endfacet
  facet normal 0.912312 0.409496 0
    outer loop
      vertex 10.5611 8.38211 2
      vertex 10.8551 7.7271 4
      vertex 10.8551 7.7271 2
    endloop
  endfacet
  facet normal 0.912312 0.409496 -0
    outer loop
      vertex 10.5611 8.38211 2
      vertex 10.5611 8.38211 4
      vertex 10.8551 7.7271 4
    endloop
  endfacet
  facet normal 0.972836 0.231497 0
    outer loop
      vertex 10.376 9.15999 2
      vertex 10.5611 8.38211 4
      vertex 10.5611 8.38211 2
    endloop
  endfacet
  facet normal 0.972836 0.231497 -0
    outer loop
      vertex 10.376 9.15999 2
      vertex 10.376 9.15999 4
      vertex 10.5611 8.38211 4
    endloop
  endfacet
  facet normal -0.163452 0.986551 0
    outer loop
      vertex 8.34799 8.82399 2
      vertex 10.376 9.15999 4
      vertex 10.376 9.15999 2
    endloop
  endfacet
  facet normal -0.163452 0.986551 0
    outer loop
      vertex 8.34799 8.82399 2
      vertex 8.34799 8.82399 4
      vertex 10.376 9.15999 4
    endloop
  endfacet
  facet normal -0.936207 -0.35145 0
    outer loop
      vertex 9.18555 6.59288 2
      vertex 8.34799 8.82399 4
      vertex 8.34799 8.82399 2
    endloop
  endfacet
  facet normal -0.936207 -0.35145 0
    outer loop
      vertex 9.18555 6.59288 2
      vertex 9.18555 6.59288 4
      vertex 8.34799 8.82399 4
    endloop
  endfacet
  facet normal -0.655889 -0.754858 0
    outer loop
      vertex 10.7262 5.25421 2
      vertex 9.18555 6.59288 4
      vertex 9.18555 6.59288 2
    endloop
  endfacet
  facet normal -0.655889 -0.754858 0
    outer loop
      vertex 10.7262 5.25421 2
      vertex 10.7262 5.25421 4
      vertex 9.18555 6.59288 4
    endloop
  endfacet
  facet normal -0.195041 -0.980795 0
    outer loop
      vertex 12.97 4.80801 2
      vertex 10.7262 5.25421 4
      vertex 10.7262 5.25421 2
    endloop
  endfacet
  facet normal -0.195041 -0.980795 0
    outer loop
      vertex 12.97 4.80801 2
      vertex 12.97 4.80801 4
      vertex 10.7262 5.25421 4
    endloop
  endfacet
  facet normal 0.108138 -0.994136 0
    outer loop
      vertex 14.2702 4.94945 2
      vertex 12.97 4.80801 4
      vertex 12.97 4.80801 2
    endloop
  endfacet
  facet normal 0.108138 -0.994136 0
    outer loop
      vertex 14.2702 4.94945 2
      vertex 14.2702 4.94945 4
      vertex 12.97 4.80801 4
    endloop
  endfacet
endsolid OpenSCAD_Model
