solid OpenSCAD_Model
  facet normal 0 0 -1
    outer loop
      vertex 17.3489 8.20099 2
      vertex 16.9465 7.03566 2
      vertex 15.1313 7.86066 2
    endloop
  endfacet
  facet normal 0 0 -1
    outer loop
      vertex 17.483 9.577 2
      vertex 17.3489 8.20099 2
      vertex 15.3493 8.61732 2
    endloop
  endfacet
  facet normal -0 0 -1
    outer loop
      vertex 17.3489 8.20099 2
      vertex 15.1313 7.86066 2
      vertex 15.3493 8.61732 2
    endloop
  endfacet
  facet normal 0 0 -1
    outer loop
      vertex 15.3493 8.61732 2
      vertex 15.422 9.534 2
      vertex 17.483 9.577 2
    endloop
  endfacet
  facet normal 0 0 -1
    outer loop
      vertex 30.1699 12.616 2
      vertex 31.9679 11.121 2
      vertex 30.4649 10.979 2
    endloop
  endfacet
  facet normal 0 0 -1
    outer loop
      vertex 12.47 18.604 2
      vertex 12.47 20.296 2
      vertex 15.422 18.604 2
    endloop
  endfacet
  facet normal 0 0 -1
    outer loop
      vertex 14.2702 4.94945 2
      vertex 14.2788 6.83344 2
      vertex 15.3722 5.37376 2
    endloop
  endfacet
  facet normal -0 0 -1
    outer loop
      vertex 12.981 6.489 2
      vertex 12.97 4.80801 2
      vertex 12.3291 6.56744 2
    endloop
  endfacet
  facet normal 0 0 -1
    outer loop
      vertex 17.483 9.577 2
      vertex 15.422 18.604 2
      vertex 17.483 20.296 2
    endloop
  endfacet
  facet normal 0 0 -1
    outer loop
      vertex 15.422 18.604 2
      vertex 12.47 20.296 2
      vertex 17.483 20.296 2
    endloop
  endfacet
  facet normal -0 0 -1
    outer loop
      vertex 17.483 9.577 2
      vertex 15.422 9.534 2
      vertex 15.422 18.604 2
    endloop
  endfacet
  facet normal -0 0 -1
    outer loop
      vertex 14.2702 4.94945 2
      vertex 12.97 4.80801 2
      vertex 13.6831 6.5751 2
    endloop
  endfacet
  facet normal -0 0 -1
    outer loop
      vertex 16.9465 7.03566 2
      vertex 16.276 6.08099 2
      vertex 15.1313 7.86066 2
    endloop
  endfacet
  facet normal 0 0 -1
    outer loop
      vertex 14.768 7.26399 2
      vertex 16.276 6.08099 2
      vertex 15.3722 5.37376 2
    endloop
  endfacet
  facet normal 0 -0 -1
    outer loop
      vertex 15.1313 7.86066 2
      vertex 16.276 6.08099 2
      vertex 14.768 7.26399 2
    endloop
  endfacet
  facet normal 0 0 -1
    outer loop
      vertex 14.2788 6.83344 2
      vertex 14.768 7.26399 2
      vertex 15.3722 5.37376 2
    endloop
  endfacet
  facet normal 0 0 -1
    outer loop
      vertex 13.6831 6.5751 2
      vertex 14.2788 6.83344 2
      vertex 14.2702 4.94945 2
    endloop
  endfacet
  facet normal 0 0 -1
    outer loop
      vertex 13.6831 6.5751 2
      vertex 12.97 4.80801 2
      vertex 12.981 6.489 2
    endloop
  endfacet
  facet normal -0 0 -1
    outer loop
      vertex 12.3291 6.56744 2
      vertex 10.7262 5.25421 2
      vertex 11.7548 6.80276 2
    endloop
  endfacet
  facet normal 0 0 -1
    outer loop
      vertex 10.7262 5.25421 2
      vertex 9.18555 6.59288 2
      vertex 11.258 7.19499 2
    endloop
  endfacet
  facet normal 0 0 -1
    outer loop
      vertex 9.18555 6.59288 2
      vertex 10.5611 8.38211 2
      vertex 10.8551 7.7271 2
    endloop
  endfacet
  facet normal -0 0 -1
    outer loop
      vertex 11.258 7.19499 2
      vertex 9.18555 6.59288 2
      vertex 10.8551 7.7271 2
    endloop
  endfacet
  facet normal -0 0 -1
    outer loop
      vertex 10.5611 8.38211 2
      vertex 9.18555 6.59288 2
      vertex 8.34799 8.82399 2
    endloop
  endfacet
  facet normal 0 -0 -1
    outer loop
      vertex 10.376 9.15999 2
      vertex 10.5611 8.38211 2
      vertex 8.34799 8.82399 2
    endloop
  endfacet
  facet normal -0 0 -1
    outer loop
      vertex 11.7548 6.80276 2
      vertex 10.7262 5.25421 2
      vertex 11.258 7.19499 2
    endloop
  endfacet
  facet normal 0 -0 -1
    outer loop
      vertex 12.3291 6.56744 2
      vertex 12.97 4.80801 2
      vertex 10.7262 5.25421 2
    endloop
  endfacet
  facet normal 0 -0 -1
    outer loop
      vertex 25.9859 10.979 2
      vertex 25.9859 5 2
      vertex 23.9149 5 2
    endloop
  endfacet
  facet normal 0 0 -1
    outer loop
      vertex 25.9859 10.979 2
      vertex 30.1699 12.616 2
      vertex 30.4649 10.979 2
    endloop
  endfacet
  facet normal 0 0 -1
    outer loop
      vertex 33.2454 13.9782 2
      vertex 35.0843 13.2083 2
      vertex 34.2999 12.257 2
    endloop
  endfacet
  facet normal 0 0 -1
    outer loop
      vertex 35.7119 15.703 2
      vertex 35.555 14.357 2
      vertex 33.6299 15.681 2
    endloop
  endfacet
  facet normal -0 0 -1
    outer loop
      vertex 34.3049 19.093 2
      vertex 32.0539 18.3085 2
      vertex 33.2382 19.7613 2
    endloop
  endfacet
  facet normal -0 0 -1
    outer loop
      vertex 33.2382 19.7613 2
      vertex 32.0539 18.3085 2
      vertex 31.9142 20.1623 2
    endloop
  endfacet
  facet normal 0 0 -1
    outer loop
      vertex 34.3049 19.093 2
      vertex 33.2359 17.3232 2
      vertex 32.0539 18.3085 2
    endloop
  endfacet
  facet normal 0 0 -1
    outer loop
      vertex 30.0839 18.637 2
      vertex 31.9142 20.1623 2
      vertex 32.0539 18.3085 2
    endloop
  endfacet
  facet normal 0 0 -1
    outer loop
      vertex 33.2359 17.3232 2
      vertex 35.0865 18.1821 2
      vertex 35.5555 17.0521 2
    endloop
  endfacet
  facet normal 0 0 -1
    outer loop
      vertex 33.2462 11.547 2
      vertex 32.0921 12.9565 2
      vertex 34.2999 12.257 2
    endloop
  endfacet
  facet normal 0 -0 -1
    outer loop
      vertex 30.3329 20.296 2
      vertex 31.9142 20.1623 2
      vertex 30.0839 18.637 2
    endloop
  endfacet
  facet normal 0 0 -1
    outer loop
      vertex 23.9149 20.296 2
      vertex 30.3329 20.296 2
      vertex 25.9859 18.637 2
    endloop
  endfacet
  facet normal 0 0 -1
    outer loop
      vertex 23.9149 5 2
      vertex 23.9149 20.296 2
      vertex 25.9859 12.616 2
    endloop
  endfacet
  facet normal -0 0 -1
    outer loop
      vertex 25.9859 10.979 2
      vertex 23.9149 5 2
      vertex 25.9859 12.616 2
    endloop
  endfacet
  facet normal 0 0 -1
    outer loop
      vertex 25.9859 10.979 2
      vertex 25.9859 12.616 2
      vertex 30.1699 12.616 2
    endloop
  endfacet
  facet normal 0 0 -1
    outer loop
      vertex 25.9859 18.637 2
      vertex 30.3329 20.296 2
      vertex 30.0839 18.637 2
    endloop
  endfacet
  facet normal 0 0 -1
    outer loop
      vertex 23.9149 20.296 2
      vertex 25.9859 18.637 2
      vertex 25.9859 12.616 2
    endloop
  endfacet
  facet normal 0 0 -1
    outer loop
      vertex 34.2999 12.257 2
      vertex 32.0921 12.9565 2
      vertex 33.2454 13.9782 2
    endloop
  endfacet
  facet normal 0 -0 -1
    outer loop
      vertex 34.3049 19.093 2
      vertex 35.0865 18.1821 2
      vertex 33.2359 17.3232 2
    endloop
  endfacet
  facet normal 0 0 -1
    outer loop
      vertex 33.6299 15.681 2
      vertex 35.5555 17.0521 2
      vertex 35.7119 15.703 2
    endloop
  endfacet
  facet normal 0 0 -1
    outer loop
      vertex 33.2359 17.3232 2
      vertex 35.5555 17.0521 2
      vertex 33.6299 15.681 2
    endloop
  endfacet
  facet normal 0 0 -1
    outer loop
      vertex 33.2454 13.9782 2
      vertex 35.555 14.357 2
      vertex 35.0843 13.2083 2
    endloop
  endfacet
  facet normal 0 -0 -1
    outer loop
      vertex 33.6299 15.681 2
      vertex 35.555 14.357 2
      vertex 33.2454 13.9782 2
    endloop
  endfacet
  facet normal -0 0 -1
    outer loop
      vertex 33.2462 11.547 2
      vertex 31.9679 11.121 2
      vertex 32.0921 12.9565 2
    endloop
  endfacet
  facet normal 0 0 -1
    outer loop
      vertex 32.0921 12.9565 2
      vertex 31.9679 11.121 2
      vertex 30.1699 12.616 2
    endloop
  endfacet
  facet normal -0 0 1
    outer loop
      vertex 15.1313 7.86066 4
      vertex 16.9465 7.03566 4
      vertex 17.3489 8.20099 4
    endloop
  endfacet
  facet normal -0 0 1
    outer loop
      vertex 15.3493 8.61732 4
      vertex 17.3489 8.20099 4
      vertex 17.483 9.577 4
    endloop
  endfacet
  facet normal 0 0 1
    outer loop
      vertex 15.3493 8.61732 4
      vertex 15.1313 7.86066 4
      vertex 17.3489 8.20099 4
    endloop
  endfacet
  facet normal 0 0 1
    outer loop
      vertex 17.483 9.577 4
      vertex 15.422 9.534 4
      vertex 15.3493 8.61732 4
    endloop
  endfacet
  facet normal 0 -0 1
    outer loop
      vertex 30.4649 10.979 4
      vertex 31.9679 11.121 4
      vertex 30.1699 12.616 4
    endloop
  endfacet
  facet normal 0 0 1
    outer loop
      vertex 15.422 18.604 4
      vertex 12.47 20.296 4
      vertex 12.47 18.604 4
    endloop
  endfacet
  facet normal 0 0 1
    outer loop
      vertex 15.3722 5.37376 4
      vertex 14.2788 6.83344 4
      vertex 14.2702 4.94945 4
    endloop
  endfacet
  facet normal 0 0 1
    outer loop
      vertex 12.3291 6.56744 4
      vertex 12.97 4.80801 4
      vertex 12.981 6.489 4
    endloop
  endfacet
  facet normal 0 0 1
    outer loop
      vertex 17.483 20.296 4
      vertex 15.422 18.604 4
      vertex 17.483 9.577 4
    endloop
  endfacet
  facet normal 0 0 1
    outer loop
      vertex 17.483 20.296 4
      vertex 12.47 20.296 4
      vertex 15.422 18.604 4
    endloop
  endfacet
  facet normal 0 0 1
    outer loop
      vertex 15.422 18.604 4
      vertex 15.422 9.534 4
      vertex 17.483 9.577 4
    endloop
  endfacet
  facet normal 0 0 1
    outer loop
      vertex 13.6831 6.5751 4
      vertex 12.97 4.80801 4
      vertex 14.2702 4.94945 4
    endloop
  endfacet
  facet normal 0 0 1
    outer loop
      vertex 15.1313 7.86066 4
      vertex 16.276 6.08099 4
      vertex 16.9465 7.03566 4
    endloop
  endfacet
  facet normal 0 -0 1
    outer loop
      vertex 15.3722 5.37376 4
      vertex 16.276 6.08099 4
      vertex 14.768 7.26399 4
    endloop
  endfacet
  facet normal -0 0 1
    outer loop
      vertex 14.768 7.26399 4
      vertex 16.276 6.08099 4
      vertex 15.1313 7.86066 4
    endloop
  endfacet
  facet normal 0 0 1
    outer loop
      vertex 15.3722 5.37376 4
      vertex 14.768 7.26399 4
      vertex 14.2788 6.83344 4
    endloop
  endfacet
  facet normal 0 -0 1
    outer loop
      vertex 14.2702 4.94945 4
      vertex 14.2788 6.83344 4
      vertex 13.6831 6.5751 4
    endloop
  endfacet
  facet normal -0 0 1
    outer loop
      vertex 12.981 6.489 4
      vertex 12.97 4.80801 4
      vertex 13.6831 6.5751 4
    endloop
  endfacet
  facet normal 0 0 1
    outer loop
      vertex 11.7548 6.80276 4
      vertex 10.7262 5.25421 4
      vertex 12.3291 6.56744 4
    endloop
  endfacet
  facet normal 0 0 1
    outer loop
      vertex 11.258 7.19499 4
      vertex 9.18555 6.59288 4
      vertex 10.7262 5.25421 4
    endloop
  endfacet
  facet normal 0 0 1
    outer loop
      vertex 10.8551 7.7271 4
      vertex 10.5611 8.38211 4
      vertex 9.18555 6.59288 4
    endloop
  endfacet
  facet normal 0 0 1
    outer loop
      vertex 10.8551 7.7271 4
      vertex 9.18555 6.59288 4
      vertex 11.258 7.19499 4
    endloop
  endfacet
  facet normal 0 0 1
    outer loop
      vertex 8.34799 8.82399 4
      vertex 9.18555 6.59288 4
      vertex 10.5611 8.38211 4
    endloop
  endfacet
  facet normal -0 0 1
    outer loop
      vertex 8.34799 8.82399 4
      vertex 10.5611 8.38211 4
      vertex 10.376 9.15999 4
    endloop
  endfacet
  facet normal 0 0 1
    outer loop
      vertex 11.258 7.19499 4
      vertex 10.7262 5.25421 4
      vertex 11.7548 6.80276 4
    endloop
  endfacet
  facet normal -0 0 1
    outer loop
      vertex 10.7262 5.25421 4
      vertex 12.97 4.80801 4
      vertex 12.3291 6.56744 4
    endloop
  endfacet
  facet normal 0 0 1
    outer loop
      vertex 23.9149 5 4
      vertex 25.9859 5 4
      vertex 25.9859 10.979 4
    endloop
  endfacet
  facet normal 0 0 1
    outer loop
      vertex 30.4649 10.979 4
      vertex 30.1699 12.616 4
      vertex 25.9859 10.979 4
    endloop
  endfacet
  facet normal 0 -0 1
    outer loop
      vertex 34.2999 12.257 4
      vertex 35.0843 13.2083 4
      vertex 33.2454 13.9782 4
    endloop
  endfacet
  facet normal -0 0 1
    outer loop
      vertex 33.6299 15.681 4
      vertex 35.555 14.357 4
      vertex 35.7119 15.703 4
    endloop
  endfacet
  facet normal 0 0 1
    outer loop
      vertex 33.2382 19.7613 4
      vertex 32.0539 18.3085 4
      vertex 34.3049 19.093 4
    endloop
  endfacet
  facet normal 0 0 1
    outer loop
      vertex 31.9142 20.1623 4
      vertex 32.0539 18.3085 4
      vertex 33.2382 19.7613 4
    endloop
  endfacet
  facet normal -0 0 1
    outer loop
      vertex 32.0539 18.3085 4
      vertex 33.2359 17.3232 4
      vertex 34.3049 19.093 4
    endloop
  endfacet
  facet normal 0 0 1
    outer loop
      vertex 32.0539 18.3085 4
      vertex 31.9142 20.1623 4
      vertex 30.0839 18.637 4
    endloop
  endfacet
  facet normal 0 0 1
    outer loop
      vertex 35.5555 17.0521 4
      vertex 35.0865 18.1821 4
      vertex 33.2359 17.3232 4
    endloop
  endfacet
  facet normal 0 0 1
    outer loop
      vertex 34.2999 12.257 4
      vertex 32.0921 12.9565 4
      vertex 33.2462 11.547 4
    endloop
  endfacet
  facet normal 0 0 1
    outer loop
      vertex 30.0839 18.637 4
      vertex 31.9142 20.1623 4
      vertex 30.3329 20.296 4
    endloop
  endfacet
  facet normal 0 -0 1
    outer loop
      vertex 25.9859 18.637 4
      vertex 30.3329 20.296 4
      vertex 23.9149 20.296 4
    endloop
  endfacet
  facet normal 0 0 1
    outer loop
      vertex 25.9859 12.616 4
      vertex 23.9149 20.296 4
      vertex 23.9149 5 4
    endloop
  endfacet
  facet normal 0 0 1
    outer loop
      vertex 25.9859 12.616 4
      vertex 23.9149 5 4
      vertex 25.9859 10.979 4
    endloop
  endfacet
  facet normal 0 0 1
    outer loop
      vertex 30.1699 12.616 4
      vertex 25.9859 12.616 4
      vertex 25.9859 10.979 4
    endloop
  endfacet
  facet normal 0 -0 1
    outer loop
      vertex 30.0839 18.637 4
      vertex 30.3329 20.296 4
      vertex 25.9859 18.637 4
    endloop
  endfacet
  facet normal 0 -0 1
    outer loop
      vertex 25.9859 12.616 4
      vertex 25.9859 18.637 4
      vertex 23.9149 20.296 4
    endloop
  endfacet
  facet normal 0 0 1
    outer loop
      vertex 33.2454 13.9782 4
      vertex 32.0921 12.9565 4
      vertex 34.2999 12.257 4
    endloop
  endfacet
  facet normal 0 0 1
    outer loop
      vertex 33.2359 17.3232 4
      vertex 35.0865 18.1821 4
      vertex 34.3049 19.093 4
    endloop
  endfacet
  facet normal 0 0 1
    outer loop
      vertex 35.7119 15.703 4
      vertex 35.5555 17.0521 4
      vertex 33.6299 15.681 4
    endloop
  endfacet
  facet normal 0 -0 1
    outer loop
      vertex 33.6299 15.681 4
      vertex 35.5555 17.0521 4
      vertex 33.2359 17.3232 4
    endloop
  endfacet
  facet normal 0 -0 1
    outer loop
      vertex 35.0843 13.2083 4
      vertex 35.555 14.357 4
      vertex 33.2454 13.9782 4
    endloop
  endfacet
  facet normal 0 0 1
    outer loop
      vertex 33.2454 13.9782 4
      vertex 35.555 14.357 4
      vertex 33.6299 15.681 4
    endloop
  endfacet
  facet normal 0 0 1
    outer loop
      vertex 32.0921 12.9565 4
      vertex 31.9679 11.121 4
      vertex 33.2462 11.547 4
    endloop
  endfacet
  facet normal -0 0 1
    outer loop
      vertex 30.1699 12.616 4
      vertex 31.9679 11.121 4
      vertex 32.0921 12.9565 4
    endloop
  endfacet
  facet normal 0.359329 -0.933211 0
    outer loop
      vertex 15.3722 5.37376 2
      vertex 14.2702 4.94945 4
      vertex 14.2702 4.94945 2
    endloop
  endfacet
  facet normal 0.359329 -0.933211 0
    outer loop
      vertex 15.3722 5.37376 2
      vertex 15.3722 5.37376 4
      vertex 14.2702 4.94945 4
    endloop
  endfacet
  facet normal 0.616268 -0.787537 0
    outer loop
      vertex 16.276 6.08099 2
      vertex 15.3722 5.37376 4
      vertex 15.3722 5.37376 2
    endloop
  endfacet
  facet normal 0.616268 -0.787537 0
    outer loop
      vertex 16.276 6.08099 2
      vertex 16.276 6.08099 4
      vertex 15.3722 5.37376 4
    endloop
  endfacet
  facet normal 0.818306 -0.574783 0
    outer loop
      vertex 16.9465 7.03566 2
      vertex 16.276 6.08099 4
      vertex 16.276 6.08099 2
    endloop
  endfacet
  facet normal 0.818306 -0.574783 0
    outer loop
      vertex 16.9465 7.03566 2
      vertex 16.9465 7.03566 4
      vertex 16.276 6.08099 4
    endloop
  endfacet
  facet normal 0.94525 -0.326347 0
    outer loop
      vertex 17.3489 8.20099 2
      vertex 16.9465 7.03566 4
      vertex 16.9465 7.03566 2
    endloop
  endfacet
  facet normal 0.94525 -0.326347 0
    outer loop
      vertex 17.3489 8.20099 2
      vertex 17.3489 8.20099 4
      vertex 16.9465 7.03566 4
    endloop
  endfacet
  facet normal 0.995284 -0.0970032 0
    outer loop
      vertex 17.483 9.577 2
      vertex 17.3489 8.20099 4
      vertex 17.3489 8.20099 2
    endloop
  endfacet
  facet normal 0.995284 -0.0970032 0
    outer loop
      vertex 17.483 9.577 2
      vertex 17.483 9.577 4
      vertex 17.3489 8.20099 4
    endloop
  endfacet
  facet normal 1 0 0
    outer loop
      vertex 17.483 20.296 2
      vertex 17.483 9.577 4
      vertex 17.483 9.577 2
    endloop
  endfacet
  facet normal 1 0 -0
    outer loop
      vertex 17.483 20.296 2
      vertex 17.483 20.296 4
      vertex 17.483 9.577 4
    endloop
  endfacet
  facet normal 0 1 0
    outer loop
      vertex 12.47 20.296 2
      vertex 17.483 20.296 4
      vertex 17.483 20.296 2
    endloop
  endfacet
  facet normal 0 1 0
    outer loop
      vertex 12.47 20.296 2
      vertex 12.47 20.296 4
      vertex 17.483 20.296 4
    endloop
  endfacet
  facet normal -1 0 0
    outer loop
      vertex 12.47 18.604 2
      vertex 12.47 20.296 4
      vertex 12.47 20.296 2
    endloop
  endfacet
  facet normal -1 0 0
    outer loop
      vertex 12.47 18.604 2
      vertex 12.47 18.604 4
      vertex 12.47 20.296 4
    endloop
  endfacet
  facet normal 0 -1 0
    outer loop
      vertex 15.422 18.604 2
      vertex 12.47 18.604 4
      vertex 12.47 18.604 2
    endloop
  endfacet
  facet normal 0 -1 0
    outer loop
      vertex 15.422 18.604 2
      vertex 15.422 18.604 4
      vertex 12.47 18.604 4
    endloop
  endfacet
  facet normal -1 0 0
    outer loop
      vertex 15.422 9.534 2
      vertex 15.422 18.604 4
      vertex 15.422 18.604 2
    endloop
  endfacet
  facet normal -1 0 0
    outer loop
      vertex 15.422 9.534 2
      vertex 15.422 9.534 4
      vertex 15.422 18.604 4
    endloop
  endfacet
  facet normal -0.996872 0.0790362 0
    outer loop
      vertex 15.3493 8.61732 2
      vertex 15.422 9.534 4
      vertex 15.422 9.534 2
    endloop
  endfacet
  facet normal -0.996872 0.0790362 0
    outer loop
      vertex 15.3493 8.61732 2
      vertex 15.3493 8.61732 4
      vertex 15.422 9.534 4
    endloop
  endfacet
  facet normal -0.960919 0.276829 0
    outer loop
      vertex 15.1313 7.86066 2
      vertex 15.3493 8.61732 4
      vertex 15.3493 8.61732 2
    endloop
  endfacet
  facet normal -0.960919 0.276829 0
    outer loop
      vertex 15.1313 7.86066 2
      vertex 15.1313 7.86066 4
      vertex 15.3493 8.61732 4
    endloop
  endfacet
  facet normal -0.8541 0.520109 0
    outer loop
      vertex 14.768 7.26399 2
      vertex 15.1313 7.86066 4
      vertex 15.1313 7.86066 2
    endloop
  endfacet
  facet normal -0.8541 0.520109 0
    outer loop
      vertex 14.768 7.26399 2
      vertex 14.768 7.26399 4
      vertex 15.1313 7.86066 4
    endloop
  endfacet
  facet normal -0.66066 0.750685 0
    outer loop
      vertex 14.2788 6.83344 2
      vertex 14.768 7.26399 4
      vertex 14.768 7.26399 2
    endloop
  endfacet
  facet normal -0.66066 0.750685 0
    outer loop
      vertex 14.2788 6.83344 2
      vertex 14.2788 6.83344 4
      vertex 14.768 7.26399 4
    endloop
  endfacet
  facet normal -0.397884 0.917436 0
    outer loop
      vertex 13.6831 6.5751 2
      vertex 14.2788 6.83344 4
      vertex 14.2788 6.83344 2
    endloop
  endfacet
  facet normal -0.397884 0.917436 0
    outer loop
      vertex 13.6831 6.5751 2
      vertex 13.6831 6.5751 4
      vertex 14.2788 6.83344 4
    endloop
  endfacet
  facet normal -0.121725 0.992564 0
    outer loop
      vertex 12.981 6.489 2
      vertex 13.6831 6.5751 4
      vertex 13.6831 6.5751 2
    endloop
  endfacet
  facet normal -0.121725 0.992564 0
    outer loop
      vertex 12.981 6.489 2
      vertex 12.981 6.489 4
      vertex 13.6831 6.5751 4
    endloop
  endfacet
  facet normal 0.119474 0.992837 0
    outer loop
      vertex 12.3291 6.56744 2
      vertex 12.981 6.489 4
      vertex 12.981 6.489 2
    endloop
  endfacet
  facet normal 0.119474 0.992837 -0
    outer loop
      vertex 12.3291 6.56744 2
      vertex 12.3291 6.56744 4
      vertex 12.981 6.489 4
    endloop
  endfacet
  facet normal 0.379143 0.925338 0
    outer loop
      vertex 11.7548 6.80276 2
      vertex 12.3291 6.56744 4
      vertex 12.3291 6.56744 2
    endloop
  endfacet
  facet normal 0.379143 0.925338 -0
    outer loop
      vertex 11.7548 6.80276 2
      vertex 11.7548 6.80276 4
      vertex 12.3291 6.56744 4
    endloop
  endfacet
  facet normal 0.619676 0.784858 0
    outer loop
      vertex 11.258 7.19499 2
      vertex 11.7548 6.80276 4
      vertex 11.7548 6.80276 2
    endloop
  endfacet
  facet normal 0.619676 0.784858 -0
    outer loop
      vertex 11.258 7.19499 2
      vertex 11.258 7.19499 4
      vertex 11.7548 6.80276 4
    endloop
  endfacet
  facet normal 0.797248 0.603652 0
    outer loop
      vertex 10.8551 7.7271 2
      vertex 11.258 7.19499 4
      vertex 11.258 7.19499 2
    endloop
  endfacet
  facet normal 0.797248 0.603652 -0
    outer loop
      vertex 10.8551 7.7271 2
      vertex 10.8551 7.7271 4
      vertex 11.258 7.19499 4
    endloop
  endfacet
  facet normal 0.912312 0.409496 0
    outer loop
      vertex 10.5611 8.38211 2
      vertex 10.8551 7.7271 4
      vertex 10.8551 7.7271 2
    endloop
  endfacet
  facet normal 0.912312 0.409496 -0
    outer loop
      vertex 10.5611 8.38211 2
      vertex 10.5611 8.38211 4
      vertex 10.8551 7.7271 4
    endloop
  endfacet
  facet normal 0.972836 0.231497 0
    outer loop
      vertex 10.376 9.15999 2
      vertex 10.5611 8.38211 4
      vertex 10.5611 8.38211 2
    endloop
  endfacet
  facet normal 0.972836 0.231497 -0
    outer loop
      vertex 10.376 9.15999 2
      vertex 10.376 9.15999 4
      vertex 10.5611 8.38211 4
    endloop
  endfacet
  facet normal -0.163452 0.986551 0
    outer loop
      vertex 8.34799 8.82399 2
      vertex 10.376 9.15999 4
      vertex 10.376 9.15999 2
    endloop
  endfacet
  facet normal -0.163452 0.986551 0
    outer loop
      vertex 8.34799 8.82399 2
      vertex 8.34799 8.82399 4
      vertex 10.376 9.15999 4
    endloop
  endfacet
  facet normal -0.936207 -0.35145 0
    outer loop
      vertex 9.18555 6.59288 2
      vertex 8.34799 8.82399 4
      vertex 8.34799 8.82399 2
    endloop
  endfacet
  facet normal -0.936207 -0.35145 0
    outer loop
      vertex 9.18555 6.59288 2
      vertex 9.18555 6.59288 4
      vertex 8.34799 8.82399 4
    endloop
  endfacet
  facet normal -0.655889 -0.754858 0
    outer loop
      vertex 10.7262 5.25421 2
      vertex 9.18555 6.59288 4
      vertex 9.18555 6.59288 2
    endloop
  endfacet
  facet normal -0.655889 -0.754858 0
    outer loop
      vertex 10.7262 5.25421 2
      vertex 10.7262 5.25421 4
      vertex 9.18555 6.59288 4
    endloop
  endfacet
  facet normal -0.195041 -0.980795 0
    outer loop
      vertex 12.97 4.80801 2
      vertex 10.7262 5.25421 4
      vertex 10.7262 5.25421 2
    endloop
  endfacet
  facet normal -0.195041 -0.980795 0
    outer loop
      vertex 12.97 4.80801 2
      vertex 12.97 4.80801 4
      vertex 10.7262 5.25421 4
    endloop
  endfacet
  facet normal 0.108138 -0.994136 0
    outer loop
      vertex 14.2702 4.94945 2
      vertex 12.97 4.80801 4
      vertex 12.97 4.80801 2
    endloop
  endfacet
  facet normal 0.108138 -0.994136 0
    outer loop
      vertex 14.2702 4.94945 2
      vertex 14.2702 4.94945 4
      vertex 12.97 4.80801 4
    endloop
  endfacet
  facet normal 0 -1 0
    outer loop
      vertex 30.4649 10.979 2
      vertex 25.9859 10.979 4
      vertex 25.9859 10.979 2
    endloop
  endfacet
  facet normal 0 -1 0
    outer loop
      vertex 30.4649 10.979 2
      vertex 30.4649 10.979 4
      vertex 25.9859 10.979 4
    endloop
  endfacet
  facet normal 0.0940583 -0.995567 0
    outer loop
      vertex 31.9679 11.121 2
      vertex 30.4649 10.979 4
      vertex 30.4649 10.979 2
    endloop
  endfacet
  facet normal 0.0940583 -0.995567 0
    outer loop
      vertex 31.9679 11.121 2
      vertex 31.9679 11.121 4
      vertex 30.4649 10.979 4
    endloop
  endfacet
  facet normal 0.31616 -0.948706 0
    outer loop
      vertex 33.2462 11.547 2
      vertex 31.9679 11.121 4
      vertex 31.9679 11.121 2
    endloop
  endfacet
  facet normal 0.31616 -0.948706 0
    outer loop
      vertex 33.2462 11.547 2
      vertex 33.2462 11.547 4
      vertex 31.9679 11.121 4
    endloop
  endfacet
  facet normal 0.558806 -0.829298 0
    outer loop
      vertex 34.2999 12.257 2
      vertex 33.2462 11.547 4
      vertex 33.2462 11.547 2
    endloop
  endfacet
  facet normal 0.558806 -0.829298 0
    outer loop
      vertex 34.2999 12.257 2
      vertex 34.2999 12.257 4
      vertex 33.2462 11.547 4
    endloop
  endfacet
  facet normal 0.771539 -0.636182 0
    outer loop
      vertex 35.0843 13.2083 2
      vertex 34.2999 12.257 4
      vertex 34.2999 12.257 2
    endloop
  endfacet
  facet normal 0.771539 -0.636182 0
    outer loop
      vertex 35.0843 13.2083 2
      vertex 35.0843 13.2083 4
      vertex 34.2999 12.257 4
    endloop
  endfacet
  facet normal 0.925331 -0.37916 0
    outer loop
      vertex 35.555 14.357 2
      vertex 35.0843 13.2083 4
      vertex 35.0843 13.2083 2
    endloop
  endfacet
  facet normal 0.925331 -0.37916 0
    outer loop
      vertex 35.555 14.357 2
      vertex 35.555 14.357 4
      vertex 35.0843 13.2083 4
    endloop
  endfacet
  facet normal 0.993275 -0.115778 0
    outer loop
      vertex 35.7119 15.703 2
      vertex 35.555 14.357 4
      vertex 35.555 14.357 2
    endloop
  endfacet
  facet normal 0.993275 -0.115778 0
    outer loop
      vertex 35.7119 15.703 2
      vertex 35.7119 15.703 4
      vertex 35.555 14.357 4
    endloop
  endfacet
  facet normal 0.993352 0.115114 0
    outer loop
      vertex 35.5555 17.0521 2
      vertex 35.7119 15.703 4
      vertex 35.7119 15.703 2
    endloop
  endfacet
  facet normal 0.993352 0.115114 -0
    outer loop
      vertex 35.5555 17.0521 2
      vertex 35.5555 17.0521 4
      vertex 35.7119 15.703 4
    endloop
  endfacet
  facet normal 0.923608 0.383337 0
    outer loop
      vertex 35.0865 18.1821 2
      vertex 35.5555 17.0521 4
      vertex 35.5555 17.0521 2
    endloop
  endfacet
  facet normal 0.923608 0.383337 -0
    outer loop
      vertex 35.0865 18.1821 2
      vertex 35.0865 18.1821 4
      vertex 35.5555 17.0521 4
    endloop
  endfacet
  facet normal 0.758886 0.651224 0
    outer loop
      vertex 34.3049 19.093 2
      vertex 35.0865 18.1821 4
      vertex 35.0865 18.1821 2
    endloop
  endfacet
  facet normal 0.758886 0.651224 -0
    outer loop
      vertex 34.3049 19.093 2
      vertex 34.3049 19.093 4
      vertex 35.0865 18.1821 4
    endloop
  endfacet
  facet normal 0.530952 0.847402 0
    outer loop
      vertex 33.2382 19.7613 2
      vertex 34.3049 19.093 4
      vertex 34.3049 19.093 2
    endloop
  endfacet
  facet normal 0.530952 0.847402 -0
    outer loop
      vertex 33.2382 19.7613 2
      vertex 33.2382 19.7613 4
      vertex 34.3049 19.093 4
    endloop
  endfacet
  facet normal 0.289867 0.957067 0
    outer loop
      vertex 31.9142 20.1623 2
      vertex 33.2382 19.7613 4
      vertex 33.2382 19.7613 2
    endloop
  endfacet
  facet normal 0.289867 0.957067 -0
    outer loop
      vertex 31.9142 20.1623 2
      vertex 31.9142 20.1623 4
      vertex 33.2382 19.7613 4
    endloop
  endfacet
  facet normal 0.0842279 0.996447 0
    outer loop
      vertex 30.3329 20.296 2
      vertex 31.9142 20.1623 4
      vertex 31.9142 20.1623 2
    endloop
  endfacet
  facet normal 0.0842279 0.996447 -0
    outer loop
      vertex 30.3329 20.296 2
      vertex 30.3329 20.296 4
      vertex 31.9142 20.1623 4
    endloop
  endfacet
  facet normal 0 1 0
    outer loop
      vertex 23.9149 20.296 2
      vertex 30.3329 20.296 4
      vertex 30.3329 20.296 2
    endloop
  endfacet
  facet normal 0 1 0
    outer loop
      vertex 23.9149 20.296 2
      vertex 23.9149 20.296 4
      vertex 30.3329 20.296 4
    endloop
  endfacet
  facet normal -1 0 0
    outer loop
      vertex 23.9149 5 2
      vertex 23.9149 20.296 4
      vertex 23.9149 20.296 2
    endloop
  endfacet
  facet normal -1 0 0
    outer loop
      vertex 23.9149 5 2
      vertex 23.9149 5 4
      vertex 23.9149 20.296 4
    endloop
  endfacet
  facet normal 0 -1 0
    outer loop
      vertex 25.9859 5 2
      vertex 23.9149 5 4
      vertex 23.9149 5 2
    endloop
  endfacet
  facet normal 0 -1 0
    outer loop
      vertex 25.9859 5 2
      vertex 25.9859 5 4
      vertex 23.9149 5 4
    endloop
  endfacet
  facet normal 1 0 0
    outer loop
      vertex 25.9859 10.979 2
      vertex 25.9859 5 4
      vertex 25.9859 5 2
    endloop
  endfacet
  facet normal 1 0 -0
    outer loop
      vertex 25.9859 10.979 2
      vertex 25.9859 10.979 4
      vertex 25.9859 5 4
    endloop
  endfacet
  facet normal 1 0 -0
    outer loop
      vertex 25.9859 18.637 2
      vertex 25.9859 18.637 4
      vertex 25.9859 12.616 2
    endloop
  endfacet
  facet normal 1 -0 0
    outer loop
      vertex 25.9859 12.616 4
      vertex 25.9859 12.616 2
      vertex 25.9859 18.637 4
    endloop
  endfacet
  facet normal 0 -1 0
    outer loop
      vertex 30.0839 18.637 2
      vertex 30.0839 18.637 4
      vertex 25.9859 18.637 2
    endloop
  endfacet
  facet normal 0 -1 0
    outer loop
      vertex 25.9859 18.637 4
      vertex 25.9859 18.637 2
      vertex 30.0839 18.637 4
    endloop
  endfacet
  facet normal -0.164454 -0.986385 0
    outer loop
      vertex 32.0539 18.3085 2
      vertex 32.0539 18.3085 4
      vertex 30.0839 18.637 2
    endloop
  endfacet
  facet normal -0.164454 -0.986385 -0
    outer loop
      vertex 30.0839 18.637 4
      vertex 30.0839 18.637 2
      vertex 32.0539 18.3085 4
    endloop
  endfacet
  facet normal -0.640311 -0.768116 0
    outer loop
      vertex 33.2359 17.3232 2
      vertex 33.2359 17.3232 4
      vertex 32.0539 18.3085 2
    endloop
  endfacet
  facet normal -0.640311 -0.768116 -0
    outer loop
      vertex 32.0539 18.3085 4
      vertex 32.0539 18.3085 2
      vertex 33.2359 17.3232 4
    endloop
  endfacet
  facet normal -0.972405 -0.233298 0
    outer loop
      vertex 33.6299 15.681 2
      vertex 33.6299 15.681 4
      vertex 33.2359 17.3232 2
    endloop
  endfacet
  facet normal -0.972405 -0.233298 -0
    outer loop
      vertex 33.2359 17.3232 4
      vertex 33.2359 17.3232 2
      vertex 33.6299 15.681 4
    endloop
  endfacet
  facet normal -0.975448 0.220231 0
    outer loop
      vertex 33.2454 13.9782 2
      vertex 33.2454 13.9782 4
      vertex 33.6299 15.681 2
    endloop
  endfacet
  facet normal -0.975448 0.220231 0
    outer loop
      vertex 33.6299 15.681 4
      vertex 33.6299 15.681 2
      vertex 33.2454 13.9782 4
    endloop
  endfacet
  facet normal -0.663087 0.748543 0
    outer loop
      vertex 32.0921 12.9565 2
      vertex 32.0921 12.9565 4
      vertex 33.2454 13.9782 2
    endloop
  endfacet
  facet normal -0.663087 0.748543 0
    outer loop
      vertex 33.2454 13.9782 4
      vertex 33.2454 13.9782 2
      vertex 32.0921 12.9565 4
    endloop
  endfacet
  facet normal -0.174446 0.984667 0
    outer loop
      vertex 30.1699 12.616 2
      vertex 30.1699 12.616 4
      vertex 32.0921 12.9565 2
    endloop
  endfacet
  facet normal -0.174446 0.984667 0
    outer loop
      vertex 32.0921 12.9565 4
      vertex 32.0921 12.9565 2
      vertex 30.1699 12.616 4
    endloop
  endfacet
  facet normal 0 1 0
    outer loop
      vertex 25.9859 12.616 2
      vertex 25.9859 12.616 4
      vertex 30.1699 12.616 2
    endloop
  endfacet
  facet normal 0 1 0
    outer loop
      vertex 30.1699 12.616 4
      vertex 30.1699 12.616 2
      vertex 25.9859 12.616 4
    endloop
  endfacet
endsolid OpenSCAD_Model
