solid OpenSCAD_Model
  facet normal 0 0 -1
    outer loop
      vertex 13.878 12.382 2
      vertex 11.889 12.632 2
      vertex 15.176 13.652 2
    endloop
  endfacet
  facet normal 0 0 -1
    outer loop
      vertex 9.81799 5 2
      vertex 9.81799 20.296 2
      vertex 11.889 12.632 2
    endloop
  endfacet
  facet normal 0 -0 -1
    outer loop
      vertex 11.889 12.632 2
      vertex 11.889 10.862 2
      vertex 9.81799 5 2
    endloop
  endfacet
  facet normal 0 0 -1
    outer loop
      vertex 15.176 13.652 2
      vertex 22.535 5 2
      vertex 19.965 5 2
    endloop
  endfacet
  facet normal 0 0 -1
    outer loop
      vertex 13.878 12.382 2
      vertex 15.176 13.652 2
      vertex 19.965 5 2
    endloop
  endfacet
  facet normal 0 0 -1
    outer loop
      vertex 41.5466 5 2
      vertex 37.6906 9.46399 2
      vertex 37.0746 11.08 2
    endloop
  endfacet
  facet normal 0 -0 -1
    outer loop
      vertex 19.229 20.296 2
      vertex 21.669 20.296 2
      vertex 15.176 13.652 2
    endloop
  endfacet
  facet normal 0 0 -1
    outer loop
      vertex 11.889 12.632 2
      vertex 19.229 20.296 2
      vertex 15.176 13.652 2
    endloop
  endfacet
  facet normal 0 0 -1
    outer loop
      vertex 11.889 10.862 2
      vertex 11.889 12.632 2
      vertex 13.878 12.382 2
    endloop
  endfacet
  facet normal 0 0 -1
    outer loop
      vertex 11.889 12.632 2
      vertex 9.81799 20.296 2
      vertex 11.889 20.296 2
    endloop
  endfacet
  facet normal 0 0 -1
    outer loop
      vertex 11.889 5 2
      vertex 9.81799 5 2
      vertex 11.889 10.862 2
    endloop
  endfacet
  facet normal 0 0 -1
    outer loop
      vertex 30.7476 9.46399 2
      vertex 28.9956 5 2
      vertex 26.8486 5 2
    endloop
  endfacet
  facet normal 0 0 -1
    outer loop
      vertex 37.6906 9.46399 2
      vertex 30.7476 9.46399 2
      vertex 31.3746 11.08 2
    endloop
  endfacet
  facet normal 0 0 -1
    outer loop
      vertex 37.6906 9.46399 2
      vertex 41.5466 5 2
      vertex 39.4316 5 2
    endloop
  endfacet
  facet normal 0 0 -1
    outer loop
      vertex 37.0746 11.08 2
      vertex 35.4236 20.296 2
      vertex 41.5466 5 2
    endloop
  endfacet
  facet normal -0 -0 -1
    outer loop
      vertex 37.0746 11.08 2
      vertex 37.6906 9.46399 2
      vertex 31.3746 11.08 2
    endloop
  endfacet
  facet normal -0 0 -1
    outer loop
      vertex 30.7476 9.46399 2
      vertex 26.8486 5 2
      vertex 31.3746 11.08 2
    endloop
  endfacet
  facet normal -0 0 -1
    outer loop
      vertex 31.3746 11.08 2
      vertex 26.8486 5 2
      vertex 33.0706 20.296 2
    endloop
  endfacet
  facet normal -0 0 -1
    outer loop
      vertex 33.3216 16.114 2
      vertex 31.3746 11.08 2
      vertex 33.0706 20.296 2
    endloop
  endfacet
  facet normal -0 0 -1
    outer loop
      vertex 33.6461 16.9993 2
      vertex 33.3216 16.114 2
      vertex 33.0706 20.296 2
    endloop
  endfacet
  facet normal -0 0 -1
    outer loop
      vertex 33.9131 17.7713 2
      vertex 33.6461 16.9993 2
      vertex 33.0706 20.296 2
    endloop
  endfacet
  facet normal -0 0 -1
    outer loop
      vertex 35.4236 20.296 2
      vertex 34.2196 18.734 2
      vertex 33.0706 20.296 2
    endloop
  endfacet
  facet normal -0 0 -1
    outer loop
      vertex 34.2196 18.734 2
      vertex 33.9131 17.7713 2
      vertex 33.0706 20.296 2
    endloop
  endfacet
  facet normal 0 0 -1
    outer loop
      vertex 34.7136 17.2231 2
      vertex 34.5116 17.832 2
      vertex 35.4236 20.296 2
    endloop
  endfacet
  facet normal 0 0 -1
    outer loop
      vertex 34.5116 17.832 2
      vertex 34.2196 18.734 2
      vertex 35.4236 20.296 2
    endloop
  endfacet
  facet normal 0 0 -1
    outer loop
      vertex 34.9156 16.6578 2
      vertex 34.7136 17.2231 2
      vertex 35.4236 20.296 2
    endloop
  endfacet
  facet normal 0 0 -1
    outer loop
      vertex 37.0746 11.08 2
      vertex 34.9156 16.6578 2
      vertex 35.4236 20.296 2
    endloop
  endfacet
  facet normal 0 0 1
    outer loop
      vertex 15.176 13.652 4
      vertex 11.889 12.632 4
      vertex 13.878 12.382 4
    endloop
  endfacet
  facet normal 0 0 1
    outer loop
      vertex 11.889 12.632 4
      vertex 9.81799 20.296 4
      vertex 9.81799 5 4
    endloop
  endfacet
  facet normal 0 0 1
    outer loop
      vertex 9.81799 5 4
      vertex 11.889 10.862 4
      vertex 11.889 12.632 4
    endloop
  endfacet
  facet normal 0 -0 1
    outer loop
      vertex 19.965 5 4
      vertex 22.535 5 4
      vertex 15.176 13.652 4
    endloop
  endfacet
  facet normal 0 0 1
    outer loop
      vertex 19.965 5 4
      vertex 15.176 13.652 4
      vertex 13.878 12.382 4
    endloop
  endfacet
  facet normal 0 0 1
    outer loop
      vertex 37.0746 11.08 4
      vertex 37.6906 9.46399 4
      vertex 41.5466 5 4
    endloop
  endfacet
  facet normal 0 0 1
    outer loop
      vertex 15.176 13.652 4
      vertex 21.669 20.296 4
      vertex 19.229 20.296 4
    endloop
  endfacet
  facet normal 0 -0 1
    outer loop
      vertex 15.176 13.652 4
      vertex 19.229 20.296 4
      vertex 11.889 12.632 4
    endloop
  endfacet
  facet normal 0 0 1
    outer loop
      vertex 13.878 12.382 4
      vertex 11.889 12.632 4
      vertex 11.889 10.862 4
    endloop
  endfacet
  facet normal 0 0 1
    outer loop
      vertex 11.889 20.296 4
      vertex 9.81799 20.296 4
      vertex 11.889 12.632 4
    endloop
  endfacet
  facet normal 0 0 1
    outer loop
      vertex 11.889 10.862 4
      vertex 9.81799 5 4
      vertex 11.889 5 4
    endloop
  endfacet
  facet normal 0 0 1
    outer loop
      vertex 26.8486 5 4
      vertex 28.9956 5 4
      vertex 30.7476 9.46399 4
    endloop
  endfacet
  facet normal 0 0 1
    outer loop
      vertex 31.3746 11.08 4
      vertex 30.7476 9.46399 4
      vertex 37.6906 9.46399 4
    endloop
  endfacet
  facet normal 0 -0 1
    outer loop
      vertex 39.4316 5 4
      vertex 41.5466 5 4
      vertex 37.6906 9.46399 4
    endloop
  endfacet
  facet normal 0 0 1
    outer loop
      vertex 41.5466 5 4
      vertex 35.4236 20.296 4
      vertex 37.0746 11.08 4
    endloop
  endfacet
  facet normal -0 0 1
    outer loop
      vertex 31.3746 11.08 4
      vertex 37.6906 9.46399 4
      vertex 37.0746 11.08 4
    endloop
  endfacet
  facet normal 0 0 1
    outer loop
      vertex 31.3746 11.08 4
      vertex 26.8486 5 4
      vertex 30.7476 9.46399 4
    endloop
  endfacet
  facet normal 0 0 1
    outer loop
      vertex 33.0706 20.296 4
      vertex 26.8486 5 4
      vertex 31.3746 11.08 4
    endloop
  endfacet
  facet normal 0 0 1
    outer loop
      vertex 33.0706 20.296 4
      vertex 31.3746 11.08 4
      vertex 33.3216 16.114 4
    endloop
  endfacet
  facet normal 0 0 1
    outer loop
      vertex 33.0706 20.296 4
      vertex 33.3216 16.114 4
      vertex 33.6461 16.9993 4
    endloop
  endfacet
  facet normal 0 0 1
    outer loop
      vertex 33.0706 20.296 4
      vertex 33.6461 16.9993 4
      vertex 33.9131 17.7713 4
    endloop
  endfacet
  facet normal -0 0 1
    outer loop
      vertex 33.0706 20.296 4
      vertex 34.2196 18.734 4
      vertex 35.4236 20.296 4
    endloop
  endfacet
  facet normal 0 0 1
    outer loop
      vertex 33.0706 20.296 4
      vertex 33.9131 17.7713 4
      vertex 34.2196 18.734 4
    endloop
  endfacet
  facet normal 0 0 1
    outer loop
      vertex 35.4236 20.296 4
      vertex 34.5116 17.832 4
      vertex 34.7136 17.2231 4
    endloop
  endfacet
  facet normal 0 0 1
    outer loop
      vertex 35.4236 20.296 4
      vertex 34.2196 18.734 4
      vertex 34.5116 17.832 4
    endloop
  endfacet
  facet normal 0 0 1
    outer loop
      vertex 35.4236 20.296 4
      vertex 34.7136 17.2231 4
      vertex 34.9156 16.6578 4
    endloop
  endfacet
  facet normal 0 0 1
    outer loop
      vertex 35.4236 20.296 4
      vertex 34.9156 16.6578 4
      vertex 37.0746 11.08 4
    endloop
  endfacet
  facet normal 0.607196 -0.794552 0
    outer loop
      vertex 13.878 12.382 2
      vertex 11.889 10.862 4
      vertex 11.889 10.862 2
    endloop
  endfacet
  facet normal 0.607196 -0.794552 0
    outer loop
      vertex 13.878 12.382 2
      vertex 13.878 12.382 4
      vertex 11.889 10.862 4
    endloop
  endfacet
  facet normal -0.771534 -0.636188 0
    outer loop
      vertex 19.965 5 2
      vertex 13.878 12.382 4
      vertex 13.878 12.382 2
    endloop
  endfacet
  facet normal -0.771534 -0.636188 0
    outer loop
      vertex 19.965 5 2
      vertex 19.965 5 4
      vertex 13.878 12.382 4
    endloop
  endfacet
  facet normal 0 -1 0
    outer loop
      vertex 22.535 5 2
      vertex 19.965 5 4
      vertex 19.965 5 2
    endloop
  endfacet
  facet normal 0 -1 0
    outer loop
      vertex 22.535 5 2
      vertex 22.535 5 4
      vertex 19.965 5 4
    endloop
  endfacet
  facet normal 0.761731 0.647894 0
    outer loop
      vertex 15.176 13.652 2
      vertex 22.535 5 4
      vertex 22.535 5 2
    endloop
  endfacet
  facet normal 0.761731 0.647894 -0
    outer loop
      vertex 15.176 13.652 2
      vertex 15.176 13.652 4
      vertex 22.535 5 4
    endloop
  endfacet
  facet normal 0.715187 -0.698933 0
    outer loop
      vertex 21.669 20.296 2
      vertex 15.176 13.652 4
      vertex 15.176 13.652 2
    endloop
  endfacet
  facet normal 0.715187 -0.698933 0
    outer loop
      vertex 21.669 20.296 2
      vertex 21.669 20.296 4
      vertex 15.176 13.652 4
    endloop
  endfacet
  facet normal 0 1 0
    outer loop
      vertex 19.229 20.296 2
      vertex 21.669 20.296 4
      vertex 21.669 20.296 2
    endloop
  endfacet
  facet normal 0 1 0
    outer loop
      vertex 19.229 20.296 2
      vertex 19.229 20.296 4
      vertex 21.669 20.296 4
    endloop
  endfacet
  facet normal -0.722208 0.691676 0
    outer loop
      vertex 11.889 12.632 2
      vertex 19.229 20.296 4
      vertex 19.229 20.296 2
    endloop
  endfacet
  facet normal -0.722208 0.691676 0
    outer loop
      vertex 11.889 12.632 2
      vertex 11.889 12.632 4
      vertex 19.229 20.296 4
    endloop
  endfacet
  facet normal 1 0 0
    outer loop
      vertex 11.889 20.296 2
      vertex 11.889 12.632 4
      vertex 11.889 12.632 2
    endloop
  endfacet
  facet normal 1 0 -0
    outer loop
      vertex 11.889 20.296 2
      vertex 11.889 20.296 4
      vertex 11.889 12.632 4
    endloop
  endfacet
  facet normal 0 1 0
    outer loop
      vertex 9.81799 20.296 2
      vertex 11.889 20.296 4
      vertex 11.889 20.296 2
    endloop
  endfacet
  facet normal 0 1 0
    outer loop
      vertex 9.81799 20.296 2
      vertex 9.81799 20.296 4
      vertex 11.889 20.296 4
    endloop
  endfacet
  facet normal -1 0 0
    outer loop
      vertex 9.81799 5 2
      vertex 9.81799 20.296 4
      vertex 9.81799 20.296 2
    endloop
  endfacet
  facet normal -1 0 0
    outer loop
      vertex 9.81799 5 2
      vertex 9.81799 5 4
      vertex 9.81799 20.296 4
    endloop
  endfacet
  facet normal 0 -1 0
    outer loop
      vertex 11.889 5 2
      vertex 9.81799 5 4
      vertex 9.81799 5 2
    endloop
  endfacet
  facet normal 0 -1 0
    outer loop
      vertex 11.889 5 2
      vertex 11.889 5 4
      vertex 9.81799 5 4
    endloop
  endfacet
  facet normal 1 0 0
    outer loop
      vertex 11.889 10.862 2
      vertex 11.889 5 4
      vertex 11.889 5 2
    endloop
  endfacet
  facet normal 1 0 -0
    outer loop
      vertex 11.889 10.862 2
      vertex 11.889 10.862 4
      vertex 11.889 5 4
    endloop
  endfacet
  facet normal 0 -1 0
    outer loop
      vertex 37.6906 9.46399 2
      vertex 30.7476 9.46399 4
      vertex 30.7476 9.46399 2
    endloop
  endfacet
  facet normal 0 -1 0
    outer loop
      vertex 37.6906 9.46399 2
      vertex 37.6906 9.46399 4
      vertex 30.7476 9.46399 4
    endloop
  endfacet
  facet normal -0.931651 -0.363356 0
    outer loop
      vertex 39.4316 5 2
      vertex 37.6906 9.46399 4
      vertex 37.6906 9.46399 2
    endloop
  endfacet
  facet normal -0.931651 -0.363356 0
    outer loop
      vertex 39.4316 5 2
      vertex 39.4316 5 4
      vertex 37.6906 9.46399 4
    endloop
  endfacet
  facet normal 0 -1 0
    outer loop
      vertex 41.5466 5 2
      vertex 39.4316 5 4
      vertex 39.4316 5 2
    endloop
  endfacet
  facet normal 0 -1 0
    outer loop
      vertex 41.5466 5 2
      vertex 41.5466 5 4
      vertex 39.4316 5 4
    endloop
  endfacet
  facet normal 0.92838 0.371632 0
    outer loop
      vertex 35.4236 20.296 2
      vertex 41.5466 5 4
      vertex 41.5466 5 2
    endloop
  endfacet
  facet normal 0.92838 0.371632 -0
    outer loop
      vertex 35.4236 20.296 2
      vertex 35.4236 20.296 4
      vertex 41.5466 5 4
    endloop
  endfacet
  facet normal 0 1 0
    outer loop
      vertex 33.0706 20.296 2
      vertex 35.4236 20.296 4
      vertex 35.4236 20.296 2
    endloop
  endfacet
  facet normal 0 1 0
    outer loop
      vertex 33.0706 20.296 2
      vertex 33.0706 20.296 4
      vertex 35.4236 20.296 4
    endloop
  endfacet
  facet normal -0.926297 0.376793 0
    outer loop
      vertex 26.8486 5 2
      vertex 33.0706 20.296 4
      vertex 33.0706 20.296 2
    endloop
  endfacet
  facet normal -0.926297 0.376793 0
    outer loop
      vertex 26.8486 5 2
      vertex 26.8486 5 4
      vertex 33.0706 20.296 4
    endloop
  endfacet
  facet normal 0 -1 0
    outer loop
      vertex 28.9956 5 2
      vertex 26.8486 5 4
      vertex 26.8486 5 2
    endloop
  endfacet
  facet normal 0 -1 0
    outer loop
      vertex 28.9956 5 2
      vertex 28.9956 5 4
      vertex 26.8486 5 4
    endloop
  endfacet
  facet normal 0.930873 -0.365343 0
    outer loop
      vertex 30.7476 9.46399 2
      vertex 28.9956 5 4
      vertex 28.9956 5 2
    endloop
  endfacet
  facet normal 0.930873 -0.365343 0
    outer loop
      vertex 30.7476 9.46399 2
      vertex 30.7476 9.46399 4
      vertex 28.9956 5 4
    endloop
  endfacet
  facet normal 0.932671 -0.360729 0
    outer loop
      vertex 33.3216 16.114 2
      vertex 33.3216 16.114 4
      vertex 31.3746 11.08 2
    endloop
  endfacet
  facet normal 0.932671 -0.360729 0
    outer loop
      vertex 31.3746 11.08 4
      vertex 31.3746 11.08 2
      vertex 33.3216 16.114 4
    endloop
  endfacet
  facet normal 0.938899 -0.344192 0
    outer loop
      vertex 33.6461 16.9993 2
      vertex 33.6461 16.9993 4
      vertex 33.3216 16.114 2
    endloop
  endfacet
  facet normal 0.938899 -0.344192 0
    outer loop
      vertex 33.3216 16.114 4
      vertex 33.3216 16.114 2
      vertex 33.6461 16.9993 4
    endloop
  endfacet
  facet normal 0.945074 -0.326855 0
    outer loop
      vertex 33.9131 17.7713 2
      vertex 33.9131 17.7713 4
      vertex 33.6461 16.9993 2
    endloop
  endfacet
  facet normal 0.945074 -0.326855 0
    outer loop
      vertex 33.6461 16.9993 4
      vertex 33.6461 16.9993 2
      vertex 33.9131 17.7713 4
    endloop
  endfacet
  facet normal 0.952886 -0.30333 0
    outer loop
      vertex 34.2196 18.734 2
      vertex 34.2196 18.734 4
      vertex 33.9131 17.7713 2
    endloop
  endfacet
  facet normal 0.952886 -0.30333 0
    outer loop
      vertex 33.9131 17.7713 4
      vertex 33.9131 17.7713 2
      vertex 34.2196 18.734 4
    endloop
  endfacet
  facet normal -0.951388 -0.307993 0
    outer loop
      vertex 34.5116 17.832 2
      vertex 34.5116 17.832 4
      vertex 34.2196 18.734 2
    endloop
  endfacet
  facet normal -0.951388 -0.307993 -0
    outer loop
      vertex 34.2196 18.734 4
      vertex 34.2196 18.734 2
      vertex 34.5116 17.832 4
    endloop
  endfacet
  facet normal -0.949134 -0.314872 0
    outer loop
      vertex 34.7136 17.2231 2
      vertex 34.7136 17.2231 4
      vertex 34.5116 17.832 2
    endloop
  endfacet
  facet normal -0.949134 -0.314872 -0
    outer loop
      vertex 34.5116 17.832 4
      vertex 34.5116 17.832 2
      vertex 34.7136 17.2231 4
    endloop
  endfacet
  facet normal -0.941692 -0.336476 0
    outer loop
      vertex 34.9156 16.6578 2
      vertex 34.9156 16.6578 4
      vertex 34.7136 17.2231 2
    endloop
  endfacet
  facet normal -0.941692 -0.336476 -0
    outer loop
      vertex 34.7136 17.2231 4
      vertex 34.7136 17.2231 2
      vertex 34.9156 16.6578 4
    endloop
  endfacet
  facet normal -0.932576 -0.360973 0
    outer loop
      vertex 37.0746 11.08 2
      vertex 37.0746 11.08 4
      vertex 34.9156 16.6578 2
    endloop
  endfacet
  facet normal -0.932576 -0.360973 -0
    outer loop
      vertex 34.9156 16.6578 4
      vertex 34.9156 16.6578 2
      vertex 37.0746 11.08 4
    endloop
  endfacet
  facet normal 0 1 0
    outer loop
      vertex 31.3746 11.08 2
      vertex 31.3746 11.08 4
      vertex 37.0746 11.08 2
    endloop
  endfacet
  facet normal 0 1 0
    outer loop
      vertex 37.0746 11.08 4
      vertex 37.0746 11.08 2
      vertex 31.3746 11.08 4
    endloop
  endfacet
endsolid OpenSCAD_Model
