solid OpenSCAD_Model
  facet normal 0 0 -1
    outer loop
      vertex 13.878 12.382 2
      vertex 11.889 12.632 2
      vertex 15.176 13.652 2
    endloop
  endfacet
  facet normal 0 0 -1
    outer loop
      vertex 9.81799 5 2
      vertex 9.81799 20.296 2
      vertex 11.889 12.632 2
    endloop
  endfacet
  facet normal 0 -0 -1
    outer loop
      vertex 11.889 12.632 2
      vertex 11.889 10.862 2
      vertex 9.81799 5 2
    endloop
  endfacet
  facet normal 0 0 -1
    outer loop
      vertex 15.176 13.652 2
      vertex 22.535 5 2
      vertex 19.965 5 2
    endloop
  endfacet
  facet normal 0 0 -1
    outer loop
      vertex 13.878 12.382 2
      vertex 15.176 13.652 2
      vertex 19.965 5 2
    endloop
  endfacet
  facet normal 0 -0 -1
    outer loop
      vertex 19.229 20.296 2
      vertex 21.669 20.296 2
      vertex 15.176 13.652 2
    endloop
  endfacet
  facet normal 0 0 -1
    outer loop
      vertex 11.889 12.632 2
      vertex 19.229 20.296 2
      vertex 15.176 13.652 2
    endloop
  endfacet
  facet normal 0 0 -1
    outer loop
      vertex 11.889 10.862 2
      vertex 11.889 12.632 2
      vertex 13.878 12.382 2
    endloop
  endfacet
  facet normal 0 0 -1
    outer loop
      vertex 11.889 12.632 2
      vertex 9.81799 20.296 2
      vertex 11.889 20.296 2
    endloop
  endfacet
  facet normal 0 0 -1
    outer loop
      vertex 11.889 5 2
      vertex 9.81799 5 2
      vertex 11.889 10.862 2
    endloop
  endfacet
  facet normal 0 -0 -1
    outer loop
      vertex 30.4736 15.163 2
      vertex 30.4736 5 2
      vertex 28.6306 5 2
    endloop
  endfacet
  facet normal 0 0 -1
    outer loop
      vertex 28.6306 20.296 2
      vertex 30.3656 18.03 2
      vertex 30.4196 16.977 2
    endloop
  endfacet
  facet normal -0 0 -1
    outer loop
      vertex 41.0556 20.296 2
      vertex 39.1906 10.264 2
      vertex 39.1906 20.296 2
    endloop
  endfacet
  facet normal 0 -0 -1
    outer loop
      vertex 41.0556 20.296 2
      vertex 41.0556 5 2
      vertex 39.1906 10.264 2
    endloop
  endfacet
  facet normal 0 0 -1
    outer loop
      vertex 28.6306 20.296 2
      vertex 31.0376 20.296 2
      vertex 30.3656 18.03 2
    endloop
  endfacet
  facet normal -0 -0 -1
    outer loop
      vertex 30.4196 16.977 2
      vertex 30.4736 15.163 2
      vertex 28.6306 20.296 2
    endloop
  endfacet
  facet normal 0 0 -1
    outer loop
      vertex 39.1906 10.264 2
      vertex 41.0556 5 2
      vertex 39.205 9.49643 2
    endloop
  endfacet
  facet normal 0 0 -1
    outer loop
      vertex 39.205 9.49643 2
      vertex 41.0556 5 2
      vertex 39.2483 8.46843 2
    endloop
  endfacet
  facet normal 0 0 -1
    outer loop
      vertex 39.2483 8.46843 2
      vertex 41.0556 5 2
      vertex 39.3206 7.17999 2
    endloop
  endfacet
  facet normal 0 -0 -1
    outer loop
      vertex 39.3206 7.17999 2
      vertex 41.0556 5 2
      vertex 38.5616 5 2
    endloop
  endfacet
  facet normal -0 0 -1
    outer loop
      vertex 30.4736 15.163 2
      vertex 28.6306 5 2
      vertex 28.6306 20.296 2
    endloop
  endfacet
  facet normal 0 0 -1
    outer loop
      vertex 38.5616 5 2
      vertex 30.3656 18.03 2
      vertex 39.3206 7.17999 2
    endloop
  endfacet
  facet normal 0 0 -1
    outer loop
      vertex 30.3656 18.03 2
      vertex 31.0376 20.296 2
      vertex 39.3206 7.17999 2
    endloop
  endfacet
  facet normal 0 0 1
    outer loop
      vertex 15.176 13.652 4
      vertex 11.889 12.632 4
      vertex 13.878 12.382 4
    endloop
  endfacet
  facet normal 0 0 1
    outer loop
      vertex 11.889 12.632 4
      vertex 9.81799 20.296 4
      vertex 9.81799 5 4
    endloop
  endfacet
  facet normal 0 0 1
    outer loop
      vertex 9.81799 5 4
      vertex 11.889 10.862 4
      vertex 11.889 12.632 4
    endloop
  endfacet
  facet normal 0 -0 1
    outer loop
      vertex 19.965 5 4
      vertex 22.535 5 4
      vertex 15.176 13.652 4
    endloop
  endfacet
  facet normal 0 0 1
    outer loop
      vertex 19.965 5 4
      vertex 15.176 13.652 4
      vertex 13.878 12.382 4
    endloop
  endfacet
  facet normal 0 0 1
    outer loop
      vertex 15.176 13.652 4
      vertex 21.669 20.296 4
      vertex 19.229 20.296 4
    endloop
  endfacet
  facet normal 0 -0 1
    outer loop
      vertex 15.176 13.652 4
      vertex 19.229 20.296 4
      vertex 11.889 12.632 4
    endloop
  endfacet
  facet normal 0 0 1
    outer loop
      vertex 13.878 12.382 4
      vertex 11.889 12.632 4
      vertex 11.889 10.862 4
    endloop
  endfacet
  facet normal 0 0 1
    outer loop
      vertex 11.889 20.296 4
      vertex 9.81799 20.296 4
      vertex 11.889 12.632 4
    endloop
  endfacet
  facet normal 0 0 1
    outer loop
      vertex 11.889 10.862 4
      vertex 9.81799 5 4
      vertex 11.889 5 4
    endloop
  endfacet
  facet normal 0 0 1
    outer loop
      vertex 28.6306 5 4
      vertex 30.4736 5 4
      vertex 30.4736 15.163 4
    endloop
  endfacet
  facet normal 0 0 1
    outer loop
      vertex 30.4196 16.977 4
      vertex 30.3656 18.03 4
      vertex 28.6306 20.296 4
    endloop
  endfacet
  facet normal -0 0 1
    outer loop
      vertex 39.1906 20.296 4
      vertex 39.1906 10.264 4
      vertex 41.0556 20.296 4
    endloop
  endfacet
  facet normal -0 0 1
    outer loop
      vertex 39.1906 10.264 4
      vertex 41.0556 5 4
      vertex 41.0556 20.296 4
    endloop
  endfacet
  facet normal 0 -0 1
    outer loop
      vertex 30.3656 18.03 4
      vertex 31.0376 20.296 4
      vertex 28.6306 20.296 4
    endloop
  endfacet
  facet normal 0 0 1
    outer loop
      vertex 28.6306 20.296 4
      vertex 30.4736 15.163 4
      vertex 30.4196 16.977 4
    endloop
  endfacet
  facet normal -0 -0 1
    outer loop
      vertex 39.205 9.49643 4
      vertex 41.0556 5 4
      vertex 39.1906 10.264 4
    endloop
  endfacet
  facet normal -0 -0 1
    outer loop
      vertex 39.2483 8.46843 4
      vertex 41.0556 5 4
      vertex 39.205 9.49643 4
    endloop
  endfacet
  facet normal -0 -0 1
    outer loop
      vertex 39.3206 7.17999 4
      vertex 41.0556 5 4
      vertex 39.2483 8.46843 4
    endloop
  endfacet
  facet normal 0 0 1
    outer loop
      vertex 38.5616 5 4
      vertex 41.0556 5 4
      vertex 39.3206 7.17999 4
    endloop
  endfacet
  facet normal 0 0 1
    outer loop
      vertex 28.6306 20.296 4
      vertex 28.6306 5 4
      vertex 30.4736 15.163 4
    endloop
  endfacet
  facet normal 0 0 1
    outer loop
      vertex 39.3206 7.17999 4
      vertex 30.3656 18.03 4
      vertex 38.5616 5 4
    endloop
  endfacet
  facet normal 0 0 1
    outer loop
      vertex 39.3206 7.17999 4
      vertex 31.0376 20.296 4
      vertex 30.3656 18.03 4
    endloop
  endfacet
  facet normal 0.607196 -0.794552 0
    outer loop
      vertex 13.878 12.382 2
      vertex 11.889 10.862 4
      vertex 11.889 10.862 2
    endloop
  endfacet
  facet normal 0.607196 -0.794552 0
    outer loop
      vertex 13.878 12.382 2
      vertex 13.878 12.382 4
      vertex 11.889 10.862 4
    endloop
  endfacet
  facet normal -0.771534 -0.636188 0
    outer loop
      vertex 19.965 5 2
      vertex 13.878 12.382 4
      vertex 13.878 12.382 2
    endloop
  endfacet
  facet normal -0.771534 -0.636188 0
    outer loop
      vertex 19.965 5 2
      vertex 19.965 5 4
      vertex 13.878 12.382 4
    endloop
  endfacet
  facet normal 0 -1 0
    outer loop
      vertex 22.535 5 2
      vertex 19.965 5 4
      vertex 19.965 5 2
    endloop
  endfacet
  facet normal 0 -1 0
    outer loop
      vertex 22.535 5 2
      vertex 22.535 5 4
      vertex 19.965 5 4
    endloop
  endfacet
  facet normal 0.761731 0.647894 0
    outer loop
      vertex 15.176 13.652 2
      vertex 22.535 5 4
      vertex 22.535 5 2
    endloop
  endfacet
  facet normal 0.761731 0.647894 -0
    outer loop
      vertex 15.176 13.652 2
      vertex 15.176 13.652 4
      vertex 22.535 5 4
    endloop
  endfacet
  facet normal 0.715187 -0.698933 0
    outer loop
      vertex 21.669 20.296 2
      vertex 15.176 13.652 4
      vertex 15.176 13.652 2
    endloop
  endfacet
  facet normal 0.715187 -0.698933 0
    outer loop
      vertex 21.669 20.296 2
      vertex 21.669 20.296 4
      vertex 15.176 13.652 4
    endloop
  endfacet
  facet normal 0 1 0
    outer loop
      vertex 19.229 20.296 2
      vertex 21.669 20.296 4
      vertex 21.669 20.296 2
    endloop
  endfacet
  facet normal 0 1 0
    outer loop
      vertex 19.229 20.296 2
      vertex 19.229 20.296 4
      vertex 21.669 20.296 4
    endloop
  endfacet
  facet normal -0.722208 0.691676 0
    outer loop
      vertex 11.889 12.632 2
      vertex 19.229 20.296 4
      vertex 19.229 20.296 2
    endloop
  endfacet
  facet normal -0.722208 0.691676 0
    outer loop
      vertex 11.889 12.632 2
      vertex 11.889 12.632 4
      vertex 19.229 20.296 4
    endloop
  endfacet
  facet normal 1 0 0
    outer loop
      vertex 11.889 20.296 2
      vertex 11.889 12.632 4
      vertex 11.889 12.632 2
    endloop
  endfacet
  facet normal 1 0 -0
    outer loop
      vertex 11.889 20.296 2
      vertex 11.889 20.296 4
      vertex 11.889 12.632 4
    endloop
  endfacet
  facet normal 0 1 0
    outer loop
      vertex 9.81799 20.296 2
      vertex 11.889 20.296 4
      vertex 11.889 20.296 2
    endloop
  endfacet
  facet normal 0 1 0
    outer loop
      vertex 9.81799 20.296 2
      vertex 9.81799 20.296 4
      vertex 11.889 20.296 4
    endloop
  endfacet
  facet normal -1 0 0
    outer loop
      vertex 9.81799 5 2
      vertex 9.81799 20.296 4
      vertex 9.81799 20.296 2
    endloop
  endfacet
  facet normal -1 0 0
    outer loop
      vertex 9.81799 5 2
      vertex 9.81799 5 4
      vertex 9.81799 20.296 4
    endloop
  endfacet
  facet normal 0 -1 0
    outer loop
      vertex 11.889 5 2
      vertex 9.81799 5 4
      vertex 9.81799 5 2
    endloop
  endfacet
  facet normal 0 -1 0
    outer loop
      vertex 11.889 5 2
      vertex 11.889 5 4
      vertex 9.81799 5 4
    endloop
  endfacet
  facet normal 1 0 0
    outer loop
      vertex 11.889 10.862 2
      vertex 11.889 5 4
      vertex 11.889 5 2
    endloop
  endfacet
  facet normal 1 0 -0
    outer loop
      vertex 11.889 10.862 2
      vertex 11.889 10.862 4
      vertex 11.889 5 4
    endloop
  endfacet
  facet normal 0.999557 0.0297558 0
    outer loop
      vertex 30.4196 16.977 2
      vertex 30.4736 15.163 4
      vertex 30.4736 15.163 2
    endloop
  endfacet
  facet normal 0.999557 0.0297558 -0
    outer loop
      vertex 30.4196 16.977 2
      vertex 30.4196 16.977 4
      vertex 30.4736 15.163 4
    endloop
  endfacet
  facet normal 0.998688 0.0512151 0
    outer loop
      vertex 30.3656 18.03 2
      vertex 30.4196 16.977 4
      vertex 30.4196 16.977 2
    endloop
  endfacet
  facet normal 0.998688 0.0512151 -0
    outer loop
      vertex 30.3656 18.03 2
      vertex 30.3656 18.03 4
      vertex 30.4196 16.977 4
    endloop
  endfacet
  facet normal -0.846469 -0.532438 0
    outer loop
      vertex 38.5616 5 2
      vertex 30.3656 18.03 4
      vertex 30.3656 18.03 2
    endloop
  endfacet
  facet normal -0.846469 -0.532438 0
    outer loop
      vertex 38.5616 5 2
      vertex 38.5616 5 4
      vertex 30.3656 18.03 4
    endloop
  endfacet
  facet normal 0 -1 0
    outer loop
      vertex 41.0556 5 2
      vertex 38.5616 5 4
      vertex 38.5616 5 2
    endloop
  endfacet
  facet normal 0 -1 0
    outer loop
      vertex 41.0556 5 2
      vertex 41.0556 5 4
      vertex 38.5616 5 4
    endloop
  endfacet
  facet normal 1 0 0
    outer loop
      vertex 41.0556 20.296 2
      vertex 41.0556 5 4
      vertex 41.0556 5 2
    endloop
  endfacet
  facet normal 1 0 -0
    outer loop
      vertex 41.0556 20.296 2
      vertex 41.0556 20.296 4
      vertex 41.0556 5 4
    endloop
  endfacet
  facet normal 0 1 0
    outer loop
      vertex 39.1906 20.296 2
      vertex 41.0556 20.296 4
      vertex 41.0556 20.296 2
    endloop
  endfacet
  facet normal 0 1 0
    outer loop
      vertex 39.1906 20.296 2
      vertex 39.1906 20.296 4
      vertex 41.0556 20.296 4
    endloop
  endfacet
  facet normal -1 0 0
    outer loop
      vertex 39.1906 10.264 2
      vertex 39.1906 20.296 4
      vertex 39.1906 20.296 2
    endloop
  endfacet
  facet normal -1 0 0
    outer loop
      vertex 39.1906 10.264 2
      vertex 39.1906 10.264 4
      vertex 39.1906 20.296 4
    endloop
  endfacet
  facet normal -0.999823 -0.0188226 0
    outer loop
      vertex 39.205 9.49643 2
      vertex 39.1906 10.264 4
      vertex 39.1906 10.264 2
    endloop
  endfacet
  facet normal -0.999823 -0.0188226 0
    outer loop
      vertex 39.205 9.49643 2
      vertex 39.205 9.49643 4
      vertex 39.1906 10.264 4
    endloop
  endfacet
  facet normal -0.999113 -0.0421172 0
    outer loop
      vertex 39.2483 8.46843 2
      vertex 39.205 9.49643 4
      vertex 39.205 9.49643 2
    endloop
  endfacet
  facet normal -0.999113 -0.0421172 0
    outer loop
      vertex 39.2483 8.46843 2
      vertex 39.2483 8.46843 4
      vertex 39.205 9.49643 4
    endloop
  endfacet
  facet normal -0.998433 -0.0559645 0
    outer loop
      vertex 39.3206 7.17999 2
      vertex 39.2483 8.46843 4
      vertex 39.2483 8.46843 2
    endloop
  endfacet
  facet normal -0.998433 -0.0559645 0
    outer loop
      vertex 39.3206 7.17999 2
      vertex 39.3206 7.17999 4
      vertex 39.2483 8.46843 4
    endloop
  endfacet
  facet normal 0.845512 0.533957 0
    outer loop
      vertex 31.0376 20.296 2
      vertex 39.3206 7.17999 4
      vertex 39.3206 7.17999 2
    endloop
  endfacet
  facet normal 0.845512 0.533957 -0
    outer loop
      vertex 31.0376 20.296 2
      vertex 31.0376 20.296 4
      vertex 39.3206 7.17999 4
    endloop
  endfacet
  facet normal 0 1 0
    outer loop
      vertex 28.6306 20.296 2
      vertex 31.0376 20.296 4
      vertex 31.0376 20.296 2
    endloop
  endfacet
  facet normal 0 1 0
    outer loop
      vertex 28.6306 20.296 2
      vertex 28.6306 20.296 4
      vertex 31.0376 20.296 4
    endloop
  endfacet
  facet normal -1 0 0
    outer loop
      vertex 28.6306 5 2
      vertex 28.6306 20.296 4
      vertex 28.6306 20.296 2
    endloop
  endfacet
  facet normal -1 0 0
    outer loop
      vertex 28.6306 5 2
      vertex 28.6306 5 4
      vertex 28.6306 20.296 4
    endloop
  endfacet
  facet normal 0 -1 0
    outer loop
      vertex 30.4736 5 2
      vertex 28.6306 5 4
      vertex 28.6306 5 2
    endloop
  endfacet
  facet normal 0 -1 0
    outer loop
      vertex 30.4736 5 2
      vertex 30.4736 5 4
      vertex 28.6306 5 4
    endloop
  endfacet
  facet normal 1 0 0
    outer loop
      vertex 30.4736 15.163 2
      vertex 30.4736 5 4
      vertex 30.4736 5 2
    endloop
  endfacet
  facet normal 1 0 -0
    outer loop
      vertex 30.4736 15.163 2
      vertex 30.4736 15.163 4
      vertex 30.4736 5 4
    endloop
  endfacet
endsolid OpenSCAD_Model
