solid OpenSCAD_Model
  facet normal 0 0 -1
    outer loop
      vertex 38.1819 7.6221 2
      vertex 35.9481 7.91533 2
      vertex 37.205 9.672 2
    endloop
  endfacet
  facet normal -0 0 -1
    outer loop
      vertex 37.2965 6.6241 2
      vertex 36.241 5.83499 2
      vertex 35.9481 7.91533 2
    endloop
  endfacet
  facet normal 0 0 -1
    outer loop
      vertex 37.2965 6.6241 2
      vertex 35.9481 7.91533 2
      vertex 38.1819 7.6221 2
    endloop
  endfacet
  facet normal 0 0 -1
    outer loop
      vertex 37.205 9.672 2
      vertex 38.897 8.82899 2
      vertex 38.1819 7.6221 2
    endloop
  endfacet
  facet normal 0 0 -1
    outer loop
      vertex 33.717 4.92212 2
      vertex 34.3361 6.86133 2
      vertex 35.04 5.26443 2
    endloop
  endfacet
  facet normal 0 0 -1
    outer loop
      vertex 33.717 4.92212 2
      vertex 32.369 6.50999 2
      vertex 34.3361 6.86133 2
    endloop
  endfacet
  facet normal 0 0 -1
    outer loop
      vertex 34.3361 6.86133 2
      vertex 36.241 5.83499 2
      vertex 35.04 5.26443 2
    endloop
  endfacet
  facet normal 0 -0 -1
    outer loop
      vertex 35.9481 7.91533 2
      vertex 36.241 5.83499 2
      vertex 34.3361 6.86133 2
    endloop
  endfacet
  facet normal -0 0 -1
    outer loop
      vertex 33.717 4.92212 2
      vertex 32.272 4.80801 2
      vertex 32.369 6.50999 2
    endloop
  endfacet
  facet normal -0 0 -1
    outer loop
      vertex 32.369 6.50999 2
      vertex 30.7988 4.91434 2
      vertex 30.8103 6.6991 2
    endloop
  endfacet
  facet normal 0 0 -1
    outer loop
      vertex 28.269 5.765 2
      vertex 27.2323 6.49432 2
      vertex 29.4823 7.26643 2
    endloop
  endfacet
  facet normal 0 0 -1
    outer loop
      vertex 25.695 8.50099 2
      vertex 27.5672 9.46843 2
      vertex 26.3743 7.40633 2
    endloop
  endfacet
  facet normal 0 0 -1
    outer loop
      vertex 25.695 8.50099 2
      vertex 25.2033 9.75966 2
      vertex 27.5672 9.46843 2
    endloop
  endfacet
  facet normal 0 0 -1
    outer loop
      vertex 25.2033 9.75966 2
      vertex 24.9083 11.1637 2
      vertex 27.0765 10.9684 2
    endloop
  endfacet
  facet normal 0 0 -1
    outer loop
      vertex 24.9083 11.1637 2
      vertex 24.81 12.713 2
      vertex 26.913 12.712 2
    endloop
  endfacet
  facet normal 0 0 -1
    outer loop
      vertex 24.81 12.713 2
      vertex 25.0296 14.9669 2
      vertex 27.07 14.466 2
    endloop
  endfacet
  facet normal 0 0 -1
    outer loop
      vertex 25.0296 14.9669 2
      vertex 25.6886 16.8699 2
      vertex 27.541 15.952 2
    endloop
  endfacet
  facet normal 0 0 -1
    outer loop
      vertex 27.541 15.952 2
      vertex 26.787 18.422 2
      vertex 28.326 17.17 2
    endloop
  endfacet
  facet normal 0 0 -1
    outer loop
      vertex 28.326 17.17 2
      vertex 28.2739 19.5698 2
      vertex 29.3935 18.0733 2
    endloop
  endfacet
  facet normal 0 0 -1
    outer loop
      vertex 29.3935 18.0733 2
      vertex 28.2739 19.5698 2
      vertex 30.0985 20.2584 2
    endloop
  endfacet
  facet normal 0 0 -1
    outer loop
      vertex 30.7122 18.6153 2
      vertex 32.261 20.488 2
      vertex 32.282 18.796 2
    endloop
  endfacet
  facet normal 0 -0 -1
    outer loop
      vertex 33.801 20.3824 2
      vertex 34.246 18.4849 2
      vertex 33.313 18.7182 2
    endloop
  endfacet
  facet normal 0 0 -1
    outer loop
      vertex 35.1623 20.0658 2
      vertex 35.081 18.096 2
      vertex 34.246 18.4849 2
    endloop
  endfacet
  facet normal 0 0 -1
    outer loop
      vertex 36.345 19.538 2
      vertex 35.7952 17.56 2
      vertex 35.081 18.096 2
    endloop
  endfacet
  facet normal 0 0 -1
    outer loop
      vertex 37.3418 18.8027 2
      vertex 36.3659 16.8853 2
      vertex 35.7952 17.56 2
    endloop
  endfacet
  facet normal 0 -0 -1
    outer loop
      vertex 37.3418 18.8027 2
      vertex 38.1454 17.8633 2
      vertex 36.3659 16.8853 2
    endloop
  endfacet
  facet normal 0 0 -1
    outer loop
      vertex 36.3659 16.8853 2
      vertex 38.1454 17.8633 2
      vertex 36.793 16.072 2
    endloop
  endfacet
  facet normal 0 0 -1
    outer loop
      vertex 36.793 16.072 2
      vertex 38.1454 17.8633 2
      vertex 38.756 16.72 2
    endloop
  endfacet
  facet normal 0 -0 -1
    outer loop
      vertex 36.345 19.538 2
      vertex 37.3418 18.8027 2
      vertex 35.7952 17.56 2
    endloop
  endfacet
  facet normal 0 -0 -1
    outer loop
      vertex 35.1623 20.0658 2
      vertex 36.345 19.538 2
      vertex 35.081 18.096 2
    endloop
  endfacet
  facet normal 0 0 -1
    outer loop
      vertex 33.801 20.3824 2
      vertex 35.1623 20.0658 2
      vertex 34.246 18.4849 2
    endloop
  endfacet
  facet normal 0 0 -1
    outer loop
      vertex 32.261 20.488 2
      vertex 33.801 20.3824 2
      vertex 33.313 18.7182 2
    endloop
  endfacet
  facet normal 0 0 -1
    outer loop
      vertex 32.282 18.796 2
      vertex 32.261 20.488 2
      vertex 33.313 18.7182 2
    endloop
  endfacet
  facet normal 0 0 -1
    outer loop
      vertex 30.7122 18.6153 2
      vertex 30.0985 20.2584 2
      vertex 32.261 20.488 2
    endloop
  endfacet
  facet normal -0 0 -1
    outer loop
      vertex 30.7122 18.6153 2
      vertex 29.3935 18.0733 2
      vertex 30.0985 20.2584 2
    endloop
  endfacet
  facet normal 0 0 -1
    outer loop
      vertex 28.326 17.17 2
      vertex 26.787 18.422 2
      vertex 28.2739 19.5698 2
    endloop
  endfacet
  facet normal 0 0 -1
    outer loop
      vertex 27.541 15.952 2
      vertex 25.6886 16.8699 2
      vertex 26.787 18.422 2
    endloop
  endfacet
  facet normal 0 0 -1
    outer loop
      vertex 27.07 14.466 2
      vertex 25.0296 14.9669 2
      vertex 27.541 15.952 2
    endloop
  endfacet
  facet normal 0 0 -1
    outer loop
      vertex 26.913 12.712 2
      vertex 24.81 12.713 2
      vertex 27.07 14.466 2
    endloop
  endfacet
  facet normal 0 0 -1
    outer loop
      vertex 27.0765 10.9684 2
      vertex 24.9083 11.1637 2
      vertex 26.913 12.712 2
    endloop
  endfacet
  facet normal 0 0 -1
    outer loop
      vertex 27.5672 9.46843 2
      vertex 25.2033 9.75966 2
      vertex 27.0765 10.9684 2
    endloop
  endfacet
  facet normal 0 0 -1
    outer loop
      vertex 26.3743 7.40633 2
      vertex 27.5672 9.46843 2
      vertex 28.385 8.21199 2
    endloop
  endfacet
  facet normal 0 0 -1
    outer loop
      vertex 27.2323 6.49432 2
      vertex 26.3743 7.40633 2
      vertex 28.385 8.21199 2
    endloop
  endfacet
  facet normal -0 0 -1
    outer loop
      vertex 29.4823 7.26643 2
      vertex 27.2323 6.49432 2
      vertex 28.385 8.21199 2
    endloop
  endfacet
  facet normal 0 0 -1
    outer loop
      vertex 29.4644 5.23332 2
      vertex 28.269 5.765 2
      vertex 29.4823 7.26643 2
    endloop
  endfacet
  facet normal -0 0 -1
    outer loop
      vertex 30.8103 6.6991 2
      vertex 29.4644 5.23332 2
      vertex 29.4823 7.26643 2
    endloop
  endfacet
  facet normal 0 0 -1
    outer loop
      vertex 30.8103 6.6991 2
      vertex 30.7988 4.91434 2
      vertex 29.4644 5.23332 2
    endloop
  endfacet
  facet normal 0 0 -1
    outer loop
      vertex 32.369 6.50999 2
      vertex 32.272 4.80801 2
      vertex 30.7988 4.91434 2
    endloop
  endfacet
  facet normal -0 -0 -1
    outer loop
      vertex 19.615 6.69199 2
      vertex 19.615 5 2
      vertex 11.893 6.69199 2
    endloop
  endfacet
  facet normal 0 -0 -1
    outer loop
      vertex 11.893 6.69199 2
      vertex 19.615 5 2
      vertex 9.82199 5 2
    endloop
  endfacet
  facet normal -0 -0 -1
    outer loop
      vertex 11.893 20.296 2
      vertex 11.893 6.69199 2
      vertex 9.82199 20.296 2
    endloop
  endfacet
  facet normal 0 0 -1
    outer loop
      vertex 9.82199 20.296 2
      vertex 11.893 6.69199 2
      vertex 9.82199 5 2
    endloop
  endfacet
  facet normal 0 0 1
    outer loop
      vertex 37.205 9.672 4
      vertex 35.9481 7.91533 4
      vertex 38.1819 7.6221 4
    endloop
  endfacet
  facet normal 0 0 1
    outer loop
      vertex 35.9481 7.91533 4
      vertex 36.241 5.83499 4
      vertex 37.2965 6.6241 4
    endloop
  endfacet
  facet normal 0 0 1
    outer loop
      vertex 38.1819 7.6221 4
      vertex 35.9481 7.91533 4
      vertex 37.2965 6.6241 4
    endloop
  endfacet
  facet normal 0 -0 1
    outer loop
      vertex 38.1819 7.6221 4
      vertex 38.897 8.82899 4
      vertex 37.205 9.672 4
    endloop
  endfacet
  facet normal 0 0 1
    outer loop
      vertex 35.04 5.26443 4
      vertex 34.3361 6.86133 4
      vertex 33.717 4.92212 4
    endloop
  endfacet
  facet normal 0 0 1
    outer loop
      vertex 34.3361 6.86133 4
      vertex 32.369 6.50999 4
      vertex 33.717 4.92212 4
    endloop
  endfacet
  facet normal 0 -0 1
    outer loop
      vertex 35.04 5.26443 4
      vertex 36.241 5.83499 4
      vertex 34.3361 6.86133 4
    endloop
  endfacet
  facet normal -0 0 1
    outer loop
      vertex 34.3361 6.86133 4
      vertex 36.241 5.83499 4
      vertex 35.9481 7.91533 4
    endloop
  endfacet
  facet normal 0 0 1
    outer loop
      vertex 32.369 6.50999 4
      vertex 32.272 4.80801 4
      vertex 33.717 4.92212 4
    endloop
  endfacet
  facet normal 0 0 1
    outer loop
      vertex 30.8103 6.6991 4
      vertex 30.7988 4.91434 4
      vertex 32.369 6.50999 4
    endloop
  endfacet
  facet normal 0 0 1
    outer loop
      vertex 29.4823 7.26643 4
      vertex 27.2323 6.49432 4
      vertex 28.269 5.765 4
    endloop
  endfacet
  facet normal 0 -0 1
    outer loop
      vertex 26.3743 7.40633 4
      vertex 27.5672 9.46843 4
      vertex 25.695 8.50099 4
    endloop
  endfacet
  facet normal 0 0 1
    outer loop
      vertex 27.5672 9.46843 4
      vertex 25.2033 9.75966 4
      vertex 25.695 8.50099 4
    endloop
  endfacet
  facet normal 0 0 1
    outer loop
      vertex 27.0765 10.9684 4
      vertex 24.9083 11.1637 4
      vertex 25.2033 9.75966 4
    endloop
  endfacet
  facet normal 0 0 1
    outer loop
      vertex 26.913 12.712 4
      vertex 24.81 12.713 4
      vertex 24.9083 11.1637 4
    endloop
  endfacet
  facet normal 0 0 1
    outer loop
      vertex 27.07 14.466 4
      vertex 25.0296 14.9669 4
      vertex 24.81 12.713 4
    endloop
  endfacet
  facet normal 0 0 1
    outer loop
      vertex 27.541 15.952 4
      vertex 25.6886 16.8699 4
      vertex 25.0296 14.9669 4
    endloop
  endfacet
  facet normal 0 0 1
    outer loop
      vertex 28.326 17.17 4
      vertex 26.787 18.422 4
      vertex 27.541 15.952 4
    endloop
  endfacet
  facet normal 0 0 1
    outer loop
      vertex 29.3935 18.0733 4
      vertex 28.2739 19.5698 4
      vertex 28.326 17.17 4
    endloop
  endfacet
  facet normal 0 0 1
    outer loop
      vertex 30.0985 20.2584 4
      vertex 28.2739 19.5698 4
      vertex 29.3935 18.0733 4
    endloop
  endfacet
  facet normal 0 0 1
    outer loop
      vertex 32.282 18.796 4
      vertex 32.261 20.488 4
      vertex 30.7122 18.6153 4
    endloop
  endfacet
  facet normal -0 0 1
    outer loop
      vertex 33.313 18.7182 4
      vertex 34.246 18.4849 4
      vertex 33.801 20.3824 4
    endloop
  endfacet
  facet normal -0 0 1
    outer loop
      vertex 34.246 18.4849 4
      vertex 35.081 18.096 4
      vertex 35.1623 20.0658 4
    endloop
  endfacet
  facet normal -0 0 1
    outer loop
      vertex 35.081 18.096 4
      vertex 35.7952 17.56 4
      vertex 36.345 19.538 4
    endloop
  endfacet
  facet normal -0 0 1
    outer loop
      vertex 35.7952 17.56 4
      vertex 36.3659 16.8853 4
      vertex 37.3418 18.8027 4
    endloop
  endfacet
  facet normal 0 0 1
    outer loop
      vertex 36.3659 16.8853 4
      vertex 38.1454 17.8633 4
      vertex 37.3418 18.8027 4
    endloop
  endfacet
  facet normal 0 -0 1
    outer loop
      vertex 36.793 16.072 4
      vertex 38.1454 17.8633 4
      vertex 36.3659 16.8853 4
    endloop
  endfacet
  facet normal 0 0 1
    outer loop
      vertex 38.756 16.72 4
      vertex 38.1454 17.8633 4
      vertex 36.793 16.072 4
    endloop
  endfacet
  facet normal 0 0 1
    outer loop
      vertex 35.7952 17.56 4
      vertex 37.3418 18.8027 4
      vertex 36.345 19.538 4
    endloop
  endfacet
  facet normal 0 0 1
    outer loop
      vertex 35.081 18.096 4
      vertex 36.345 19.538 4
      vertex 35.1623 20.0658 4
    endloop
  endfacet
  facet normal 0 -0 1
    outer loop
      vertex 34.246 18.4849 4
      vertex 35.1623 20.0658 4
      vertex 33.801 20.3824 4
    endloop
  endfacet
  facet normal 0 -0 1
    outer loop
      vertex 33.313 18.7182 4
      vertex 33.801 20.3824 4
      vertex 32.261 20.488 4
    endloop
  endfacet
  facet normal 0 0 1
    outer loop
      vertex 33.313 18.7182 4
      vertex 32.261 20.488 4
      vertex 32.282 18.796 4
    endloop
  endfacet
  facet normal 0 0 1
    outer loop
      vertex 32.261 20.488 4
      vertex 30.0985 20.2584 4
      vertex 30.7122 18.6153 4
    endloop
  endfacet
  facet normal 0 0 1
    outer loop
      vertex 30.0985 20.2584 4
      vertex 29.3935 18.0733 4
      vertex 30.7122 18.6153 4
    endloop
  endfacet
  facet normal 0 0 1
    outer loop
      vertex 28.2739 19.5698 4
      vertex 26.787 18.422 4
      vertex 28.326 17.17 4
    endloop
  endfacet
  facet normal 0 0 1
    outer loop
      vertex 26.787 18.422 4
      vertex 25.6886 16.8699 4
      vertex 27.541 15.952 4
    endloop
  endfacet
  facet normal 0 0 1
    outer loop
      vertex 27.541 15.952 4
      vertex 25.0296 14.9669 4
      vertex 27.07 14.466 4
    endloop
  endfacet
  facet normal 0 0 1
    outer loop
      vertex 27.07 14.466 4
      vertex 24.81 12.713 4
      vertex 26.913 12.712 4
    endloop
  endfacet
  facet normal 0 0 1
    outer loop
      vertex 26.913 12.712 4
      vertex 24.9083 11.1637 4
      vertex 27.0765 10.9684 4
    endloop
  endfacet
  facet normal 0 0 1
    outer loop
      vertex 27.0765 10.9684 4
      vertex 25.2033 9.75966 4
      vertex 27.5672 9.46843 4
    endloop
  endfacet
  facet normal 0 0 1
    outer loop
      vertex 28.385 8.21199 4
      vertex 27.5672 9.46843 4
      vertex 26.3743 7.40633 4
    endloop
  endfacet
  facet normal 0 0 1
    outer loop
      vertex 28.385 8.21199 4
      vertex 26.3743 7.40633 4
      vertex 27.2323 6.49432 4
    endloop
  endfacet
  facet normal 0 0 1
    outer loop
      vertex 28.385 8.21199 4
      vertex 27.2323 6.49432 4
      vertex 29.4823 7.26643 4
    endloop
  endfacet
  facet normal 0 0 1
    outer loop
      vertex 29.4823 7.26643 4
      vertex 28.269 5.765 4
      vertex 29.4644 5.23332 4
    endloop
  endfacet
  facet normal 0 0 1
    outer loop
      vertex 29.4823 7.26643 4
      vertex 29.4644 5.23332 4
      vertex 30.8103 6.6991 4
    endloop
  endfacet
  facet normal -0 0 1
    outer loop
      vertex 29.4644 5.23332 4
      vertex 30.7988 4.91434 4
      vertex 30.8103 6.6991 4
    endloop
  endfacet
  facet normal -0 0 1
    outer loop
      vertex 30.7988 4.91434 4
      vertex 32.272 4.80801 4
      vertex 32.369 6.50999 4
    endloop
  endfacet
  facet normal -0 0 1
    outer loop
      vertex 11.893 6.69199 4
      vertex 19.615 5 4
      vertex 19.615 6.69199 4
    endloop
  endfacet
  facet normal 0 0 1
    outer loop
      vertex 9.82199 5 4
      vertex 19.615 5 4
      vertex 11.893 6.69199 4
    endloop
  endfacet
  facet normal -0 0 1
    outer loop
      vertex 9.82199 20.296 4
      vertex 11.893 6.69199 4
      vertex 11.893 20.296 4
    endloop
  endfacet
  facet normal 0 0 1
    outer loop
      vertex 9.82199 5 4
      vertex 11.893 6.69199 4
      vertex 9.82199 20.296 4
    endloop
  endfacet
  facet normal 0.250493 -0.968118 0
    outer loop
      vertex 35.04 5.26443 2
      vertex 33.717 4.92212 4
      vertex 33.717 4.92212 2
    endloop
  endfacet
  facet normal 0.250493 -0.968118 0
    outer loop
      vertex 35.04 5.26443 2
      vertex 35.04 5.26443 4
      vertex 33.717 4.92212 4
    endloop
  endfacet
  facet normal 0.42911 -0.903252 0
    outer loop
      vertex 36.241 5.83499 2
      vertex 35.04 5.26443 4
      vertex 35.04 5.26443 2
    endloop
  endfacet
  facet normal 0.42911 -0.903252 0
    outer loop
      vertex 36.241 5.83499 2
      vertex 36.241 5.83499 4
      vertex 35.04 5.26443 4
    endloop
  endfacet
  facet normal 0.598756 -0.800931 0
    outer loop
      vertex 37.2965 6.6241 2
      vertex 36.241 5.83499 4
      vertex 36.241 5.83499 2
    endloop
  endfacet
  facet normal 0.598756 -0.800931 0
    outer loop
      vertex 37.2965 6.6241 2
      vertex 37.2965 6.6241 4
      vertex 36.241 5.83499 4
    endloop
  endfacet
  facet normal 0.748072 -0.663617 0
    outer loop
      vertex 38.1819 7.6221 2
      vertex 37.2965 6.6241 4
      vertex 37.2965 6.6241 2
    endloop
  endfacet
  facet normal 0.748072 -0.663617 0
    outer loop
      vertex 38.1819 7.6221 2
      vertex 38.1819 7.6221 4
      vertex 37.2965 6.6241 4
    endloop
  endfacet
  facet normal 0.860316 -0.509761 0
    outer loop
      vertex 38.897 8.82899 2
      vertex 38.1819 7.6221 4
      vertex 38.1819 7.6221 2
    endloop
  endfacet
  facet normal 0.860316 -0.509761 0
    outer loop
      vertex 38.897 8.82899 2
      vertex 38.897 8.82899 4
      vertex 38.1819 7.6221 4
    endloop
  endfacet
  facet normal 0.445944 0.895061 0
    outer loop
      vertex 37.205 9.672 2
      vertex 38.897 8.82899 4
      vertex 38.897 8.82899 2
    endloop
  endfacet
  facet normal 0.445944 0.895061 -0
    outer loop
      vertex 37.205 9.672 2
      vertex 37.205 9.672 4
      vertex 38.897 8.82899 4
    endloop
  endfacet
  facet normal -0.813269 0.581888 0
    outer loop
      vertex 35.9481 7.91533 2
      vertex 37.205 9.672 4
      vertex 37.205 9.672 2
    endloop
  endfacet
  facet normal -0.813269 0.581888 0
    outer loop
      vertex 35.9481 7.91533 2
      vertex 35.9481 7.91533 4
      vertex 37.205 9.672 4
    endloop
  endfacet
  facet normal -0.54725 0.836969 0
    outer loop
      vertex 34.3361 6.86133 2
      vertex 35.9481 7.91533 4
      vertex 35.9481 7.91533 2
    endloop
  endfacet
  facet normal -0.54725 0.836969 0
    outer loop
      vertex 34.3361 6.86133 2
      vertex 34.3361 6.86133 4
      vertex 35.9481 7.91533 4
    endloop
  endfacet
  facet normal -0.175821 0.984422 0
    outer loop
      vertex 32.369 6.50999 2
      vertex 34.3361 6.86133 4
      vertex 34.3361 6.86133 2
    endloop
  endfacet
  facet normal -0.175821 0.984422 0
    outer loop
      vertex 32.369 6.50999 2
      vertex 32.369 6.50999 4
      vertex 34.3361 6.86133 4
    endloop
  endfacet
  facet normal 0.12044 0.992721 0
    outer loop
      vertex 30.8103 6.6991 2
      vertex 32.369 6.50999 4
      vertex 32.369 6.50999 2
    endloop
  endfacet
  facet normal 0.12044 0.992721 -0
    outer loop
      vertex 30.8103 6.6991 2
      vertex 30.8103 6.6991 4
      vertex 32.369 6.50999 4
    endloop
  endfacet
  facet normal 0.392862 0.919597 0
    outer loop
      vertex 29.4823 7.26643 2
      vertex 30.8103 6.6991 4
      vertex 30.8103 6.6991 2
    endloop
  endfacet
  facet normal 0.392862 0.919597 -0
    outer loop
      vertex 29.4823 7.26643 2
      vertex 29.4823 7.26643 4
      vertex 30.8103 6.6991 4
    endloop
  endfacet
  facet normal 0.652777 0.75755 0
    outer loop
      vertex 28.385 8.21199 2
      vertex 29.4823 7.26643 4
      vertex 29.4823 7.26643 2
    endloop
  endfacet
  facet normal 0.652777 0.75755 -0
    outer loop
      vertex 28.385 8.21199 2
      vertex 28.385 8.21199 4
      vertex 29.4823 7.26643 4
    endloop
  endfacet
  facet normal 0.83811 0.545501 0
    outer loop
      vertex 27.5672 9.46843 2
      vertex 28.385 8.21199 4
      vertex 28.385 8.21199 2
    endloop
  endfacet
  facet normal 0.83811 0.545501 -0
    outer loop
      vertex 27.5672 9.46843 2
      vertex 27.5672 9.46843 4
      vertex 28.385 8.21199 4
    endloop
  endfacet
  facet normal 0.950441 0.310906 0
    outer loop
      vertex 27.0765 10.9684 2
      vertex 27.5672 9.46843 4
      vertex 27.5672 9.46843 2
    endloop
  endfacet
  facet normal 0.950441 0.310906 -0
    outer loop
      vertex 27.0765 10.9684 2
      vertex 27.0765 10.9684 4
      vertex 27.5672 9.46843 4
    endloop
  endfacet
  facet normal 0.99563 0.0933888 0
    outer loop
      vertex 26.913 12.712 2
      vertex 27.0765 10.9684 4
      vertex 27.0765 10.9684 2
    endloop
  endfacet
  facet normal 0.99563 0.0933888 -0
    outer loop
      vertex 26.913 12.712 2
      vertex 26.913 12.712 4
      vertex 27.0765 10.9684 4
    endloop
  endfacet
  facet normal 0.996018 -0.0891521 0
    outer loop
      vertex 27.07 14.466 2
      vertex 26.913 12.712 4
      vertex 26.913 12.712 2
    endloop
  endfacet
  facet normal 0.996018 -0.0891521 0
    outer loop
      vertex 27.07 14.466 2
      vertex 27.07 14.466 4
      vertex 26.913 12.712 4
    endloop
  endfacet
  facet normal 0.953264 -0.302139 0
    outer loop
      vertex 27.541 15.952 2
      vertex 27.07 14.466 4
      vertex 27.07 14.466 2
    endloop
  endfacet
  facet normal 0.953264 -0.302139 0
    outer loop
      vertex 27.541 15.952 2
      vertex 27.541 15.952 4
      vertex 27.07 14.466 4
    endloop
  endfacet
  facet normal 0.840549 -0.541735 0
    outer loop
      vertex 28.326 17.17 2
      vertex 27.541 15.952 4
      vertex 27.541 15.952 2
    endloop
  endfacet
  facet normal 0.840549 -0.541735 0
    outer loop
      vertex 28.326 17.17 2
      vertex 28.326 17.17 4
      vertex 27.541 15.952 4
    endloop
  endfacet
  facet normal 0.645946 -0.763383 0
    outer loop
      vertex 29.3935 18.0733 2
      vertex 28.326 17.17 4
      vertex 28.326 17.17 2
    endloop
  endfacet
  facet normal 0.645946 -0.763383 0
    outer loop
      vertex 29.3935 18.0733 2
      vertex 29.3935 18.0733 4
      vertex 28.326 17.17 4
    endloop
  endfacet
  facet normal 0.380167 -0.924918 0
    outer loop
      vertex 30.7122 18.6153 2
      vertex 29.3935 18.0733 4
      vertex 29.3935 18.0733 2
    endloop
  endfacet
  facet normal 0.380167 -0.924918 0
    outer loop
      vertex 30.7122 18.6153 2
      vertex 30.7122 18.6153 4
      vertex 29.3935 18.0733 4
    endloop
  endfacet
  facet normal 0.114334 -0.993442 0
    outer loop
      vertex 32.282 18.796 2
      vertex 30.7122 18.6153 4
      vertex 30.7122 18.6153 2
    endloop
  endfacet
  facet normal 0.114334 -0.993442 0
    outer loop
      vertex 32.282 18.796 2
      vertex 32.282 18.796 4
      vertex 30.7122 18.6153 4
    endloop
  endfacet
  facet normal -0.0752214 -0.997167 0
    outer loop
      vertex 33.313 18.7182 2
      vertex 32.282 18.796 4
      vertex 32.282 18.796 2
    endloop
  endfacet
  facet normal -0.0752214 -0.997167 0
    outer loop
      vertex 33.313 18.7182 2
      vertex 33.313 18.7182 4
      vertex 32.282 18.796 4
    endloop
  endfacet
  facet normal -0.242621 -0.970121 0
    outer loop
      vertex 34.246 18.4849 2
      vertex 33.313 18.7182 4
      vertex 33.313 18.7182 2
    endloop
  endfacet
  facet normal -0.242621 -0.970121 0
    outer loop
      vertex 34.246 18.4849 2
      vertex 34.246 18.4849 4
      vertex 33.313 18.7182 4
    endloop
  endfacet
  facet normal -0.422186 -0.906509 0
    outer loop
      vertex 35.081 18.096 2
      vertex 34.246 18.4849 4
      vertex 34.246 18.4849 2
    endloop
  endfacet
  facet normal -0.422186 -0.906509 0
    outer loop
      vertex 35.081 18.096 2
      vertex 35.081 18.096 4
      vertex 34.246 18.4849 4
    endloop
  endfacet
  facet normal -0.600238 -0.799822 0
    outer loop
      vertex 35.7952 17.56 2
      vertex 35.081 18.096 4
      vertex 35.081 18.096 2
    endloop
  endfacet
  facet normal -0.600238 -0.799822 0
    outer loop
      vertex 35.7952 17.56 2
      vertex 35.7952 17.56 4
      vertex 35.081 18.096 4
    endloop
  endfacet
  facet normal -0.763503 -0.645804 0
    outer loop
      vertex 36.3659 16.8853 2
      vertex 35.7952 17.56 4
      vertex 35.7952 17.56 2
    endloop
  endfacet
  facet normal -0.763503 -0.645804 0
    outer loop
      vertex 36.3659 16.8853 2
      vertex 36.3659 16.8853 4
      vertex 35.7952 17.56 4
    endloop
  endfacet
  facet normal -0.885351 -0.464924 0
    outer loop
      vertex 36.793 16.072 2
      vertex 36.3659 16.8853 4
      vertex 36.3659 16.8853 2
    endloop
  endfacet
  facet normal -0.885351 -0.464924 0
    outer loop
      vertex 36.793 16.072 2
      vertex 36.793 16.072 4
      vertex 36.3659 16.8853 4
    endloop
  endfacet
  facet normal 0.313467 -0.949599 0
    outer loop
      vertex 38.756 16.72 2
      vertex 36.793 16.072 4
      vertex 36.793 16.072 2
    endloop
  endfacet
  facet normal 0.313467 -0.949599 0
    outer loop
      vertex 38.756 16.72 2
      vertex 38.756 16.72 4
      vertex 36.793 16.072 4
    endloop
  endfacet
  facet normal 0.882107 0.471049 0
    outer loop
      vertex 38.1454 17.8633 2
      vertex 38.756 16.72 4
      vertex 38.756 16.72 2
    endloop
  endfacet
  facet normal 0.882107 0.471049 -0
    outer loop
      vertex 38.1454 17.8633 2
      vertex 38.1454 17.8633 4
      vertex 38.756 16.72 4
    endloop
  endfacet
  facet normal 0.759846 0.650103 0
    outer loop
      vertex 37.3418 18.8027 2
      vertex 38.1454 17.8633 4
      vertex 38.1454 17.8633 2
    endloop
  endfacet
  facet normal 0.759846 0.650103 -0
    outer loop
      vertex 37.3418 18.8027 2
      vertex 37.3418 18.8027 4
      vertex 38.1454 17.8633 4
    endloop
  endfacet
  facet normal 0.593652 0.804722 0
    outer loop
      vertex 36.345 19.538 2
      vertex 37.3418 18.8027 4
      vertex 37.3418 18.8027 2
    endloop
  endfacet
  facet normal 0.593652 0.804722 -0
    outer loop
      vertex 36.345 19.538 2
      vertex 36.345 19.538 4
      vertex 37.3418 18.8027 4
    endloop
  endfacet
  facet normal 0.40752 0.913196 0
    outer loop
      vertex 35.1623 20.0658 2
      vertex 36.345 19.538 4
      vertex 36.345 19.538 2
    endloop
  endfacet
  facet normal 0.40752 0.913196 -0
    outer loop
      vertex 35.1623 20.0658 2
      vertex 35.1623 20.0658 4
      vertex 36.345 19.538 4
    endloop
  endfacet
  facet normal 0.226566 0.973996 0
    outer loop
      vertex 33.801 20.3824 2
      vertex 35.1623 20.0658 4
      vertex 35.1623 20.0658 2
    endloop
  endfacet
  facet normal 0.226566 0.973996 -0
    outer loop
      vertex 33.801 20.3824 2
      vertex 33.801 20.3824 4
      vertex 35.1623 20.0658 4
    endloop
  endfacet
  facet normal 0.0683848 0.997659 0
    outer loop
      vertex 32.261 20.488 2
      vertex 33.801 20.3824 4
      vertex 33.801 20.3824 2
    endloop
  endfacet
  facet normal 0.0683848 0.997659 -0
    outer loop
      vertex 32.261 20.488 2
      vertex 32.261 20.488 4
      vertex 33.801 20.3824 4
    endloop
  endfacet
  facet normal -0.105561 0.994413 0
    outer loop
      vertex 30.0985 20.2584 2
      vertex 32.261 20.488 4
      vertex 32.261 20.488 2
    endloop
  endfacet
  facet normal -0.105561 0.994413 0
    outer loop
      vertex 30.0985 20.2584 2
      vertex 30.0985 20.2584 4
      vertex 32.261 20.488 4
    endloop
  endfacet
  facet normal -0.353113 0.935581 0
    outer loop
      vertex 28.2739 19.5698 2
      vertex 30.0985 20.2584 4
      vertex 30.0985 20.2584 2
    endloop
  endfacet
  facet normal -0.353113 0.935581 0
    outer loop
      vertex 28.2739 19.5698 2
      vertex 28.2739 19.5698 4
      vertex 30.0985 20.2584 4
    endloop
  endfacet
  facet normal -0.611049 0.791593 0
    outer loop
      vertex 26.787 18.422 2
      vertex 28.2739 19.5698 4
      vertex 28.2739 19.5698 2
    endloop
  endfacet
  facet normal -0.611049 0.791593 0
    outer loop
      vertex 26.787 18.422 2
      vertex 26.787 18.422 4
      vertex 28.2739 19.5698 4
    endloop
  endfacet
  facet normal -0.816293 0.577638 0
    outer loop
      vertex 25.6886 16.8699 2
      vertex 26.787 18.422 4
      vertex 26.787 18.422 2
    endloop
  endfacet
  facet normal -0.816293 0.577638 0
    outer loop
      vertex 25.6886 16.8699 2
      vertex 25.6886 16.8699 4
      vertex 26.787 18.422 4
    endloop
  endfacet
  facet normal -0.944943 0.327235 0
    outer loop
      vertex 25.0296 14.9669 2
      vertex 25.6886 16.8699 4
      vertex 25.6886 16.8699 2
    endloop
  endfacet
  facet normal -0.944943 0.327235 0
    outer loop
      vertex 25.0296 14.9669 2
      vertex 25.0296 14.9669 4
      vertex 25.6886 16.8699 4
    endloop
  endfacet
  facet normal -0.995284 0.097001 0
    outer loop
      vertex 24.81 12.713 2
      vertex 25.0296 14.9669 4
      vertex 25.0296 14.9669 2
    endloop
  endfacet
  facet normal -0.995284 0.097001 0
    outer loop
      vertex 24.81 12.713 2
      vertex 24.81 12.713 4
      vertex 25.0296 14.9669 4
    endloop
  endfacet
  facet normal -0.997992 -0.0633469 0
    outer loop
      vertex 24.9083 11.1637 2
      vertex 24.81 12.713 4
      vertex 24.81 12.713 2
    endloop
  endfacet
  facet normal -0.997992 -0.0633469 0
    outer loop
      vertex 24.9083 11.1637 2
      vertex 24.9083 11.1637 4
      vertex 24.81 12.713 4
    endloop
  endfacet
  facet normal -0.978632 -0.205622 0
    outer loop
      vertex 25.2033 9.75966 2
      vertex 24.9083 11.1637 4
      vertex 24.9083 11.1637 2
    endloop
  endfacet
  facet normal -0.978632 -0.205622 0
    outer loop
      vertex 25.2033 9.75966 2
      vertex 25.2033 9.75966 4
      vertex 24.9083 11.1637 4
    endloop
  endfacet
  facet normal -0.931457 -0.363852 0
    outer loop
      vertex 25.695 8.50099 2
      vertex 25.2033 9.75966 4
      vertex 25.2033 9.75966 2
    endloop
  endfacet
  facet normal -0.931457 -0.363852 0
    outer loop
      vertex 25.695 8.50099 2
      vertex 25.695 8.50099 4
      vertex 25.2033 9.75966 4
    endloop
  endfacet
  facet normal -0.849679 -0.527301 0
    outer loop
      vertex 26.3743 7.40633 2
      vertex 25.695 8.50099 4
      vertex 25.695 8.50099 2
    endloop
  endfacet
  facet normal -0.849679 -0.527301 0
    outer loop
      vertex 26.3743 7.40633 2
      vertex 26.3743 7.40633 4
      vertex 25.695 8.50099 4
    endloop
  endfacet
  facet normal -0.728347 -0.685208 0
    outer loop
      vertex 27.2323 6.49432 2
      vertex 26.3743 7.40633 4
      vertex 26.3743 7.40633 2
    endloop
  endfacet
  facet normal -0.728347 -0.685208 0
    outer loop
      vertex 27.2323 6.49432 2
      vertex 27.2323 6.49432 4
      vertex 26.3743 7.40633 4
    endloop
  endfacet
  facet normal -0.575397 -0.817874 0
    outer loop
      vertex 28.269 5.765 2
      vertex 27.2323 6.49432 4
      vertex 27.2323 6.49432 2
    endloop
  endfacet
  facet normal -0.575397 -0.817874 0
    outer loop
      vertex 28.269 5.765 2
      vertex 28.269 5.765 4
      vertex 27.2323 6.49432 4
    endloop
  endfacet
  facet normal -0.406372 -0.913708 0
    outer loop
      vertex 29.4644 5.23332 2
      vertex 28.269 5.765 4
      vertex 28.269 5.765 2
    endloop
  endfacet
  facet normal -0.406372 -0.913708 0
    outer loop
      vertex 29.4644 5.23332 2
      vertex 29.4644 5.23332 4
      vertex 28.269 5.765 4
    endloop
  endfacet
  facet normal -0.232508 -0.972595 0
    outer loop
      vertex 30.7988 4.91434 2
      vertex 29.4644 5.23332 4
      vertex 29.4644 5.23332 2
    endloop
  endfacet
  facet normal -0.232508 -0.972595 0
    outer loop
      vertex 30.7988 4.91434 2
      vertex 30.7988 4.91434 4
      vertex 29.4644 5.23332 4
    endloop
  endfacet
  facet normal -0.0719834 -0.997406 0
    outer loop
      vertex 32.272 4.80801 2
      vertex 30.7988 4.91434 4
      vertex 30.7988 4.91434 2
    endloop
  endfacet
  facet normal -0.0719834 -0.997406 0
    outer loop
      vertex 32.272 4.80801 2
      vertex 32.272 4.80801 4
      vertex 30.7988 4.91434 4
    endloop
  endfacet
  facet normal 0.0787201 -0.996897 0
    outer loop
      vertex 33.717 4.92212 2
      vertex 32.272 4.80801 4
      vertex 32.272 4.80801 2
    endloop
  endfacet
  facet normal 0.0787201 -0.996897 0
    outer loop
      vertex 33.717 4.92212 2
      vertex 33.717 4.92212 4
      vertex 32.272 4.80801 4
    endloop
  endfacet
  facet normal 0 1 0
    outer loop
      vertex 11.893 6.69199 2
      vertex 19.615 6.69199 4
      vertex 19.615 6.69199 2
    endloop
  endfacet
  facet normal 0 1 0
    outer loop
      vertex 11.893 6.69199 2
      vertex 11.893 6.69199 4
      vertex 19.615 6.69199 4
    endloop
  endfacet
  facet normal 1 0 0
    outer loop
      vertex 11.893 20.296 2
      vertex 11.893 6.69199 4
      vertex 11.893 6.69199 2
    endloop
  endfacet
  facet normal 1 0 -0
    outer loop
      vertex 11.893 20.296 2
      vertex 11.893 20.296 4
      vertex 11.893 6.69199 4
    endloop
  endfacet
  facet normal 0 1 0
    outer loop
      vertex 9.82199 20.296 2
      vertex 11.893 20.296 4
      vertex 11.893 20.296 2
    endloop
  endfacet
  facet normal 0 1 0
    outer loop
      vertex 9.82199 20.296 2
      vertex 9.82199 20.296 4
      vertex 11.893 20.296 4
    endloop
  endfacet
  facet normal -1 0 0
    outer loop
      vertex 9.82199 5 2
      vertex 9.82199 20.296 4
      vertex 9.82199 20.296 2
    endloop
  endfacet
  facet normal -1 0 0
    outer loop
      vertex 9.82199 5 2
      vertex 9.82199 5 4
      vertex 9.82199 20.296 4
    endloop
  endfacet
  facet normal 0 -1 0
    outer loop
      vertex 19.615 5 2
      vertex 9.82199 5 4
      vertex 9.82199 5 2
    endloop
  endfacet
  facet normal 0 -1 0
    outer loop
      vertex 19.615 5 2
      vertex 19.615 5 4
      vertex 9.82199 5 4
    endloop
  endfacet
  facet normal 1 0 0
    outer loop
      vertex 19.615 6.69199 2
      vertex 19.615 5 4
      vertex 19.615 5 2
    endloop
  endfacet
  facet normal 1 0 -0
    outer loop
      vertex 19.615 6.69199 2
      vertex 19.615 6.69199 4
      vertex 19.615 5 4
    endloop
  endfacet
endsolid OpenSCAD_Model
