solid OpenSCAD_Model
  facet normal 0 0 -1
    outer loop
      vertex 11.893 6.69199 2
      vertex 19.615 6.69199 2
      vertex 19.615 5 2
    endloop
  endfacet
  facet normal -0 -0 -1
    outer loop
      vertex 37.512 6.69199 2
      vertex 37.512 5 2
      vertex 27.569 6.69199 2
    endloop
  endfacet
  facet normal 0 -0 -1
    outer loop
      vertex 11.893 6.69199 2
      vertex 19.615 5 2
      vertex 9.82199 5 2
    endloop
  endfacet
  facet normal 0 0 -1
    outer loop
      vertex 11.893 6.69199 2
      vertex 9.82199 20.296 2
      vertex 11.893 20.296 2
    endloop
  endfacet
  facet normal -0 0 -1
    outer loop
      vertex 11.893 6.69199 2
      vertex 9.82199 5 2
      vertex 9.82199 20.296 2
    endloop
  endfacet
  facet normal 0 0 -1
    outer loop
      vertex 36.418 12.034 2
      vertex 27.569 13.704 2
      vertex 36.418 13.704 2
    endloop
  endfacet
  facet normal 0 0 -1
    outer loop
      vertex 36.418 12.034 2
      vertex 27.569 12.034 2
      vertex 27.569 13.704 2
    endloop
  endfacet
  facet normal 0 0 -1
    outer loop
      vertex 37.068 18.604 2
      vertex 27.569 18.604 2
      vertex 37.068 20.296 2
    endloop
  endfacet
  facet normal -0 -0 -1
    outer loop
      vertex 27.569 18.604 2
      vertex 27.569 13.704 2
      vertex 25.498 20.296 2
    endloop
  endfacet
  facet normal -0 0 -1
    outer loop
      vertex 37.068 20.296 2
      vertex 27.569 18.604 2
      vertex 25.498 20.296 2
    endloop
  endfacet
  facet normal 0 0 -1
    outer loop
      vertex 37.512 5 2
      vertex 25.498 5 2
      vertex 27.569 6.69199 2
    endloop
  endfacet
  facet normal 0 0 -1
    outer loop
      vertex 25.498 5 2
      vertex 27.569 12.034 2
      vertex 27.569 6.69199 2
    endloop
  endfacet
  facet normal -0 -0 -1
    outer loop
      vertex 27.569 13.704 2
      vertex 27.569 12.034 2
      vertex 25.498 20.296 2
    endloop
  endfacet
  facet normal -0 0 -1
    outer loop
      vertex 27.569 12.034 2
      vertex 25.498 5 2
      vertex 25.498 20.296 2
    endloop
  endfacet
  facet normal 0 -0 1
    outer loop
      vertex 19.615 5 4
      vertex 19.615 6.69199 4
      vertex 11.893 6.69199 4
    endloop
  endfacet
  facet normal -0 0 1
    outer loop
      vertex 27.569 6.69199 4
      vertex 37.512 5 4
      vertex 37.512 6.69199 4
    endloop
  endfacet
  facet normal 0 0 1
    outer loop
      vertex 9.82199 5 4
      vertex 19.615 5 4
      vertex 11.893 6.69199 4
    endloop
  endfacet
  facet normal 0 0 1
    outer loop
      vertex 11.893 20.296 4
      vertex 9.82199 20.296 4
      vertex 11.893 6.69199 4
    endloop
  endfacet
  facet normal 0 0 1
    outer loop
      vertex 9.82199 20.296 4
      vertex 9.82199 5 4
      vertex 11.893 6.69199 4
    endloop
  endfacet
  facet normal 0 0 1
    outer loop
      vertex 36.418 13.704 4
      vertex 27.569 13.704 4
      vertex 36.418 12.034 4
    endloop
  endfacet
  facet normal 0 0 1
    outer loop
      vertex 27.569 13.704 4
      vertex 27.569 12.034 4
      vertex 36.418 12.034 4
    endloop
  endfacet
  facet normal 0 0 1
    outer loop
      vertex 37.068 20.296 4
      vertex 27.569 18.604 4
      vertex 37.068 18.604 4
    endloop
  endfacet
  facet normal 0 0 1
    outer loop
      vertex 25.498 20.296 4
      vertex 27.569 13.704 4
      vertex 27.569 18.604 4
    endloop
  endfacet
  facet normal -0 0 1
    outer loop
      vertex 25.498 20.296 4
      vertex 27.569 18.604 4
      vertex 37.068 20.296 4
    endloop
  endfacet
  facet normal 0 0 1
    outer loop
      vertex 27.569 6.69199 4
      vertex 25.498 5 4
      vertex 37.512 5 4
    endloop
  endfacet
  facet normal 0 -0 1
    outer loop
      vertex 27.569 6.69199 4
      vertex 27.569 12.034 4
      vertex 25.498 5 4
    endloop
  endfacet
  facet normal 0 0 1
    outer loop
      vertex 25.498 20.296 4
      vertex 27.569 12.034 4
      vertex 27.569 13.704 4
    endloop
  endfacet
  facet normal 0 0 1
    outer loop
      vertex 25.498 20.296 4
      vertex 25.498 5 4
      vertex 27.569 12.034 4
    endloop
  endfacet
  facet normal 0 1 0
    outer loop
      vertex 11.893 6.69199 2
      vertex 19.615 6.69199 4
      vertex 19.615 6.69199 2
    endloop
  endfacet
  facet normal 0 1 0
    outer loop
      vertex 11.893 6.69199 2
      vertex 11.893 6.69199 4
      vertex 19.615 6.69199 4
    endloop
  endfacet
  facet normal 1 0 0
    outer loop
      vertex 11.893 20.296 2
      vertex 11.893 6.69199 4
      vertex 11.893 6.69199 2
    endloop
  endfacet
  facet normal 1 0 -0
    outer loop
      vertex 11.893 20.296 2
      vertex 11.893 20.296 4
      vertex 11.893 6.69199 4
    endloop
  endfacet
  facet normal 0 1 0
    outer loop
      vertex 9.82199 20.296 2
      vertex 11.893 20.296 4
      vertex 11.893 20.296 2
    endloop
  endfacet
  facet normal 0 1 0
    outer loop
      vertex 9.82199 20.296 2
      vertex 9.82199 20.296 4
      vertex 11.893 20.296 4
    endloop
  endfacet
  facet normal -1 0 0
    outer loop
      vertex 9.82199 5 2
      vertex 9.82199 20.296 4
      vertex 9.82199 20.296 2
    endloop
  endfacet
  facet normal -1 0 0
    outer loop
      vertex 9.82199 5 2
      vertex 9.82199 5 4
      vertex 9.82199 20.296 4
    endloop
  endfacet
  facet normal 0 -1 0
    outer loop
      vertex 19.615 5 2
      vertex 9.82199 5 4
      vertex 9.82199 5 2
    endloop
  endfacet
  facet normal 0 -1 0
    outer loop
      vertex 19.615 5 2
      vertex 19.615 5 4
      vertex 9.82199 5 4
    endloop
  endfacet
  facet normal 1 0 0
    outer loop
      vertex 19.615 6.69199 2
      vertex 19.615 5 4
      vertex 19.615 5 2
    endloop
  endfacet
  facet normal 1 0 -0
    outer loop
      vertex 19.615 6.69199 2
      vertex 19.615 6.69199 4
      vertex 19.615 5 4
    endloop
  endfacet
  facet normal 0 1 0
    outer loop
      vertex 27.569 6.69199 2
      vertex 37.512 6.69199 4
      vertex 37.512 6.69199 2
    endloop
  endfacet
  facet normal 0 1 0
    outer loop
      vertex 27.569 6.69199 2
      vertex 27.569 6.69199 4
      vertex 37.512 6.69199 4
    endloop
  endfacet
  facet normal 1 0 0
    outer loop
      vertex 27.569 12.034 2
      vertex 27.569 6.69199 4
      vertex 27.569 6.69199 2
    endloop
  endfacet
  facet normal 1 0 -0
    outer loop
      vertex 27.569 12.034 2
      vertex 27.569 12.034 4
      vertex 27.569 6.69199 4
    endloop
  endfacet
  facet normal 0 -1 0
    outer loop
      vertex 36.418 12.034 2
      vertex 27.569 12.034 4
      vertex 27.569 12.034 2
    endloop
  endfacet
  facet normal 0 -1 0
    outer loop
      vertex 36.418 12.034 2
      vertex 36.418 12.034 4
      vertex 27.569 12.034 4
    endloop
  endfacet
  facet normal 1 0 0
    outer loop
      vertex 36.418 13.704 2
      vertex 36.418 12.034 4
      vertex 36.418 12.034 2
    endloop
  endfacet
  facet normal 1 0 -0
    outer loop
      vertex 36.418 13.704 2
      vertex 36.418 13.704 4
      vertex 36.418 12.034 4
    endloop
  endfacet
  facet normal 0 1 0
    outer loop
      vertex 27.569 13.704 2
      vertex 36.418 13.704 4
      vertex 36.418 13.704 2
    endloop
  endfacet
  facet normal 0 1 0
    outer loop
      vertex 27.569 13.704 2
      vertex 27.569 13.704 4
      vertex 36.418 13.704 4
    endloop
  endfacet
  facet normal 1 0 0
    outer loop
      vertex 27.569 18.604 2
      vertex 27.569 13.704 4
      vertex 27.569 13.704 2
    endloop
  endfacet
  facet normal 1 0 -0
    outer loop
      vertex 27.569 18.604 2
      vertex 27.569 18.604 4
      vertex 27.569 13.704 4
    endloop
  endfacet
  facet normal 0 -1 0
    outer loop
      vertex 37.068 18.604 2
      vertex 27.569 18.604 4
      vertex 27.569 18.604 2
    endloop
  endfacet
  facet normal 0 -1 0
    outer loop
      vertex 37.068 18.604 2
      vertex 37.068 18.604 4
      vertex 27.569 18.604 4
    endloop
  endfacet
  facet normal 1 0 0
    outer loop
      vertex 37.068 20.296 2
      vertex 37.068 18.604 4
      vertex 37.068 18.604 2
    endloop
  endfacet
  facet normal 1 0 -0
    outer loop
      vertex 37.068 20.296 2
      vertex 37.068 20.296 4
      vertex 37.068 18.604 4
    endloop
  endfacet
  facet normal 0 1 0
    outer loop
      vertex 25.498 20.296 2
      vertex 37.068 20.296 4
      vertex 37.068 20.296 2
    endloop
  endfacet
  facet normal 0 1 0
    outer loop
      vertex 25.498 20.296 2
      vertex 25.498 20.296 4
      vertex 37.068 20.296 4
    endloop
  endfacet
  facet normal -1 0 0
    outer loop
      vertex 25.498 5 2
      vertex 25.498 20.296 4
      vertex 25.498 20.296 2
    endloop
  endfacet
  facet normal -1 0 0
    outer loop
      vertex 25.498 5 2
      vertex 25.498 5 4
      vertex 25.498 20.296 4
    endloop
  endfacet
  facet normal 0 -1 0
    outer loop
      vertex 37.512 5 2
      vertex 25.498 5 4
      vertex 25.498 5 2
    endloop
  endfacet
  facet normal 0 -1 0
    outer loop
      vertex 37.512 5 2
      vertex 37.512 5 4
      vertex 25.498 5 4
    endloop
  endfacet
  facet normal 1 0 0
    outer loop
      vertex 37.512 6.69199 2
      vertex 37.512 5 4
      vertex 37.512 5 2
    endloop
  endfacet
  facet normal 1 0 -0
    outer loop
      vertex 37.512 6.69199 2
      vertex 37.512 6.69199 4
      vertex 37.512 5 4
    endloop
  endfacet
endsolid OpenSCAD_Model
