solid OpenSCAD_Model
  facet normal 0 0 -1
    outer loop
      vertex 11.893 6.69199 2
      vertex 19.615 6.69199 2
      vertex 19.615 5 2
    endloop
  endfacet
  facet normal -0 -0 -1
    outer loop
      vertex 29.3968 18.604 2
      vertex 29.3968 5 2
      vertex 27.3358 18.604 2
    endloop
  endfacet
  facet normal 0 -0 -1
    outer loop
      vertex 11.893 6.69199 2
      vertex 19.615 5 2
      vertex 9.82199 5 2
    endloop
  endfacet
  facet normal 0 0 -1
    outer loop
      vertex 11.893 6.69199 2
      vertex 9.82199 20.296 2
      vertex 11.893 20.296 2
    endloop
  endfacet
  facet normal -0 0 -1
    outer loop
      vertex 11.893 6.69199 2
      vertex 9.82199 5 2
      vertex 9.82199 20.296 2
    endloop
  endfacet
  facet normal 0 0 -1
    outer loop
      vertex 34.6458 18.604 2
      vertex 29.3968 18.604 2
      vertex 34.6458 20.296 2
    endloop
  endfacet
  facet normal -0 0 -1
    outer loop
      vertex 34.6458 20.296 2
      vertex 29.3968 18.604 2
      vertex 22.0868 20.296 2
    endloop
  endfacet
  facet normal 0 0 -1
    outer loop
      vertex 29.3968 18.604 2
      vertex 27.3358 18.604 2
      vertex 22.0868 20.296 2
    endloop
  endfacet
  facet normal 0 0 -1
    outer loop
      vertex 27.3358 18.604 2
      vertex 22.0868 18.604 2
      vertex 22.0868 20.296 2
    endloop
  endfacet
  facet normal 0 0 -1
    outer loop
      vertex 29.3968 5 2
      vertex 27.3358 5 2
      vertex 27.3358 18.604 2
    endloop
  endfacet
  facet normal 0 -0 1
    outer loop
      vertex 19.615 5 4
      vertex 19.615 6.69199 4
      vertex 11.893 6.69199 4
    endloop
  endfacet
  facet normal -0 0 1
    outer loop
      vertex 27.3358 18.604 4
      vertex 29.3968 5 4
      vertex 29.3968 18.604 4
    endloop
  endfacet
  facet normal 0 0 1
    outer loop
      vertex 9.82199 5 4
      vertex 19.615 5 4
      vertex 11.893 6.69199 4
    endloop
  endfacet
  facet normal 0 0 1
    outer loop
      vertex 11.893 20.296 4
      vertex 9.82199 20.296 4
      vertex 11.893 6.69199 4
    endloop
  endfacet
  facet normal 0 0 1
    outer loop
      vertex 9.82199 20.296 4
      vertex 9.82199 5 4
      vertex 11.893 6.69199 4
    endloop
  endfacet
  facet normal 0 0 1
    outer loop
      vertex 34.6458 20.296 4
      vertex 29.3968 18.604 4
      vertex 34.6458 18.604 4
    endloop
  endfacet
  facet normal -0 0 1
    outer loop
      vertex 22.0868 20.296 4
      vertex 29.3968 18.604 4
      vertex 34.6458 20.296 4
    endloop
  endfacet
  facet normal 0 0 1
    outer loop
      vertex 22.0868 20.296 4
      vertex 27.3358 18.604 4
      vertex 29.3968 18.604 4
    endloop
  endfacet
  facet normal 0 0 1
    outer loop
      vertex 22.0868 20.296 4
      vertex 22.0868 18.604 4
      vertex 27.3358 18.604 4
    endloop
  endfacet
  facet normal 0 0 1
    outer loop
      vertex 27.3358 18.604 4
      vertex 27.3358 5 4
      vertex 29.3968 5 4
    endloop
  endfacet
  facet normal 0 1 0
    outer loop
      vertex 11.893 6.69199 2
      vertex 19.615 6.69199 4
      vertex 19.615 6.69199 2
    endloop
  endfacet
  facet normal 0 1 0
    outer loop
      vertex 11.893 6.69199 2
      vertex 11.893 6.69199 4
      vertex 19.615 6.69199 4
    endloop
  endfacet
  facet normal 1 0 0
    outer loop
      vertex 11.893 20.296 2
      vertex 11.893 6.69199 4
      vertex 11.893 6.69199 2
    endloop
  endfacet
  facet normal 1 0 -0
    outer loop
      vertex 11.893 20.296 2
      vertex 11.893 20.296 4
      vertex 11.893 6.69199 4
    endloop
  endfacet
  facet normal 0 1 0
    outer loop
      vertex 9.82199 20.296 2
      vertex 11.893 20.296 4
      vertex 11.893 20.296 2
    endloop
  endfacet
  facet normal 0 1 0
    outer loop
      vertex 9.82199 20.296 2
      vertex 9.82199 20.296 4
      vertex 11.893 20.296 4
    endloop
  endfacet
  facet normal -1 0 0
    outer loop
      vertex 9.82199 5 2
      vertex 9.82199 20.296 4
      vertex 9.82199 20.296 2
    endloop
  endfacet
  facet normal -1 0 0
    outer loop
      vertex 9.82199 5 2
      vertex 9.82199 5 4
      vertex 9.82199 20.296 4
    endloop
  endfacet
  facet normal 0 -1 0
    outer loop
      vertex 19.615 5 2
      vertex 9.82199 5 4
      vertex 9.82199 5 2
    endloop
  endfacet
  facet normal 0 -1 0
    outer loop
      vertex 19.615 5 2
      vertex 19.615 5 4
      vertex 9.82199 5 4
    endloop
  endfacet
  facet normal 1 0 0
    outer loop
      vertex 19.615 6.69199 2
      vertex 19.615 5 4
      vertex 19.615 5 2
    endloop
  endfacet
  facet normal 1 0 -0
    outer loop
      vertex 19.615 6.69199 2
      vertex 19.615 6.69199 4
      vertex 19.615 5 4
    endloop
  endfacet
  facet normal 0 -1 0
    outer loop
      vertex 34.6458 18.604 2
      vertex 29.3968 18.604 4
      vertex 29.3968 18.604 2
    endloop
  endfacet
  facet normal 0 -1 0
    outer loop
      vertex 34.6458 18.604 2
      vertex 34.6458 18.604 4
      vertex 29.3968 18.604 4
    endloop
  endfacet
  facet normal 1 0 0
    outer loop
      vertex 34.6458 20.296 2
      vertex 34.6458 18.604 4
      vertex 34.6458 18.604 2
    endloop
  endfacet
  facet normal 1 0 -0
    outer loop
      vertex 34.6458 20.296 2
      vertex 34.6458 20.296 4
      vertex 34.6458 18.604 4
    endloop
  endfacet
  facet normal 0 1 0
    outer loop
      vertex 22.0868 20.296 2
      vertex 34.6458 20.296 4
      vertex 34.6458 20.296 2
    endloop
  endfacet
  facet normal 0 1 0
    outer loop
      vertex 22.0868 20.296 2
      vertex 22.0868 20.296 4
      vertex 34.6458 20.296 4
    endloop
  endfacet
  facet normal -1 0 0
    outer loop
      vertex 22.0868 18.604 2
      vertex 22.0868 20.296 4
      vertex 22.0868 20.296 2
    endloop
  endfacet
  facet normal -1 0 0
    outer loop
      vertex 22.0868 18.604 2
      vertex 22.0868 18.604 4
      vertex 22.0868 20.296 4
    endloop
  endfacet
  facet normal 0 -1 0
    outer loop
      vertex 27.3358 18.604 2
      vertex 22.0868 18.604 4
      vertex 22.0868 18.604 2
    endloop
  endfacet
  facet normal 0 -1 0
    outer loop
      vertex 27.3358 18.604 2
      vertex 27.3358 18.604 4
      vertex 22.0868 18.604 4
    endloop
  endfacet
  facet normal -1 0 0
    outer loop
      vertex 27.3358 5 2
      vertex 27.3358 18.604 4
      vertex 27.3358 18.604 2
    endloop
  endfacet
  facet normal -1 0 0
    outer loop
      vertex 27.3358 5 2
      vertex 27.3358 5 4
      vertex 27.3358 18.604 4
    endloop
  endfacet
  facet normal 0 -1 0
    outer loop
      vertex 29.3968 5 2
      vertex 27.3358 5 4
      vertex 27.3358 5 2
    endloop
  endfacet
  facet normal 0 -1 0
    outer loop
      vertex 29.3968 5 2
      vertex 29.3968 5 4
      vertex 27.3358 5 4
    endloop
  endfacet
  facet normal 1 0 0
    outer loop
      vertex 29.3968 18.604 2
      vertex 29.3968 5 4
      vertex 29.3968 5 2
    endloop
  endfacet
  facet normal 1 0 -0
    outer loop
      vertex 29.3968 18.604 2
      vertex 29.3968 18.604 4
      vertex 29.3968 5 4
    endloop
  endfacet
endsolid OpenSCAD_Model
