solid OpenSCAD_Model
  facet normal 0 0 -1
    outer loop
      vertex 11.893 6.69199 2
      vertex 19.615 6.69199 2
      vertex 19.615 5 2
    endloop
  endfacet
  facet normal -0 0 -1
    outer loop
      vertex 31.137 11.687 2
      vertex 26.466 5 2
      vertex 29.979 12.947 2
    endloop
  endfacet
  facet normal 0 -0 -1
    outer loop
      vertex 11.893 6.69199 2
      vertex 19.615 5 2
      vertex 9.82199 5 2
    endloop
  endfacet
  facet normal 0 0 -1
    outer loop
      vertex 11.893 6.69199 2
      vertex 9.82199 20.296 2
      vertex 11.893 20.296 2
    endloop
  endfacet
  facet normal -0 0 -1
    outer loop
      vertex 11.893 6.69199 2
      vertex 9.82199 5 2
      vertex 9.82199 20.296 2
    endloop
  endfacet
  facet normal -0 0 -1
    outer loop
      vertex 32.338 13.023 2
      vertex 29.979 12.947 2
      vertex 31.148 14.293 2
    endloop
  endfacet
  facet normal 0 0 -1
    outer loop
      vertex 29.979 12.947 2
      vertex 26.91 20.296 2
      vertex 31.148 14.293 2
    endloop
  endfacet
  facet normal 0 0 -1
    outer loop
      vertex 37.999 5 2
      vertex 35.711 5 2
      vertex 32.338 13.023 2
    endloop
  endfacet
  facet normal -0 0 -1
    outer loop
      vertex 37.555 20.296 2
      vertex 32.338 13.023 2
      vertex 35.267 20.296 2
    endloop
  endfacet
  facet normal 0 -0 -1
    outer loop
      vertex 32.338 13.023 2
      vertex 35.711 5 2
      vertex 31.137 11.687 2
    endloop
  endfacet
  facet normal 0 0 -1
    outer loop
      vertex 35.267 20.296 2
      vertex 32.338 13.023 2
      vertex 31.148 14.293 2
    endloop
  endfacet
  facet normal 0 0 -1
    outer loop
      vertex 29.979 12.947 2
      vertex 24.622 20.296 2
      vertex 26.91 20.296 2
    endloop
  endfacet
  facet normal 0 0 -1
    outer loop
      vertex 31.137 11.687 2
      vertex 29.979 12.947 2
      vertex 32.338 13.023 2
    endloop
  endfacet
  facet normal 0 0 -1
    outer loop
      vertex 26.466 5 2
      vertex 24.178 5 2
      vertex 29.979 12.947 2
    endloop
  endfacet
  facet normal 0 -0 1
    outer loop
      vertex 19.615 5 4
      vertex 19.615 6.69199 4
      vertex 11.893 6.69199 4
    endloop
  endfacet
  facet normal 0 0 1
    outer loop
      vertex 29.979 12.947 4
      vertex 26.466 5 4
      vertex 31.137 11.687 4
    endloop
  endfacet
  facet normal 0 0 1
    outer loop
      vertex 9.82199 5 4
      vertex 19.615 5 4
      vertex 11.893 6.69199 4
    endloop
  endfacet
  facet normal 0 0 1
    outer loop
      vertex 11.893 20.296 4
      vertex 9.82199 20.296 4
      vertex 11.893 6.69199 4
    endloop
  endfacet
  facet normal 0 0 1
    outer loop
      vertex 9.82199 20.296 4
      vertex 9.82199 5 4
      vertex 11.893 6.69199 4
    endloop
  endfacet
  facet normal 0 0 1
    outer loop
      vertex 31.148 14.293 4
      vertex 29.979 12.947 4
      vertex 32.338 13.023 4
    endloop
  endfacet
  facet normal 0 0 1
    outer loop
      vertex 31.148 14.293 4
      vertex 26.91 20.296 4
      vertex 29.979 12.947 4
    endloop
  endfacet
  facet normal 0 0 1
    outer loop
      vertex 32.338 13.023 4
      vertex 35.711 5 4
      vertex 37.999 5 4
    endloop
  endfacet
  facet normal -0 0 1
    outer loop
      vertex 35.267 20.296 4
      vertex 32.338 13.023 4
      vertex 37.555 20.296 4
    endloop
  endfacet
  facet normal -0 0 1
    outer loop
      vertex 31.137 11.687 4
      vertex 35.711 5 4
      vertex 32.338 13.023 4
    endloop
  endfacet
  facet normal -0 0 1
    outer loop
      vertex 31.148 14.293 4
      vertex 32.338 13.023 4
      vertex 35.267 20.296 4
    endloop
  endfacet
  facet normal 0 0 1
    outer loop
      vertex 26.91 20.296 4
      vertex 24.622 20.296 4
      vertex 29.979 12.947 4
    endloop
  endfacet
  facet normal 0 0 1
    outer loop
      vertex 32.338 13.023 4
      vertex 29.979 12.947 4
      vertex 31.137 11.687 4
    endloop
  endfacet
  facet normal 0 0 1
    outer loop
      vertex 29.979 12.947 4
      vertex 24.178 5 4
      vertex 26.466 5 4
    endloop
  endfacet
  facet normal 0 1 0
    outer loop
      vertex 11.893 6.69199 2
      vertex 19.615 6.69199 4
      vertex 19.615 6.69199 2
    endloop
  endfacet
  facet normal 0 1 0
    outer loop
      vertex 11.893 6.69199 2
      vertex 11.893 6.69199 4
      vertex 19.615 6.69199 4
    endloop
  endfacet
  facet normal 1 0 0
    outer loop
      vertex 11.893 20.296 2
      vertex 11.893 6.69199 4
      vertex 11.893 6.69199 2
    endloop
  endfacet
  facet normal 1 0 -0
    outer loop
      vertex 11.893 20.296 2
      vertex 11.893 20.296 4
      vertex 11.893 6.69199 4
    endloop
  endfacet
  facet normal 0 1 0
    outer loop
      vertex 9.82199 20.296 2
      vertex 11.893 20.296 4
      vertex 11.893 20.296 2
    endloop
  endfacet
  facet normal 0 1 0
    outer loop
      vertex 9.82199 20.296 2
      vertex 9.82199 20.296 4
      vertex 11.893 20.296 4
    endloop
  endfacet
  facet normal -1 0 0
    outer loop
      vertex 9.82199 5 2
      vertex 9.82199 20.296 4
      vertex 9.82199 20.296 2
    endloop
  endfacet
  facet normal -1 0 0
    outer loop
      vertex 9.82199 5 2
      vertex 9.82199 5 4
      vertex 9.82199 20.296 4
    endloop
  endfacet
  facet normal 0 -1 0
    outer loop
      vertex 19.615 5 2
      vertex 9.82199 5 4
      vertex 9.82199 5 2
    endloop
  endfacet
  facet normal 0 -1 0
    outer loop
      vertex 19.615 5 2
      vertex 19.615 5 4
      vertex 9.82199 5 4
    endloop
  endfacet
  facet normal 1 0 0
    outer loop
      vertex 19.615 6.69199 2
      vertex 19.615 5 4
      vertex 19.615 5 2
    endloop
  endfacet
  facet normal 1 0 -0
    outer loop
      vertex 19.615 6.69199 2
      vertex 19.615 6.69199 4
      vertex 19.615 5 4
    endloop
  endfacet
  facet normal -0.825383 -0.564573 0
    outer loop
      vertex 35.711 5 2
      vertex 31.137 11.687 4
      vertex 31.137 11.687 2
    endloop
  endfacet
  facet normal -0.825383 -0.564573 0
    outer loop
      vertex 35.711 5 2
      vertex 35.711 5 4
      vertex 31.137 11.687 4
    endloop
  endfacet
  facet normal 0 -1 0
    outer loop
      vertex 37.999 5 2
      vertex 35.711 5 4
      vertex 35.711 5 2
    endloop
  endfacet
  facet normal 0 -1 0
    outer loop
      vertex 37.999 5 2
      vertex 37.999 5 4
      vertex 35.711 5 4
    endloop
  endfacet
  facet normal 0.817077 0.576528 0
    outer loop
      vertex 32.338 13.023 2
      vertex 37.999 5 4
      vertex 37.999 5 2
    endloop
  endfacet
  facet normal 0.817077 0.576528 -0
    outer loop
      vertex 32.338 13.023 2
      vertex 32.338 13.023 4
      vertex 37.999 5 4
    endloop
  endfacet
  facet normal 0.812569 -0.582866 0
    outer loop
      vertex 37.555 20.296 2
      vertex 32.338 13.023 4
      vertex 32.338 13.023 2
    endloop
  endfacet
  facet normal 0.812569 -0.582866 0
    outer loop
      vertex 37.555 20.296 2
      vertex 37.555 20.296 4
      vertex 32.338 13.023 4
    endloop
  endfacet
  facet normal 0 1 0
    outer loop
      vertex 35.267 20.296 2
      vertex 37.555 20.296 4
      vertex 37.555 20.296 2
    endloop
  endfacet
  facet normal 0 1 0
    outer loop
      vertex 35.267 20.296 2
      vertex 35.267 20.296 4
      vertex 37.555 20.296 4
    endloop
  endfacet
  facet normal -0.824559 0.565776 0
    outer loop
      vertex 31.148 14.293 2
      vertex 35.267 20.296 4
      vertex 35.267 20.296 2
    endloop
  endfacet
  facet normal -0.824559 0.565776 0
    outer loop
      vertex 31.148 14.293 2
      vertex 31.148 14.293 4
      vertex 35.267 20.296 4
    endloop
  endfacet
  facet normal 0.816929 0.576738 0
    outer loop
      vertex 26.91 20.296 2
      vertex 31.148 14.293 4
      vertex 31.148 14.293 2
    endloop
  endfacet
  facet normal 0.816929 0.576738 -0
    outer loop
      vertex 26.91 20.296 2
      vertex 26.91 20.296 4
      vertex 31.148 14.293 4
    endloop
  endfacet
  facet normal 0 1 0
    outer loop
      vertex 24.622 20.296 2
      vertex 26.91 20.296 4
      vertex 26.91 20.296 2
    endloop
  endfacet
  facet normal 0 1 0
    outer loop
      vertex 24.622 20.296 2
      vertex 24.622 20.296 4
      vertex 26.91 20.296 4
    endloop
  endfacet
  facet normal -0.808094 -0.589054 0
    outer loop
      vertex 29.979 12.947 2
      vertex 24.622 20.296 4
      vertex 24.622 20.296 2
    endloop
  endfacet
  facet normal -0.808094 -0.589054 0
    outer loop
      vertex 29.979 12.947 2
      vertex 29.979 12.947 4
      vertex 24.622 20.296 4
    endloop
  endfacet
  facet normal -0.807702 0.589591 0
    outer loop
      vertex 24.178 5 2
      vertex 29.979 12.947 4
      vertex 29.979 12.947 2
    endloop
  endfacet
  facet normal -0.807702 0.589591 0
    outer loop
      vertex 24.178 5 2
      vertex 24.178 5 4
      vertex 29.979 12.947 4
    endloop
  endfacet
  facet normal 0 -1 0
    outer loop
      vertex 26.466 5 2
      vertex 24.178 5 4
      vertex 24.178 5 2
    endloop
  endfacet
  facet normal 0 -1 0
    outer loop
      vertex 26.466 5 2
      vertex 26.466 5 4
      vertex 24.178 5 4
    endloop
  endfacet
  facet normal 0.819801 -0.572648 0
    outer loop
      vertex 31.137 11.687 2
      vertex 26.466 5 4
      vertex 26.466 5 2
    endloop
  endfacet
  facet normal 0.819801 -0.572648 0
    outer loop
      vertex 31.137 11.687 2
      vertex 31.137 11.687 4
      vertex 26.466 5 4
    endloop
  endfacet
endsolid OpenSCAD_Model
