solid OpenSCAD_Model
  facet normal 0 0 -1
    outer loop
      vertex 22.018 20.296 2
      vertex 24.675 20.296 2
      vertex 22.907 18.463 2
    endloop
  endfacet
  facet normal 0 0 -1
    outer loop
      vertex 11.621 17.258 2
      vertex 9.821 20.296 2
      vertex 11.588 18.463 2
    endloop
  endfacet
  facet normal -0 0 -1
    outer loop
      vertex 11.664 15.206 2
      vertex 9.821 5 2
      vertex 9.821 20.296 2
    endloop
  endfacet
  facet normal 0 0 -1
    outer loop
      vertex 11.664 15.206 2
      vertex 9.821 20.296 2
      vertex 11.621 17.258 2
    endloop
  endfacet
  facet normal 0 0 -1
    outer loop
      vertex 16.554 5 2
      vertex 17.2325 7.51855 2
      vertex 17.291 7.256 2
    endloop
  endfacet
  facet normal 0 0 -1
    outer loop
      vertex 18.007 5 2
      vertex 17.9438 9.463 2
      vertex 21.953 15.423 2
    endloop
  endfacet
  facet normal 0 0 -1
    outer loop
      vertex 16.554 5 2
      vertex 16.7508 9.25099 2
      vertex 16.8898 8.79332 2
    endloop
  endfacet
  facet normal -0 0 -1
    outer loop
      vertex 22.565 17.2617 2
      vertex 22.247 16.2483 2
      vertex 22.018 20.296 2
    endloop
  endfacet
  facet normal -0 0 -1
    outer loop
      vertex 22.907 18.463 2
      vertex 22.565 17.2617 2
      vertex 22.018 20.296 2
    endloop
  endfacet
  facet normal 0 0 -1
    outer loop
      vertex 17.654 8.575 2
      vertex 17.8188 9.092 2
      vertex 18.007 5 2
    endloop
  endfacet
  facet normal 0 0 -1
    outer loop
      vertex 22.81 15.206 2
      vertex 22.8208 16.3208 2
      vertex 24.675 20.296 2
    endloop
  endfacet
  facet normal 0 0 -1
    outer loop
      vertex 24.675 5 2
      vertex 22.81 15.206 2
      vertex 24.675 20.296 2
    endloop
  endfacet
  facet normal 0 0 -1
    outer loop
      vertex 24.675 5 2
      vertex 22.81 5 2
      vertex 22.81 15.206 2
    endloop
  endfacet
  facet normal 0 0 -1
    outer loop
      vertex 24.675 20.296 2
      vertex 22.8208 16.3208 2
      vertex 22.8531 17.4064 2
    endloop
  endfacet
  facet normal 0 -0 -1
    outer loop
      vertex 22.907 18.463 2
      vertex 24.675 20.296 2
      vertex 22.8531 17.4064 2
    endloop
  endfacet
  facet normal 0 0 -1
    outer loop
      vertex 41.1391 8.575 2
      vertex 41.3038 9.092 2
      vertex 41.4921 5 2
    endloop
  endfacet
  facet normal 0 -0 -1
    outer loop
      vertex 12.543 20.296 2
      vertex 12.553 15.423 2
      vertex 11.946 17.269 2
    endloop
  endfacet
  facet normal 0 0 -1
    outer loop
      vertex 17.8188 9.092 2
      vertex 17.9438 9.463 2
      vertex 18.007 5 2
    endloop
  endfacet
  facet normal 0 0 -1
    outer loop
      vertex 16.554 5 2
      vertex 16.8898 8.79332 2
      vertex 17.025 8.31499 2
    endloop
  endfacet
  facet normal -0 0 -1
    outer loop
      vertex 22.247 16.2483 2
      vertex 21.953 15.423 2
      vertex 22.018 20.296 2
    endloop
  endfacet
  facet normal -0 0 -1
    outer loop
      vertex 21.953 15.423 2
      vertex 17.9438 9.463 2
      vertex 22.018 20.296 2
    endloop
  endfacet
  facet normal 0 0 -1
    outer loop
      vertex 11.664 5 2
      vertex 9.821 5 2
      vertex 11.664 15.206 2
    endloop
  endfacet
  facet normal 0 0 -1
    outer loop
      vertex 17.491 8.03511 2
      vertex 17.654 8.575 2
      vertex 18.007 5 2
    endloop
  endfacet
  facet normal 0 0 -1
    outer loop
      vertex 17.37 7.59544 2
      vertex 17.491 8.03511 2
      vertex 18.007 5 2
    endloop
  endfacet
  facet normal 0 0 -1
    outer loop
      vertex 16.554 5 2
      vertex 17.291 7.256 2
      vertex 18.007 5 2
    endloop
  endfacet
  facet normal 0 0 -1
    outer loop
      vertex 17.291 7.256 2
      vertex 17.37 7.59544 2
      vertex 18.007 5 2
    endloop
  endfacet
  facet normal 0 -0 -1
    outer loop
      vertex 17.1439 7.87155 2
      vertex 17.2325 7.51855 2
      vertex 16.554 5 2
    endloop
  endfacet
  facet normal 0 -0 -1
    outer loop
      vertex 17.025 8.31499 2
      vertex 17.1439 7.87155 2
      vertex 16.554 5 2
    endloop
  endfacet
  facet normal 0 0 -1
    outer loop
      vertex 16.554 5 2
      vertex 16.608 9.68799 2
      vertex 16.7508 9.25099 2
    endloop
  endfacet
  facet normal 0 0 -1
    outer loop
      vertex 16.554 5 2
      vertex 12.553 15.423 2
      vertex 16.608 9.68799 2
    endloop
  endfacet
  facet normal 0 0 -1
    outer loop
      vertex 11.588 18.463 2
      vertex 9.821 20.296 2
      vertex 12.543 20.296 2
    endloop
  endfacet
  facet normal 0 0 -1
    outer loop
      vertex 11.588 18.463 2
      vertex 12.543 20.296 2
      vertex 11.946 17.269 2
    endloop
  endfacet
  facet normal 0 0 -1
    outer loop
      vertex 12.553 15.423 2
      vertex 12.543 20.296 2
      vertex 16.608 9.68799 2
    endloop
  endfacet
  facet normal 0 -0 -1
    outer loop
      vertex 35.149 15.206 2
      vertex 35.149 5 2
      vertex 33.306 5 2
    endloop
  endfacet
  facet normal 0 0 -1
    outer loop
      vertex 33.306 20.296 2
      vertex 35.106 17.258 2
      vertex 35.149 15.206 2
    endloop
  endfacet
  facet normal 0 0 -1
    outer loop
      vertex 33.306 20.296 2
      vertex 35.073 18.463 2
      vertex 35.106 17.258 2
    endloop
  endfacet
  facet normal 0 0 -1
    outer loop
      vertex 40.039 5 2
      vertex 40.7176 7.51855 2
      vertex 40.776 7.256 2
    endloop
  endfacet
  facet normal 0 0 -1
    outer loop
      vertex 41.4921 5 2
      vertex 41.4288 9.463 2
      vertex 45.438 15.423 2
    endloop
  endfacet
  facet normal 0 0 -1
    outer loop
      vertex 40.039 5 2
      vertex 40.2358 9.25099 2
      vertex 40.3748 8.79332 2
    endloop
  endfacet
  facet normal -0 0 -1
    outer loop
      vertex 46.05 17.2617 2
      vertex 45.7321 16.2483 2
      vertex 45.5031 20.296 2
    endloop
  endfacet
  facet normal -0 0 -1
    outer loop
      vertex 46.392 18.463 2
      vertex 46.05 17.2617 2
      vertex 45.5031 20.296 2
    endloop
  endfacet
  facet normal -0 0 -1
    outer loop
      vertex 48.16 20.296 2
      vertex 46.392 18.463 2
      vertex 45.5031 20.296 2
    endloop
  endfacet
  facet normal 0 0 -1
    outer loop
      vertex 46.295 15.206 2
      vertex 46.3058 16.3208 2
      vertex 48.16 20.296 2
    endloop
  endfacet
  facet normal 0 0 -1
    outer loop
      vertex 48.16 5 2
      vertex 46.295 15.206 2
      vertex 48.16 20.296 2
    endloop
  endfacet
  facet normal 0 0 -1
    outer loop
      vertex 48.16 5 2
      vertex 46.295 5 2
      vertex 46.295 15.206 2
    endloop
  endfacet
  facet normal 0 0 -1
    outer loop
      vertex 48.16 20.296 2
      vertex 46.3058 16.3208 2
      vertex 46.3382 17.4064 2
    endloop
  endfacet
  facet normal 0 -0 -1
    outer loop
      vertex 46.392 18.463 2
      vertex 48.16 20.296 2
      vertex 46.3382 17.4064 2
    endloop
  endfacet
  facet normal 0 0 -1
    outer loop
      vertex 36.0381 15.423 2
      vertex 35.431 17.269 2
      vertex 36.028 20.296 2
    endloop
  endfacet
  facet normal 0 0 -1
    outer loop
      vertex 41.3038 9.092 2
      vertex 41.4288 9.463 2
      vertex 41.4921 5 2
    endloop
  endfacet
  facet normal 0 0 -1
    outer loop
      vertex 40.039 5 2
      vertex 40.3748 8.79332 2
      vertex 40.5101 8.31499 2
    endloop
  endfacet
  facet normal -0 0 -1
    outer loop
      vertex 45.7321 16.2483 2
      vertex 45.438 15.423 2
      vertex 45.5031 20.296 2
    endloop
  endfacet
  facet normal -0 0 -1
    outer loop
      vertex 45.438 15.423 2
      vertex 41.4288 9.463 2
      vertex 45.5031 20.296 2
    endloop
  endfacet
  facet normal 0 0 -1
    outer loop
      vertex 33.306 20.296 2
      vertex 36.028 20.296 2
      vertex 35.073 18.463 2
    endloop
  endfacet
  facet normal 0 0 -1
    outer loop
      vertex 40.976 8.03511 2
      vertex 41.1391 8.575 2
      vertex 41.4921 5 2
    endloop
  endfacet
  facet normal 0 0 -1
    outer loop
      vertex 40.8551 7.59544 2
      vertex 40.976 8.03511 2
      vertex 41.4921 5 2
    endloop
  endfacet
  facet normal 0 0 -1
    outer loop
      vertex 40.039 5 2
      vertex 40.776 7.256 2
      vertex 41.4921 5 2
    endloop
  endfacet
  facet normal 0 0 -1
    outer loop
      vertex 40.776 7.256 2
      vertex 40.8551 7.59544 2
      vertex 41.4921 5 2
    endloop
  endfacet
  facet normal 0 -0 -1
    outer loop
      vertex 40.6289 7.87155 2
      vertex 40.7176 7.51855 2
      vertex 40.039 5 2
    endloop
  endfacet
  facet normal 0 -0 -1
    outer loop
      vertex 40.5101 8.31499 2
      vertex 40.6289 7.87155 2
      vertex 40.039 5 2
    endloop
  endfacet
  facet normal 0 0 -1
    outer loop
      vertex 40.039 5 2
      vertex 40.093 9.68799 2
      vertex 40.2358 9.25099 2
    endloop
  endfacet
  facet normal 0 0 -1
    outer loop
      vertex 40.039 5 2
      vertex 36.0381 15.423 2
      vertex 40.093 9.68799 2
    endloop
  endfacet
  facet normal 0 0 -1
    outer loop
      vertex 36.028 20.296 2
      vertex 35.431 17.269 2
      vertex 35.073 18.463 2
    endloop
  endfacet
  facet normal 0 0 -1
    outer loop
      vertex 36.0381 15.423 2
      vertex 36.028 20.296 2
      vertex 40.093 9.68799 2
    endloop
  endfacet
  facet normal -0 0 -1
    outer loop
      vertex 35.149 15.206 2
      vertex 33.306 5 2
      vertex 33.306 20.296 2
    endloop
  endfacet
  facet normal 0 -0 1
    outer loop
      vertex 22.907 18.463 4
      vertex 24.675 20.296 4
      vertex 22.018 20.296 4
    endloop
  endfacet
  facet normal 0 0 1
    outer loop
      vertex 11.588 18.463 4
      vertex 9.821 20.296 4
      vertex 11.621 17.258 4
    endloop
  endfacet
  facet normal 0 0 1
    outer loop
      vertex 9.821 20.296 4
      vertex 9.821 5 4
      vertex 11.664 15.206 4
    endloop
  endfacet
  facet normal 0 0 1
    outer loop
      vertex 11.621 17.258 4
      vertex 9.821 20.296 4
      vertex 11.664 15.206 4
    endloop
  endfacet
  facet normal 0 0 1
    outer loop
      vertex 17.291 7.256 4
      vertex 17.2325 7.51855 4
      vertex 16.554 5 4
    endloop
  endfacet
  facet normal 0 0 1
    outer loop
      vertex 21.953 15.423 4
      vertex 17.9438 9.463 4
      vertex 18.007 5 4
    endloop
  endfacet
  facet normal 0 0 1
    outer loop
      vertex 16.8898 8.79332 4
      vertex 16.7508 9.25099 4
      vertex 16.554 5 4
    endloop
  endfacet
  facet normal 0 0 1
    outer loop
      vertex 22.018 20.296 4
      vertex 22.247 16.2483 4
      vertex 22.565 17.2617 4
    endloop
  endfacet
  facet normal 0 0 1
    outer loop
      vertex 22.018 20.296 4
      vertex 22.565 17.2617 4
      vertex 22.907 18.463 4
    endloop
  endfacet
  facet normal 0 0 1
    outer loop
      vertex 18.007 5 4
      vertex 17.8188 9.092 4
      vertex 17.654 8.575 4
    endloop
  endfacet
  facet normal 0 0 1
    outer loop
      vertex 24.675 20.296 4
      vertex 22.8208 16.3208 4
      vertex 22.81 15.206 4
    endloop
  endfacet
  facet normal 0 0 1
    outer loop
      vertex 24.675 20.296 4
      vertex 22.81 15.206 4
      vertex 24.675 5 4
    endloop
  endfacet
  facet normal 0 0 1
    outer loop
      vertex 22.81 15.206 4
      vertex 22.81 5 4
      vertex 24.675 5 4
    endloop
  endfacet
  facet normal -0 0 1
    outer loop
      vertex 22.8531 17.4064 4
      vertex 22.8208 16.3208 4
      vertex 24.675 20.296 4
    endloop
  endfacet
  facet normal 0 0 1
    outer loop
      vertex 22.8531 17.4064 4
      vertex 24.675 20.296 4
      vertex 22.907 18.463 4
    endloop
  endfacet
  facet normal 0 0 1
    outer loop
      vertex 41.4921 5 4
      vertex 41.3038 9.092 4
      vertex 41.1391 8.575 4
    endloop
  endfacet
  facet normal -0 0 1
    outer loop
      vertex 11.946 17.269 4
      vertex 12.553 15.423 4
      vertex 12.543 20.296 4
    endloop
  endfacet
  facet normal 0 0 1
    outer loop
      vertex 18.007 5 4
      vertex 17.9438 9.463 4
      vertex 17.8188 9.092 4
    endloop
  endfacet
  facet normal 0 0 1
    outer loop
      vertex 17.025 8.31499 4
      vertex 16.8898 8.79332 4
      vertex 16.554 5 4
    endloop
  endfacet
  facet normal 0 0 1
    outer loop
      vertex 22.018 20.296 4
      vertex 21.953 15.423 4
      vertex 22.247 16.2483 4
    endloop
  endfacet
  facet normal 0 0 1
    outer loop
      vertex 22.018 20.296 4
      vertex 17.9438 9.463 4
      vertex 21.953 15.423 4
    endloop
  endfacet
  facet normal 0 0 1
    outer loop
      vertex 11.664 15.206 4
      vertex 9.821 5 4
      vertex 11.664 5 4
    endloop
  endfacet
  facet normal 0 0 1
    outer loop
      vertex 18.007 5 4
      vertex 17.654 8.575 4
      vertex 17.491 8.03511 4
    endloop
  endfacet
  facet normal 0 0 1
    outer loop
      vertex 18.007 5 4
      vertex 17.491 8.03511 4
      vertex 17.37 7.59544 4
    endloop
  endfacet
  facet normal 0 0 1
    outer loop
      vertex 18.007 5 4
      vertex 17.291 7.256 4
      vertex 16.554 5 4
    endloop
  endfacet
  facet normal 0 0 1
    outer loop
      vertex 18.007 5 4
      vertex 17.37 7.59544 4
      vertex 17.291 7.256 4
    endloop
  endfacet
  facet normal 0 0 1
    outer loop
      vertex 16.554 5 4
      vertex 17.2325 7.51855 4
      vertex 17.1439 7.87155 4
    endloop
  endfacet
  facet normal 0 0 1
    outer loop
      vertex 16.554 5 4
      vertex 17.1439 7.87155 4
      vertex 17.025 8.31499 4
    endloop
  endfacet
  facet normal 0 0 1
    outer loop
      vertex 16.7508 9.25099 4
      vertex 16.608 9.68799 4
      vertex 16.554 5 4
    endloop
  endfacet
  facet normal 0 0 1
    outer loop
      vertex 16.608 9.68799 4
      vertex 12.553 15.423 4
      vertex 16.554 5 4
    endloop
  endfacet
  facet normal 0 0 1
    outer loop
      vertex 12.543 20.296 4
      vertex 9.821 20.296 4
      vertex 11.588 18.463 4
    endloop
  endfacet
  facet normal 0 -0 1
    outer loop
      vertex 11.946 17.269 4
      vertex 12.543 20.296 4
      vertex 11.588 18.463 4
    endloop
  endfacet
  facet normal 0 0 1
    outer loop
      vertex 16.608 9.68799 4
      vertex 12.543 20.296 4
      vertex 12.553 15.423 4
    endloop
  endfacet
  facet normal 0 0 1
    outer loop
      vertex 33.306 5 4
      vertex 35.149 5 4
      vertex 35.149 15.206 4
    endloop
  endfacet
  facet normal 0 0 1
    outer loop
      vertex 35.149 15.206 4
      vertex 35.106 17.258 4
      vertex 33.306 20.296 4
    endloop
  endfacet
  facet normal 0 0 1
    outer loop
      vertex 35.106 17.258 4
      vertex 35.073 18.463 4
      vertex 33.306 20.296 4
    endloop
  endfacet
  facet normal 0 0 1
    outer loop
      vertex 40.776 7.256 4
      vertex 40.7176 7.51855 4
      vertex 40.039 5 4
    endloop
  endfacet
  facet normal 0 0 1
    outer loop
      vertex 45.438 15.423 4
      vertex 41.4288 9.463 4
      vertex 41.4921 5 4
    endloop
  endfacet
  facet normal 0 0 1
    outer loop
      vertex 40.3748 8.79332 4
      vertex 40.2358 9.25099 4
      vertex 40.039 5 4
    endloop
  endfacet
  facet normal 0 0 1
    outer loop
      vertex 45.5031 20.296 4
      vertex 45.7321 16.2483 4
      vertex 46.05 17.2617 4
    endloop
  endfacet
  facet normal 0 0 1
    outer loop
      vertex 45.5031 20.296 4
      vertex 46.05 17.2617 4
      vertex 46.392 18.463 4
    endloop
  endfacet
  facet normal -0 0 1
    outer loop
      vertex 45.5031 20.296 4
      vertex 46.392 18.463 4
      vertex 48.16 20.296 4
    endloop
  endfacet
  facet normal 0 0 1
    outer loop
      vertex 48.16 20.296 4
      vertex 46.3058 16.3208 4
      vertex 46.295 15.206 4
    endloop
  endfacet
  facet normal 0 0 1
    outer loop
      vertex 48.16 20.296 4
      vertex 46.295 15.206 4
      vertex 48.16 5 4
    endloop
  endfacet
  facet normal 0 0 1
    outer loop
      vertex 46.295 15.206 4
      vertex 46.295 5 4
      vertex 48.16 5 4
    endloop
  endfacet
  facet normal -0 0 1
    outer loop
      vertex 46.3382 17.4064 4
      vertex 46.3058 16.3208 4
      vertex 48.16 20.296 4
    endloop
  endfacet
  facet normal 0 0 1
    outer loop
      vertex 46.3382 17.4064 4
      vertex 48.16 20.296 4
      vertex 46.392 18.463 4
    endloop
  endfacet
  facet normal 0 0 1
    outer loop
      vertex 36.028 20.296 4
      vertex 35.431 17.269 4
      vertex 36.0381 15.423 4
    endloop
  endfacet
  facet normal 0 0 1
    outer loop
      vertex 41.4921 5 4
      vertex 41.4288 9.463 4
      vertex 41.3038 9.092 4
    endloop
  endfacet
  facet normal 0 0 1
    outer loop
      vertex 40.5101 8.31499 4
      vertex 40.3748 8.79332 4
      vertex 40.039 5 4
    endloop
  endfacet
  facet normal 0 0 1
    outer loop
      vertex 45.5031 20.296 4
      vertex 45.438 15.423 4
      vertex 45.7321 16.2483 4
    endloop
  endfacet
  facet normal 0 0 1
    outer loop
      vertex 45.5031 20.296 4
      vertex 41.4288 9.463 4
      vertex 45.438 15.423 4
    endloop
  endfacet
  facet normal 0 -0 1
    outer loop
      vertex 35.073 18.463 4
      vertex 36.028 20.296 4
      vertex 33.306 20.296 4
    endloop
  endfacet
  facet normal 0 0 1
    outer loop
      vertex 41.4921 5 4
      vertex 41.1391 8.575 4
      vertex 40.976 8.03511 4
    endloop
  endfacet
  facet normal 0 0 1
    outer loop
      vertex 41.4921 5 4
      vertex 40.976 8.03511 4
      vertex 40.8551 7.59544 4
    endloop
  endfacet
  facet normal 0 0 1
    outer loop
      vertex 41.4921 5 4
      vertex 40.776 7.256 4
      vertex 40.039 5 4
    endloop
  endfacet
  facet normal 0 0 1
    outer loop
      vertex 41.4921 5 4
      vertex 40.8551 7.59544 4
      vertex 40.776 7.256 4
    endloop
  endfacet
  facet normal 0 0 1
    outer loop
      vertex 40.039 5 4
      vertex 40.7176 7.51855 4
      vertex 40.6289 7.87155 4
    endloop
  endfacet
  facet normal 0 0 1
    outer loop
      vertex 40.039 5 4
      vertex 40.6289 7.87155 4
      vertex 40.5101 8.31499 4
    endloop
  endfacet
  facet normal 0 0 1
    outer loop
      vertex 40.2358 9.25099 4
      vertex 40.093 9.68799 4
      vertex 40.039 5 4
    endloop
  endfacet
  facet normal 0 0 1
    outer loop
      vertex 40.093 9.68799 4
      vertex 36.0381 15.423 4
      vertex 40.039 5 4
    endloop
  endfacet
  facet normal -0 0 1
    outer loop
      vertex 35.073 18.463 4
      vertex 35.431 17.269 4
      vertex 36.028 20.296 4
    endloop
  endfacet
  facet normal 0 0 1
    outer loop
      vertex 40.093 9.68799 4
      vertex 36.028 20.296 4
      vertex 36.0381 15.423 4
    endloop
  endfacet
  facet normal 0 0 1
    outer loop
      vertex 33.306 20.296 4
      vertex 33.306 5 4
      vertex 35.149 15.206 4
    endloop
  endfacet
  facet normal 0.999781 0.0209502 0
    outer loop
      vertex 11.621 17.258 2
      vertex 11.664 15.206 4
      vertex 11.664 15.206 2
    endloop
  endfacet
  facet normal 0.999781 0.0209502 -0
    outer loop
      vertex 11.621 17.258 2
      vertex 11.621 17.258 4
      vertex 11.664 15.206 4
    endloop
  endfacet
  facet normal 0.999625 0.0273669 0
    outer loop
      vertex 11.588 18.463 2
      vertex 11.621 17.258 4
      vertex 11.621 17.258 2
    endloop
  endfacet
  facet normal 0.999625 0.0273669 -0
    outer loop
      vertex 11.588 18.463 2
      vertex 11.588 18.463 4
      vertex 11.621 17.258 4
    endloop
  endfacet
  facet normal -0.95787 -0.287202 0
    outer loop
      vertex 11.946 17.269 2
      vertex 11.588 18.463 4
      vertex 11.588 18.463 2
    endloop
  endfacet
  facet normal -0.95787 -0.287202 0
    outer loop
      vertex 11.946 17.269 2
      vertex 11.946 17.269 4
      vertex 11.588 18.463 4
    endloop
  endfacet
  facet normal -0.949963 -0.312362 0
    outer loop
      vertex 12.553 15.423 2
      vertex 11.946 17.269 4
      vertex 11.946 17.269 2
    endloop
  endfacet
  facet normal -0.949963 -0.312362 0
    outer loop
      vertex 12.553 15.423 2
      vertex 12.553 15.423 4
      vertex 11.946 17.269 4
    endloop
  endfacet
  facet normal -0.933581 -0.358366 0
    outer loop
      vertex 16.554 5 2
      vertex 12.553 15.423 4
      vertex 12.553 15.423 2
    endloop
  endfacet
  facet normal -0.933581 -0.358366 0
    outer loop
      vertex 16.554 5 2
      vertex 16.554 5 4
      vertex 12.553 15.423 4
    endloop
  endfacet
  facet normal 0 -1 0
    outer loop
      vertex 18.007 5 2
      vertex 16.554 5 4
      vertex 16.554 5 2
    endloop
  endfacet
  facet normal 0 -1 0
    outer loop
      vertex 18.007 5 2
      vertex 18.007 5 4
      vertex 16.554 5 4
    endloop
  endfacet
  facet normal 0.935222 -0.354062 0
    outer loop
      vertex 21.953 15.423 2
      vertex 18.007 5 4
      vertex 18.007 5 2
    endloop
  endfacet
  facet normal 0.935222 -0.354062 0
    outer loop
      vertex 21.953 15.423 2
      vertex 21.953 15.423 4
      vertex 18.007 5 4
    endloop
  endfacet
  facet normal 0.942015 -0.335572 0
    outer loop
      vertex 22.247 16.2483 2
      vertex 21.953 15.423 4
      vertex 21.953 15.423 2
    endloop
  endfacet
  facet normal 0.942015 -0.335572 0
    outer loop
      vertex 22.247 16.2483 2
      vertex 22.247 16.2483 4
      vertex 21.953 15.423 4
    endloop
  endfacet
  facet normal 0.954124 -0.299412 0
    outer loop
      vertex 22.565 17.2617 2
      vertex 22.247 16.2483 4
      vertex 22.247 16.2483 2
    endloop
  endfacet
  facet normal 0.954124 -0.299412 0
    outer loop
      vertex 22.565 17.2617 2
      vertex 22.565 17.2617 4
      vertex 22.247 16.2483 4
    endloop
  endfacet
  facet normal 0.961784 -0.273811 0
    outer loop
      vertex 22.907 18.463 2
      vertex 22.565 17.2617 4
      vertex 22.565 17.2617 2
    endloop
  endfacet
  facet normal 0.961784 -0.273811 0
    outer loop
      vertex 22.907 18.463 2
      vertex 22.907 18.463 4
      vertex 22.565 17.2617 4
    endloop
  endfacet
  facet normal -0.998702 0.0509425 0
    outer loop
      vertex 22.8531 17.4064 2
      vertex 22.907 18.463 4
      vertex 22.907 18.463 2
    endloop
  endfacet
  facet normal -0.998702 0.0509425 0
    outer loop
      vertex 22.8531 17.4064 2
      vertex 22.8531 17.4064 4
      vertex 22.907 18.463 4
    endloop
  endfacet
  facet normal -0.999557 0.029769 0
    outer loop
      vertex 22.8208 16.3208 2
      vertex 22.8531 17.4064 4
      vertex 22.8531 17.4064 2
    endloop
  endfacet
  facet normal -0.999557 0.029769 0
    outer loop
      vertex 22.8208 16.3208 2
      vertex 22.8208 16.3208 4
      vertex 22.8531 17.4064 4
    endloop
  endfacet
  facet normal -0.999953 0.0096631 0
    outer loop
      vertex 22.81 15.206 2
      vertex 22.8208 16.3208 4
      vertex 22.8208 16.3208 2
    endloop
  endfacet
  facet normal -0.999953 0.0096631 0
    outer loop
      vertex 22.81 15.206 2
      vertex 22.81 15.206 4
      vertex 22.8208 16.3208 4
    endloop
  endfacet
  facet normal -1 0 0
    outer loop
      vertex 22.81 5 2
      vertex 22.81 15.206 4
      vertex 22.81 15.206 2
    endloop
  endfacet
  facet normal -1 0 0
    outer loop
      vertex 22.81 5 2
      vertex 22.81 5 4
      vertex 22.81 15.206 4
    endloop
  endfacet
  facet normal 0 -1 0
    outer loop
      vertex 24.675 5 2
      vertex 22.81 5 4
      vertex 22.81 5 2
    endloop
  endfacet
  facet normal 0 -1 0
    outer loop
      vertex 24.675 5 2
      vertex 24.675 5 4
      vertex 22.81 5 4
    endloop
  endfacet
  facet normal 1 0 0
    outer loop
      vertex 24.675 20.296 2
      vertex 24.675 5 4
      vertex 24.675 5 2
    endloop
  endfacet
  facet normal 1 0 -0
    outer loop
      vertex 24.675 20.296 2
      vertex 24.675 20.296 4
      vertex 24.675 5 4
    endloop
  endfacet
  facet normal 0 1 0
    outer loop
      vertex 22.018 20.296 2
      vertex 24.675 20.296 4
      vertex 24.675 20.296 2
    endloop
  endfacet
  facet normal 0 1 0
    outer loop
      vertex 22.018 20.296 2
      vertex 22.018 20.296 4
      vertex 24.675 20.296 4
    endloop
  endfacet
  facet normal -0.935992 0.352021 0
    outer loop
      vertex 17.9438 9.463 2
      vertex 22.018 20.296 4
      vertex 22.018 20.296 2
    endloop
  endfacet
  facet normal -0.935992 0.352021 0
    outer loop
      vertex 17.9438 9.463 2
      vertex 17.9438 9.463 4
      vertex 22.018 20.296 4
    endloop
  endfacet
  facet normal -0.947657 0.31929 0
    outer loop
      vertex 17.8188 9.092 2
      vertex 17.9438 9.463 4
      vertex 17.9438 9.463 2
    endloop
  endfacet
  facet normal -0.947657 0.31929 0
    outer loop
      vertex 17.8188 9.092 2
      vertex 17.8188 9.092 4
      vertex 17.9438 9.463 4
    endloop
  endfacet
  facet normal -0.952776 0.303673 0
    outer loop
      vertex 17.654 8.575 2
      vertex 17.8188 9.092 4
      vertex 17.8188 9.092 2
    endloop
  endfacet
  facet normal -0.952776 0.303673 0
    outer loop
      vertex 17.654 8.575 2
      vertex 17.654 8.575 4
      vertex 17.8188 9.092 4
    endloop
  endfacet
  facet normal -0.957323 0.28902 0
    outer loop
      vertex 17.491 8.03511 2
      vertex 17.654 8.575 4
      vertex 17.654 8.575 2
    endloop
  endfacet
  facet normal -0.957323 0.28902 0
    outer loop
      vertex 17.491 8.03511 2
      vertex 17.491 8.03511 4
      vertex 17.654 8.575 4
    endloop
  endfacet
  facet normal -0.964153 0.265348 0
    outer loop
      vertex 17.37 7.59544 2
      vertex 17.491 8.03511 4
      vertex 17.491 8.03511 2
    endloop
  endfacet
  facet normal -0.964153 0.265348 0
    outer loop
      vertex 17.37 7.59544 2
      vertex 17.37 7.59544 4
      vertex 17.491 8.03511 4
    endloop
  endfacet
  facet normal -0.973964 0.226701 0
    outer loop
      vertex 17.291 7.256 2
      vertex 17.37 7.59544 4
      vertex 17.37 7.59544 2
    endloop
  endfacet
  facet normal -0.973964 0.226701 0
    outer loop
      vertex 17.291 7.256 2
      vertex 17.291 7.256 4
      vertex 17.37 7.59544 4
    endloop
  endfacet
  facet normal 0.976112 0.217267 0
    outer loop
      vertex 17.2325 7.51855 2
      vertex 17.291 7.256 4
      vertex 17.291 7.256 2
    endloop
  endfacet
  facet normal 0.976112 0.217267 -0
    outer loop
      vertex 17.2325 7.51855 2
      vertex 17.2325 7.51855 4
      vertex 17.291 7.256 4
    endloop
  endfacet
  facet normal 0.969871 0.243621 0
    outer loop
      vertex 17.1439 7.87155 2
      vertex 17.2325 7.51855 4
      vertex 17.2325 7.51855 2
    endloop
  endfacet
  facet normal 0.969871 0.243621 -0
    outer loop
      vertex 17.1439 7.87155 2
      vertex 17.1439 7.87155 4
      vertex 17.2325 7.51855 4
    endloop
  endfacet
  facet normal 0.965892 0.258947 0
    outer loop
      vertex 17.025 8.31499 2
      vertex 17.1439 7.87155 4
      vertex 17.1439 7.87155 2
    endloop
  endfacet
  facet normal 0.965892 0.258947 -0
    outer loop
      vertex 17.025 8.31499 2
      vertex 17.025 8.31499 4
      vertex 17.1439 7.87155 4
    endloop
  endfacet
  facet normal 0.962287 0.272036 0
    outer loop
      vertex 16.8898 8.79332 2
      vertex 17.025 8.31499 4
      vertex 17.025 8.31499 2
    endloop
  endfacet
  facet normal 0.962287 0.272036 -0
    outer loop
      vertex 16.8898 8.79332 2
      vertex 16.8898 8.79332 4
      vertex 17.025 8.31499 4
    endloop
  endfacet
  facet normal 0.956839 0.290618 0
    outer loop
      vertex 16.7508 9.25099 2
      vertex 16.8898 8.79332 4
      vertex 16.8898 8.79332 2
    endloop
  endfacet
  facet normal 0.956839 0.290618 -0
    outer loop
      vertex 16.7508 9.25099 2
      vertex 16.7508 9.25099 4
      vertex 16.8898 8.79332 4
    endloop
  endfacet
  facet normal 0.950552 0.310566 0
    outer loop
      vertex 16.608 9.68799 2
      vertex 16.7508 9.25099 4
      vertex 16.7508 9.25099 2
    endloop
  endfacet
  facet normal 0.950552 0.310566 -0
    outer loop
      vertex 16.608 9.68799 2
      vertex 16.608 9.68799 4
      vertex 16.7508 9.25099 4
    endloop
  endfacet
  facet normal 0.933788 0.357828 0
    outer loop
      vertex 12.543 20.296 2
      vertex 16.608 9.68799 4
      vertex 16.608 9.68799 2
    endloop
  endfacet
  facet normal 0.933788 0.357828 -0
    outer loop
      vertex 12.543 20.296 2
      vertex 12.543 20.296 4
      vertex 16.608 9.68799 4
    endloop
  endfacet
  facet normal 0 1 0
    outer loop
      vertex 9.821 20.296 2
      vertex 12.543 20.296 4
      vertex 12.543 20.296 2
    endloop
  endfacet
  facet normal 0 1 0
    outer loop
      vertex 9.821 20.296 2
      vertex 9.821 20.296 4
      vertex 12.543 20.296 4
    endloop
  endfacet
  facet normal -1 0 0
    outer loop
      vertex 9.821 5 2
      vertex 9.821 20.296 4
      vertex 9.821 20.296 2
    endloop
  endfacet
  facet normal -1 0 0
    outer loop
      vertex 9.821 5 2
      vertex 9.821 5 4
      vertex 9.821 20.296 4
    endloop
  endfacet
  facet normal 0 -1 0
    outer loop
      vertex 11.664 5 2
      vertex 9.821 5 4
      vertex 9.821 5 2
    endloop
  endfacet
  facet normal 0 -1 0
    outer loop
      vertex 11.664 5 2
      vertex 11.664 5 4
      vertex 9.821 5 4
    endloop
  endfacet
  facet normal 1 0 0
    outer loop
      vertex 11.664 15.206 2
      vertex 11.664 5 4
      vertex 11.664 5 2
    endloop
  endfacet
  facet normal 1 0 -0
    outer loop
      vertex 11.664 15.206 2
      vertex 11.664 15.206 4
      vertex 11.664 5 4
    endloop
  endfacet
  facet normal 0.999781 0.0209502 0
    outer loop
      vertex 35.106 17.258 2
      vertex 35.149 15.206 4
      vertex 35.149 15.206 2
    endloop
  endfacet
  facet normal 0.999781 0.0209502 -0
    outer loop
      vertex 35.106 17.258 2
      vertex 35.106 17.258 4
      vertex 35.149 15.206 4
    endloop
  endfacet
  facet normal 0.999625 0.0273795 0
    outer loop
      vertex 35.073 18.463 2
      vertex 35.106 17.258 4
      vertex 35.106 17.258 2
    endloop
  endfacet
  facet normal 0.999625 0.0273795 -0
    outer loop
      vertex 35.073 18.463 2
      vertex 35.073 18.463 4
      vertex 35.106 17.258 4
    endloop
  endfacet
  facet normal -0.95787 -0.287202 0
    outer loop
      vertex 35.431 17.269 2
      vertex 35.073 18.463 4
      vertex 35.073 18.463 2
    endloop
  endfacet
  facet normal -0.95787 -0.287202 0
    outer loop
      vertex 35.431 17.269 2
      vertex 35.431 17.269 4
      vertex 35.073 18.463 4
    endloop
  endfacet
  facet normal -0.949961 -0.312369 0
    outer loop
      vertex 36.0381 15.423 2
      vertex 35.431 17.269 4
      vertex 35.431 17.269 2
    endloop
  endfacet
  facet normal -0.949961 -0.312369 0
    outer loop
      vertex 36.0381 15.423 2
      vertex 36.0381 15.423 4
      vertex 35.431 17.269 4
    endloop
  endfacet
  facet normal -0.933581 -0.358366 0
    outer loop
      vertex 40.039 5 2
      vertex 36.0381 15.423 4
      vertex 36.0381 15.423 2
    endloop
  endfacet
  facet normal -0.933581 -0.358366 0
    outer loop
      vertex 40.039 5 2
      vertex 40.039 5 4
      vertex 36.0381 15.423 4
    endloop
  endfacet
  facet normal 0 -1 0
    outer loop
      vertex 41.4921 5 2
      vertex 40.039 5 4
      vertex 40.039 5 2
    endloop
  endfacet
  facet normal 0 -1 0
    outer loop
      vertex 41.4921 5 2
      vertex 41.4921 5 4
      vertex 40.039 5 4
    endloop
  endfacet
  facet normal 0.935222 -0.354062 0
    outer loop
      vertex 45.438 15.423 2
      vertex 41.4921 5 4
      vertex 41.4921 5 2
    endloop
  endfacet
  facet normal 0.935222 -0.354062 0
    outer loop
      vertex 45.438 15.423 2
      vertex 45.438 15.423 4
      vertex 41.4921 5 4
    endloop
  endfacet
  facet normal 0.942015 -0.335572 0
    outer loop
      vertex 45.7321 16.2483 2
      vertex 45.438 15.423 4
      vertex 45.438 15.423 2
    endloop
  endfacet
  facet normal 0.942015 -0.335572 0
    outer loop
      vertex 45.7321 16.2483 2
      vertex 45.7321 16.2483 4
      vertex 45.438 15.423 4
    endloop
  endfacet
  facet normal 0.954124 -0.299412 0
    outer loop
      vertex 46.05 17.2617 2
      vertex 45.7321 16.2483 4
      vertex 45.7321 16.2483 2
    endloop
  endfacet
  facet normal 0.954124 -0.299412 0
    outer loop
      vertex 46.05 17.2617 2
      vertex 46.05 17.2617 4
      vertex 45.7321 16.2483 4
    endloop
  endfacet
  facet normal 0.961787 -0.2738 0
    outer loop
      vertex 46.392 18.463 2
      vertex 46.05 17.2617 4
      vertex 46.05 17.2617 2
    endloop
  endfacet
  facet normal 0.961787 -0.2738 0
    outer loop
      vertex 46.392 18.463 2
      vertex 46.392 18.463 4
      vertex 46.05 17.2617 4
    endloop
  endfacet
  facet normal -0.998702 0.0509282 0
    outer loop
      vertex 46.3382 17.4064 2
      vertex 46.392 18.463 4
      vertex 46.392 18.463 2
    endloop
  endfacet
  facet normal -0.998702 0.0509282 0
    outer loop
      vertex 46.3382 17.4064 2
      vertex 46.3382 17.4064 4
      vertex 46.392 18.463 4
    endloop
  endfacet
  facet normal -0.999557 0.029769 0
    outer loop
      vertex 46.3058 16.3208 2
      vertex 46.3382 17.4064 4
      vertex 46.3382 17.4064 2
    endloop
  endfacet
  facet normal -0.999557 0.029769 0
    outer loop
      vertex 46.3058 16.3208 2
      vertex 46.3058 16.3208 4
      vertex 46.3382 17.4064 4
    endloop
  endfacet
  facet normal -0.999953 0.00967679 0
    outer loop
      vertex 46.295 15.206 2
      vertex 46.3058 16.3208 4
      vertex 46.3058 16.3208 2
    endloop
  endfacet
  facet normal -0.999953 0.00967679 0
    outer loop
      vertex 46.295 15.206 2
      vertex 46.295 15.206 4
      vertex 46.3058 16.3208 4
    endloop
  endfacet
  facet normal -1 0 0
    outer loop
      vertex 46.295 5 2
      vertex 46.295 15.206 4
      vertex 46.295 15.206 2
    endloop
  endfacet
  facet normal -1 0 0
    outer loop
      vertex 46.295 5 2
      vertex 46.295 5 4
      vertex 46.295 15.206 4
    endloop
  endfacet
  facet normal 0 -1 0
    outer loop
      vertex 48.16 5 2
      vertex 46.295 5 4
      vertex 46.295 5 2
    endloop
  endfacet
  facet normal 0 -1 0
    outer loop
      vertex 48.16 5 2
      vertex 48.16 5 4
      vertex 46.295 5 4
    endloop
  endfacet
  facet normal 1 0 0
    outer loop
      vertex 48.16 20.296 2
      vertex 48.16 5 4
      vertex 48.16 5 2
    endloop
  endfacet
  facet normal 1 0 -0
    outer loop
      vertex 48.16 20.296 2
      vertex 48.16 20.296 4
      vertex 48.16 5 4
    endloop
  endfacet
  facet normal 0 1 0
    outer loop
      vertex 45.5031 20.296 2
      vertex 48.16 20.296 4
      vertex 48.16 20.296 2
    endloop
  endfacet
  facet normal 0 1 0
    outer loop
      vertex 45.5031 20.296 2
      vertex 45.5031 20.296 4
      vertex 48.16 20.296 4
    endloop
  endfacet
  facet normal -0.935992 0.352021 0
    outer loop
      vertex 41.4288 9.463 2
      vertex 45.5031 20.296 4
      vertex 45.5031 20.296 2
    endloop
  endfacet
  facet normal -0.935992 0.352021 0
    outer loop
      vertex 41.4288 9.463 2
      vertex 41.4288 9.463 4
      vertex 45.5031 20.296 4
    endloop
  endfacet
  facet normal -0.947657 0.31929 0
    outer loop
      vertex 41.3038 9.092 2
      vertex 41.4288 9.463 4
      vertex 41.4288 9.463 2
    endloop
  endfacet
  facet normal -0.947657 0.31929 0
    outer loop
      vertex 41.3038 9.092 2
      vertex 41.3038 9.092 4
      vertex 41.4288 9.463 4
    endloop
  endfacet
  facet normal -0.952776 0.303673 0
    outer loop
      vertex 41.1391 8.575 2
      vertex 41.3038 9.092 4
      vertex 41.3038 9.092 2
    endloop
  endfacet
  facet normal -0.952776 0.303673 0
    outer loop
      vertex 41.1391 8.575 2
      vertex 41.1391 8.575 4
      vertex 41.3038 9.092 4
    endloop
  endfacet
  facet normal -0.957315 0.289045 0
    outer loop
      vertex 40.976 8.03511 2
      vertex 41.1391 8.575 4
      vertex 41.1391 8.575 2
    endloop
  endfacet
  facet normal -0.957315 0.289045 0
    outer loop
      vertex 40.976 8.03511 2
      vertex 40.976 8.03511 4
      vertex 41.1391 8.575 4
    endloop
  endfacet
  facet normal -0.964161 0.265317 0
    outer loop
      vertex 40.8551 7.59544 2
      vertex 40.976 8.03511 4
      vertex 40.976 8.03511 2
    endloop
  endfacet
  facet normal -0.964161 0.265317 0
    outer loop
      vertex 40.8551 7.59544 2
      vertex 40.8551 7.59544 4
      vertex 40.976 8.03511 4
    endloop
  endfacet
  facet normal -0.973964 0.226701 0
    outer loop
      vertex 40.776 7.256 2
      vertex 40.8551 7.59544 4
      vertex 40.8551 7.59544 2
    endloop
  endfacet
  facet normal -0.973964 0.226701 0
    outer loop
      vertex 40.776 7.256 2
      vertex 40.776 7.256 4
      vertex 40.8551 7.59544 4
    endloop
  endfacet
  facet normal 0.976112 0.217267 0
    outer loop
      vertex 40.7176 7.51855 2
      vertex 40.776 7.256 4
      vertex 40.776 7.256 2
    endloop
  endfacet
  facet normal 0.976112 0.217267 -0
    outer loop
      vertex 40.7176 7.51855 2
      vertex 40.7176 7.51855 4
      vertex 40.776 7.256 4
    endloop
  endfacet
  facet normal 0.969871 0.243621 0
    outer loop
      vertex 40.6289 7.87155 2
      vertex 40.7176 7.51855 4
      vertex 40.7176 7.51855 2
    endloop
  endfacet
  facet normal 0.969871 0.243621 -0
    outer loop
      vertex 40.6289 7.87155 2
      vertex 40.6289 7.87155 4
      vertex 40.7176 7.51855 4
    endloop
  endfacet
  facet normal 0.965892 0.258947 0
    outer loop
      vertex 40.5101 8.31499 2
      vertex 40.6289 7.87155 4
      vertex 40.6289 7.87155 2
    endloop
  endfacet
  facet normal 0.965892 0.258947 -0
    outer loop
      vertex 40.5101 8.31499 2
      vertex 40.5101 8.31499 4
      vertex 40.6289 7.87155 4
    endloop
  endfacet
  facet normal 0.962287 0.272036 0
    outer loop
      vertex 40.3748 8.79332 2
      vertex 40.5101 8.31499 4
      vertex 40.5101 8.31499 2
    endloop
  endfacet
  facet normal 0.962287 0.272036 -0
    outer loop
      vertex 40.3748 8.79332 2
      vertex 40.3748 8.79332 4
      vertex 40.5101 8.31499 4
    endloop
  endfacet
  facet normal 0.956839 0.290618 0
    outer loop
      vertex 40.2358 9.25099 2
      vertex 40.3748 8.79332 4
      vertex 40.3748 8.79332 2
    endloop
  endfacet
  facet normal 0.956839 0.290618 -0
    outer loop
      vertex 40.2358 9.25099 2
      vertex 40.2358 9.25099 4
      vertex 40.3748 8.79332 4
    endloop
  endfacet
  facet normal 0.950552 0.310566 0
    outer loop
      vertex 40.093 9.68799 2
      vertex 40.2358 9.25099 4
      vertex 40.2358 9.25099 2
    endloop
  endfacet
  facet normal 0.950552 0.310566 -0
    outer loop
      vertex 40.093 9.68799 2
      vertex 40.093 9.68799 4
      vertex 40.2358 9.25099 4
    endloop
  endfacet
  facet normal 0.933787 0.357829 0
    outer loop
      vertex 36.028 20.296 2
      vertex 40.093 9.68799 4
      vertex 40.093 9.68799 2
    endloop
  endfacet
  facet normal 0.933787 0.357829 -0
    outer loop
      vertex 36.028 20.296 2
      vertex 36.028 20.296 4
      vertex 40.093 9.68799 4
    endloop
  endfacet
  facet normal 0 1 0
    outer loop
      vertex 33.306 20.296 2
      vertex 36.028 20.296 4
      vertex 36.028 20.296 2
    endloop
  endfacet
  facet normal 0 1 0
    outer loop
      vertex 33.306 20.296 2
      vertex 33.306 20.296 4
      vertex 36.028 20.296 4
    endloop
  endfacet
  facet normal -1 0 0
    outer loop
      vertex 33.306 5 2
      vertex 33.306 20.296 4
      vertex 33.306 20.296 2
    endloop
  endfacet
  facet normal -1 0 0
    outer loop
      vertex 33.306 5 2
      vertex 33.306 5 4
      vertex 33.306 20.296 4
    endloop
  endfacet
  facet normal 0 -1 0
    outer loop
      vertex 35.149 5 2
      vertex 33.306 5 4
      vertex 33.306 5 2
    endloop
  endfacet
  facet normal 0 -1 0
    outer loop
      vertex 35.149 5 2
      vertex 35.149 5 4
      vertex 33.306 5 4
    endloop
  endfacet
  facet normal 1 0 0
    outer loop
      vertex 35.149 15.206 2
      vertex 35.149 5 4
      vertex 35.149 5 2
    endloop
  endfacet
  facet normal 1 0 -0
    outer loop
      vertex 35.149 15.206 2
      vertex 35.149 15.206 4
      vertex 35.149 5 4
    endloop
  endfacet
endsolid OpenSCAD_Model
