solid OpenSCAD_Model
  facet normal 0 0 -1
    outer loop
      vertex 22.018 20.296 2
      vertex 24.675 20.296 2
      vertex 22.907 18.463 2
    endloop
  endfacet
  facet normal 0 0 -1
    outer loop
      vertex 11.621 17.258 2
      vertex 9.821 20.296 2
      vertex 11.588 18.463 2
    endloop
  endfacet
  facet normal -0 0 -1
    outer loop
      vertex 11.664 15.206 2
      vertex 9.821 5 2
      vertex 9.821 20.296 2
    endloop
  endfacet
  facet normal 0 0 -1
    outer loop
      vertex 11.664 15.206 2
      vertex 9.821 20.296 2
      vertex 11.621 17.258 2
    endloop
  endfacet
  facet normal 0 0 -1
    outer loop
      vertex 16.554 5 2
      vertex 17.2325 7.51855 2
      vertex 17.291 7.256 2
    endloop
  endfacet
  facet normal 0 0 -1
    outer loop
      vertex 18.007 5 2
      vertex 17.9438 9.463 2
      vertex 21.953 15.423 2
    endloop
  endfacet
  facet normal 0 0 -1
    outer loop
      vertex 16.554 5 2
      vertex 16.7508 9.25099 2
      vertex 16.8898 8.79332 2
    endloop
  endfacet
  facet normal -0 0 -1
    outer loop
      vertex 22.565 17.2617 2
      vertex 22.247 16.2483 2
      vertex 22.018 20.296 2
    endloop
  endfacet
  facet normal -0 0 -1
    outer loop
      vertex 22.907 18.463 2
      vertex 22.565 17.2617 2
      vertex 22.018 20.296 2
    endloop
  endfacet
  facet normal 0 0 -1
    outer loop
      vertex 17.654 8.575 2
      vertex 17.8188 9.092 2
      vertex 18.007 5 2
    endloop
  endfacet
  facet normal 0 0 -1
    outer loop
      vertex 22.81 15.206 2
      vertex 22.8208 16.3208 2
      vertex 24.675 20.296 2
    endloop
  endfacet
  facet normal 0 0 -1
    outer loop
      vertex 24.675 5 2
      vertex 22.81 15.206 2
      vertex 24.675 20.296 2
    endloop
  endfacet
  facet normal 0 0 -1
    outer loop
      vertex 24.675 5 2
      vertex 22.81 5 2
      vertex 22.81 15.206 2
    endloop
  endfacet
  facet normal 0 0 -1
    outer loop
      vertex 24.675 20.296 2
      vertex 22.8208 16.3208 2
      vertex 22.8531 17.4064 2
    endloop
  endfacet
  facet normal 0 -0 -1
    outer loop
      vertex 22.907 18.463 2
      vertex 24.675 20.296 2
      vertex 22.8531 17.4064 2
    endloop
  endfacet
  facet normal -0 0 -1
    outer loop
      vertex 45.1001 15.703 2
      vertex 43.0181 15.681 2
      vertex 44.9437 17.0521 2
    endloop
  endfacet
  facet normal 0 -0 -1
    outer loop
      vertex 12.543 20.296 2
      vertex 12.553 15.423 2
      vertex 11.946 17.269 2
    endloop
  endfacet
  facet normal 0 0 -1
    outer loop
      vertex 17.8188 9.092 2
      vertex 17.9438 9.463 2
      vertex 18.007 5 2
    endloop
  endfacet
  facet normal 0 0 -1
    outer loop
      vertex 16.554 5 2
      vertex 16.8898 8.79332 2
      vertex 17.025 8.31499 2
    endloop
  endfacet
  facet normal -0 0 -1
    outer loop
      vertex 22.247 16.2483 2
      vertex 21.953 15.423 2
      vertex 22.018 20.296 2
    endloop
  endfacet
  facet normal -0 0 -1
    outer loop
      vertex 21.953 15.423 2
      vertex 17.9438 9.463 2
      vertex 22.018 20.296 2
    endloop
  endfacet
  facet normal 0 0 -1
    outer loop
      vertex 11.664 5 2
      vertex 9.821 5 2
      vertex 11.664 15.206 2
    endloop
  endfacet
  facet normal 0 0 -1
    outer loop
      vertex 17.491 8.03511 2
      vertex 17.654 8.575 2
      vertex 18.007 5 2
    endloop
  endfacet
  facet normal 0 0 -1
    outer loop
      vertex 17.37 7.59544 2
      vertex 17.491 8.03511 2
      vertex 18.007 5 2
    endloop
  endfacet
  facet normal 0 0 -1
    outer loop
      vertex 16.554 5 2
      vertex 17.291 7.256 2
      vertex 18.007 5 2
    endloop
  endfacet
  facet normal 0 0 -1
    outer loop
      vertex 17.291 7.256 2
      vertex 17.37 7.59544 2
      vertex 18.007 5 2
    endloop
  endfacet
  facet normal 0 -0 -1
    outer loop
      vertex 17.1439 7.87155 2
      vertex 17.2325 7.51855 2
      vertex 16.554 5 2
    endloop
  endfacet
  facet normal 0 -0 -1
    outer loop
      vertex 17.025 8.31499 2
      vertex 17.1439 7.87155 2
      vertex 16.554 5 2
    endloop
  endfacet
  facet normal 0 0 -1
    outer loop
      vertex 16.554 5 2
      vertex 16.608 9.68799 2
      vertex 16.7508 9.25099 2
    endloop
  endfacet
  facet normal 0 0 -1
    outer loop
      vertex 16.554 5 2
      vertex 12.553 15.423 2
      vertex 16.608 9.68799 2
    endloop
  endfacet
  facet normal 0 0 -1
    outer loop
      vertex 11.588 18.463 2
      vertex 9.821 20.296 2
      vertex 12.543 20.296 2
    endloop
  endfacet
  facet normal 0 0 -1
    outer loop
      vertex 11.588 18.463 2
      vertex 12.543 20.296 2
      vertex 11.946 17.269 2
    endloop
  endfacet
  facet normal 0 0 -1
    outer loop
      vertex 12.553 15.423 2
      vertex 12.543 20.296 2
      vertex 16.608 9.68799 2
    endloop
  endfacet
  facet normal 0 -0 -1
    outer loop
      vertex 35.3741 10.979 2
      vertex 35.3741 5 2
      vertex 33.3031 5 2
    endloop
  endfacet
  facet normal 0 -0 -1
    outer loop
      vertex 39.558 12.616 2
      vertex 39.8531 10.979 2
      vertex 35.3741 10.979 2
    endloop
  endfacet
  facet normal 0 0 -1
    outer loop
      vertex 44.9432 14.357 2
      vertex 43.0181 15.681 2
      vertex 45.1001 15.703 2
    endloop
  endfacet
  facet normal -0 0 -1
    outer loop
      vertex 44.9432 14.357 2
      vertex 42.6336 13.9782 2
      vertex 43.0181 15.681 2
    endloop
  endfacet
  facet normal -0 0 -1
    outer loop
      vertex 44.4725 13.2083 2
      vertex 43.688 12.257 2
      vertex 42.6336 13.9782 2
    endloop
  endfacet
  facet normal 0 0 -1
    outer loop
      vertex 41.442 18.3085 2
      vertex 42.6264 19.7613 2
      vertex 43.6931 19.093 2
    endloop
  endfacet
  facet normal 0 0 -1
    outer loop
      vertex 41.442 18.3085 2
      vertex 41.3024 20.1623 2
      vertex 42.6264 19.7613 2
    endloop
  endfacet
  facet normal -0 0 -1
    outer loop
      vertex 44.4747 18.1821 2
      vertex 42.6241 17.3232 2
      vertex 43.6931 19.093 2
    endloop
  endfacet
  facet normal 0 -0 -1
    outer loop
      vertex 41.3024 20.1623 2
      vertex 41.442 18.3085 2
      vertex 39.472 18.637 2
    endloop
  endfacet
  facet normal 0 -0 -1
    outer loop
      vertex 44.4747 18.1821 2
      vertex 44.9437 17.0521 2
      vertex 42.6241 17.3232 2
    endloop
  endfacet
  facet normal 0 0 -1
    outer loop
      vertex 41.4803 12.9565 2
      vertex 43.688 12.257 2
      vertex 42.6344 11.547 2
    endloop
  endfacet
  facet normal -0 0 -1
    outer loop
      vertex 41.3024 20.1623 2
      vertex 39.472 18.637 2
      vertex 39.7211 20.296 2
    endloop
  endfacet
  facet normal -0 0 -1
    outer loop
      vertex 41.356 11.121 2
      vertex 39.8531 10.979 2
      vertex 39.558 12.616 2
    endloop
  endfacet
  facet normal 0 0 -1
    outer loop
      vertex 41.356 11.121 2
      vertex 39.558 12.616 2
      vertex 41.4803 12.9565 2
    endloop
  endfacet
  facet normal 0 0 -1
    outer loop
      vertex 33.3031 20.296 2
      vertex 35.3741 12.616 2
      vertex 33.3031 5 2
    endloop
  endfacet
  facet normal -0 0 -1
    outer loop
      vertex 35.3741 10.979 2
      vertex 33.3031 5 2
      vertex 35.3741 12.616 2
    endloop
  endfacet
  facet normal 0 0 -1
    outer loop
      vertex 35.3741 12.616 2
      vertex 39.558 12.616 2
      vertex 35.3741 10.979 2
    endloop
  endfacet
  facet normal -0 0 -1
    outer loop
      vertex 39.7211 20.296 2
      vertex 35.3741 18.637 2
      vertex 33.3031 20.296 2
    endloop
  endfacet
  facet normal -0 -0 -1
    outer loop
      vertex 35.3741 18.637 2
      vertex 35.3741 12.616 2
      vertex 33.3031 20.296 2
    endloop
  endfacet
  facet normal 0 0 -1
    outer loop
      vertex 39.7211 20.296 2
      vertex 39.472 18.637 2
      vertex 35.3741 18.637 2
    endloop
  endfacet
  facet normal 0 0 -1
    outer loop
      vertex 42.6241 17.3232 2
      vertex 41.442 18.3085 2
      vertex 43.6931 19.093 2
    endloop
  endfacet
  facet normal 0 0 -1
    outer loop
      vertex 43.0181 15.681 2
      vertex 42.6241 17.3232 2
      vertex 44.9437 17.0521 2
    endloop
  endfacet
  facet normal 0 0 -1
    outer loop
      vertex 44.9432 14.357 2
      vertex 44.4725 13.2083 2
      vertex 42.6336 13.9782 2
    endloop
  endfacet
  facet normal 0 0 -1
    outer loop
      vertex 41.4803 12.9565 2
      vertex 42.6336 13.9782 2
      vertex 43.688 12.257 2
    endloop
  endfacet
  facet normal 0 0 -1
    outer loop
      vertex 41.356 11.121 2
      vertex 41.4803 12.9565 2
      vertex 42.6344 11.547 2
    endloop
  endfacet
  facet normal 0 -0 1
    outer loop
      vertex 22.907 18.463 4
      vertex 24.675 20.296 4
      vertex 22.018 20.296 4
    endloop
  endfacet
  facet normal 0 0 1
    outer loop
      vertex 11.588 18.463 4
      vertex 9.821 20.296 4
      vertex 11.621 17.258 4
    endloop
  endfacet
  facet normal 0 0 1
    outer loop
      vertex 9.821 20.296 4
      vertex 9.821 5 4
      vertex 11.664 15.206 4
    endloop
  endfacet
  facet normal 0 0 1
    outer loop
      vertex 11.621 17.258 4
      vertex 9.821 20.296 4
      vertex 11.664 15.206 4
    endloop
  endfacet
  facet normal 0 0 1
    outer loop
      vertex 17.291 7.256 4
      vertex 17.2325 7.51855 4
      vertex 16.554 5 4
    endloop
  endfacet
  facet normal 0 0 1
    outer loop
      vertex 21.953 15.423 4
      vertex 17.9438 9.463 4
      vertex 18.007 5 4
    endloop
  endfacet
  facet normal 0 0 1
    outer loop
      vertex 16.8898 8.79332 4
      vertex 16.7508 9.25099 4
      vertex 16.554 5 4
    endloop
  endfacet
  facet normal 0 0 1
    outer loop
      vertex 22.018 20.296 4
      vertex 22.247 16.2483 4
      vertex 22.565 17.2617 4
    endloop
  endfacet
  facet normal 0 0 1
    outer loop
      vertex 22.018 20.296 4
      vertex 22.565 17.2617 4
      vertex 22.907 18.463 4
    endloop
  endfacet
  facet normal 0 0 1
    outer loop
      vertex 18.007 5 4
      vertex 17.8188 9.092 4
      vertex 17.654 8.575 4
    endloop
  endfacet
  facet normal 0 0 1
    outer loop
      vertex 24.675 20.296 4
      vertex 22.8208 16.3208 4
      vertex 22.81 15.206 4
    endloop
  endfacet
  facet normal 0 0 1
    outer loop
      vertex 24.675 20.296 4
      vertex 22.81 15.206 4
      vertex 24.675 5 4
    endloop
  endfacet
  facet normal 0 0 1
    outer loop
      vertex 22.81 15.206 4
      vertex 22.81 5 4
      vertex 24.675 5 4
    endloop
  endfacet
  facet normal -0 0 1
    outer loop
      vertex 22.8531 17.4064 4
      vertex 22.8208 16.3208 4
      vertex 24.675 20.296 4
    endloop
  endfacet
  facet normal 0 0 1
    outer loop
      vertex 22.8531 17.4064 4
      vertex 24.675 20.296 4
      vertex 22.907 18.463 4
    endloop
  endfacet
  facet normal 0 0 1
    outer loop
      vertex 44.9437 17.0521 4
      vertex 43.0181 15.681 4
      vertex 45.1001 15.703 4
    endloop
  endfacet
  facet normal -0 0 1
    outer loop
      vertex 11.946 17.269 4
      vertex 12.553 15.423 4
      vertex 12.543 20.296 4
    endloop
  endfacet
  facet normal 0 0 1
    outer loop
      vertex 18.007 5 4
      vertex 17.9438 9.463 4
      vertex 17.8188 9.092 4
    endloop
  endfacet
  facet normal 0 0 1
    outer loop
      vertex 17.025 8.31499 4
      vertex 16.8898 8.79332 4
      vertex 16.554 5 4
    endloop
  endfacet
  facet normal 0 0 1
    outer loop
      vertex 22.018 20.296 4
      vertex 21.953 15.423 4
      vertex 22.247 16.2483 4
    endloop
  endfacet
  facet normal 0 0 1
    outer loop
      vertex 22.018 20.296 4
      vertex 17.9438 9.463 4
      vertex 21.953 15.423 4
    endloop
  endfacet
  facet normal 0 0 1
    outer loop
      vertex 11.664 15.206 4
      vertex 9.821 5 4
      vertex 11.664 5 4
    endloop
  endfacet
  facet normal 0 0 1
    outer loop
      vertex 18.007 5 4
      vertex 17.654 8.575 4
      vertex 17.491 8.03511 4
    endloop
  endfacet
  facet normal 0 0 1
    outer loop
      vertex 18.007 5 4
      vertex 17.491 8.03511 4
      vertex 17.37 7.59544 4
    endloop
  endfacet
  facet normal 0 0 1
    outer loop
      vertex 18.007 5 4
      vertex 17.291 7.256 4
      vertex 16.554 5 4
    endloop
  endfacet
  facet normal 0 0 1
    outer loop
      vertex 18.007 5 4
      vertex 17.37 7.59544 4
      vertex 17.291 7.256 4
    endloop
  endfacet
  facet normal 0 0 1
    outer loop
      vertex 16.554 5 4
      vertex 17.2325 7.51855 4
      vertex 17.1439 7.87155 4
    endloop
  endfacet
  facet normal 0 0 1
    outer loop
      vertex 16.554 5 4
      vertex 17.1439 7.87155 4
      vertex 17.025 8.31499 4
    endloop
  endfacet
  facet normal 0 0 1
    outer loop
      vertex 16.7508 9.25099 4
      vertex 16.608 9.68799 4
      vertex 16.554 5 4
    endloop
  endfacet
  facet normal 0 0 1
    outer loop
      vertex 16.608 9.68799 4
      vertex 12.553 15.423 4
      vertex 16.554 5 4
    endloop
  endfacet
  facet normal 0 0 1
    outer loop
      vertex 12.543 20.296 4
      vertex 9.821 20.296 4
      vertex 11.588 18.463 4
    endloop
  endfacet
  facet normal 0 -0 1
    outer loop
      vertex 11.946 17.269 4
      vertex 12.543 20.296 4
      vertex 11.588 18.463 4
    endloop
  endfacet
  facet normal 0 0 1
    outer loop
      vertex 16.608 9.68799 4
      vertex 12.543 20.296 4
      vertex 12.553 15.423 4
    endloop
  endfacet
  facet normal 0 0 1
    outer loop
      vertex 33.3031 5 4
      vertex 35.3741 5 4
      vertex 35.3741 10.979 4
    endloop
  endfacet
  facet normal 0 0 1
    outer loop
      vertex 35.3741 10.979 4
      vertex 39.8531 10.979 4
      vertex 39.558 12.616 4
    endloop
  endfacet
  facet normal 0 0 1
    outer loop
      vertex 45.1001 15.703 4
      vertex 43.0181 15.681 4
      vertex 44.9432 14.357 4
    endloop
  endfacet
  facet normal 0 0 1
    outer loop
      vertex 43.0181 15.681 4
      vertex 42.6336 13.9782 4
      vertex 44.9432 14.357 4
    endloop
  endfacet
  facet normal 0 0 1
    outer loop
      vertex 42.6336 13.9782 4
      vertex 43.688 12.257 4
      vertex 44.4725 13.2083 4
    endloop
  endfacet
  facet normal 0 0 1
    outer loop
      vertex 43.6931 19.093 4
      vertex 42.6264 19.7613 4
      vertex 41.442 18.3085 4
    endloop
  endfacet
  facet normal 0 0 1
    outer loop
      vertex 42.6264 19.7613 4
      vertex 41.3024 20.1623 4
      vertex 41.442 18.3085 4
    endloop
  endfacet
  facet normal 0 0 1
    outer loop
      vertex 43.6931 19.093 4
      vertex 42.6241 17.3232 4
      vertex 44.4747 18.1821 4
    endloop
  endfacet
  facet normal -0 0 1
    outer loop
      vertex 39.472 18.637 4
      vertex 41.442 18.3085 4
      vertex 41.3024 20.1623 4
    endloop
  endfacet
  facet normal -0 0 1
    outer loop
      vertex 42.6241 17.3232 4
      vertex 44.9437 17.0521 4
      vertex 44.4747 18.1821 4
    endloop
  endfacet
  facet normal 0 -0 1
    outer loop
      vertex 42.6344 11.547 4
      vertex 43.688 12.257 4
      vertex 41.4803 12.9565 4
    endloop
  endfacet
  facet normal 0 0 1
    outer loop
      vertex 39.7211 20.296 4
      vertex 39.472 18.637 4
      vertex 41.3024 20.1623 4
    endloop
  endfacet
  facet normal 0 0 1
    outer loop
      vertex 39.558 12.616 4
      vertex 39.8531 10.979 4
      vertex 41.356 11.121 4
    endloop
  endfacet
  facet normal 0 0 1
    outer loop
      vertex 41.4803 12.9565 4
      vertex 39.558 12.616 4
      vertex 41.356 11.121 4
    endloop
  endfacet
  facet normal 0 0 1
    outer loop
      vertex 33.3031 5 4
      vertex 35.3741 12.616 4
      vertex 33.3031 20.296 4
    endloop
  endfacet
  facet normal 0 0 1
    outer loop
      vertex 35.3741 12.616 4
      vertex 33.3031 5 4
      vertex 35.3741 10.979 4
    endloop
  endfacet
  facet normal 0 0 1
    outer loop
      vertex 35.3741 10.979 4
      vertex 39.558 12.616 4
      vertex 35.3741 12.616 4
    endloop
  endfacet
  facet normal -0 0 1
    outer loop
      vertex 33.3031 20.296 4
      vertex 35.3741 18.637 4
      vertex 39.7211 20.296 4
    endloop
  endfacet
  facet normal 0 0 1
    outer loop
      vertex 33.3031 20.296 4
      vertex 35.3741 12.616 4
      vertex 35.3741 18.637 4
    endloop
  endfacet
  facet normal 0 0 1
    outer loop
      vertex 35.3741 18.637 4
      vertex 39.472 18.637 4
      vertex 39.7211 20.296 4
    endloop
  endfacet
  facet normal 0 0 1
    outer loop
      vertex 43.6931 19.093 4
      vertex 41.442 18.3085 4
      vertex 42.6241 17.3232 4
    endloop
  endfacet
  facet normal 0 0 1
    outer loop
      vertex 44.9437 17.0521 4
      vertex 42.6241 17.3232 4
      vertex 43.0181 15.681 4
    endloop
  endfacet
  facet normal -0 0 1
    outer loop
      vertex 42.6336 13.9782 4
      vertex 44.4725 13.2083 4
      vertex 44.9432 14.357 4
    endloop
  endfacet
  facet normal 0 0 1
    outer loop
      vertex 43.688 12.257 4
      vertex 42.6336 13.9782 4
      vertex 41.4803 12.9565 4
    endloop
  endfacet
  facet normal 0 0 1
    outer loop
      vertex 42.6344 11.547 4
      vertex 41.4803 12.9565 4
      vertex 41.356 11.121 4
    endloop
  endfacet
  facet normal 0.999781 0.0209502 0
    outer loop
      vertex 11.621 17.258 2
      vertex 11.664 15.206 4
      vertex 11.664 15.206 2
    endloop
  endfacet
  facet normal 0.999781 0.0209502 -0
    outer loop
      vertex 11.621 17.258 2
      vertex 11.621 17.258 4
      vertex 11.664 15.206 4
    endloop
  endfacet
  facet normal 0.999625 0.0273669 0
    outer loop
      vertex 11.588 18.463 2
      vertex 11.621 17.258 4
      vertex 11.621 17.258 2
    endloop
  endfacet
  facet normal 0.999625 0.0273669 -0
    outer loop
      vertex 11.588 18.463 2
      vertex 11.588 18.463 4
      vertex 11.621 17.258 4
    endloop
  endfacet
  facet normal -0.95787 -0.287202 0
    outer loop
      vertex 11.946 17.269 2
      vertex 11.588 18.463 4
      vertex 11.588 18.463 2
    endloop
  endfacet
  facet normal -0.95787 -0.287202 0
    outer loop
      vertex 11.946 17.269 2
      vertex 11.946 17.269 4
      vertex 11.588 18.463 4
    endloop
  endfacet
  facet normal -0.949963 -0.312362 0
    outer loop
      vertex 12.553 15.423 2
      vertex 11.946 17.269 4
      vertex 11.946 17.269 2
    endloop
  endfacet
  facet normal -0.949963 -0.312362 0
    outer loop
      vertex 12.553 15.423 2
      vertex 12.553 15.423 4
      vertex 11.946 17.269 4
    endloop
  endfacet
  facet normal -0.933581 -0.358366 0
    outer loop
      vertex 16.554 5 2
      vertex 12.553 15.423 4
      vertex 12.553 15.423 2
    endloop
  endfacet
  facet normal -0.933581 -0.358366 0
    outer loop
      vertex 16.554 5 2
      vertex 16.554 5 4
      vertex 12.553 15.423 4
    endloop
  endfacet
  facet normal 0 -1 0
    outer loop
      vertex 18.007 5 2
      vertex 16.554 5 4
      vertex 16.554 5 2
    endloop
  endfacet
  facet normal 0 -1 0
    outer loop
      vertex 18.007 5 2
      vertex 18.007 5 4
      vertex 16.554 5 4
    endloop
  endfacet
  facet normal 0.935222 -0.354062 0
    outer loop
      vertex 21.953 15.423 2
      vertex 18.007 5 4
      vertex 18.007 5 2
    endloop
  endfacet
  facet normal 0.935222 -0.354062 0
    outer loop
      vertex 21.953 15.423 2
      vertex 21.953 15.423 4
      vertex 18.007 5 4
    endloop
  endfacet
  facet normal 0.942015 -0.335572 0
    outer loop
      vertex 22.247 16.2483 2
      vertex 21.953 15.423 4
      vertex 21.953 15.423 2
    endloop
  endfacet
  facet normal 0.942015 -0.335572 0
    outer loop
      vertex 22.247 16.2483 2
      vertex 22.247 16.2483 4
      vertex 21.953 15.423 4
    endloop
  endfacet
  facet normal 0.954124 -0.299412 0
    outer loop
      vertex 22.565 17.2617 2
      vertex 22.247 16.2483 4
      vertex 22.247 16.2483 2
    endloop
  endfacet
  facet normal 0.954124 -0.299412 0
    outer loop
      vertex 22.565 17.2617 2
      vertex 22.565 17.2617 4
      vertex 22.247 16.2483 4
    endloop
  endfacet
  facet normal 0.961784 -0.273811 0
    outer loop
      vertex 22.907 18.463 2
      vertex 22.565 17.2617 4
      vertex 22.565 17.2617 2
    endloop
  endfacet
  facet normal 0.961784 -0.273811 0
    outer loop
      vertex 22.907 18.463 2
      vertex 22.907 18.463 4
      vertex 22.565 17.2617 4
    endloop
  endfacet
  facet normal -0.998702 0.0509425 0
    outer loop
      vertex 22.8531 17.4064 2
      vertex 22.907 18.463 4
      vertex 22.907 18.463 2
    endloop
  endfacet
  facet normal -0.998702 0.0509425 0
    outer loop
      vertex 22.8531 17.4064 2
      vertex 22.8531 17.4064 4
      vertex 22.907 18.463 4
    endloop
  endfacet
  facet normal -0.999557 0.029769 0
    outer loop
      vertex 22.8208 16.3208 2
      vertex 22.8531 17.4064 4
      vertex 22.8531 17.4064 2
    endloop
  endfacet
  facet normal -0.999557 0.029769 0
    outer loop
      vertex 22.8208 16.3208 2
      vertex 22.8208 16.3208 4
      vertex 22.8531 17.4064 4
    endloop
  endfacet
  facet normal -0.999953 0.0096631 0
    outer loop
      vertex 22.81 15.206 2
      vertex 22.8208 16.3208 4
      vertex 22.8208 16.3208 2
    endloop
  endfacet
  facet normal -0.999953 0.0096631 0
    outer loop
      vertex 22.81 15.206 2
      vertex 22.81 15.206 4
      vertex 22.8208 16.3208 4
    endloop
  endfacet
  facet normal -1 0 0
    outer loop
      vertex 22.81 5 2
      vertex 22.81 15.206 4
      vertex 22.81 15.206 2
    endloop
  endfacet
  facet normal -1 0 0
    outer loop
      vertex 22.81 5 2
      vertex 22.81 5 4
      vertex 22.81 15.206 4
    endloop
  endfacet
  facet normal 0 -1 0
    outer loop
      vertex 24.675 5 2
      vertex 22.81 5 4
      vertex 22.81 5 2
    endloop
  endfacet
  facet normal 0 -1 0
    outer loop
      vertex 24.675 5 2
      vertex 24.675 5 4
      vertex 22.81 5 4
    endloop
  endfacet
  facet normal 1 0 0
    outer loop
      vertex 24.675 20.296 2
      vertex 24.675 5 4
      vertex 24.675 5 2
    endloop
  endfacet
  facet normal 1 0 -0
    outer loop
      vertex 24.675 20.296 2
      vertex 24.675 20.296 4
      vertex 24.675 5 4
    endloop
  endfacet
  facet normal 0 1 0
    outer loop
      vertex 22.018 20.296 2
      vertex 24.675 20.296 4
      vertex 24.675 20.296 2
    endloop
  endfacet
  facet normal 0 1 0
    outer loop
      vertex 22.018 20.296 2
      vertex 22.018 20.296 4
      vertex 24.675 20.296 4
    endloop
  endfacet
  facet normal -0.935992 0.352021 0
    outer loop
      vertex 17.9438 9.463 2
      vertex 22.018 20.296 4
      vertex 22.018 20.296 2
    endloop
  endfacet
  facet normal -0.935992 0.352021 0
    outer loop
      vertex 17.9438 9.463 2
      vertex 17.9438 9.463 4
      vertex 22.018 20.296 4
    endloop
  endfacet
  facet normal -0.947657 0.31929 0
    outer loop
      vertex 17.8188 9.092 2
      vertex 17.9438 9.463 4
      vertex 17.9438 9.463 2
    endloop
  endfacet
  facet normal -0.947657 0.31929 0
    outer loop
      vertex 17.8188 9.092 2
      vertex 17.8188 9.092 4
      vertex 17.9438 9.463 4
    endloop
  endfacet
  facet normal -0.952776 0.303673 0
    outer loop
      vertex 17.654 8.575 2
      vertex 17.8188 9.092 4
      vertex 17.8188 9.092 2
    endloop
  endfacet
  facet normal -0.952776 0.303673 0
    outer loop
      vertex 17.654 8.575 2
      vertex 17.654 8.575 4
      vertex 17.8188 9.092 4
    endloop
  endfacet
  facet normal -0.957323 0.28902 0
    outer loop
      vertex 17.491 8.03511 2
      vertex 17.654 8.575 4
      vertex 17.654 8.575 2
    endloop
  endfacet
  facet normal -0.957323 0.28902 0
    outer loop
      vertex 17.491 8.03511 2
      vertex 17.491 8.03511 4
      vertex 17.654 8.575 4
    endloop
  endfacet
  facet normal -0.964153 0.265348 0
    outer loop
      vertex 17.37 7.59544 2
      vertex 17.491 8.03511 4
      vertex 17.491 8.03511 2
    endloop
  endfacet
  facet normal -0.964153 0.265348 0
    outer loop
      vertex 17.37 7.59544 2
      vertex 17.37 7.59544 4
      vertex 17.491 8.03511 4
    endloop
  endfacet
  facet normal -0.973964 0.226701 0
    outer loop
      vertex 17.291 7.256 2
      vertex 17.37 7.59544 4
      vertex 17.37 7.59544 2
    endloop
  endfacet
  facet normal -0.973964 0.226701 0
    outer loop
      vertex 17.291 7.256 2
      vertex 17.291 7.256 4
      vertex 17.37 7.59544 4
    endloop
  endfacet
  facet normal 0.976112 0.217267 0
    outer loop
      vertex 17.2325 7.51855 2
      vertex 17.291 7.256 4
      vertex 17.291 7.256 2
    endloop
  endfacet
  facet normal 0.976112 0.217267 -0
    outer loop
      vertex 17.2325 7.51855 2
      vertex 17.2325 7.51855 4
      vertex 17.291 7.256 4
    endloop
  endfacet
  facet normal 0.969871 0.243621 0
    outer loop
      vertex 17.1439 7.87155 2
      vertex 17.2325 7.51855 4
      vertex 17.2325 7.51855 2
    endloop
  endfacet
  facet normal 0.969871 0.243621 -0
    outer loop
      vertex 17.1439 7.87155 2
      vertex 17.1439 7.87155 4
      vertex 17.2325 7.51855 4
    endloop
  endfacet
  facet normal 0.965892 0.258947 0
    outer loop
      vertex 17.025 8.31499 2
      vertex 17.1439 7.87155 4
      vertex 17.1439 7.87155 2
    endloop
  endfacet
  facet normal 0.965892 0.258947 -0
    outer loop
      vertex 17.025 8.31499 2
      vertex 17.025 8.31499 4
      vertex 17.1439 7.87155 4
    endloop
  endfacet
  facet normal 0.962287 0.272036 0
    outer loop
      vertex 16.8898 8.79332 2
      vertex 17.025 8.31499 4
      vertex 17.025 8.31499 2
    endloop
  endfacet
  facet normal 0.962287 0.272036 -0
    outer loop
      vertex 16.8898 8.79332 2
      vertex 16.8898 8.79332 4
      vertex 17.025 8.31499 4
    endloop
  endfacet
  facet normal 0.956839 0.290618 0
    outer loop
      vertex 16.7508 9.25099 2
      vertex 16.8898 8.79332 4
      vertex 16.8898 8.79332 2
    endloop
  endfacet
  facet normal 0.956839 0.290618 -0
    outer loop
      vertex 16.7508 9.25099 2
      vertex 16.7508 9.25099 4
      vertex 16.8898 8.79332 4
    endloop
  endfacet
  facet normal 0.950552 0.310566 0
    outer loop
      vertex 16.608 9.68799 2
      vertex 16.7508 9.25099 4
      vertex 16.7508 9.25099 2
    endloop
  endfacet
  facet normal 0.950552 0.310566 -0
    outer loop
      vertex 16.608 9.68799 2
      vertex 16.608 9.68799 4
      vertex 16.7508 9.25099 4
    endloop
  endfacet
  facet normal 0.933788 0.357828 0
    outer loop
      vertex 12.543 20.296 2
      vertex 16.608 9.68799 4
      vertex 16.608 9.68799 2
    endloop
  endfacet
  facet normal 0.933788 0.357828 -0
    outer loop
      vertex 12.543 20.296 2
      vertex 12.543 20.296 4
      vertex 16.608 9.68799 4
    endloop
  endfacet
  facet normal 0 1 0
    outer loop
      vertex 9.821 20.296 2
      vertex 12.543 20.296 4
      vertex 12.543 20.296 2
    endloop
  endfacet
  facet normal 0 1 0
    outer loop
      vertex 9.821 20.296 2
      vertex 9.821 20.296 4
      vertex 12.543 20.296 4
    endloop
  endfacet
  facet normal -1 0 0
    outer loop
      vertex 9.821 5 2
      vertex 9.821 20.296 4
      vertex 9.821 20.296 2
    endloop
  endfacet
  facet normal -1 0 0
    outer loop
      vertex 9.821 5 2
      vertex 9.821 5 4
      vertex 9.821 20.296 4
    endloop
  endfacet
  facet normal 0 -1 0
    outer loop
      vertex 11.664 5 2
      vertex 9.821 5 4
      vertex 9.821 5 2
    endloop
  endfacet
  facet normal 0 -1 0
    outer loop
      vertex 11.664 5 2
      vertex 11.664 5 4
      vertex 9.821 5 4
    endloop
  endfacet
  facet normal 1 0 0
    outer loop
      vertex 11.664 15.206 2
      vertex 11.664 5 4
      vertex 11.664 5 2
    endloop
  endfacet
  facet normal 1 0 -0
    outer loop
      vertex 11.664 15.206 2
      vertex 11.664 15.206 4
      vertex 11.664 5 4
    endloop
  endfacet
  facet normal 0 -1 0
    outer loop
      vertex 39.8531 10.979 2
      vertex 35.3741 10.979 4
      vertex 35.3741 10.979 2
    endloop
  endfacet
  facet normal 0 -1 0
    outer loop
      vertex 39.8531 10.979 2
      vertex 39.8531 10.979 4
      vertex 35.3741 10.979 4
    endloop
  endfacet
  facet normal 0.0940583 -0.995567 0
    outer loop
      vertex 41.356 11.121 2
      vertex 39.8531 10.979 4
      vertex 39.8531 10.979 2
    endloop
  endfacet
  facet normal 0.0940583 -0.995567 0
    outer loop
      vertex 41.356 11.121 2
      vertex 41.356 11.121 4
      vertex 39.8531 10.979 4
    endloop
  endfacet
  facet normal 0.31616 -0.948706 0
    outer loop
      vertex 42.6344 11.547 2
      vertex 41.356 11.121 4
      vertex 41.356 11.121 2
    endloop
  endfacet
  facet normal 0.31616 -0.948706 0
    outer loop
      vertex 42.6344 11.547 2
      vertex 42.6344 11.547 4
      vertex 41.356 11.121 4
    endloop
  endfacet
  facet normal 0.558806 -0.829298 0
    outer loop
      vertex 43.688 12.257 2
      vertex 42.6344 11.547 4
      vertex 42.6344 11.547 2
    endloop
  endfacet
  facet normal 0.558806 -0.829298 0
    outer loop
      vertex 43.688 12.257 2
      vertex 43.688 12.257 4
      vertex 42.6344 11.547 4
    endloop
  endfacet
  facet normal 0.771539 -0.636182 0
    outer loop
      vertex 44.4725 13.2083 2
      vertex 43.688 12.257 4
      vertex 43.688 12.257 2
    endloop
  endfacet
  facet normal 0.771539 -0.636182 0
    outer loop
      vertex 44.4725 13.2083 2
      vertex 44.4725 13.2083 4
      vertex 43.688 12.257 4
    endloop
  endfacet
  facet normal 0.925331 -0.37916 0
    outer loop
      vertex 44.9432 14.357 2
      vertex 44.4725 13.2083 4
      vertex 44.4725 13.2083 2
    endloop
  endfacet
  facet normal 0.925331 -0.37916 0
    outer loop
      vertex 44.9432 14.357 2
      vertex 44.9432 14.357 4
      vertex 44.4725 13.2083 4
    endloop
  endfacet
  facet normal 0.993275 -0.115778 0
    outer loop
      vertex 45.1001 15.703 2
      vertex 44.9432 14.357 4
      vertex 44.9432 14.357 2
    endloop
  endfacet
  facet normal 0.993275 -0.115778 0
    outer loop
      vertex 45.1001 15.703 2
      vertex 45.1001 15.703 4
      vertex 44.9432 14.357 4
    endloop
  endfacet
  facet normal 0.993352 0.115114 0
    outer loop
      vertex 44.9437 17.0521 2
      vertex 45.1001 15.703 4
      vertex 45.1001 15.703 2
    endloop
  endfacet
  facet normal 0.993352 0.115114 -0
    outer loop
      vertex 44.9437 17.0521 2
      vertex 44.9437 17.0521 4
      vertex 45.1001 15.703 4
    endloop
  endfacet
  facet normal 0.923608 0.383337 0
    outer loop
      vertex 44.4747 18.1821 2
      vertex 44.9437 17.0521 4
      vertex 44.9437 17.0521 2
    endloop
  endfacet
  facet normal 0.923608 0.383337 -0
    outer loop
      vertex 44.4747 18.1821 2
      vertex 44.4747 18.1821 4
      vertex 44.9437 17.0521 4
    endloop
  endfacet
  facet normal 0.758886 0.651224 0
    outer loop
      vertex 43.6931 19.093 2
      vertex 44.4747 18.1821 4
      vertex 44.4747 18.1821 2
    endloop
  endfacet
  facet normal 0.758886 0.651224 -0
    outer loop
      vertex 43.6931 19.093 2
      vertex 43.6931 19.093 4
      vertex 44.4747 18.1821 4
    endloop
  endfacet
  facet normal 0.530952 0.847402 0
    outer loop
      vertex 42.6264 19.7613 2
      vertex 43.6931 19.093 4
      vertex 43.6931 19.093 2
    endloop
  endfacet
  facet normal 0.530952 0.847402 -0
    outer loop
      vertex 42.6264 19.7613 2
      vertex 42.6264 19.7613 4
      vertex 43.6931 19.093 4
    endloop
  endfacet
  facet normal 0.289867 0.957067 0
    outer loop
      vertex 41.3024 20.1623 2
      vertex 42.6264 19.7613 4
      vertex 42.6264 19.7613 2
    endloop
  endfacet
  facet normal 0.289867 0.957067 -0
    outer loop
      vertex 41.3024 20.1623 2
      vertex 41.3024 20.1623 4
      vertex 42.6264 19.7613 4
    endloop
  endfacet
  facet normal 0.0842279 0.996447 0
    outer loop
      vertex 39.7211 20.296 2
      vertex 41.3024 20.1623 4
      vertex 41.3024 20.1623 2
    endloop
  endfacet
  facet normal 0.0842279 0.996447 -0
    outer loop
      vertex 39.7211 20.296 2
      vertex 39.7211 20.296 4
      vertex 41.3024 20.1623 4
    endloop
  endfacet
  facet normal 0 1 0
    outer loop
      vertex 33.3031 20.296 2
      vertex 39.7211 20.296 4
      vertex 39.7211 20.296 2
    endloop
  endfacet
  facet normal 0 1 0
    outer loop
      vertex 33.3031 20.296 2
      vertex 33.3031 20.296 4
      vertex 39.7211 20.296 4
    endloop
  endfacet
  facet normal -1 0 0
    outer loop
      vertex 33.3031 5 2
      vertex 33.3031 20.296 4
      vertex 33.3031 20.296 2
    endloop
  endfacet
  facet normal -1 0 0
    outer loop
      vertex 33.3031 5 2
      vertex 33.3031 5 4
      vertex 33.3031 20.296 4
    endloop
  endfacet
  facet normal 0 -1 0
    outer loop
      vertex 35.3741 5 2
      vertex 33.3031 5 4
      vertex 33.3031 5 2
    endloop
  endfacet
  facet normal 0 -1 0
    outer loop
      vertex 35.3741 5 2
      vertex 35.3741 5 4
      vertex 33.3031 5 4
    endloop
  endfacet
  facet normal 1 0 0
    outer loop
      vertex 35.3741 10.979 2
      vertex 35.3741 5 4
      vertex 35.3741 5 2
    endloop
  endfacet
  facet normal 1 0 -0
    outer loop
      vertex 35.3741 10.979 2
      vertex 35.3741 10.979 4
      vertex 35.3741 5 4
    endloop
  endfacet
  facet normal 1 0 -0
    outer loop
      vertex 35.3741 18.637 2
      vertex 35.3741 18.637 4
      vertex 35.3741 12.616 2
    endloop
  endfacet
  facet normal 1 -0 0
    outer loop
      vertex 35.3741 12.616 4
      vertex 35.3741 12.616 2
      vertex 35.3741 18.637 4
    endloop
  endfacet
  facet normal 0 -1 0
    outer loop
      vertex 39.472 18.637 2
      vertex 39.472 18.637 4
      vertex 35.3741 18.637 2
    endloop
  endfacet
  facet normal 0 -1 0
    outer loop
      vertex 35.3741 18.637 4
      vertex 35.3741 18.637 2
      vertex 39.472 18.637 4
    endloop
  endfacet
  facet normal -0.164454 -0.986385 0
    outer loop
      vertex 41.442 18.3085 2
      vertex 41.442 18.3085 4
      vertex 39.472 18.637 2
    endloop
  endfacet
  facet normal -0.164454 -0.986385 -0
    outer loop
      vertex 39.472 18.637 4
      vertex 39.472 18.637 2
      vertex 41.442 18.3085 4
    endloop
  endfacet
  facet normal -0.640311 -0.768116 0
    outer loop
      vertex 42.6241 17.3232 2
      vertex 42.6241 17.3232 4
      vertex 41.442 18.3085 2
    endloop
  endfacet
  facet normal -0.640311 -0.768116 -0
    outer loop
      vertex 41.442 18.3085 4
      vertex 41.442 18.3085 2
      vertex 42.6241 17.3232 4
    endloop
  endfacet
  facet normal -0.972405 -0.233298 0
    outer loop
      vertex 43.0181 15.681 2
      vertex 43.0181 15.681 4
      vertex 42.6241 17.3232 2
    endloop
  endfacet
  facet normal -0.972405 -0.233298 -0
    outer loop
      vertex 42.6241 17.3232 4
      vertex 42.6241 17.3232 2
      vertex 43.0181 15.681 4
    endloop
  endfacet
  facet normal -0.975448 0.220231 0
    outer loop
      vertex 42.6336 13.9782 2
      vertex 42.6336 13.9782 4
      vertex 43.0181 15.681 2
    endloop
  endfacet
  facet normal -0.975448 0.220231 0
    outer loop
      vertex 43.0181 15.681 4
      vertex 43.0181 15.681 2
      vertex 42.6336 13.9782 4
    endloop
  endfacet
  facet normal -0.663087 0.748543 0
    outer loop
      vertex 41.4803 12.9565 2
      vertex 41.4803 12.9565 4
      vertex 42.6336 13.9782 2
    endloop
  endfacet
  facet normal -0.663087 0.748543 0
    outer loop
      vertex 42.6336 13.9782 4
      vertex 42.6336 13.9782 2
      vertex 41.4803 12.9565 4
    endloop
  endfacet
  facet normal -0.174446 0.984667 0
    outer loop
      vertex 39.558 12.616 2
      vertex 39.558 12.616 4
      vertex 41.4803 12.9565 2
    endloop
  endfacet
  facet normal -0.174446 0.984667 0
    outer loop
      vertex 41.4803 12.9565 4
      vertex 41.4803 12.9565 2
      vertex 39.558 12.616 4
    endloop
  endfacet
  facet normal 0 1 0
    outer loop
      vertex 35.3741 12.616 2
      vertex 35.3741 12.616 4
      vertex 39.558 12.616 2
    endloop
  endfacet
  facet normal 0 1 0
    outer loop
      vertex 39.558 12.616 4
      vertex 39.558 12.616 2
      vertex 35.3741 12.616 4
    endloop
  endfacet
endsolid OpenSCAD_Model
