solid OpenSCAD_Model
  facet normal 0 0 -1
    outer loop
      vertex 45.1301 0.882233 2
      vertex 45.3651 2.38968 2
      vertex 45.793 1.01501 2
    endloop
  endfacet
  facet normal 0 0 -1
    outer loop
      vertex 44.9491 2.34268 2
      vertex 45.3651 2.38968 2
      vertex 45.1301 0.882233 2
    endloop
  endfacet
  facet normal 0 0 -1
    outer loop
      vertex 45.3651 2.38968 2
      vertex 45.793 2.468 2
      vertex 45.793 1.01501 2
    endloop
  endfacet
  facet normal 0 0 -1
    outer loop
      vertex 44.545 2.32701 2
      vertex 44.9491 2.34268 2
      vertex 45.1301 0.882233 2
    endloop
  endfacet
  facet normal 0 0 -1
    outer loop
      vertex 44.4864 0.802567 2
      vertex 44.545 2.32701 2
      vertex 45.1301 0.882233 2
    endloop
  endfacet
  facet normal -0 0 -1
    outer loop
      vertex 44.4864 0.802567 2
      vertex 43.862 0.776001 2
      vertex 44.545 2.32701 2
    endloop
  endfacet
  facet normal -0 0 -1
    outer loop
      vertex 44.545 2.32701 2
      vertex 43.862 0.776001 2
      vertex 43.8504 2.39479 2
    endloop
  endfacet
  facet normal -0 0 -1
    outer loop
      vertex 43.8504 2.39479 2
      vertex 42.8345 0.879227 2
      vertex 43.2411 2.59811 2
    endloop
  endfacet
  facet normal 0 0 -1
    outer loop
      vertex 41.166 1.705 2
      vertex 42.267 3.42767 2
      vertex 42.7171 2.93701 2
    endloop
  endfacet
  facet normal 0 0 -1
    outer loop
      vertex 39.9274 3.49701 2
      vertex 41.8784 4.08768 2
      vertex 40.504 2.46268 2
    endloop
  endfacet
  facet normal 0 0 -1
    outer loop
      vertex 43.3413 5.35933 2
      vertex 41.7369 6.62633 2
      vertex 43.0913 7.17032 2
    endloop
  endfacet
  facet normal 0 0 -1
    outer loop
      vertex 35.2846 9.38699 2
      vertex 32.901 9.85988 2
      vertex 34.8019 10.907 2
    endloop
  endfacet
  facet normal -0 0 -1
    outer loop
      vertex 46.9789 8.89377 2
      vertex 46.0751 7.37799 2
      vertex 44.9587 9.31499 2
    endloop
  endfacet
  facet normal -0 0 -1
    outer loop
      vertex 47.5213 10.6651 2
      vertex 46.9789 8.89377 2
      vertex 45.4307 10.853 2
    endloop
  endfacet
  facet normal 0 0 -1
    outer loop
      vertex 44.1721 8.077 2
      vertex 46.0751 7.37799 2
      vertex 44.8493 6.17966 2
    endloop
  endfacet
  facet normal 0 0 -1
    outer loop
      vertex 45.5881 12.691 2
      vertex 47.7021 12.692 2
      vertex 47.5213 10.6651 2
    endloop
  endfacet
  facet normal -0 0 -1
    outer loop
      vertex 42.9652 20.076 2
      vertex 41.7362 18.6152 2
      vertex 41.6165 20.385 2
    endloop
  endfacet
  facet normal 0 0 -1
    outer loop
      vertex 40.1311 18.796 2
      vertex 41.6165 20.385 2
      vertex 41.7362 18.6152 2
    endloop
  endfacet
  facet normal 0 0 -1
    outer loop
      vertex 44.1611 17.169 2
      vertex 43.0795 18.0729 2
      vertex 45.2289 18.8495 2
    endloop
  endfacet
  facet normal 0 0 -1
    outer loop
      vertex 44.9538 15.9488 2
      vertex 44.1611 17.169 2
      vertex 46.1023 17.9512 2
    endloop
  endfacet
  facet normal 0 0 -1
    outer loop
      vertex 40.1301 20.488 2
      vertex 38.513 18.6177 2
      vertex 37.9187 20.2584 2
    endloop
  endfacet
  facet normal -0 0 -1
    outer loop
      vertex 46.7961 16.866 2
      vertex 44.9538 15.9488 2
      vertex 46.1023 17.9512 2
    endloop
  endfacet
  facet normal 0 0 -1
    outer loop
      vertex 22.907 18.463 2
      vertex 22.018 20.296 2
      vertex 24.675 20.296 2
    endloop
  endfacet
  facet normal 0 0 -1
    outer loop
      vertex 35.2775 15.9777 2
      vertex 34.8002 14.4777 2
      vertex 32.7601 14.9571 2
    endloop
  endfacet
  facet normal 0 -0 -1
    outer loop
      vertex 36.0567 19.5698 2
      vertex 36.073 17.191 2
      vertex 34.5441 18.422 2
    endloop
  endfacet
  facet normal 0 -0 -1
    outer loop
      vertex 37.9187 20.2584 2
      vertex 38.513 18.6177 2
      vertex 37.1604 18.0827 2
    endloop
  endfacet
  facet normal 0 0 -1
    outer loop
      vertex 22.018 20.296 2
      vertex 22.565 17.2617 2
      vertex 22.247 16.2483 2
    endloop
  endfacet
  facet normal 0 0 -1
    outer loop
      vertex 39.4361 4.80801 2
      vertex 38.5197 6.63232 2
      vertex 40.1091 6.44499 2
    endloop
  endfacet
  facet normal 0 -0 -1
    outer loop
      vertex 36.0891 8.131 2
      vertex 37.1797 7.19432 2
      vertex 35.731 5.89699 2
    endloop
  endfacet
  facet normal 0 -0 -1
    outer loop
      vertex 17.8188 9.092 2
      vertex 18.007 5 2
      vertex 17.654 8.575 2
    endloop
  endfacet
  facet normal 0 -0 -1
    outer loop
      vertex 37.1797 7.19432 2
      vertex 38.5197 6.63232 2
      vertex 36.8347 5.34 2
    endloop
  endfacet
  facet normal 0 0 -1
    outer loop
      vertex 36.8347 5.34 2
      vertex 38.5197 6.63232 2
      vertex 38.0697 4.97701 2
    endloop
  endfacet
  facet normal 0 0 -1
    outer loop
      vertex 17.9438 9.463 2
      vertex 21.953 15.423 2
      vertex 18.007 5 2
    endloop
  endfacet
  facet normal 0 0 -1
    outer loop
      vertex 38.0697 4.97701 2
      vertex 38.5197 6.63232 2
      vertex 39.4361 4.80801 2
    endloop
  endfacet
  facet normal 0 0 -1
    outer loop
      vertex 34.7756 6.6371 2
      vertex 36.0891 8.131 2
      vertex 35.731 5.89699 2
    endloop
  endfacet
  facet normal 0 0 -1
    outer loop
      vertex 11.946 17.269 2
      vertex 11.588 18.463 2
      vertex 12.543 20.296 2
    endloop
  endfacet
  facet normal 0 0 -1
    outer loop
      vertex 33.9839 7.54811 2
      vertex 36.0891 8.131 2
      vertex 34.7756 6.6371 2
    endloop
  endfacet
  facet normal 0 0 -1
    outer loop
      vertex 24.675 5 2
      vertex 22.81 5 2
      vertex 22.81 15.206 2
    endloop
  endfacet
  facet normal 0 0 -1
    outer loop
      vertex 40.504 2.46268 2
      vertex 41.8784 4.08768 2
      vertex 42.267 3.42767 2
    endloop
  endfacet
  facet normal 0 0 -1
    outer loop
      vertex 41.9358 1.1889 2
      vertex 41.166 1.705 2
      vertex 42.7171 2.93701 2
    endloop
  endfacet
  facet normal 0 0 -1
    outer loop
      vertex 39.9274 3.49701 2
      vertex 41.5511 4.91701 2
      vertex 41.8784 4.08768 2
    endloop
  endfacet
  facet normal 0 -0 -1
    outer loop
      vertex 40.1091 6.44499 2
      vertex 41.5511 4.91701 2
      vertex 39.4361 4.80801 2
    endloop
  endfacet
  facet normal 0 0 -1
    outer loop
      vertex 39.4361 4.80801 2
      vertex 41.5511 4.91701 2
      vertex 39.9274 3.49701 2
    endloop
  endfacet
  facet normal 0 0 -1
    outer loop
      vertex 40.504 2.46268 2
      vertex 42.267 3.42767 2
      vertex 41.166 1.705 2
    endloop
  endfacet
  facet normal -0 0 -1
    outer loop
      vertex 43.2411 2.59811 2
      vertex 41.9358 1.1889 2
      vertex 42.7171 2.93701 2
    endloop
  endfacet
  facet normal 0 0 -1
    outer loop
      vertex 43.2411 2.59811 2
      vertex 42.8345 0.879227 2
      vertex 41.9358 1.1889 2
    endloop
  endfacet
  facet normal 0 -0 -1
    outer loop
      vertex 43.8504 2.39479 2
      vertex 43.862 0.776001 2
      vertex 42.8345 0.879227 2
    endloop
  endfacet
  facet normal 0 0 -1
    outer loop
      vertex 44.9538 15.9488 2
      vertex 47.2994 15.6169 2
      vertex 45.4295 14.4561 2
    endloop
  endfacet
  facet normal 0 0 -1
    outer loop
      vertex 33.356 8.62999 2
      vertex 35.2846 9.38699 2
      vertex 33.9839 7.54811 2
    endloop
  endfacet
  facet normal 0 0 -1
    outer loop
      vertex 37.1797 7.19432 2
      vertex 36.8347 5.34 2
      vertex 35.731 5.89699 2
    endloop
  endfacet
  facet normal -0 0 -1
    outer loop
      vertex 47.7021 12.692 2
      vertex 45.5881 12.691 2
      vertex 47.6014 14.2256 2
    endloop
  endfacet
  facet normal 0 0 -1
    outer loop
      vertex 33.9839 7.54811 2
      vertex 35.2846 9.38699 2
      vertex 36.0891 8.131 2
    endloop
  endfacet
  facet normal 0 0 -1
    outer loop
      vertex 33.356 8.62999 2
      vertex 32.901 9.85988 2
      vertex 35.2846 9.38699 2
    endloop
  endfacet
  facet normal 0 0 -1
    outer loop
      vertex 34.8019 10.907 2
      vertex 32.6281 11.2135 2
      vertex 34.6411 12.691 2
    endloop
  endfacet
  facet normal 0 0 -1
    outer loop
      vertex 32.901 9.85988 2
      vertex 32.6281 11.2135 2
      vertex 34.8019 10.907 2
    endloop
  endfacet
  facet normal 0 0 -1
    outer loop
      vertex 34.6411 12.691 2
      vertex 32.537 12.691 2
      vertex 34.8002 14.4777 2
    endloop
  endfacet
  facet normal 0 0 -1
    outer loop
      vertex 32.6281 11.2135 2
      vertex 32.537 12.691 2
      vertex 34.6411 12.691 2
    endloop
  endfacet
  facet normal -0 0 -1
    outer loop
      vertex 34.8002 14.4777 2
      vertex 32.537 12.691 2
      vertex 32.7601 14.9571 2
    endloop
  endfacet
  facet normal 0 0 -1
    outer loop
      vertex 35.2775 15.9777 2
      vertex 33.429 16.8674 2
      vertex 34.5441 18.422 2
    endloop
  endfacet
  facet normal 0 0 -1
    outer loop
      vertex 32.7601 14.9571 2
      vertex 33.429 16.8674 2
      vertex 35.2775 15.9777 2
    endloop
  endfacet
  facet normal -0 0 -1
    outer loop
      vertex 36.073 17.191 2
      vertex 35.2775 15.9777 2
      vertex 34.5441 18.422 2
    endloop
  endfacet
  facet normal -0 0 -1
    outer loop
      vertex 37.1604 18.0827 2
      vertex 36.073 17.191 2
      vertex 36.0567 19.5698 2
    endloop
  endfacet
  facet normal 0 0 -1
    outer loop
      vertex 37.9187 20.2584 2
      vertex 37.1604 18.0827 2
      vertex 36.0567 19.5698 2
    endloop
  endfacet
  facet normal 0 0 -1
    outer loop
      vertex 40.1311 18.796 2
      vertex 40.1301 20.488 2
      vertex 41.6165 20.385 2
    endloop
  endfacet
  facet normal 0 0 -1
    outer loop
      vertex 38.513 18.6177 2
      vertex 40.1301 20.488 2
      vertex 40.1311 18.796 2
    endloop
  endfacet
  facet normal 0 -0 -1
    outer loop
      vertex 42.9652 20.076 2
      vertex 43.0795 18.0729 2
      vertex 41.7362 18.6152 2
    endloop
  endfacet
  facet normal 0 0 -1
    outer loop
      vertex 43.0795 18.0729 2
      vertex 44.1761 19.561 2
      vertex 45.2289 18.8495 2
    endloop
  endfacet
  facet normal 0 0 -1
    outer loop
      vertex 42.9652 20.076 2
      vertex 44.1761 19.561 2
      vertex 43.0795 18.0729 2
    endloop
  endfacet
  facet normal 0 0 -1
    outer loop
      vertex 44.1611 17.169 2
      vertex 45.2289 18.8495 2
      vertex 46.1023 17.9512 2
    endloop
  endfacet
  facet normal 0 -0 -1
    outer loop
      vertex 46.7961 16.866 2
      vertex 47.2994 15.6169 2
      vertex 44.9538 15.9488 2
    endloop
  endfacet
  facet normal 0 0 -1
    outer loop
      vertex 45.4295 14.4561 2
      vertex 47.6014 14.2256 2
      vertex 45.5881 12.691 2
    endloop
  endfacet
  facet normal 0 -0 -1
    outer loop
      vertex 47.2994 15.6169 2
      vertex 47.6014 14.2256 2
      vertex 45.4295 14.4561 2
    endloop
  endfacet
  facet normal 0 0 -1
    outer loop
      vertex 47.5213 10.6651 2
      vertex 45.4307 10.853 2
      vertex 45.5881 12.691 2
    endloop
  endfacet
  facet normal 0 0 -1
    outer loop
      vertex 46.9789 8.89377 2
      vertex 44.9587 9.31499 2
      vertex 45.4307 10.853 2
    endloop
  endfacet
  facet normal 0 0 -1
    outer loop
      vertex 46.0751 7.37799 2
      vertex 44.1721 8.077 2
      vertex 44.9587 9.31499 2
    endloop
  endfacet
  facet normal 0 0 -1
    outer loop
      vertex 44.8493 6.17966 2
      vertex 43.0913 7.17032 2
      vertex 44.1721 8.077 2
    endloop
  endfacet
  facet normal -0 0 -1
    outer loop
      vertex 44.8493 6.17966 2
      vertex 43.3413 5.35933 2
      vertex 43.0913 7.17032 2
    endloop
  endfacet
  facet normal -0 0 -1
    outer loop
      vertex 43.3413 5.35933 2
      vertex 41.5511 4.91701 2
      vertex 41.7369 6.62633 2
    endloop
  endfacet
  facet normal 0 0 -1
    outer loop
      vertex 41.7369 6.62633 2
      vertex 41.5511 4.91701 2
      vertex 40.1091 6.44499 2
    endloop
  endfacet
  facet normal 0 0 -1
    outer loop
      vertex 9.821 20.296 2
      vertex 11.588 18.463 2
      vertex 11.621 17.258 2
    endloop
  endfacet
  facet normal 0 0 -1
    outer loop
      vertex 11.664 15.206 2
      vertex 9.821 20.296 2
      vertex 11.621 17.258 2
    endloop
  endfacet
  facet normal -0 0 -1
    outer loop
      vertex 11.664 15.206 2
      vertex 9.821 5 2
      vertex 9.821 20.296 2
    endloop
  endfacet
  facet normal 0 -0 -1
    outer loop
      vertex 17.2325 7.51855 2
      vertex 17.291 7.256 2
      vertex 16.554 5 2
    endloop
  endfacet
  facet normal -0 0 -1
    outer loop
      vertex 22.247 16.2483 2
      vertex 21.953 15.423 2
      vertex 22.018 20.296 2
    endloop
  endfacet
  facet normal 0 -0 -1
    outer loop
      vertex 17.654 8.575 2
      vertex 18.007 5 2
      vertex 17.491 8.03511 2
    endloop
  endfacet
  facet normal 0 0 -1
    outer loop
      vertex 24.675 20.296 2
      vertex 22.8208 16.3208 2
      vertex 22.8531 17.4064 2
    endloop
  endfacet
  facet normal 0 0 -1
    outer loop
      vertex 22.018 20.296 2
      vertex 22.907 18.463 2
      vertex 22.565 17.2617 2
    endloop
  endfacet
  facet normal 0 -0 -1
    outer loop
      vertex 22.907 18.463 2
      vertex 24.675 20.296 2
      vertex 22.8531 17.4064 2
    endloop
  endfacet
  facet normal 0 -0 -1
    outer loop
      vertex 17.9438 9.463 2
      vertex 18.007 5 2
      vertex 17.8188 9.092 2
    endloop
  endfacet
  facet normal 0 0 -1
    outer loop
      vertex 11.946 17.269 2
      vertex 12.543 20.296 2
      vertex 12.553 15.423 2
    endloop
  endfacet
  facet normal 0 0 -1
    outer loop
      vertex 22.81 15.206 2
      vertex 24.675 20.296 2
      vertex 24.675 5 2
    endloop
  endfacet
  facet normal 0 -0 -1
    outer loop
      vertex 22.8208 16.3208 2
      vertex 24.675 20.296 2
      vertex 22.81 15.206 2
    endloop
  endfacet
  facet normal -0 0 -1
    outer loop
      vertex 21.953 15.423 2
      vertex 17.9438 9.463 2
      vertex 22.018 20.296 2
    endloop
  endfacet
  facet normal 0 -0 -1
    outer loop
      vertex 11.664 15.206 2
      vertex 11.664 5 2
      vertex 9.821 5 2
    endloop
  endfacet
  facet normal 0 -0 -1
    outer loop
      vertex 17.491 8.03511 2
      vertex 18.007 5 2
      vertex 17.37 7.59544 2
    endloop
  endfacet
  facet normal 0 -0 -1
    outer loop
      vertex 17.37 7.59544 2
      vertex 18.007 5 2
      vertex 17.291 7.256 2
    endloop
  endfacet
  facet normal 0 -0 -1
    outer loop
      vertex 17.291 7.256 2
      vertex 18.007 5 2
      vertex 16.554 5 2
    endloop
  endfacet
  facet normal -0 0 -1
    outer loop
      vertex 17.2325 7.51855 2
      vertex 16.554 5 2
      vertex 17.1439 7.87155 2
    endloop
  endfacet
  facet normal -0 0 -1
    outer loop
      vertex 17.1439 7.87155 2
      vertex 16.554 5 2
      vertex 17.025 8.31499 2
    endloop
  endfacet
  facet normal 0 -0 -1
    outer loop
      vertex 16.8898 8.79332 2
      vertex 17.025 8.31499 2
      vertex 16.554 5 2
    endloop
  endfacet
  facet normal 0 -0 -1
    outer loop
      vertex 16.7508 9.25099 2
      vertex 16.8898 8.79332 2
      vertex 16.554 5 2
    endloop
  endfacet
  facet normal 0 -0 -1
    outer loop
      vertex 16.608 9.68799 2
      vertex 16.7508 9.25099 2
      vertex 16.554 5 2
    endloop
  endfacet
  facet normal 0 0 -1
    outer loop
      vertex 12.553 15.423 2
      vertex 16.608 9.68799 2
      vertex 16.554 5 2
    endloop
  endfacet
  facet normal -0 0 -1
    outer loop
      vertex 12.543 20.296 2
      vertex 11.588 18.463 2
      vertex 9.821 20.296 2
    endloop
  endfacet
  facet normal 0 0 -1
    outer loop
      vertex 12.553 15.423 2
      vertex 12.543 20.296 2
      vertex 16.608 9.68799 2
    endloop
  endfacet
  facet normal 0 0 1
    outer loop
      vertex 45.793 1.01501 4
      vertex 45.3651 2.38968 4
      vertex 45.1301 0.882233 4
    endloop
  endfacet
  facet normal 0 -0 1
    outer loop
      vertex 45.1301 0.882233 4
      vertex 45.3651 2.38968 4
      vertex 44.9491 2.34268 4
    endloop
  endfacet
  facet normal 0 -0 1
    outer loop
      vertex 45.793 1.01501 4
      vertex 45.793 2.468 4
      vertex 45.3651 2.38968 4
    endloop
  endfacet
  facet normal 0 0 1
    outer loop
      vertex 45.1301 0.882233 4
      vertex 44.9491 2.34268 4
      vertex 44.545 2.32701 4
    endloop
  endfacet
  facet normal 0 0 1
    outer loop
      vertex 45.1301 0.882233 4
      vertex 44.545 2.32701 4
      vertex 44.4864 0.802567 4
    endloop
  endfacet
  facet normal 0 0 1
    outer loop
      vertex 44.545 2.32701 4
      vertex 43.862 0.776001 4
      vertex 44.4864 0.802567 4
    endloop
  endfacet
  facet normal 0 0 1
    outer loop
      vertex 43.8504 2.39479 4
      vertex 43.862 0.776001 4
      vertex 44.545 2.32701 4
    endloop
  endfacet
  facet normal 0 0 1
    outer loop
      vertex 43.2411 2.59811 4
      vertex 42.8345 0.879227 4
      vertex 43.8504 2.39479 4
    endloop
  endfacet
  facet normal 0 0 1
    outer loop
      vertex 42.7171 2.93701 4
      vertex 42.267 3.42767 4
      vertex 41.166 1.705 4
    endloop
  endfacet
  facet normal 0 -0 1
    outer loop
      vertex 40.504 2.46268 4
      vertex 41.8784 4.08768 4
      vertex 39.9274 3.49701 4
    endloop
  endfacet
  facet normal 0 0 1
    outer loop
      vertex 43.0913 7.17032 4
      vertex 41.7369 6.62633 4
      vertex 43.3413 5.35933 4
    endloop
  endfacet
  facet normal 0 0 1
    outer loop
      vertex 34.8019 10.907 4
      vertex 32.901 9.85988 4
      vertex 35.2846 9.38699 4
    endloop
  endfacet
  facet normal 0 0 1
    outer loop
      vertex 44.9587 9.31499 4
      vertex 46.0751 7.37799 4
      vertex 46.9789 8.89377 4
    endloop
  endfacet
  facet normal 0 0 1
    outer loop
      vertex 45.4307 10.853 4
      vertex 46.9789 8.89377 4
      vertex 47.5213 10.6651 4
    endloop
  endfacet
  facet normal 0 -0 1
    outer loop
      vertex 44.8493 6.17966 4
      vertex 46.0751 7.37799 4
      vertex 44.1721 8.077 4
    endloop
  endfacet
  facet normal 0 -0 1
    outer loop
      vertex 47.5213 10.6651 4
      vertex 47.7021 12.692 4
      vertex 45.5881 12.691 4
    endloop
  endfacet
  facet normal 0 0 1
    outer loop
      vertex 41.6165 20.385 4
      vertex 41.7362 18.6152 4
      vertex 42.9652 20.076 4
    endloop
  endfacet
  facet normal 0 0 1
    outer loop
      vertex 41.7362 18.6152 4
      vertex 41.6165 20.385 4
      vertex 40.1311 18.796 4
    endloop
  endfacet
  facet normal 0 0 1
    outer loop
      vertex 45.2289 18.8495 4
      vertex 43.0795 18.0729 4
      vertex 44.1611 17.169 4
    endloop
  endfacet
  facet normal 0 0 1
    outer loop
      vertex 46.1023 17.9512 4
      vertex 44.1611 17.169 4
      vertex 44.9538 15.9488 4
    endloop
  endfacet
  facet normal -0 0 1
    outer loop
      vertex 37.9187 20.2584 4
      vertex 38.513 18.6177 4
      vertex 40.1301 20.488 4
    endloop
  endfacet
  facet normal 0 0 1
    outer loop
      vertex 46.1023 17.9512 4
      vertex 44.9538 15.9488 4
      vertex 46.7961 16.866 4
    endloop
  endfacet
  facet normal 0 0 1
    outer loop
      vertex 24.675 20.296 4
      vertex 22.018 20.296 4
      vertex 22.907 18.463 4
    endloop
  endfacet
  facet normal -0 0 1
    outer loop
      vertex 32.7601 14.9571 4
      vertex 34.8002 14.4777 4
      vertex 35.2775 15.9777 4
    endloop
  endfacet
  facet normal -0 0 1
    outer loop
      vertex 34.5441 18.422 4
      vertex 36.073 17.191 4
      vertex 36.0567 19.5698 4
    endloop
  endfacet
  facet normal 0 0 1
    outer loop
      vertex 37.1604 18.0827 4
      vertex 38.513 18.6177 4
      vertex 37.9187 20.2584 4
    endloop
  endfacet
  facet normal 0 -0 1
    outer loop
      vertex 22.247 16.2483 4
      vertex 22.565 17.2617 4
      vertex 22.018 20.296 4
    endloop
  endfacet
  facet normal 0 0 1
    outer loop
      vertex 40.1091 6.44499 4
      vertex 38.5197 6.63232 4
      vertex 39.4361 4.80801 4
    endloop
  endfacet
  facet normal 0 0 1
    outer loop
      vertex 35.731 5.89699 4
      vertex 37.1797 7.19432 4
      vertex 36.0891 8.131 4
    endloop
  endfacet
  facet normal -0 0 1
    outer loop
      vertex 17.654 8.575 4
      vertex 18.007 5 4
      vertex 17.8188 9.092 4
    endloop
  endfacet
  facet normal 0 0 1
    outer loop
      vertex 36.8347 5.34 4
      vertex 38.5197 6.63232 4
      vertex 37.1797 7.19432 4
    endloop
  endfacet
  facet normal 0 -0 1
    outer loop
      vertex 38.0697 4.97701 4
      vertex 38.5197 6.63232 4
      vertex 36.8347 5.34 4
    endloop
  endfacet
  facet normal 0 -0 1
    outer loop
      vertex 18.007 5 4
      vertex 21.953 15.423 4
      vertex 17.9438 9.463 4
    endloop
  endfacet
  facet normal 0 0 1
    outer loop
      vertex 39.4361 4.80801 4
      vertex 38.5197 6.63232 4
      vertex 38.0697 4.97701 4
    endloop
  endfacet
  facet normal 0 -0 1
    outer loop
      vertex 35.731 5.89699 4
      vertex 36.0891 8.131 4
      vertex 34.7756 6.6371 4
    endloop
  endfacet
  facet normal 0 0 1
    outer loop
      vertex 12.543 20.296 4
      vertex 11.588 18.463 4
      vertex 11.946 17.269 4
    endloop
  endfacet
  facet normal 0 -0 1
    outer loop
      vertex 34.7756 6.6371 4
      vertex 36.0891 8.131 4
      vertex 33.9839 7.54811 4
    endloop
  endfacet
  facet normal 0 0 1
    outer loop
      vertex 22.81 15.206 4
      vertex 22.81 5 4
      vertex 24.675 5 4
    endloop
  endfacet
  facet normal 0 0 1
    outer loop
      vertex 42.267 3.42767 4
      vertex 41.8784 4.08768 4
      vertex 40.504 2.46268 4
    endloop
  endfacet
  facet normal 0 0 1
    outer loop
      vertex 42.7171 2.93701 4
      vertex 41.166 1.705 4
      vertex 41.9358 1.1889 4
    endloop
  endfacet
  facet normal 0 0 1
    outer loop
      vertex 41.8784 4.08768 4
      vertex 41.5511 4.91701 4
      vertex 39.9274 3.49701 4
    endloop
  endfacet
  facet normal 0 0 1
    outer loop
      vertex 39.4361 4.80801 4
      vertex 41.5511 4.91701 4
      vertex 40.1091 6.44499 4
    endloop
  endfacet
  facet normal 0 -0 1
    outer loop
      vertex 39.9274 3.49701 4
      vertex 41.5511 4.91701 4
      vertex 39.4361 4.80801 4
    endloop
  endfacet
  facet normal 0 -0 1
    outer loop
      vertex 41.166 1.705 4
      vertex 42.267 3.42767 4
      vertex 40.504 2.46268 4
    endloop
  endfacet
  facet normal 0 0 1
    outer loop
      vertex 42.7171 2.93701 4
      vertex 41.9358 1.1889 4
      vertex 43.2411 2.59811 4
    endloop
  endfacet
  facet normal -0 0 1
    outer loop
      vertex 41.9358 1.1889 4
      vertex 42.8345 0.879227 4
      vertex 43.2411 2.59811 4
    endloop
  endfacet
  facet normal -0 0 1
    outer loop
      vertex 42.8345 0.879227 4
      vertex 43.862 0.776001 4
      vertex 43.8504 2.39479 4
    endloop
  endfacet
  facet normal 0 -0 1
    outer loop
      vertex 45.4295 14.4561 4
      vertex 47.2994 15.6169 4
      vertex 44.9538 15.9488 4
    endloop
  endfacet
  facet normal 0 -0 1
    outer loop
      vertex 33.9839 7.54811 4
      vertex 35.2846 9.38699 4
      vertex 33.356 8.62999 4
    endloop
  endfacet
  facet normal -0 0 1
    outer loop
      vertex 35.731 5.89699 4
      vertex 36.8347 5.34 4
      vertex 37.1797 7.19432 4
    endloop
  endfacet
  facet normal 0 0 1
    outer loop
      vertex 47.6014 14.2256 4
      vertex 45.5881 12.691 4
      vertex 47.7021 12.692 4
    endloop
  endfacet
  facet normal 0 0 1
    outer loop
      vertex 36.0891 8.131 4
      vertex 35.2846 9.38699 4
      vertex 33.9839 7.54811 4
    endloop
  endfacet
  facet normal 0 0 1
    outer loop
      vertex 35.2846 9.38699 4
      vertex 32.901 9.85988 4
      vertex 33.356 8.62999 4
    endloop
  endfacet
  facet normal 0 0 1
    outer loop
      vertex 34.6411 12.691 4
      vertex 32.6281 11.2135 4
      vertex 34.8019 10.907 4
    endloop
  endfacet
  facet normal 0 0 1
    outer loop
      vertex 34.8019 10.907 4
      vertex 32.6281 11.2135 4
      vertex 32.901 9.85988 4
    endloop
  endfacet
  facet normal 0 0 1
    outer loop
      vertex 34.8002 14.4777 4
      vertex 32.537 12.691 4
      vertex 34.6411 12.691 4
    endloop
  endfacet
  facet normal 0 0 1
    outer loop
      vertex 34.6411 12.691 4
      vertex 32.537 12.691 4
      vertex 32.6281 11.2135 4
    endloop
  endfacet
  facet normal 0 0 1
    outer loop
      vertex 32.7601 14.9571 4
      vertex 32.537 12.691 4
      vertex 34.8002 14.4777 4
    endloop
  endfacet
  facet normal 0 0 1
    outer loop
      vertex 34.5441 18.422 4
      vertex 33.429 16.8674 4
      vertex 35.2775 15.9777 4
    endloop
  endfacet
  facet normal 0 0 1
    outer loop
      vertex 35.2775 15.9777 4
      vertex 33.429 16.8674 4
      vertex 32.7601 14.9571 4
    endloop
  endfacet
  facet normal 0 0 1
    outer loop
      vertex 34.5441 18.422 4
      vertex 35.2775 15.9777 4
      vertex 36.073 17.191 4
    endloop
  endfacet
  facet normal 0 0 1
    outer loop
      vertex 36.0567 19.5698 4
      vertex 36.073 17.191 4
      vertex 37.1604 18.0827 4
    endloop
  endfacet
  facet normal -0 0 1
    outer loop
      vertex 36.0567 19.5698 4
      vertex 37.1604 18.0827 4
      vertex 37.9187 20.2584 4
    endloop
  endfacet
  facet normal 0 0 1
    outer loop
      vertex 41.6165 20.385 4
      vertex 40.1301 20.488 4
      vertex 40.1311 18.796 4
    endloop
  endfacet
  facet normal 0 0 1
    outer loop
      vertex 40.1311 18.796 4
      vertex 40.1301 20.488 4
      vertex 38.513 18.6177 4
    endloop
  endfacet
  facet normal -0 0 1
    outer loop
      vertex 41.7362 18.6152 4
      vertex 43.0795 18.0729 4
      vertex 42.9652 20.076 4
    endloop
  endfacet
  facet normal 0 0 1
    outer loop
      vertex 45.2289 18.8495 4
      vertex 44.1761 19.561 4
      vertex 43.0795 18.0729 4
    endloop
  endfacet
  facet normal 0 -0 1
    outer loop
      vertex 43.0795 18.0729 4
      vertex 44.1761 19.561 4
      vertex 42.9652 20.076 4
    endloop
  endfacet
  facet normal 0 0 1
    outer loop
      vertex 46.1023 17.9512 4
      vertex 45.2289 18.8495 4
      vertex 44.1611 17.169 4
    endloop
  endfacet
  facet normal -0 0 1
    outer loop
      vertex 44.9538 15.9488 4
      vertex 47.2994 15.6169 4
      vertex 46.7961 16.866 4
    endloop
  endfacet
  facet normal 0 -0 1
    outer loop
      vertex 45.5881 12.691 4
      vertex 47.6014 14.2256 4
      vertex 45.4295 14.4561 4
    endloop
  endfacet
  facet normal -0 0 1
    outer loop
      vertex 45.4295 14.4561 4
      vertex 47.6014 14.2256 4
      vertex 47.2994 15.6169 4
    endloop
  endfacet
  facet normal 0 0 1
    outer loop
      vertex 45.5881 12.691 4
      vertex 45.4307 10.853 4
      vertex 47.5213 10.6651 4
    endloop
  endfacet
  facet normal 0 0 1
    outer loop
      vertex 45.4307 10.853 4
      vertex 44.9587 9.31499 4
      vertex 46.9789 8.89377 4
    endloop
  endfacet
  facet normal 0 0 1
    outer loop
      vertex 44.9587 9.31499 4
      vertex 44.1721 8.077 4
      vertex 46.0751 7.37799 4
    endloop
  endfacet
  facet normal 0 0 1
    outer loop
      vertex 44.1721 8.077 4
      vertex 43.0913 7.17032 4
      vertex 44.8493 6.17966 4
    endloop
  endfacet
  facet normal 0 0 1
    outer loop
      vertex 43.0913 7.17032 4
      vertex 43.3413 5.35933 4
      vertex 44.8493 6.17966 4
    endloop
  endfacet
  facet normal 0 0 1
    outer loop
      vertex 41.7369 6.62633 4
      vertex 41.5511 4.91701 4
      vertex 43.3413 5.35933 4
    endloop
  endfacet
  facet normal -0 0 1
    outer loop
      vertex 40.1091 6.44499 4
      vertex 41.5511 4.91701 4
      vertex 41.7369 6.62633 4
    endloop
  endfacet
  facet normal 0 0 1
    outer loop
      vertex 11.621 17.258 4
      vertex 11.588 18.463 4
      vertex 9.821 20.296 4
    endloop
  endfacet
  facet normal 0 0 1
    outer loop
      vertex 11.621 17.258 4
      vertex 9.821 20.296 4
      vertex 11.664 15.206 4
    endloop
  endfacet
  facet normal 0 0 1
    outer loop
      vertex 9.821 20.296 4
      vertex 9.821 5 4
      vertex 11.664 15.206 4
    endloop
  endfacet
  facet normal 0 0 1
    outer loop
      vertex 16.554 5 4
      vertex 17.291 7.256 4
      vertex 17.2325 7.51855 4
    endloop
  endfacet
  facet normal 0 0 1
    outer loop
      vertex 22.018 20.296 4
      vertex 21.953 15.423 4
      vertex 22.247 16.2483 4
    endloop
  endfacet
  facet normal -0 0 1
    outer loop
      vertex 17.491 8.03511 4
      vertex 18.007 5 4
      vertex 17.654 8.575 4
    endloop
  endfacet
  facet normal -0 0 1
    outer loop
      vertex 22.8531 17.4064 4
      vertex 22.8208 16.3208 4
      vertex 24.675 20.296 4
    endloop
  endfacet
  facet normal 0 -0 1
    outer loop
      vertex 22.565 17.2617 4
      vertex 22.907 18.463 4
      vertex 22.018 20.296 4
    endloop
  endfacet
  facet normal 0 0 1
    outer loop
      vertex 22.8531 17.4064 4
      vertex 24.675 20.296 4
      vertex 22.907 18.463 4
    endloop
  endfacet
  facet normal -0 0 1
    outer loop
      vertex 17.8188 9.092 4
      vertex 18.007 5 4
      vertex 17.9438 9.463 4
    endloop
  endfacet
  facet normal 0 0 1
    outer loop
      vertex 12.553 15.423 4
      vertex 12.543 20.296 4
      vertex 11.946 17.269 4
    endloop
  endfacet
  facet normal 0 -0 1
    outer loop
      vertex 24.675 5 4
      vertex 24.675 20.296 4
      vertex 22.81 15.206 4
    endloop
  endfacet
  facet normal 0 0 1
    outer loop
      vertex 22.81 15.206 4
      vertex 24.675 20.296 4
      vertex 22.8208 16.3208 4
    endloop
  endfacet
  facet normal 0 0 1
    outer loop
      vertex 22.018 20.296 4
      vertex 17.9438 9.463 4
      vertex 21.953 15.423 4
    endloop
  endfacet
  facet normal 0 0 1
    outer loop
      vertex 9.821 5 4
      vertex 11.664 5 4
      vertex 11.664 15.206 4
    endloop
  endfacet
  facet normal -0 0 1
    outer loop
      vertex 17.37 7.59544 4
      vertex 18.007 5 4
      vertex 17.491 8.03511 4
    endloop
  endfacet
  facet normal -0 0 1
    outer loop
      vertex 17.291 7.256 4
      vertex 18.007 5 4
      vertex 17.37 7.59544 4
    endloop
  endfacet
  facet normal 0 0 1
    outer loop
      vertex 16.554 5 4
      vertex 18.007 5 4
      vertex 17.291 7.256 4
    endloop
  endfacet
  facet normal 0 0 1
    outer loop
      vertex 17.1439 7.87155 4
      vertex 16.554 5 4
      vertex 17.2325 7.51855 4
    endloop
  endfacet
  facet normal 0 0 1
    outer loop
      vertex 17.025 8.31499 4
      vertex 16.554 5 4
      vertex 17.1439 7.87155 4
    endloop
  endfacet
  facet normal 0 0 1
    outer loop
      vertex 16.554 5 4
      vertex 17.025 8.31499 4
      vertex 16.8898 8.79332 4
    endloop
  endfacet
  facet normal 0 0 1
    outer loop
      vertex 16.554 5 4
      vertex 16.8898 8.79332 4
      vertex 16.7508 9.25099 4
    endloop
  endfacet
  facet normal 0 0 1
    outer loop
      vertex 16.554 5 4
      vertex 16.7508 9.25099 4
      vertex 16.608 9.68799 4
    endloop
  endfacet
  facet normal 0 -0 1
    outer loop
      vertex 16.554 5 4
      vertex 16.608 9.68799 4
      vertex 12.553 15.423 4
    endloop
  endfacet
  facet normal -0 0 1
    outer loop
      vertex 9.821 20.296 4
      vertex 11.588 18.463 4
      vertex 12.543 20.296 4
    endloop
  endfacet
  facet normal 0 0 1
    outer loop
      vertex 16.608 9.68799 4
      vertex 12.543 20.296 4
      vertex 12.553 15.423 4
    endloop
  endfacet
  facet normal 0.122833 -0.992427 0
    outer loop
      vertex 45.1301 0.882233 2
      vertex 44.4864 0.802567 4
      vertex 44.4864 0.802567 2
    endloop
  endfacet
  facet normal 0.122833 -0.992427 0
    outer loop
      vertex 45.1301 0.882233 2
      vertex 45.1301 0.882233 4
      vertex 44.4864 0.802567 4
    endloop
  endfacet
  facet normal 0.196377 -0.980529 0
    outer loop
      vertex 45.793 1.01501 2
      vertex 45.1301 0.882233 4
      vertex 45.1301 0.882233 2
    endloop
  endfacet
  facet normal 0.196377 -0.980529 0
    outer loop
      vertex 45.793 1.01501 2
      vertex 45.793 1.01501 4
      vertex 45.1301 0.882233 4
    endloop
  endfacet
  facet normal 1 0 0
    outer loop
      vertex 45.793 2.468 2
      vertex 45.793 1.01501 4
      vertex 45.793 1.01501 2
    endloop
  endfacet
  facet normal 1 0 -0
    outer loop
      vertex 45.793 2.468 2
      vertex 45.793 2.468 4
      vertex 45.793 1.01501 4
    endloop
  endfacet
  facet normal -0.180012 0.983664 0
    outer loop
      vertex 45.3651 2.38968 2
      vertex 45.793 2.468 4
      vertex 45.793 2.468 2
    endloop
  endfacet
  facet normal -0.180012 0.983664 0
    outer loop
      vertex 45.3651 2.38968 2
      vertex 45.3651 2.38968 4
      vertex 45.793 2.468 4
    endloop
  endfacet
  facet normal -0.11226 0.993679 0
    outer loop
      vertex 44.9491 2.34268 2
      vertex 45.3651 2.38968 4
      vertex 45.3651 2.38968 2
    endloop
  endfacet
  facet normal -0.11226 0.993679 0
    outer loop
      vertex 44.9491 2.34268 2
      vertex 44.9491 2.34268 4
      vertex 45.3651 2.38968 4
    endloop
  endfacet
  facet normal -0.0387592 0.999249 0
    outer loop
      vertex 44.545 2.32701 2
      vertex 44.9491 2.34268 4
      vertex 44.9491 2.34268 2
    endloop
  endfacet
  facet normal -0.0387592 0.999249 0
    outer loop
      vertex 44.545 2.32701 2
      vertex 44.545 2.32701 4
      vertex 44.9491 2.34268 4
    endloop
  endfacet
  facet normal 0.0971116 0.995274 0
    outer loop
      vertex 43.8504 2.39479 2
      vertex 44.545 2.32701 4
      vertex 44.545 2.32701 2
    endloop
  endfacet
  facet normal 0.0971116 0.995274 -0
    outer loop
      vertex 43.8504 2.39479 2
      vertex 43.8504 2.39479 4
      vertex 44.545 2.32701 4
    endloop
  endfacet
  facet normal 0.316527 0.948583 0
    outer loop
      vertex 43.2411 2.59811 2
      vertex 43.8504 2.39479 4
      vertex 43.8504 2.39479 2
    endloop
  endfacet
  facet normal 0.316527 0.948583 -0
    outer loop
      vertex 43.2411 2.59811 2
      vertex 43.2411 2.59811 4
      vertex 43.8504 2.39479 4
    endloop
  endfacet
  facet normal 0.543068 0.839689 0
    outer loop
      vertex 42.7171 2.93701 2
      vertex 43.2411 2.59811 4
      vertex 43.2411 2.59811 2
    endloop
  endfacet
  facet normal 0.543068 0.839689 -0
    outer loop
      vertex 42.7171 2.93701 2
      vertex 42.7171 2.93701 4
      vertex 43.2411 2.59811 4
    endloop
  endfacet
  facet normal 0.736975 0.67592 0
    outer loop
      vertex 42.267 3.42767 2
      vertex 42.7171 2.93701 4
      vertex 42.7171 2.93701 2
    endloop
  endfacet
  facet normal 0.736975 0.67592 -0
    outer loop
      vertex 42.267 3.42767 2
      vertex 42.267 3.42767 4
      vertex 42.7171 2.93701 4
    endloop
  endfacet
  facet normal 0.861695 0.507427 0
    outer loop
      vertex 41.8784 4.08768 2
      vertex 42.267 3.42767 4
      vertex 42.267 3.42767 2
    endloop
  endfacet
  facet normal 0.861695 0.507427 -0
    outer loop
      vertex 41.8784 4.08768 2
      vertex 41.8784 4.08768 4
      vertex 42.267 3.42767 4
    endloop
  endfacet
  facet normal 0.930169 0.367132 0
    outer loop
      vertex 41.5511 4.91701 2
      vertex 41.8784 4.08768 4
      vertex 41.8784 4.08768 2
    endloop
  endfacet
  facet normal 0.930169 0.367132 -0
    outer loop
      vertex 41.5511 4.91701 2
      vertex 41.5511 4.91701 4
      vertex 41.8784 4.08768 4
    endloop
  endfacet
  facet normal 0.239863 -0.970807 0
    outer loop
      vertex 43.3413 5.35933 2
      vertex 41.5511 4.91701 4
      vertex 41.5511 4.91701 2
    endloop
  endfacet
  facet normal 0.239863 -0.970807 0
    outer loop
      vertex 43.3413 5.35933 2
      vertex 43.3413 5.35933 4
      vertex 41.5511 4.91701 4
    endloop
  endfacet
  facet normal 0.477857 -0.878437 0
    outer loop
      vertex 44.8493 6.17966 2
      vertex 43.3413 5.35933 4
      vertex 43.3413 5.35933 2
    endloop
  endfacet
  facet normal 0.477857 -0.878437 0
    outer loop
      vertex 44.8493 6.17966 2
      vertex 44.8493 6.17966 4
      vertex 43.3413 5.35933 4
    endloop
  endfacet
  facet normal 0.699055 -0.715068 0
    outer loop
      vertex 46.0751 7.37799 2
      vertex 44.8493 6.17966 4
      vertex 44.8493 6.17966 2
    endloop
  endfacet
  facet normal 0.699055 -0.715068 0
    outer loop
      vertex 46.0751 7.37799 2
      vertex 46.0751 7.37799 4
      vertex 44.8493 6.17966 4
    endloop
  endfacet
  facet normal 0.858885 -0.512168 0
    outer loop
      vertex 46.9789 8.89377 2
      vertex 46.0751 7.37799 4
      vertex 46.0751 7.37799 2
    endloop
  endfacet
  facet normal 0.858885 -0.512168 0
    outer loop
      vertex 46.9789 8.89377 2
      vertex 46.9789 8.89377 4
      vertex 46.0751 7.37799 4
    endloop
  endfacet
  facet normal 0.956187 -0.292755 0
    outer loop
      vertex 47.5213 10.6651 2
      vertex 46.9789 8.89377 4
      vertex 46.9789 8.89377 2
    endloop
  endfacet
  facet normal 0.956187 -0.292755 0
    outer loop
      vertex 47.5213 10.6651 2
      vertex 47.5213 10.6651 4
      vertex 46.9789 8.89377 4
    endloop
  endfacet
  facet normal 0.996046 -0.0888413 0
    outer loop
      vertex 47.7021 12.692 2
      vertex 47.5213 10.6651 4
      vertex 47.5213 10.6651 2
    endloop
  endfacet
  facet normal 0.996046 -0.0888413 0
    outer loop
      vertex 47.7021 12.692 2
      vertex 47.7021 12.692 4
      vertex 47.5213 10.6651 4
    endloop
  endfacet
  facet normal 0.997852 0.0655081 0
    outer loop
      vertex 47.6014 14.2256 2
      vertex 47.7021 12.692 4
      vertex 47.7021 12.692 2
    endloop
  endfacet
  facet normal 0.997852 0.0655081 -0
    outer loop
      vertex 47.6014 14.2256 2
      vertex 47.6014 14.2256 4
      vertex 47.7021 12.692 4
    endloop
  endfacet
  facet normal 0.977243 0.212121 0
    outer loop
      vertex 47.2994 15.6169 2
      vertex 47.6014 14.2256 4
      vertex 47.6014 14.2256 2
    endloop
  endfacet
  facet normal 0.977243 0.212121 -0
    outer loop
      vertex 47.2994 15.6169 2
      vertex 47.2994 15.6169 4
      vertex 47.6014 14.2256 4
    endloop
  endfacet
  facet normal 0.927531 0.373745 0
    outer loop
      vertex 46.7961 16.866 2
      vertex 47.2994 15.6169 4
      vertex 47.2994 15.6169 2
    endloop
  endfacet
  facet normal 0.927531 0.373745 -0
    outer loop
      vertex 46.7961 16.866 2
      vertex 46.7961 16.866 4
      vertex 47.2994 15.6169 4
    endloop
  endfacet
  facet normal 0.842543 0.53863 0
    outer loop
      vertex 46.1023 17.9512 2
      vertex 46.7961 16.866 4
      vertex 46.7961 16.866 2
    endloop
  endfacet
  facet normal 0.842543 0.53863 -0
    outer loop
      vertex 46.1023 17.9512 2
      vertex 46.1023 17.9512 4
      vertex 46.7961 16.866 4
    endloop
  endfacet
  facet normal 0.717011 0.697062 0
    outer loop
      vertex 45.2289 18.8495 2
      vertex 46.1023 17.9512 4
      vertex 46.1023 17.9512 2
    endloop
  endfacet
  facet normal 0.717011 0.697062 -0
    outer loop
      vertex 45.2289 18.8495 2
      vertex 45.2289 18.8495 4
      vertex 46.1023 17.9512 4
    endloop
  endfacet
  facet normal 0.559874 0.828578 0
    outer loop
      vertex 44.1761 19.561 2
      vertex 45.2289 18.8495 4
      vertex 45.2289 18.8495 2
    endloop
  endfacet
  facet normal 0.559874 0.828578 -0
    outer loop
      vertex 44.1761 19.561 2
      vertex 44.1761 19.561 4
      vertex 45.2289 18.8495 4
    endloop
  endfacet
  facet normal 0.391379 0.92023 0
    outer loop
      vertex 42.9652 20.076 2
      vertex 44.1761 19.561 4
      vertex 44.1761 19.561 2
    endloop
  endfacet
  facet normal 0.391379 0.92023 -0
    outer loop
      vertex 42.9652 20.076 2
      vertex 42.9652 20.076 4
      vertex 44.1761 19.561 4
    endloop
  endfacet
  facet normal 0.223333 0.974742 0
    outer loop
      vertex 41.6165 20.385 2
      vertex 42.9652 20.076 4
      vertex 42.9652 20.076 2
    endloop
  endfacet
  facet normal 0.223333 0.974742 -0
    outer loop
      vertex 41.6165 20.385 2
      vertex 41.6165 20.385 4
      vertex 42.9652 20.076 4
    endloop
  endfacet
  facet normal 0.0691247 0.997608 0
    outer loop
      vertex 40.1301 20.488 2
      vertex 41.6165 20.385 4
      vertex 41.6165 20.385 2
    endloop
  endfacet
  facet normal 0.0691247 0.997608 -0
    outer loop
      vertex 40.1301 20.488 2
      vertex 40.1301 20.488 4
      vertex 41.6165 20.385 4
    endloop
  endfacet
  facet normal -0.103253 0.994655 0
    outer loop
      vertex 37.9187 20.2584 2
      vertex 40.1301 20.488 4
      vertex 40.1301 20.488 2
    endloop
  endfacet
  facet normal -0.103253 0.994655 0
    outer loop
      vertex 37.9187 20.2584 2
      vertex 37.9187 20.2584 4
      vertex 40.1301 20.488 4
    endloop
  endfacet
  facet normal -0.346892 0.937905 0
    outer loop
      vertex 36.0567 19.5698 2
      vertex 37.9187 20.2584 4
      vertex 37.9187 20.2584 2
    endloop
  endfacet
  facet normal -0.346892 0.937905 0
    outer loop
      vertex 36.0567 19.5698 2
      vertex 36.0567 19.5698 4
      vertex 37.9187 20.2584 4
    endloop
  endfacet
  facet normal -0.604462 0.796634 0
    outer loop
      vertex 34.5441 18.422 2
      vertex 36.0567 19.5698 4
      vertex 36.0567 19.5698 2
    endloop
  endfacet
  facet normal -0.604462 0.796634 0
    outer loop
      vertex 34.5441 18.422 2
      vertex 34.5441 18.422 4
      vertex 36.0567 19.5698 4
    endloop
  endfacet
  facet normal -0.812594 0.58283 0
    outer loop
      vertex 33.429 16.8674 2
      vertex 34.5441 18.422 4
      vertex 34.5441 18.422 2
    endloop
  endfacet
  facet normal -0.812594 0.58283 0
    outer loop
      vertex 33.429 16.8674 2
      vertex 33.429 16.8674 4
      vertex 34.5441 18.422 4
    endloop
  endfacet
  facet normal -0.9438 0.330517 0
    outer loop
      vertex 32.7601 14.9571 2
      vertex 33.429 16.8674 4
      vertex 33.429 16.8674 2
    endloop
  endfacet
  facet normal -0.9438 0.330517 0
    outer loop
      vertex 32.7601 14.9571 2
      vertex 32.7601 14.9571 4
      vertex 33.429 16.8674 4
    endloop
  endfacet
  facet normal -0.995193 0.0979365 0
    outer loop
      vertex 32.537 12.691 2
      vertex 32.7601 14.9571 4
      vertex 32.7601 14.9571 2
    endloop
  endfacet
  facet normal -0.995193 0.0979365 0
    outer loop
      vertex 32.537 12.691 2
      vertex 32.537 12.691 4
      vertex 32.7601 14.9571 4
    endloop
  endfacet
  facet normal -0.998108 -0.0614785 0
    outer loop
      vertex 32.6281 11.2135 2
      vertex 32.537 12.691 4
      vertex 32.537 12.691 2
    endloop
  endfacet
  facet normal -0.998108 -0.0614785 0
    outer loop
      vertex 32.6281 11.2135 2
      vertex 32.6281 11.2135 4
      vertex 32.537 12.691 4
    endloop
  endfacet
  facet normal -0.980264 -0.19769 0
    outer loop
      vertex 32.901 9.85988 2
      vertex 32.6281 11.2135 4
      vertex 32.6281 11.2135 2
    endloop
  endfacet
  facet normal -0.980264 -0.19769 0
    outer loop
      vertex 32.901 9.85988 2
      vertex 32.901 9.85988 4
      vertex 32.6281 11.2135 4
    endloop
  endfacet
  facet normal -0.937876 -0.346971 0
    outer loop
      vertex 33.356 8.62999 2
      vertex 32.901 9.85988 4
      vertex 32.901 9.85988 2
    endloop
  endfacet
  facet normal -0.937876 -0.346971 0
    outer loop
      vertex 33.356 8.62999 2
      vertex 33.356 8.62999 4
      vertex 32.901 9.85988 4
    endloop
  endfacet
  facet normal -0.864894 -0.501954 0
    outer loop
      vertex 33.9839 7.54811 2
      vertex 33.356 8.62999 4
      vertex 33.356 8.62999 2
    endloop
  endfacet
  facet normal -0.864894 -0.501954 0
    outer loop
      vertex 33.9839 7.54811 2
      vertex 33.9839 7.54811 4
      vertex 33.356 8.62999 4
    endloop
  endfacet
  facet normal -0.754815 -0.655937 0
    outer loop
      vertex 34.7756 6.6371 2
      vertex 33.9839 7.54811 4
      vertex 33.9839 7.54811 2
    endloop
  endfacet
  facet normal -0.754815 -0.655937 0
    outer loop
      vertex 34.7756 6.6371 2
      vertex 34.7756 6.6371 4
      vertex 33.9839 7.54811 4
    endloop
  endfacet
  facet normal -0.612387 -0.790558 0
    outer loop
      vertex 35.731 5.89699 2
      vertex 34.7756 6.6371 4
      vertex 34.7756 6.6371 2
    endloop
  endfacet
  facet normal -0.612387 -0.790558 0
    outer loop
      vertex 35.731 5.89699 2
      vertex 35.731 5.89699 4
      vertex 34.7756 6.6371 4
    endloop
  endfacet
  facet normal -0.450548 -0.892752 0
    outer loop
      vertex 36.8347 5.34 2
      vertex 35.731 5.89699 4
      vertex 35.731 5.89699 2
    endloop
  endfacet
  facet normal -0.450548 -0.892752 0
    outer loop
      vertex 36.8347 5.34 2
      vertex 36.8347 5.34 4
      vertex 35.731 5.89699 4
    endloop
  endfacet
  facet normal -0.281992 -0.959417 0
    outer loop
      vertex 38.0697 4.97701 2
      vertex 36.8347 5.34 4
      vertex 36.8347 5.34 2
    endloop
  endfacet
  facet normal -0.281992 -0.959417 0
    outer loop
      vertex 38.0697 4.97701 2
      vertex 38.0697 4.97701 4
      vertex 36.8347 5.34 4
    endloop
  endfacet
  facet normal -0.122747 -0.992438 0
    outer loop
      vertex 39.4361 4.80801 2
      vertex 38.0697 4.97701 4
      vertex 38.0697 4.97701 2
    endloop
  endfacet
  facet normal -0.122747 -0.992438 0
    outer loop
      vertex 39.4361 4.80801 2
      vertex 39.4361 4.80801 4
      vertex 38.0697 4.97701 4
    endloop
  endfacet
  facet normal -0.936398 -0.350939 0
    outer loop
      vertex 39.9274 3.49701 2
      vertex 39.4361 4.80801 4
      vertex 39.4361 4.80801 2
    endloop
  endfacet
  facet normal -0.936398 -0.350939 0
    outer loop
      vertex 39.9274 3.49701 2
      vertex 39.9274 3.49701 4
      vertex 39.4361 4.80801 4
    endloop
  endfacet
  facet normal -0.873428 -0.486953 0
    outer loop
      vertex 40.504 2.46268 2
      vertex 39.9274 3.49701 4
      vertex 39.9274 3.49701 2
    endloop
  endfacet
  facet normal -0.873428 -0.486953 0
    outer loop
      vertex 40.504 2.46268 2
      vertex 40.504 2.46268 4
      vertex 39.9274 3.49701 4
    endloop
  endfacet
  facet normal -0.753051 -0.657962 0
    outer loop
      vertex 41.166 1.705 2
      vertex 40.504 2.46268 4
      vertex 40.504 2.46268 2
    endloop
  endfacet
  facet normal -0.753051 -0.657962 0
    outer loop
      vertex 41.166 1.705 2
      vertex 41.166 1.705 4
      vertex 40.504 2.46268 4
    endloop
  endfacet
  facet normal -0.556875 -0.830596 0
    outer loop
      vertex 41.9358 1.1889 2
      vertex 41.166 1.705 4
      vertex 41.166 1.705 2
    endloop
  endfacet
  facet normal -0.556875 -0.830596 0
    outer loop
      vertex 41.9358 1.1889 2
      vertex 41.9358 1.1889 4
      vertex 41.166 1.705 4
    endloop
  endfacet
  facet normal -0.325795 -0.94544 0
    outer loop
      vertex 42.8345 0.879227 2
      vertex 41.9358 1.1889 4
      vertex 41.9358 1.1889 2
    endloop
  endfacet
  facet normal -0.325795 -0.94544 0
    outer loop
      vertex 42.8345 0.879227 2
      vertex 42.8345 0.879227 4
      vertex 41.9358 1.1889 4
    endloop
  endfacet
  facet normal -0.0999543 -0.994992 0
    outer loop
      vertex 43.862 0.776001 2
      vertex 42.8345 0.879227 4
      vertex 42.8345 0.879227 2
    endloop
  endfacet
  facet normal -0.0999543 -0.994992 0
    outer loop
      vertex 43.862 0.776001 2
      vertex 43.862 0.776001 4
      vertex 42.8345 0.879227 4
    endloop
  endfacet
  facet normal 0.0425111 -0.999096 0
    outer loop
      vertex 44.4864 0.802567 2
      vertex 43.862 0.776001 4
      vertex 43.862 0.776001 2
    endloop
  endfacet
  facet normal 0.0425111 -0.999096 0
    outer loop
      vertex 44.4864 0.802567 2
      vertex 44.4864 0.802567 4
      vertex 43.862 0.776001 4
    endloop
  endfacet
  facet normal 0.386763 0.922179 -0
    outer loop
      vertex 37.1797 7.19432 2
      vertex 37.1797 7.19432 4
      vertex 38.5197 6.63232 2
    endloop
  endfacet
  facet normal 0.386763 0.922179 0
    outer loop
      vertex 38.5197 6.63232 4
      vertex 38.5197 6.63232 2
      vertex 37.1797 7.19432 4
    endloop
  endfacet
  facet normal 0.65152 0.758631 -0
    outer loop
      vertex 36.0891 8.131 2
      vertex 36.0891 8.131 4
      vertex 37.1797 7.19432 2
    endloop
  endfacet
  facet normal 0.65152 0.758631 0
    outer loop
      vertex 37.1797 7.19432 4
      vertex 37.1797 7.19432 2
      vertex 36.0891 8.131 4
    endloop
  endfacet
  facet normal 0.842087 0.539342 -0
    outer loop
      vertex 35.2846 9.38699 2
      vertex 35.2846 9.38699 4
      vertex 36.0891 8.131 2
    endloop
  endfacet
  facet normal 0.842087 0.539342 0
    outer loop
      vertex 36.0891 8.131 4
      vertex 36.0891 8.131 2
      vertex 35.2846 9.38699 4
    endloop
  endfacet
  facet normal 0.953102 0.30265 -0
    outer loop
      vertex 34.8019 10.907 2
      vertex 34.8019 10.907 4
      vertex 35.2846 9.38699 2
    endloop
  endfacet
  facet normal 0.953102 0.30265 0
    outer loop
      vertex 35.2846 9.38699 4
      vertex 35.2846 9.38699 2
      vertex 34.8019 10.907 4
    endloop
  endfacet
  facet normal 0.995958 0.0898199 -0
    outer loop
      vertex 34.6411 12.691 2
      vertex 34.6411 12.691 4
      vertex 34.8019 10.907 2
    endloop
  endfacet
  facet normal 0.995958 0.0898199 0
    outer loop
      vertex 34.8019 10.907 4
      vertex 34.8019 10.907 2
      vertex 34.6411 12.691 4
    endloop
  endfacet
  facet normal 0.996058 -0.0886994 0
    outer loop
      vertex 34.8002 14.4777 2
      vertex 34.8002 14.4777 4
      vertex 34.6411 12.691 2
    endloop
  endfacet
  facet normal 0.996058 -0.0886994 0
    outer loop
      vertex 34.6411 12.691 4
      vertex 34.6411 12.691 2
      vertex 34.8002 14.4777 4
    endloop
  endfacet
  facet normal 0.952913 -0.303243 0
    outer loop
      vertex 35.2775 15.9777 2
      vertex 35.2775 15.9777 4
      vertex 34.8002 14.4777 2
    endloop
  endfacet
  facet normal 0.952913 -0.303243 0
    outer loop
      vertex 34.8002 14.4777 4
      vertex 34.8002 14.4777 2
      vertex 35.2775 15.9777 4
    endloop
  endfacet
  facet normal 0.83627 -0.548318 0
    outer loop
      vertex 36.073 17.191 2
      vertex 36.073 17.191 4
      vertex 35.2775 15.9777 2
    endloop
  endfacet
  facet normal 0.83627 -0.548318 0
    outer loop
      vertex 35.2775 15.9777 4
      vertex 35.2775 15.9777 2
      vertex 36.073 17.191 4
    endloop
  endfacet
  facet normal 0.634098 -0.773253 0
    outer loop
      vertex 37.1604 18.0827 2
      vertex 37.1604 18.0827 4
      vertex 36.073 17.191 2
    endloop
  endfacet
  facet normal 0.634098 -0.773253 0
    outer loop
      vertex 36.073 17.191 4
      vertex 36.073 17.191 2
      vertex 37.1604 18.0827 4
    endloop
  endfacet
  facet normal 0.367796 -0.929906 0
    outer loop
      vertex 38.513 18.6177 2
      vertex 38.513 18.6177 4
      vertex 37.1604 18.0827 2
    endloop
  endfacet
  facet normal 0.367796 -0.929906 0
    outer loop
      vertex 37.1604 18.0827 4
      vertex 37.1604 18.0827 2
      vertex 38.513 18.6177 4
    endloop
  endfacet
  facet normal 0.109552 -0.993981 0
    outer loop
      vertex 40.1311 18.796 2
      vertex 40.1311 18.796 4
      vertex 38.513 18.6177 2
    endloop
  endfacet
  facet normal 0.109552 -0.993981 0
    outer loop
      vertex 38.513 18.6177 4
      vertex 38.513 18.6177 2
      vertex 40.1311 18.796 4
    endloop
  endfacet
  facet normal -0.111915 -0.993718 0
    outer loop
      vertex 41.7362 18.6152 2
      vertex 41.7362 18.6152 4
      vertex 40.1311 18.796 2
    endloop
  endfacet
  facet normal -0.111915 -0.993718 -0
    outer loop
      vertex 40.1311 18.796 4
      vertex 40.1311 18.796 2
      vertex 41.7362 18.6152 4
    endloop
  endfacet
  facet normal -0.374369 -0.92728 0
    outer loop
      vertex 43.0795 18.0729 2
      vertex 43.0795 18.0729 4
      vertex 41.7362 18.6152 2
    endloop
  endfacet
  facet normal -0.374369 -0.92728 -0
    outer loop
      vertex 41.7362 18.6152 4
      vertex 41.7362 18.6152 2
      vertex 43.0795 18.0729 4
    endloop
  endfacet
  facet normal -0.641267 -0.767318 0
    outer loop
      vertex 44.1611 17.169 2
      vertex 44.1611 17.169 4
      vertex 43.0795 18.0729 2
    endloop
  endfacet
  facet normal -0.641267 -0.767318 -0
    outer loop
      vertex 43.0795 18.0729 4
      vertex 43.0795 18.0729 2
      vertex 44.1611 17.169 4
    endloop
  endfacet
  facet normal -0.83856 -0.54481 0
    outer loop
      vertex 44.9538 15.9488 2
      vertex 44.9538 15.9488 4
      vertex 44.1611 17.169 2
    endloop
  endfacet
  facet normal -0.83856 -0.54481 -0
    outer loop
      vertex 44.1611 17.169 4
      vertex 44.1611 17.169 2
      vertex 44.9538 15.9488 4
    endloop
  endfacet
  facet normal -0.952793 -0.303621 0
    outer loop
      vertex 45.4295 14.4561 2
      vertex 45.4295 14.4561 4
      vertex 44.9538 15.9488 2
    endloop
  endfacet
  facet normal -0.952793 -0.303621 -0
    outer loop
      vertex 44.9538 15.9488 4
      vertex 44.9538 15.9488 2
      vertex 45.4295 14.4561 4
    endloop
  endfacet
  facet normal -0.995989 -0.0894753 0
    outer loop
      vertex 45.5881 12.691 2
      vertex 45.5881 12.691 4
      vertex 45.4295 14.4561 2
    endloop
  endfacet
  facet normal -0.995989 -0.0894753 -0
    outer loop
      vertex 45.4295 14.4561 4
      vertex 45.4295 14.4561 2
      vertex 45.5881 12.691 4
    endloop
  endfacet
  facet normal -0.996356 0.0852885 0
    outer loop
      vertex 45.4307 10.853 2
      vertex 45.4307 10.853 4
      vertex 45.5881 12.691 2
    endloop
  endfacet
  facet normal -0.996356 0.0852885 0
    outer loop
      vertex 45.5881 12.691 4
      vertex 45.5881 12.691 2
      vertex 45.4307 10.853 4
    endloop
  endfacet
  facet normal -0.955994 0.293385 0
    outer loop
      vertex 44.9587 9.31499 2
      vertex 44.9587 9.31499 4
      vertex 45.4307 10.853 2
    endloop
  endfacet
  facet normal -0.955994 0.293385 0
    outer loop
      vertex 45.4307 10.853 4
      vertex 45.4307 10.853 2
      vertex 44.9587 9.31499 4
    endloop
  endfacet
  facet normal -0.844015 0.536319 0
    outer loop
      vertex 44.1721 8.077 2
      vertex 44.1721 8.077 4
      vertex 44.9587 9.31499 2
    endloop
  endfacet
  facet normal -0.844015 0.536319 0
    outer loop
      vertex 44.9587 9.31499 4
      vertex 44.9587 9.31499 2
      vertex 44.1721 8.077 4
    endloop
  endfacet
  facet normal -0.642702 0.766116 0
    outer loop
      vertex 43.0913 7.17032 2
      vertex 43.0913 7.17032 4
      vertex 44.1721 8.077 2
    endloop
  endfacet
  facet normal -0.642702 0.766116 0
    outer loop
      vertex 44.1721 8.077 4
      vertex 44.1721 8.077 2
      vertex 43.0913 7.17032 4
    endloop
  endfacet
  facet normal -0.372722 0.927943 0
    outer loop
      vertex 41.7369 6.62633 2
      vertex 41.7369 6.62633 4
      vertex 43.0913 7.17032 2
    endloop
  endfacet
  facet normal -0.372722 0.927943 0
    outer loop
      vertex 43.0913 7.17032 4
      vertex 43.0913 7.17032 2
      vertex 41.7369 6.62633 4
    endloop
  endfacet
  facet normal -0.110709 0.993853 0
    outer loop
      vertex 40.1091 6.44499 2
      vertex 40.1091 6.44499 4
      vertex 41.7369 6.62633 2
    endloop
  endfacet
  facet normal -0.110709 0.993853 0
    outer loop
      vertex 41.7369 6.62633 4
      vertex 41.7369 6.62633 2
      vertex 40.1091 6.44499 4
    endloop
  endfacet
  facet normal 0.117058 0.993125 -0
    outer loop
      vertex 38.5197 6.63232 2
      vertex 38.5197 6.63232 4
      vertex 40.1091 6.44499 2
    endloop
  endfacet
  facet normal 0.117058 0.993125 0
    outer loop
      vertex 40.1091 6.44499 4
      vertex 40.1091 6.44499 2
      vertex 38.5197 6.63232 4
    endloop
  endfacet
  facet normal 0.999781 0.0209502 0
    outer loop
      vertex 11.621 17.258 2
      vertex 11.664 15.206 4
      vertex 11.664 15.206 2
    endloop
  endfacet
  facet normal 0.999781 0.0209502 -0
    outer loop
      vertex 11.621 17.258 2
      vertex 11.621 17.258 4
      vertex 11.664 15.206 4
    endloop
  endfacet
  facet normal 0.999625 0.0273669 0
    outer loop
      vertex 11.588 18.463 2
      vertex 11.621 17.258 4
      vertex 11.621 17.258 2
    endloop
  endfacet
  facet normal 0.999625 0.0273669 -0
    outer loop
      vertex 11.588 18.463 2
      vertex 11.588 18.463 4
      vertex 11.621 17.258 4
    endloop
  endfacet
  facet normal -0.95787 -0.287202 0
    outer loop
      vertex 11.946 17.269 2
      vertex 11.588 18.463 4
      vertex 11.588 18.463 2
    endloop
  endfacet
  facet normal -0.95787 -0.287202 0
    outer loop
      vertex 11.946 17.269 2
      vertex 11.946 17.269 4
      vertex 11.588 18.463 4
    endloop
  endfacet
  facet normal -0.949963 -0.312362 0
    outer loop
      vertex 12.553 15.423 2
      vertex 11.946 17.269 4
      vertex 11.946 17.269 2
    endloop
  endfacet
  facet normal -0.949963 -0.312362 0
    outer loop
      vertex 12.553 15.423 2
      vertex 12.553 15.423 4
      vertex 11.946 17.269 4
    endloop
  endfacet
  facet normal -0.933581 -0.358366 0
    outer loop
      vertex 16.554 5 2
      vertex 12.553 15.423 4
      vertex 12.553 15.423 2
    endloop
  endfacet
  facet normal -0.933581 -0.358366 0
    outer loop
      vertex 16.554 5 2
      vertex 16.554 5 4
      vertex 12.553 15.423 4
    endloop
  endfacet
  facet normal 0 -1 0
    outer loop
      vertex 18.007 5 2
      vertex 16.554 5 4
      vertex 16.554 5 2
    endloop
  endfacet
  facet normal 0 -1 0
    outer loop
      vertex 18.007 5 2
      vertex 18.007 5 4
      vertex 16.554 5 4
    endloop
  endfacet
  facet normal 0.935222 -0.354062 0
    outer loop
      vertex 21.953 15.423 2
      vertex 18.007 5 4
      vertex 18.007 5 2
    endloop
  endfacet
  facet normal 0.935222 -0.354062 0
    outer loop
      vertex 21.953 15.423 2
      vertex 21.953 15.423 4
      vertex 18.007 5 4
    endloop
  endfacet
  facet normal 0.942015 -0.335572 0
    outer loop
      vertex 22.247 16.2483 2
      vertex 21.953 15.423 4
      vertex 21.953 15.423 2
    endloop
  endfacet
  facet normal 0.942015 -0.335572 0
    outer loop
      vertex 22.247 16.2483 2
      vertex 22.247 16.2483 4
      vertex 21.953 15.423 4
    endloop
  endfacet
  facet normal 0.954124 -0.299412 0
    outer loop
      vertex 22.565 17.2617 2
      vertex 22.247 16.2483 4
      vertex 22.247 16.2483 2
    endloop
  endfacet
  facet normal 0.954124 -0.299412 0
    outer loop
      vertex 22.565 17.2617 2
      vertex 22.565 17.2617 4
      vertex 22.247 16.2483 4
    endloop
  endfacet
  facet normal 0.961784 -0.273811 0
    outer loop
      vertex 22.907 18.463 2
      vertex 22.565 17.2617 4
      vertex 22.565 17.2617 2
    endloop
  endfacet
  facet normal 0.961784 -0.273811 0
    outer loop
      vertex 22.907 18.463 2
      vertex 22.907 18.463 4
      vertex 22.565 17.2617 4
    endloop
  endfacet
  facet normal -0.998702 0.0509425 0
    outer loop
      vertex 22.8531 17.4064 2
      vertex 22.907 18.463 4
      vertex 22.907 18.463 2
    endloop
  endfacet
  facet normal -0.998702 0.0509425 0
    outer loop
      vertex 22.8531 17.4064 2
      vertex 22.8531 17.4064 4
      vertex 22.907 18.463 4
    endloop
  endfacet
  facet normal -0.999557 0.029769 0
    outer loop
      vertex 22.8208 16.3208 2
      vertex 22.8531 17.4064 4
      vertex 22.8531 17.4064 2
    endloop
  endfacet
  facet normal -0.999557 0.029769 0
    outer loop
      vertex 22.8208 16.3208 2
      vertex 22.8208 16.3208 4
      vertex 22.8531 17.4064 4
    endloop
  endfacet
  facet normal -0.999953 0.0096631 0
    outer loop
      vertex 22.81 15.206 2
      vertex 22.8208 16.3208 4
      vertex 22.8208 16.3208 2
    endloop
  endfacet
  facet normal -0.999953 0.0096631 0
    outer loop
      vertex 22.81 15.206 2
      vertex 22.81 15.206 4
      vertex 22.8208 16.3208 4
    endloop
  endfacet
  facet normal -1 0 0
    outer loop
      vertex 22.81 5 2
      vertex 22.81 15.206 4
      vertex 22.81 15.206 2
    endloop
  endfacet
  facet normal -1 0 0
    outer loop
      vertex 22.81 5 2
      vertex 22.81 5 4
      vertex 22.81 15.206 4
    endloop
  endfacet
  facet normal 0 -1 0
    outer loop
      vertex 24.675 5 2
      vertex 22.81 5 4
      vertex 22.81 5 2
    endloop
  endfacet
  facet normal 0 -1 0
    outer loop
      vertex 24.675 5 2
      vertex 24.675 5 4
      vertex 22.81 5 4
    endloop
  endfacet
  facet normal 1 0 0
    outer loop
      vertex 24.675 20.296 2
      vertex 24.675 5 4
      vertex 24.675 5 2
    endloop
  endfacet
  facet normal 1 0 -0
    outer loop
      vertex 24.675 20.296 2
      vertex 24.675 20.296 4
      vertex 24.675 5 4
    endloop
  endfacet
  facet normal 0 1 0
    outer loop
      vertex 22.018 20.296 2
      vertex 24.675 20.296 4
      vertex 24.675 20.296 2
    endloop
  endfacet
  facet normal 0 1 0
    outer loop
      vertex 22.018 20.296 2
      vertex 22.018 20.296 4
      vertex 24.675 20.296 4
    endloop
  endfacet
  facet normal -0.935992 0.352021 0
    outer loop
      vertex 17.9438 9.463 2
      vertex 22.018 20.296 4
      vertex 22.018 20.296 2
    endloop
  endfacet
  facet normal -0.935992 0.352021 0
    outer loop
      vertex 17.9438 9.463 2
      vertex 17.9438 9.463 4
      vertex 22.018 20.296 4
    endloop
  endfacet
  facet normal -0.947657 0.31929 0
    outer loop
      vertex 17.8188 9.092 2
      vertex 17.9438 9.463 4
      vertex 17.9438 9.463 2
    endloop
  endfacet
  facet normal -0.947657 0.31929 0
    outer loop
      vertex 17.8188 9.092 2
      vertex 17.8188 9.092 4
      vertex 17.9438 9.463 4
    endloop
  endfacet
  facet normal -0.952776 0.303673 0
    outer loop
      vertex 17.654 8.575 2
      vertex 17.8188 9.092 4
      vertex 17.8188 9.092 2
    endloop
  endfacet
  facet normal -0.952776 0.303673 0
    outer loop
      vertex 17.654 8.575 2
      vertex 17.654 8.575 4
      vertex 17.8188 9.092 4
    endloop
  endfacet
  facet normal -0.957323 0.28902 0
    outer loop
      vertex 17.491 8.03511 2
      vertex 17.654 8.575 4
      vertex 17.654 8.575 2
    endloop
  endfacet
  facet normal -0.957323 0.28902 0
    outer loop
      vertex 17.491 8.03511 2
      vertex 17.491 8.03511 4
      vertex 17.654 8.575 4
    endloop
  endfacet
  facet normal -0.964153 0.265348 0
    outer loop
      vertex 17.37 7.59544 2
      vertex 17.491 8.03511 4
      vertex 17.491 8.03511 2
    endloop
  endfacet
  facet normal -0.964153 0.265348 0
    outer loop
      vertex 17.37 7.59544 2
      vertex 17.37 7.59544 4
      vertex 17.491 8.03511 4
    endloop
  endfacet
  facet normal -0.973964 0.226701 0
    outer loop
      vertex 17.291 7.256 2
      vertex 17.37 7.59544 4
      vertex 17.37 7.59544 2
    endloop
  endfacet
  facet normal -0.973964 0.226701 0
    outer loop
      vertex 17.291 7.256 2
      vertex 17.291 7.256 4
      vertex 17.37 7.59544 4
    endloop
  endfacet
  facet normal 0.976112 0.217267 0
    outer loop
      vertex 17.2325 7.51855 2
      vertex 17.291 7.256 4
      vertex 17.291 7.256 2
    endloop
  endfacet
  facet normal 0.976112 0.217267 -0
    outer loop
      vertex 17.2325 7.51855 2
      vertex 17.2325 7.51855 4
      vertex 17.291 7.256 4
    endloop
  endfacet
  facet normal 0.969871 0.243621 0
    outer loop
      vertex 17.1439 7.87155 2
      vertex 17.2325 7.51855 4
      vertex 17.2325 7.51855 2
    endloop
  endfacet
  facet normal 0.969871 0.243621 -0
    outer loop
      vertex 17.1439 7.87155 2
      vertex 17.1439 7.87155 4
      vertex 17.2325 7.51855 4
    endloop
  endfacet
  facet normal 0.965892 0.258947 0
    outer loop
      vertex 17.025 8.31499 2
      vertex 17.1439 7.87155 4
      vertex 17.1439 7.87155 2
    endloop
  endfacet
  facet normal 0.965892 0.258947 -0
    outer loop
      vertex 17.025 8.31499 2
      vertex 17.025 8.31499 4
      vertex 17.1439 7.87155 4
    endloop
  endfacet
  facet normal 0.962287 0.272036 0
    outer loop
      vertex 16.8898 8.79332 2
      vertex 17.025 8.31499 4
      vertex 17.025 8.31499 2
    endloop
  endfacet
  facet normal 0.962287 0.272036 -0
    outer loop
      vertex 16.8898 8.79332 2
      vertex 16.8898 8.79332 4
      vertex 17.025 8.31499 4
    endloop
  endfacet
  facet normal 0.956839 0.290618 0
    outer loop
      vertex 16.7508 9.25099 2
      vertex 16.8898 8.79332 4
      vertex 16.8898 8.79332 2
    endloop
  endfacet
  facet normal 0.956839 0.290618 -0
    outer loop
      vertex 16.7508 9.25099 2
      vertex 16.7508 9.25099 4
      vertex 16.8898 8.79332 4
    endloop
  endfacet
  facet normal 0.950552 0.310566 0
    outer loop
      vertex 16.608 9.68799 2
      vertex 16.7508 9.25099 4
      vertex 16.7508 9.25099 2
    endloop
  endfacet
  facet normal 0.950552 0.310566 -0
    outer loop
      vertex 16.608 9.68799 2
      vertex 16.608 9.68799 4
      vertex 16.7508 9.25099 4
    endloop
  endfacet
  facet normal 0.933788 0.357828 0
    outer loop
      vertex 12.543 20.296 2
      vertex 16.608 9.68799 4
      vertex 16.608 9.68799 2
    endloop
  endfacet
  facet normal 0.933788 0.357828 -0
    outer loop
      vertex 12.543 20.296 2
      vertex 12.543 20.296 4
      vertex 16.608 9.68799 4
    endloop
  endfacet
  facet normal 0 1 0
    outer loop
      vertex 9.821 20.296 2
      vertex 12.543 20.296 4
      vertex 12.543 20.296 2
    endloop
  endfacet
  facet normal 0 1 0
    outer loop
      vertex 9.821 20.296 2
      vertex 9.821 20.296 4
      vertex 12.543 20.296 4
    endloop
  endfacet
  facet normal -1 0 0
    outer loop
      vertex 9.821 5 2
      vertex 9.821 20.296 4
      vertex 9.821 20.296 2
    endloop
  endfacet
  facet normal -1 0 0
    outer loop
      vertex 9.821 5 2
      vertex 9.821 5 4
      vertex 9.821 20.296 4
    endloop
  endfacet
  facet normal 0 -1 0
    outer loop
      vertex 11.664 5 2
      vertex 9.821 5 4
      vertex 9.821 5 2
    endloop
  endfacet
  facet normal 0 -1 0
    outer loop
      vertex 11.664 5 2
      vertex 11.664 5 4
      vertex 9.821 5 4
    endloop
  endfacet
  facet normal 1 0 0
    outer loop
      vertex 11.664 15.206 2
      vertex 11.664 5 4
      vertex 11.664 5 2
    endloop
  endfacet
  facet normal 1 0 -0
    outer loop
      vertex 11.664 15.206 2
      vertex 11.664 15.206 4
      vertex 11.664 5 4
    endloop
  endfacet
endsolid OpenSCAD_Model
