solid OpenSCAD_Model
  facet normal 0 0 -1
    outer loop
      vertex 22.018 20.296 2
      vertex 24.675 20.296 2
      vertex 22.907 18.463 2
    endloop
  endfacet
  facet normal 0 0 -1
    outer loop
      vertex 11.621 17.258 2
      vertex 9.821 20.296 2
      vertex 11.588 18.463 2
    endloop
  endfacet
  facet normal -0 0 -1
    outer loop
      vertex 11.664 15.206 2
      vertex 9.821 5 2
      vertex 9.821 20.296 2
    endloop
  endfacet
  facet normal 0 0 -1
    outer loop
      vertex 11.664 15.206 2
      vertex 9.821 20.296 2
      vertex 11.621 17.258 2
    endloop
  endfacet
  facet normal 0 0 -1
    outer loop
      vertex 16.554 5 2
      vertex 17.2325 7.51855 2
      vertex 17.291 7.256 2
    endloop
  endfacet
  facet normal 0 0 -1
    outer loop
      vertex 18.007 5 2
      vertex 17.9438 9.463 2
      vertex 21.953 15.423 2
    endloop
  endfacet
  facet normal 0 0 -1
    outer loop
      vertex 16.554 5 2
      vertex 16.7508 9.25099 2
      vertex 16.8898 8.79332 2
    endloop
  endfacet
  facet normal -0 0 -1
    outer loop
      vertex 22.565 17.2617 2
      vertex 22.247 16.2483 2
      vertex 22.018 20.296 2
    endloop
  endfacet
  facet normal -0 0 -1
    outer loop
      vertex 22.907 18.463 2
      vertex 22.565 17.2617 2
      vertex 22.018 20.296 2
    endloop
  endfacet
  facet normal 0 0 -1
    outer loop
      vertex 17.654 8.575 2
      vertex 17.8188 9.092 2
      vertex 18.007 5 2
    endloop
  endfacet
  facet normal 0 0 -1
    outer loop
      vertex 22.81 15.206 2
      vertex 22.8208 16.3208 2
      vertex 24.675 20.296 2
    endloop
  endfacet
  facet normal 0 0 -1
    outer loop
      vertex 24.675 5 2
      vertex 22.81 15.206 2
      vertex 24.675 20.296 2
    endloop
  endfacet
  facet normal 0 0 -1
    outer loop
      vertex 24.675 5 2
      vertex 22.81 5 2
      vertex 22.81 15.206 2
    endloop
  endfacet
  facet normal 0 0 -1
    outer loop
      vertex 24.675 20.296 2
      vertex 22.8208 16.3208 2
      vertex 22.8531 17.4064 2
    endloop
  endfacet
  facet normal 0 -0 -1
    outer loop
      vertex 22.907 18.463 2
      vertex 24.675 20.296 2
      vertex 22.8531 17.4064 2
    endloop
  endfacet
  facet normal 0 0 -1
    outer loop
      vertex 43.7262 16.7238 2
      vertex 43.4235 17.4014 2
      vertex 45.2837 18.271 2
    endloop
  endfacet
  facet normal 0 -0 -1
    outer loop
      vertex 12.543 20.296 2
      vertex 12.553 15.423 2
      vertex 11.946 17.269 2
    endloop
  endfacet
  facet normal 0 0 -1
    outer loop
      vertex 17.8188 9.092 2
      vertex 17.9438 9.463 2
      vertex 18.007 5 2
    endloop
  endfacet
  facet normal 0 0 -1
    outer loop
      vertex 16.554 5 2
      vertex 16.8898 8.79332 2
      vertex 17.025 8.31499 2
    endloop
  endfacet
  facet normal -0 0 -1
    outer loop
      vertex 22.247 16.2483 2
      vertex 21.953 15.423 2
      vertex 22.018 20.296 2
    endloop
  endfacet
  facet normal -0 0 -1
    outer loop
      vertex 21.953 15.423 2
      vertex 17.9438 9.463 2
      vertex 22.018 20.296 2
    endloop
  endfacet
  facet normal 0 0 -1
    outer loop
      vertex 11.664 5 2
      vertex 9.821 5 2
      vertex 11.664 15.206 2
    endloop
  endfacet
  facet normal 0 0 -1
    outer loop
      vertex 17.491 8.03511 2
      vertex 17.654 8.575 2
      vertex 18.007 5 2
    endloop
  endfacet
  facet normal 0 0 -1
    outer loop
      vertex 17.37 7.59544 2
      vertex 17.491 8.03511 2
      vertex 18.007 5 2
    endloop
  endfacet
  facet normal 0 0 -1
    outer loop
      vertex 16.554 5 2
      vertex 17.291 7.256 2
      vertex 18.007 5 2
    endloop
  endfacet
  facet normal 0 0 -1
    outer loop
      vertex 17.291 7.256 2
      vertex 17.37 7.59544 2
      vertex 18.007 5 2
    endloop
  endfacet
  facet normal 0 -0 -1
    outer loop
      vertex 17.1439 7.87155 2
      vertex 17.2325 7.51855 2
      vertex 16.554 5 2
    endloop
  endfacet
  facet normal 0 -0 -1
    outer loop
      vertex 17.025 8.31499 2
      vertex 17.1439 7.87155 2
      vertex 16.554 5 2
    endloop
  endfacet
  facet normal 0 0 -1
    outer loop
      vertex 16.554 5 2
      vertex 16.608 9.68799 2
      vertex 16.7508 9.25099 2
    endloop
  endfacet
  facet normal 0 0 -1
    outer loop
      vertex 16.554 5 2
      vertex 12.553 15.423 2
      vertex 16.608 9.68799 2
    endloop
  endfacet
  facet normal 0 0 -1
    outer loop
      vertex 11.588 18.463 2
      vertex 9.821 20.296 2
      vertex 12.543 20.296 2
    endloop
  endfacet
  facet normal 0 0 -1
    outer loop
      vertex 11.588 18.463 2
      vertex 12.543 20.296 2
      vertex 11.946 17.269 2
    endloop
  endfacet
  facet normal 0 0 -1
    outer loop
      vertex 12.553 15.423 2
      vertex 12.543 20.296 2
      vertex 16.608 9.68799 2
    endloop
  endfacet
  facet normal 0 -0 -1
    outer loop
      vertex 35.3811 11.363 2
      vertex 35.3811 5 2
      vertex 33.3101 5 2
    endloop
  endfacet
  facet normal 0 0 -1
    outer loop
      vertex 35.3811 13 2
      vertex 33.3101 20.296 2
      vertex 35.3811 18.637 2
    endloop
  endfacet
  facet normal 0 -0 -1
    outer loop
      vertex 45.7527 17.1997 2
      vertex 45.9091 15.927 2
      vertex 43.8271 15.905 2
    endloop
  endfacet
  facet normal 0 0 -1
    outer loop
      vertex 42.1721 11.601 2
      vertex 46.517 5 2
      vertex 44.1311 5 2
    endloop
  endfacet
  facet normal 0 0 -1
    outer loop
      vertex 40.155 11.363 2
      vertex 42.1721 11.601 2
      vertex 44.1311 5 2
    endloop
  endfacet
  facet normal 0 0 -1
    outer loop
      vertex 43.7274 15.0551 2
      vertex 43.8271 15.905 2
      vertex 45.7986 14.8526 2
    endloop
  endfacet
  facet normal 0 0 -1
    outer loop
      vertex 45.4673 13.8985 2
      vertex 43.7274 15.0551 2
      vertex 45.7986 14.8526 2
    endloop
  endfacet
  facet normal -0 0 -1
    outer loop
      vertex 45.7527 17.1997 2
      vertex 43.7262 16.7238 2
      vertex 45.2837 18.271 2
    endloop
  endfacet
  facet normal 0 0 -1
    outer loop
      vertex 42.1034 20.1677 2
      vertex 43.4337 19.7827 2
      vertex 42.2255 18.3263 2
    endloop
  endfacet
  facet normal 0 0 -1
    outer loop
      vertex 41.3542 18.5593 2
      vertex 42.1034 20.1677 2
      vertex 42.2255 18.3263 2
    endloop
  endfacet
  facet normal 0 0 -1
    outer loop
      vertex 43.4235 17.4014 2
      vertex 42.9191 17.938 2
      vertex 44.502 19.141 2
    endloop
  endfacet
  facet normal -0 0 -1
    outer loop
      vertex 42.1034 20.1677 2
      vertex 41.3542 18.5593 2
      vertex 40.511 20.296 2
    endloop
  endfacet
  facet normal 0 0 -1
    outer loop
      vertex 44.9151 13.065 2
      vertex 43.4284 14.3414 2
      vertex 45.4673 13.8985 2
    endloop
  endfacet
  facet normal 0 0 -1
    outer loop
      vertex 40.3051 18.637 2
      vertex 40.511 20.296 2
      vertex 41.3542 18.5593 2
    endloop
  endfacet
  facet normal -0 0 -1
    outer loop
      vertex 42.1721 11.601 2
      vertex 40.155 11.363 2
      vertex 41.4034 13.0849 2
    endloop
  endfacet
  facet normal -0 0 -1
    outer loop
      vertex 40.392 13 2
      vertex 40.155 11.363 2
      vertex 35.3811 13 2
    endloop
  endfacet
  facet normal 0 0 -1
    outer loop
      vertex 42.9301 13.764 2
      vertex 44.1685 12.3868 2
      vertex 43.2542 11.8988 2
    endloop
  endfacet
  facet normal 0 0 -1
    outer loop
      vertex 40.155 11.363 2
      vertex 40.392 13 2
      vertex 41.4034 13.0849 2
    endloop
  endfacet
  facet normal 0 0 -1
    outer loop
      vertex 33.3101 20.296 2
      vertex 35.3811 13 2
      vertex 33.3101 5 2
    endloop
  endfacet
  facet normal -0 0 -1
    outer loop
      vertex 35.3811 11.363 2
      vertex 33.3101 5 2
      vertex 35.3811 13 2
    endloop
  endfacet
  facet normal 0 0 -1
    outer loop
      vertex 35.3811 13 2
      vertex 40.155 11.363 2
      vertex 35.3811 11.363 2
    endloop
  endfacet
  facet normal 0 0 -1
    outer loop
      vertex 35.3811 18.637 2
      vertex 33.3101 20.296 2
      vertex 40.511 20.296 2
    endloop
  endfacet
  facet normal 0 0 -1
    outer loop
      vertex 40.511 20.296 2
      vertex 40.3051 18.637 2
      vertex 35.3811 18.637 2
    endloop
  endfacet
  facet normal 0 0 -1
    outer loop
      vertex 42.2255 18.3263 2
      vertex 43.4337 19.7827 2
      vertex 42.9191 17.938 2
    endloop
  endfacet
  facet normal 0 0 -1
    outer loop
      vertex 42.9191 17.938 2
      vertex 43.4337 19.7827 2
      vertex 44.502 19.141 2
    endloop
  endfacet
  facet normal 0 0 -1
    outer loop
      vertex 43.4235 17.4014 2
      vertex 44.502 19.141 2
      vertex 45.2837 18.271 2
    endloop
  endfacet
  facet normal 0 0 -1
    outer loop
      vertex 45.7527 17.1997 2
      vertex 43.8271 15.905 2
      vertex 43.7262 16.7238 2
    endloop
  endfacet
  facet normal 0 0 -1
    outer loop
      vertex 43.8271 15.905 2
      vertex 45.9091 15.927 2
      vertex 45.7986 14.8526 2
    endloop
  endfacet
  facet normal 0 0 -1
    outer loop
      vertex 45.4673 13.8985 2
      vertex 43.4284 14.3414 2
      vertex 43.7274 15.0551 2
    endloop
  endfacet
  facet normal 0 0 -1
    outer loop
      vertex 44.9151 13.065 2
      vertex 42.9301 13.764 2
      vertex 43.4284 14.3414 2
    endloop
  endfacet
  facet normal 0 0 -1
    outer loop
      vertex 42.9301 13.764 2
      vertex 44.9151 13.065 2
      vertex 44.1685 12.3868 2
    endloop
  endfacet
  facet normal 0 0 -1
    outer loop
      vertex 42.2494 13.3396 2
      vertex 42.9301 13.764 2
      vertex 43.2542 11.8988 2
    endloop
  endfacet
  facet normal 0 0 -1
    outer loop
      vertex 42.1721 11.601 2
      vertex 42.2494 13.3396 2
      vertex 43.2542 11.8988 2
    endloop
  endfacet
  facet normal 0 0 -1
    outer loop
      vertex 42.1721 11.601 2
      vertex 41.4034 13.0849 2
      vertex 42.2494 13.3396 2
    endloop
  endfacet
  facet normal 0 -0 1
    outer loop
      vertex 22.907 18.463 4
      vertex 24.675 20.296 4
      vertex 22.018 20.296 4
    endloop
  endfacet
  facet normal 0 0 1
    outer loop
      vertex 11.588 18.463 4
      vertex 9.821 20.296 4
      vertex 11.621 17.258 4
    endloop
  endfacet
  facet normal 0 0 1
    outer loop
      vertex 9.821 20.296 4
      vertex 9.821 5 4
      vertex 11.664 15.206 4
    endloop
  endfacet
  facet normal 0 0 1
    outer loop
      vertex 11.621 17.258 4
      vertex 9.821 20.296 4
      vertex 11.664 15.206 4
    endloop
  endfacet
  facet normal 0 0 1
    outer loop
      vertex 17.291 7.256 4
      vertex 17.2325 7.51855 4
      vertex 16.554 5 4
    endloop
  endfacet
  facet normal 0 0 1
    outer loop
      vertex 21.953 15.423 4
      vertex 17.9438 9.463 4
      vertex 18.007 5 4
    endloop
  endfacet
  facet normal 0 0 1
    outer loop
      vertex 16.8898 8.79332 4
      vertex 16.7508 9.25099 4
      vertex 16.554 5 4
    endloop
  endfacet
  facet normal 0 0 1
    outer loop
      vertex 22.018 20.296 4
      vertex 22.247 16.2483 4
      vertex 22.565 17.2617 4
    endloop
  endfacet
  facet normal 0 0 1
    outer loop
      vertex 22.018 20.296 4
      vertex 22.565 17.2617 4
      vertex 22.907 18.463 4
    endloop
  endfacet
  facet normal 0 0 1
    outer loop
      vertex 18.007 5 4
      vertex 17.8188 9.092 4
      vertex 17.654 8.575 4
    endloop
  endfacet
  facet normal 0 0 1
    outer loop
      vertex 24.675 20.296 4
      vertex 22.8208 16.3208 4
      vertex 22.81 15.206 4
    endloop
  endfacet
  facet normal 0 0 1
    outer loop
      vertex 24.675 20.296 4
      vertex 22.81 15.206 4
      vertex 24.675 5 4
    endloop
  endfacet
  facet normal 0 0 1
    outer loop
      vertex 22.81 15.206 4
      vertex 22.81 5 4
      vertex 24.675 5 4
    endloop
  endfacet
  facet normal -0 0 1
    outer loop
      vertex 22.8531 17.4064 4
      vertex 22.8208 16.3208 4
      vertex 24.675 20.296 4
    endloop
  endfacet
  facet normal 0 0 1
    outer loop
      vertex 22.8531 17.4064 4
      vertex 24.675 20.296 4
      vertex 22.907 18.463 4
    endloop
  endfacet
  facet normal 0 0 1
    outer loop
      vertex 45.2837 18.271 4
      vertex 43.4235 17.4014 4
      vertex 43.7262 16.7238 4
    endloop
  endfacet
  facet normal -0 0 1
    outer loop
      vertex 11.946 17.269 4
      vertex 12.553 15.423 4
      vertex 12.543 20.296 4
    endloop
  endfacet
  facet normal 0 0 1
    outer loop
      vertex 18.007 5 4
      vertex 17.9438 9.463 4
      vertex 17.8188 9.092 4
    endloop
  endfacet
  facet normal 0 0 1
    outer loop
      vertex 17.025 8.31499 4
      vertex 16.8898 8.79332 4
      vertex 16.554 5 4
    endloop
  endfacet
  facet normal 0 0 1
    outer loop
      vertex 22.018 20.296 4
      vertex 21.953 15.423 4
      vertex 22.247 16.2483 4
    endloop
  endfacet
  facet normal 0 0 1
    outer loop
      vertex 22.018 20.296 4
      vertex 17.9438 9.463 4
      vertex 21.953 15.423 4
    endloop
  endfacet
  facet normal 0 0 1
    outer loop
      vertex 11.664 15.206 4
      vertex 9.821 5 4
      vertex 11.664 5 4
    endloop
  endfacet
  facet normal 0 0 1
    outer loop
      vertex 18.007 5 4
      vertex 17.654 8.575 4
      vertex 17.491 8.03511 4
    endloop
  endfacet
  facet normal 0 0 1
    outer loop
      vertex 18.007 5 4
      vertex 17.491 8.03511 4
      vertex 17.37 7.59544 4
    endloop
  endfacet
  facet normal 0 0 1
    outer loop
      vertex 18.007 5 4
      vertex 17.291 7.256 4
      vertex 16.554 5 4
    endloop
  endfacet
  facet normal 0 0 1
    outer loop
      vertex 18.007 5 4
      vertex 17.37 7.59544 4
      vertex 17.291 7.256 4
    endloop
  endfacet
  facet normal 0 0 1
    outer loop
      vertex 16.554 5 4
      vertex 17.2325 7.51855 4
      vertex 17.1439 7.87155 4
    endloop
  endfacet
  facet normal 0 0 1
    outer loop
      vertex 16.554 5 4
      vertex 17.1439 7.87155 4
      vertex 17.025 8.31499 4
    endloop
  endfacet
  facet normal 0 0 1
    outer loop
      vertex 16.7508 9.25099 4
      vertex 16.608 9.68799 4
      vertex 16.554 5 4
    endloop
  endfacet
  facet normal 0 0 1
    outer loop
      vertex 16.608 9.68799 4
      vertex 12.553 15.423 4
      vertex 16.554 5 4
    endloop
  endfacet
  facet normal 0 0 1
    outer loop
      vertex 12.543 20.296 4
      vertex 9.821 20.296 4
      vertex 11.588 18.463 4
    endloop
  endfacet
  facet normal 0 -0 1
    outer loop
      vertex 11.946 17.269 4
      vertex 12.543 20.296 4
      vertex 11.588 18.463 4
    endloop
  endfacet
  facet normal 0 0 1
    outer loop
      vertex 16.608 9.68799 4
      vertex 12.543 20.296 4
      vertex 12.553 15.423 4
    endloop
  endfacet
  facet normal 0 0 1
    outer loop
      vertex 33.3101 5 4
      vertex 35.3811 5 4
      vertex 35.3811 11.363 4
    endloop
  endfacet
  facet normal 0 0 1
    outer loop
      vertex 35.3811 18.637 4
      vertex 33.3101 20.296 4
      vertex 35.3811 13 4
    endloop
  endfacet
  facet normal 0 0 1
    outer loop
      vertex 43.8271 15.905 4
      vertex 45.9091 15.927 4
      vertex 45.7527 17.1997 4
    endloop
  endfacet
  facet normal 0 -0 1
    outer loop
      vertex 44.1311 5 4
      vertex 46.517 5 4
      vertex 42.1721 11.601 4
    endloop
  endfacet
  facet normal 0 0 1
    outer loop
      vertex 44.1311 5 4
      vertex 42.1721 11.601 4
      vertex 40.155 11.363 4
    endloop
  endfacet
  facet normal 0 0 1
    outer loop
      vertex 45.7986 14.8526 4
      vertex 43.8271 15.905 4
      vertex 43.7274 15.0551 4
    endloop
  endfacet
  facet normal 0 0 1
    outer loop
      vertex 45.7986 14.8526 4
      vertex 43.7274 15.0551 4
      vertex 45.4673 13.8985 4
    endloop
  endfacet
  facet normal 0 0 1
    outer loop
      vertex 45.2837 18.271 4
      vertex 43.7262 16.7238 4
      vertex 45.7527 17.1997 4
    endloop
  endfacet
  facet normal 0 -0 1
    outer loop
      vertex 42.2255 18.3263 4
      vertex 43.4337 19.7827 4
      vertex 42.1034 20.1677 4
    endloop
  endfacet
  facet normal 0 0 1
    outer loop
      vertex 42.2255 18.3263 4
      vertex 42.1034 20.1677 4
      vertex 41.3542 18.5593 4
    endloop
  endfacet
  facet normal 0 0 1
    outer loop
      vertex 44.502 19.141 4
      vertex 42.9191 17.938 4
      vertex 43.4235 17.4014 4
    endloop
  endfacet
  facet normal 0 0 1
    outer loop
      vertex 40.511 20.296 4
      vertex 41.3542 18.5593 4
      vertex 42.1034 20.1677 4
    endloop
  endfacet
  facet normal 0 0 1
    outer loop
      vertex 45.4673 13.8985 4
      vertex 43.4284 14.3414 4
      vertex 44.9151 13.065 4
    endloop
  endfacet
  facet normal 0 0 1
    outer loop
      vertex 41.3542 18.5593 4
      vertex 40.511 20.296 4
      vertex 40.3051 18.637 4
    endloop
  endfacet
  facet normal 0 0 1
    outer loop
      vertex 41.4034 13.0849 4
      vertex 40.155 11.363 4
      vertex 42.1721 11.601 4
    endloop
  endfacet
  facet normal -0 0 1
    outer loop
      vertex 35.3811 13 4
      vertex 40.155 11.363 4
      vertex 40.392 13 4
    endloop
  endfacet
  facet normal 0 -0 1
    outer loop
      vertex 43.2542 11.8988 4
      vertex 44.1685 12.3868 4
      vertex 42.9301 13.764 4
    endloop
  endfacet
  facet normal 0 0 1
    outer loop
      vertex 41.4034 13.0849 4
      vertex 40.392 13 4
      vertex 40.155 11.363 4
    endloop
  endfacet
  facet normal 0 0 1
    outer loop
      vertex 33.3101 5 4
      vertex 35.3811 13 4
      vertex 33.3101 20.296 4
    endloop
  endfacet
  facet normal 0 0 1
    outer loop
      vertex 35.3811 13 4
      vertex 33.3101 5 4
      vertex 35.3811 11.363 4
    endloop
  endfacet
  facet normal 0 0 1
    outer loop
      vertex 35.3811 11.363 4
      vertex 40.155 11.363 4
      vertex 35.3811 13 4
    endloop
  endfacet
  facet normal 0 0 1
    outer loop
      vertex 40.511 20.296 4
      vertex 33.3101 20.296 4
      vertex 35.3811 18.637 4
    endloop
  endfacet
  facet normal 0 0 1
    outer loop
      vertex 35.3811 18.637 4
      vertex 40.3051 18.637 4
      vertex 40.511 20.296 4
    endloop
  endfacet
  facet normal 0 -0 1
    outer loop
      vertex 42.9191 17.938 4
      vertex 43.4337 19.7827 4
      vertex 42.2255 18.3263 4
    endloop
  endfacet
  facet normal 0 0 1
    outer loop
      vertex 44.502 19.141 4
      vertex 43.4337 19.7827 4
      vertex 42.9191 17.938 4
    endloop
  endfacet
  facet normal 0 0 1
    outer loop
      vertex 45.2837 18.271 4
      vertex 44.502 19.141 4
      vertex 43.4235 17.4014 4
    endloop
  endfacet
  facet normal -0 0 1
    outer loop
      vertex 43.7262 16.7238 4
      vertex 43.8271 15.905 4
      vertex 45.7527 17.1997 4
    endloop
  endfacet
  facet normal 0 -0 1
    outer loop
      vertex 45.7986 14.8526 4
      vertex 45.9091 15.927 4
      vertex 43.8271 15.905 4
    endloop
  endfacet
  facet normal 0 0 1
    outer loop
      vertex 43.7274 15.0551 4
      vertex 43.4284 14.3414 4
      vertex 45.4673 13.8985 4
    endloop
  endfacet
  facet normal 0 0 1
    outer loop
      vertex 43.4284 14.3414 4
      vertex 42.9301 13.764 4
      vertex 44.9151 13.065 4
    endloop
  endfacet
  facet normal 0 -0 1
    outer loop
      vertex 44.1685 12.3868 4
      vertex 44.9151 13.065 4
      vertex 42.9301 13.764 4
    endloop
  endfacet
  facet normal 0 0 1
    outer loop
      vertex 43.2542 11.8988 4
      vertex 42.9301 13.764 4
      vertex 42.2494 13.3396 4
    endloop
  endfacet
  facet normal 0 0 1
    outer loop
      vertex 43.2542 11.8988 4
      vertex 42.2494 13.3396 4
      vertex 42.1721 11.601 4
    endloop
  endfacet
  facet normal 0 0 1
    outer loop
      vertex 42.2494 13.3396 4
      vertex 41.4034 13.0849 4
      vertex 42.1721 11.601 4
    endloop
  endfacet
  facet normal 0.999781 0.0209502 0
    outer loop
      vertex 11.621 17.258 2
      vertex 11.664 15.206 4
      vertex 11.664 15.206 2
    endloop
  endfacet
  facet normal 0.999781 0.0209502 -0
    outer loop
      vertex 11.621 17.258 2
      vertex 11.621 17.258 4
      vertex 11.664 15.206 4
    endloop
  endfacet
  facet normal 0.999625 0.0273669 0
    outer loop
      vertex 11.588 18.463 2
      vertex 11.621 17.258 4
      vertex 11.621 17.258 2
    endloop
  endfacet
  facet normal 0.999625 0.0273669 -0
    outer loop
      vertex 11.588 18.463 2
      vertex 11.588 18.463 4
      vertex 11.621 17.258 4
    endloop
  endfacet
  facet normal -0.95787 -0.287202 0
    outer loop
      vertex 11.946 17.269 2
      vertex 11.588 18.463 4
      vertex 11.588 18.463 2
    endloop
  endfacet
  facet normal -0.95787 -0.287202 0
    outer loop
      vertex 11.946 17.269 2
      vertex 11.946 17.269 4
      vertex 11.588 18.463 4
    endloop
  endfacet
  facet normal -0.949963 -0.312362 0
    outer loop
      vertex 12.553 15.423 2
      vertex 11.946 17.269 4
      vertex 11.946 17.269 2
    endloop
  endfacet
  facet normal -0.949963 -0.312362 0
    outer loop
      vertex 12.553 15.423 2
      vertex 12.553 15.423 4
      vertex 11.946 17.269 4
    endloop
  endfacet
  facet normal -0.933581 -0.358366 0
    outer loop
      vertex 16.554 5 2
      vertex 12.553 15.423 4
      vertex 12.553 15.423 2
    endloop
  endfacet
  facet normal -0.933581 -0.358366 0
    outer loop
      vertex 16.554 5 2
      vertex 16.554 5 4
      vertex 12.553 15.423 4
    endloop
  endfacet
  facet normal 0 -1 0
    outer loop
      vertex 18.007 5 2
      vertex 16.554 5 4
      vertex 16.554 5 2
    endloop
  endfacet
  facet normal 0 -1 0
    outer loop
      vertex 18.007 5 2
      vertex 18.007 5 4
      vertex 16.554 5 4
    endloop
  endfacet
  facet normal 0.935222 -0.354062 0
    outer loop
      vertex 21.953 15.423 2
      vertex 18.007 5 4
      vertex 18.007 5 2
    endloop
  endfacet
  facet normal 0.935222 -0.354062 0
    outer loop
      vertex 21.953 15.423 2
      vertex 21.953 15.423 4
      vertex 18.007 5 4
    endloop
  endfacet
  facet normal 0.942015 -0.335572 0
    outer loop
      vertex 22.247 16.2483 2
      vertex 21.953 15.423 4
      vertex 21.953 15.423 2
    endloop
  endfacet
  facet normal 0.942015 -0.335572 0
    outer loop
      vertex 22.247 16.2483 2
      vertex 22.247 16.2483 4
      vertex 21.953 15.423 4
    endloop
  endfacet
  facet normal 0.954124 -0.299412 0
    outer loop
      vertex 22.565 17.2617 2
      vertex 22.247 16.2483 4
      vertex 22.247 16.2483 2
    endloop
  endfacet
  facet normal 0.954124 -0.299412 0
    outer loop
      vertex 22.565 17.2617 2
      vertex 22.565 17.2617 4
      vertex 22.247 16.2483 4
    endloop
  endfacet
  facet normal 0.961784 -0.273811 0
    outer loop
      vertex 22.907 18.463 2
      vertex 22.565 17.2617 4
      vertex 22.565 17.2617 2
    endloop
  endfacet
  facet normal 0.961784 -0.273811 0
    outer loop
      vertex 22.907 18.463 2
      vertex 22.907 18.463 4
      vertex 22.565 17.2617 4
    endloop
  endfacet
  facet normal -0.998702 0.0509425 0
    outer loop
      vertex 22.8531 17.4064 2
      vertex 22.907 18.463 4
      vertex 22.907 18.463 2
    endloop
  endfacet
  facet normal -0.998702 0.0509425 0
    outer loop
      vertex 22.8531 17.4064 2
      vertex 22.8531 17.4064 4
      vertex 22.907 18.463 4
    endloop
  endfacet
  facet normal -0.999557 0.029769 0
    outer loop
      vertex 22.8208 16.3208 2
      vertex 22.8531 17.4064 4
      vertex 22.8531 17.4064 2
    endloop
  endfacet
  facet normal -0.999557 0.029769 0
    outer loop
      vertex 22.8208 16.3208 2
      vertex 22.8208 16.3208 4
      vertex 22.8531 17.4064 4
    endloop
  endfacet
  facet normal -0.999953 0.0096631 0
    outer loop
      vertex 22.81 15.206 2
      vertex 22.8208 16.3208 4
      vertex 22.8208 16.3208 2
    endloop
  endfacet
  facet normal -0.999953 0.0096631 0
    outer loop
      vertex 22.81 15.206 2
      vertex 22.81 15.206 4
      vertex 22.8208 16.3208 4
    endloop
  endfacet
  facet normal -1 0 0
    outer loop
      vertex 22.81 5 2
      vertex 22.81 15.206 4
      vertex 22.81 15.206 2
    endloop
  endfacet
  facet normal -1 0 0
    outer loop
      vertex 22.81 5 2
      vertex 22.81 5 4
      vertex 22.81 15.206 4
    endloop
  endfacet
  facet normal 0 -1 0
    outer loop
      vertex 24.675 5 2
      vertex 22.81 5 4
      vertex 22.81 5 2
    endloop
  endfacet
  facet normal 0 -1 0
    outer loop
      vertex 24.675 5 2
      vertex 24.675 5 4
      vertex 22.81 5 4
    endloop
  endfacet
  facet normal 1 0 0
    outer loop
      vertex 24.675 20.296 2
      vertex 24.675 5 4
      vertex 24.675 5 2
    endloop
  endfacet
  facet normal 1 0 -0
    outer loop
      vertex 24.675 20.296 2
      vertex 24.675 20.296 4
      vertex 24.675 5 4
    endloop
  endfacet
  facet normal 0 1 0
    outer loop
      vertex 22.018 20.296 2
      vertex 24.675 20.296 4
      vertex 24.675 20.296 2
    endloop
  endfacet
  facet normal 0 1 0
    outer loop
      vertex 22.018 20.296 2
      vertex 22.018 20.296 4
      vertex 24.675 20.296 4
    endloop
  endfacet
  facet normal -0.935992 0.352021 0
    outer loop
      vertex 17.9438 9.463 2
      vertex 22.018 20.296 4
      vertex 22.018 20.296 2
    endloop
  endfacet
  facet normal -0.935992 0.352021 0
    outer loop
      vertex 17.9438 9.463 2
      vertex 17.9438 9.463 4
      vertex 22.018 20.296 4
    endloop
  endfacet
  facet normal -0.947657 0.31929 0
    outer loop
      vertex 17.8188 9.092 2
      vertex 17.9438 9.463 4
      vertex 17.9438 9.463 2
    endloop
  endfacet
  facet normal -0.947657 0.31929 0
    outer loop
      vertex 17.8188 9.092 2
      vertex 17.8188 9.092 4
      vertex 17.9438 9.463 4
    endloop
  endfacet
  facet normal -0.952776 0.303673 0
    outer loop
      vertex 17.654 8.575 2
      vertex 17.8188 9.092 4
      vertex 17.8188 9.092 2
    endloop
  endfacet
  facet normal -0.952776 0.303673 0
    outer loop
      vertex 17.654 8.575 2
      vertex 17.654 8.575 4
      vertex 17.8188 9.092 4
    endloop
  endfacet
  facet normal -0.957323 0.28902 0
    outer loop
      vertex 17.491 8.03511 2
      vertex 17.654 8.575 4
      vertex 17.654 8.575 2
    endloop
  endfacet
  facet normal -0.957323 0.28902 0
    outer loop
      vertex 17.491 8.03511 2
      vertex 17.491 8.03511 4
      vertex 17.654 8.575 4
    endloop
  endfacet
  facet normal -0.964153 0.265348 0
    outer loop
      vertex 17.37 7.59544 2
      vertex 17.491 8.03511 4
      vertex 17.491 8.03511 2
    endloop
  endfacet
  facet normal -0.964153 0.265348 0
    outer loop
      vertex 17.37 7.59544 2
      vertex 17.37 7.59544 4
      vertex 17.491 8.03511 4
    endloop
  endfacet
  facet normal -0.973964 0.226701 0
    outer loop
      vertex 17.291 7.256 2
      vertex 17.37 7.59544 4
      vertex 17.37 7.59544 2
    endloop
  endfacet
  facet normal -0.973964 0.226701 0
    outer loop
      vertex 17.291 7.256 2
      vertex 17.291 7.256 4
      vertex 17.37 7.59544 4
    endloop
  endfacet
  facet normal 0.976112 0.217267 0
    outer loop
      vertex 17.2325 7.51855 2
      vertex 17.291 7.256 4
      vertex 17.291 7.256 2
    endloop
  endfacet
  facet normal 0.976112 0.217267 -0
    outer loop
      vertex 17.2325 7.51855 2
      vertex 17.2325 7.51855 4
      vertex 17.291 7.256 4
    endloop
  endfacet
  facet normal 0.969871 0.243621 0
    outer loop
      vertex 17.1439 7.87155 2
      vertex 17.2325 7.51855 4
      vertex 17.2325 7.51855 2
    endloop
  endfacet
  facet normal 0.969871 0.243621 -0
    outer loop
      vertex 17.1439 7.87155 2
      vertex 17.1439 7.87155 4
      vertex 17.2325 7.51855 4
    endloop
  endfacet
  facet normal 0.965892 0.258947 0
    outer loop
      vertex 17.025 8.31499 2
      vertex 17.1439 7.87155 4
      vertex 17.1439 7.87155 2
    endloop
  endfacet
  facet normal 0.965892 0.258947 -0
    outer loop
      vertex 17.025 8.31499 2
      vertex 17.025 8.31499 4
      vertex 17.1439 7.87155 4
    endloop
  endfacet
  facet normal 0.962287 0.272036 0
    outer loop
      vertex 16.8898 8.79332 2
      vertex 17.025 8.31499 4
      vertex 17.025 8.31499 2
    endloop
  endfacet
  facet normal 0.962287 0.272036 -0
    outer loop
      vertex 16.8898 8.79332 2
      vertex 16.8898 8.79332 4
      vertex 17.025 8.31499 4
    endloop
  endfacet
  facet normal 0.956839 0.290618 0
    outer loop
      vertex 16.7508 9.25099 2
      vertex 16.8898 8.79332 4
      vertex 16.8898 8.79332 2
    endloop
  endfacet
  facet normal 0.956839 0.290618 -0
    outer loop
      vertex 16.7508 9.25099 2
      vertex 16.7508 9.25099 4
      vertex 16.8898 8.79332 4
    endloop
  endfacet
  facet normal 0.950552 0.310566 0
    outer loop
      vertex 16.608 9.68799 2
      vertex 16.7508 9.25099 4
      vertex 16.7508 9.25099 2
    endloop
  endfacet
  facet normal 0.950552 0.310566 -0
    outer loop
      vertex 16.608 9.68799 2
      vertex 16.608 9.68799 4
      vertex 16.7508 9.25099 4
    endloop
  endfacet
  facet normal 0.933788 0.357828 0
    outer loop
      vertex 12.543 20.296 2
      vertex 16.608 9.68799 4
      vertex 16.608 9.68799 2
    endloop
  endfacet
  facet normal 0.933788 0.357828 -0
    outer loop
      vertex 12.543 20.296 2
      vertex 12.543 20.296 4
      vertex 16.608 9.68799 4
    endloop
  endfacet
  facet normal 0 1 0
    outer loop
      vertex 9.821 20.296 2
      vertex 12.543 20.296 4
      vertex 12.543 20.296 2
    endloop
  endfacet
  facet normal 0 1 0
    outer loop
      vertex 9.821 20.296 2
      vertex 9.821 20.296 4
      vertex 12.543 20.296 4
    endloop
  endfacet
  facet normal -1 0 0
    outer loop
      vertex 9.821 5 2
      vertex 9.821 20.296 4
      vertex 9.821 20.296 2
    endloop
  endfacet
  facet normal -1 0 0
    outer loop
      vertex 9.821 5 2
      vertex 9.821 5 4
      vertex 9.821 20.296 4
    endloop
  endfacet
  facet normal 0 -1 0
    outer loop
      vertex 11.664 5 2
      vertex 9.821 5 4
      vertex 9.821 5 2
    endloop
  endfacet
  facet normal 0 -1 0
    outer loop
      vertex 11.664 5 2
      vertex 11.664 5 4
      vertex 9.821 5 4
    endloop
  endfacet
  facet normal 1 0 0
    outer loop
      vertex 11.664 15.206 2
      vertex 11.664 5 4
      vertex 11.664 5 2
    endloop
  endfacet
  facet normal 1 0 -0
    outer loop
      vertex 11.664 15.206 2
      vertex 11.664 15.206 4
      vertex 11.664 5 4
    endloop
  endfacet
  facet normal 0 -1 0
    outer loop
      vertex 40.155 11.363 2
      vertex 35.3811 11.363 4
      vertex 35.3811 11.363 2
    endloop
  endfacet
  facet normal 0 -1 0
    outer loop
      vertex 40.155 11.363 2
      vertex 40.155 11.363 4
      vertex 35.3811 11.363 4
    endloop
  endfacet
  facet normal -0.84805 -0.529917 0
    outer loop
      vertex 44.1311 5 2
      vertex 40.155 11.363 4
      vertex 40.155 11.363 2
    endloop
  endfacet
  facet normal -0.84805 -0.529917 0
    outer loop
      vertex 44.1311 5 2
      vertex 44.1311 5 4
      vertex 40.155 11.363 4
    endloop
  endfacet
  facet normal 0 -1 0
    outer loop
      vertex 46.517 5 2
      vertex 44.1311 5 4
      vertex 44.1311 5 2
    endloop
  endfacet
  facet normal 0 -1 0
    outer loop
      vertex 46.517 5 2
      vertex 46.517 5 4
      vertex 44.1311 5 4
    endloop
  endfacet
  facet normal 0.835288 0.549813 0
    outer loop
      vertex 42.1721 11.601 2
      vertex 46.517 5 4
      vertex 46.517 5 2
    endloop
  endfacet
  facet normal 0.835288 0.549813 -0
    outer loop
      vertex 42.1721 11.601 2
      vertex 42.1721 11.601 4
      vertex 46.517 5 4
    endloop
  endfacet
  facet normal 0.265319 -0.964161 0
    outer loop
      vertex 43.2542 11.8988 2
      vertex 42.1721 11.601 4
      vertex 42.1721 11.601 2
    endloop
  endfacet
  facet normal 0.265319 -0.964161 0
    outer loop
      vertex 43.2542 11.8988 2
      vertex 43.2542 11.8988 4
      vertex 42.1721 11.601 4
    endloop
  endfacet
  facet normal 0.470847 -0.882215 0
    outer loop
      vertex 44.1685 12.3868 2
      vertex 43.2542 11.8988 4
      vertex 43.2542 11.8988 2
    endloop
  endfacet
  facet normal 0.470847 -0.882215 0
    outer loop
      vertex 44.1685 12.3868 2
      vertex 44.1685 12.3868 4
      vertex 43.2542 11.8988 4
    endloop
  endfacet
  facet normal 0.672423 -0.740167 0
    outer loop
      vertex 44.9151 13.065 2
      vertex 44.1685 12.3868 4
      vertex 44.1685 12.3868 2
    endloop
  endfacet
  facet normal 0.672423 -0.740167 0
    outer loop
      vertex 44.9151 13.065 2
      vertex 44.9151 13.065 4
      vertex 44.1685 12.3868 4
    endloop
  endfacet
  facet normal 0.833657 -0.552282 0
    outer loop
      vertex 45.4673 13.8985 2
      vertex 44.9151 13.065 4
      vertex 44.9151 13.065 2
    endloop
  endfacet
  facet normal 0.833657 -0.552282 0
    outer loop
      vertex 45.4673 13.8985 2
      vertex 45.4673 13.8985 4
      vertex 44.9151 13.065 4
    endloop
  endfacet
  facet normal 0.94465 -0.328079 0
    outer loop
      vertex 45.7986 14.8526 2
      vertex 45.4673 13.8985 4
      vertex 45.4673 13.8985 2
    endloop
  endfacet
  facet normal 0.94465 -0.328079 0
    outer loop
      vertex 45.7986 14.8526 2
      vertex 45.7986 14.8526 4
      vertex 45.4673 13.8985 4
    endloop
  endfacet
  facet normal 0.994757 -0.102267 0
    outer loop
      vertex 45.9091 15.927 2
      vertex 45.7986 14.8526 4
      vertex 45.7986 14.8526 2
    endloop
  endfacet
  facet normal 0.994757 -0.102267 0
    outer loop
      vertex 45.9091 15.927 2
      vertex 45.9091 15.927 4
      vertex 45.7986 14.8526 4
    endloop
  endfacet
  facet normal 0.992539 0.121928 0
    outer loop
      vertex 45.7527 17.1997 2
      vertex 45.9091 15.927 4
      vertex 45.9091 15.927 2
    endloop
  endfacet
  facet normal 0.992539 0.121928 -0
    outer loop
      vertex 45.7527 17.1997 2
      vertex 45.7527 17.1997 4
      vertex 45.9091 15.927 4
    endloop
  endfacet
  facet normal 0.916068 0.401023 0
    outer loop
      vertex 45.2837 18.271 2
      vertex 45.7527 17.1997 4
      vertex 45.7527 17.1997 2
    endloop
  endfacet
  facet normal 0.916068 0.401023 -0
    outer loop
      vertex 45.2837 18.271 2
      vertex 45.2837 18.271 4
      vertex 45.7527 17.1997 4
    endloop
  endfacet
  facet normal 0.743854 0.668342 0
    outer loop
      vertex 44.502 19.141 2
      vertex 45.2837 18.271 4
      vertex 45.2837 18.271 2
    endloop
  endfacet
  facet normal 0.743854 0.668342 -0
    outer loop
      vertex 44.502 19.141 2
      vertex 44.502 19.141 4
      vertex 45.2837 18.271 4
    endloop
  endfacet
  facet normal 0.514888 0.857257 0
    outer loop
      vertex 43.4337 19.7827 2
      vertex 44.502 19.141 4
      vertex 44.502 19.141 2
    endloop
  endfacet
  facet normal 0.514888 0.857257 -0
    outer loop
      vertex 43.4337 19.7827 2
      vertex 43.4337 19.7827 4
      vertex 44.502 19.141 4
    endloop
  endfacet
  facet normal 0.277999 0.960581 0
    outer loop
      vertex 42.1034 20.1677 2
      vertex 43.4337 19.7827 4
      vertex 43.4337 19.7827 2
    endloop
  endfacet
  facet normal 0.277999 0.960581 -0
    outer loop
      vertex 42.1034 20.1677 2
      vertex 42.1034 20.1677 4
      vertex 43.4337 19.7827 4
    endloop
  endfacet
  facet normal 0.0803299 0.996768 0
    outer loop
      vertex 40.511 20.296 2
      vertex 42.1034 20.1677 4
      vertex 42.1034 20.1677 2
    endloop
  endfacet
  facet normal 0.0803299 0.996768 -0
    outer loop
      vertex 40.511 20.296 2
      vertex 40.511 20.296 4
      vertex 42.1034 20.1677 4
    endloop
  endfacet
  facet normal 0 1 0
    outer loop
      vertex 33.3101 20.296 2
      vertex 40.511 20.296 4
      vertex 40.511 20.296 2
    endloop
  endfacet
  facet normal 0 1 0
    outer loop
      vertex 33.3101 20.296 2
      vertex 33.3101 20.296 4
      vertex 40.511 20.296 4
    endloop
  endfacet
  facet normal -1 0 0
    outer loop
      vertex 33.3101 5 2
      vertex 33.3101 20.296 4
      vertex 33.3101 20.296 2
    endloop
  endfacet
  facet normal -1 0 0
    outer loop
      vertex 33.3101 5 2
      vertex 33.3101 5 4
      vertex 33.3101 20.296 4
    endloop
  endfacet
  facet normal 0 -1 0
    outer loop
      vertex 35.3811 5 2
      vertex 33.3101 5 4
      vertex 33.3101 5 2
    endloop
  endfacet
  facet normal 0 -1 0
    outer loop
      vertex 35.3811 5 2
      vertex 35.3811 5 4
      vertex 33.3101 5 4
    endloop
  endfacet
  facet normal 1 0 0
    outer loop
      vertex 35.3811 11.363 2
      vertex 35.3811 5 4
      vertex 35.3811 5 2
    endloop
  endfacet
  facet normal 1 0 -0
    outer loop
      vertex 35.3811 11.363 2
      vertex 35.3811 11.363 4
      vertex 35.3811 5 4
    endloop
  endfacet
  facet normal 1 0 -0
    outer loop
      vertex 35.3811 18.637 2
      vertex 35.3811 18.637 4
      vertex 35.3811 13 2
    endloop
  endfacet
  facet normal 1 -0 0
    outer loop
      vertex 35.3811 13 4
      vertex 35.3811 13 2
      vertex 35.3811 18.637 4
    endloop
  endfacet
  facet normal 0 -1 0
    outer loop
      vertex 40.3051 18.637 2
      vertex 40.3051 18.637 4
      vertex 35.3811 18.637 2
    endloop
  endfacet
  facet normal 0 -1 0
    outer loop
      vertex 35.3811 18.637 4
      vertex 35.3811 18.637 2
      vertex 40.3051 18.637 4
    endloop
  endfacet
  facet normal -0.07383 -0.997271 0
    outer loop
      vertex 41.3542 18.5593 2
      vertex 41.3542 18.5593 4
      vertex 40.3051 18.637 2
    endloop
  endfacet
  facet normal -0.07383 -0.997271 -0
    outer loop
      vertex 40.3051 18.637 4
      vertex 40.3051 18.637 2
      vertex 41.3542 18.5593 4
    endloop
  endfacet
  facet normal -0.25833 -0.966057 0
    outer loop
      vertex 42.2255 18.3263 2
      vertex 42.2255 18.3263 4
      vertex 41.3542 18.5593 2
    endloop
  endfacet
  facet normal -0.25833 -0.966057 -0
    outer loop
      vertex 41.3542 18.5593 4
      vertex 41.3542 18.5593 2
      vertex 42.2255 18.3263 4
    endloop
  endfacet
  facet normal -0.48855 -0.872536 0
    outer loop
      vertex 42.9191 17.938 2
      vertex 42.9191 17.938 4
      vertex 42.2255 18.3263 2
    endloop
  endfacet
  facet normal -0.48855 -0.872536 -0
    outer loop
      vertex 42.2255 18.3263 4
      vertex 42.2255 18.3263 2
      vertex 42.9191 17.938 4
    endloop
  endfacet
  facet normal -0.728568 -0.684974 0
    outer loop
      vertex 43.4235 17.4014 2
      vertex 43.4235 17.4014 4
      vertex 42.9191 17.938 2
    endloop
  endfacet
  facet normal -0.728568 -0.684974 -0
    outer loop
      vertex 42.9191 17.938 4
      vertex 42.9191 17.938 2
      vertex 43.4235 17.4014 4
    endloop
  endfacet
  facet normal -0.913067 -0.407809 0
    outer loop
      vertex 43.7262 16.7238 2
      vertex 43.7262 16.7238 4
      vertex 43.4235 17.4014 2
    endloop
  endfacet
  facet normal -0.913067 -0.407809 -0
    outer loop
      vertex 43.4235 17.4014 4
      vertex 43.4235 17.4014 2
      vertex 43.7262 16.7238 4
    endloop
  endfacet
  facet normal -0.992493 -0.122298 0
    outer loop
      vertex 43.8271 15.905 2
      vertex 43.8271 15.905 4
      vertex 43.7262 16.7238 2
    endloop
  endfacet
  facet normal -0.992493 -0.122298 -0
    outer loop
      vertex 43.7262 16.7238 4
      vertex 43.7262 16.7238 2
      vertex 43.8271 15.905 4
    endloop
  endfacet
  facet normal -0.993194 0.116475 0
    outer loop
      vertex 43.7274 15.0551 2
      vertex 43.7274 15.0551 4
      vertex 43.8271 15.905 2
    endloop
  endfacet
  facet normal -0.993194 0.116475 0
    outer loop
      vertex 43.8271 15.905 4
      vertex 43.8271 15.905 2
      vertex 43.7274 15.0551 4
    endloop
  endfacet
  facet normal -0.922325 0.386414 0
    outer loop
      vertex 43.4284 14.3414 2
      vertex 43.4284 14.3414 4
      vertex 43.7274 15.0551 2
    endloop
  endfacet
  facet normal -0.922325 0.386414 0
    outer loop
      vertex 43.7274 15.0551 4
      vertex 43.7274 15.0551 2
      vertex 43.4284 14.3414 4
    endloop
  endfacet
  facet normal -0.757056 0.65335 0
    outer loop
      vertex 42.9301 13.764 2
      vertex 42.9301 13.764 4
      vertex 43.4284 14.3414 2
    endloop
  endfacet
  facet normal -0.757056 0.65335 0
    outer loop
      vertex 43.4284 14.3414 4
      vertex 43.4284 14.3414 2
      vertex 42.9301 13.764 4
    endloop
  endfacet
  facet normal -0.529123 0.848545 0
    outer loop
      vertex 42.2494 13.3396 2
      vertex 42.2494 13.3396 4
      vertex 42.9301 13.764 2
    endloop
  endfacet
  facet normal -0.529123 0.848545 0
    outer loop
      vertex 42.9301 13.764 4
      vertex 42.9301 13.764 2
      vertex 42.2494 13.3396 4
    endloop
  endfacet
  facet normal -0.288248 0.957556 0
    outer loop
      vertex 41.4034 13.0849 2
      vertex 41.4034 13.0849 4
      vertex 42.2494 13.3396 2
    endloop
  endfacet
  facet normal -0.288248 0.957556 0
    outer loop
      vertex 42.2494 13.3396 4
      vertex 42.2494 13.3396 2
      vertex 41.4034 13.0849 4
    endloop
  endfacet
  facet normal -0.083639 0.996496 0
    outer loop
      vertex 40.392 13 2
      vertex 40.392 13 4
      vertex 41.4034 13.0849 2
    endloop
  endfacet
  facet normal -0.083639 0.996496 0
    outer loop
      vertex 41.4034 13.0849 4
      vertex 41.4034 13.0849 2
      vertex 40.392 13 4
    endloop
  endfacet
  facet normal 0 1 0
    outer loop
      vertex 35.3811 13 2
      vertex 35.3811 13 4
      vertex 40.392 13 2
    endloop
  endfacet
  facet normal 0 1 0
    outer loop
      vertex 40.392 13 4
      vertex 40.392 13 2
      vertex 35.3811 13 4
    endloop
  endfacet
endsolid OpenSCAD_Model
