solid OpenSCAD_Model
  facet normal 0 0 -1
    outer loop
      vertex 11.614 16.977 2
      vertex 9.825 20.296 2
      vertex 11.56 18.03 2
    endloop
  endfacet
  facet normal -0 0 -1
    outer loop
      vertex 11.668 15.163 2
      vertex 9.825 5 2
      vertex 9.825 20.296 2
    endloop
  endfacet
  facet normal 0 0 -1
    outer loop
      vertex 11.668 15.163 2
      vertex 9.825 20.296 2
      vertex 11.614 16.977 2
    endloop
  endfacet
  facet normal -0 0 -1
    outer loop
      vertex 22.25 20.296 2
      vertex 20.385 10.264 2
      vertex 20.385 20.296 2
    endloop
  endfacet
  facet normal 0 -0 -1
    outer loop
      vertex 22.25 20.296 2
      vertex 22.25 5 2
      vertex 20.385 10.264 2
    endloop
  endfacet
  facet normal 0 0 -1
    outer loop
      vertex 38.0147 8.575 2
      vertex 38.1795 9.092 2
      vertex 38.3677 5 2
    endloop
  endfacet
  facet normal 0 -0 -1
    outer loop
      vertex 32.0247 15.206 2
      vertex 32.0247 5 2
      vertex 30.1817 5 2
    endloop
  endfacet
  facet normal 0 0 -1
    outer loop
      vertex 20.385 10.264 2
      vertex 22.25 5 2
      vertex 20.3994 9.49643 2
    endloop
  endfacet
  facet normal 0 0 -1
    outer loop
      vertex 20.3994 9.49643 2
      vertex 22.25 5 2
      vertex 20.4428 8.46843 2
    endloop
  endfacet
  facet normal 0 0 -1
    outer loop
      vertex 11.668 5 2
      vertex 9.825 5 2
      vertex 11.668 15.163 2
    endloop
  endfacet
  facet normal 0 0 -1
    outer loop
      vertex 20.4428 8.46843 2
      vertex 22.25 5 2
      vertex 20.515 7.17999 2
    endloop
  endfacet
  facet normal 0 0 -1
    outer loop
      vertex 11.56 18.03 2
      vertex 9.825 20.296 2
      vertex 12.232 20.296 2
    endloop
  endfacet
  facet normal 0 -0 -1
    outer loop
      vertex 20.515 7.17999 2
      vertex 22.25 5 2
      vertex 19.756 5 2
    endloop
  endfacet
  facet normal 0 0 -1
    outer loop
      vertex 19.756 5 2
      vertex 11.56 18.03 2
      vertex 20.515 7.17999 2
    endloop
  endfacet
  facet normal 0 0 -1
    outer loop
      vertex 11.56 18.03 2
      vertex 12.232 20.296 2
      vertex 20.515 7.17999 2
    endloop
  endfacet
  facet normal 0 0 -1
    outer loop
      vertex 30.1817 20.296 2
      vertex 31.9817 17.258 2
      vertex 32.0247 15.206 2
    endloop
  endfacet
  facet normal 0 0 -1
    outer loop
      vertex 30.1817 20.296 2
      vertex 31.9487 18.463 2
      vertex 31.9817 17.258 2
    endloop
  endfacet
  facet normal 0 0 -1
    outer loop
      vertex 36.9147 5 2
      vertex 37.5933 7.51855 2
      vertex 37.6517 7.256 2
    endloop
  endfacet
  facet normal 0 0 -1
    outer loop
      vertex 38.3677 5 2
      vertex 38.3045 9.463 2
      vertex 42.3137 15.423 2
    endloop
  endfacet
  facet normal 0 0 -1
    outer loop
      vertex 36.9147 5 2
      vertex 37.1115 9.25099 2
      vertex 37.2505 8.79332 2
    endloop
  endfacet
  facet normal -0 0 -1
    outer loop
      vertex 42.9257 17.2617 2
      vertex 42.6077 16.2483 2
      vertex 42.3787 20.296 2
    endloop
  endfacet
  facet normal -0 0 -1
    outer loop
      vertex 43.2677 18.463 2
      vertex 42.9257 17.2617 2
      vertex 42.3787 20.296 2
    endloop
  endfacet
  facet normal -0 0 -1
    outer loop
      vertex 45.0357 20.296 2
      vertex 43.2677 18.463 2
      vertex 42.3787 20.296 2
    endloop
  endfacet
  facet normal 0 0 -1
    outer loop
      vertex 43.1707 15.206 2
      vertex 43.1815 16.3208 2
      vertex 45.0357 20.296 2
    endloop
  endfacet
  facet normal 0 0 -1
    outer loop
      vertex 45.0357 5 2
      vertex 43.1707 15.206 2
      vertex 45.0357 20.296 2
    endloop
  endfacet
  facet normal 0 0 -1
    outer loop
      vertex 45.0357 5 2
      vertex 43.1707 5 2
      vertex 43.1707 15.206 2
    endloop
  endfacet
  facet normal 0 0 -1
    outer loop
      vertex 45.0357 20.296 2
      vertex 43.1815 16.3208 2
      vertex 43.2139 17.4064 2
    endloop
  endfacet
  facet normal 0 -0 -1
    outer loop
      vertex 43.2677 18.463 2
      vertex 45.0357 20.296 2
      vertex 43.2139 17.4064 2
    endloop
  endfacet
  facet normal 0 0 -1
    outer loop
      vertex 32.9137 15.423 2
      vertex 32.3067 17.269 2
      vertex 32.9037 20.296 2
    endloop
  endfacet
  facet normal 0 0 -1
    outer loop
      vertex 38.1795 9.092 2
      vertex 38.3045 9.463 2
      vertex 38.3677 5 2
    endloop
  endfacet
  facet normal 0 0 -1
    outer loop
      vertex 36.9147 5 2
      vertex 37.2505 8.79332 2
      vertex 37.3857 8.31499 2
    endloop
  endfacet
  facet normal -0 0 -1
    outer loop
      vertex 42.6077 16.2483 2
      vertex 42.3137 15.423 2
      vertex 42.3787 20.296 2
    endloop
  endfacet
  facet normal -0 0 -1
    outer loop
      vertex 42.3137 15.423 2
      vertex 38.3045 9.463 2
      vertex 42.3787 20.296 2
    endloop
  endfacet
  facet normal 0 0 -1
    outer loop
      vertex 30.1817 20.296 2
      vertex 32.9037 20.296 2
      vertex 31.9487 18.463 2
    endloop
  endfacet
  facet normal 0 0 -1
    outer loop
      vertex 37.8517 8.03511 2
      vertex 38.0147 8.575 2
      vertex 38.3677 5 2
    endloop
  endfacet
  facet normal 0 0 -1
    outer loop
      vertex 37.7307 7.59544 2
      vertex 37.8517 8.03511 2
      vertex 38.3677 5 2
    endloop
  endfacet
  facet normal 0 0 -1
    outer loop
      vertex 36.9147 5 2
      vertex 37.6517 7.256 2
      vertex 38.3677 5 2
    endloop
  endfacet
  facet normal 0 0 -1
    outer loop
      vertex 37.6517 7.256 2
      vertex 37.7307 7.59544 2
      vertex 38.3677 5 2
    endloop
  endfacet
  facet normal 0 -0 -1
    outer loop
      vertex 37.5046 7.87155 2
      vertex 37.5933 7.51855 2
      vertex 36.9147 5 2
    endloop
  endfacet
  facet normal 0 -0 -1
    outer loop
      vertex 37.3857 8.31499 2
      vertex 37.5046 7.87155 2
      vertex 36.9147 5 2
    endloop
  endfacet
  facet normal 0 0 -1
    outer loop
      vertex 36.9147 5 2
      vertex 36.9687 9.68799 2
      vertex 37.1115 9.25099 2
    endloop
  endfacet
  facet normal 0 0 -1
    outer loop
      vertex 36.9147 5 2
      vertex 32.9137 15.423 2
      vertex 36.9687 9.68799 2
    endloop
  endfacet
  facet normal 0 0 -1
    outer loop
      vertex 32.9037 20.296 2
      vertex 32.3067 17.269 2
      vertex 31.9487 18.463 2
    endloop
  endfacet
  facet normal 0 0 -1
    outer loop
      vertex 32.9137 15.423 2
      vertex 32.9037 20.296 2
      vertex 36.9687 9.68799 2
    endloop
  endfacet
  facet normal -0 0 -1
    outer loop
      vertex 32.0247 15.206 2
      vertex 30.1817 5 2
      vertex 30.1817 20.296 2
    endloop
  endfacet
  facet normal 0 0 1
    outer loop
      vertex 11.56 18.03 4
      vertex 9.825 20.296 4
      vertex 11.614 16.977 4
    endloop
  endfacet
  facet normal 0 0 1
    outer loop
      vertex 9.825 20.296 4
      vertex 9.825 5 4
      vertex 11.668 15.163 4
    endloop
  endfacet
  facet normal 0 0 1
    outer loop
      vertex 11.614 16.977 4
      vertex 9.825 20.296 4
      vertex 11.668 15.163 4
    endloop
  endfacet
  facet normal -0 0 1
    outer loop
      vertex 20.385 20.296 4
      vertex 20.385 10.264 4
      vertex 22.25 20.296 4
    endloop
  endfacet
  facet normal -0 0 1
    outer loop
      vertex 20.385 10.264 4
      vertex 22.25 5 4
      vertex 22.25 20.296 4
    endloop
  endfacet
  facet normal 0 0 1
    outer loop
      vertex 38.3677 5 4
      vertex 38.1795 9.092 4
      vertex 38.0147 8.575 4
    endloop
  endfacet
  facet normal 0 0 1
    outer loop
      vertex 30.1817 5 4
      vertex 32.0247 5 4
      vertex 32.0247 15.206 4
    endloop
  endfacet
  facet normal -0 -0 1
    outer loop
      vertex 20.3994 9.49643 4
      vertex 22.25 5 4
      vertex 20.385 10.264 4
    endloop
  endfacet
  facet normal -0 -0 1
    outer loop
      vertex 20.4428 8.46843 4
      vertex 22.25 5 4
      vertex 20.3994 9.49643 4
    endloop
  endfacet
  facet normal 0 0 1
    outer loop
      vertex 11.668 15.163 4
      vertex 9.825 5 4
      vertex 11.668 5 4
    endloop
  endfacet
  facet normal -0 -0 1
    outer loop
      vertex 20.515 7.17999 4
      vertex 22.25 5 4
      vertex 20.4428 8.46843 4
    endloop
  endfacet
  facet normal 0 0 1
    outer loop
      vertex 12.232 20.296 4
      vertex 9.825 20.296 4
      vertex 11.56 18.03 4
    endloop
  endfacet
  facet normal 0 0 1
    outer loop
      vertex 19.756 5 4
      vertex 22.25 5 4
      vertex 20.515 7.17999 4
    endloop
  endfacet
  facet normal 0 0 1
    outer loop
      vertex 20.515 7.17999 4
      vertex 11.56 18.03 4
      vertex 19.756 5 4
    endloop
  endfacet
  facet normal 0 0 1
    outer loop
      vertex 20.515 7.17999 4
      vertex 12.232 20.296 4
      vertex 11.56 18.03 4
    endloop
  endfacet
  facet normal 0 0 1
    outer loop
      vertex 32.0247 15.206 4
      vertex 31.9817 17.258 4
      vertex 30.1817 20.296 4
    endloop
  endfacet
  facet normal 0 0 1
    outer loop
      vertex 31.9817 17.258 4
      vertex 31.9487 18.463 4
      vertex 30.1817 20.296 4
    endloop
  endfacet
  facet normal 0 0 1
    outer loop
      vertex 37.6517 7.256 4
      vertex 37.5933 7.51855 4
      vertex 36.9147 5 4
    endloop
  endfacet
  facet normal 0 0 1
    outer loop
      vertex 42.3137 15.423 4
      vertex 38.3045 9.463 4
      vertex 38.3677 5 4
    endloop
  endfacet
  facet normal 0 0 1
    outer loop
      vertex 37.2505 8.79332 4
      vertex 37.1115 9.25099 4
      vertex 36.9147 5 4
    endloop
  endfacet
  facet normal 0 0 1
    outer loop
      vertex 42.3787 20.296 4
      vertex 42.6077 16.2483 4
      vertex 42.9257 17.2617 4
    endloop
  endfacet
  facet normal 0 0 1
    outer loop
      vertex 42.3787 20.296 4
      vertex 42.9257 17.2617 4
      vertex 43.2677 18.463 4
    endloop
  endfacet
  facet normal -0 0 1
    outer loop
      vertex 42.3787 20.296 4
      vertex 43.2677 18.463 4
      vertex 45.0357 20.296 4
    endloop
  endfacet
  facet normal 0 0 1
    outer loop
      vertex 45.0357 20.296 4
      vertex 43.1815 16.3208 4
      vertex 43.1707 15.206 4
    endloop
  endfacet
  facet normal 0 0 1
    outer loop
      vertex 45.0357 20.296 4
      vertex 43.1707 15.206 4
      vertex 45.0357 5 4
    endloop
  endfacet
  facet normal 0 0 1
    outer loop
      vertex 43.1707 15.206 4
      vertex 43.1707 5 4
      vertex 45.0357 5 4
    endloop
  endfacet
  facet normal -0 0 1
    outer loop
      vertex 43.2139 17.4064 4
      vertex 43.1815 16.3208 4
      vertex 45.0357 20.296 4
    endloop
  endfacet
  facet normal 0 0 1
    outer loop
      vertex 43.2139 17.4064 4
      vertex 45.0357 20.296 4
      vertex 43.2677 18.463 4
    endloop
  endfacet
  facet normal 0 0 1
    outer loop
      vertex 32.9037 20.296 4
      vertex 32.3067 17.269 4
      vertex 32.9137 15.423 4
    endloop
  endfacet
  facet normal 0 0 1
    outer loop
      vertex 38.3677 5 4
      vertex 38.3045 9.463 4
      vertex 38.1795 9.092 4
    endloop
  endfacet
  facet normal 0 0 1
    outer loop
      vertex 37.3857 8.31499 4
      vertex 37.2505 8.79332 4
      vertex 36.9147 5 4
    endloop
  endfacet
  facet normal 0 0 1
    outer loop
      vertex 42.3787 20.296 4
      vertex 42.3137 15.423 4
      vertex 42.6077 16.2483 4
    endloop
  endfacet
  facet normal 0 0 1
    outer loop
      vertex 42.3787 20.296 4
      vertex 38.3045 9.463 4
      vertex 42.3137 15.423 4
    endloop
  endfacet
  facet normal 0 -0 1
    outer loop
      vertex 31.9487 18.463 4
      vertex 32.9037 20.296 4
      vertex 30.1817 20.296 4
    endloop
  endfacet
  facet normal 0 0 1
    outer loop
      vertex 38.3677 5 4
      vertex 38.0147 8.575 4
      vertex 37.8517 8.03511 4
    endloop
  endfacet
  facet normal 0 0 1
    outer loop
      vertex 38.3677 5 4
      vertex 37.8517 8.03511 4
      vertex 37.7307 7.59544 4
    endloop
  endfacet
  facet normal 0 0 1
    outer loop
      vertex 38.3677 5 4
      vertex 37.6517 7.256 4
      vertex 36.9147 5 4
    endloop
  endfacet
  facet normal 0 0 1
    outer loop
      vertex 38.3677 5 4
      vertex 37.7307 7.59544 4
      vertex 37.6517 7.256 4
    endloop
  endfacet
  facet normal 0 0 1
    outer loop
      vertex 36.9147 5 4
      vertex 37.5933 7.51855 4
      vertex 37.5046 7.87155 4
    endloop
  endfacet
  facet normal 0 0 1
    outer loop
      vertex 36.9147 5 4
      vertex 37.5046 7.87155 4
      vertex 37.3857 8.31499 4
    endloop
  endfacet
  facet normal 0 0 1
    outer loop
      vertex 37.1115 9.25099 4
      vertex 36.9687 9.68799 4
      vertex 36.9147 5 4
    endloop
  endfacet
  facet normal 0 0 1
    outer loop
      vertex 36.9687 9.68799 4
      vertex 32.9137 15.423 4
      vertex 36.9147 5 4
    endloop
  endfacet
  facet normal -0 0 1
    outer loop
      vertex 31.9487 18.463 4
      vertex 32.3067 17.269 4
      vertex 32.9037 20.296 4
    endloop
  endfacet
  facet normal 0 0 1
    outer loop
      vertex 36.9687 9.68799 4
      vertex 32.9037 20.296 4
      vertex 32.9137 15.423 4
    endloop
  endfacet
  facet normal 0 0 1
    outer loop
      vertex 30.1817 20.296 4
      vertex 30.1817 5 4
      vertex 32.0247 15.206 4
    endloop
  endfacet
  facet normal 0.999557 0.0297558 0
    outer loop
      vertex 11.614 16.977 2
      vertex 11.668 15.163 4
      vertex 11.668 15.163 2
    endloop
  endfacet
  facet normal 0.999557 0.0297558 -0
    outer loop
      vertex 11.614 16.977 2
      vertex 11.614 16.977 4
      vertex 11.668 15.163 4
    endloop
  endfacet
  facet normal 0.998688 0.0512151 0
    outer loop
      vertex 11.56 18.03 2
      vertex 11.614 16.977 4
      vertex 11.614 16.977 2
    endloop
  endfacet
  facet normal 0.998688 0.0512151 -0
    outer loop
      vertex 11.56 18.03 2
      vertex 11.56 18.03 4
      vertex 11.614 16.977 4
    endloop
  endfacet
  facet normal -0.846469 -0.532438 0
    outer loop
      vertex 19.756 5 2
      vertex 11.56 18.03 4
      vertex 11.56 18.03 2
    endloop
  endfacet
  facet normal -0.846469 -0.532438 0
    outer loop
      vertex 19.756 5 2
      vertex 19.756 5 4
      vertex 11.56 18.03 4
    endloop
  endfacet
  facet normal 0 -1 0
    outer loop
      vertex 22.25 5 2
      vertex 19.756 5 4
      vertex 19.756 5 2
    endloop
  endfacet
  facet normal 0 -1 0
    outer loop
      vertex 22.25 5 2
      vertex 22.25 5 4
      vertex 19.756 5 4
    endloop
  endfacet
  facet normal 1 0 0
    outer loop
      vertex 22.25 20.296 2
      vertex 22.25 5 4
      vertex 22.25 5 2
    endloop
  endfacet
  facet normal 1 0 -0
    outer loop
      vertex 22.25 20.296 2
      vertex 22.25 20.296 4
      vertex 22.25 5 4
    endloop
  endfacet
  facet normal 0 1 0
    outer loop
      vertex 20.385 20.296 2
      vertex 22.25 20.296 4
      vertex 22.25 20.296 2
    endloop
  endfacet
  facet normal 0 1 0
    outer loop
      vertex 20.385 20.296 2
      vertex 20.385 20.296 4
      vertex 22.25 20.296 4
    endloop
  endfacet
  facet normal -1 0 0
    outer loop
      vertex 20.385 10.264 2
      vertex 20.385 20.296 4
      vertex 20.385 20.296 2
    endloop
  endfacet
  facet normal -1 0 0
    outer loop
      vertex 20.385 10.264 2
      vertex 20.385 10.264 4
      vertex 20.385 20.296 4
    endloop
  endfacet
  facet normal -0.999823 -0.0188027 0
    outer loop
      vertex 20.3994 9.49643 2
      vertex 20.385 10.264 4
      vertex 20.385 10.264 2
    endloop
  endfacet
  facet normal -0.999823 -0.0188027 0
    outer loop
      vertex 20.3994 9.49643 2
      vertex 20.3994 9.49643 4
      vertex 20.385 10.264 4
    endloop
  endfacet
  facet normal -0.999113 -0.0421172 0
    outer loop
      vertex 20.4428 8.46843 2
      vertex 20.3994 9.49643 4
      vertex 20.3994 9.49643 2
    endloop
  endfacet
  facet normal -0.999113 -0.0421172 0
    outer loop
      vertex 20.4428 8.46843 2
      vertex 20.4428 8.46843 4
      vertex 20.3994 9.49643 4
    endloop
  endfacet
  facet normal -0.998432 -0.0559762 0
    outer loop
      vertex 20.515 7.17999 2
      vertex 20.4428 8.46843 4
      vertex 20.4428 8.46843 2
    endloop
  endfacet
  facet normal -0.998432 -0.0559762 0
    outer loop
      vertex 20.515 7.17999 2
      vertex 20.515 7.17999 4
      vertex 20.4428 8.46843 4
    endloop
  endfacet
  facet normal 0.845512 0.533957 0
    outer loop
      vertex 12.232 20.296 2
      vertex 20.515 7.17999 4
      vertex 20.515 7.17999 2
    endloop
  endfacet
  facet normal 0.845512 0.533957 -0
    outer loop
      vertex 12.232 20.296 2
      vertex 12.232 20.296 4
      vertex 20.515 7.17999 4
    endloop
  endfacet
  facet normal 0 1 0
    outer loop
      vertex 9.825 20.296 2
      vertex 12.232 20.296 4
      vertex 12.232 20.296 2
    endloop
  endfacet
  facet normal 0 1 0
    outer loop
      vertex 9.825 20.296 2
      vertex 9.825 20.296 4
      vertex 12.232 20.296 4
    endloop
  endfacet
  facet normal -1 0 0
    outer loop
      vertex 9.825 5 2
      vertex 9.825 20.296 4
      vertex 9.825 20.296 2
    endloop
  endfacet
  facet normal -1 0 0
    outer loop
      vertex 9.825 5 2
      vertex 9.825 5 4
      vertex 9.825 20.296 4
    endloop
  endfacet
  facet normal 0 -1 0
    outer loop
      vertex 11.668 5 2
      vertex 9.825 5 4
      vertex 9.825 5 2
    endloop
  endfacet
  facet normal 0 -1 0
    outer loop
      vertex 11.668 5 2
      vertex 11.668 5 4
      vertex 9.825 5 4
    endloop
  endfacet
  facet normal 1 0 0
    outer loop
      vertex 11.668 15.163 2
      vertex 11.668 5 4
      vertex 11.668 5 2
    endloop
  endfacet
  facet normal 1 0 -0
    outer loop
      vertex 11.668 15.163 2
      vertex 11.668 15.163 4
      vertex 11.668 5 4
    endloop
  endfacet
  facet normal 0.999781 0.0209502 0
    outer loop
      vertex 31.9817 17.258 2
      vertex 32.0247 15.206 4
      vertex 32.0247 15.206 2
    endloop
  endfacet
  facet normal 0.999781 0.0209502 -0
    outer loop
      vertex 31.9817 17.258 2
      vertex 31.9817 17.258 4
      vertex 32.0247 15.206 4
    endloop
  endfacet
  facet normal 0.999625 0.0273795 0
    outer loop
      vertex 31.9487 18.463 2
      vertex 31.9817 17.258 4
      vertex 31.9817 17.258 2
    endloop
  endfacet
  facet normal 0.999625 0.0273795 -0
    outer loop
      vertex 31.9487 18.463 2
      vertex 31.9487 18.463 4
      vertex 31.9817 17.258 4
    endloop
  endfacet
  facet normal -0.95787 -0.287202 0
    outer loop
      vertex 32.3067 17.269 2
      vertex 31.9487 18.463 4
      vertex 31.9487 18.463 2
    endloop
  endfacet
  facet normal -0.95787 -0.287202 0
    outer loop
      vertex 32.3067 17.269 2
      vertex 32.3067 17.269 4
      vertex 31.9487 18.463 4
    endloop
  endfacet
  facet normal -0.949961 -0.312369 0
    outer loop
      vertex 32.9137 15.423 2
      vertex 32.3067 17.269 4
      vertex 32.3067 17.269 2
    endloop
  endfacet
  facet normal -0.949961 -0.312369 0
    outer loop
      vertex 32.9137 15.423 2
      vertex 32.9137 15.423 4
      vertex 32.3067 17.269 4
    endloop
  endfacet
  facet normal -0.933581 -0.358366 0
    outer loop
      vertex 36.9147 5 2
      vertex 32.9137 15.423 4
      vertex 32.9137 15.423 2
    endloop
  endfacet
  facet normal -0.933581 -0.358366 0
    outer loop
      vertex 36.9147 5 2
      vertex 36.9147 5 4
      vertex 32.9137 15.423 4
    endloop
  endfacet
  facet normal 0 -1 0
    outer loop
      vertex 38.3677 5 2
      vertex 36.9147 5 4
      vertex 36.9147 5 2
    endloop
  endfacet
  facet normal 0 -1 0
    outer loop
      vertex 38.3677 5 2
      vertex 38.3677 5 4
      vertex 36.9147 5 4
    endloop
  endfacet
  facet normal 0.935222 -0.354062 0
    outer loop
      vertex 42.3137 15.423 2
      vertex 38.3677 5 4
      vertex 38.3677 5 2
    endloop
  endfacet
  facet normal 0.935222 -0.354062 0
    outer loop
      vertex 42.3137 15.423 2
      vertex 42.3137 15.423 4
      vertex 38.3677 5 4
    endloop
  endfacet
  facet normal 0.94202 -0.335556 0
    outer loop
      vertex 42.6077 16.2483 2
      vertex 42.3137 15.423 4
      vertex 42.3137 15.423 2
    endloop
  endfacet
  facet normal 0.94202 -0.335556 0
    outer loop
      vertex 42.6077 16.2483 2
      vertex 42.6077 16.2483 4
      vertex 42.3137 15.423 4
    endloop
  endfacet
  facet normal 0.95412 -0.299425 0
    outer loop
      vertex 42.9257 17.2617 2
      vertex 42.6077 16.2483 4
      vertex 42.6077 16.2483 2
    endloop
  endfacet
  facet normal 0.95412 -0.299425 0
    outer loop
      vertex 42.9257 17.2617 2
      vertex 42.9257 17.2617 4
      vertex 42.6077 16.2483 4
    endloop
  endfacet
  facet normal 0.961787 -0.2738 0
    outer loop
      vertex 43.2677 18.463 2
      vertex 42.9257 17.2617 4
      vertex 42.9257 17.2617 2
    endloop
  endfacet
  facet normal 0.961787 -0.2738 0
    outer loop
      vertex 43.2677 18.463 2
      vertex 43.2677 18.463 4
      vertex 42.9257 17.2617 4
    endloop
  endfacet
  facet normal -0.998702 0.0509282 0
    outer loop
      vertex 43.2139 17.4064 2
      vertex 43.2677 18.463 4
      vertex 43.2677 18.463 2
    endloop
  endfacet
  facet normal -0.998702 0.0509282 0
    outer loop
      vertex 43.2139 17.4064 2
      vertex 43.2139 17.4064 4
      vertex 43.2677 18.463 4
    endloop
  endfacet
  facet normal -0.999557 0.029769 0
    outer loop
      vertex 43.1815 16.3208 2
      vertex 43.2139 17.4064 4
      vertex 43.2139 17.4064 2
    endloop
  endfacet
  facet normal -0.999557 0.029769 0
    outer loop
      vertex 43.1815 16.3208 2
      vertex 43.1815 16.3208 4
      vertex 43.2139 17.4064 4
    endloop
  endfacet
  facet normal -0.999953 0.00967679 0
    outer loop
      vertex 43.1707 15.206 2
      vertex 43.1815 16.3208 4
      vertex 43.1815 16.3208 2
    endloop
  endfacet
  facet normal -0.999953 0.00967679 0
    outer loop
      vertex 43.1707 15.206 2
      vertex 43.1707 15.206 4
      vertex 43.1815 16.3208 4
    endloop
  endfacet
  facet normal -1 0 0
    outer loop
      vertex 43.1707 5 2
      vertex 43.1707 15.206 4
      vertex 43.1707 15.206 2
    endloop
  endfacet
  facet normal -1 0 0
    outer loop
      vertex 43.1707 5 2
      vertex 43.1707 5 4
      vertex 43.1707 15.206 4
    endloop
  endfacet
  facet normal 0 -1 0
    outer loop
      vertex 45.0357 5 2
      vertex 43.1707 5 4
      vertex 43.1707 5 2
    endloop
  endfacet
  facet normal 0 -1 0
    outer loop
      vertex 45.0357 5 2
      vertex 45.0357 5 4
      vertex 43.1707 5 4
    endloop
  endfacet
  facet normal 1 0 0
    outer loop
      vertex 45.0357 20.296 2
      vertex 45.0357 5 4
      vertex 45.0357 5 2
    endloop
  endfacet
  facet normal 1 0 -0
    outer loop
      vertex 45.0357 20.296 2
      vertex 45.0357 20.296 4
      vertex 45.0357 5 4
    endloop
  endfacet
  facet normal 0 1 0
    outer loop
      vertex 42.3787 20.296 2
      vertex 45.0357 20.296 4
      vertex 45.0357 20.296 2
    endloop
  endfacet
  facet normal 0 1 0
    outer loop
      vertex 42.3787 20.296 2
      vertex 42.3787 20.296 4
      vertex 45.0357 20.296 4
    endloop
  endfacet
  facet normal -0.935992 0.352021 0
    outer loop
      vertex 38.3045 9.463 2
      vertex 42.3787 20.296 4
      vertex 42.3787 20.296 2
    endloop
  endfacet
  facet normal -0.935992 0.352021 0
    outer loop
      vertex 38.3045 9.463 2
      vertex 38.3045 9.463 4
      vertex 42.3787 20.296 4
    endloop
  endfacet
  facet normal -0.947657 0.31929 0
    outer loop
      vertex 38.1795 9.092 2
      vertex 38.3045 9.463 4
      vertex 38.3045 9.463 2
    endloop
  endfacet
  facet normal -0.947657 0.31929 0
    outer loop
      vertex 38.1795 9.092 2
      vertex 38.1795 9.092 4
      vertex 38.3045 9.463 4
    endloop
  endfacet
  facet normal -0.952776 0.303673 0
    outer loop
      vertex 38.0147 8.575 2
      vertex 38.1795 9.092 4
      vertex 38.1795 9.092 2
    endloop
  endfacet
  facet normal -0.952776 0.303673 0
    outer loop
      vertex 38.0147 8.575 2
      vertex 38.0147 8.575 4
      vertex 38.1795 9.092 4
    endloop
  endfacet
  facet normal -0.957315 0.289045 0
    outer loop
      vertex 37.8517 8.03511 2
      vertex 38.0147 8.575 4
      vertex 38.0147 8.575 2
    endloop
  endfacet
  facet normal -0.957315 0.289045 0
    outer loop
      vertex 37.8517 8.03511 2
      vertex 37.8517 8.03511 4
      vertex 38.0147 8.575 4
    endloop
  endfacet
  facet normal -0.964153 0.265348 0
    outer loop
      vertex 37.7307 7.59544 2
      vertex 37.8517 8.03511 4
      vertex 37.8517 8.03511 2
    endloop
  endfacet
  facet normal -0.964153 0.265348 0
    outer loop
      vertex 37.7307 7.59544 2
      vertex 37.7307 7.59544 4
      vertex 37.8517 8.03511 4
    endloop
  endfacet
  facet normal -0.973974 0.226659 0
    outer loop
      vertex 37.6517 7.256 2
      vertex 37.7307 7.59544 4
      vertex 37.7307 7.59544 2
    endloop
  endfacet
  facet normal -0.973974 0.226659 0
    outer loop
      vertex 37.6517 7.256 2
      vertex 37.6517 7.256 4
      vertex 37.7307 7.59544 4
    endloop
  endfacet
  facet normal 0.976112 0.217267 0
    outer loop
      vertex 37.5933 7.51855 2
      vertex 37.6517 7.256 4
      vertex 37.6517 7.256 2
    endloop
  endfacet
  facet normal 0.976112 0.217267 -0
    outer loop
      vertex 37.5933 7.51855 2
      vertex 37.5933 7.51855 4
      vertex 37.6517 7.256 4
    endloop
  endfacet
  facet normal 0.969871 0.243621 0
    outer loop
      vertex 37.5046 7.87155 2
      vertex 37.5933 7.51855 4
      vertex 37.5933 7.51855 2
    endloop
  endfacet
  facet normal 0.969871 0.243621 -0
    outer loop
      vertex 37.5046 7.87155 2
      vertex 37.5046 7.87155 4
      vertex 37.5933 7.51855 4
    endloop
  endfacet
  facet normal 0.965892 0.258947 0
    outer loop
      vertex 37.3857 8.31499 2
      vertex 37.5046 7.87155 4
      vertex 37.5046 7.87155 2
    endloop
  endfacet
  facet normal 0.965892 0.258947 -0
    outer loop
      vertex 37.3857 8.31499 2
      vertex 37.3857 8.31499 4
      vertex 37.5046 7.87155 4
    endloop
  endfacet
  facet normal 0.962287 0.272036 0
    outer loop
      vertex 37.2505 8.79332 2
      vertex 37.3857 8.31499 4
      vertex 37.3857 8.31499 2
    endloop
  endfacet
  facet normal 0.962287 0.272036 -0
    outer loop
      vertex 37.2505 8.79332 2
      vertex 37.2505 8.79332 4
      vertex 37.3857 8.31499 4
    endloop
  endfacet
  facet normal 0.956839 0.290618 0
    outer loop
      vertex 37.1115 9.25099 2
      vertex 37.2505 8.79332 4
      vertex 37.2505 8.79332 2
    endloop
  endfacet
  facet normal 0.956839 0.290618 -0
    outer loop
      vertex 37.1115 9.25099 2
      vertex 37.1115 9.25099 4
      vertex 37.2505 8.79332 4
    endloop
  endfacet
  facet normal 0.950552 0.310566 0
    outer loop
      vertex 36.9687 9.68799 2
      vertex 37.1115 9.25099 4
      vertex 37.1115 9.25099 2
    endloop
  endfacet
  facet normal 0.950552 0.310566 -0
    outer loop
      vertex 36.9687 9.68799 2
      vertex 36.9687 9.68799 4
      vertex 37.1115 9.25099 4
    endloop
  endfacet
  facet normal 0.933787 0.357829 0
    outer loop
      vertex 32.9037 20.296 2
      vertex 36.9687 9.68799 4
      vertex 36.9687 9.68799 2
    endloop
  endfacet
  facet normal 0.933787 0.357829 -0
    outer loop
      vertex 32.9037 20.296 2
      vertex 32.9037 20.296 4
      vertex 36.9687 9.68799 4
    endloop
  endfacet
  facet normal 0 1 0
    outer loop
      vertex 30.1817 20.296 2
      vertex 32.9037 20.296 4
      vertex 32.9037 20.296 2
    endloop
  endfacet
  facet normal 0 1 0
    outer loop
      vertex 30.1817 20.296 2
      vertex 30.1817 20.296 4
      vertex 32.9037 20.296 4
    endloop
  endfacet
  facet normal -1 0 0
    outer loop
      vertex 30.1817 5 2
      vertex 30.1817 20.296 4
      vertex 30.1817 20.296 2
    endloop
  endfacet
  facet normal -1 0 0
    outer loop
      vertex 30.1817 5 2
      vertex 30.1817 5 4
      vertex 30.1817 20.296 4
    endloop
  endfacet
  facet normal 0 -1 0
    outer loop
      vertex 32.0247 5 2
      vertex 30.1817 5 4
      vertex 30.1817 5 2
    endloop
  endfacet
  facet normal 0 -1 0
    outer loop
      vertex 32.0247 5 2
      vertex 32.0247 5 4
      vertex 30.1817 5 4
    endloop
  endfacet
  facet normal 1 0 0
    outer loop
      vertex 32.0247 15.206 2
      vertex 32.0247 5 4
      vertex 32.0247 5 2
    endloop
  endfacet
  facet normal 1 0 -0
    outer loop
      vertex 32.0247 15.206 2
      vertex 32.0247 15.206 4
      vertex 32.0247 5 4
    endloop
  endfacet
endsolid OpenSCAD_Model
