solid OpenSCAD_Model
  facet normal 0 0 -1
    outer loop
      vertex 21.4737 9.34854 2
      vertex 23.8094 9.79077 2
      vertex 23.3 8.528 2
    endloop
  endfacet
  facet normal 0 0 -1
    outer loop
      vertex 20.687 8.11499 2
      vertex 21.4737 9.34854 2
      vertex 22.6007 7.42377 2
    endloop
  endfacet
  facet normal 0 -0 -1
    outer loop
      vertex 21.9457 10.8812 2
      vertex 23.8094 9.79077 2
      vertex 21.4737 9.34854 2
    endloop
  endfacet
  facet normal 0 -0 -1
    outer loop
      vertex 36.2739 6.49567 2
      vertex 37.3979 4.80801 2
      vertex 34.2027 5.23932 2
    endloop
  endfacet
  facet normal 0 0 -1
    outer loop
      vertex 21.9457 10.8812 2
      vertex 22.103 12.713 2
      vertex 24.1151 11.1858 2
    endloop
  endfacet
  facet normal -0 0 -1
    outer loop
      vertex 21.724 6.50444 2
      vertex 20.67 5.76999 2
      vertex 19.6062 7.21165 2
    endloop
  endfacet
  facet normal -0 0 -1
    outer loop
      vertex 36.2739 6.49567 2
      vertex 34.2027 5.23932 2
      vertex 35.2539 6.71066 2
    endloop
  endfacet
  facet normal 0 0 -1
    outer loop
      vertex 24.217 12.713 2
      vertex 22.103 12.713 2
      vertex 24.1163 14.2427 2
    endloop
  endfacet
  facet normal 0 0 -1
    outer loop
      vertex 18.2519 6.66966 2
      vertex 19.6062 7.21165 2
      vertex 19.4587 5.23555 2
    endloop
  endfacet
  facet normal 0 0 -1
    outer loop
      vertex 32.7649 13.746 2
      vertex 34.3262 15.0656 2
      vertex 33.1694 13.4282 2
    endloop
  endfacet
  facet normal -0 0 -1
    outer loop
      vertex 23.8143 15.6303 2
      vertex 21.9444 14.4714 2
      vertex 21.4688 15.9588 2
    endloop
  endfacet
  facet normal 0 -0 -1
    outer loop
      vertex 37.9199 13.794 2
      vertex 38.388 13.6853 2
      vertex 37.657 11.8984 2
    endloop
  endfacet
  facet normal -0 0 -1
    outer loop
      vertex 19.4801 20.0769 2
      vertex 18.2511 18.6159 2
      vertex 18.1314 20.3852 2
    endloop
  endfacet
  facet normal 0 0 -1
    outer loop
      vertex 40.7295 10.882 2
      vertex 41.4715 12.7182 2
      vertex 41.8519 12.518 2
    endloop
  endfacet
  facet normal 0 0 -1
    outer loop
      vertex 41.6479 9.12299 2
      vertex 41.61 9.5891 2
      vertex 43.6969 9.23099 2
    endloop
  endfacet
  facet normal 0 0 -1
    outer loop
      vertex 16.646 18.796 2
      vertex 18.1314 20.3852 2
      vertex 18.2511 18.6159 2
    endloop
  endfacet
  facet normal 0 0 -1
    outer loop
      vertex 20.676 17.175 2
      vertex 19.5944 18.0755 2
      vertex 21.7439 18.8538 2
    endloop
  endfacet
  facet normal 0 0 -1
    outer loop
      vertex 39.9117 11.2931 2
      vertex 41.0732 12.9002 2
      vertex 40.3489 11.102 2
    endloop
  endfacet
  facet normal 0 0 -1
    outer loop
      vertex 21.4688 15.9588 2
      vertex 20.676 17.175 2
      vertex 22.6172 17.9581 2
    endloop
  endfacet
  facet normal 0 0 -1
    outer loop
      vertex 41.3069 10.334 2
      vertex 41.0489 10.626 2
      vertex 42.5305 12.0371 2
    endloop
  endfacet
  facet normal 0 0 -1
    outer loop
      vertex 16.645 20.488 2
      vertex 15.028 18.6183 2
      vertex 14.4337 20.2591 2
    endloop
  endfacet
  facet normal 0 0 -1
    outer loop
      vertex 38.8779 11.61 2
      vertex 39.3209 13.464 2
      vertex 39.7795 13.3453 2
    endloop
  endfacet
  facet normal -0 0 -1
    outer loop
      vertex 23.311 16.876 2
      vertex 21.4688 15.9588 2
      vertex 22.6172 17.9581 2
    endloop
  endfacet
  facet normal 0 0 -1
    outer loop
      vertex 34.2929 20.0169 2
      vertex 35.7232 20.3702 2
      vertex 35.3674 18.6571 2
    endloop
  endfacet
  facet normal 0 -0 -1
    outer loop
      vertex 12.5717 19.5724 2
      vertex 12.588 17.197 2
      vertex 11.059 18.428 2
    endloop
  endfacet
  facet normal 0 0 -1
    outer loop
      vertex 37.4199 18.926 2
      vertex 37.4409 20.488 2
      vertex 38.4493 18.8651 2
    endloop
  endfacet
  facet normal 0 -0 -1
    outer loop
      vertex 11.059 18.428 2
      vertex 11.7924 15.9881 2
      vertex 9.94398 16.8774 2
    endloop
  endfacet
  facet normal 0 0 -1
    outer loop
      vertex 11.7924 15.9881 2
      vertex 11.3151 14.4934 2
      vertex 9.27499 14.9724 2
    endloop
  endfacet
  facet normal 0 0 -1
    outer loop
      vertex 11.3151 14.4934 2
      vertex 11.156 12.713 2
      vertex 9.05199 12.713 2
    endloop
  endfacet
  facet normal 0 -0 -1
    outer loop
      vertex 11.156 12.713 2
      vertex 11.3169 10.9352 2
      vertex 9.15199 11.179 2
    endloop
  endfacet
  facet normal 0 0 -1
    outer loop
      vertex 12.5717 19.5724 2
      vertex 13.6753 18.0853 2
      vertex 12.588 17.197 2
    endloop
  endfacet
  facet normal 0 0 -1
    outer loop
      vertex 9.452 9.77832 2
      vertex 11.3169 10.9352 2
      vertex 11.7995 9.42055 2
    endloop
  endfacet
  facet normal -0 0 -1
    outer loop
      vertex 18.11 4.9149 2
      vertex 16.624 4.80801 2
      vertex 16.624 6.489 2
    endloop
  endfacet
  facet normal 0 0 -1
    outer loop
      vertex 10.6423 7.40521 2
      vertex 12.604 8.16899 2
      vertex 11.512 6.48788 2
    endloop
  endfacet
  facet normal 0 0 -1
    outer loop
      vertex 13.772 5.23065 2
      vertex 15.0347 6.67566 2
      vertex 15.1263 4.91368 2
    endloop
  endfacet
  facet normal 0 0 -1
    outer loop
      vertex 13.6947 7.23566 2
      vertex 15.0347 6.67566 2
      vertex 13.772 5.23065 2
    endloop
  endfacet
  facet normal 0 0 -1
    outer loop
      vertex 12.561 5.75899 2
      vertex 13.6947 7.23566 2
      vertex 13.772 5.23065 2
    endloop
  endfacet
  facet normal 0 0 -1
    outer loop
      vertex 11.512 6.48788 2
      vertex 12.604 8.16899 2
      vertex 13.6947 7.23566 2
    endloop
  endfacet
  facet normal -0 0 -1
    outer loop
      vertex 16.624 6.489 2
      vertex 15.1263 4.91368 2
      vertex 15.0347 6.67566 2
    endloop
  endfacet
  facet normal 0 -0 -1
    outer loop
      vertex 16.624 6.489 2
      vertex 16.624 4.80801 2
      vertex 15.1263 4.91368 2
    endloop
  endfacet
  facet normal 0 0 -1
    outer loop
      vertex 9.952 8.51099 2
      vertex 11.7995 9.42055 2
      vertex 10.6423 7.40521 2
    endloop
  endfacet
  facet normal 0 0 -1
    outer loop
      vertex 12.561 5.75899 2
      vertex 11.512 6.48788 2
      vertex 13.6947 7.23566 2
    endloop
  endfacet
  facet normal 0 0 -1
    outer loop
      vertex 10.6423 7.40521 2
      vertex 11.7995 9.42055 2
      vertex 12.604 8.16899 2
    endloop
  endfacet
  facet normal 0 0 -1
    outer loop
      vertex 9.952 8.51099 2
      vertex 9.452 9.77832 2
      vertex 11.7995 9.42055 2
    endloop
  endfacet
  facet normal -0 0 -1
    outer loop
      vertex 11.3169 10.9352 2
      vertex 9.452 9.77832 2
      vertex 9.15199 11.179 2
    endloop
  endfacet
  facet normal -0 0 -1
    outer loop
      vertex 11.156 12.713 2
      vertex 9.15199 11.179 2
      vertex 9.05199 12.713 2
    endloop
  endfacet
  facet normal -0 0 -1
    outer loop
      vertex 11.3151 14.4934 2
      vertex 9.05199 12.713 2
      vertex 9.27499 14.9724 2
    endloop
  endfacet
  facet normal -0 0 -1
    outer loop
      vertex 11.7924 15.9881 2
      vertex 9.27499 14.9724 2
      vertex 9.94398 16.8774 2
    endloop
  endfacet
  facet normal -0 0 -1
    outer loop
      vertex 12.588 17.197 2
      vertex 11.7924 15.9881 2
      vertex 11.059 18.428 2
    endloop
  endfacet
  facet normal 0 0 -1
    outer loop
      vertex 12.5717 19.5724 2
      vertex 14.4337 20.2591 2
      vertex 13.6753 18.0853 2
    endloop
  endfacet
  facet normal 0 0 -1
    outer loop
      vertex 13.6753 18.0853 2
      vertex 14.4337 20.2591 2
      vertex 15.028 18.6183 2
    endloop
  endfacet
  facet normal 0 0 -1
    outer loop
      vertex 16.646 18.796 2
      vertex 16.645 20.488 2
      vertex 18.1314 20.3852 2
    endloop
  endfacet
  facet normal 0 0 -1
    outer loop
      vertex 15.028 18.6183 2
      vertex 16.645 20.488 2
      vertex 16.646 18.796 2
    endloop
  endfacet
  facet normal 0 -0 -1
    outer loop
      vertex 19.4801 20.0769 2
      vertex 19.5944 18.0755 2
      vertex 18.2511 18.6159 2
    endloop
  endfacet
  facet normal 0 0 -1
    outer loop
      vertex 19.5944 18.0755 2
      vertex 20.691 19.563 2
      vertex 21.7439 18.8538 2
    endloop
  endfacet
  facet normal 0 0 -1
    outer loop
      vertex 19.4801 20.0769 2
      vertex 20.691 19.563 2
      vertex 19.5944 18.0755 2
    endloop
  endfacet
  facet normal 0 0 -1
    outer loop
      vertex 20.676 17.175 2
      vertex 21.7439 18.8538 2
      vertex 22.6172 17.9581 2
    endloop
  endfacet
  facet normal 0 -0 -1
    outer loop
      vertex 23.311 16.876 2
      vertex 23.8143 15.6303 2
      vertex 21.4688 15.9588 2
    endloop
  endfacet
  facet normal 0 0 -1
    outer loop
      vertex 21.9444 14.4714 2
      vertex 24.1163 14.2427 2
      vertex 22.103 12.713 2
    endloop
  endfacet
  facet normal 0 -0 -1
    outer loop
      vertex 23.8143 15.6303 2
      vertex 24.1163 14.2427 2
      vertex 21.9444 14.4714 2
    endloop
  endfacet
  facet normal -0 0 -1
    outer loop
      vertex 24.217 12.713 2
      vertex 24.1151 11.1858 2
      vertex 22.103 12.713 2
    endloop
  endfacet
  facet normal 0 0 -1
    outer loop
      vertex 24.1151 11.1858 2
      vertex 23.8094 9.79077 2
      vertex 21.9457 10.8812 2
    endloop
  endfacet
  facet normal -0 0 -1
    outer loop
      vertex 23.3 8.528 2
      vertex 22.6007 7.42377 2
      vertex 21.4737 9.34854 2
    endloop
  endfacet
  facet normal -0 0 -1
    outer loop
      vertex 22.6007 7.42377 2
      vertex 21.724 6.50444 2
      vertex 20.687 8.11499 2
    endloop
  endfacet
  facet normal 0 -0 -1
    outer loop
      vertex 20.687 8.11499 2
      vertex 21.724 6.50444 2
      vertex 19.6062 7.21165 2
    endloop
  endfacet
  facet normal 0 -0 -1
    outer loop
      vertex 19.6062 7.21165 2
      vertex 20.67 5.76999 2
      vertex 19.4587 5.23555 2
    endloop
  endfacet
  facet normal 0 0 -1
    outer loop
      vertex 16.624 6.489 2
      vertex 18.2519 6.66966 2
      vertex 18.11 4.9149 2
    endloop
  endfacet
  facet normal 0 -0 -1
    outer loop
      vertex 18.2519 6.66966 2
      vertex 19.4587 5.23555 2
      vertex 18.11 4.9149 2
    endloop
  endfacet
  facet normal 0 0 -1
    outer loop
      vertex 32.049 6.53333 2
      vertex 34.4139 7.06898 2
      vertex 34.2027 5.23932 2
    endloop
  endfacet
  facet normal -0 0 -1
    outer loop
      vertex 41.4715 12.7182 2
      vertex 40.3489 11.102 2
      vertex 41.0732 12.9002 2
    endloop
  endfacet
  facet normal 0 0 -1
    outer loop
      vertex 41.4715 12.7182 2
      vertex 40.7295 10.882 2
      vertex 40.3489 11.102 2
    endloop
  endfacet
  facet normal -0 0 -1
    outer loop
      vertex 42.2075 12.2931 2
      vertex 40.7295 10.882 2
      vertex 41.8519 12.518 2
    endloop
  endfacet
  facet normal -0 0 -1
    outer loop
      vertex 40.6569 13.064 2
      vertex 39.9117 11.2931 2
      vertex 40.2249 13.212 2
    endloop
  endfacet
  facet normal 0 0 -1
    outer loop
      vertex 40.2249 13.212 2
      vertex 39.9117 11.2931 2
      vertex 39.4213 11.4624 2
    endloop
  endfacet
  facet normal 0 -0 -1
    outer loop
      vertex 43.075 11.4292 2
      vertex 43.2893 11.0722 2
      vertex 41.3069 10.334 2
    endloop
  endfacet
  facet normal 0 0 -1
    outer loop
      vertex 39.4213 11.4624 2
      vertex 38.8779 11.61 2
      vertex 39.7795 13.3453 2
    endloop
  endfacet
  facet normal 0 0 -1
    outer loop
      vertex 38.8779 11.61 2
      vertex 38.288 11.7508 2
      vertex 39.3209 13.464 2
    endloop
  endfacet
  facet normal 0 0 -1
    outer loop
      vertex 38.388 13.6853 2
      vertex 38.288 11.7508 2
      vertex 37.657 11.8984 2
    endloop
  endfacet
  facet normal 0 0 -1
    outer loop
      vertex 36.6755 14.0878 2
      vertex 37.9199 13.794 2
      vertex 36.9849 12.053 2
    endloop
  endfacet
  facet normal 0 0 -1
    outer loop
      vertex 35.877 12.3202 2
      vertex 36.6755 14.0878 2
      vertex 36.9849 12.053 2
    endloop
  endfacet
  facet normal 0 -0 -1
    outer loop
      vertex 35.1169 14.578 2
      vertex 35.7412 14.3491 2
      vertex 34.9626 12.5872 2
    endloop
  endfacet
  facet normal 0 0 -1
    outer loop
      vertex 34.6849 14.8062 2
      vertex 34.2419 12.854 2
      vertex 33.6618 13.1309 2
    endloop
  endfacet
  facet normal 0 0 -1
    outer loop
      vertex 31.778 15.3586 2
      vertex 33.7093 16.0773 2
      vertex 33.8336 15.6897 2
    endloop
  endfacet
  facet normal 0 0 -1
    outer loop
      vertex 31.8174 17.6164 2
      vertex 33.7748 17.2517 2
      vertex 33.6679 16.519 2
    endloop
  endfacet
  facet normal 0 0 -1
    outer loop
      vertex 33.7748 17.2517 2
      vertex 31.8174 17.6164 2
      vertex 32.3171 18.6221 2
    endloop
  endfacet
  facet normal 0 0 -1
    outer loop
      vertex 31.9369 14.897 2
      vertex 31.778 15.3586 2
      vertex 33.8336 15.6897 2
    endloop
  endfacet
  facet normal 0 0 -1
    outer loop
      vertex 32.4324 14.0925 2
      vertex 32.1564 14.4762 2
      vertex 34.0409 15.356 2
    endloop
  endfacet
  facet normal 0 0 -1
    outer loop
      vertex 33.7748 17.2517 2
      vertex 32.3171 18.6221 2
      vertex 34.0954 17.8523 2
    endloop
  endfacet
  facet normal 0 0 -1
    outer loop
      vertex 32.7649 13.746 2
      vertex 32.4324 14.0925 2
      vertex 34.0409 15.356 2
    endloop
  endfacet
  facet normal 0 0 -1
    outer loop
      vertex 33.7093 16.0773 2
      vertex 31.6509 16.411 2
      vertex 33.6679 16.519 2
    endloop
  endfacet
  facet normal 0 0 -1
    outer loop
      vertex 31.9369 14.897 2
      vertex 33.8336 15.6897 2
      vertex 32.1564 14.4762 2
    endloop
  endfacet
  facet normal 0 0 -1
    outer loop
      vertex 33.7093 16.0773 2
      vertex 31.778 15.3586 2
      vertex 31.6826 15.8632 2
    endloop
  endfacet
  facet normal -0 0 -1
    outer loop
      vertex 34.6299 18.321 2
      vertex 34.0954 17.8523 2
      vertex 33.1499 19.428 2
    endloop
  endfacet
  facet normal 0 0 -1
    outer loop
      vertex 34.6299 18.321 2
      vertex 34.2929 20.0169 2
      vertex 35.3674 18.6571 2
    endloop
  endfacet
  facet normal 0 0 -1
    outer loop
      vertex 35.3674 18.6571 2
      vertex 35.7232 20.3702 2
      vertex 36.2974 18.8588 2
    endloop
  endfacet
  facet normal 0 0 -1
    outer loop
      vertex 36.2974 18.8588 2
      vertex 35.7232 20.3702 2
      vertex 37.4409 20.488 2
    endloop
  endfacet
  facet normal -0 0 -1
    outer loop
      vertex 37.4199 18.926 2
      vertex 36.2974 18.8588 2
      vertex 37.4409 20.488 2
    endloop
  endfacet
  facet normal 0 0 -1
    outer loop
      vertex 38.4493 18.8651 2
      vertex 37.4409 20.488 2
      vertex 39.0363 20.3994 2
    endloop
  endfacet
  facet normal 0 0 -1
    outer loop
      vertex 39.3177 18.6824 2
      vertex 38.4493 18.8651 2
      vertex 39.0363 20.3994 2
    endloop
  endfacet
  facet normal 0 0 -1
    outer loop
      vertex 40.0249 18.378 2
      vertex 39.3177 18.6824 2
      vertex 40.36 20.1338 2
    endloop
  endfacet
  facet normal -0 0 -1
    outer loop
      vertex 40.36 20.1338 2
      vertex 39.3177 18.6824 2
      vertex 39.0363 20.3994 2
    endloop
  endfacet
  facet normal 0 0 -1
    outer loop
      vertex 41.4119 19.691 2
      vertex 40.5849 17.9391 2
      vertex 40.0249 18.378 2
    endloop
  endfacet
  facet normal 0 0 -1
    outer loop
      vertex 42.2371 19.0349 2
      vertex 41.0102 17.3518 2
      vertex 40.5849 17.9391 2
    endloop
  endfacet
  facet normal 0 -0 -1
    outer loop
      vertex 42.2371 19.0349 2
      vertex 42.8794 18.1292 2
      vertex 41.0102 17.3518 2
    endloop
  endfacet
  facet normal 0 0 -1
    outer loop
      vertex 41.0102 17.3518 2
      vertex 42.8794 18.1292 2
      vertex 41.3009 16.616 2
    endloop
  endfacet
  facet normal 0 0 -1
    outer loop
      vertex 41.3009 16.616 2
      vertex 42.8794 18.1292 2
      vertex 43.3389 16.974 2
    endloop
  endfacet
  facet normal 0 -0 -1
    outer loop
      vertex 41.4119 19.691 2
      vertex 42.2371 19.0349 2
      vertex 40.5849 17.9391 2
    endloop
  endfacet
  facet normal 0 -0 -1
    outer loop
      vertex 40.36 20.1338 2
      vertex 41.4119 19.691 2
      vertex 40.0249 18.378 2
    endloop
  endfacet
  facet normal 0 0 -1
    outer loop
      vertex 33.1499 19.428 2
      vertex 34.2929 20.0169 2
      vertex 34.6299 18.321 2
    endloop
  endfacet
  facet normal 0 -0 -1
    outer loop
      vertex 33.1499 19.428 2
      vertex 34.0954 17.8523 2
      vertex 32.3171 18.6221 2
    endloop
  endfacet
  facet normal 0 0 -1
    outer loop
      vertex 31.6509 16.411 2
      vertex 31.8174 17.6164 2
      vertex 33.6679 16.519 2
    endloop
  endfacet
  facet normal 0 0 -1
    outer loop
      vertex 31.6509 16.411 2
      vertex 33.7093 16.0773 2
      vertex 31.6826 15.8632 2
    endloop
  endfacet
  facet normal 0 -0 -1
    outer loop
      vertex 33.8336 15.6897 2
      vertex 34.0409 15.356 2
      vertex 32.1564 14.4762 2
    endloop
  endfacet
  facet normal -0 0 -1
    outer loop
      vertex 34.3262 15.0656 2
      vertex 32.7649 13.746 2
      vertex 34.0409 15.356 2
    endloop
  endfacet
  facet normal -0 0 -1
    outer loop
      vertex 34.6849 14.8062 2
      vertex 33.1694 13.4282 2
      vertex 34.3262 15.0656 2
    endloop
  endfacet
  facet normal 0 0 -1
    outer loop
      vertex 34.6849 14.8062 2
      vertex 33.6618 13.1309 2
      vertex 33.1694 13.4282 2
    endloop
  endfacet
  facet normal -0 0 -1
    outer loop
      vertex 35.1169 14.578 2
      vertex 34.2419 12.854 2
      vertex 34.6849 14.8062 2
    endloop
  endfacet
  facet normal 0 0 -1
    outer loop
      vertex 35.1169 14.578 2
      vertex 34.9626 12.5872 2
      vertex 34.2419 12.854 2
    endloop
  endfacet
  facet normal 0 -0 -1
    outer loop
      vertex 35.7412 14.3491 2
      vertex 35.877 12.3202 2
      vertex 34.9626 12.5872 2
    endloop
  endfacet
  facet normal 0 0 -1
    outer loop
      vertex 35.7412 14.3491 2
      vertex 36.6755 14.0878 2
      vertex 35.877 12.3202 2
    endloop
  endfacet
  facet normal 0 0 -1
    outer loop
      vertex 37.9199 13.794 2
      vertex 37.657 11.8984 2
      vertex 36.9849 12.053 2
    endloop
  endfacet
  facet normal -0 0 -1
    outer loop
      vertex 39.3209 13.464 2
      vertex 38.288 11.7508 2
      vertex 38.388 13.6853 2
    endloop
  endfacet
  facet normal 0 0 -1
    outer loop
      vertex 39.4213 11.4624 2
      vertex 39.7795 13.3453 2
      vertex 40.2249 13.212 2
    endloop
  endfacet
  facet normal 0 0 -1
    outer loop
      vertex 39.9117 11.2931 2
      vertex 40.6569 13.064 2
      vertex 41.0732 12.9002 2
    endloop
  endfacet
  facet normal 0 0 -1
    outer loop
      vertex 40.7295 10.882 2
      vertex 42.2075 12.2931 2
      vertex 41.0489 10.626 2
    endloop
  endfacet
  facet normal 0 0 -1
    outer loop
      vertex 39.2468 4.93657 2
      vertex 38.7062 6.50011 2
      vertex 39.7352 6.72844 2
    endloop
  endfacet
  facet normal 0 0 -1
    outer loop
      vertex 41.0489 10.626 2
      vertex 42.2075 12.2931 2
      vertex 42.5305 12.0371 2
    endloop
  endfacet
  facet normal 0 0 -1
    outer loop
      vertex 41.3069 10.334 2
      vertex 42.8209 11.75 2
      vertex 43.075 11.4292 2
    endloop
  endfacet
  facet normal 0 -0 -1
    outer loop
      vertex 42.5305 12.0371 2
      vertex 42.8209 11.75 2
      vertex 41.3069 10.334 2
    endloop
  endfacet
  facet normal 0 0 -1
    outer loop
      vertex 41.3069 10.334 2
      vertex 43.2893 11.0722 2
      vertex 41.4963 9.99277 2
    endloop
  endfacet
  facet normal 0 0 -1
    outer loop
      vertex 41.4963 9.99277 2
      vertex 43.2893 11.0722 2
      vertex 43.4639 10.679 2
    endloop
  endfacet
  facet normal 0 0 -1
    outer loop
      vertex 43.5933 10.2443 2
      vertex 41.61 9.5891 2
      vertex 41.4963 9.99277 2
    endloop
  endfacet
  facet normal -0 0 -1
    outer loop
      vertex 43.5933 10.2443 2
      vertex 41.4963 9.99277 2
      vertex 43.4639 10.679 2
    endloop
  endfacet
  facet normal 0 -0 -1
    outer loop
      vertex 43.5933 10.2443 2
      vertex 43.671 9.76166 2
      vertex 41.61 9.5891 2
    endloop
  endfacet
  facet normal 0 0 -1
    outer loop
      vertex 41.61 9.5891 2
      vertex 43.671 9.76166 2
      vertex 43.6969 9.23099 2
    endloop
  endfacet
  facet normal 0 -0 -1
    outer loop
      vertex 41.6479 9.12299 2
      vertex 43.5134 7.93077 2
      vertex 41.5271 8.30899 2
    endloop
  endfacet
  facet normal 0 0 -1
    outer loop
      vertex 43.6969 9.23099 2
      vertex 43.5134 7.93077 2
      vertex 41.6479 9.12299 2
    endloop
  endfacet
  facet normal -0 0 -1
    outer loop
      vertex 43.5134 7.93077 2
      vertex 42.9631 6.8421 2
      vertex 41.5271 8.30899 2
    endloop
  endfacet
  facet normal 0 0 -1
    outer loop
      vertex 41.1648 7.63766 2
      vertex 42.9631 6.8421 2
      vertex 42.0459 5.965 2
    endloop
  endfacet
  facet normal 0 -0 -1
    outer loop
      vertex 41.5271 8.30899 2
      vertex 42.9631 6.8421 2
      vertex 41.1648 7.63766 2
    endloop
  endfacet
  facet normal 0 0 -1
    outer loop
      vertex 40.5609 7.10899 2
      vertex 42.0459 5.965 2
      vertex 40.7961 5.32222 2
    endloop
  endfacet
  facet normal 0 -0 -1
    outer loop
      vertex 41.1648 7.63766 2
      vertex 42.0459 5.965 2
      vertex 40.5609 7.10899 2
    endloop
  endfacet
  facet normal 0 -0 -1
    outer loop
      vertex 39.7352 6.72844 2
      vertex 40.7961 5.32222 2
      vertex 39.2468 4.93657 2
    endloop
  endfacet
  facet normal 0 -0 -1
    outer loop
      vertex 40.5609 7.10899 2
      vertex 40.7961 5.32222 2
      vertex 39.7352 6.72844 2
    endloop
  endfacet
  facet normal 0 0 -1
    outer loop
      vertex 37.3979 4.80801 2
      vertex 38.7062 6.50011 2
      vertex 39.2468 4.93657 2
    endloop
  endfacet
  facet normal 0 0 -1
    outer loop
      vertex 37.3979 4.80801 2
      vertex 37.4739 6.424 2
      vertex 38.7062 6.50011 2
    endloop
  endfacet
  facet normal 0 0 -1
    outer loop
      vertex 36.2739 6.49567 2
      vertex 37.4739 6.424 2
      vertex 37.3979 4.80801 2
    endloop
  endfacet
  facet normal 0 0 -1
    outer loop
      vertex 32.049 6.53333 2
      vertex 33.261 8.25432 2
      vertex 33.751 7.58032 2
    endloop
  endfacet
  facet normal 0 0 -1
    outer loop
      vertex 32.049 6.53333 2
      vertex 30.9369 8.68999 2
      vertex 33.261 8.25432 2
    endloop
  endfacet
  facet normal 0 0 -1
    outer loop
      vertex 33.261 8.25432 2
      vertex 30.9369 8.68999 2
      vertex 32.9439 9.09099 2
    endloop
  endfacet
  facet normal 0 0 -1
    outer loop
      vertex 34.2027 5.23932 2
      vertex 34.4139 7.06898 2
      vertex 35.2539 6.71066 2
    endloop
  endfacet
  facet normal 0 0 -1
    outer loop
      vertex 32.049 6.53333 2
      vertex 33.751 7.58032 2
      vertex 34.4139 7.06898 2
    endloop
  endfacet
  facet normal 0 -0 1
    outer loop
      vertex 23.3 8.528 4
      vertex 23.8094 9.79077 4
      vertex 21.4737 9.34854 4
    endloop
  endfacet
  facet normal 0 0 1
    outer loop
      vertex 22.6007 7.42377 4
      vertex 21.4737 9.34854 4
      vertex 20.687 8.11499 4
    endloop
  endfacet
  facet normal 0 0 1
    outer loop
      vertex 21.4737 9.34854 4
      vertex 23.8094 9.79077 4
      vertex 21.9457 10.8812 4
    endloop
  endfacet
  facet normal -0 0 1
    outer loop
      vertex 34.2027 5.23932 4
      vertex 37.3979 4.80801 4
      vertex 36.2739 6.49567 4
    endloop
  endfacet
  facet normal 0 0 1
    outer loop
      vertex 24.1151 11.1858 4
      vertex 22.103 12.713 4
      vertex 21.9457 10.8812 4
    endloop
  endfacet
  facet normal 0 0 1
    outer loop
      vertex 19.6062 7.21165 4
      vertex 20.67 5.76999 4
      vertex 21.724 6.50444 4
    endloop
  endfacet
  facet normal 0 0 1
    outer loop
      vertex 35.2539 6.71066 4
      vertex 34.2027 5.23932 4
      vertex 36.2739 6.49567 4
    endloop
  endfacet
  facet normal 0 0 1
    outer loop
      vertex 24.1163 14.2427 4
      vertex 22.103 12.713 4
      vertex 24.217 12.713 4
    endloop
  endfacet
  facet normal 0 -0 1
    outer loop
      vertex 19.4587 5.23555 4
      vertex 19.6062 7.21165 4
      vertex 18.2519 6.66966 4
    endloop
  endfacet
  facet normal 0 -0 1
    outer loop
      vertex 33.1694 13.4282 4
      vertex 34.3262 15.0656 4
      vertex 32.7649 13.746 4
    endloop
  endfacet
  facet normal 0 0 1
    outer loop
      vertex 21.4688 15.9588 4
      vertex 21.9444 14.4714 4
      vertex 23.8143 15.6303 4
    endloop
  endfacet
  facet normal 0 0 1
    outer loop
      vertex 37.657 11.8984 4
      vertex 38.388 13.6853 4
      vertex 37.9199 13.794 4
    endloop
  endfacet
  facet normal 0 0 1
    outer loop
      vertex 18.1314 20.3852 4
      vertex 18.2511 18.6159 4
      vertex 19.4801 20.0769 4
    endloop
  endfacet
  facet normal 0 0 1
    outer loop
      vertex 41.8519 12.518 4
      vertex 41.4715 12.7182 4
      vertex 40.7295 10.882 4
    endloop
  endfacet
  facet normal 0 0 1
    outer loop
      vertex 43.6969 9.23099 4
      vertex 41.61 9.5891 4
      vertex 41.6479 9.12299 4
    endloop
  endfacet
  facet normal 0 0 1
    outer loop
      vertex 18.2511 18.6159 4
      vertex 18.1314 20.3852 4
      vertex 16.646 18.796 4
    endloop
  endfacet
  facet normal 0 0 1
    outer loop
      vertex 21.7439 18.8538 4
      vertex 19.5944 18.0755 4
      vertex 20.676 17.175 4
    endloop
  endfacet
  facet normal 0 -0 1
    outer loop
      vertex 40.3489 11.102 4
      vertex 41.0732 12.9002 4
      vertex 39.9117 11.2931 4
    endloop
  endfacet
  facet normal 0 0 1
    outer loop
      vertex 22.6172 17.9581 4
      vertex 20.676 17.175 4
      vertex 21.4688 15.9588 4
    endloop
  endfacet
  facet normal 0 0 1
    outer loop
      vertex 42.5305 12.0371 4
      vertex 41.0489 10.626 4
      vertex 41.3069 10.334 4
    endloop
  endfacet
  facet normal -0 0 1
    outer loop
      vertex 14.4337 20.2591 4
      vertex 15.028 18.6183 4
      vertex 16.645 20.488 4
    endloop
  endfacet
  facet normal 0 0 1
    outer loop
      vertex 39.7795 13.3453 4
      vertex 39.3209 13.464 4
      vertex 38.8779 11.61 4
    endloop
  endfacet
  facet normal 0 0 1
    outer loop
      vertex 22.6172 17.9581 4
      vertex 21.4688 15.9588 4
      vertex 23.311 16.876 4
    endloop
  endfacet
  facet normal 0 -0 1
    outer loop
      vertex 35.3674 18.6571 4
      vertex 35.7232 20.3702 4
      vertex 34.2929 20.0169 4
    endloop
  endfacet
  facet normal -0 0 1
    outer loop
      vertex 11.059 18.428 4
      vertex 12.588 17.197 4
      vertex 12.5717 19.5724 4
    endloop
  endfacet
  facet normal 0 0 1
    outer loop
      vertex 38.4493 18.8651 4
      vertex 37.4409 20.488 4
      vertex 37.4199 18.926 4
    endloop
  endfacet
  facet normal -0 0 1
    outer loop
      vertex 9.94398 16.8774 4
      vertex 11.7924 15.9881 4
      vertex 11.059 18.428 4
    endloop
  endfacet
  facet normal -0 0 1
    outer loop
      vertex 9.27499 14.9724 4
      vertex 11.3151 14.4934 4
      vertex 11.7924 15.9881 4
    endloop
  endfacet
  facet normal 0 0 1
    outer loop
      vertex 9.05199 12.713 4
      vertex 11.156 12.713 4
      vertex 11.3151 14.4934 4
    endloop
  endfacet
  facet normal -0 0 1
    outer loop
      vertex 9.15199 11.179 4
      vertex 11.3169 10.9352 4
      vertex 11.156 12.713 4
    endloop
  endfacet
  facet normal 0 -0 1
    outer loop
      vertex 12.588 17.197 4
      vertex 13.6753 18.0853 4
      vertex 12.5717 19.5724 4
    endloop
  endfacet
  facet normal 0 0 1
    outer loop
      vertex 11.7995 9.42055 4
      vertex 11.3169 10.9352 4
      vertex 9.452 9.77832 4
    endloop
  endfacet
  facet normal 0 0 1
    outer loop
      vertex 16.624 6.489 4
      vertex 16.624 4.80801 4
      vertex 18.11 4.9149 4
    endloop
  endfacet
  facet normal 0 -0 1
    outer loop
      vertex 11.512 6.48788 4
      vertex 12.604 8.16899 4
      vertex 10.6423 7.40521 4
    endloop
  endfacet
  facet normal 0 0 1
    outer loop
      vertex 15.1263 4.91368 4
      vertex 15.0347 6.67566 4
      vertex 13.772 5.23065 4
    endloop
  endfacet
  facet normal 0 -0 1
    outer loop
      vertex 13.772 5.23065 4
      vertex 15.0347 6.67566 4
      vertex 13.6947 7.23566 4
    endloop
  endfacet
  facet normal 0 0 1
    outer loop
      vertex 13.772 5.23065 4
      vertex 13.6947 7.23566 4
      vertex 12.561 5.75899 4
    endloop
  endfacet
  facet normal 0 0 1
    outer loop
      vertex 13.6947 7.23566 4
      vertex 12.604 8.16899 4
      vertex 11.512 6.48788 4
    endloop
  endfacet
  facet normal 0 0 1
    outer loop
      vertex 15.0347 6.67566 4
      vertex 15.1263 4.91368 4
      vertex 16.624 6.489 4
    endloop
  endfacet
  facet normal -0 0 1
    outer loop
      vertex 15.1263 4.91368 4
      vertex 16.624 4.80801 4
      vertex 16.624 6.489 4
    endloop
  endfacet
  facet normal 0 -0 1
    outer loop
      vertex 10.6423 7.40521 4
      vertex 11.7995 9.42055 4
      vertex 9.952 8.51099 4
    endloop
  endfacet
  facet normal 0 0 1
    outer loop
      vertex 13.6947 7.23566 4
      vertex 11.512 6.48788 4
      vertex 12.561 5.75899 4
    endloop
  endfacet
  facet normal 0 0 1
    outer loop
      vertex 12.604 8.16899 4
      vertex 11.7995 9.42055 4
      vertex 10.6423 7.40521 4
    endloop
  endfacet
  facet normal 0 0 1
    outer loop
      vertex 11.7995 9.42055 4
      vertex 9.452 9.77832 4
      vertex 9.952 8.51099 4
    endloop
  endfacet
  facet normal 0 0 1
    outer loop
      vertex 9.15199 11.179 4
      vertex 9.452 9.77832 4
      vertex 11.3169 10.9352 4
    endloop
  endfacet
  facet normal -0 0 1
    outer loop
      vertex 9.05199 12.713 4
      vertex 9.15199 11.179 4
      vertex 11.156 12.713 4
    endloop
  endfacet
  facet normal 0 0 1
    outer loop
      vertex 9.27499 14.9724 4
      vertex 9.05199 12.713 4
      vertex 11.3151 14.4934 4
    endloop
  endfacet
  facet normal 0 0 1
    outer loop
      vertex 9.94398 16.8774 4
      vertex 9.27499 14.9724 4
      vertex 11.7924 15.9881 4
    endloop
  endfacet
  facet normal 0 0 1
    outer loop
      vertex 11.059 18.428 4
      vertex 11.7924 15.9881 4
      vertex 12.588 17.197 4
    endloop
  endfacet
  facet normal 0 -0 1
    outer loop
      vertex 13.6753 18.0853 4
      vertex 14.4337 20.2591 4
      vertex 12.5717 19.5724 4
    endloop
  endfacet
  facet normal 0 0 1
    outer loop
      vertex 15.028 18.6183 4
      vertex 14.4337 20.2591 4
      vertex 13.6753 18.0853 4
    endloop
  endfacet
  facet normal 0 0 1
    outer loop
      vertex 18.1314 20.3852 4
      vertex 16.645 20.488 4
      vertex 16.646 18.796 4
    endloop
  endfacet
  facet normal 0 0 1
    outer loop
      vertex 16.646 18.796 4
      vertex 16.645 20.488 4
      vertex 15.028 18.6183 4
    endloop
  endfacet
  facet normal -0 0 1
    outer loop
      vertex 18.2511 18.6159 4
      vertex 19.5944 18.0755 4
      vertex 19.4801 20.0769 4
    endloop
  endfacet
  facet normal 0 0 1
    outer loop
      vertex 21.7439 18.8538 4
      vertex 20.691 19.563 4
      vertex 19.5944 18.0755 4
    endloop
  endfacet
  facet normal 0 -0 1
    outer loop
      vertex 19.5944 18.0755 4
      vertex 20.691 19.563 4
      vertex 19.4801 20.0769 4
    endloop
  endfacet
  facet normal 0 0 1
    outer loop
      vertex 22.6172 17.9581 4
      vertex 21.7439 18.8538 4
      vertex 20.676 17.175 4
    endloop
  endfacet
  facet normal -0 0 1
    outer loop
      vertex 21.4688 15.9588 4
      vertex 23.8143 15.6303 4
      vertex 23.311 16.876 4
    endloop
  endfacet
  facet normal 0 -0 1
    outer loop
      vertex 22.103 12.713 4
      vertex 24.1163 14.2427 4
      vertex 21.9444 14.4714 4
    endloop
  endfacet
  facet normal -0 0 1
    outer loop
      vertex 21.9444 14.4714 4
      vertex 24.1163 14.2427 4
      vertex 23.8143 15.6303 4
    endloop
  endfacet
  facet normal -0 0 1
    outer loop
      vertex 22.103 12.713 4
      vertex 24.1151 11.1858 4
      vertex 24.217 12.713 4
    endloop
  endfacet
  facet normal -0 0 1
    outer loop
      vertex 21.9457 10.8812 4
      vertex 23.8094 9.79077 4
      vertex 24.1151 11.1858 4
    endloop
  endfacet
  facet normal 0 0 1
    outer loop
      vertex 21.4737 9.34854 4
      vertex 22.6007 7.42377 4
      vertex 23.3 8.528 4
    endloop
  endfacet
  facet normal 0 0 1
    outer loop
      vertex 20.687 8.11499 4
      vertex 21.724 6.50444 4
      vertex 22.6007 7.42377 4
    endloop
  endfacet
  facet normal -0 0 1
    outer loop
      vertex 19.6062 7.21165 4
      vertex 21.724 6.50444 4
      vertex 20.687 8.11499 4
    endloop
  endfacet
  facet normal 0 0 1
    outer loop
      vertex 19.4587 5.23555 4
      vertex 20.67 5.76999 4
      vertex 19.6062 7.21165 4
    endloop
  endfacet
  facet normal 0 -0 1
    outer loop
      vertex 18.11 4.9149 4
      vertex 18.2519 6.66966 4
      vertex 16.624 6.489 4
    endloop
  endfacet
  facet normal 0 0 1
    outer loop
      vertex 18.11 4.9149 4
      vertex 19.4587 5.23555 4
      vertex 18.2519 6.66966 4
    endloop
  endfacet
  facet normal 0 -0 1
    outer loop
      vertex 34.2027 5.23932 4
      vertex 34.4139 7.06898 4
      vertex 32.049 6.53333 4
    endloop
  endfacet
  facet normal 0 0 1
    outer loop
      vertex 41.0732 12.9002 4
      vertex 40.3489 11.102 4
      vertex 41.4715 12.7182 4
    endloop
  endfacet
  facet normal -0 0 1
    outer loop
      vertex 40.3489 11.102 4
      vertex 40.7295 10.882 4
      vertex 41.4715 12.7182 4
    endloop
  endfacet
  facet normal 0 0 1
    outer loop
      vertex 41.8519 12.518 4
      vertex 40.7295 10.882 4
      vertex 42.2075 12.2931 4
    endloop
  endfacet
  facet normal 0 0 1
    outer loop
      vertex 40.2249 13.212 4
      vertex 39.9117 11.2931 4
      vertex 40.6569 13.064 4
    endloop
  endfacet
  facet normal -0 0 1
    outer loop
      vertex 39.4213 11.4624 4
      vertex 39.9117 11.2931 4
      vertex 40.2249 13.212 4
    endloop
  endfacet
  facet normal 0 0 1
    outer loop
      vertex 41.3069 10.334 4
      vertex 43.2893 11.0722 4
      vertex 43.075 11.4292 4
    endloop
  endfacet
  facet normal 0 0 1
    outer loop
      vertex 39.7795 13.3453 4
      vertex 38.8779 11.61 4
      vertex 39.4213 11.4624 4
    endloop
  endfacet
  facet normal 0 0 1
    outer loop
      vertex 39.3209 13.464 4
      vertex 38.288 11.7508 4
      vertex 38.8779 11.61 4
    endloop
  endfacet
  facet normal -0 0 1
    outer loop
      vertex 37.657 11.8984 4
      vertex 38.288 11.7508 4
      vertex 38.388 13.6853 4
    endloop
  endfacet
  facet normal 0 -0 1
    outer loop
      vertex 36.9849 12.053 4
      vertex 37.9199 13.794 4
      vertex 36.6755 14.0878 4
    endloop
  endfacet
  facet normal 0 0 1
    outer loop
      vertex 36.9849 12.053 4
      vertex 36.6755 14.0878 4
      vertex 35.877 12.3202 4
    endloop
  endfacet
  facet normal 0 0 1
    outer loop
      vertex 34.9626 12.5872 4
      vertex 35.7412 14.3491 4
      vertex 35.1169 14.578 4
    endloop
  endfacet
  facet normal -0 0 1
    outer loop
      vertex 33.6618 13.1309 4
      vertex 34.2419 12.854 4
      vertex 34.6849 14.8062 4
    endloop
  endfacet
  facet normal 0 0 1
    outer loop
      vertex 33.8336 15.6897 4
      vertex 33.7093 16.0773 4
      vertex 31.778 15.3586 4
    endloop
  endfacet
  facet normal 0 -0 1
    outer loop
      vertex 33.6679 16.519 4
      vertex 33.7748 17.2517 4
      vertex 31.8174 17.6164 4
    endloop
  endfacet
  facet normal 0 0 1
    outer loop
      vertex 32.3171 18.6221 4
      vertex 31.8174 17.6164 4
      vertex 33.7748 17.2517 4
    endloop
  endfacet
  facet normal 0 0 1
    outer loop
      vertex 33.8336 15.6897 4
      vertex 31.778 15.3586 4
      vertex 31.9369 14.897 4
    endloop
  endfacet
  facet normal 0 0 1
    outer loop
      vertex 34.0409 15.356 4
      vertex 32.1564 14.4762 4
      vertex 32.4324 14.0925 4
    endloop
  endfacet
  facet normal 0 0 1
    outer loop
      vertex 34.0954 17.8523 4
      vertex 32.3171 18.6221 4
      vertex 33.7748 17.2517 4
    endloop
  endfacet
  facet normal 0 0 1
    outer loop
      vertex 34.0409 15.356 4
      vertex 32.4324 14.0925 4
      vertex 32.7649 13.746 4
    endloop
  endfacet
  facet normal 0 0 1
    outer loop
      vertex 33.6679 16.519 4
      vertex 31.6509 16.411 4
      vertex 33.7093 16.0773 4
    endloop
  endfacet
  facet normal 0 -0 1
    outer loop
      vertex 32.1564 14.4762 4
      vertex 33.8336 15.6897 4
      vertex 31.9369 14.897 4
    endloop
  endfacet
  facet normal -0 0 1
    outer loop
      vertex 31.6826 15.8632 4
      vertex 31.778 15.3586 4
      vertex 33.7093 16.0773 4
    endloop
  endfacet
  facet normal 0 0 1
    outer loop
      vertex 33.1499 19.428 4
      vertex 34.0954 17.8523 4
      vertex 34.6299 18.321 4
    endloop
  endfacet
  facet normal 0 0 1
    outer loop
      vertex 35.3674 18.6571 4
      vertex 34.2929 20.0169 4
      vertex 34.6299 18.321 4
    endloop
  endfacet
  facet normal 0 0 1
    outer loop
      vertex 36.2974 18.8588 4
      vertex 35.7232 20.3702 4
      vertex 35.3674 18.6571 4
    endloop
  endfacet
  facet normal 0 0 1
    outer loop
      vertex 37.4409 20.488 4
      vertex 35.7232 20.3702 4
      vertex 36.2974 18.8588 4
    endloop
  endfacet
  facet normal 0 0 1
    outer loop
      vertex 37.4409 20.488 4
      vertex 36.2974 18.8588 4
      vertex 37.4199 18.926 4
    endloop
  endfacet
  facet normal 0 0 1
    outer loop
      vertex 39.0363 20.3994 4
      vertex 37.4409 20.488 4
      vertex 38.4493 18.8651 4
    endloop
  endfacet
  facet normal 0 0 1
    outer loop
      vertex 39.0363 20.3994 4
      vertex 38.4493 18.8651 4
      vertex 39.3177 18.6824 4
    endloop
  endfacet
  facet normal 0 0 1
    outer loop
      vertex 40.36 20.1338 4
      vertex 39.3177 18.6824 4
      vertex 40.0249 18.378 4
    endloop
  endfacet
  facet normal 0 0 1
    outer loop
      vertex 39.0363 20.3994 4
      vertex 39.3177 18.6824 4
      vertex 40.36 20.1338 4
    endloop
  endfacet
  facet normal -0 0 1
    outer loop
      vertex 40.0249 18.378 4
      vertex 40.5849 17.9391 4
      vertex 41.4119 19.691 4
    endloop
  endfacet
  facet normal -0 0 1
    outer loop
      vertex 40.5849 17.9391 4
      vertex 41.0102 17.3518 4
      vertex 42.2371 19.0349 4
    endloop
  endfacet
  facet normal 0 0 1
    outer loop
      vertex 41.0102 17.3518 4
      vertex 42.8794 18.1292 4
      vertex 42.2371 19.0349 4
    endloop
  endfacet
  facet normal 0 -0 1
    outer loop
      vertex 41.3009 16.616 4
      vertex 42.8794 18.1292 4
      vertex 41.0102 17.3518 4
    endloop
  endfacet
  facet normal 0 0 1
    outer loop
      vertex 43.3389 16.974 4
      vertex 42.8794 18.1292 4
      vertex 41.3009 16.616 4
    endloop
  endfacet
  facet normal 0 0 1
    outer loop
      vertex 40.5849 17.9391 4
      vertex 42.2371 19.0349 4
      vertex 41.4119 19.691 4
    endloop
  endfacet
  facet normal 0 0 1
    outer loop
      vertex 40.0249 18.378 4
      vertex 41.4119 19.691 4
      vertex 40.36 20.1338 4
    endloop
  endfacet
  facet normal 0 0 1
    outer loop
      vertex 34.6299 18.321 4
      vertex 34.2929 20.0169 4
      vertex 33.1499 19.428 4
    endloop
  endfacet
  facet normal -0 0 1
    outer loop
      vertex 32.3171 18.6221 4
      vertex 34.0954 17.8523 4
      vertex 33.1499 19.428 4
    endloop
  endfacet
  facet normal 0 0 1
    outer loop
      vertex 33.6679 16.519 4
      vertex 31.8174 17.6164 4
      vertex 31.6509 16.411 4
    endloop
  endfacet
  facet normal 0 -0 1
    outer loop
      vertex 31.6826 15.8632 4
      vertex 33.7093 16.0773 4
      vertex 31.6509 16.411 4
    endloop
  endfacet
  facet normal 0 0 1
    outer loop
      vertex 32.1564 14.4762 4
      vertex 34.0409 15.356 4
      vertex 33.8336 15.6897 4
    endloop
  endfacet
  facet normal 0 0 1
    outer loop
      vertex 34.0409 15.356 4
      vertex 32.7649 13.746 4
      vertex 34.3262 15.0656 4
    endloop
  endfacet
  facet normal 0 0 1
    outer loop
      vertex 34.3262 15.0656 4
      vertex 33.1694 13.4282 4
      vertex 34.6849 14.8062 4
    endloop
  endfacet
  facet normal -0 0 1
    outer loop
      vertex 33.1694 13.4282 4
      vertex 33.6618 13.1309 4
      vertex 34.6849 14.8062 4
    endloop
  endfacet
  facet normal 0 0 1
    outer loop
      vertex 34.6849 14.8062 4
      vertex 34.2419 12.854 4
      vertex 35.1169 14.578 4
    endloop
  endfacet
  facet normal -0 0 1
    outer loop
      vertex 34.2419 12.854 4
      vertex 34.9626 12.5872 4
      vertex 35.1169 14.578 4
    endloop
  endfacet
  facet normal -0 0 1
    outer loop
      vertex 34.9626 12.5872 4
      vertex 35.877 12.3202 4
      vertex 35.7412 14.3491 4
    endloop
  endfacet
  facet normal 0 -0 1
    outer loop
      vertex 35.877 12.3202 4
      vertex 36.6755 14.0878 4
      vertex 35.7412 14.3491 4
    endloop
  endfacet
  facet normal -0 0 1
    outer loop
      vertex 36.9849 12.053 4
      vertex 37.657 11.8984 4
      vertex 37.9199 13.794 4
    endloop
  endfacet
  facet normal 0 0 1
    outer loop
      vertex 38.388 13.6853 4
      vertex 38.288 11.7508 4
      vertex 39.3209 13.464 4
    endloop
  endfacet
  facet normal 0 0 1
    outer loop
      vertex 40.2249 13.212 4
      vertex 39.7795 13.3453 4
      vertex 39.4213 11.4624 4
    endloop
  endfacet
  facet normal 0 0 1
    outer loop
      vertex 41.0732 12.9002 4
      vertex 40.6569 13.064 4
      vertex 39.9117 11.2931 4
    endloop
  endfacet
  facet normal 0 -0 1
    outer loop
      vertex 41.0489 10.626 4
      vertex 42.2075 12.2931 4
      vertex 40.7295 10.882 4
    endloop
  endfacet
  facet normal 0 0 1
    outer loop
      vertex 39.7352 6.72844 4
      vertex 38.7062 6.50011 4
      vertex 39.2468 4.93657 4
    endloop
  endfacet
  facet normal 0 0 1
    outer loop
      vertex 42.5305 12.0371 4
      vertex 42.2075 12.2931 4
      vertex 41.0489 10.626 4
    endloop
  endfacet
  facet normal 0 0 1
    outer loop
      vertex 43.075 11.4292 4
      vertex 42.8209 11.75 4
      vertex 41.3069 10.334 4
    endloop
  endfacet
  facet normal 0 0 1
    outer loop
      vertex 41.3069 10.334 4
      vertex 42.8209 11.75 4
      vertex 42.5305 12.0371 4
    endloop
  endfacet
  facet normal 0 -0 1
    outer loop
      vertex 41.4963 9.99277 4
      vertex 43.2893 11.0722 4
      vertex 41.3069 10.334 4
    endloop
  endfacet
  facet normal 0 0 1
    outer loop
      vertex 43.4639 10.679 4
      vertex 43.2893 11.0722 4
      vertex 41.4963 9.99277 4
    endloop
  endfacet
  facet normal -0 0 1
    outer loop
      vertex 41.4963 9.99277 4
      vertex 41.61 9.5891 4
      vertex 43.5933 10.2443 4
    endloop
  endfacet
  facet normal 0 0 1
    outer loop
      vertex 43.4639 10.679 4
      vertex 41.4963 9.99277 4
      vertex 43.5933 10.2443 4
    endloop
  endfacet
  facet normal 0 0 1
    outer loop
      vertex 41.61 9.5891 4
      vertex 43.671 9.76166 4
      vertex 43.5933 10.2443 4
    endloop
  endfacet
  facet normal 0 0 1
    outer loop
      vertex 43.6969 9.23099 4
      vertex 43.671 9.76166 4
      vertex 41.61 9.5891 4
    endloop
  endfacet
  facet normal -0 0 1
    outer loop
      vertex 41.5271 8.30899 4
      vertex 43.5134 7.93077 4
      vertex 41.6479 9.12299 4
    endloop
  endfacet
  facet normal -0 0 1
    outer loop
      vertex 41.6479 9.12299 4
      vertex 43.5134 7.93077 4
      vertex 43.6969 9.23099 4
    endloop
  endfacet
  facet normal 0 0 1
    outer loop
      vertex 41.5271 8.30899 4
      vertex 42.9631 6.8421 4
      vertex 43.5134 7.93077 4
    endloop
  endfacet
  facet normal 0 -0 1
    outer loop
      vertex 42.0459 5.965 4
      vertex 42.9631 6.8421 4
      vertex 41.1648 7.63766 4
    endloop
  endfacet
  facet normal -0 0 1
    outer loop
      vertex 41.1648 7.63766 4
      vertex 42.9631 6.8421 4
      vertex 41.5271 8.30899 4
    endloop
  endfacet
  facet normal 0 -0 1
    outer loop
      vertex 40.7961 5.32222 4
      vertex 42.0459 5.965 4
      vertex 40.5609 7.10899 4
    endloop
  endfacet
  facet normal -0 0 1
    outer loop
      vertex 40.5609 7.10899 4
      vertex 42.0459 5.965 4
      vertex 41.1648 7.63766 4
    endloop
  endfacet
  facet normal 0 0 1
    outer loop
      vertex 39.2468 4.93657 4
      vertex 40.7961 5.32222 4
      vertex 39.7352 6.72844 4
    endloop
  endfacet
  facet normal -0 0 1
    outer loop
      vertex 39.7352 6.72844 4
      vertex 40.7961 5.32222 4
      vertex 40.5609 7.10899 4
    endloop
  endfacet
  facet normal 0 0 1
    outer loop
      vertex 39.2468 4.93657 4
      vertex 38.7062 6.50011 4
      vertex 37.3979 4.80801 4
    endloop
  endfacet
  facet normal 0 0 1
    outer loop
      vertex 38.7062 6.50011 4
      vertex 37.4739 6.424 4
      vertex 37.3979 4.80801 4
    endloop
  endfacet
  facet normal 0 -0 1
    outer loop
      vertex 37.3979 4.80801 4
      vertex 37.4739 6.424 4
      vertex 36.2739 6.49567 4
    endloop
  endfacet
  facet normal 0 0 1
    outer loop
      vertex 33.751 7.58032 4
      vertex 33.261 8.25432 4
      vertex 32.049 6.53333 4
    endloop
  endfacet
  facet normal 0 0 1
    outer loop
      vertex 33.261 8.25432 4
      vertex 30.9369 8.68999 4
      vertex 32.049 6.53333 4
    endloop
  endfacet
  facet normal 0 0 1
    outer loop
      vertex 32.9439 9.09099 4
      vertex 30.9369 8.68999 4
      vertex 33.261 8.25432 4
    endloop
  endfacet
  facet normal 0 0 1
    outer loop
      vertex 35.2539 6.71066 4
      vertex 34.4139 7.06898 4
      vertex 34.2027 5.23932 4
    endloop
  endfacet
  facet normal 0 0 1
    outer loop
      vertex 34.4139 7.06898 4
      vertex 33.751 7.58032 4
      vertex 32.049 6.53333 4
    endloop
  endfacet
  facet normal 0.231303 -0.972882 0
    outer loop
      vertex 19.4587 5.23555 2
      vertex 18.11 4.9149 4
      vertex 18.11 4.9149 2
    endloop
  endfacet
  facet normal 0.231303 -0.972882 0
    outer loop
      vertex 19.4587 5.23555 2
      vertex 19.4587 5.23555 4
      vertex 18.11 4.9149 4
    endloop
  endfacet
  facet normal 0.403657 -0.91491 0
    outer loop
      vertex 20.67 5.76999 2
      vertex 19.4587 5.23555 4
      vertex 19.4587 5.23555 2
    endloop
  endfacet
  facet normal 0.403657 -0.91491 0
    outer loop
      vertex 20.67 5.76999 2
      vertex 20.67 5.76999 4
      vertex 19.4587 5.23555 4
    endloop
  endfacet
  facet normal 0.571711 -0.820455 0
    outer loop
      vertex 21.724 6.50444 2
      vertex 20.67 5.76999 4
      vertex 20.67 5.76999 2
    endloop
  endfacet
  facet normal 0.571711 -0.820455 0
    outer loop
      vertex 21.724 6.50444 2
      vertex 21.724 6.50444 4
      vertex 20.67 5.76999 4
    endloop
  endfacet
  facet normal 0.7237 -0.690115 0
    outer loop
      vertex 22.6007 7.42377 2
      vertex 21.724 6.50444 4
      vertex 21.724 6.50444 2
    endloop
  endfacet
  facet normal 0.7237 -0.690115 0
    outer loop
      vertex 22.6007 7.42377 2
      vertex 22.6007 7.42377 4
      vertex 21.724 6.50444 4
    endloop
  endfacet
  facet normal 0.844827 -0.53504 0
    outer loop
      vertex 23.3 8.528 2
      vertex 22.6007 7.42377 4
      vertex 22.6007 7.42377 2
    endloop
  endfacet
  facet normal 0.844827 -0.53504 0
    outer loop
      vertex 23.3 8.528 2
      vertex 23.3 8.528 4
      vertex 22.6007 7.42377 4
    endloop
  endfacet
  facet normal 0.927374 -0.374135 0
    outer loop
      vertex 23.8094 9.79077 2
      vertex 23.3 8.528 4
      vertex 23.3 8.528 2
    endloop
  endfacet
  facet normal 0.927374 -0.374135 0
    outer loop
      vertex 23.8094 9.79077 2
      vertex 23.8094 9.79077 4
      vertex 23.3 8.528 4
    endloop
  endfacet
  facet normal 0.976826 -0.214036 0
    outer loop
      vertex 24.1151 11.1858 2
      vertex 23.8094 9.79077 4
      vertex 23.8094 9.79077 2
    endloop
  endfacet
  facet normal 0.976826 -0.214036 0
    outer loop
      vertex 24.1151 11.1858 2
      vertex 24.1151 11.1858 4
      vertex 23.8094 9.79077 4
    endloop
  endfacet
  facet normal 0.997782 -0.0665733 0
    outer loop
      vertex 24.217 12.713 2
      vertex 24.1151 11.1858 4
      vertex 24.1151 11.1858 2
    endloop
  endfacet
  facet normal 0.997782 -0.0665733 0
    outer loop
      vertex 24.217 12.713 2
      vertex 24.217 12.713 4
      vertex 24.1151 11.1858 4
    endloop
  endfacet
  facet normal 0.997842 0.0656648 0
    outer loop
      vertex 24.1163 14.2427 2
      vertex 24.217 12.713 4
      vertex 24.217 12.713 2
    endloop
  endfacet
  facet normal 0.997842 0.0656648 -0
    outer loop
      vertex 24.1163 14.2427 2
      vertex 24.1163 14.2427 4
      vertex 24.217 12.713 4
    endloop
  endfacet
  facet normal 0.977127 0.212655 0
    outer loop
      vertex 23.8143 15.6303 2
      vertex 24.1163 14.2427 4
      vertex 24.1163 14.2427 2
    endloop
  endfacet
  facet normal 0.977127 0.212655 -0
    outer loop
      vertex 23.8143 15.6303 2
      vertex 23.8143 15.6303 4
      vertex 24.1163 14.2427 4
    endloop
  endfacet
  facet normal 0.927168 0.374645 0
    outer loop
      vertex 23.311 16.876 2
      vertex 23.8143 15.6303 4
      vertex 23.8143 15.6303 2
    endloop
  endfacet
  facet normal 0.927168 0.374645 -0
    outer loop
      vertex 23.311 16.876 2
      vertex 23.311 16.876 4
      vertex 23.8143 15.6303 4
    endloop
  endfacet
  facet normal 0.841839 0.539728 0
    outer loop
      vertex 22.6172 17.9581 2
      vertex 23.311 16.876 4
      vertex 23.311 16.876 2
    endloop
  endfacet
  facet normal 0.841839 0.539728 -0
    outer loop
      vertex 22.6172 17.9581 2
      vertex 22.6172 17.9581 4
      vertex 23.311 16.876 4
    endloop
  endfacet
  facet normal 0.715979 0.698122 0
    outer loop
      vertex 21.7439 18.8538 2
      vertex 22.6172 17.9581 4
      vertex 22.6172 17.9581 2
    endloop
  endfacet
  facet normal 0.715979 0.698122 -0
    outer loop
      vertex 21.7439 18.8538 2
      vertex 21.7439 18.8538 4
      vertex 22.6172 17.9581 4
    endloop
  endfacet
  facet normal 0.558669 0.829391 0
    outer loop
      vertex 20.691 19.563 2
      vertex 21.7439 18.8538 4
      vertex 21.7439 18.8538 2
    endloop
  endfacet
  facet normal 0.558669 0.829391 -0
    outer loop
      vertex 20.691 19.563 2
      vertex 20.691 19.563 4
      vertex 21.7439 18.8538 4
    endloop
  endfacet
  facet normal 0.390662 0.920534 0
    outer loop
      vertex 19.4801 20.0769 2
      vertex 20.691 19.563 4
      vertex 20.691 19.563 2
    endloop
  endfacet
  facet normal 0.390662 0.920534 -0
    outer loop
      vertex 19.4801 20.0769 2
      vertex 19.4801 20.0769 4
      vertex 20.691 19.563 4
    endloop
  endfacet
  facet normal 0.222872 0.974848 0
    outer loop
      vertex 18.1314 20.3852 2
      vertex 19.4801 20.0769 4
      vertex 19.4801 20.0769 2
    endloop
  endfacet
  facet normal 0.222872 0.974848 -0
    outer loop
      vertex 18.1314 20.3852 2
      vertex 18.1314 20.3852 4
      vertex 19.4801 20.0769 4
    endloop
  endfacet
  facet normal 0.068982 0.997618 0
    outer loop
      vertex 16.645 20.488 2
      vertex 18.1314 20.3852 4
      vertex 18.1314 20.3852 2
    endloop
  endfacet
  facet normal 0.068982 0.997618 -0
    outer loop
      vertex 16.645 20.488 2
      vertex 16.645 20.488 4
      vertex 18.1314 20.3852 4
    endloop
  endfacet
  facet normal -0.102954 0.994686 0
    outer loop
      vertex 14.4337 20.2591 2
      vertex 16.645 20.488 4
      vertex 16.645 20.488 2
    endloop
  endfacet
  facet normal -0.102954 0.994686 0
    outer loop
      vertex 14.4337 20.2591 2
      vertex 14.4337 20.2591 4
      vertex 16.645 20.488 4
    endloop
  endfacet
  facet normal -0.346005 0.938233 0
    outer loop
      vertex 12.5717 19.5724 2
      vertex 14.4337 20.2591 4
      vertex 14.4337 20.2591 2
    endloop
  endfacet
  facet normal -0.346005 0.938233 0
    outer loop
      vertex 12.5717 19.5724 2
      vertex 12.5717 19.5724 4
      vertex 14.4337 20.2591 4
    endloop
  endfacet
  facet normal -0.603349 0.797477 0
    outer loop
      vertex 11.059 18.428 2
      vertex 12.5717 19.5724 4
      vertex 12.5717 19.5724 2
    endloop
  endfacet
  facet normal -0.603349 0.797477 0
    outer loop
      vertex 11.059 18.428 2
      vertex 11.059 18.428 4
      vertex 12.5717 19.5724 4
    endloop
  endfacet
  facet normal -0.81188 0.583825 0
    outer loop
      vertex 9.94398 16.8774 2
      vertex 11.059 18.428 4
      vertex 11.059 18.428 2
    endloop
  endfacet
  facet normal -0.81188 0.583825 0
    outer loop
      vertex 9.94398 16.8774 2
      vertex 9.94398 16.8774 4
      vertex 11.059 18.428 4
    endloop
  endfacet
  facet normal -0.943512 0.331339 0
    outer loop
      vertex 9.27499 14.9724 2
      vertex 9.94398 16.8774 4
      vertex 9.94398 16.8774 2
    endloop
  endfacet
  facet normal -0.943512 0.331339 0
    outer loop
      vertex 9.27499 14.9724 2
      vertex 9.27499 14.9724 4
      vertex 9.94398 16.8774 4
    endloop
  endfacet
  facet normal -0.995164 0.0982227 0
    outer loop
      vertex 9.05199 12.713 2
      vertex 9.27499 14.9724 4
      vertex 9.27499 14.9724 2
    endloop
  endfacet
  facet normal -0.995164 0.0982227 0
    outer loop
      vertex 9.05199 12.713 2
      vertex 9.05199 12.713 4
      vertex 9.27499 14.9724 4
    endloop
  endfacet
  facet normal -0.997882 -0.0650544 0
    outer loop
      vertex 9.15199 11.179 2
      vertex 9.05199 12.713 4
      vertex 9.05199 12.713 2
    endloop
  endfacet
  facet normal -0.997882 -0.0650544 0
    outer loop
      vertex 9.15199 11.179 2
      vertex 9.15199 11.179 4
      vertex 9.05199 12.713 4
    endloop
  endfacet
  facet normal -0.977822 -0.209436 0
    outer loop
      vertex 9.452 9.77832 2
      vertex 9.15199 11.179 4
      vertex 9.15199 11.179 2
    endloop
  endfacet
  facet normal -0.977822 -0.209436 0
    outer loop
      vertex 9.452 9.77832 2
      vertex 9.452 9.77832 4
      vertex 9.15199 11.179 4
    endloop
  endfacet
  facet normal -0.930221 -0.366999 0
    outer loop
      vertex 9.952 8.51099 2
      vertex 9.452 9.77832 4
      vertex 9.452 9.77832 2
    endloop
  endfacet
  facet normal -0.930221 -0.366999 0
    outer loop
      vertex 9.952 8.51099 2
      vertex 9.952 8.51099 4
      vertex 9.452 9.77832 4
    endloop
  endfacet
  facet normal -0.848269 -0.529565 0
    outer loop
      vertex 10.6423 7.40521 2
      vertex 9.952 8.51099 4
      vertex 9.952 8.51099 2
    endloop
  endfacet
  facet normal -0.848269 -0.529565 0
    outer loop
      vertex 10.6423 7.40521 2
      vertex 10.6423 7.40521 4
      vertex 9.952 8.51099 4
    endloop
  endfacet
  facet normal -0.725705 -0.688006 0
    outer loop
      vertex 11.512 6.48788 2
      vertex 10.6423 7.40521 4
      vertex 10.6423 7.40521 2
    endloop
  endfacet
  facet normal -0.725705 -0.688006 0
    outer loop
      vertex 11.512 6.48788 2
      vertex 11.512 6.48788 4
      vertex 10.6423 7.40521 4
    endloop
  endfacet
  facet normal -0.570622 -0.821213 0
    outer loop
      vertex 12.561 5.75899 2
      vertex 11.512 6.48788 4
      vertex 11.512 6.48788 2
    endloop
  endfacet
  facet normal -0.570622 -0.821213 0
    outer loop
      vertex 12.561 5.75899 2
      vertex 12.561 5.75899 4
      vertex 11.512 6.48788 4
    endloop
  endfacet
  facet normal -0.399881 -0.916567 0
    outer loop
      vertex 13.772 5.23065 2
      vertex 12.561 5.75899 4
      vertex 12.561 5.75899 2
    endloop
  endfacet
  facet normal -0.399881 -0.916567 0
    outer loop
      vertex 13.772 5.23065 2
      vertex 13.772 5.23065 4
      vertex 12.561 5.75899 4
    endloop
  endfacet
  facet normal -0.227883 -0.973689 0
    outer loop
      vertex 15.1263 4.91368 2
      vertex 13.772 5.23065 4
      vertex 13.772 5.23065 2
    endloop
  endfacet
  facet normal -0.227883 -0.973689 0
    outer loop
      vertex 15.1263 4.91368 2
      vertex 15.1263 4.91368 4
      vertex 13.772 5.23065 4
    endloop
  endfacet
  facet normal -0.0703796 -0.99752 0
    outer loop
      vertex 16.624 4.80801 2
      vertex 15.1263 4.91368 4
      vertex 15.1263 4.91368 2
    endloop
  endfacet
  facet normal -0.0703796 -0.99752 0
    outer loop
      vertex 16.624 4.80801 2
      vertex 16.624 4.80801 4
      vertex 15.1263 4.91368 4
    endloop
  endfacet
  facet normal 0.0717449 -0.997423 0
    outer loop
      vertex 18.11 4.9149 2
      vertex 16.624 4.80801 4
      vertex 16.624 4.80801 2
    endloop
  endfacet
  facet normal 0.0717449 -0.997423 0
    outer loop
      vertex 18.11 4.9149 2
      vertex 18.11 4.9149 4
      vertex 16.624 4.80801 4
    endloop
  endfacet
  facet normal 0.385592 0.922669 -0
    outer loop
      vertex 13.6947 7.23566 2
      vertex 13.6947 7.23566 4
      vertex 15.0347 6.67566 2
    endloop
  endfacet
  facet normal 0.385592 0.922669 0
    outer loop
      vertex 15.0347 6.67566 4
      vertex 15.0347 6.67566 2
      vertex 13.6947 7.23566 4
    endloop
  endfacet
  facet normal 0.650179 0.759781 -0
    outer loop
      vertex 12.604 8.16899 2
      vertex 12.604 8.16899 4
      vertex 13.6947 7.23566 2
    endloop
  endfacet
  facet normal 0.650179 0.759781 0
    outer loop
      vertex 13.6947 7.23566 4
      vertex 13.6947 7.23566 2
      vertex 12.604 8.16899 4
    endloop
  endfacet
  facet normal 0.841218 0.540696 -0
    outer loop
      vertex 11.7995 9.42055 2
      vertex 11.7995 9.42055 4
      vertex 12.604 8.16899 2
    endloop
  endfacet
  facet normal 0.841218 0.540696 0
    outer loop
      vertex 12.604 8.16899 4
      vertex 12.604 8.16899 2
      vertex 11.7995 9.42055 4
    endloop
  endfacet
  facet normal 0.952793 0.303619 -0
    outer loop
      vertex 11.3169 10.9352 2
      vertex 11.3169 10.9352 4
      vertex 11.7995 9.42055 2
    endloop
  endfacet
  facet normal 0.952793 0.303619 0
    outer loop
      vertex 11.7995 9.42055 4
      vertex 11.7995 9.42055 2
      vertex 11.3169 10.9352 4
    endloop
  endfacet
  facet normal 0.99593 0.0901311 -0
    outer loop
      vertex 11.156 12.713 2
      vertex 11.156 12.713 4
      vertex 11.3169 10.9352 2
    endloop
  endfacet
  facet normal 0.99593 0.0901311 0
    outer loop
      vertex 11.3169 10.9352 4
      vertex 11.3169 10.9352 2
      vertex 11.156 12.713 4
    endloop
  endfacet
  facet normal 0.99603 -0.0890156 0
    outer loop
      vertex 11.3151 14.4934 2
      vertex 11.3151 14.4934 4
      vertex 11.156 12.713 2
    endloop
  endfacet
  facet normal 0.99603 -0.0890156 0
    outer loop
      vertex 11.156 12.713 4
      vertex 11.156 12.713 2
      vertex 11.3151 14.4934 4
    endloop
  endfacet
  facet normal 0.952603 -0.304217 0
    outer loop
      vertex 11.7924 15.9881 2
      vertex 11.7924 15.9881 4
      vertex 11.3151 14.4934 2
    endloop
  endfacet
  facet normal 0.952603 -0.304217 0
    outer loop
      vertex 11.3151 14.4934 4
      vertex 11.3151 14.4934 2
      vertex 11.7924 15.9881 4
    endloop
  endfacet
  facet normal 0.835341 -0.549732 0
    outer loop
      vertex 12.588 17.197 2
      vertex 12.588 17.197 4
      vertex 11.7924 15.9881 2
    endloop
  endfacet
  facet normal 0.835341 -0.549732 0
    outer loop
      vertex 11.7924 15.9881 4
      vertex 11.7924 15.9881 2
      vertex 12.588 17.197 4
    endloop
  endfacet
  facet normal 0.632685 -0.774409 0
    outer loop
      vertex 13.6753 18.0853 2
      vertex 13.6753 18.0853 4
      vertex 12.588 17.197 2
    endloop
  endfacet
  facet normal 0.632685 -0.774409 0
    outer loop
      vertex 12.588 17.197 4
      vertex 12.588 17.197 2
      vertex 13.6753 18.0853 4
    endloop
  endfacet
  facet normal 0.366603 -0.930377 0
    outer loop
      vertex 15.028 18.6183 2
      vertex 15.028 18.6183 4
      vertex 13.6753 18.0853 2
    endloop
  endfacet
  facet normal 0.366603 -0.930377 0
    outer loop
      vertex 13.6753 18.0853 4
      vertex 13.6753 18.0853 2
      vertex 15.028 18.6183 4
    endloop
  endfacet
  facet normal 0.109145 -0.994026 0
    outer loop
      vertex 16.646 18.796 2
      vertex 16.646 18.796 4
      vertex 15.028 18.6183 2
    endloop
  endfacet
  facet normal 0.109145 -0.994026 0
    outer loop
      vertex 15.028 18.6183 4
      vertex 15.028 18.6183 2
      vertex 16.646 18.796 4
    endloop
  endfacet
  facet normal -0.111514 -0.993763 0
    outer loop
      vertex 18.2511 18.6159 2
      vertex 18.2511 18.6159 4
      vertex 16.646 18.796 2
    endloop
  endfacet
  facet normal -0.111514 -0.993763 -0
    outer loop
      vertex 16.646 18.796 4
      vertex 16.646 18.796 2
      vertex 18.2511 18.6159 4
    endloop
  endfacet
  facet normal -0.373172 -0.927762 0
    outer loop
      vertex 19.5944 18.0755 2
      vertex 19.5944 18.0755 4
      vertex 18.2511 18.6159 2
    endloop
  endfacet
  facet normal -0.373172 -0.927762 -0
    outer loop
      vertex 18.2511 18.6159 4
      vertex 18.2511 18.6159 2
      vertex 19.5944 18.0755 4
    endloop
  endfacet
  facet normal -0.639874 -0.76848 0
    outer loop
      vertex 20.676 17.175 2
      vertex 20.676 17.175 4
      vertex 19.5944 18.0755 2
    endloop
  endfacet
  facet normal -0.639874 -0.76848 -0
    outer loop
      vertex 19.5944 18.0755 4
      vertex 19.5944 18.0755 2
      vertex 20.676 17.175 4
    endloop
  endfacet
  facet normal -0.837741 -0.546067 0
    outer loop
      vertex 21.4688 15.9588 2
      vertex 21.4688 15.9588 4
      vertex 20.676 17.175 2
    endloop
  endfacet
  facet normal -0.837741 -0.546067 -0
    outer loop
      vertex 20.676 17.175 4
      vertex 20.676 17.175 2
      vertex 21.4688 15.9588 4
    endloop
  endfacet
  facet normal -0.952474 -0.304619 0
    outer loop
      vertex 21.9444 14.4714 2
      vertex 21.9444 14.4714 4
      vertex 21.4688 15.9588 2
    endloop
  endfacet
  facet normal -0.952474 -0.304619 -0
    outer loop
      vertex 21.4688 15.9588 4
      vertex 21.4688 15.9588 2
      vertex 21.9444 14.4714 4
    endloop
  endfacet
  facet normal -0.99596 -0.0898032 0
    outer loop
      vertex 22.103 12.713 2
      vertex 22.103 12.713 4
      vertex 21.9444 14.4714 2
    endloop
  endfacet
  facet normal -0.99596 -0.0898032 -0
    outer loop
      vertex 21.9444 14.4714 4
      vertex 21.9444 14.4714 2
      vertex 22.103 12.713 4
    endloop
  endfacet
  facet normal -0.996332 0.0855756 0
    outer loop
      vertex 21.9457 10.8812 2
      vertex 21.9457 10.8812 4
      vertex 22.103 12.713 2
    endloop
  endfacet
  facet normal -0.996332 0.0855756 0
    outer loop
      vertex 22.103 12.713 4
      vertex 22.103 12.713 2
      vertex 21.9457 10.8812 4
    endloop
  endfacet
  facet normal -0.955707 0.294319 0
    outer loop
      vertex 21.4737 9.34854 2
      vertex 21.4737 9.34854 4
      vertex 21.9457 10.8812 2
    endloop
  endfacet
  facet normal -0.955707 0.294319 0
    outer loop
      vertex 21.9457 10.8812 4
      vertex 21.9457 10.8812 2
      vertex 21.4737 9.34854 4
    endloop
  endfacet
  facet normal -0.843141 0.537692 0
    outer loop
      vertex 20.687 8.11499 2
      vertex 20.687 8.11499 4
      vertex 21.4737 9.34854 2
    endloop
  endfacet
  facet normal -0.843141 0.537692 0
    outer loop
      vertex 21.4737 9.34854 4
      vertex 21.4737 9.34854 2
      vertex 20.687 8.11499 4
    endloop
  endfacet
  facet normal -0.641309 0.767283 0
    outer loop
      vertex 19.6062 7.21165 2
      vertex 19.6062 7.21165 4
      vertex 20.687 8.11499 2
    endloop
  endfacet
  facet normal -0.641309 0.767283 0
    outer loop
      vertex 20.687 8.11499 4
      vertex 20.687 8.11499 2
      vertex 19.6062 7.21165 4
    endloop
  endfacet
  facet normal -0.371542 0.928416 0
    outer loop
      vertex 18.2519 6.66966 2
      vertex 18.2519 6.66966 4
      vertex 19.6062 7.21165 2
    endloop
  endfacet
  facet normal -0.371542 0.928416 0
    outer loop
      vertex 19.6062 7.21165 4
      vertex 19.6062 7.21165 2
      vertex 18.2519 6.66966 4
    endloop
  endfacet
  facet normal -0.110304 0.993898 0
    outer loop
      vertex 16.624 6.489 2
      vertex 16.624 6.489 4
      vertex 18.2519 6.66966 2
    endloop
  endfacet
  facet normal -0.110304 0.993898 0
    outer loop
      vertex 18.2519 6.66966 4
      vertex 18.2519 6.66966 2
      vertex 16.624 6.489 4
    endloop
  endfacet
  facet normal 0.116644 0.993174 -0
    outer loop
      vertex 15.0347 6.67566 2
      vertex 15.0347 6.67566 4
      vertex 16.624 6.489 2
    endloop
  endfacet
  facet normal 0.116644 0.993174 0
    outer loop
      vertex 16.624 6.489 4
      vertex 16.624 6.489 2
      vertex 15.0347 6.67566 4
    endloop
  endfacet
  facet normal 0.241544 -0.97039 0
    outer loop
      vertex 40.7961 5.32222 2
      vertex 39.2468 4.93657 4
      vertex 39.2468 4.93657 2
    endloop
  endfacet
  facet normal 0.241544 -0.97039 0
    outer loop
      vertex 40.7961 5.32222 2
      vertex 40.7961 5.32222 4
      vertex 39.2468 4.93657 4
    endloop
  endfacet
  facet normal 0.457369 -0.889277 0
    outer loop
      vertex 42.0459 5.965 2
      vertex 40.7961 5.32222 4
      vertex 40.7961 5.32222 2
    endloop
  endfacet
  facet normal 0.457369 -0.889277 0
    outer loop
      vertex 42.0459 5.965 2
      vertex 42.0459 5.965 4
      vertex 40.7961 5.32222 4
    endloop
  endfacet
  facet normal 0.691119 -0.722741 0
    outer loop
      vertex 42.9631 6.8421 2
      vertex 42.0459 5.965 4
      vertex 42.0459 5.965 2
    endloop
  endfacet
  facet normal 0.691119 -0.722741 0
    outer loop
      vertex 42.9631 6.8421 2
      vertex 42.9631 6.8421 4
      vertex 42.0459 5.965 4
    endloop
  endfacet
  facet normal 0.892455 -0.451137 0
    outer loop
      vertex 43.5134 7.93077 2
      vertex 42.9631 6.8421 4
      vertex 42.9631 6.8421 2
    endloop
  endfacet
  facet normal 0.892455 -0.451137 0
    outer loop
      vertex 43.5134 7.93077 2
      vertex 43.5134 7.93077 4
      vertex 42.9631 6.8421 4
    endloop
  endfacet
  facet normal 0.990194 -0.139702 0
    outer loop
      vertex 43.6969 9.23099 2
      vertex 43.5134 7.93077 4
      vertex 43.5134 7.93077 2
    endloop
  endfacet
  facet normal 0.990194 -0.139702 0
    outer loop
      vertex 43.6969 9.23099 2
      vertex 43.6969 9.23099 4
      vertex 43.5134 7.93077 4
    endloop
  endfacet
  facet normal 0.998813 0.0487086 0
    outer loop
      vertex 43.671 9.76166 2
      vertex 43.6969 9.23099 4
      vertex 43.6969 9.23099 2
    endloop
  endfacet
  facet normal 0.998813 0.0487086 -0
    outer loop
      vertex 43.671 9.76166 2
      vertex 43.671 9.76166 4
      vertex 43.6969 9.23099 4
    endloop
  endfacet
  facet normal 0.9873 0.158869 0
    outer loop
      vertex 43.5933 10.2443 2
      vertex 43.671 9.76166 4
      vertex 43.671 9.76166 2
    endloop
  endfacet
  facet normal 0.9873 0.158869 -0
    outer loop
      vertex 43.5933 10.2443 2
      vertex 43.5933 10.2443 4
      vertex 43.671 9.76166 4
    endloop
  endfacet
  facet normal 0.958406 0.285409 0
    outer loop
      vertex 43.4639 10.679 2
      vertex 43.5933 10.2443 4
      vertex 43.5933 10.2443 2
    endloop
  endfacet
  facet normal 0.958406 0.285409 -0
    outer loop
      vertex 43.4639 10.679 2
      vertex 43.4639 10.679 4
      vertex 43.5933 10.2443 4
    endloop
  endfacet
  facet normal 0.913993 0.40573 0
    outer loop
      vertex 43.2893 11.0722 2
      vertex 43.4639 10.679 4
      vertex 43.4639 10.679 2
    endloop
  endfacet
  facet normal 0.913993 0.40573 -0
    outer loop
      vertex 43.2893 11.0722 2
      vertex 43.2893 11.0722 4
      vertex 43.4639 10.679 4
    endloop
  endfacet
  facet normal 0.857341 0.514749 0
    outer loop
      vertex 43.075 11.4292 2
      vertex 43.2893 11.0722 4
      vertex 43.2893 11.0722 2
    endloop
  endfacet
  facet normal 0.857341 0.514749 -0
    outer loop
      vertex 43.075 11.4292 2
      vertex 43.075 11.4292 4
      vertex 43.2893 11.0722 4
    endloop
  endfacet
  facet normal 0.783868 0.620927 0
    outer loop
      vertex 42.8209 11.75 2
      vertex 43.075 11.4292 4
      vertex 43.075 11.4292 2
    endloop
  endfacet
  facet normal 0.783868 0.620927 -0
    outer loop
      vertex 42.8209 11.75 2
      vertex 42.8209 11.75 4
      vertex 43.075 11.4292 4
    endloop
  endfacet
  facet normal 0.703153 0.711038 0
    outer loop
      vertex 42.5305 12.0371 2
      vertex 42.8209 11.75 4
      vertex 42.8209 11.75 2
    endloop
  endfacet
  facet normal 0.703153 0.711038 -0
    outer loop
      vertex 42.5305 12.0371 2
      vertex 42.5305 12.0371 4
      vertex 42.8209 11.75 4
    endloop
  endfacet
  facet normal 0.621117 0.783718 0
    outer loop
      vertex 42.2075 12.2931 2
      vertex 42.5305 12.0371 4
      vertex 42.5305 12.0371 2
    endloop
  endfacet
  facet normal 0.621117 0.783718 -0
    outer loop
      vertex 42.2075 12.2931 2
      vertex 42.2075 12.2931 4
      vertex 42.5305 12.0371 4
    endloop
  endfacet
  facet normal 0.534421 0.845218 0
    outer loop
      vertex 41.8519 12.518 2
      vertex 42.2075 12.2931 4
      vertex 42.2075 12.2931 2
    endloop
  endfacet
  facet normal 0.534421 0.845218 -0
    outer loop
      vertex 41.8519 12.518 2
      vertex 41.8519 12.518 4
      vertex 42.2075 12.2931 4
    endloop
  endfacet
  facet normal 0.465846 0.884866 0
    outer loop
      vertex 41.4715 12.7182 2
      vertex 41.8519 12.518 4
      vertex 41.8519 12.518 2
    endloop
  endfacet
  facet normal 0.465846 0.884866 -0
    outer loop
      vertex 41.4715 12.7182 2
      vertex 41.4715 12.7182 4
      vertex 41.8519 12.518 4
    endloop
  endfacet
  facet normal 0.415566 0.909563 0
    outer loop
      vertex 41.0732 12.9002 2
      vertex 41.4715 12.7182 4
      vertex 41.4715 12.7182 2
    endloop
  endfacet
  facet normal 0.415566 0.909563 -0
    outer loop
      vertex 41.0732 12.9002 2
      vertex 41.0732 12.9002 4
      vertex 41.4715 12.7182 4
    endloop
  endfacet
  facet normal 0.366092 0.930579 0
    outer loop
      vertex 40.6569 13.064 2
      vertex 41.0732 12.9002 4
      vertex 41.0732 12.9002 2
    endloop
  endfacet
  facet normal 0.366092 0.930579 -0
    outer loop
      vertex 40.6569 13.064 2
      vertex 40.6569 13.064 4
      vertex 41.0732 12.9002 4
    endloop
  endfacet
  facet normal 0.324086 0.946028 0
    outer loop
      vertex 40.2249 13.212 2
      vertex 40.6569 13.064 4
      vertex 40.6569 13.064 2
    endloop
  endfacet
  facet normal 0.324086 0.946028 -0
    outer loop
      vertex 40.2249 13.212 2
      vertex 40.2249 13.212 4
      vertex 40.6569 13.064 4
    endloop
  endfacet
  facet normal 0.286821 0.957984 0
    outer loop
      vertex 39.7795 13.3453 2
      vertex 40.2249 13.212 4
      vertex 40.2249 13.212 2
    endloop
  endfacet
  facet normal 0.286821 0.957984 -0
    outer loop
      vertex 39.7795 13.3453 2
      vertex 39.7795 13.3453 4
      vertex 40.2249 13.212 4
    endloop
  endfacet
  facet normal 0.250477 0.968123 0
    outer loop
      vertex 39.3209 13.464 2
      vertex 39.7795 13.3453 4
      vertex 39.7795 13.3453 2
    endloop
  endfacet
  facet normal 0.250477 0.968123 -0
    outer loop
      vertex 39.3209 13.464 2
      vertex 39.3209 13.464 4
      vertex 39.7795 13.3453 4
    endloop
  endfacet
  facet normal 0.230857 0.972988 0
    outer loop
      vertex 38.388 13.6853 2
      vertex 39.3209 13.464 4
      vertex 39.3209 13.464 2
    endloop
  endfacet
  facet normal 0.230857 0.972988 -0
    outer loop
      vertex 38.388 13.6853 2
      vertex 38.388 13.6853 4
      vertex 39.3209 13.464 4
    endloop
  endfacet
  facet normal 0.226109 0.974102 0
    outer loop
      vertex 37.9199 13.794 2
      vertex 38.388 13.6853 4
      vertex 38.388 13.6853 2
    endloop
  endfacet
  facet normal 0.226109 0.974102 -0
    outer loop
      vertex 37.9199 13.794 2
      vertex 37.9199 13.794 4
      vertex 38.388 13.6853 4
    endloop
  endfacet
  facet normal 0.229774 0.973244 0
    outer loop
      vertex 36.6755 14.0878 2
      vertex 37.9199 13.794 4
      vertex 37.9199 13.794 2
    endloop
  endfacet
  facet normal 0.229774 0.973244 -0
    outer loop
      vertex 36.6755 14.0878 2
      vertex 36.6755 14.0878 4
      vertex 37.9199 13.794 4
    endloop
  endfacet
  facet normal 0.269368 0.963037 0
    outer loop
      vertex 35.7412 14.3491 2
      vertex 36.6755 14.0878 4
      vertex 36.6755 14.0878 2
    endloop
  endfacet
  facet normal 0.269368 0.963037 -0
    outer loop
      vertex 35.7412 14.3491 2
      vertex 35.7412 14.3491 4
      vertex 36.6755 14.0878 4
    endloop
  endfacet
  facet normal 0.344203 0.938895 0
    outer loop
      vertex 35.1169 14.578 2
      vertex 35.7412 14.3491 4
      vertex 35.7412 14.3491 2
    endloop
  endfacet
  facet normal 0.344203 0.938895 -0
    outer loop
      vertex 35.1169 14.578 2
      vertex 35.1169 14.578 4
      vertex 35.7412 14.3491 4
    endloop
  endfacet
  facet normal 0.467114 0.884197 0
    outer loop
      vertex 34.6849 14.8062 2
      vertex 35.1169 14.578 4
      vertex 35.1169 14.578 2
    endloop
  endfacet
  facet normal 0.467114 0.884197 -0
    outer loop
      vertex 34.6849 14.8062 2
      vertex 34.6849 14.8062 4
      vertex 35.1169 14.578 4
    endloop
  endfacet
  facet normal 0.585931 0.810361 0
    outer loop
      vertex 34.3262 15.0656 2
      vertex 34.6849 14.8062 4
      vertex 34.6849 14.8062 2
    endloop
  endfacet
  facet normal 0.585931 0.810361 -0
    outer loop
      vertex 34.3262 15.0656 2
      vertex 34.3262 15.0656 4
      vertex 34.6849 14.8062 4
    endloop
  endfacet
  facet normal 0.713356 0.700801 0
    outer loop
      vertex 34.0409 15.356 2
      vertex 34.3262 15.0656 4
      vertex 34.3262 15.0656 2
    endloop
  endfacet
  facet normal 0.713356 0.700801 -0
    outer loop
      vertex 34.0409 15.356 2
      vertex 34.0409 15.356 4
      vertex 34.3262 15.0656 4
    endloop
  endfacet
  facet normal 0.849494 0.527598 0
    outer loop
      vertex 33.8336 15.6897 2
      vertex 34.0409 15.356 4
      vertex 34.0409 15.356 2
    endloop
  endfacet
  facet normal 0.849494 0.527598 -0
    outer loop
      vertex 33.8336 15.6897 2
      vertex 33.8336 15.6897 4
      vertex 34.0409 15.356 4
    endloop
  endfacet
  facet normal 0.952231 0.305379 0
    outer loop
      vertex 33.7093 16.0773 2
      vertex 33.8336 15.6897 4
      vertex 33.8336 15.6897 2
    endloop
  endfacet
  facet normal 0.952231 0.305379 -0
    outer loop
      vertex 33.7093 16.0773 2
      vertex 33.7093 16.0773 4
      vertex 33.8336 15.6897 4
    endloop
  endfacet
  facet normal 0.995627 0.0934228 0
    outer loop
      vertex 33.6679 16.519 2
      vertex 33.7093 16.0773 4
      vertex 33.7093 16.0773 2
    endloop
  endfacet
  facet normal 0.995627 0.0934228 -0
    outer loop
      vertex 33.6679 16.519 2
      vertex 33.6679 16.519 4
      vertex 33.7093 16.0773 4
    endloop
  endfacet
  facet normal 0.989525 -0.144361 0
    outer loop
      vertex 33.7748 17.2517 2
      vertex 33.6679 16.519 4
      vertex 33.6679 16.519 2
    endloop
  endfacet
  facet normal 0.989525 -0.144361 0
    outer loop
      vertex 33.7748 17.2517 2
      vertex 33.7748 17.2517 4
      vertex 33.6679 16.519 4
    endloop
  endfacet
  facet normal 0.882164 -0.470943 0
    outer loop
      vertex 34.0954 17.8523 2
      vertex 33.7748 17.2517 4
      vertex 33.7748 17.2517 2
    endloop
  endfacet
  facet normal 0.882164 -0.470943 0
    outer loop
      vertex 34.0954 17.8523 2
      vertex 34.0954 17.8523 4
      vertex 33.7748 17.2517 4
    endloop
  endfacet
  facet normal 0.659322 -0.751861 0
    outer loop
      vertex 34.6299 18.321 2
      vertex 34.0954 17.8523 4
      vertex 34.0954 17.8523 2
    endloop
  endfacet
  facet normal 0.659322 -0.751861 0
    outer loop
      vertex 34.6299 18.321 2
      vertex 34.6299 18.321 4
      vertex 34.0954 17.8523 4
    endloop
  endfacet
  facet normal 0.414678 -0.909968 0
    outer loop
      vertex 35.3674 18.6571 2
      vertex 34.6299 18.321 4
      vertex 34.6299 18.321 2
    endloop
  endfacet
  facet normal 0.414678 -0.909968 0
    outer loop
      vertex 35.3674 18.6571 2
      vertex 35.3674 18.6571 4
      vertex 34.6299 18.321 4
    endloop
  endfacet
  facet normal 0.211916 -0.977288 0
    outer loop
      vertex 36.2974 18.8588 2
      vertex 35.3674 18.6571 4
      vertex 35.3674 18.6571 2
    endloop
  endfacet
  facet normal 0.211916 -0.977288 0
    outer loop
      vertex 36.2974 18.8588 2
      vertex 36.2974 18.8588 4
      vertex 35.3674 18.6571 4
    endloop
  endfacet
  facet normal 0.0597887 -0.998211 0
    outer loop
      vertex 37.4199 18.926 2
      vertex 36.2974 18.8588 4
      vertex 36.2974 18.8588 2
    endloop
  endfacet
  facet normal 0.0597887 -0.998211 0
    outer loop
      vertex 37.4199 18.926 2
      vertex 37.4199 18.926 4
      vertex 36.2974 18.8588 4
    endloop
  endfacet
  facet normal -0.0590525 -0.998255 0
    outer loop
      vertex 38.4493 18.8651 2
      vertex 37.4199 18.926 4
      vertex 37.4199 18.926 2
    endloop
  endfacet
  facet normal -0.0590525 -0.998255 0
    outer loop
      vertex 38.4493 18.8651 2
      vertex 38.4493 18.8651 4
      vertex 37.4199 18.926 4
    endloop
  endfacet
  facet normal -0.205855 -0.978582 0
    outer loop
      vertex 39.3177 18.6824 2
      vertex 38.4493 18.8651 4
      vertex 38.4493 18.8651 2
    endloop
  endfacet
  facet normal -0.205855 -0.978582 0
    outer loop
      vertex 39.3177 18.6824 2
      vertex 39.3177 18.6824 4
      vertex 38.4493 18.8651 4
    endloop
  endfacet
  facet normal -0.395402 -0.918508 0
    outer loop
      vertex 40.0249 18.378 2
      vertex 39.3177 18.6824 4
      vertex 39.3177 18.6824 2
    endloop
  endfacet
  facet normal -0.395402 -0.918508 0
    outer loop
      vertex 40.0249 18.378 2
      vertex 40.0249 18.378 4
      vertex 39.3177 18.6824 4
    endloop
  endfacet
  facet normal -0.616857 -0.787075 0
    outer loop
      vertex 40.5849 17.9391 2
      vertex 40.0249 18.378 4
      vertex 40.0249 18.378 2
    endloop
  endfacet
  facet normal -0.616857 -0.787075 0
    outer loop
      vertex 40.5849 17.9391 2
      vertex 40.5849 17.9391 4
      vertex 40.0249 18.378 4
    endloop
  endfacet
  facet normal -0.80992 -0.58654 0
    outer loop
      vertex 41.0102 17.3518 2
      vertex 40.5849 17.9391 4
      vertex 40.5849 17.9391 2
    endloop
  endfacet
  facet normal -0.80992 -0.58654 0
    outer loop
      vertex 41.0102 17.3518 2
      vertex 41.0102 17.3518 4
      vertex 40.5849 17.9391 4
    endloop
  endfacet
  facet normal -0.930058 -0.367413 0
    outer loop
      vertex 41.3009 16.616 2
      vertex 41.0102 17.3518 4
      vertex 41.0102 17.3518 2
    endloop
  endfacet
  facet normal -0.930058 -0.367413 0
    outer loop
      vertex 41.3009 16.616 2
      vertex 41.3009 16.616 4
      vertex 41.0102 17.3518 4
    endloop
  endfacet
  facet normal 0.173013 -0.984919 0
    outer loop
      vertex 43.3389 16.974 2
      vertex 41.3009 16.616 4
      vertex 41.3009 16.616 2
    endloop
  endfacet
  facet normal 0.173013 -0.984919 0
    outer loop
      vertex 43.3389 16.974 2
      vertex 43.3389 16.974 4
      vertex 41.3009 16.616 4
    endloop
  endfacet
  facet normal 0.929204 0.369568 0
    outer loop
      vertex 42.8794 18.1292 2
      vertex 43.3389 16.974 4
      vertex 43.3389 16.974 2
    endloop
  endfacet
  facet normal 0.929204 0.369568 -0
    outer loop
      vertex 42.8794 18.1292 2
      vertex 42.8794 18.1292 4
      vertex 43.3389 16.974 4
    endloop
  endfacet
  facet normal 0.815677 0.578508 0
    outer loop
      vertex 42.2371 19.0349 2
      vertex 42.8794 18.1292 4
      vertex 42.8794 18.1292 2
    endloop
  endfacet
  facet normal 0.815677 0.578508 -0
    outer loop
      vertex 42.2371 19.0349 2
      vertex 42.2371 19.0349 4
      vertex 42.8794 18.1292 4
    endloop
  endfacet
  facet normal 0.622346 0.782742 0
    outer loop
      vertex 41.4119 19.691 2
      vertex 42.2371 19.0349 4
      vertex 42.2371 19.0349 2
    endloop
  endfacet
  facet normal 0.622346 0.782742 -0
    outer loop
      vertex 41.4119 19.691 2
      vertex 41.4119 19.691 4
      vertex 42.2371 19.0349 4
    endloop
  endfacet
  facet normal 0.387965 0.921674 0
    outer loop
      vertex 40.36 20.1338 2
      vertex 41.4119 19.691 4
      vertex 41.4119 19.691 2
    endloop
  endfacet
  facet normal 0.387965 0.921674 -0
    outer loop
      vertex 40.36 20.1338 2
      vertex 40.36 20.1338 4
      vertex 41.4119 19.691 4
    endloop
  endfacet
  facet normal 0.196772 0.980449 0
    outer loop
      vertex 39.0363 20.3994 2
      vertex 40.36 20.1338 4
      vertex 40.36 20.1338 2
    endloop
  endfacet
  facet normal 0.196772 0.980449 -0
    outer loop
      vertex 39.0363 20.3994 2
      vertex 39.0363 20.3994 4
      vertex 40.36 20.1338 4
    endloop
  endfacet
  facet normal 0.055424 0.998463 0
    outer loop
      vertex 37.4409 20.488 2
      vertex 39.0363 20.3994 4
      vertex 39.0363 20.3994 2
    endloop
  endfacet
  facet normal 0.055424 0.998463 -0
    outer loop
      vertex 37.4409 20.488 2
      vertex 37.4409 20.488 4
      vertex 39.0363 20.3994 4
    endloop
  endfacet
  facet normal -0.0684106 0.997657 0
    outer loop
      vertex 35.7232 20.3702 2
      vertex 37.4409 20.488 4
      vertex 37.4409 20.488 2
    endloop
  endfacet
  facet normal -0.0684106 0.997657 0
    outer loop
      vertex 35.7232 20.3702 2
      vertex 35.7232 20.3702 4
      vertex 37.4409 20.488 4
    endloop
  endfacet
  facet normal -0.23982 0.970817 0
    outer loop
      vertex 34.2929 20.0169 2
      vertex 35.7232 20.3702 4
      vertex 35.7232 20.3702 2
    endloop
  endfacet
  facet normal -0.23982 0.970817 0
    outer loop
      vertex 34.2929 20.0169 2
      vertex 34.2929 20.0169 4
      vertex 35.7232 20.3702 4
    endloop
  endfacet
  facet normal -0.457994 0.888955 0
    outer loop
      vertex 33.1499 19.428 2
      vertex 34.2929 20.0169 4
      vertex 34.2929 20.0169 2
    endloop
  endfacet
  facet normal -0.457994 0.888955 0
    outer loop
      vertex 33.1499 19.428 2
      vertex 33.1499 19.428 4
      vertex 34.2929 20.0169 4
    endloop
  endfacet
  facet normal -0.695412 0.718612 0
    outer loop
      vertex 32.3171 18.6221 2
      vertex 33.1499 19.428 4
      vertex 33.1499 19.428 2
    endloop
  endfacet
  facet normal -0.695412 0.718612 0
    outer loop
      vertex 32.3171 18.6221 2
      vertex 32.3171 18.6221 4
      vertex 33.1499 19.428 4
    endloop
  endfacet
  facet normal -0.895552 0.444957 0
    outer loop
      vertex 31.8174 17.6164 2
      vertex 32.3171 18.6221 4
      vertex 32.3171 18.6221 2
    endloop
  endfacet
  facet normal -0.895552 0.444957 0
    outer loop
      vertex 31.8174 17.6164 2
      vertex 31.8174 17.6164 4
      vertex 32.3171 18.6221 4
    endloop
  endfacet
  facet normal -0.99059 0.136864 0
    outer loop
      vertex 31.6509 16.411 2
      vertex 31.8174 17.6164 4
      vertex 31.8174 17.6164 2
    endloop
  endfacet
  facet normal -0.99059 0.136864 0
    outer loop
      vertex 31.6509 16.411 2
      vertex 31.6509 16.411 4
      vertex 31.8174 17.6164 4
    endloop
  endfacet
  facet normal -0.998322 -0.0578988 0
    outer loop
      vertex 31.6826 15.8632 2
      vertex 31.6509 16.411 4
      vertex 31.6509 16.411 2
    endloop
  endfacet
  facet normal -0.998322 -0.0578988 0
    outer loop
      vertex 31.6826 15.8632 2
      vertex 31.6826 15.8632 4
      vertex 31.6509 16.411 4
    endloop
  endfacet
  facet normal -0.98262 -0.185627 0
    outer loop
      vertex 31.778 15.3586 2
      vertex 31.6826 15.8632 4
      vertex 31.6826 15.8632 2
    endloop
  endfacet
  facet normal -0.98262 -0.185627 0
    outer loop
      vertex 31.778 15.3586 2
      vertex 31.778 15.3586 4
      vertex 31.6826 15.8632 4
    endloop
  endfacet
  facet normal -0.945543 -0.325496 0
    outer loop
      vertex 31.9369 14.897 2
      vertex 31.778 15.3586 4
      vertex 31.778 15.3586 2
    endloop
  endfacet
  facet normal -0.945543 -0.325496 0
    outer loop
      vertex 31.9369 14.897 2
      vertex 31.9369 14.897 4
      vertex 31.778 15.3586 4
    endloop
  endfacet
  facet normal -0.886565 -0.462604 0
    outer loop
      vertex 32.1564 14.4762 2
      vertex 31.9369 14.897 4
      vertex 31.9369 14.897 2
    endloop
  endfacet
  facet normal -0.886565 -0.462604 0
    outer loop
      vertex 32.1564 14.4762 2
      vertex 32.1564 14.4762 4
      vertex 31.9369 14.897 4
    endloop
  endfacet
  facet normal -0.811774 -0.583971 0
    outer loop
      vertex 32.4324 14.0925 2
      vertex 32.1564 14.4762 4
      vertex 32.1564 14.4762 2
    endloop
  endfacet
  facet normal -0.811774 -0.583971 0
    outer loop
      vertex 32.4324 14.0925 2
      vertex 32.4324 14.0925 4
      vertex 32.1564 14.4762 4
    endloop
  endfacet
  facet normal -0.72165 -0.692259 0
    outer loop
      vertex 32.7649 13.746 2
      vertex 32.4324 14.0925 4
      vertex 32.4324 14.0925 2
    endloop
  endfacet
  facet normal -0.72165 -0.692259 0
    outer loop
      vertex 32.7649 13.746 2
      vertex 32.7649 13.746 4
      vertex 32.4324 14.0925 4
    endloop
  endfacet
  facet normal -0.617718 -0.7864 0
    outer loop
      vertex 33.1694 13.4282 2
      vertex 32.7649 13.746 4
      vertex 32.7649 13.746 2
    endloop
  endfacet
  facet normal -0.617718 -0.7864 0
    outer loop
      vertex 33.1694 13.4282 2
      vertex 33.1694 13.4282 4
      vertex 32.7649 13.746 4
    endloop
  endfacet
  facet normal -0.516971 -0.856003 0
    outer loop
      vertex 33.6618 13.1309 2
      vertex 33.1694 13.4282 4
      vertex 33.1694 13.4282 2
    endloop
  endfacet
  facet normal -0.516971 -0.856003 0
    outer loop
      vertex 33.6618 13.1309 2
      vertex 33.6618 13.1309 4
      vertex 33.1694 13.4282 4
    endloop
  endfacet
  facet normal -0.430741 -0.902476 0
    outer loop
      vertex 34.2419 12.854 2
      vertex 33.6618 13.1309 4
      vertex 33.6618 13.1309 2
    endloop
  endfacet
  facet normal -0.430741 -0.902476 0
    outer loop
      vertex 34.2419 12.854 2
      vertex 34.2419 12.854 4
      vertex 33.6618 13.1309 4
    endloop
  endfacet
  facet normal -0.347108 -0.937825 0
    outer loop
      vertex 34.9626 12.5872 2
      vertex 34.2419 12.854 4
      vertex 34.2419 12.854 2
    endloop
  endfacet
  facet normal -0.347108 -0.937825 0
    outer loop
      vertex 34.9626 12.5872 2
      vertex 34.9626 12.5872 4
      vertex 34.2419 12.854 4
    endloop
  endfacet
  facet normal -0.280306 -0.959911 0
    outer loop
      vertex 35.877 12.3202 2
      vertex 34.9626 12.5872 4
      vertex 34.9626 12.5872 2
    endloop
  endfacet
  facet normal -0.280306 -0.959911 0
    outer loop
      vertex 35.877 12.3202 2
      vertex 35.877 12.3202 4
      vertex 34.9626 12.5872 4
    endloop
  endfacet
  facet normal -0.234478 -0.972121 0
    outer loop
      vertex 36.9849 12.053 2
      vertex 35.877 12.3202 4
      vertex 35.877 12.3202 2
    endloop
  endfacet
  facet normal -0.234478 -0.972121 0
    outer loop
      vertex 36.9849 12.053 2
      vertex 36.9849 12.053 4
      vertex 35.877 12.3202 4
    endloop
  endfacet
  facet normal -0.22411 -0.974564 0
    outer loop
      vertex 37.657 11.8984 2
      vertex 36.9849 12.053 4
      vertex 36.9849 12.053 2
    endloop
  endfacet
  facet normal -0.22411 -0.974564 0
    outer loop
      vertex 37.657 11.8984 2
      vertex 37.657 11.8984 4
      vertex 36.9849 12.053 4
    endloop
  endfacet
  facet normal -0.227876 -0.97369 0
    outer loop
      vertex 38.288 11.7508 2
      vertex 37.657 11.8984 4
      vertex 37.657 11.8984 2
    endloop
  endfacet
  facet normal -0.227876 -0.97369 0
    outer loop
      vertex 38.288 11.7508 2
      vertex 38.288 11.7508 4
      vertex 37.657 11.8984 4
    endloop
  endfacet
  facet normal -0.232132 -0.972684 0
    outer loop
      vertex 38.8779 11.61 2
      vertex 38.288 11.7508 4
      vertex 38.288 11.7508 2
    endloop
  endfacet
  facet normal -0.232132 -0.972684 0
    outer loop
      vertex 38.8779 11.61 2
      vertex 38.8779 11.61 4
      vertex 38.288 11.7508 4
    endloop
  endfacet
  facet normal -0.262021 -0.965062 0
    outer loop
      vertex 39.4213 11.4624 2
      vertex 38.8779 11.61 4
      vertex 38.8779 11.61 2
    endloop
  endfacet
  facet normal -0.262021 -0.965062 0
    outer loop
      vertex 39.4213 11.4624 2
      vertex 39.4213 11.4624 4
      vertex 38.8779 11.61 4
    endloop
  endfacet
  facet normal -0.326419 -0.945225 0
    outer loop
      vertex 39.9117 11.2931 2
      vertex 39.4213 11.4624 4
      vertex 39.4213 11.4624 2
    endloop
  endfacet
  facet normal -0.326419 -0.945225 0
    outer loop
      vertex 39.9117 11.2931 2
      vertex 39.9117 11.2931 4
      vertex 39.4213 11.4624 4
    endloop
  endfacet
  facet normal -0.40052 -0.916288 0
    outer loop
      vertex 40.3489 11.102 2
      vertex 39.9117 11.2931 4
      vertex 39.9117 11.2931 2
    endloop
  endfacet
  facet normal -0.40052 -0.916288 0
    outer loop
      vertex 40.3489 11.102 2
      vertex 40.3489 11.102 4
      vertex 39.9117 11.2931 4
    endloop
  endfacet
  facet normal -0.500386 -0.865802 0
    outer loop
      vertex 40.7295 10.882 2
      vertex 40.3489 11.102 4
      vertex 40.3489 11.102 2
    endloop
  endfacet
  facet normal -0.500386 -0.865802 0
    outer loop
      vertex 40.7295 10.882 2
      vertex 40.7295 10.882 4
      vertex 40.3489 11.102 4
    endloop
  endfacet
  facet normal -0.625481 -0.780239 0
    outer loop
      vertex 41.0489 10.626 2
      vertex 40.7295 10.882 4
      vertex 40.7295 10.882 2
    endloop
  endfacet
  facet normal -0.625481 -0.780239 0
    outer loop
      vertex 41.0489 10.626 2
      vertex 41.0489 10.626 4
      vertex 40.7295 10.882 4
    endloop
  endfacet
  facet normal -0.749385 -0.662134 0
    outer loop
      vertex 41.3069 10.334 2
      vertex 41.0489 10.626 4
      vertex 41.0489 10.626 2
    endloop
  endfacet
  facet normal -0.749385 -0.662134 0
    outer loop
      vertex 41.3069 10.334 2
      vertex 41.3069 10.334 4
      vertex 41.0489 10.626 4
    endloop
  endfacet
  facet normal -0.874288 -0.485407 0
    outer loop
      vertex 41.4963 9.99277 2
      vertex 41.3069 10.334 4
      vertex 41.3069 10.334 2
    endloop
  endfacet
  facet normal -0.874288 -0.485407 0
    outer loop
      vertex 41.4963 9.99277 2
      vertex 41.4963 9.99277 4
      vertex 41.3069 10.334 4
    endloop
  endfacet
  facet normal -0.96257 -0.271033 0
    outer loop
      vertex 41.61 9.5891 2
      vertex 41.4963 9.99277 4
      vertex 41.4963 9.99277 2
    endloop
  endfacet
  facet normal -0.96257 -0.271033 0
    outer loop
      vertex 41.61 9.5891 2
      vertex 41.61 9.5891 4
      vertex 41.4963 9.99277 4
    endloop
  endfacet
  facet normal -0.996713 -0.0810174 0
    outer loop
      vertex 41.6479 9.12299 2
      vertex 41.61 9.5891 4
      vertex 41.61 9.5891 2
    endloop
  endfacet
  facet normal -0.996713 -0.0810174 0
    outer loop
      vertex 41.6479 9.12299 2
      vertex 41.6479 9.12299 4
      vertex 41.61 9.5891 4
    endloop
  endfacet
  facet normal -0.989171 0.146764 0
    outer loop
      vertex 41.5271 8.30899 2
      vertex 41.6479 9.12299 4
      vertex 41.6479 9.12299 2
    endloop
  endfacet
  facet normal -0.989171 0.146764 0
    outer loop
      vertex 41.5271 8.30899 2
      vertex 41.5271 8.30899 4
      vertex 41.6479 9.12299 4
    endloop
  endfacet
  facet normal -0.880004 0.474966 0
    outer loop
      vertex 41.1648 7.63766 2
      vertex 41.5271 8.30899 4
      vertex 41.5271 8.30899 2
    endloop
  endfacet
  facet normal -0.880004 0.474966 0
    outer loop
      vertex 41.1648 7.63766 2
      vertex 41.1648 7.63766 4
      vertex 41.5271 8.30899 4
    endloop
  endfacet
  facet normal -0.658698 0.752407 0
    outer loop
      vertex 40.5609 7.10899 2
      vertex 41.1648 7.63766 4
      vertex 41.1648 7.63766 2
    endloop
  endfacet
  facet normal -0.658698 0.752407 0
    outer loop
      vertex 40.5609 7.10899 2
      vertex 40.5609 7.10899 4
      vertex 41.1648 7.63766 4
    endloop
  endfacet
  facet normal -0.418583 0.908178 0
    outer loop
      vertex 39.7352 6.72844 2
      vertex 40.5609 7.10899 4
      vertex 40.5609 7.10899 2
    endloop
  endfacet
  facet normal -0.418583 0.908178 0
    outer loop
      vertex 39.7352 6.72844 2
      vertex 39.7352 6.72844 4
      vertex 40.5609 7.10899 4
    endloop
  endfacet
  facet normal -0.216627 0.976254 0
    outer loop
      vertex 38.7062 6.50011 2
      vertex 39.7352 6.72844 4
      vertex 39.7352 6.72844 2
    endloop
  endfacet
  facet normal -0.216627 0.976254 0
    outer loop
      vertex 38.7062 6.50011 2
      vertex 38.7062 6.50011 4
      vertex 39.7352 6.72844 4
    endloop
  endfacet
  facet normal -0.0616443 0.998098 0
    outer loop
      vertex 37.4739 6.424 2
      vertex 38.7062 6.50011 4
      vertex 38.7062 6.50011 2
    endloop
  endfacet
  facet normal -0.0616443 0.998098 0
    outer loop
      vertex 37.4739 6.424 2
      vertex 37.4739 6.424 4
      vertex 38.7062 6.50011 4
    endloop
  endfacet
  facet normal 0.0596194 0.998221 0
    outer loop
      vertex 36.2739 6.49567 2
      vertex 37.4739 6.424 4
      vertex 37.4739 6.424 2
    endloop
  endfacet
  facet normal 0.0596194 0.998221 -0
    outer loop
      vertex 36.2739 6.49567 2
      vertex 36.2739 6.49567 4
      vertex 37.4739 6.424 4
    endloop
  endfacet
  facet normal 0.206248 0.9785 0
    outer loop
      vertex 35.2539 6.71066 2
      vertex 36.2739 6.49567 4
      vertex 36.2739 6.49567 2
    endloop
  endfacet
  facet normal 0.206248 0.9785 -0
    outer loop
      vertex 35.2539 6.71066 2
      vertex 35.2539 6.71066 4
      vertex 36.2739 6.49567 4
    endloop
  endfacet
  facet normal 0.392368 0.919808 0
    outer loop
      vertex 34.4139 7.06898 2
      vertex 35.2539 6.71066 4
      vertex 35.2539 6.71066 2
    endloop
  endfacet
  facet normal 0.392368 0.919808 -0
    outer loop
      vertex 34.4139 7.06898 2
      vertex 34.4139 7.06898 4
      vertex 35.2539 6.71066 4
    endloop
  endfacet
  facet normal 0.610779 0.791801 0
    outer loop
      vertex 33.751 7.58032 2
      vertex 34.4139 7.06898 4
      vertex 34.4139 7.06898 2
    endloop
  endfacet
  facet normal 0.610779 0.791801 -0
    outer loop
      vertex 33.751 7.58032 2
      vertex 33.751 7.58032 4
      vertex 34.4139 7.06898 4
    endloop
  endfacet
  facet normal 0.808835 0.588036 0
    outer loop
      vertex 33.261 8.25432 2
      vertex 33.751 7.58032 4
      vertex 33.751 7.58032 2
    endloop
  endfacet
  facet normal 0.808835 0.588036 -0
    outer loop
      vertex 33.261 8.25432 2
      vertex 33.261 8.25432 4
      vertex 33.751 7.58032 4
    endloop
  endfacet
  facet normal 0.93509 0.354411 0
    outer loop
      vertex 32.9439 9.09099 2
      vertex 33.261 8.25432 4
      vertex 33.261 8.25432 2
    endloop
  endfacet
  facet normal 0.93509 0.354411 -0
    outer loop
      vertex 32.9439 9.09099 2
      vertex 32.9439 9.09099 4
      vertex 33.261 8.25432 4
    endloop
  endfacet
  facet normal -0.195928 0.980618 0
    outer loop
      vertex 30.9369 8.68999 2
      vertex 32.9439 9.09099 4
      vertex 32.9439 9.09099 2
    endloop
  endfacet
  facet normal -0.195928 0.980618 0
    outer loop
      vertex 30.9369 8.68999 2
      vertex 30.9369 8.68999 4
      vertex 32.9439 9.09099 4
    endloop
  endfacet
  facet normal -0.88879 -0.458314 0
    outer loop
      vertex 32.049 6.53333 2
      vertex 30.9369 8.68999 4
      vertex 30.9369 8.68999 2
    endloop
  endfacet
  facet normal -0.88879 -0.458314 0
    outer loop
      vertex 32.049 6.53333 2
      vertex 32.049 6.53333 4
      vertex 30.9369 8.68999 4
    endloop
  endfacet
  facet normal -0.515023 -0.857176 0
    outer loop
      vertex 34.2027 5.23932 2
      vertex 32.049 6.53333 4
      vertex 32.049 6.53333 2
    endloop
  endfacet
  facet normal -0.515023 -0.857176 0
    outer loop
      vertex 34.2027 5.23932 2
      vertex 34.2027 5.23932 4
      vertex 32.049 6.53333 4
    endloop
  endfacet
  facet normal -0.133771 -0.991012 0
    outer loop
      vertex 37.3979 4.80801 2
      vertex 34.2027 5.23932 4
      vertex 34.2027 5.23932 2
    endloop
  endfacet
  facet normal -0.133771 -0.991012 0
    outer loop
      vertex 37.3979 4.80801 2
      vertex 37.3979 4.80801 4
      vertex 34.2027 5.23932 4
    endloop
  endfacet
  facet normal 0.0693635 -0.997591 0
    outer loop
      vertex 39.2468 4.93657 2
      vertex 37.3979 4.80801 4
      vertex 37.3979 4.80801 2
    endloop
  endfacet
  facet normal 0.0693635 -0.997591 0
    outer loop
      vertex 39.2468 4.93657 2
      vertex 39.2468 4.93657 4
      vertex 37.3979 4.80801 4
    endloop
  endfacet
endsolid OpenSCAD_Model
