solid OpenSCAD_Model
  facet normal 0 0 -1
    outer loop
      vertex 38.5236 9.12299 2
      vertex 38.4857 9.5891 2
      vertex 40.5726 9.23099 2
    endloop
  endfacet
  facet normal 0 0 -1
    outer loop
      vertex 37.2246 11.102 2
      vertex 36.7873 11.2931 2
      vertex 37.9489 12.9002 2
    endloop
  endfacet
  facet normal 0 -0 -1
    outer loop
      vertex 38.3472 12.7182 2
      vertex 38.7276 12.518 2
      vertex 37.6052 10.882 2
    endloop
  endfacet
  facet normal 0 0 -1
    outer loop
      vertex 37.2246 11.102 2
      vertex 38.3472 12.7182 2
      vertex 37.6052 10.882 2
    endloop
  endfacet
  facet normal 0 0 -1
    outer loop
      vertex 37.2246 11.102 2
      vertex 37.9489 12.9002 2
      vertex 38.3472 12.7182 2
    endloop
  endfacet
  facet normal 0 0 -1
    outer loop
      vertex 37.6052 10.882 2
      vertex 38.7276 12.518 2
      vertex 39.0832 12.2931 2
    endloop
  endfacet
  facet normal 0 0 -1
    outer loop
      vertex 38.1826 10.334 2
      vertex 37.9246 10.626 2
      vertex 39.4062 12.0371 2
    endloop
  endfacet
  facet normal -0 0 -1
    outer loop
      vertex 37.5326 13.064 2
      vertex 36.7873 11.2931 2
      vertex 37.1006 13.212 2
    endloop
  endfacet
  facet normal 0 -0 -1
    outer loop
      vertex 37.5326 13.064 2
      vertex 37.9489 12.9002 2
      vertex 36.7873 11.2931 2
    endloop
  endfacet
  facet normal 0 0 -1
    outer loop
      vertex 36.297 11.4624 2
      vertex 37.1006 13.212 2
      vertex 36.7873 11.2931 2
    endloop
  endfacet
  facet normal 0 0 -1
    outer loop
      vertex 38.4028 8.30899 2
      vertex 38.5236 9.12299 2
      vertex 40.3891 7.93077 2
    endloop
  endfacet
  facet normal 0 0 -1
    outer loop
      vertex 36.6552 13.3453 2
      vertex 36.297 11.4624 2
      vertex 35.7536 11.61 2
    endloop
  endfacet
  facet normal 0 -0 -1
    outer loop
      vertex 36.1966 13.464 2
      vertex 36.6552 13.3453 2
      vertex 35.7536 11.61 2
    endloop
  endfacet
  facet normal 0 0 -1
    outer loop
      vertex 35.1637 11.7508 2
      vertex 36.1966 13.464 2
      vertex 35.7536 11.61 2
    endloop
  endfacet
  facet normal 0 0 -1
    outer loop
      vertex 39.8388 6.8421 2
      vertex 38.4028 8.30899 2
      vertex 40.3891 7.93077 2
    endloop
  endfacet
  facet normal 0 0 -1
    outer loop
      vertex 35.1637 11.7508 2
      vertex 34.5327 11.8984 2
      vertex 35.2637 13.6853 2
    endloop
  endfacet
  facet normal -0 0 -1
    outer loop
      vertex 35.2637 13.6853 2
      vertex 34.5327 11.8984 2
      vertex 34.7956 13.794 2
    endloop
  endfacet
  facet normal 0 0 -1
    outer loop
      vertex 33.5512 14.0878 2
      vertex 34.7956 13.794 2
      vertex 33.8606 12.053 2
    endloop
  endfacet
  facet normal 0 0 -1
    outer loop
      vertex 32.7527 12.3202 2
      vertex 33.5512 14.0878 2
      vertex 33.8606 12.053 2
    endloop
  endfacet
  facet normal 0 -0 -1
    outer loop
      vertex 31.9926 14.578 2
      vertex 32.6169 14.3491 2
      vertex 31.8383 12.5872 2
    endloop
  endfacet
  facet normal 0 0 -1
    outer loop
      vertex 31.5606 14.8062 2
      vertex 31.1176 12.854 2
      vertex 30.5374 13.1309 2
    endloop
  endfacet
  facet normal 0 0 -1
    outer loop
      vertex 31.2019 15.0656 2
      vertex 30.0451 13.4282 2
      vertex 29.6406 13.746 2
    endloop
  endfacet
  facet normal 0 0 -1
    outer loop
      vertex 30.9166 15.356 2
      vertex 29.3081 14.0925 2
      vertex 29.0321 14.4762 2
    endloop
  endfacet
  facet normal 0 0 -1
    outer loop
      vertex 30.7093 15.6897 2
      vertex 29.0321 14.4762 2
      vertex 28.8126 14.897 2
    endloop
  endfacet
  facet normal 0 -0 -1
    outer loop
      vertex 30.585 16.0773 2
      vertex 30.7093 15.6897 2
      vertex 28.6537 15.3586 2
    endloop
  endfacet
  facet normal 0 0 -1
    outer loop
      vertex 28.5266 16.411 2
      vertex 30.585 16.0773 2
      vertex 28.5583 15.8632 2
    endloop
  endfacet
  facet normal 0 0 -1
    outer loop
      vertex 28.5266 16.411 2
      vertex 30.5436 16.519 2
      vertex 30.585 16.0773 2
    endloop
  endfacet
  facet normal 0 0 -1
    outer loop
      vertex 28.5266 16.411 2
      vertex 28.6931 17.6164 2
      vertex 30.5436 16.519 2
    endloop
  endfacet
  facet normal 0 0 -1
    outer loop
      vertex 28.6931 17.6164 2
      vertex 29.1928 18.6221 2
      vertex 30.6505 17.2517 2
    endloop
  endfacet
  facet normal 0 0 -1
    outer loop
      vertex 30.6505 17.2517 2
      vertex 29.1928 18.6221 2
      vertex 30.9711 17.8523 2
    endloop
  endfacet
  facet normal 0 0 -1
    outer loop
      vertex 30.9711 17.8523 2
      vertex 30.0256 19.428 2
      vertex 31.5056 18.321 2
    endloop
  endfacet
  facet normal 0 0 -1
    outer loop
      vertex 31.5056 18.321 2
      vertex 31.1686 20.0169 2
      vertex 32.2431 18.6571 2
    endloop
  endfacet
  facet normal 0 0 -1
    outer loop
      vertex 32.5989 20.3702 2
      vertex 34.3166 20.488 2
      vertex 33.1731 18.8588 2
    endloop
  endfacet
  facet normal 0 -0 -1
    outer loop
      vertex 34.3166 20.488 2
      vertex 35.325 18.8651 2
      vertex 34.2956 18.926 2
    endloop
  endfacet
  facet normal 0 -0 -1
    outer loop
      vertex 35.912 20.3994 2
      vertex 36.1933 18.6824 2
      vertex 35.325 18.8651 2
    endloop
  endfacet
  facet normal 0 0 -1
    outer loop
      vertex 37.2357 20.1338 2
      vertex 36.9006 18.378 2
      vertex 36.1933 18.6824 2
    endloop
  endfacet
  facet normal 0 0 -1
    outer loop
      vertex 38.2876 19.691 2
      vertex 37.4606 17.9391 2
      vertex 36.9006 18.378 2
    endloop
  endfacet
  facet normal 0 0 -1
    outer loop
      vertex 39.1128 19.0349 2
      vertex 37.8859 17.3518 2
      vertex 37.4606 17.9391 2
    endloop
  endfacet
  facet normal 0 -0 -1
    outer loop
      vertex 39.1128 19.0349 2
      vertex 39.7551 18.1292 2
      vertex 37.8859 17.3518 2
    endloop
  endfacet
  facet normal 0 0 -1
    outer loop
      vertex 37.8859 17.3518 2
      vertex 39.7551 18.1292 2
      vertex 38.1766 16.616 2
    endloop
  endfacet
  facet normal 0 0 -1
    outer loop
      vertex 38.1766 16.616 2
      vertex 39.7551 18.1292 2
      vertex 40.2146 16.974 2
    endloop
  endfacet
  facet normal 0 -0 -1
    outer loop
      vertex 38.2876 19.691 2
      vertex 39.1128 19.0349 2
      vertex 37.4606 17.9391 2
    endloop
  endfacet
  facet normal 0 -0 -1
    outer loop
      vertex 37.2357 20.1338 2
      vertex 38.2876 19.691 2
      vertex 36.9006 18.378 2
    endloop
  endfacet
  facet normal 0 0 -1
    outer loop
      vertex 35.912 20.3994 2
      vertex 37.2357 20.1338 2
      vertex 36.1933 18.6824 2
    endloop
  endfacet
  facet normal 0 0 -1
    outer loop
      vertex 34.3166 20.488 2
      vertex 35.912 20.3994 2
      vertex 35.325 18.8651 2
    endloop
  endfacet
  facet normal 0 0 -1
    outer loop
      vertex 33.1731 18.8588 2
      vertex 34.3166 20.488 2
      vertex 34.2956 18.926 2
    endloop
  endfacet
  facet normal 0 0 -1
    outer loop
      vertex 32.2431 18.6571 2
      vertex 32.5989 20.3702 2
      vertex 33.1731 18.8588 2
    endloop
  endfacet
  facet normal 0 0 -1
    outer loop
      vertex 32.2431 18.6571 2
      vertex 31.1686 20.0169 2
      vertex 32.5989 20.3702 2
    endloop
  endfacet
  facet normal 0 0 -1
    outer loop
      vertex 31.5056 18.321 2
      vertex 30.0256 19.428 2
      vertex 31.1686 20.0169 2
    endloop
  endfacet
  facet normal 0 0 -1
    outer loop
      vertex 30.9711 17.8523 2
      vertex 29.1928 18.6221 2
      vertex 30.0256 19.428 2
    endloop
  endfacet
  facet normal 0 0 -1
    outer loop
      vertex 17.8173 20.1623 2
      vertex 19.1413 19.7613 2
      vertex 17.957 18.3085 2
    endloop
  endfacet
  facet normal 0 0 -1
    outer loop
      vertex 30.5436 16.519 2
      vertex 28.6931 17.6164 2
      vertex 30.6505 17.2517 2
    endloop
  endfacet
  facet normal 0 0 -1
    outer loop
      vertex 28.5583 15.8632 2
      vertex 30.585 16.0773 2
      vertex 28.6537 15.3586 2
    endloop
  endfacet
  facet normal 0 0 -1
    outer loop
      vertex 28.6537 15.3586 2
      vertex 30.7093 15.6897 2
      vertex 28.8126 14.897 2
    endloop
  endfacet
  facet normal 0 -0 -1
    outer loop
      vertex 30.7093 15.6897 2
      vertex 30.9166 15.356 2
      vertex 29.0321 14.4762 2
    endloop
  endfacet
  facet normal 0 0 -1
    outer loop
      vertex 21.615 15.703 2
      vertex 21.4581 14.357 2
      vertex 19.533 15.681 2
    endloop
  endfacet
  facet normal 0 0 -1
    outer loop
      vertex 30.9166 15.356 2
      vertex 29.6406 13.746 2
      vertex 29.3081 14.0925 2
    endloop
  endfacet
  facet normal 0 -0 -1
    outer loop
      vertex 30.9166 15.356 2
      vertex 31.2019 15.0656 2
      vertex 29.6406 13.746 2
    endloop
  endfacet
  facet normal 0 0 -1
    outer loop
      vertex 36.1225 4.93657 2
      vertex 36.6109 6.72844 2
      vertex 37.6718 5.32222 2
    endloop
  endfacet
  facet normal -0 0 -1
    outer loop
      vertex 34.3496 6.424 2
      vertex 34.2736 4.80801 2
      vertex 33.1496 6.49567 2
    endloop
  endfacet
  facet normal 0 -0 -1
    outer loop
      vertex 31.2019 15.0656 2
      vertex 31.5606 14.8062 2
      vertex 30.0451 13.4282 2
    endloop
  endfacet
  facet normal 0 0 -1
    outer loop
      vertex 30.0451 13.4282 2
      vertex 31.5606 14.8062 2
      vertex 30.5374 13.1309 2
    endloop
  endfacet
  facet normal 0 -0 -1
    outer loop
      vertex 31.5606 14.8062 2
      vertex 31.9926 14.578 2
      vertex 31.1176 12.854 2
    endloop
  endfacet
  facet normal 0 0 -1
    outer loop
      vertex 31.1176 12.854 2
      vertex 31.9926 14.578 2
      vertex 31.8383 12.5872 2
    endloop
  endfacet
  facet normal 0 0 -1
    outer loop
      vertex 31.8383 12.5872 2
      vertex 32.6169 14.3491 2
      vertex 32.7527 12.3202 2
    endloop
  endfacet
  facet normal 0 0 -1
    outer loop
      vertex 32.7527 12.3202 2
      vertex 32.6169 14.3491 2
      vertex 33.5512 14.0878 2
    endloop
  endfacet
  facet normal 0 0 -1
    outer loop
      vertex 33.8606 12.053 2
      vertex 34.7956 13.794 2
      vertex 34.5327 11.8984 2
    endloop
  endfacet
  facet normal -0 0 -1
    outer loop
      vertex 36.1966 13.464 2
      vertex 35.1637 11.7508 2
      vertex 35.2637 13.6853 2
    endloop
  endfacet
  facet normal -0 0 -1
    outer loop
      vertex 37.1006 13.212 2
      vertex 36.297 11.4624 2
      vertex 36.6552 13.3453 2
    endloop
  endfacet
  facet normal -0 0 -1
    outer loop
      vertex 36.1225 4.93657 2
      vertex 34.2736 4.80801 2
      vertex 35.5819 6.50011 2
    endloop
  endfacet
  facet normal -0 0 -1
    outer loop
      vertex 39.6966 11.75 2
      vertex 38.1826 10.334 2
      vertex 39.4062 12.0371 2
    endloop
  endfacet
  facet normal 0 0 -1
    outer loop
      vertex 37.6052 10.882 2
      vertex 39.0832 12.2931 2
      vertex 37.9246 10.626 2
    endloop
  endfacet
  facet normal 0 0 -1
    outer loop
      vertex 36.1225 4.93657 2
      vertex 35.5819 6.50011 2
      vertex 36.6109 6.72844 2
    endloop
  endfacet
  facet normal 0 0 -1
    outer loop
      vertex 37.9246 10.626 2
      vertex 39.0832 12.2931 2
      vertex 39.4062 12.0371 2
    endloop
  endfacet
  facet normal 0 -0 -1
    outer loop
      vertex 39.6966 11.75 2
      vertex 39.9507 11.4292 2
      vertex 38.1826 10.334 2
    endloop
  endfacet
  facet normal 0 0 -1
    outer loop
      vertex 38.372 9.99277 2
      vertex 38.1826 10.334 2
      vertex 40.165 11.0722 2
    endloop
  endfacet
  facet normal 0 0 -1
    outer loop
      vertex 38.1826 10.334 2
      vertex 39.9507 11.4292 2
      vertex 40.165 11.0722 2
    endloop
  endfacet
  facet normal 0 0 -1
    outer loop
      vertex 38.372 9.99277 2
      vertex 40.165 11.0722 2
      vertex 40.3396 10.679 2
    endloop
  endfacet
  facet normal 0 0 -1
    outer loop
      vertex 40.469 10.2443 2
      vertex 38.4857 9.5891 2
      vertex 38.372 9.99277 2
    endloop
  endfacet
  facet normal -0 0 -1
    outer loop
      vertex 40.469 10.2443 2
      vertex 38.372 9.99277 2
      vertex 40.3396 10.679 2
    endloop
  endfacet
  facet normal 0 -0 -1
    outer loop
      vertex 40.469 10.2443 2
      vertex 40.5467 9.76166 2
      vertex 38.4857 9.5891 2
    endloop
  endfacet
  facet normal 0 0 -1
    outer loop
      vertex 38.4857 9.5891 2
      vertex 40.5467 9.76166 2
      vertex 40.5726 9.23099 2
    endloop
  endfacet
  facet normal 0 0 -1
    outer loop
      vertex 38.5236 9.12299 2
      vertex 40.5726 9.23099 2
      vertex 40.3891 7.93077 2
    endloop
  endfacet
  facet normal 0 0 -1
    outer loop
      vertex 39.8388 6.8421 2
      vertex 38.0405 7.63766 2
      vertex 38.4028 8.30899 2
    endloop
  endfacet
  facet normal -0 0 -1
    outer loop
      vertex 39.8388 6.8421 2
      vertex 38.9216 5.965 2
      vertex 38.0405 7.63766 2
    endloop
  endfacet
  facet normal 0 0 -1
    outer loop
      vertex 37.4366 7.10899 2
      vertex 38.9216 5.965 2
      vertex 37.6718 5.32222 2
    endloop
  endfacet
  facet normal 0 -0 -1
    outer loop
      vertex 38.0405 7.63766 2
      vertex 38.9216 5.965 2
      vertex 37.4366 7.10899 2
    endloop
  endfacet
  facet normal 0 0 -1
    outer loop
      vertex 36.6109 6.72844 2
      vertex 37.4366 7.10899 2
      vertex 37.6718 5.32222 2
    endloop
  endfacet
  facet normal 0 0 -1
    outer loop
      vertex 34.2736 4.80801 2
      vertex 34.3496 6.424 2
      vertex 35.5819 6.50011 2
    endloop
  endfacet
  facet normal -0 0 -1
    outer loop
      vertex 33.1496 6.49567 2
      vertex 31.0783 5.23932 2
      vertex 32.1296 6.71066 2
    endloop
  endfacet
  facet normal 0 0 -1
    outer loop
      vertex 31.0783 5.23932 2
      vertex 28.9247 6.53333 2
      vertex 31.2896 7.06898 2
    endloop
  endfacet
  facet normal -0 0 -1
    outer loop
      vertex 31.2896 7.06898 2
      vertex 28.9247 6.53333 2
      vertex 30.6267 7.58032 2
    endloop
  endfacet
  facet normal -0 0 -1
    outer loop
      vertex 30.6267 7.58032 2
      vertex 28.9247 6.53333 2
      vertex 30.1367 8.25432 2
    endloop
  endfacet
  facet normal -0 0 -1
    outer loop
      vertex 30.1367 8.25432 2
      vertex 28.9247 6.53333 2
      vertex 27.8126 8.68999 2
    endloop
  endfacet
  facet normal 0 -0 -1
    outer loop
      vertex 29.8196 9.09099 2
      vertex 30.1367 8.25432 2
      vertex 27.8126 8.68999 2
    endloop
  endfacet
  facet normal -0 0 -1
    outer loop
      vertex 21.615 15.703 2
      vertex 19.533 15.681 2
      vertex 21.4587 17.0521 2
    endloop
  endfacet
  facet normal -0 0 -1
    outer loop
      vertex 32.1296 6.71066 2
      vertex 31.0783 5.23932 2
      vertex 31.2896 7.06898 2
    endloop
  endfacet
  facet normal 0 -0 -1
    outer loop
      vertex 33.1496 6.49567 2
      vertex 34.2736 4.80801 2
      vertex 31.0783 5.23932 2
    endloop
  endfacet
  facet normal -0 0 -1
    outer loop
      vertex 11.889 10.979 2
      vertex 9.81799 5 2
      vertex 11.889 12.616 2
    endloop
  endfacet
  facet normal 0 0 -1
    outer loop
      vertex 20.203 12.257 2
      vertex 19.1485 13.9782 2
      vertex 20.9874 13.2083 2
    endloop
  endfacet
  facet normal 0 -0 -1
    outer loop
      vertex 19.1413 19.7613 2
      vertex 20.208 19.093 2
      vertex 17.957 18.3085 2
    endloop
  endfacet
  facet normal 0 0 -1
    outer loop
      vertex 17.957 18.3085 2
      vertex 15.987 18.637 2
      vertex 17.8173 20.1623 2
    endloop
  endfacet
  facet normal 0 0 -1
    outer loop
      vertex 21.4587 17.0521 2
      vertex 19.139 17.3232 2
      vertex 20.9897 18.1821 2
    endloop
  endfacet
  facet normal -0 0 -1
    outer loop
      vertex 20.203 12.257 2
      vertex 19.1493 11.547 2
      vertex 17.9952 12.9565 2
    endloop
  endfacet
  facet normal 0 0 -1
    outer loop
      vertex 15.987 18.637 2
      vertex 16.236 20.296 2
      vertex 17.8173 20.1623 2
    endloop
  endfacet
  facet normal 0 0 -1
    outer loop
      vertex 16.368 10.979 2
      vertex 11.889 10.979 2
      vertex 16.073 12.616 2
    endloop
  endfacet
  facet normal -0 0 -1
    outer loop
      vertex 16.073 12.616 2
      vertex 11.889 10.979 2
      vertex 11.889 12.616 2
    endloop
  endfacet
  facet normal 0 -0 -1
    outer loop
      vertex 11.889 10.979 2
      vertex 11.889 5 2
      vertex 9.81799 5 2
    endloop
  endfacet
  facet normal 0 0 -1
    outer loop
      vertex 16.368 10.979 2
      vertex 16.073 12.616 2
      vertex 17.871 11.121 2
    endloop
  endfacet
  facet normal 0 0 -1
    outer loop
      vertex 11.889 12.616 2
      vertex 9.81799 20.296 2
      vertex 11.889 18.637 2
    endloop
  endfacet
  facet normal -0 0 -1
    outer loop
      vertex 11.889 12.616 2
      vertex 9.81799 5 2
      vertex 9.81799 20.296 2
    endloop
  endfacet
  facet normal 0 0 -1
    outer loop
      vertex 11.889 18.637 2
      vertex 9.81799 20.296 2
      vertex 16.236 20.296 2
    endloop
  endfacet
  facet normal 0 0 -1
    outer loop
      vertex 15.987 18.637 2
      vertex 11.889 18.637 2
      vertex 16.236 20.296 2
    endloop
  endfacet
  facet normal 0 0 -1
    outer loop
      vertex 19.139 17.3232 2
      vertex 20.208 19.093 2
      vertex 20.9897 18.1821 2
    endloop
  endfacet
  facet normal 0 0 -1
    outer loop
      vertex 17.957 18.3085 2
      vertex 20.208 19.093 2
      vertex 19.139 17.3232 2
    endloop
  endfacet
  facet normal 0 0 -1
    outer loop
      vertex 19.533 15.681 2
      vertex 19.139 17.3232 2
      vertex 21.4587 17.0521 2
    endloop
  endfacet
  facet normal 0 0 -1
    outer loop
      vertex 19.1485 13.9782 2
      vertex 21.4581 14.357 2
      vertex 20.9874 13.2083 2
    endloop
  endfacet
  facet normal 0 -0 -1
    outer loop
      vertex 19.533 15.681 2
      vertex 21.4581 14.357 2
      vertex 19.1485 13.9782 2
    endloop
  endfacet
  facet normal 0 -0 -1
    outer loop
      vertex 19.1485 13.9782 2
      vertex 20.203 12.257 2
      vertex 17.9952 12.9565 2
    endloop
  endfacet
  facet normal 0 0 -1
    outer loop
      vertex 16.073 12.616 2
      vertex 17.9952 12.9565 2
      vertex 17.871 11.121 2
    endloop
  endfacet
  facet normal 0 -0 -1
    outer loop
      vertex 17.9952 12.9565 2
      vertex 19.1493 11.547 2
      vertex 17.871 11.121 2
    endloop
  endfacet
  facet normal 0 0 1
    outer loop
      vertex 40.5726 9.23099 4
      vertex 38.4857 9.5891 4
      vertex 38.5236 9.12299 4
    endloop
  endfacet
  facet normal 0 0 1
    outer loop
      vertex 37.9489 12.9002 4
      vertex 36.7873 11.2931 4
      vertex 37.2246 11.102 4
    endloop
  endfacet
  facet normal 0 0 1
    outer loop
      vertex 37.6052 10.882 4
      vertex 38.7276 12.518 4
      vertex 38.3472 12.7182 4
    endloop
  endfacet
  facet normal 0 -0 1
    outer loop
      vertex 37.6052 10.882 4
      vertex 38.3472 12.7182 4
      vertex 37.2246 11.102 4
    endloop
  endfacet
  facet normal 0 0 1
    outer loop
      vertex 38.3472 12.7182 4
      vertex 37.9489 12.9002 4
      vertex 37.2246 11.102 4
    endloop
  endfacet
  facet normal 0 0 1
    outer loop
      vertex 39.0832 12.2931 4
      vertex 38.7276 12.518 4
      vertex 37.6052 10.882 4
    endloop
  endfacet
  facet normal 0 0 1
    outer loop
      vertex 39.4062 12.0371 4
      vertex 37.9246 10.626 4
      vertex 38.1826 10.334 4
    endloop
  endfacet
  facet normal 0 0 1
    outer loop
      vertex 37.1006 13.212 4
      vertex 36.7873 11.2931 4
      vertex 37.5326 13.064 4
    endloop
  endfacet
  facet normal 0 0 1
    outer loop
      vertex 36.7873 11.2931 4
      vertex 37.9489 12.9002 4
      vertex 37.5326 13.064 4
    endloop
  endfacet
  facet normal 0 -0 1
    outer loop
      vertex 36.7873 11.2931 4
      vertex 37.1006 13.212 4
      vertex 36.297 11.4624 4
    endloop
  endfacet
  facet normal 0 0 1
    outer loop
      vertex 40.3891 7.93077 4
      vertex 38.5236 9.12299 4
      vertex 38.4028 8.30899 4
    endloop
  endfacet
  facet normal -0 0 1
    outer loop
      vertex 35.7536 11.61 4
      vertex 36.297 11.4624 4
      vertex 36.6552 13.3453 4
    endloop
  endfacet
  facet normal 0 0 1
    outer loop
      vertex 35.7536 11.61 4
      vertex 36.6552 13.3453 4
      vertex 36.1966 13.464 4
    endloop
  endfacet
  facet normal 0 -0 1
    outer loop
      vertex 35.7536 11.61 4
      vertex 36.1966 13.464 4
      vertex 35.1637 11.7508 4
    endloop
  endfacet
  facet normal 0 0 1
    outer loop
      vertex 40.3891 7.93077 4
      vertex 38.4028 8.30899 4
      vertex 39.8388 6.8421 4
    endloop
  endfacet
  facet normal 0 0 1
    outer loop
      vertex 35.2637 13.6853 4
      vertex 34.5327 11.8984 4
      vertex 35.1637 11.7508 4
    endloop
  endfacet
  facet normal 0 0 1
    outer loop
      vertex 34.7956 13.794 4
      vertex 34.5327 11.8984 4
      vertex 35.2637 13.6853 4
    endloop
  endfacet
  facet normal 0 -0 1
    outer loop
      vertex 33.8606 12.053 4
      vertex 34.7956 13.794 4
      vertex 33.5512 14.0878 4
    endloop
  endfacet
  facet normal 0 0 1
    outer loop
      vertex 33.8606 12.053 4
      vertex 33.5512 14.0878 4
      vertex 32.7527 12.3202 4
    endloop
  endfacet
  facet normal 0 0 1
    outer loop
      vertex 31.8383 12.5872 4
      vertex 32.6169 14.3491 4
      vertex 31.9926 14.578 4
    endloop
  endfacet
  facet normal -0 0 1
    outer loop
      vertex 30.5374 13.1309 4
      vertex 31.1176 12.854 4
      vertex 31.5606 14.8062 4
    endloop
  endfacet
  facet normal -0 0 1
    outer loop
      vertex 29.6406 13.746 4
      vertex 30.0451 13.4282 4
      vertex 31.2019 15.0656 4
    endloop
  endfacet
  facet normal -0 0 1
    outer loop
      vertex 29.0321 14.4762 4
      vertex 29.3081 14.0925 4
      vertex 30.9166 15.356 4
    endloop
  endfacet
  facet normal -0 0 1
    outer loop
      vertex 28.8126 14.897 4
      vertex 29.0321 14.4762 4
      vertex 30.7093 15.6897 4
    endloop
  endfacet
  facet normal 0 0 1
    outer loop
      vertex 28.6537 15.3586 4
      vertex 30.7093 15.6897 4
      vertex 30.585 16.0773 4
    endloop
  endfacet
  facet normal 0 -0 1
    outer loop
      vertex 28.5583 15.8632 4
      vertex 30.585 16.0773 4
      vertex 28.5266 16.411 4
    endloop
  endfacet
  facet normal 0 0 1
    outer loop
      vertex 30.585 16.0773 4
      vertex 30.5436 16.519 4
      vertex 28.5266 16.411 4
    endloop
  endfacet
  facet normal 0 0 1
    outer loop
      vertex 30.5436 16.519 4
      vertex 28.6931 17.6164 4
      vertex 28.5266 16.411 4
    endloop
  endfacet
  facet normal 0 0 1
    outer loop
      vertex 30.6505 17.2517 4
      vertex 29.1928 18.6221 4
      vertex 28.6931 17.6164 4
    endloop
  endfacet
  facet normal 0 0 1
    outer loop
      vertex 30.9711 17.8523 4
      vertex 29.1928 18.6221 4
      vertex 30.6505 17.2517 4
    endloop
  endfacet
  facet normal 0 0 1
    outer loop
      vertex 31.5056 18.321 4
      vertex 30.0256 19.428 4
      vertex 30.9711 17.8523 4
    endloop
  endfacet
  facet normal 0 0 1
    outer loop
      vertex 32.2431 18.6571 4
      vertex 31.1686 20.0169 4
      vertex 31.5056 18.321 4
    endloop
  endfacet
  facet normal 0 -0 1
    outer loop
      vertex 33.1731 18.8588 4
      vertex 34.3166 20.488 4
      vertex 32.5989 20.3702 4
    endloop
  endfacet
  facet normal -0 0 1
    outer loop
      vertex 34.2956 18.926 4
      vertex 35.325 18.8651 4
      vertex 34.3166 20.488 4
    endloop
  endfacet
  facet normal -0 0 1
    outer loop
      vertex 35.325 18.8651 4
      vertex 36.1933 18.6824 4
      vertex 35.912 20.3994 4
    endloop
  endfacet
  facet normal -0 0 1
    outer loop
      vertex 36.1933 18.6824 4
      vertex 36.9006 18.378 4
      vertex 37.2357 20.1338 4
    endloop
  endfacet
  facet normal -0 0 1
    outer loop
      vertex 36.9006 18.378 4
      vertex 37.4606 17.9391 4
      vertex 38.2876 19.691 4
    endloop
  endfacet
  facet normal -0 0 1
    outer loop
      vertex 37.4606 17.9391 4
      vertex 37.8859 17.3518 4
      vertex 39.1128 19.0349 4
    endloop
  endfacet
  facet normal 0 0 1
    outer loop
      vertex 37.8859 17.3518 4
      vertex 39.7551 18.1292 4
      vertex 39.1128 19.0349 4
    endloop
  endfacet
  facet normal 0 -0 1
    outer loop
      vertex 38.1766 16.616 4
      vertex 39.7551 18.1292 4
      vertex 37.8859 17.3518 4
    endloop
  endfacet
  facet normal 0 0 1
    outer loop
      vertex 40.2146 16.974 4
      vertex 39.7551 18.1292 4
      vertex 38.1766 16.616 4
    endloop
  endfacet
  facet normal 0 0 1
    outer loop
      vertex 37.4606 17.9391 4
      vertex 39.1128 19.0349 4
      vertex 38.2876 19.691 4
    endloop
  endfacet
  facet normal 0 0 1
    outer loop
      vertex 36.9006 18.378 4
      vertex 38.2876 19.691 4
      vertex 37.2357 20.1338 4
    endloop
  endfacet
  facet normal 0 -0 1
    outer loop
      vertex 36.1933 18.6824 4
      vertex 37.2357 20.1338 4
      vertex 35.912 20.3994 4
    endloop
  endfacet
  facet normal 0 -0 1
    outer loop
      vertex 35.325 18.8651 4
      vertex 35.912 20.3994 4
      vertex 34.3166 20.488 4
    endloop
  endfacet
  facet normal 0 -0 1
    outer loop
      vertex 34.2956 18.926 4
      vertex 34.3166 20.488 4
      vertex 33.1731 18.8588 4
    endloop
  endfacet
  facet normal 0 0 1
    outer loop
      vertex 33.1731 18.8588 4
      vertex 32.5989 20.3702 4
      vertex 32.2431 18.6571 4
    endloop
  endfacet
  facet normal 0 0 1
    outer loop
      vertex 32.5989 20.3702 4
      vertex 31.1686 20.0169 4
      vertex 32.2431 18.6571 4
    endloop
  endfacet
  facet normal 0 0 1
    outer loop
      vertex 31.1686 20.0169 4
      vertex 30.0256 19.428 4
      vertex 31.5056 18.321 4
    endloop
  endfacet
  facet normal 0 0 1
    outer loop
      vertex 30.0256 19.428 4
      vertex 29.1928 18.6221 4
      vertex 30.9711 17.8523 4
    endloop
  endfacet
  facet normal 0 -0 1
    outer loop
      vertex 17.957 18.3085 4
      vertex 19.1413 19.7613 4
      vertex 17.8173 20.1623 4
    endloop
  endfacet
  facet normal 0 0 1
    outer loop
      vertex 30.6505 17.2517 4
      vertex 28.6931 17.6164 4
      vertex 30.5436 16.519 4
    endloop
  endfacet
  facet normal 0 -0 1
    outer loop
      vertex 28.6537 15.3586 4
      vertex 30.585 16.0773 4
      vertex 28.5583 15.8632 4
    endloop
  endfacet
  facet normal 0 -0 1
    outer loop
      vertex 28.8126 14.897 4
      vertex 30.7093 15.6897 4
      vertex 28.6537 15.3586 4
    endloop
  endfacet
  facet normal 0 0 1
    outer loop
      vertex 29.0321 14.4762 4
      vertex 30.9166 15.356 4
      vertex 30.7093 15.6897 4
    endloop
  endfacet
  facet normal -0 0 1
    outer loop
      vertex 19.533 15.681 4
      vertex 21.4581 14.357 4
      vertex 21.615 15.703 4
    endloop
  endfacet
  facet normal -0 0 1
    outer loop
      vertex 29.3081 14.0925 4
      vertex 29.6406 13.746 4
      vertex 30.9166 15.356 4
    endloop
  endfacet
  facet normal 0 0 1
    outer loop
      vertex 29.6406 13.746 4
      vertex 31.2019 15.0656 4
      vertex 30.9166 15.356 4
    endloop
  endfacet
  facet normal 0 0 1
    outer loop
      vertex 37.6718 5.32222 4
      vertex 36.6109 6.72844 4
      vertex 36.1225 4.93657 4
    endloop
  endfacet
  facet normal 0 0 1
    outer loop
      vertex 33.1496 6.49567 4
      vertex 34.2736 4.80801 4
      vertex 34.3496 6.424 4
    endloop
  endfacet
  facet normal 0 0 1
    outer loop
      vertex 30.0451 13.4282 4
      vertex 31.5606 14.8062 4
      vertex 31.2019 15.0656 4
    endloop
  endfacet
  facet normal 0 -0 1
    outer loop
      vertex 30.5374 13.1309 4
      vertex 31.5606 14.8062 4
      vertex 30.0451 13.4282 4
    endloop
  endfacet
  facet normal 0 0 1
    outer loop
      vertex 31.1176 12.854 4
      vertex 31.9926 14.578 4
      vertex 31.5606 14.8062 4
    endloop
  endfacet
  facet normal 0 -0 1
    outer loop
      vertex 31.8383 12.5872 4
      vertex 31.9926 14.578 4
      vertex 31.1176 12.854 4
    endloop
  endfacet
  facet normal 0 0 1
    outer loop
      vertex 32.7527 12.3202 4
      vertex 32.6169 14.3491 4
      vertex 31.8383 12.5872 4
    endloop
  endfacet
  facet normal 0 0 1
    outer loop
      vertex 33.5512 14.0878 4
      vertex 32.6169 14.3491 4
      vertex 32.7527 12.3202 4
    endloop
  endfacet
  facet normal 0 -0 1
    outer loop
      vertex 34.5327 11.8984 4
      vertex 34.7956 13.794 4
      vertex 33.8606 12.053 4
    endloop
  endfacet
  facet normal 0 0 1
    outer loop
      vertex 35.2637 13.6853 4
      vertex 35.1637 11.7508 4
      vertex 36.1966 13.464 4
    endloop
  endfacet
  facet normal 0 0 1
    outer loop
      vertex 36.6552 13.3453 4
      vertex 36.297 11.4624 4
      vertex 37.1006 13.212 4
    endloop
  endfacet
  facet normal 0 0 1
    outer loop
      vertex 35.5819 6.50011 4
      vertex 34.2736 4.80801 4
      vertex 36.1225 4.93657 4
    endloop
  endfacet
  facet normal 0 0 1
    outer loop
      vertex 39.4062 12.0371 4
      vertex 38.1826 10.334 4
      vertex 39.6966 11.75 4
    endloop
  endfacet
  facet normal 0 -0 1
    outer loop
      vertex 37.9246 10.626 4
      vertex 39.0832 12.2931 4
      vertex 37.6052 10.882 4
    endloop
  endfacet
  facet normal 0 0 1
    outer loop
      vertex 36.6109 6.72844 4
      vertex 35.5819 6.50011 4
      vertex 36.1225 4.93657 4
    endloop
  endfacet
  facet normal 0 0 1
    outer loop
      vertex 39.4062 12.0371 4
      vertex 39.0832 12.2931 4
      vertex 37.9246 10.626 4
    endloop
  endfacet
  facet normal 0 0 1
    outer loop
      vertex 38.1826 10.334 4
      vertex 39.9507 11.4292 4
      vertex 39.6966 11.75 4
    endloop
  endfacet
  facet normal 0 0 1
    outer loop
      vertex 40.165 11.0722 4
      vertex 38.1826 10.334 4
      vertex 38.372 9.99277 4
    endloop
  endfacet
  facet normal 0 0 1
    outer loop
      vertex 40.165 11.0722 4
      vertex 39.9507 11.4292 4
      vertex 38.1826 10.334 4
    endloop
  endfacet
  facet normal 0 0 1
    outer loop
      vertex 40.3396 10.679 4
      vertex 40.165 11.0722 4
      vertex 38.372 9.99277 4
    endloop
  endfacet
  facet normal -0 0 1
    outer loop
      vertex 38.372 9.99277 4
      vertex 38.4857 9.5891 4
      vertex 40.469 10.2443 4
    endloop
  endfacet
  facet normal 0 0 1
    outer loop
      vertex 40.3396 10.679 4
      vertex 38.372 9.99277 4
      vertex 40.469 10.2443 4
    endloop
  endfacet
  facet normal 0 0 1
    outer loop
      vertex 38.4857 9.5891 4
      vertex 40.5467 9.76166 4
      vertex 40.469 10.2443 4
    endloop
  endfacet
  facet normal 0 0 1
    outer loop
      vertex 40.5726 9.23099 4
      vertex 40.5467 9.76166 4
      vertex 38.4857 9.5891 4
    endloop
  endfacet
  facet normal 0 -0 1
    outer loop
      vertex 40.3891 7.93077 4
      vertex 40.5726 9.23099 4
      vertex 38.5236 9.12299 4
    endloop
  endfacet
  facet normal 0 0 1
    outer loop
      vertex 38.4028 8.30899 4
      vertex 38.0405 7.63766 4
      vertex 39.8388 6.8421 4
    endloop
  endfacet
  facet normal 0 0 1
    outer loop
      vertex 38.0405 7.63766 4
      vertex 38.9216 5.965 4
      vertex 39.8388 6.8421 4
    endloop
  endfacet
  facet normal 0 -0 1
    outer loop
      vertex 37.6718 5.32222 4
      vertex 38.9216 5.965 4
      vertex 37.4366 7.10899 4
    endloop
  endfacet
  facet normal -0 0 1
    outer loop
      vertex 37.4366 7.10899 4
      vertex 38.9216 5.965 4
      vertex 38.0405 7.63766 4
    endloop
  endfacet
  facet normal 0 0 1
    outer loop
      vertex 37.6718 5.32222 4
      vertex 37.4366 7.10899 4
      vertex 36.6109 6.72844 4
    endloop
  endfacet
  facet normal 0 0 1
    outer loop
      vertex 35.5819 6.50011 4
      vertex 34.3496 6.424 4
      vertex 34.2736 4.80801 4
    endloop
  endfacet
  facet normal 0 0 1
    outer loop
      vertex 32.1296 6.71066 4
      vertex 31.0783 5.23932 4
      vertex 33.1496 6.49567 4
    endloop
  endfacet
  facet normal 0 0 1
    outer loop
      vertex 31.2896 7.06898 4
      vertex 28.9247 6.53333 4
      vertex 31.0783 5.23932 4
    endloop
  endfacet
  facet normal 0 0 1
    outer loop
      vertex 30.6267 7.58032 4
      vertex 28.9247 6.53333 4
      vertex 31.2896 7.06898 4
    endloop
  endfacet
  facet normal 0 0 1
    outer loop
      vertex 30.1367 8.25432 4
      vertex 28.9247 6.53333 4
      vertex 30.6267 7.58032 4
    endloop
  endfacet
  facet normal 0 0 1
    outer loop
      vertex 27.8126 8.68999 4
      vertex 28.9247 6.53333 4
      vertex 30.1367 8.25432 4
    endloop
  endfacet
  facet normal -0 0 1
    outer loop
      vertex 27.8126 8.68999 4
      vertex 30.1367 8.25432 4
      vertex 29.8196 9.09099 4
    endloop
  endfacet
  facet normal 0 0 1
    outer loop
      vertex 21.4587 17.0521 4
      vertex 19.533 15.681 4
      vertex 21.615 15.703 4
    endloop
  endfacet
  facet normal 0 0 1
    outer loop
      vertex 31.2896 7.06898 4
      vertex 31.0783 5.23932 4
      vertex 32.1296 6.71066 4
    endloop
  endfacet
  facet normal -0 0 1
    outer loop
      vertex 31.0783 5.23932 4
      vertex 34.2736 4.80801 4
      vertex 33.1496 6.49567 4
    endloop
  endfacet
  facet normal 0 0 1
    outer loop
      vertex 11.889 12.616 4
      vertex 9.81799 5 4
      vertex 11.889 10.979 4
    endloop
  endfacet
  facet normal 0 0 1
    outer loop
      vertex 20.9874 13.2083 4
      vertex 19.1485 13.9782 4
      vertex 20.203 12.257 4
    endloop
  endfacet
  facet normal 0 0 1
    outer loop
      vertex 17.957 18.3085 4
      vertex 20.208 19.093 4
      vertex 19.1413 19.7613 4
    endloop
  endfacet
  facet normal 0 0 1
    outer loop
      vertex 17.8173 20.1623 4
      vertex 15.987 18.637 4
      vertex 17.957 18.3085 4
    endloop
  endfacet
  facet normal 0 0 1
    outer loop
      vertex 20.9897 18.1821 4
      vertex 19.139 17.3232 4
      vertex 21.4587 17.0521 4
    endloop
  endfacet
  facet normal 0 0 1
    outer loop
      vertex 17.9952 12.9565 4
      vertex 19.1493 11.547 4
      vertex 20.203 12.257 4
    endloop
  endfacet
  facet normal 0 0 1
    outer loop
      vertex 17.8173 20.1623 4
      vertex 16.236 20.296 4
      vertex 15.987 18.637 4
    endloop
  endfacet
  facet normal 0 0 1
    outer loop
      vertex 16.073 12.616 4
      vertex 11.889 10.979 4
      vertex 16.368 10.979 4
    endloop
  endfacet
  facet normal -0 0 1
    outer loop
      vertex 11.889 12.616 4
      vertex 11.889 10.979 4
      vertex 16.073 12.616 4
    endloop
  endfacet
  facet normal 0 0 1
    outer loop
      vertex 9.81799 5 4
      vertex 11.889 5 4
      vertex 11.889 10.979 4
    endloop
  endfacet
  facet normal 0 0 1
    outer loop
      vertex 17.871 11.121 4
      vertex 16.073 12.616 4
      vertex 16.368 10.979 4
    endloop
  endfacet
  facet normal 0 0 1
    outer loop
      vertex 11.889 18.637 4
      vertex 9.81799 20.296 4
      vertex 11.889 12.616 4
    endloop
  endfacet
  facet normal 0 0 1
    outer loop
      vertex 9.81799 20.296 4
      vertex 9.81799 5 4
      vertex 11.889 12.616 4
    endloop
  endfacet
  facet normal 0 0 1
    outer loop
      vertex 16.236 20.296 4
      vertex 9.81799 20.296 4
      vertex 11.889 18.637 4
    endloop
  endfacet
  facet normal 0 0 1
    outer loop
      vertex 16.236 20.296 4
      vertex 11.889 18.637 4
      vertex 15.987 18.637 4
    endloop
  endfacet
  facet normal 0 0 1
    outer loop
      vertex 20.9897 18.1821 4
      vertex 20.208 19.093 4
      vertex 19.139 17.3232 4
    endloop
  endfacet
  facet normal 0 -0 1
    outer loop
      vertex 19.139 17.3232 4
      vertex 20.208 19.093 4
      vertex 17.957 18.3085 4
    endloop
  endfacet
  facet normal 0 0 1
    outer loop
      vertex 21.4587 17.0521 4
      vertex 19.139 17.3232 4
      vertex 19.533 15.681 4
    endloop
  endfacet
  facet normal 0 -0 1
    outer loop
      vertex 20.9874 13.2083 4
      vertex 21.4581 14.357 4
      vertex 19.1485 13.9782 4
    endloop
  endfacet
  facet normal 0 0 1
    outer loop
      vertex 19.1485 13.9782 4
      vertex 21.4581 14.357 4
      vertex 19.533 15.681 4
    endloop
  endfacet
  facet normal -0 0 1
    outer loop
      vertex 17.9952 12.9565 4
      vertex 20.203 12.257 4
      vertex 19.1485 13.9782 4
    endloop
  endfacet
  facet normal 0 -0 1
    outer loop
      vertex 17.871 11.121 4
      vertex 17.9952 12.9565 4
      vertex 16.073 12.616 4
    endloop
  endfacet
  facet normal 0 0 1
    outer loop
      vertex 17.871 11.121 4
      vertex 19.1493 11.547 4
      vertex 17.9952 12.9565 4
    endloop
  endfacet
  facet normal 0.241544 -0.97039 0
    outer loop
      vertex 37.6718 5.32222 2
      vertex 36.1225 4.93657 4
      vertex 36.1225 4.93657 2
    endloop
  endfacet
  facet normal 0.241544 -0.97039 0
    outer loop
      vertex 37.6718 5.32222 2
      vertex 37.6718 5.32222 4
      vertex 36.1225 4.93657 4
    endloop
  endfacet
  facet normal 0.457369 -0.889277 0
    outer loop
      vertex 38.9216 5.965 2
      vertex 37.6718 5.32222 4
      vertex 37.6718 5.32222 2
    endloop
  endfacet
  facet normal 0.457369 -0.889277 0
    outer loop
      vertex 38.9216 5.965 2
      vertex 38.9216 5.965 4
      vertex 37.6718 5.32222 4
    endloop
  endfacet
  facet normal 0.691125 -0.722735 0
    outer loop
      vertex 39.8388 6.8421 2
      vertex 38.9216 5.965 4
      vertex 38.9216 5.965 2
    endloop
  endfacet
  facet normal 0.691125 -0.722735 0
    outer loop
      vertex 39.8388 6.8421 2
      vertex 39.8388 6.8421 4
      vertex 38.9216 5.965 4
    endloop
  endfacet
  facet normal 0.89245 -0.451147 0
    outer loop
      vertex 40.3891 7.93077 2
      vertex 39.8388 6.8421 4
      vertex 39.8388 6.8421 2
    endloop
  endfacet
  facet normal 0.89245 -0.451147 0
    outer loop
      vertex 40.3891 7.93077 2
      vertex 40.3891 7.93077 4
      vertex 39.8388 6.8421 4
    endloop
  endfacet
  facet normal 0.990194 -0.139702 0
    outer loop
      vertex 40.5726 9.23099 2
      vertex 40.3891 7.93077 4
      vertex 40.3891 7.93077 2
    endloop
  endfacet
  facet normal 0.990194 -0.139702 0
    outer loop
      vertex 40.5726 9.23099 2
      vertex 40.5726 9.23099 4
      vertex 40.3891 7.93077 4
    endloop
  endfacet
  facet normal 0.998813 0.0487086 0
    outer loop
      vertex 40.5467 9.76166 2
      vertex 40.5726 9.23099 4
      vertex 40.5726 9.23099 2
    endloop
  endfacet
  facet normal 0.998813 0.0487086 -0
    outer loop
      vertex 40.5467 9.76166 2
      vertex 40.5467 9.76166 4
      vertex 40.5726 9.23099 4
    endloop
  endfacet
  facet normal 0.9873 0.158869 0
    outer loop
      vertex 40.469 10.2443 2
      vertex 40.5467 9.76166 4
      vertex 40.5467 9.76166 2
    endloop
  endfacet
  facet normal 0.9873 0.158869 -0
    outer loop
      vertex 40.469 10.2443 2
      vertex 40.469 10.2443 4
      vertex 40.5467 9.76166 4
    endloop
  endfacet
  facet normal 0.958397 0.28544 0
    outer loop
      vertex 40.3396 10.679 2
      vertex 40.469 10.2443 4
      vertex 40.469 10.2443 2
    endloop
  endfacet
  facet normal 0.958397 0.28544 -0
    outer loop
      vertex 40.3396 10.679 2
      vertex 40.3396 10.679 4
      vertex 40.469 10.2443 4
    endloop
  endfacet
  facet normal 0.914006 0.405701 0
    outer loop
      vertex 40.165 11.0722 2
      vertex 40.3396 10.679 4
      vertex 40.3396 10.679 2
    endloop
  endfacet
  facet normal 0.914006 0.405701 -0
    outer loop
      vertex 40.165 11.0722 2
      vertex 40.165 11.0722 4
      vertex 40.3396 10.679 4
    endloop
  endfacet
  facet normal 0.857341 0.514749 0
    outer loop
      vertex 39.9507 11.4292 2
      vertex 40.165 11.0722 4
      vertex 40.165 11.0722 2
    endloop
  endfacet
  facet normal 0.857341 0.514749 -0
    outer loop
      vertex 39.9507 11.4292 2
      vertex 39.9507 11.4292 4
      vertex 40.165 11.0722 4
    endloop
  endfacet
  facet normal 0.783868 0.620927 0
    outer loop
      vertex 39.6966 11.75 2
      vertex 39.9507 11.4292 4
      vertex 39.9507 11.4292 2
    endloop
  endfacet
  facet normal 0.783868 0.620927 -0
    outer loop
      vertex 39.6966 11.75 2
      vertex 39.6966 11.75 4
      vertex 39.9507 11.4292 4
    endloop
  endfacet
  facet normal 0.703135 0.711057 0
    outer loop
      vertex 39.4062 12.0371 2
      vertex 39.6966 11.75 4
      vertex 39.6966 11.75 2
    endloop
  endfacet
  facet normal 0.703135 0.711057 -0
    outer loop
      vertex 39.4062 12.0371 2
      vertex 39.4062 12.0371 4
      vertex 39.6966 11.75 4
    endloop
  endfacet
  facet normal 0.621135 0.783703 0
    outer loop
      vertex 39.0832 12.2931 2
      vertex 39.4062 12.0371 4
      vertex 39.4062 12.0371 2
    endloop
  endfacet
  facet normal 0.621135 0.783703 -0
    outer loop
      vertex 39.0832 12.2931 2
      vertex 39.0832 12.2931 4
      vertex 39.4062 12.0371 4
    endloop
  endfacet
  facet normal 0.534421 0.845218 0
    outer loop
      vertex 38.7276 12.518 2
      vertex 39.0832 12.2931 4
      vertex 39.0832 12.2931 2
    endloop
  endfacet
  facet normal 0.534421 0.845218 -0
    outer loop
      vertex 38.7276 12.518 2
      vertex 38.7276 12.518 4
      vertex 39.0832 12.2931 4
    endloop
  endfacet
  facet normal 0.465846 0.884866 0
    outer loop
      vertex 38.3472 12.7182 2
      vertex 38.7276 12.518 4
      vertex 38.7276 12.518 2
    endloop
  endfacet
  facet normal 0.465846 0.884866 -0
    outer loop
      vertex 38.3472 12.7182 2
      vertex 38.3472 12.7182 4
      vertex 38.7276 12.518 4
    endloop
  endfacet
  facet normal 0.415566 0.909563 0
    outer loop
      vertex 37.9489 12.9002 2
      vertex 38.3472 12.7182 4
      vertex 38.3472 12.7182 2
    endloop
  endfacet
  facet normal 0.415566 0.909563 -0
    outer loop
      vertex 37.9489 12.9002 2
      vertex 37.9489 12.9002 4
      vertex 38.3472 12.7182 4
    endloop
  endfacet
  facet normal 0.366092 0.930579 0
    outer loop
      vertex 37.5326 13.064 2
      vertex 37.9489 12.9002 4
      vertex 37.9489 12.9002 2
    endloop
  endfacet
  facet normal 0.366092 0.930579 -0
    outer loop
      vertex 37.5326 13.064 2
      vertex 37.5326 13.064 4
      vertex 37.9489 12.9002 4
    endloop
  endfacet
  facet normal 0.324086 0.946028 0
    outer loop
      vertex 37.1006 13.212 2
      vertex 37.5326 13.064 4
      vertex 37.5326 13.064 2
    endloop
  endfacet
  facet normal 0.324086 0.946028 -0
    outer loop
      vertex 37.1006 13.212 2
      vertex 37.1006 13.212 4
      vertex 37.5326 13.064 4
    endloop
  endfacet
  facet normal 0.286821 0.957984 0
    outer loop
      vertex 36.6552 13.3453 2
      vertex 37.1006 13.212 4
      vertex 37.1006 13.212 2
    endloop
  endfacet
  facet normal 0.286821 0.957984 -0
    outer loop
      vertex 36.6552 13.3453 2
      vertex 36.6552 13.3453 4
      vertex 37.1006 13.212 4
    endloop
  endfacet
  facet normal 0.250477 0.968123 0
    outer loop
      vertex 36.1966 13.464 2
      vertex 36.6552 13.3453 4
      vertex 36.6552 13.3453 2
    endloop
  endfacet
  facet normal 0.250477 0.968123 -0
    outer loop
      vertex 36.1966 13.464 2
      vertex 36.1966 13.464 4
      vertex 36.6552 13.3453 4
    endloop
  endfacet
  facet normal 0.230857 0.972988 0
    outer loop
      vertex 35.2637 13.6853 2
      vertex 36.1966 13.464 4
      vertex 36.1966 13.464 2
    endloop
  endfacet
  facet normal 0.230857 0.972988 -0
    outer loop
      vertex 35.2637 13.6853 2
      vertex 35.2637 13.6853 4
      vertex 36.1966 13.464 4
    endloop
  endfacet
  facet normal 0.226109 0.974102 0
    outer loop
      vertex 34.7956 13.794 2
      vertex 35.2637 13.6853 4
      vertex 35.2637 13.6853 2
    endloop
  endfacet
  facet normal 0.226109 0.974102 -0
    outer loop
      vertex 34.7956 13.794 2
      vertex 34.7956 13.794 4
      vertex 35.2637 13.6853 4
    endloop
  endfacet
  facet normal 0.229774 0.973244 0
    outer loop
      vertex 33.5512 14.0878 2
      vertex 34.7956 13.794 4
      vertex 34.7956 13.794 2
    endloop
  endfacet
  facet normal 0.229774 0.973244 -0
    outer loop
      vertex 33.5512 14.0878 2
      vertex 33.5512 14.0878 4
      vertex 34.7956 13.794 4
    endloop
  endfacet
  facet normal 0.269368 0.963037 0
    outer loop
      vertex 32.6169 14.3491 2
      vertex 33.5512 14.0878 4
      vertex 33.5512 14.0878 2
    endloop
  endfacet
  facet normal 0.269368 0.963037 -0
    outer loop
      vertex 32.6169 14.3491 2
      vertex 32.6169 14.3491 4
      vertex 33.5512 14.0878 4
    endloop
  endfacet
  facet normal 0.344196 0.938898 0
    outer loop
      vertex 31.9926 14.578 2
      vertex 32.6169 14.3491 4
      vertex 32.6169 14.3491 2
    endloop
  endfacet
  facet normal 0.344196 0.938898 -0
    outer loop
      vertex 31.9926 14.578 2
      vertex 31.9926 14.578 4
      vertex 32.6169 14.3491 4
    endloop
  endfacet
  facet normal 0.467127 0.88419 0
    outer loop
      vertex 31.5606 14.8062 2
      vertex 31.9926 14.578 4
      vertex 31.9926 14.578 2
    endloop
  endfacet
  facet normal 0.467127 0.88419 -0
    outer loop
      vertex 31.5606 14.8062 2
      vertex 31.5606 14.8062 4
      vertex 31.9926 14.578 4
    endloop
  endfacet
  facet normal 0.585931 0.810361 0
    outer loop
      vertex 31.2019 15.0656 2
      vertex 31.5606 14.8062 4
      vertex 31.5606 14.8062 2
    endloop
  endfacet
  facet normal 0.585931 0.810361 -0
    outer loop
      vertex 31.2019 15.0656 2
      vertex 31.2019 15.0656 4
      vertex 31.5606 14.8062 4
    endloop
  endfacet
  facet normal 0.713356 0.700801 0
    outer loop
      vertex 30.9166 15.356 2
      vertex 31.2019 15.0656 4
      vertex 31.2019 15.0656 2
    endloop
  endfacet
  facet normal 0.713356 0.700801 -0
    outer loop
      vertex 30.9166 15.356 2
      vertex 30.9166 15.356 4
      vertex 31.2019 15.0656 4
    endloop
  endfacet
  facet normal 0.849494 0.527598 0
    outer loop
      vertex 30.7093 15.6897 2
      vertex 30.9166 15.356 4
      vertex 30.9166 15.356 2
    endloop
  endfacet
  facet normal 0.849494 0.527598 -0
    outer loop
      vertex 30.7093 15.6897 2
      vertex 30.7093 15.6897 4
      vertex 30.9166 15.356 4
    endloop
  endfacet
  facet normal 0.952231 0.305379 0
    outer loop
      vertex 30.585 16.0773 2
      vertex 30.7093 15.6897 4
      vertex 30.7093 15.6897 2
    endloop
  endfacet
  facet normal 0.952231 0.305379 -0
    outer loop
      vertex 30.585 16.0773 2
      vertex 30.585 16.0773 4
      vertex 30.7093 15.6897 4
    endloop
  endfacet
  facet normal 0.995627 0.0934228 0
    outer loop
      vertex 30.5436 16.519 2
      vertex 30.585 16.0773 4
      vertex 30.585 16.0773 2
    endloop
  endfacet
  facet normal 0.995627 0.0934228 -0
    outer loop
      vertex 30.5436 16.519 2
      vertex 30.5436 16.519 4
      vertex 30.585 16.0773 4
    endloop
  endfacet
  facet normal 0.989525 -0.144361 0
    outer loop
      vertex 30.6505 17.2517 2
      vertex 30.5436 16.519 4
      vertex 30.5436 16.519 2
    endloop
  endfacet
  facet normal 0.989525 -0.144361 0
    outer loop
      vertex 30.6505 17.2517 2
      vertex 30.6505 17.2517 4
      vertex 30.5436 16.519 4
    endloop
  endfacet
  facet normal 0.882164 -0.470943 0
    outer loop
      vertex 30.9711 17.8523 2
      vertex 30.6505 17.2517 4
      vertex 30.6505 17.2517 2
    endloop
  endfacet
  facet normal 0.882164 -0.470943 0
    outer loop
      vertex 30.9711 17.8523 2
      vertex 30.9711 17.8523 4
      vertex 30.6505 17.2517 4
    endloop
  endfacet
  facet normal 0.659332 -0.751852 0
    outer loop
      vertex 31.5056 18.321 2
      vertex 30.9711 17.8523 4
      vertex 30.9711 17.8523 2
    endloop
  endfacet
  facet normal 0.659332 -0.751852 0
    outer loop
      vertex 31.5056 18.321 2
      vertex 31.5056 18.321 4
      vertex 30.9711 17.8523 4
    endloop
  endfacet
  facet normal 0.414671 -0.909972 0
    outer loop
      vertex 32.2431 18.6571 2
      vertex 31.5056 18.321 4
      vertex 31.5056 18.321 2
    endloop
  endfacet
  facet normal 0.414671 -0.909972 0
    outer loop
      vertex 32.2431 18.6571 2
      vertex 32.2431 18.6571 4
      vertex 31.5056 18.321 4
    endloop
  endfacet
  facet normal 0.211916 -0.977288 0
    outer loop
      vertex 33.1731 18.8588 2
      vertex 32.2431 18.6571 4
      vertex 32.2431 18.6571 2
    endloop
  endfacet
  facet normal 0.211916 -0.977288 0
    outer loop
      vertex 33.1731 18.8588 2
      vertex 33.1731 18.8588 4
      vertex 32.2431 18.6571 4
    endloop
  endfacet
  facet normal 0.0597887 -0.998211 0
    outer loop
      vertex 34.2956 18.926 2
      vertex 33.1731 18.8588 4
      vertex 33.1731 18.8588 2
    endloop
  endfacet
  facet normal 0.0597887 -0.998211 0
    outer loop
      vertex 34.2956 18.926 2
      vertex 34.2956 18.926 4
      vertex 33.1731 18.8588 4
    endloop
  endfacet
  facet normal -0.0590534 -0.998255 0
    outer loop
      vertex 35.325 18.8651 2
      vertex 34.2956 18.926 4
      vertex 34.2956 18.926 2
    endloop
  endfacet
  facet normal -0.0590534 -0.998255 0
    outer loop
      vertex 35.325 18.8651 2
      vertex 35.325 18.8651 4
      vertex 34.2956 18.926 4
    endloop
  endfacet
  facet normal -0.205852 -0.978583 0
    outer loop
      vertex 36.1933 18.6824 2
      vertex 35.325 18.8651 4
      vertex 35.325 18.8651 2
    endloop
  endfacet
  facet normal -0.205852 -0.978583 0
    outer loop
      vertex 36.1933 18.6824 2
      vertex 36.1933 18.6824 4
      vertex 35.325 18.8651 4
    endloop
  endfacet
  facet normal -0.395402 -0.918508 0
    outer loop
      vertex 36.9006 18.378 2
      vertex 36.1933 18.6824 4
      vertex 36.1933 18.6824 2
    endloop
  endfacet
  facet normal -0.395402 -0.918508 0
    outer loop
      vertex 36.9006 18.378 2
      vertex 36.9006 18.378 4
      vertex 36.1933 18.6824 4
    endloop
  endfacet
  facet normal -0.616857 -0.787075 0
    outer loop
      vertex 37.4606 17.9391 2
      vertex 36.9006 18.378 4
      vertex 36.9006 18.378 2
    endloop
  endfacet
  facet normal -0.616857 -0.787075 0
    outer loop
      vertex 37.4606 17.9391 2
      vertex 37.4606 17.9391 4
      vertex 36.9006 18.378 4
    endloop
  endfacet
  facet normal -0.80992 -0.58654 0
    outer loop
      vertex 37.8859 17.3518 2
      vertex 37.4606 17.9391 4
      vertex 37.4606 17.9391 2
    endloop
  endfacet
  facet normal -0.80992 -0.58654 0
    outer loop
      vertex 37.8859 17.3518 2
      vertex 37.8859 17.3518 4
      vertex 37.4606 17.9391 4
    endloop
  endfacet
  facet normal -0.930058 -0.367413 0
    outer loop
      vertex 38.1766 16.616 2
      vertex 37.8859 17.3518 4
      vertex 37.8859 17.3518 2
    endloop
  endfacet
  facet normal -0.930058 -0.367413 0
    outer loop
      vertex 38.1766 16.616 2
      vertex 38.1766 16.616 4
      vertex 37.8859 17.3518 4
    endloop
  endfacet
  facet normal 0.173015 -0.984919 0
    outer loop
      vertex 40.2146 16.974 2
      vertex 38.1766 16.616 4
      vertex 38.1766 16.616 2
    endloop
  endfacet
  facet normal 0.173015 -0.984919 0
    outer loop
      vertex 40.2146 16.974 2
      vertex 40.2146 16.974 4
      vertex 38.1766 16.616 4
    endloop
  endfacet
  facet normal 0.929208 0.369557 0
    outer loop
      vertex 39.7551 18.1292 2
      vertex 40.2146 16.974 4
      vertex 40.2146 16.974 2
    endloop
  endfacet
  facet normal 0.929208 0.369557 -0
    outer loop
      vertex 39.7551 18.1292 2
      vertex 39.7551 18.1292 4
      vertex 40.2146 16.974 4
    endloop
  endfacet
  facet normal 0.815677 0.578508 0
    outer loop
      vertex 39.1128 19.0349 2
      vertex 39.7551 18.1292 4
      vertex 39.7551 18.1292 2
    endloop
  endfacet
  facet normal 0.815677 0.578508 -0
    outer loop
      vertex 39.1128 19.0349 2
      vertex 39.1128 19.0349 4
      vertex 39.7551 18.1292 4
    endloop
  endfacet
  facet normal 0.622339 0.782748 0
    outer loop
      vertex 38.2876 19.691 2
      vertex 39.1128 19.0349 4
      vertex 39.1128 19.0349 2
    endloop
  endfacet
  facet normal 0.622339 0.782748 -0
    outer loop
      vertex 38.2876 19.691 2
      vertex 38.2876 19.691 4
      vertex 39.1128 19.0349 4
    endloop
  endfacet
  facet normal 0.38797 0.921672 0
    outer loop
      vertex 37.2357 20.1338 2
      vertex 38.2876 19.691 4
      vertex 38.2876 19.691 2
    endloop
  endfacet
  facet normal 0.38797 0.921672 -0
    outer loop
      vertex 37.2357 20.1338 2
      vertex 37.2357 20.1338 4
      vertex 38.2876 19.691 4
    endloop
  endfacet
  facet normal 0.196772 0.980449 0
    outer loop
      vertex 35.912 20.3994 2
      vertex 37.2357 20.1338 4
      vertex 37.2357 20.1338 2
    endloop
  endfacet
  facet normal 0.196772 0.980449 -0
    outer loop
      vertex 35.912 20.3994 2
      vertex 35.912 20.3994 4
      vertex 37.2357 20.1338 4
    endloop
  endfacet
  facet normal 0.055424 0.998463 0
    outer loop
      vertex 34.3166 20.488 2
      vertex 35.912 20.3994 4
      vertex 35.912 20.3994 2
    endloop
  endfacet
  facet normal 0.055424 0.998463 -0
    outer loop
      vertex 34.3166 20.488 2
      vertex 34.3166 20.488 4
      vertex 35.912 20.3994 4
    endloop
  endfacet
  facet normal -0.0684106 0.997657 0
    outer loop
      vertex 32.5989 20.3702 2
      vertex 34.3166 20.488 4
      vertex 34.3166 20.488 2
    endloop
  endfacet
  facet normal -0.0684106 0.997657 0
    outer loop
      vertex 32.5989 20.3702 2
      vertex 32.5989 20.3702 4
      vertex 34.3166 20.488 4
    endloop
  endfacet
  facet normal -0.23982 0.970817 0
    outer loop
      vertex 31.1686 20.0169 2
      vertex 32.5989 20.3702 4
      vertex 32.5989 20.3702 2
    endloop
  endfacet
  facet normal -0.23982 0.970817 0
    outer loop
      vertex 31.1686 20.0169 2
      vertex 31.1686 20.0169 4
      vertex 32.5989 20.3702 4
    endloop
  endfacet
  facet normal -0.457994 0.888955 0
    outer loop
      vertex 30.0256 19.428 2
      vertex 31.1686 20.0169 4
      vertex 31.1686 20.0169 2
    endloop
  endfacet
  facet normal -0.457994 0.888955 0
    outer loop
      vertex 30.0256 19.428 2
      vertex 30.0256 19.428 4
      vertex 31.1686 20.0169 4
    endloop
  endfacet
  facet normal -0.695412 0.718612 0
    outer loop
      vertex 29.1928 18.6221 2
      vertex 30.0256 19.428 4
      vertex 30.0256 19.428 2
    endloop
  endfacet
  facet normal -0.695412 0.718612 0
    outer loop
      vertex 29.1928 18.6221 2
      vertex 29.1928 18.6221 4
      vertex 30.0256 19.428 4
    endloop
  endfacet
  facet normal -0.895552 0.444957 0
    outer loop
      vertex 28.6931 17.6164 2
      vertex 29.1928 18.6221 4
      vertex 29.1928 18.6221 2
    endloop
  endfacet
  facet normal -0.895552 0.444957 0
    outer loop
      vertex 28.6931 17.6164 2
      vertex 28.6931 17.6164 4
      vertex 29.1928 18.6221 4
    endloop
  endfacet
  facet normal -0.99059 0.136864 0
    outer loop
      vertex 28.5266 16.411 2
      vertex 28.6931 17.6164 4
      vertex 28.6931 17.6164 2
    endloop
  endfacet
  facet normal -0.99059 0.136864 0
    outer loop
      vertex 28.5266 16.411 2
      vertex 28.5266 16.411 4
      vertex 28.6931 17.6164 4
    endloop
  endfacet
  facet normal -0.998322 -0.0578988 0
    outer loop
      vertex 28.5583 15.8632 2
      vertex 28.5266 16.411 4
      vertex 28.5266 16.411 2
    endloop
  endfacet
  facet normal -0.998322 -0.0578988 0
    outer loop
      vertex 28.5583 15.8632 2
      vertex 28.5583 15.8632 4
      vertex 28.5266 16.411 4
    endloop
  endfacet
  facet normal -0.98262 -0.185627 0
    outer loop
      vertex 28.6537 15.3586 2
      vertex 28.5583 15.8632 4
      vertex 28.5583 15.8632 2
    endloop
  endfacet
  facet normal -0.98262 -0.185627 0
    outer loop
      vertex 28.6537 15.3586 2
      vertex 28.6537 15.3586 4
      vertex 28.5583 15.8632 4
    endloop
  endfacet
  facet normal -0.945543 -0.325496 0
    outer loop
      vertex 28.8126 14.897 2
      vertex 28.6537 15.3586 4
      vertex 28.6537 15.3586 2
    endloop
  endfacet
  facet normal -0.945543 -0.325496 0
    outer loop
      vertex 28.8126 14.897 2
      vertex 28.8126 14.897 4
      vertex 28.6537 15.3586 4
    endloop
  endfacet
  facet normal -0.886565 -0.462604 0
    outer loop
      vertex 29.0321 14.4762 2
      vertex 28.8126 14.897 4
      vertex 28.8126 14.897 2
    endloop
  endfacet
  facet normal -0.886565 -0.462604 0
    outer loop
      vertex 29.0321 14.4762 2
      vertex 29.0321 14.4762 4
      vertex 28.8126 14.897 4
    endloop
  endfacet
  facet normal -0.811774 -0.583971 0
    outer loop
      vertex 29.3081 14.0925 2
      vertex 29.0321 14.4762 4
      vertex 29.0321 14.4762 2
    endloop
  endfacet
  facet normal -0.811774 -0.583971 0
    outer loop
      vertex 29.3081 14.0925 2
      vertex 29.3081 14.0925 4
      vertex 29.0321 14.4762 4
    endloop
  endfacet
  facet normal -0.72165 -0.692259 0
    outer loop
      vertex 29.6406 13.746 2
      vertex 29.3081 14.0925 4
      vertex 29.3081 14.0925 2
    endloop
  endfacet
  facet normal -0.72165 -0.692259 0
    outer loop
      vertex 29.6406 13.746 2
      vertex 29.6406 13.746 4
      vertex 29.3081 14.0925 4
    endloop
  endfacet
  facet normal -0.617718 -0.7864 0
    outer loop
      vertex 30.0451 13.4282 2
      vertex 29.6406 13.746 4
      vertex 29.6406 13.746 2
    endloop
  endfacet
  facet normal -0.617718 -0.7864 0
    outer loop
      vertex 30.0451 13.4282 2
      vertex 30.0451 13.4282 4
      vertex 29.6406 13.746 4
    endloop
  endfacet
  facet normal -0.516971 -0.856003 0
    outer loop
      vertex 30.5374 13.1309 2
      vertex 30.0451 13.4282 4
      vertex 30.0451 13.4282 2
    endloop
  endfacet
  facet normal -0.516971 -0.856003 0
    outer loop
      vertex 30.5374 13.1309 2
      vertex 30.5374 13.1309 4
      vertex 30.0451 13.4282 4
    endloop
  endfacet
  facet normal -0.43075 -0.902471 0
    outer loop
      vertex 31.1176 12.854 2
      vertex 30.5374 13.1309 4
      vertex 30.5374 13.1309 2
    endloop
  endfacet
  facet normal -0.43075 -0.902471 0
    outer loop
      vertex 31.1176 12.854 2
      vertex 31.1176 12.854 4
      vertex 30.5374 13.1309 4
    endloop
  endfacet
  facet normal -0.347102 -0.937828 0
    outer loop
      vertex 31.8383 12.5872 2
      vertex 31.1176 12.854 4
      vertex 31.1176 12.854 2
    endloop
  endfacet
  facet normal -0.347102 -0.937828 0
    outer loop
      vertex 31.8383 12.5872 2
      vertex 31.8383 12.5872 4
      vertex 31.1176 12.854 4
    endloop
  endfacet
  facet normal -0.280306 -0.959911 0
    outer loop
      vertex 32.7527 12.3202 2
      vertex 31.8383 12.5872 4
      vertex 31.8383 12.5872 2
    endloop
  endfacet
  facet normal -0.280306 -0.959911 0
    outer loop
      vertex 32.7527 12.3202 2
      vertex 32.7527 12.3202 4
      vertex 31.8383 12.5872 4
    endloop
  endfacet
  facet normal -0.234478 -0.972121 0
    outer loop
      vertex 33.8606 12.053 2
      vertex 32.7527 12.3202 4
      vertex 32.7527 12.3202 2
    endloop
  endfacet
  facet normal -0.234478 -0.972121 0
    outer loop
      vertex 33.8606 12.053 2
      vertex 33.8606 12.053 4
      vertex 32.7527 12.3202 4
    endloop
  endfacet
  facet normal -0.22411 -0.974564 0
    outer loop
      vertex 34.5327 11.8984 2
      vertex 33.8606 12.053 4
      vertex 33.8606 12.053 2
    endloop
  endfacet
  facet normal -0.22411 -0.974564 0
    outer loop
      vertex 34.5327 11.8984 2
      vertex 34.5327 11.8984 4
      vertex 33.8606 12.053 4
    endloop
  endfacet
  facet normal -0.227876 -0.97369 0
    outer loop
      vertex 35.1637 11.7508 2
      vertex 34.5327 11.8984 4
      vertex 34.5327 11.8984 2
    endloop
  endfacet
  facet normal -0.227876 -0.97369 0
    outer loop
      vertex 35.1637 11.7508 2
      vertex 35.1637 11.7508 4
      vertex 34.5327 11.8984 4
    endloop
  endfacet
  facet normal -0.232132 -0.972684 0
    outer loop
      vertex 35.7536 11.61 2
      vertex 35.1637 11.7508 4
      vertex 35.1637 11.7508 2
    endloop
  endfacet
  facet normal -0.232132 -0.972684 0
    outer loop
      vertex 35.7536 11.61 2
      vertex 35.7536 11.61 4
      vertex 35.1637 11.7508 4
    endloop
  endfacet
  facet normal -0.262028 -0.96506 0
    outer loop
      vertex 36.297 11.4624 2
      vertex 35.7536 11.61 4
      vertex 35.7536 11.61 2
    endloop
  endfacet
  facet normal -0.262028 -0.96506 0
    outer loop
      vertex 36.297 11.4624 2
      vertex 36.297 11.4624 4
      vertex 35.7536 11.61 4
    endloop
  endfacet
  facet normal -0.32641 -0.945228 0
    outer loop
      vertex 36.7873 11.2931 2
      vertex 36.297 11.4624 4
      vertex 36.297 11.4624 2
    endloop
  endfacet
  facet normal -0.32641 -0.945228 0
    outer loop
      vertex 36.7873 11.2931 2
      vertex 36.7873 11.2931 4
      vertex 36.297 11.4624 4
    endloop
  endfacet
  facet normal -0.40052 -0.916288 0
    outer loop
      vertex 37.2246 11.102 2
      vertex 36.7873 11.2931 4
      vertex 36.7873 11.2931 2
    endloop
  endfacet
  facet normal -0.40052 -0.916288 0
    outer loop
      vertex 37.2246 11.102 2
      vertex 37.2246 11.102 4
      vertex 36.7873 11.2931 4
    endloop
  endfacet
  facet normal -0.500386 -0.865802 0
    outer loop
      vertex 37.6052 10.882 2
      vertex 37.2246 11.102 4
      vertex 37.2246 11.102 2
    endloop
  endfacet
  facet normal -0.500386 -0.865802 0
    outer loop
      vertex 37.6052 10.882 2
      vertex 37.6052 10.882 4
      vertex 37.2246 11.102 4
    endloop
  endfacet
  facet normal -0.625481 -0.780239 0
    outer loop
      vertex 37.9246 10.626 2
      vertex 37.6052 10.882 4
      vertex 37.6052 10.882 2
    endloop
  endfacet
  facet normal -0.625481 -0.780239 0
    outer loop
      vertex 37.9246 10.626 2
      vertex 37.9246 10.626 4
      vertex 37.6052 10.882 4
    endloop
  endfacet
  facet normal -0.749385 -0.662134 0
    outer loop
      vertex 38.1826 10.334 2
      vertex 37.9246 10.626 4
      vertex 37.9246 10.626 2
    endloop
  endfacet
  facet normal -0.749385 -0.662134 0
    outer loop
      vertex 38.1826 10.334 2
      vertex 38.1826 10.334 4
      vertex 37.9246 10.626 4
    endloop
  endfacet
  facet normal -0.874288 -0.485407 0
    outer loop
      vertex 38.372 9.99277 2
      vertex 38.1826 10.334 4
      vertex 38.1826 10.334 2
    endloop
  endfacet
  facet normal -0.874288 -0.485407 0
    outer loop
      vertex 38.372 9.99277 2
      vertex 38.372 9.99277 4
      vertex 38.1826 10.334 4
    endloop
  endfacet
  facet normal -0.96257 -0.271033 0
    outer loop
      vertex 38.4857 9.5891 2
      vertex 38.372 9.99277 4
      vertex 38.372 9.99277 2
    endloop
  endfacet
  facet normal -0.96257 -0.271033 0
    outer loop
      vertex 38.4857 9.5891 2
      vertex 38.4857 9.5891 4
      vertex 38.372 9.99277 4
    endloop
  endfacet
  facet normal -0.996713 -0.0810174 0
    outer loop
      vertex 38.5236 9.12299 2
      vertex 38.4857 9.5891 4
      vertex 38.4857 9.5891 2
    endloop
  endfacet
  facet normal -0.996713 -0.0810174 0
    outer loop
      vertex 38.5236 9.12299 2
      vertex 38.5236 9.12299 4
      vertex 38.4857 9.5891 4
    endloop
  endfacet
  facet normal -0.989171 0.146764 0
    outer loop
      vertex 38.4028 8.30899 2
      vertex 38.5236 9.12299 4
      vertex 38.5236 9.12299 2
    endloop
  endfacet
  facet normal -0.989171 0.146764 0
    outer loop
      vertex 38.4028 8.30899 2
      vertex 38.4028 8.30899 4
      vertex 38.5236 9.12299 4
    endloop
  endfacet
  facet normal -0.880004 0.474966 0
    outer loop
      vertex 38.0405 7.63766 2
      vertex 38.4028 8.30899 4
      vertex 38.4028 8.30899 2
    endloop
  endfacet
  facet normal -0.880004 0.474966 0
    outer loop
      vertex 38.0405 7.63766 2
      vertex 38.0405 7.63766 4
      vertex 38.4028 8.30899 4
    endloop
  endfacet
  facet normal -0.658689 0.752415 0
    outer loop
      vertex 37.4366 7.10899 2
      vertex 38.0405 7.63766 4
      vertex 38.0405 7.63766 2
    endloop
  endfacet
  facet normal -0.658689 0.752415 0
    outer loop
      vertex 37.4366 7.10899 2
      vertex 37.4366 7.10899 4
      vertex 38.0405 7.63766 4
    endloop
  endfacet
  facet normal -0.418583 0.908178 0
    outer loop
      vertex 36.6109 6.72844 2
      vertex 37.4366 7.10899 4
      vertex 37.4366 7.10899 2
    endloop
  endfacet
  facet normal -0.418583 0.908178 0
    outer loop
      vertex 36.6109 6.72844 2
      vertex 36.6109 6.72844 4
      vertex 37.4366 7.10899 4
    endloop
  endfacet
  facet normal -0.21663 0.976254 0
    outer loop
      vertex 35.5819 6.50011 2
      vertex 36.6109 6.72844 4
      vertex 36.6109 6.72844 2
    endloop
  endfacet
  facet normal -0.21663 0.976254 0
    outer loop
      vertex 35.5819 6.50011 2
      vertex 35.5819 6.50011 4
      vertex 36.6109 6.72844 4
    endloop
  endfacet
  facet normal -0.0616443 0.998098 0
    outer loop
      vertex 34.3496 6.424 2
      vertex 35.5819 6.50011 4
      vertex 35.5819 6.50011 2
    endloop
  endfacet
  facet normal -0.0616443 0.998098 0
    outer loop
      vertex 34.3496 6.424 2
      vertex 34.3496 6.424 4
      vertex 35.5819 6.50011 4
    endloop
  endfacet
  facet normal 0.0596186 0.998221 0
    outer loop
      vertex 33.1496 6.49567 2
      vertex 34.3496 6.424 4
      vertex 34.3496 6.424 2
    endloop
  endfacet
  facet normal 0.0596186 0.998221 -0
    outer loop
      vertex 33.1496 6.49567 2
      vertex 33.1496 6.49567 4
      vertex 34.3496 6.424 4
    endloop
  endfacet
  facet normal 0.206251 0.978499 0
    outer loop
      vertex 32.1296 6.71066 2
      vertex 33.1496 6.49567 4
      vertex 33.1496 6.49567 2
    endloop
  endfacet
  facet normal 0.206251 0.978499 -0
    outer loop
      vertex 32.1296 6.71066 2
      vertex 32.1296 6.71066 4
      vertex 33.1496 6.49567 4
    endloop
  endfacet
  facet normal 0.392368 0.919808 0
    outer loop
      vertex 31.2896 7.06898 2
      vertex 32.1296 6.71066 4
      vertex 32.1296 6.71066 2
    endloop
  endfacet
  facet normal 0.392368 0.919808 -0
    outer loop
      vertex 31.2896 7.06898 2
      vertex 31.2896 7.06898 4
      vertex 32.1296 6.71066 4
    endloop
  endfacet
  facet normal 0.61077 0.791808 0
    outer loop
      vertex 30.6267 7.58032 2
      vertex 31.2896 7.06898 4
      vertex 31.2896 7.06898 2
    endloop
  endfacet
  facet normal 0.61077 0.791808 -0
    outer loop
      vertex 30.6267 7.58032 2
      vertex 30.6267 7.58032 4
      vertex 31.2896 7.06898 4
    endloop
  endfacet
  facet normal 0.808844 0.588024 0
    outer loop
      vertex 30.1367 8.25432 2
      vertex 30.6267 7.58032 4
      vertex 30.6267 7.58032 2
    endloop
  endfacet
  facet normal 0.808844 0.588024 -0
    outer loop
      vertex 30.1367 8.25432 2
      vertex 30.1367 8.25432 4
      vertex 30.6267 7.58032 4
    endloop
  endfacet
  facet normal 0.93509 0.354411 0
    outer loop
      vertex 29.8196 9.09099 2
      vertex 30.1367 8.25432 4
      vertex 30.1367 8.25432 2
    endloop
  endfacet
  facet normal 0.93509 0.354411 -0
    outer loop
      vertex 29.8196 9.09099 2
      vertex 29.8196 9.09099 4
      vertex 30.1367 8.25432 4
    endloop
  endfacet
  facet normal -0.195928 0.980618 0
    outer loop
      vertex 27.8126 8.68999 2
      vertex 29.8196 9.09099 4
      vertex 29.8196 9.09099 2
    endloop
  endfacet
  facet normal -0.195928 0.980618 0
    outer loop
      vertex 27.8126 8.68999 2
      vertex 27.8126 8.68999 4
      vertex 29.8196 9.09099 4
    endloop
  endfacet
  facet normal -0.88879 -0.458314 0
    outer loop
      vertex 28.9247 6.53333 2
      vertex 27.8126 8.68999 4
      vertex 27.8126 8.68999 2
    endloop
  endfacet
  facet normal -0.88879 -0.458314 0
    outer loop
      vertex 28.9247 6.53333 2
      vertex 28.9247 6.53333 4
      vertex 27.8126 8.68999 4
    endloop
  endfacet
  facet normal -0.515023 -0.857176 0
    outer loop
      vertex 31.0783 5.23932 2
      vertex 28.9247 6.53333 4
      vertex 28.9247 6.53333 2
    endloop
  endfacet
  facet normal -0.515023 -0.857176 0
    outer loop
      vertex 31.0783 5.23932 2
      vertex 31.0783 5.23932 4
      vertex 28.9247 6.53333 4
    endloop
  endfacet
  facet normal -0.133771 -0.991012 0
    outer loop
      vertex 34.2736 4.80801 2
      vertex 31.0783 5.23932 4
      vertex 31.0783 5.23932 2
    endloop
  endfacet
  facet normal -0.133771 -0.991012 0
    outer loop
      vertex 34.2736 4.80801 2
      vertex 34.2736 4.80801 4
      vertex 31.0783 5.23932 4
    endloop
  endfacet
  facet normal 0.0693635 -0.997591 0
    outer loop
      vertex 36.1225 4.93657 2
      vertex 34.2736 4.80801 4
      vertex 34.2736 4.80801 2
    endloop
  endfacet
  facet normal 0.0693635 -0.997591 0
    outer loop
      vertex 36.1225 4.93657 2
      vertex 36.1225 4.93657 4
      vertex 34.2736 4.80801 4
    endloop
  endfacet
  facet normal 0 -1 0
    outer loop
      vertex 16.368 10.979 2
      vertex 11.889 10.979 4
      vertex 11.889 10.979 2
    endloop
  endfacet
  facet normal 0 -1 0
    outer loop
      vertex 16.368 10.979 2
      vertex 16.368 10.979 4
      vertex 11.889 10.979 4
    endloop
  endfacet
  facet normal 0.0940583 -0.995567 0
    outer loop
      vertex 17.871 11.121 2
      vertex 16.368 10.979 4
      vertex 16.368 10.979 2
    endloop
  endfacet
  facet normal 0.0940583 -0.995567 0
    outer loop
      vertex 17.871 11.121 2
      vertex 17.871 11.121 4
      vertex 16.368 10.979 4
    endloop
  endfacet
  facet normal 0.31616 -0.948706 0
    outer loop
      vertex 19.1493 11.547 2
      vertex 17.871 11.121 4
      vertex 17.871 11.121 2
    endloop
  endfacet
  facet normal 0.31616 -0.948706 0
    outer loop
      vertex 19.1493 11.547 2
      vertex 19.1493 11.547 4
      vertex 17.871 11.121 4
    endloop
  endfacet
  facet normal 0.558806 -0.829298 0
    outer loop
      vertex 20.203 12.257 2
      vertex 19.1493 11.547 4
      vertex 19.1493 11.547 2
    endloop
  endfacet
  facet normal 0.558806 -0.829298 0
    outer loop
      vertex 20.203 12.257 2
      vertex 20.203 12.257 4
      vertex 19.1493 11.547 4
    endloop
  endfacet
  facet normal 0.771533 -0.636189 0
    outer loop
      vertex 20.9874 13.2083 2
      vertex 20.203 12.257 4
      vertex 20.203 12.257 2
    endloop
  endfacet
  facet normal 0.771533 -0.636189 0
    outer loop
      vertex 20.9874 13.2083 2
      vertex 20.9874 13.2083 4
      vertex 20.203 12.257 4
    endloop
  endfacet
  facet normal 0.925336 -0.379149 0
    outer loop
      vertex 21.4581 14.357 2
      vertex 20.9874 13.2083 4
      vertex 20.9874 13.2083 2
    endloop
  endfacet
  facet normal 0.925336 -0.379149 0
    outer loop
      vertex 21.4581 14.357 2
      vertex 21.4581 14.357 4
      vertex 20.9874 13.2083 4
    endloop
  endfacet
  facet normal 0.993275 -0.115778 0
    outer loop
      vertex 21.615 15.703 2
      vertex 21.4581 14.357 4
      vertex 21.4581 14.357 2
    endloop
  endfacet
  facet normal 0.993275 -0.115778 0
    outer loop
      vertex 21.615 15.703 2
      vertex 21.615 15.703 4
      vertex 21.4581 14.357 4
    endloop
  endfacet
  facet normal 0.993354 0.115103 0
    outer loop
      vertex 21.4587 17.0521 2
      vertex 21.615 15.703 4
      vertex 21.615 15.703 2
    endloop
  endfacet
  facet normal 0.993354 0.115103 -0
    outer loop
      vertex 21.4587 17.0521 2
      vertex 21.4587 17.0521 4
      vertex 21.615 15.703 4
    endloop
  endfacet
  facet normal 0.923604 0.383348 0
    outer loop
      vertex 20.9897 18.1821 2
      vertex 21.4587 17.0521 4
      vertex 21.4587 17.0521 2
    endloop
  endfacet
  facet normal 0.923604 0.383348 -0
    outer loop
      vertex 20.9897 18.1821 2
      vertex 20.9897 18.1821 4
      vertex 21.4587 17.0521 4
    endloop
  endfacet
  facet normal 0.758886 0.651224 0
    outer loop
      vertex 20.208 19.093 2
      vertex 20.9897 18.1821 4
      vertex 20.9897 18.1821 2
    endloop
  endfacet
  facet normal 0.758886 0.651224 -0
    outer loop
      vertex 20.208 19.093 2
      vertex 20.208 19.093 4
      vertex 20.9897 18.1821 4
    endloop
  endfacet
  facet normal 0.530952 0.847402 0
    outer loop
      vertex 19.1413 19.7613 2
      vertex 20.208 19.093 4
      vertex 20.208 19.093 2
    endloop
  endfacet
  facet normal 0.530952 0.847402 -0
    outer loop
      vertex 19.1413 19.7613 2
      vertex 19.1413 19.7613 4
      vertex 20.208 19.093 4
    endloop
  endfacet
  facet normal 0.289867 0.957067 0
    outer loop
      vertex 17.8173 20.1623 2
      vertex 19.1413 19.7613 4
      vertex 19.1413 19.7613 2
    endloop
  endfacet
  facet normal 0.289867 0.957067 -0
    outer loop
      vertex 17.8173 20.1623 2
      vertex 17.8173 20.1623 4
      vertex 19.1413 19.7613 4
    endloop
  endfacet
  facet normal 0.0842279 0.996447 0
    outer loop
      vertex 16.236 20.296 2
      vertex 17.8173 20.1623 4
      vertex 17.8173 20.1623 2
    endloop
  endfacet
  facet normal 0.0842279 0.996447 -0
    outer loop
      vertex 16.236 20.296 2
      vertex 16.236 20.296 4
      vertex 17.8173 20.1623 4
    endloop
  endfacet
  facet normal 0 1 0
    outer loop
      vertex 9.81799 20.296 2
      vertex 16.236 20.296 4
      vertex 16.236 20.296 2
    endloop
  endfacet
  facet normal 0 1 0
    outer loop
      vertex 9.81799 20.296 2
      vertex 9.81799 20.296 4
      vertex 16.236 20.296 4
    endloop
  endfacet
  facet normal -1 0 0
    outer loop
      vertex 9.81799 5 2
      vertex 9.81799 20.296 4
      vertex 9.81799 20.296 2
    endloop
  endfacet
  facet normal -1 0 0
    outer loop
      vertex 9.81799 5 2
      vertex 9.81799 5 4
      vertex 9.81799 20.296 4
    endloop
  endfacet
  facet normal 0 -1 0
    outer loop
      vertex 11.889 5 2
      vertex 9.81799 5 4
      vertex 9.81799 5 2
    endloop
  endfacet
  facet normal 0 -1 0
    outer loop
      vertex 11.889 5 2
      vertex 11.889 5 4
      vertex 9.81799 5 4
    endloop
  endfacet
  facet normal 1 0 0
    outer loop
      vertex 11.889 10.979 2
      vertex 11.889 5 4
      vertex 11.889 5 2
    endloop
  endfacet
  facet normal 1 0 -0
    outer loop
      vertex 11.889 10.979 2
      vertex 11.889 10.979 4
      vertex 11.889 5 4
    endloop
  endfacet
  facet normal 1 0 -0
    outer loop
      vertex 11.889 18.637 2
      vertex 11.889 18.637 4
      vertex 11.889 12.616 2
    endloop
  endfacet
  facet normal 1 -0 0
    outer loop
      vertex 11.889 12.616 4
      vertex 11.889 12.616 2
      vertex 11.889 18.637 4
    endloop
  endfacet
  facet normal 0 -1 0
    outer loop
      vertex 15.987 18.637 2
      vertex 15.987 18.637 4
      vertex 11.889 18.637 2
    endloop
  endfacet
  facet normal 0 -1 0
    outer loop
      vertex 11.889 18.637 4
      vertex 11.889 18.637 2
      vertex 15.987 18.637 4
    endloop
  endfacet
  facet normal -0.164455 -0.986385 0
    outer loop
      vertex 17.957 18.3085 2
      vertex 17.957 18.3085 4
      vertex 15.987 18.637 2
    endloop
  endfacet
  facet normal -0.164455 -0.986385 -0
    outer loop
      vertex 15.987 18.637 4
      vertex 15.987 18.637 2
      vertex 17.957 18.3085 4
    endloop
  endfacet
  facet normal -0.640311 -0.768116 0
    outer loop
      vertex 19.139 17.3232 2
      vertex 19.139 17.3232 4
      vertex 17.957 18.3085 2
    endloop
  endfacet
  facet normal -0.640311 -0.768116 -0
    outer loop
      vertex 17.957 18.3085 4
      vertex 17.957 18.3085 2
      vertex 19.139 17.3232 4
    endloop
  endfacet
  facet normal -0.972405 -0.233298 0
    outer loop
      vertex 19.533 15.681 2
      vertex 19.533 15.681 4
      vertex 19.139 17.3232 2
    endloop
  endfacet
  facet normal -0.972405 -0.233298 -0
    outer loop
      vertex 19.139 17.3232 4
      vertex 19.139 17.3232 2
      vertex 19.533 15.681 4
    endloop
  endfacet
  facet normal -0.975448 0.220231 0
    outer loop
      vertex 19.1485 13.9782 2
      vertex 19.1485 13.9782 4
      vertex 19.533 15.681 2
    endloop
  endfacet
  facet normal -0.975448 0.220231 0
    outer loop
      vertex 19.533 15.681 4
      vertex 19.533 15.681 2
      vertex 19.1485 13.9782 4
    endloop
  endfacet
  facet normal -0.663087 0.748543 0
    outer loop
      vertex 17.9952 12.9565 2
      vertex 17.9952 12.9565 4
      vertex 19.1485 13.9782 2
    endloop
  endfacet
  facet normal -0.663087 0.748543 0
    outer loop
      vertex 19.1485 13.9782 4
      vertex 19.1485 13.9782 2
      vertex 17.9952 12.9565 4
    endloop
  endfacet
  facet normal -0.174447 0.984667 0
    outer loop
      vertex 16.073 12.616 2
      vertex 16.073 12.616 4
      vertex 17.9952 12.9565 2
    endloop
  endfacet
  facet normal -0.174447 0.984667 0
    outer loop
      vertex 17.9952 12.9565 4
      vertex 17.9952 12.9565 2
      vertex 16.073 12.616 4
    endloop
  endfacet
  facet normal 0 1 0
    outer loop
      vertex 11.889 12.616 2
      vertex 11.889 12.616 4
      vertex 16.073 12.616 2
    endloop
  endfacet
  facet normal 0 1 0
    outer loop
      vertex 16.073 12.616 4
      vertex 16.073 12.616 2
      vertex 11.889 12.616 4
    endloop
  endfacet
endsolid OpenSCAD_Model
