solid OpenSCAD_Model
  facet normal 0 0 -1
    outer loop
      vertex 21.615 15.703 2
      vertex 21.4581 14.357 2
      vertex 19.533 15.681 2
    endloop
  endfacet
  facet normal 0 0 -1
    outer loop
      vertex 37.6353 16.5758 2
      vertex 37.3286 17.986 2
      vertex 38.3146 20.296 2
    endloop
  endfacet
  facet normal 0 -0 -1
    outer loop
      vertex 11.889 12.616 2
      vertex 11.889 10.979 2
      vertex 9.81799 5 2
    endloop
  endfacet
  facet normal -0 0 -1
    outer loop
      vertex 21.4581 14.357 2
      vertex 19.1485 13.9782 2
      vertex 19.533 15.681 2
    endloop
  endfacet
  facet normal -0 0 -1
    outer loop
      vertex 21.4587 17.0521 2
      vertex 19.533 15.681 2
      vertex 19.139 17.3232 2
    endloop
  endfacet
  facet normal 0 0 -1
    outer loop
      vertex 19.1485 13.9782 2
      vertex 20.9874 13.2083 2
      vertex 20.203 12.257 2
    endloop
  endfacet
  facet normal 0 0 -1
    outer loop
      vertex 35.4452 10.6679 2
      vertex 33.8846 5 2
      vertex 33.0976 8.51044 2
    endloop
  endfacet
  facet normal -0 0 -1
    outer loop
      vertex 20.208 19.093 2
      vertex 17.957 18.3085 2
      vertex 19.1413 19.7613 2
    endloop
  endfacet
  facet normal -0 0 -1
    outer loop
      vertex 35.4452 10.6679 2
      vertex 33.3166 9.42699 2
      vertex 33.8035 11.2622 2
    endloop
  endfacet
  facet normal -0 0 -1
    outer loop
      vertex 19.1413 19.7613 2
      vertex 17.957 18.3085 2
      vertex 17.8173 20.1623 2
    endloop
  endfacet
  facet normal 0 -0 -1
    outer loop
      vertex 32.1291 9.35088 2
      vertex 32.4298 8.09854 2
      vertex 31.4126 5 2
    endloop
  endfacet
  facet normal 0 0 -1
    outer loop
      vertex 20.208 19.093 2
      vertex 19.139 17.3232 2
      vertex 17.957 18.3085 2
    endloop
  endfacet
  facet normal 0 0 -1
    outer loop
      vertex 15.987 18.637 2
      vertex 17.8173 20.1623 2
      vertex 17.957 18.3085 2
    endloop
  endfacet
  facet normal 0 0 -1
    outer loop
      vertex 33.8035 11.2622 2
      vertex 34.8081 14.8852 2
      vertex 36.4339 14.2942 2
    endloop
  endfacet
  facet normal 0 0 -1
    outer loop
      vertex 19.139 17.3232 2
      vertex 20.9897 18.1821 2
      vertex 21.4587 17.0521 2
    endloop
  endfacet
  facet normal 0 0 -1
    outer loop
      vertex 37.1501 17.1919 2
      vertex 36.8506 15.879 2
      vertex 34.8081 14.8852 2
    endloop
  endfacet
  facet normal 0 0 -1
    outer loop
      vertex 19.1493 11.547 2
      vertex 17.9952 12.9565 2
      vertex 20.203 12.257 2
    endloop
  endfacet
  facet normal 0 -0 -1
    outer loop
      vertex 36.3306 20.296 2
      vertex 37.1501 17.1919 2
      vertex 34.8081 14.8852 2
    endloop
  endfacet
  facet normal 0 -0 -1
    outer loop
      vertex 16.236 20.296 2
      vertex 17.8173 20.1623 2
      vertex 15.987 18.637 2
    endloop
  endfacet
  facet normal 0 0 -1
    outer loop
      vertex 36.3306 20.296 2
      vertex 38.3146 20.296 2
      vertex 37.3286 17.986 2
    endloop
  endfacet
  facet normal 0 0 -1
    outer loop
      vertex 9.81799 20.296 2
      vertex 16.236 20.296 2
      vertex 11.889 18.637 2
    endloop
  endfacet
  facet normal 0 0 -1
    outer loop
      vertex 9.81799 5 2
      vertex 9.81799 20.296 2
      vertex 11.889 12.616 2
    endloop
  endfacet
  facet normal 0 0 -1
    outer loop
      vertex 11.889 5 2
      vertex 9.81799 5 2
      vertex 11.889 10.979 2
    endloop
  endfacet
  facet normal 0 0 -1
    outer loop
      vertex 11.889 10.979 2
      vertex 16.073 12.616 2
      vertex 16.368 10.979 2
    endloop
  endfacet
  facet normal 0 0 -1
    outer loop
      vertex 16.073 12.616 2
      vertex 17.871 11.121 2
      vertex 16.368 10.979 2
    endloop
  endfacet
  facet normal 0 0 -1
    outer loop
      vertex 11.889 10.979 2
      vertex 11.889 12.616 2
      vertex 16.073 12.616 2
    endloop
  endfacet
  facet normal 0 0 -1
    outer loop
      vertex 11.889 18.637 2
      vertex 16.236 20.296 2
      vertex 15.987 18.637 2
    endloop
  endfacet
  facet normal 0 0 -1
    outer loop
      vertex 9.81799 20.296 2
      vertex 11.889 18.637 2
      vertex 11.889 12.616 2
    endloop
  endfacet
  facet normal 0 0 -1
    outer loop
      vertex 20.203 12.257 2
      vertex 17.9952 12.9565 2
      vertex 19.1485 13.9782 2
    endloop
  endfacet
  facet normal 0 -0 -1
    outer loop
      vertex 20.208 19.093 2
      vertex 20.9897 18.1821 2
      vertex 19.139 17.3232 2
    endloop
  endfacet
  facet normal 0 -0 -1
    outer loop
      vertex 21.4587 17.0521 2
      vertex 21.615 15.703 2
      vertex 19.533 15.681 2
    endloop
  endfacet
  facet normal 0 0 -1
    outer loop
      vertex 21.4581 14.357 2
      vertex 20.9874 13.2083 2
      vertex 19.1485 13.9782 2
    endloop
  endfacet
  facet normal -0 0 -1
    outer loop
      vertex 19.1493 11.547 2
      vertex 17.871 11.121 2
      vertex 17.9952 12.9565 2
    endloop
  endfacet
  facet normal 0 0 -1
    outer loop
      vertex 17.9952 12.9565 2
      vertex 17.871 11.121 2
      vertex 16.073 12.616 2
    endloop
  endfacet
  facet normal 0 -0 -1
    outer loop
      vertex 32.8966 7.64211 2
      vertex 33.8846 5 2
      vertex 32.7136 6.82199 2
    endloop
  endfacet
  facet normal 0 0 -1
    outer loop
      vertex 36.3306 20.296 2
      vertex 37.3286 17.986 2
      vertex 37.1501 17.1919 2
    endloop
  endfacet
  facet normal -0 -0 -1
    outer loop
      vertex 29.0616 20.296 2
      vertex 31.8116 10.579 2
      vertex 26.9036 20.296 2
    endloop
  endfacet
  facet normal 0 0 -1
    outer loop
      vertex 34.8081 14.8852 2
      vertex 36.8506 15.879 2
      vertex 36.4339 14.2942 2
    endloop
  endfacet
  facet normal 0 -0 -1
    outer loop
      vertex 45.5636 20.296 2
      vertex 47.7216 20.296 2
      vertex 43.9491 14.5024 2
    endloop
  endfacet
  facet normal 0 0 -1
    outer loop
      vertex 43.2136 5 2
      vertex 40.7416 5 2
      vertex 41.9336 6.82199 2
    endloop
  endfacet
  facet normal 0 -0 -1
    outer loop
      vertex 41.6727 7.98021 2
      vertex 41.9336 6.82199 2
      vertex 40.7416 5 2
    endloop
  endfacet
  facet normal 0 -0 -1
    outer loop
      vertex 43.9491 14.5024 2
      vertex 47.7216 20.296 2
      vertex 43.2136 5 2
    endloop
  endfacet
  facet normal 0 0 -1
    outer loop
      vertex 43.2136 5 2
      vertex 42.9311 10.8164 2
      vertex 43.9491 14.5024 2
    endloop
  endfacet
  facet normal 0 0 -1
    outer loop
      vertex 43.2136 5 2
      vertex 42.5096 9.23799 2
      vertex 42.9311 10.8164 2
    endloop
  endfacet
  facet normal 0 0 -1
    outer loop
      vertex 40.7416 5 2
      vertex 38.0896 14.718 2
      vertex 40.9776 10.774 2
    endloop
  endfacet
  facet normal 0 0 -1
    outer loop
      vertex 43.2136 5 2
      vertex 42.0316 7.202 2
      vertex 42.5096 9.23799 2
    endloop
  endfacet
  facet normal 0 0 -1
    outer loop
      vertex 40.7416 5 2
      vertex 41.354 9.29755 2
      vertex 41.6727 7.98021 2
    endloop
  endfacet
  facet normal 0 0 -1
    outer loop
      vertex 43.2136 5 2
      vertex 41.9336 6.82199 2
      vertex 42.0316 7.202 2
    endloop
  endfacet
  facet normal 0 0 -1
    outer loop
      vertex 40.7416 5 2
      vertex 40.9776 10.774 2
      vertex 41.354 9.29755 2
    endloop
  endfacet
  facet normal 0 0 -1
    outer loop
      vertex 38.0896 14.718 2
      vertex 37.889 15.4864 2
      vertex 40.9776 10.774 2
    endloop
  endfacet
  facet normal 0 0 -1
    outer loop
      vertex 37.889 15.4864 2
      vertex 38.3146 20.296 2
      vertex 40.9776 10.774 2
    endloop
  endfacet
  facet normal 0 0 -1
    outer loop
      vertex 37.6353 16.5758 2
      vertex 38.3146 20.296 2
      vertex 37.889 15.4864 2
    endloop
  endfacet
  facet normal 0 0 -1
    outer loop
      vertex 35.4452 10.6679 2
      vertex 33.8035 11.2622 2
      vertex 36.4339 14.2942 2
    endloop
  endfacet
  facet normal 0 0 -1
    outer loop
      vertex 33.0976 8.51044 2
      vertex 33.3166 9.42699 2
      vertex 35.4452 10.6679 2
    endloop
  endfacet
  facet normal 0 -0 -1
    outer loop
      vertex 33.0976 8.51044 2
      vertex 33.8846 5 2
      vertex 32.8966 7.64211 2
    endloop
  endfacet
  facet normal 0 0 -1
    outer loop
      vertex 33.8846 5 2
      vertex 31.4126 5 2
      vertex 32.7136 6.82199 2
    endloop
  endfacet
  facet normal 0 0 -1
    outer loop
      vertex 31.4126 5 2
      vertex 32.4298 8.09854 2
      vertex 32.7136 6.82199 2
    endloop
  endfacet
  facet normal -0 0 -1
    outer loop
      vertex 31.8116 10.579 2
      vertex 31.4126 5 2
      vertex 26.9036 20.296 2
    endloop
  endfacet
  facet normal -0 0 -1
    outer loop
      vertex 32.1291 9.35088 2
      vertex 31.4126 5 2
      vertex 31.8116 10.579 2
    endloop
  endfacet
  facet normal -0 0 1
    outer loop
      vertex 19.533 15.681 4
      vertex 21.4581 14.357 4
      vertex 21.615 15.703 4
    endloop
  endfacet
  facet normal 0 0 1
    outer loop
      vertex 38.3146 20.296 4
      vertex 37.3286 17.986 4
      vertex 37.6353 16.5758 4
    endloop
  endfacet
  facet normal 0 0 1
    outer loop
      vertex 9.81799 5 4
      vertex 11.889 10.979 4
      vertex 11.889 12.616 4
    endloop
  endfacet
  facet normal 0 0 1
    outer loop
      vertex 19.533 15.681 4
      vertex 19.1485 13.9782 4
      vertex 21.4581 14.357 4
    endloop
  endfacet
  facet normal 0 0 1
    outer loop
      vertex 19.139 17.3232 4
      vertex 19.533 15.681 4
      vertex 21.4587 17.0521 4
    endloop
  endfacet
  facet normal 0 -0 1
    outer loop
      vertex 20.203 12.257 4
      vertex 20.9874 13.2083 4
      vertex 19.1485 13.9782 4
    endloop
  endfacet
  facet normal -0 0 1
    outer loop
      vertex 33.0976 8.51044 4
      vertex 33.8846 5 4
      vertex 35.4452 10.6679 4
    endloop
  endfacet
  facet normal 0 0 1
    outer loop
      vertex 19.1413 19.7613 4
      vertex 17.957 18.3085 4
      vertex 20.208 19.093 4
    endloop
  endfacet
  facet normal 0 0 1
    outer loop
      vertex 33.8035 11.2622 4
      vertex 33.3166 9.42699 4
      vertex 35.4452 10.6679 4
    endloop
  endfacet
  facet normal 0 0 1
    outer loop
      vertex 17.8173 20.1623 4
      vertex 17.957 18.3085 4
      vertex 19.1413 19.7613 4
    endloop
  endfacet
  facet normal 0 0 1
    outer loop
      vertex 31.4126 5 4
      vertex 32.4298 8.09854 4
      vertex 32.1291 9.35088 4
    endloop
  endfacet
  facet normal -0 0 1
    outer loop
      vertex 17.957 18.3085 4
      vertex 19.139 17.3232 4
      vertex 20.208 19.093 4
    endloop
  endfacet
  facet normal 0 0 1
    outer loop
      vertex 17.957 18.3085 4
      vertex 17.8173 20.1623 4
      vertex 15.987 18.637 4
    endloop
  endfacet
  facet normal 0 0 1
    outer loop
      vertex 36.4339 14.2942 4
      vertex 34.8081 14.8852 4
      vertex 33.8035 11.2622 4
    endloop
  endfacet
  facet normal 0 0 1
    outer loop
      vertex 21.4587 17.0521 4
      vertex 20.9897 18.1821 4
      vertex 19.139 17.3232 4
    endloop
  endfacet
  facet normal 0 0 1
    outer loop
      vertex 34.8081 14.8852 4
      vertex 36.8506 15.879 4
      vertex 37.1501 17.1919 4
    endloop
  endfacet
  facet normal 0 0 1
    outer loop
      vertex 20.203 12.257 4
      vertex 17.9952 12.9565 4
      vertex 19.1493 11.547 4
    endloop
  endfacet
  facet normal 0 0 1
    outer loop
      vertex 34.8081 14.8852 4
      vertex 37.1501 17.1919 4
      vertex 36.3306 20.296 4
    endloop
  endfacet
  facet normal 0 0 1
    outer loop
      vertex 15.987 18.637 4
      vertex 17.8173 20.1623 4
      vertex 16.236 20.296 4
    endloop
  endfacet
  facet normal 0 -0 1
    outer loop
      vertex 37.3286 17.986 4
      vertex 38.3146 20.296 4
      vertex 36.3306 20.296 4
    endloop
  endfacet
  facet normal 0 -0 1
    outer loop
      vertex 11.889 18.637 4
      vertex 16.236 20.296 4
      vertex 9.81799 20.296 4
    endloop
  endfacet
  facet normal 0 0 1
    outer loop
      vertex 11.889 12.616 4
      vertex 9.81799 20.296 4
      vertex 9.81799 5 4
    endloop
  endfacet
  facet normal 0 0 1
    outer loop
      vertex 11.889 10.979 4
      vertex 9.81799 5 4
      vertex 11.889 5 4
    endloop
  endfacet
  facet normal 0 0 1
    outer loop
      vertex 16.368 10.979 4
      vertex 16.073 12.616 4
      vertex 11.889 10.979 4
    endloop
  endfacet
  facet normal 0 -0 1
    outer loop
      vertex 16.368 10.979 4
      vertex 17.871 11.121 4
      vertex 16.073 12.616 4
    endloop
  endfacet
  facet normal 0 0 1
    outer loop
      vertex 16.073 12.616 4
      vertex 11.889 12.616 4
      vertex 11.889 10.979 4
    endloop
  endfacet
  facet normal 0 -0 1
    outer loop
      vertex 15.987 18.637 4
      vertex 16.236 20.296 4
      vertex 11.889 18.637 4
    endloop
  endfacet
  facet normal 0 -0 1
    outer loop
      vertex 11.889 12.616 4
      vertex 11.889 18.637 4
      vertex 9.81799 20.296 4
    endloop
  endfacet
  facet normal 0 0 1
    outer loop
      vertex 19.1485 13.9782 4
      vertex 17.9952 12.9565 4
      vertex 20.203 12.257 4
    endloop
  endfacet
  facet normal 0 0 1
    outer loop
      vertex 19.139 17.3232 4
      vertex 20.9897 18.1821 4
      vertex 20.208 19.093 4
    endloop
  endfacet
  facet normal 0 0 1
    outer loop
      vertex 19.533 15.681 4
      vertex 21.615 15.703 4
      vertex 21.4587 17.0521 4
    endloop
  endfacet
  facet normal -0 0 1
    outer loop
      vertex 19.1485 13.9782 4
      vertex 20.9874 13.2083 4
      vertex 21.4581 14.357 4
    endloop
  endfacet
  facet normal 0 0 1
    outer loop
      vertex 17.9952 12.9565 4
      vertex 17.871 11.121 4
      vertex 19.1493 11.547 4
    endloop
  endfacet
  facet normal -0 0 1
    outer loop
      vertex 16.073 12.616 4
      vertex 17.871 11.121 4
      vertex 17.9952 12.9565 4
    endloop
  endfacet
  facet normal -0 0 1
    outer loop
      vertex 32.7136 6.82199 4
      vertex 33.8846 5 4
      vertex 32.8966 7.64211 4
    endloop
  endfacet
  facet normal 0 -0 1
    outer loop
      vertex 37.1501 17.1919 4
      vertex 37.3286 17.986 4
      vertex 36.3306 20.296 4
    endloop
  endfacet
  facet normal -0 0 1
    outer loop
      vertex 26.9036 20.296 4
      vertex 31.8116 10.579 4
      vertex 29.0616 20.296 4
    endloop
  endfacet
  facet normal 0 -0 1
    outer loop
      vertex 36.4339 14.2942 4
      vertex 36.8506 15.879 4
      vertex 34.8081 14.8852 4
    endloop
  endfacet
  facet normal 0 0 1
    outer loop
      vertex 43.9491 14.5024 4
      vertex 47.7216 20.296 4
      vertex 45.5636 20.296 4
    endloop
  endfacet
  facet normal 0 0 1
    outer loop
      vertex 41.9336 6.82199 4
      vertex 40.7416 5 4
      vertex 43.2136 5 4
    endloop
  endfacet
  facet normal 0 0 1
    outer loop
      vertex 40.7416 5 4
      vertex 41.9336 6.82199 4
      vertex 41.6727 7.98021 4
    endloop
  endfacet
  facet normal 0 0 1
    outer loop
      vertex 43.2136 5 4
      vertex 47.7216 20.296 4
      vertex 43.9491 14.5024 4
    endloop
  endfacet
  facet normal 0 0 1
    outer loop
      vertex 43.9491 14.5024 4
      vertex 42.9311 10.8164 4
      vertex 43.2136 5 4
    endloop
  endfacet
  facet normal 0 0 1
    outer loop
      vertex 42.9311 10.8164 4
      vertex 42.5096 9.23799 4
      vertex 43.2136 5 4
    endloop
  endfacet
  facet normal 0 0 1
    outer loop
      vertex 40.9776 10.774 4
      vertex 38.0896 14.718 4
      vertex 40.7416 5 4
    endloop
  endfacet
  facet normal 0 0 1
    outer loop
      vertex 42.5096 9.23799 4
      vertex 42.0316 7.202 4
      vertex 43.2136 5 4
    endloop
  endfacet
  facet normal 0 0 1
    outer loop
      vertex 41.6727 7.98021 4
      vertex 41.354 9.29755 4
      vertex 40.7416 5 4
    endloop
  endfacet
  facet normal 0 0 1
    outer loop
      vertex 42.0316 7.202 4
      vertex 41.9336 6.82199 4
      vertex 43.2136 5 4
    endloop
  endfacet
  facet normal 0 0 1
    outer loop
      vertex 41.354 9.29755 4
      vertex 40.9776 10.774 4
      vertex 40.7416 5 4
    endloop
  endfacet
  facet normal 0 0 1
    outer loop
      vertex 40.9776 10.774 4
      vertex 37.889 15.4864 4
      vertex 38.0896 14.718 4
    endloop
  endfacet
  facet normal 0 0 1
    outer loop
      vertex 40.9776 10.774 4
      vertex 38.3146 20.296 4
      vertex 37.889 15.4864 4
    endloop
  endfacet
  facet normal 0 -0 1
    outer loop
      vertex 37.889 15.4864 4
      vertex 38.3146 20.296 4
      vertex 37.6353 16.5758 4
    endloop
  endfacet
  facet normal 0 0 1
    outer loop
      vertex 36.4339 14.2942 4
      vertex 33.8035 11.2622 4
      vertex 35.4452 10.6679 4
    endloop
  endfacet
  facet normal 0 0 1
    outer loop
      vertex 35.4452 10.6679 4
      vertex 33.3166 9.42699 4
      vertex 33.0976 8.51044 4
    endloop
  endfacet
  facet normal -0 0 1
    outer loop
      vertex 32.8966 7.64211 4
      vertex 33.8846 5 4
      vertex 33.0976 8.51044 4
    endloop
  endfacet
  facet normal 0 0 1
    outer loop
      vertex 32.7136 6.82199 4
      vertex 31.4126 5 4
      vertex 33.8846 5 4
    endloop
  endfacet
  facet normal 0 0 1
    outer loop
      vertex 32.7136 6.82199 4
      vertex 32.4298 8.09854 4
      vertex 31.4126 5 4
    endloop
  endfacet
  facet normal 0 0 1
    outer loop
      vertex 26.9036 20.296 4
      vertex 31.4126 5 4
      vertex 31.8116 10.579 4
    endloop
  endfacet
  facet normal 0 0 1
    outer loop
      vertex 31.8116 10.579 4
      vertex 31.4126 5 4
      vertex 32.1291 9.35088 4
    endloop
  endfacet
  facet normal 0 -1 0
    outer loop
      vertex 16.368 10.979 2
      vertex 11.889 10.979 4
      vertex 11.889 10.979 2
    endloop
  endfacet
  facet normal 0 -1 0
    outer loop
      vertex 16.368 10.979 2
      vertex 16.368 10.979 4
      vertex 11.889 10.979 4
    endloop
  endfacet
  facet normal 0.0940583 -0.995567 0
    outer loop
      vertex 17.871 11.121 2
      vertex 16.368 10.979 4
      vertex 16.368 10.979 2
    endloop
  endfacet
  facet normal 0.0940583 -0.995567 0
    outer loop
      vertex 17.871 11.121 2
      vertex 17.871 11.121 4
      vertex 16.368 10.979 4
    endloop
  endfacet
  facet normal 0.31616 -0.948706 0
    outer loop
      vertex 19.1493 11.547 2
      vertex 17.871 11.121 4
      vertex 17.871 11.121 2
    endloop
  endfacet
  facet normal 0.31616 -0.948706 0
    outer loop
      vertex 19.1493 11.547 2
      vertex 19.1493 11.547 4
      vertex 17.871 11.121 4
    endloop
  endfacet
  facet normal 0.558806 -0.829298 0
    outer loop
      vertex 20.203 12.257 2
      vertex 19.1493 11.547 4
      vertex 19.1493 11.547 2
    endloop
  endfacet
  facet normal 0.558806 -0.829298 0
    outer loop
      vertex 20.203 12.257 2
      vertex 20.203 12.257 4
      vertex 19.1493 11.547 4
    endloop
  endfacet
  facet normal 0.771533 -0.636189 0
    outer loop
      vertex 20.9874 13.2083 2
      vertex 20.203 12.257 4
      vertex 20.203 12.257 2
    endloop
  endfacet
  facet normal 0.771533 -0.636189 0
    outer loop
      vertex 20.9874 13.2083 2
      vertex 20.9874 13.2083 4
      vertex 20.203 12.257 4
    endloop
  endfacet
  facet normal 0.925336 -0.379149 0
    outer loop
      vertex 21.4581 14.357 2
      vertex 20.9874 13.2083 4
      vertex 20.9874 13.2083 2
    endloop
  endfacet
  facet normal 0.925336 -0.379149 0
    outer loop
      vertex 21.4581 14.357 2
      vertex 21.4581 14.357 4
      vertex 20.9874 13.2083 4
    endloop
  endfacet
  facet normal 0.993275 -0.115778 0
    outer loop
      vertex 21.615 15.703 2
      vertex 21.4581 14.357 4
      vertex 21.4581 14.357 2
    endloop
  endfacet
  facet normal 0.993275 -0.115778 0
    outer loop
      vertex 21.615 15.703 2
      vertex 21.615 15.703 4
      vertex 21.4581 14.357 4
    endloop
  endfacet
  facet normal 0.993354 0.115103 0
    outer loop
      vertex 21.4587 17.0521 2
      vertex 21.615 15.703 4
      vertex 21.615 15.703 2
    endloop
  endfacet
  facet normal 0.993354 0.115103 -0
    outer loop
      vertex 21.4587 17.0521 2
      vertex 21.4587 17.0521 4
      vertex 21.615 15.703 4
    endloop
  endfacet
  facet normal 0.923604 0.383348 0
    outer loop
      vertex 20.9897 18.1821 2
      vertex 21.4587 17.0521 4
      vertex 21.4587 17.0521 2
    endloop
  endfacet
  facet normal 0.923604 0.383348 -0
    outer loop
      vertex 20.9897 18.1821 2
      vertex 20.9897 18.1821 4
      vertex 21.4587 17.0521 4
    endloop
  endfacet
  facet normal 0.758886 0.651224 0
    outer loop
      vertex 20.208 19.093 2
      vertex 20.9897 18.1821 4
      vertex 20.9897 18.1821 2
    endloop
  endfacet
  facet normal 0.758886 0.651224 -0
    outer loop
      vertex 20.208 19.093 2
      vertex 20.208 19.093 4
      vertex 20.9897 18.1821 4
    endloop
  endfacet
  facet normal 0.530952 0.847402 0
    outer loop
      vertex 19.1413 19.7613 2
      vertex 20.208 19.093 4
      vertex 20.208 19.093 2
    endloop
  endfacet
  facet normal 0.530952 0.847402 -0
    outer loop
      vertex 19.1413 19.7613 2
      vertex 19.1413 19.7613 4
      vertex 20.208 19.093 4
    endloop
  endfacet
  facet normal 0.289867 0.957067 0
    outer loop
      vertex 17.8173 20.1623 2
      vertex 19.1413 19.7613 4
      vertex 19.1413 19.7613 2
    endloop
  endfacet
  facet normal 0.289867 0.957067 -0
    outer loop
      vertex 17.8173 20.1623 2
      vertex 17.8173 20.1623 4
      vertex 19.1413 19.7613 4
    endloop
  endfacet
  facet normal 0.0842279 0.996447 0
    outer loop
      vertex 16.236 20.296 2
      vertex 17.8173 20.1623 4
      vertex 17.8173 20.1623 2
    endloop
  endfacet
  facet normal 0.0842279 0.996447 -0
    outer loop
      vertex 16.236 20.296 2
      vertex 16.236 20.296 4
      vertex 17.8173 20.1623 4
    endloop
  endfacet
  facet normal 0 1 0
    outer loop
      vertex 9.81799 20.296 2
      vertex 16.236 20.296 4
      vertex 16.236 20.296 2
    endloop
  endfacet
  facet normal 0 1 0
    outer loop
      vertex 9.81799 20.296 2
      vertex 9.81799 20.296 4
      vertex 16.236 20.296 4
    endloop
  endfacet
  facet normal -1 0 0
    outer loop
      vertex 9.81799 5 2
      vertex 9.81799 20.296 4
      vertex 9.81799 20.296 2
    endloop
  endfacet
  facet normal -1 0 0
    outer loop
      vertex 9.81799 5 2
      vertex 9.81799 5 4
      vertex 9.81799 20.296 4
    endloop
  endfacet
  facet normal 0 -1 0
    outer loop
      vertex 11.889 5 2
      vertex 9.81799 5 4
      vertex 9.81799 5 2
    endloop
  endfacet
  facet normal 0 -1 0
    outer loop
      vertex 11.889 5 2
      vertex 11.889 5 4
      vertex 9.81799 5 4
    endloop
  endfacet
  facet normal 1 0 0
    outer loop
      vertex 11.889 10.979 2
      vertex 11.889 5 4
      vertex 11.889 5 2
    endloop
  endfacet
  facet normal 1 0 -0
    outer loop
      vertex 11.889 10.979 2
      vertex 11.889 10.979 4
      vertex 11.889 5 4
    endloop
  endfacet
  facet normal 1 0 -0
    outer loop
      vertex 11.889 18.637 2
      vertex 11.889 18.637 4
      vertex 11.889 12.616 2
    endloop
  endfacet
  facet normal 1 -0 0
    outer loop
      vertex 11.889 12.616 4
      vertex 11.889 12.616 2
      vertex 11.889 18.637 4
    endloop
  endfacet
  facet normal 0 -1 0
    outer loop
      vertex 15.987 18.637 2
      vertex 15.987 18.637 4
      vertex 11.889 18.637 2
    endloop
  endfacet
  facet normal 0 -1 0
    outer loop
      vertex 11.889 18.637 4
      vertex 11.889 18.637 2
      vertex 15.987 18.637 4
    endloop
  endfacet
  facet normal -0.164455 -0.986385 0
    outer loop
      vertex 17.957 18.3085 2
      vertex 17.957 18.3085 4
      vertex 15.987 18.637 2
    endloop
  endfacet
  facet normal -0.164455 -0.986385 -0
    outer loop
      vertex 15.987 18.637 4
      vertex 15.987 18.637 2
      vertex 17.957 18.3085 4
    endloop
  endfacet
  facet normal -0.640311 -0.768116 0
    outer loop
      vertex 19.139 17.3232 2
      vertex 19.139 17.3232 4
      vertex 17.957 18.3085 2
    endloop
  endfacet
  facet normal -0.640311 -0.768116 -0
    outer loop
      vertex 17.957 18.3085 4
      vertex 17.957 18.3085 2
      vertex 19.139 17.3232 4
    endloop
  endfacet
  facet normal -0.972405 -0.233298 0
    outer loop
      vertex 19.533 15.681 2
      vertex 19.533 15.681 4
      vertex 19.139 17.3232 2
    endloop
  endfacet
  facet normal -0.972405 -0.233298 -0
    outer loop
      vertex 19.139 17.3232 4
      vertex 19.139 17.3232 2
      vertex 19.533 15.681 4
    endloop
  endfacet
  facet normal -0.975448 0.220231 0
    outer loop
      vertex 19.1485 13.9782 2
      vertex 19.1485 13.9782 4
      vertex 19.533 15.681 2
    endloop
  endfacet
  facet normal -0.975448 0.220231 0
    outer loop
      vertex 19.533 15.681 4
      vertex 19.533 15.681 2
      vertex 19.1485 13.9782 4
    endloop
  endfacet
  facet normal -0.663087 0.748543 0
    outer loop
      vertex 17.9952 12.9565 2
      vertex 17.9952 12.9565 4
      vertex 19.1485 13.9782 2
    endloop
  endfacet
  facet normal -0.663087 0.748543 0
    outer loop
      vertex 19.1485 13.9782 4
      vertex 19.1485 13.9782 2
      vertex 17.9952 12.9565 4
    endloop
  endfacet
  facet normal -0.174447 0.984667 0
    outer loop
      vertex 16.073 12.616 2
      vertex 16.073 12.616 4
      vertex 17.9952 12.9565 2
    endloop
  endfacet
  facet normal -0.174447 0.984667 0
    outer loop
      vertex 17.9952 12.9565 4
      vertex 17.9952 12.9565 2
      vertex 16.073 12.616 4
    endloop
  endfacet
  facet normal 0 1 0
    outer loop
      vertex 11.889 12.616 2
      vertex 11.889 12.616 4
      vertex 16.073 12.616 2
    endloop
  endfacet
  facet normal 0 1 0
    outer loop
      vertex 16.073 12.616 4
      vertex 16.073 12.616 2
      vertex 11.889 12.616 4
    endloop
  endfacet
  facet normal 0.964786 -0.263037 0
    outer loop
      vertex 36.4339 14.2942 2
      vertex 35.4452 10.6679 4
      vertex 35.4452 10.6679 2
    endloop
  endfacet
  facet normal 0.964786 -0.263037 0
    outer loop
      vertex 36.4339 14.2942 2
      vertex 36.4339 14.2942 4
      vertex 35.4452 10.6679 4
    endloop
  endfacet
  facet normal 0.967133 -0.254271 0
    outer loop
      vertex 36.8506 15.879 2
      vertex 36.4339 14.2942 4
      vertex 36.4339 14.2942 2
    endloop
  endfacet
  facet normal 0.967133 -0.254271 0
    outer loop
      vertex 36.8506 15.879 2
      vertex 36.8506 15.879 4
      vertex 36.4339 14.2942 4
    endloop
  endfacet
  facet normal 0.974943 -0.222453 0
    outer loop
      vertex 37.1501 17.1919 2
      vertex 36.8506 15.879 4
      vertex 36.8506 15.879 2
    endloop
  endfacet
  facet normal 0.974943 -0.222453 0
    outer loop
      vertex 37.1501 17.1919 2
      vertex 37.1501 17.1919 4
      vertex 36.8506 15.879 4
    endloop
  endfacet
  facet normal 0.975673 -0.219232 0
    outer loop
      vertex 37.3286 17.986 2
      vertex 37.1501 17.1919 4
      vertex 37.1501 17.1919 2
    endloop
  endfacet
  facet normal 0.975673 -0.219232 0
    outer loop
      vertex 37.3286 17.986 2
      vertex 37.3286 17.986 4
      vertex 37.1501 17.1919 4
    endloop
  endfacet
  facet normal -0.977146 -0.212568 0
    outer loop
      vertex 37.6353 16.5758 2
      vertex 37.3286 17.986 4
      vertex 37.3286 17.986 2
    endloop
  endfacet
  facet normal -0.977146 -0.212568 0
    outer loop
      vertex 37.6353 16.5758 2
      vertex 37.6353 16.5758 4
      vertex 37.3286 17.986 4
    endloop
  endfacet
  facet normal -0.97394 -0.226804 0
    outer loop
      vertex 37.889 15.4864 2
      vertex 37.6353 16.5758 4
      vertex 37.6353 16.5758 2
    endloop
  endfacet
  facet normal -0.97394 -0.226804 0
    outer loop
      vertex 37.889 15.4864 2
      vertex 37.889 15.4864 4
      vertex 37.6353 16.5758 4
    endloop
  endfacet
  facet normal -0.967592 -0.252518 0
    outer loop
      vertex 38.0896 14.718 2
      vertex 37.889 15.4864 4
      vertex 37.889 15.4864 2
    endloop
  endfacet
  facet normal -0.967592 -0.252518 0
    outer loop
      vertex 38.0896 14.718 2
      vertex 38.0896 14.718 4
      vertex 37.889 15.4864 4
    endloop
  endfacet
  facet normal -0.964722 -0.26327 0
    outer loop
      vertex 40.7416 5 2
      vertex 38.0896 14.718 4
      vertex 38.0896 14.718 2
    endloop
  endfacet
  facet normal -0.964722 -0.26327 0
    outer loop
      vertex 40.7416 5 2
      vertex 40.7416 5 4
      vertex 38.0896 14.718 4
    endloop
  endfacet
  facet normal 0 -1 0
    outer loop
      vertex 43.2136 5 2
      vertex 40.7416 5 4
      vertex 40.7416 5 2
    endloop
  endfacet
  facet normal 0 -1 0
    outer loop
      vertex 43.2136 5 2
      vertex 43.2136 5 4
      vertex 40.7416 5 4
    endloop
  endfacet
  facet normal 0.95921 -0.282696 0
    outer loop
      vertex 47.7216 20.296 2
      vertex 43.2136 5 4
      vertex 43.2136 5 2
    endloop
  endfacet
  facet normal 0.95921 -0.282696 0
    outer loop
      vertex 47.7216 20.296 2
      vertex 47.7216 20.296 4
      vertex 43.2136 5 4
    endloop
  endfacet
  facet normal 0 1 0
    outer loop
      vertex 45.5636 20.296 2
      vertex 47.7216 20.296 4
      vertex 47.7216 20.296 2
    endloop
  endfacet
  facet normal 0 1 0
    outer loop
      vertex 45.5636 20.296 2
      vertex 45.5636 20.296 4
      vertex 47.7216 20.296 4
    endloop
  endfacet
  facet normal -0.963298 0.268434 0
    outer loop
      vertex 43.9491 14.5024 2
      vertex 45.5636 20.296 4
      vertex 45.5636 20.296 2
    endloop
  endfacet
  facet normal -0.963298 0.268434 0
    outer loop
      vertex 43.9491 14.5024 2
      vertex 43.9491 14.5024 4
      vertex 45.5636 20.296 4
    endloop
  endfacet
  facet normal -0.963915 0.266211 0
    outer loop
      vertex 42.9311 10.8164 2
      vertex 43.9491 14.5024 4
      vertex 43.9491 14.5024 2
    endloop
  endfacet
  facet normal -0.963915 0.266211 0
    outer loop
      vertex 42.9311 10.8164 2
      vertex 42.9311 10.8164 4
      vertex 43.9491 14.5024 4
    endloop
  endfacet
  facet normal -0.966136 0.258035 0
    outer loop
      vertex 42.5096 9.23799 2
      vertex 42.9311 10.8164 4
      vertex 42.9311 10.8164 2
    endloop
  endfacet
  facet normal -0.966136 0.258035 0
    outer loop
      vertex 42.5096 9.23799 2
      vertex 42.5096 9.23799 4
      vertex 42.9311 10.8164 4
    endloop
  endfacet
  facet normal -0.97353 0.228559 0
    outer loop
      vertex 42.0316 7.202 2
      vertex 42.5096 9.23799 4
      vertex 42.5096 9.23799 2
    endloop
  endfacet
  facet normal -0.97353 0.228559 0
    outer loop
      vertex 42.0316 7.202 2
      vertex 42.0316 7.202 4
      vertex 42.5096 9.23799 4
    endloop
  endfacet
  facet normal -0.968323 0.249702 0
    outer loop
      vertex 41.9336 6.82199 2
      vertex 42.0316 7.202 4
      vertex 42.0316 7.202 2
    endloop
  endfacet
  facet normal -0.968323 0.249702 0
    outer loop
      vertex 41.9336 6.82199 2
      vertex 41.9336 6.82199 4
      vertex 42.0316 7.202 4
    endloop
  endfacet
  facet normal 0.975556 0.219749 0
    outer loop
      vertex 41.6727 7.98021 2
      vertex 41.9336 6.82199 4
      vertex 41.9336 6.82199 2
    endloop
  endfacet
  facet normal 0.975556 0.219749 -0
    outer loop
      vertex 41.6727 7.98021 2
      vertex 41.6727 7.98021 4
      vertex 41.9336 6.82199 4
    endloop
  endfacet
  facet normal 0.971967 0.235119 0
    outer loop
      vertex 41.354 9.29755 2
      vertex 41.6727 7.98021 4
      vertex 41.6727 7.98021 2
    endloop
  endfacet
  facet normal 0.971967 0.235119 -0
    outer loop
      vertex 41.354 9.29755 2
      vertex 41.354 9.29755 4
      vertex 41.6727 7.98021 4
    endloop
  endfacet
  facet normal 0.968999 0.247067 0
    outer loop
      vertex 40.9776 10.774 2
      vertex 41.354 9.29755 4
      vertex 41.354 9.29755 2
    endloop
  endfacet
  facet normal 0.968999 0.247067 -0
    outer loop
      vertex 40.9776 10.774 2
      vertex 40.9776 10.774 4
      vertex 41.354 9.29755 4
    endloop
  endfacet
  facet normal 0.963047 0.269333 0
    outer loop
      vertex 38.3146 20.296 2
      vertex 40.9776 10.774 4
      vertex 40.9776 10.774 2
    endloop
  endfacet
  facet normal 0.963047 0.269333 -0
    outer loop
      vertex 38.3146 20.296 2
      vertex 38.3146 20.296 4
      vertex 40.9776 10.774 4
    endloop
  endfacet
  facet normal 0 1 0
    outer loop
      vertex 36.3306 20.296 2
      vertex 38.3146 20.296 4
      vertex 38.3146 20.296 2
    endloop
  endfacet
  facet normal 0 1 0
    outer loop
      vertex 36.3306 20.296 2
      vertex 36.3306 20.296 4
      vertex 38.3146 20.296 4
    endloop
  endfacet
  facet normal -0.96262 0.270855 0
    outer loop
      vertex 34.8081 14.8852 2
      vertex 36.3306 20.296 4
      vertex 36.3306 20.296 2
    endloop
  endfacet
  facet normal -0.96262 0.270855 0
    outer loop
      vertex 34.8081 14.8852 2
      vertex 34.8081 14.8852 4
      vertex 36.3306 20.296 4
    endloop
  endfacet
  facet normal -0.963636 0.267219 0
    outer loop
      vertex 33.8035 11.2622 2
      vertex 34.8081 14.8852 4
      vertex 34.8081 14.8852 2
    endloop
  endfacet
  facet normal -0.963636 0.267219 0
    outer loop
      vertex 33.8035 11.2622 2
      vertex 33.8035 11.2622 4
      vertex 34.8081 14.8852 4
    endloop
  endfacet
  facet normal -0.966562 0.256433 0
    outer loop
      vertex 33.3166 9.42699 2
      vertex 33.8035 11.2622 4
      vertex 33.8035 11.2622 2
    endloop
  endfacet
  facet normal -0.966562 0.256433 0
    outer loop
      vertex 33.3166 9.42699 2
      vertex 33.3166 9.42699 4
      vertex 33.8035 11.2622 4
    endloop
  endfacet
  facet normal -0.972622 0.232392 0
    outer loop
      vertex 33.0976 8.51044 2
      vertex 33.3166 9.42699 4
      vertex 33.3166 9.42699 2
    endloop
  endfacet
  facet normal -0.972622 0.232392 0
    outer loop
      vertex 33.0976 8.51044 2
      vertex 33.0976 8.51044 4
      vertex 33.3166 9.42699 4
    endloop
  endfacet
  facet normal -0.974239 0.22552 0
    outer loop
      vertex 32.8966 7.64211 2
      vertex 33.0976 8.51044 4
      vertex 33.0976 8.51044 2
    endloop
  endfacet
  facet normal -0.974239 0.22552 0
    outer loop
      vertex 32.8966 7.64211 2
      vertex 32.8966 7.64211 4
      vertex 33.0976 8.51044 4
    endloop
  endfacet
  facet normal -0.975997 0.217782 0
    outer loop
      vertex 32.7136 6.82199 2
      vertex 32.8966 7.64211 4
      vertex 32.8966 7.64211 2
    endloop
  endfacet
  facet normal -0.975997 0.217782 0
    outer loop
      vertex 32.7136 6.82199 2
      vertex 32.7136 6.82199 4
      vertex 32.8966 7.64211 4
    endloop
  endfacet
  facet normal 0.97617 0.217007 0
    outer loop
      vertex 32.4298 8.09854 2
      vertex 32.7136 6.82199 4
      vertex 32.7136 6.82199 2
    endloop
  endfacet
  facet normal 0.97617 0.217007 -0
    outer loop
      vertex 32.4298 8.09854 2
      vertex 32.4298 8.09854 4
      vertex 32.7136 6.82199 4
    endloop
  endfacet
  facet normal 0.97237 0.233446 0
    outer loop
      vertex 32.1291 9.35088 2
      vertex 32.4298 8.09854 4
      vertex 32.4298 8.09854 2
    endloop
  endfacet
  facet normal 0.97237 0.233446 -0
    outer loop
      vertex 32.1291 9.35088 2
      vertex 32.1291 9.35088 4
      vertex 32.4298 8.09854 4
    endloop
  endfacet
  facet normal 0.968157 0.250345 0
    outer loop
      vertex 31.8116 10.579 2
      vertex 32.1291 9.35088 4
      vertex 32.1291 9.35088 2
    endloop
  endfacet
  facet normal 0.968157 0.250345 -0
    outer loop
      vertex 31.8116 10.579 2
      vertex 31.8116 10.579 4
      vertex 32.1291 9.35088 4
    endloop
  endfacet
  facet normal 0.962208 0.272314 0
    outer loop
      vertex 29.0616 20.296 2
      vertex 31.8116 10.579 4
      vertex 31.8116 10.579 2
    endloop
  endfacet
  facet normal 0.962208 0.272314 -0
    outer loop
      vertex 29.0616 20.296 2
      vertex 29.0616 20.296 4
      vertex 31.8116 10.579 4
    endloop
  endfacet
  facet normal 0 1 0
    outer loop
      vertex 26.9036 20.296 2
      vertex 29.0616 20.296 4
      vertex 29.0616 20.296 2
    endloop
  endfacet
  facet normal 0 1 0
    outer loop
      vertex 26.9036 20.296 2
      vertex 26.9036 20.296 4
      vertex 29.0616 20.296 4
    endloop
  endfacet
  facet normal -0.959193 -0.282753 0
    outer loop
      vertex 31.4126 5 2
      vertex 26.9036 20.296 4
      vertex 26.9036 20.296 2
    endloop
  endfacet
  facet normal -0.959193 -0.282753 0
    outer loop
      vertex 31.4126 5 2
      vertex 31.4126 5 4
      vertex 26.9036 20.296 4
    endloop
  endfacet
  facet normal 0 -1 0
    outer loop
      vertex 33.8846 5 2
      vertex 31.4126 5 4
      vertex 31.4126 5 2
    endloop
  endfacet
  facet normal 0 -1 0
    outer loop
      vertex 33.8846 5 2
      vertex 33.8846 5 4
      vertex 31.4126 5 4
    endloop
  endfacet
  facet normal 0.964118 -0.265473 0
    outer loop
      vertex 35.4452 10.6679 2
      vertex 33.8846 5 4
      vertex 33.8846 5 2
    endloop
  endfacet
  facet normal 0.964118 -0.265473 0
    outer loop
      vertex 35.4452 10.6679 2
      vertex 35.4452 10.6679 4
      vertex 33.8846 5 4
    endloop
  endfacet
endsolid OpenSCAD_Model
