solid OpenSCAD_Model
  facet normal 0 0 -1
    outer loop
      vertex 21.645 0.882233 2
      vertex 21.88 2.38968 2
      vertex 22.308 1.01501 2
    endloop
  endfacet
  facet normal 0 0 -1
    outer loop
      vertex 21.464 2.34268 2
      vertex 21.88 2.38968 2
      vertex 21.645 0.882233 2
    endloop
  endfacet
  facet normal 0 0 -1
    outer loop
      vertex 21.88 2.38968 2
      vertex 22.308 2.468 2
      vertex 22.308 1.01501 2
    endloop
  endfacet
  facet normal 0 0 -1
    outer loop
      vertex 21.06 2.32701 2
      vertex 21.464 2.34268 2
      vertex 21.645 0.882233 2
    endloop
  endfacet
  facet normal 0 0 -1
    outer loop
      vertex 21.0013 0.802567 2
      vertex 21.06 2.32701 2
      vertex 21.645 0.882233 2
    endloop
  endfacet
  facet normal -0 0 -1
    outer loop
      vertex 21.0013 0.802567 2
      vertex 20.377 0.776001 2
      vertex 21.06 2.32701 2
    endloop
  endfacet
  facet normal -0 0 -1
    outer loop
      vertex 21.06 2.32701 2
      vertex 20.377 0.776001 2
      vertex 20.3653 2.39479 2
    endloop
  endfacet
  facet normal -0 0 -1
    outer loop
      vertex 20.3653 2.39479 2
      vertex 19.3494 0.879227 2
      vertex 19.756 2.59811 2
    endloop
  endfacet
  facet normal 0 0 -1
    outer loop
      vertex 17.681 1.705 2
      vertex 18.782 3.42767 2
      vertex 19.232 2.93701 2
    endloop
  endfacet
  facet normal 0 0 -1
    outer loop
      vertex 16.4423 3.49701 2
      vertex 18.3933 4.08768 2
      vertex 17.019 2.46268 2
    endloop
  endfacet
  facet normal 0 0 -1
    outer loop
      vertex 19.8562 5.35933 2
      vertex 18.2519 6.62633 2
      vertex 19.6062 7.17032 2
    endloop
  endfacet
  facet normal 0 0 -1
    outer loop
      vertex 11.7995 9.38699 2
      vertex 9.41599 9.85988 2
      vertex 11.3169 10.907 2
    endloop
  endfacet
  facet normal -0 0 -1
    outer loop
      vertex 23.4939 8.89377 2
      vertex 22.59 7.37799 2
      vertex 21.4737 9.31499 2
    endloop
  endfacet
  facet normal -0 0 -1
    outer loop
      vertex 24.0362 10.6651 2
      vertex 23.4939 8.89377 2
      vertex 21.9457 10.853 2
    endloop
  endfacet
  facet normal 0 0 -1
    outer loop
      vertex 34.6149 5.75899 2
      vertex 33.5491 6.48677 2
      vertex 35.7547 7.23077 2
    endloop
  endfacet
  facet normal 0 0 -1
    outer loop
      vertex 20.687 8.077 2
      vertex 22.59 7.37799 2
      vertex 21.3642 6.17966 2
    endloop
  endfacet
  facet normal -0 0 -1
    outer loop
      vertex 35.7547 7.23077 2
      vertex 33.5491 6.48677 2
      vertex 34.6369 8.15799 2
    endloop
  endfacet
  facet normal 0 0 -1
    outer loop
      vertex 22.103 12.691 2
      vertex 24.217 12.692 2
      vertex 24.0362 10.6651 2
    endloop
  endfacet
  facet normal -0 0 -1
    outer loop
      vertex 19.4801 20.076 2
      vertex 18.2511 18.6152 2
      vertex 18.1314 20.385 2
    endloop
  endfacet
  facet normal 0 0 -1
    outer loop
      vertex 39.0739 12.68 2
      vertex 45.5499 12.68 2
      vertex 43.6419 10.945 2
    endloop
  endfacet
  facet normal 0 0 -1
    outer loop
      vertex 16.646 18.796 2
      vertex 18.1314 20.385 2
      vertex 18.2511 18.6152 2
    endloop
  endfacet
  facet normal 0 0 -1
    outer loop
      vertex 39.0739 12.68 2
      vertex 43.6419 10.945 2
      vertex 39.0739 10.945 2
    endloop
  endfacet
  facet normal 0 0 -1
    outer loop
      vertex 20.676 17.169 2
      vertex 19.5944 18.0729 2
      vertex 21.7439 18.8495 2
    endloop
  endfacet
  facet normal 0 0 -1
    outer loop
      vertex 45.5499 7.403 2
      vertex 43.6419 8.18399 2
      vertex 43.6419 10.945 2
    endloop
  endfacet
  facet normal 0 0 -1
    outer loop
      vertex 21.4688 15.9488 2
      vertex 20.676 17.169 2
      vertex 22.6172 17.9512 2
    endloop
  endfacet
  facet normal 0 0 -1
    outer loop
      vertex 31.0469 12.713 2
      vertex 33.3063 14.4989 2
      vertex 33.1509 12.713 2
    endloop
  endfacet
  facet normal 0 0 -1
    outer loop
      vertex 16.645 20.488 2
      vertex 15.028 18.6177 2
      vertex 14.4337 20.2584 2
    endloop
  endfacet
  facet normal -0 0 -1
    outer loop
      vertex 23.311 16.866 2
      vertex 21.4688 15.9488 2
      vertex 22.6172 17.9512 2
    endloop
  endfacet
  facet normal 0 0 -1
    outer loop
      vertex 36.9708 18.6189 2
      vertex 36.4224 20.2621 2
      vertex 38.6509 20.488 2
    endloop
  endfacet
  facet normal 0 0 -1
    outer loop
      vertex 38.5969 18.796 2
      vertex 38.6509 20.488 2
      vertex 39.6701 18.7304 2
    endloop
  endfacet
  facet normal 0 0 -1
    outer loop
      vertex 11.7924 15.9777 2
      vertex 11.3151 14.4777 2
      vertex 9.27499 14.9571 2
    endloop
  endfacet
  facet normal 0 -0 -1
    outer loop
      vertex 12.5717 19.5698 2
      vertex 12.588 17.191 2
      vertex 11.059 18.422 2
    endloop
  endfacet
  facet normal 0 -0 -1
    outer loop
      vertex 14.4337 20.2584 2
      vertex 15.028 18.6177 2
      vertex 13.6753 18.0827 2
    endloop
  endfacet
  facet normal 0 0 -1
    outer loop
      vertex 15.951 4.80801 2
      vertex 15.0347 6.63232 2
      vertex 16.624 6.44499 2
    endloop
  endfacet
  facet normal 0 -0 -1
    outer loop
      vertex 12.604 8.131 2
      vertex 13.6947 7.19432 2
      vertex 12.246 5.89699 2
    endloop
  endfacet
  facet normal 0 -0 -1
    outer loop
      vertex 13.6947 7.19432 2
      vertex 15.0347 6.63232 2
      vertex 13.3497 5.34 2
    endloop
  endfacet
  facet normal 0 0 -1
    outer loop
      vertex 13.3497 5.34 2
      vertex 15.0347 6.63232 2
      vertex 14.5847 4.97701 2
    endloop
  endfacet
  facet normal 0 0 -1
    outer loop
      vertex 14.5847 4.97701 2
      vertex 15.0347 6.63232 2
      vertex 15.951 4.80801 2
    endloop
  endfacet
  facet normal 0 0 -1
    outer loop
      vertex 11.2905 6.6371 2
      vertex 12.604 8.131 2
      vertex 12.246 5.89699 2
    endloop
  endfacet
  facet normal 0 0 -1
    outer loop
      vertex 10.4989 7.54811 2
      vertex 12.604 8.131 2
      vertex 11.2905 6.6371 2
    endloop
  endfacet
  facet normal 0 0 -1
    outer loop
      vertex 17.019 2.46268 2
      vertex 18.3933 4.08768 2
      vertex 18.782 3.42767 2
    endloop
  endfacet
  facet normal 0 0 -1
    outer loop
      vertex 18.4508 1.1889 2
      vertex 17.681 1.705 2
      vertex 19.232 2.93701 2
    endloop
  endfacet
  facet normal 0 0 -1
    outer loop
      vertex 16.4423 3.49701 2
      vertex 18.066 4.91701 2
      vertex 18.3933 4.08768 2
    endloop
  endfacet
  facet normal 0 -0 -1
    outer loop
      vertex 16.624 6.44499 2
      vertex 18.066 4.91701 2
      vertex 15.951 4.80801 2
    endloop
  endfacet
  facet normal 0 0 -1
    outer loop
      vertex 15.951 4.80801 2
      vertex 18.066 4.91701 2
      vertex 16.4423 3.49701 2
    endloop
  endfacet
  facet normal 0 0 -1
    outer loop
      vertex 17.019 2.46268 2
      vertex 18.782 3.42767 2
      vertex 17.681 1.705 2
    endloop
  endfacet
  facet normal -0 0 -1
    outer loop
      vertex 19.756 2.59811 2
      vertex 18.4508 1.1889 2
      vertex 19.232 2.93701 2
    endloop
  endfacet
  facet normal 0 0 -1
    outer loop
      vertex 19.756 2.59811 2
      vertex 19.3494 0.879227 2
      vertex 18.4508 1.1889 2
    endloop
  endfacet
  facet normal 0 -0 -1
    outer loop
      vertex 20.3653 2.39479 2
      vertex 20.377 0.776001 2
      vertex 19.3494 0.879227 2
    endloop
  endfacet
  facet normal 0 0 -1
    outer loop
      vertex 21.4688 15.9488 2
      vertex 23.8143 15.6169 2
      vertex 21.9444 14.4561 2
    endloop
  endfacet
  facet normal 0 0 -1
    outer loop
      vertex 9.87099 8.62999 2
      vertex 11.7995 9.38699 2
      vertex 10.4989 7.54811 2
    endloop
  endfacet
  facet normal 0 0 -1
    outer loop
      vertex 13.6947 7.19432 2
      vertex 13.3497 5.34 2
      vertex 12.246 5.89699 2
    endloop
  endfacet
  facet normal -0 0 -1
    outer loop
      vertex 24.217 12.692 2
      vertex 22.103 12.691 2
      vertex 24.1163 14.2256 2
    endloop
  endfacet
  facet normal 0 0 -1
    outer loop
      vertex 10.4989 7.54811 2
      vertex 11.7995 9.38699 2
      vertex 12.604 8.131 2
    endloop
  endfacet
  facet normal 0 0 -1
    outer loop
      vertex 9.87099 8.62999 2
      vertex 9.41599 9.85988 2
      vertex 11.7995 9.38699 2
    endloop
  endfacet
  facet normal 0 0 -1
    outer loop
      vertex 11.3169 10.907 2
      vertex 9.14299 11.2135 2
      vertex 11.156 12.691 2
    endloop
  endfacet
  facet normal 0 0 -1
    outer loop
      vertex 9.41599 9.85988 2
      vertex 9.14299 11.2135 2
      vertex 11.3169 10.907 2
    endloop
  endfacet
  facet normal 0 0 -1
    outer loop
      vertex 11.156 12.691 2
      vertex 9.05199 12.691 2
      vertex 11.3151 14.4777 2
    endloop
  endfacet
  facet normal 0 0 -1
    outer loop
      vertex 9.14299 11.2135 2
      vertex 9.05199 12.691 2
      vertex 11.156 12.691 2
    endloop
  endfacet
  facet normal -0 0 -1
    outer loop
      vertex 11.3151 14.4777 2
      vertex 9.05199 12.691 2
      vertex 9.27499 14.9571 2
    endloop
  endfacet
  facet normal 0 0 -1
    outer loop
      vertex 11.7924 15.9777 2
      vertex 9.94398 16.8674 2
      vertex 11.059 18.422 2
    endloop
  endfacet
  facet normal 0 0 -1
    outer loop
      vertex 9.27499 14.9571 2
      vertex 9.94398 16.8674 2
      vertex 11.7924 15.9777 2
    endloop
  endfacet
  facet normal -0 0 -1
    outer loop
      vertex 12.588 17.191 2
      vertex 11.7924 15.9777 2
      vertex 11.059 18.422 2
    endloop
  endfacet
  facet normal -0 0 -1
    outer loop
      vertex 13.6753 18.0827 2
      vertex 12.588 17.191 2
      vertex 12.5717 19.5698 2
    endloop
  endfacet
  facet normal 0 0 -1
    outer loop
      vertex 14.4337 20.2584 2
      vertex 13.6753 18.0827 2
      vertex 12.5717 19.5698 2
    endloop
  endfacet
  facet normal 0 0 -1
    outer loop
      vertex 16.646 18.796 2
      vertex 16.645 20.488 2
      vertex 18.1314 20.385 2
    endloop
  endfacet
  facet normal 0 0 -1
    outer loop
      vertex 15.028 18.6177 2
      vertex 16.645 20.488 2
      vertex 16.646 18.796 2
    endloop
  endfacet
  facet normal 0 -0 -1
    outer loop
      vertex 19.4801 20.076 2
      vertex 19.5944 18.0729 2
      vertex 18.2511 18.6152 2
    endloop
  endfacet
  facet normal 0 0 -1
    outer loop
      vertex 19.5944 18.0729 2
      vertex 20.691 19.561 2
      vertex 21.7439 18.8495 2
    endloop
  endfacet
  facet normal 0 0 -1
    outer loop
      vertex 19.4801 20.076 2
      vertex 20.691 19.561 2
      vertex 19.5944 18.0729 2
    endloop
  endfacet
  facet normal 0 0 -1
    outer loop
      vertex 20.676 17.169 2
      vertex 21.7439 18.8495 2
      vertex 22.6172 17.9512 2
    endloop
  endfacet
  facet normal 0 -0 -1
    outer loop
      vertex 23.311 16.866 2
      vertex 23.8143 15.6169 2
      vertex 21.4688 15.9488 2
    endloop
  endfacet
  facet normal 0 0 -1
    outer loop
      vertex 21.9444 14.4561 2
      vertex 24.1163 14.2256 2
      vertex 22.103 12.691 2
    endloop
  endfacet
  facet normal 0 -0 -1
    outer loop
      vertex 23.8143 15.6169 2
      vertex 24.1163 14.2256 2
      vertex 21.9444 14.4561 2
    endloop
  endfacet
  facet normal 0 0 -1
    outer loop
      vertex 24.0362 10.6651 2
      vertex 21.9457 10.853 2
      vertex 22.103 12.691 2
    endloop
  endfacet
  facet normal 0 0 -1
    outer loop
      vertex 23.4939 8.89377 2
      vertex 21.4737 9.31499 2
      vertex 21.9457 10.853 2
    endloop
  endfacet
  facet normal 0 0 -1
    outer loop
      vertex 22.59 7.37799 2
      vertex 20.687 8.077 2
      vertex 21.4737 9.31499 2
    endloop
  endfacet
  facet normal 0 0 -1
    outer loop
      vertex 21.3642 6.17966 2
      vertex 19.6062 7.17032 2
      vertex 20.687 8.077 2
    endloop
  endfacet
  facet normal -0 0 -1
    outer loop
      vertex 21.3642 6.17966 2
      vertex 19.8562 5.35933 2
      vertex 19.6062 7.17032 2
    endloop
  endfacet
  facet normal -0 0 -1
    outer loop
      vertex 19.8562 5.35933 2
      vertex 18.066 4.91701 2
      vertex 18.2519 6.62633 2
    endloop
  endfacet
  facet normal 0 0 -1
    outer loop
      vertex 18.2519 6.62633 2
      vertex 18.066 4.91701 2
      vertex 16.624 6.44499 2
    endloop
  endfacet
  facet normal -0 0 -1
    outer loop
      vertex 45.5499 7.403 2
      vertex 44.679 6.63977 2
      vertex 43.6419 8.18399 2
    endloop
  endfacet
  facet normal 0 0 -1
    outer loop
      vertex 42.3517 7.28577 2
      vertex 43.0517 7.69878 2
      vertex 43.6863 6.00076 2
    endloop
  endfacet
  facet normal 0 0 -1
    outer loop
      vertex 33.3063 14.4989 2
      vertex 31.2686 14.9994 2
      vertex 33.7727 15.9952 2
    endloop
  endfacet
  facet normal 0 -0 -1
    outer loop
      vertex 33.0429 18.455 2
      vertex 33.7727 15.9952 2
      vertex 31.934 16.9134 2
    endloop
  endfacet
  facet normal -0 0 -1
    outer loop
      vertex 36.9708 18.6189 2
      vertex 35.6218 18.0876 2
      vertex 36.4224 20.2621 2
    endloop
  endfacet
  facet normal 0 0 -1
    outer loop
      vertex 31.1487 11.1685 2
      vertex 33.1509 12.713 2
      vertex 33.316 10.9247 2
    endloop
  endfacet
  facet normal 0 0 -1
    outer loop
      vertex 41.5419 6.94499 2
      vertex 42.3517 7.28577 2
      vertex 42.5719 5.48599 2
    endloop
  endfacet
  facet normal -0 0 -1
    outer loop
      vertex 41.364 5.10933 2
      vertex 40.0896 4.88335 2
      vertex 40.6555 6.69167 2
    endloop
  endfacet
  facet normal 0 0 -1
    outer loop
      vertex 43.6419 10.945 2
      vertex 45.5499 12.68 2
      vertex 45.5499 7.403 2
    endloop
  endfacet
  facet normal 0 0 -1
    outer loop
      vertex 43.0517 7.69878 2
      vertex 44.679 6.63977 2
      vertex 43.6863 6.00076 2
    endloop
  endfacet
  facet normal 0 -0 -1
    outer loop
      vertex 43.6419 8.18399 2
      vertex 44.679 6.63977 2
      vertex 43.0517 7.69878 2
    endloop
  endfacet
  facet normal -0 0 -1
    outer loop
      vertex 43.6863 6.00076 2
      vertex 42.5719 5.48599 2
      vertex 42.3517 7.28577 2
    endloop
  endfacet
  facet normal -0 0 -1
    outer loop
      vertex 42.5719 5.48599 2
      vertex 41.364 5.10933 2
      vertex 41.5419 6.94499 2
    endloop
  endfacet
  facet normal 0 0 -1
    outer loop
      vertex 41.5419 6.94499 2
      vertex 41.364 5.10933 2
      vertex 40.6555 6.69167 2
    endloop
  endfacet
  facet normal 0 0 -1
    outer loop
      vertex 40.6555 6.69167 2
      vertex 40.0896 4.88335 2
      vertex 39.7245 6.53966 2
    endloop
  endfacet
  facet normal 0 -0 -1
    outer loop
      vertex 39.7245 6.53966 2
      vertex 40.0896 4.88335 2
      vertex 38.7489 4.80801 2
    endloop
  endfacet
  facet normal 0 0 -1
    outer loop
      vertex 38.7489 6.489 2
      vertex 39.7245 6.53966 2
      vertex 38.7489 4.80801 2
    endloop
  endfacet
  facet normal 0 0 -1
    outer loop
      vertex 32.6651 7.40077 2
      vertex 33.8113 9.40633 2
      vertex 34.6369 8.15799 2
    endloop
  endfacet
  facet normal 0 0 -1
    outer loop
      vertex 37.1253 6.67444 2
      vertex 38.7489 6.489 2
      vertex 37.2238 4.91368 2
    endloop
  endfacet
  facet normal 0 0 -1
    outer loop
      vertex 31.454 9.76454 2
      vertex 33.316 10.9247 2
      vertex 33.8113 9.40633 2
    endloop
  endfacet
  facet normal 0 0 -1
    outer loop
      vertex 34.5531 19.5844 2
      vertex 34.5499 17.202 2
      vertex 33.0429 18.455 2
    endloop
  endfacet
  facet normal 0 0 -1
    outer loop
      vertex 34.5531 19.5844 2
      vertex 36.4224 20.2621 2
      vertex 35.6218 18.0876 2
    endloop
  endfacet
  facet normal -0 0 -1
    outer loop
      vertex 38.5969 18.796 2
      vertex 36.9708 18.6189 2
      vertex 38.6509 20.488 2
    endloop
  endfacet
  facet normal 0 0 -1
    outer loop
      vertex 39.6701 18.7304 2
      vertex 40.2373 20.3933 2
      vertex 40.6191 18.5338 2
    endloop
  endfacet
  facet normal 0 0 -1
    outer loop
      vertex 39.6701 18.7304 2
      vertex 38.6509 20.488 2
      vertex 40.2373 20.3933 2
    endloop
  endfacet
  facet normal 0 0 -1
    outer loop
      vertex 41.4439 18.206 2
      vertex 40.6191 18.5338 2
      vertex 41.6113 20.1093 2
    endloop
  endfacet
  facet normal -0 0 -1
    outer loop
      vertex 41.6113 20.1093 2
      vertex 40.6191 18.5338 2
      vertex 40.2373 20.3933 2
    endloop
  endfacet
  facet normal 0 0 -1
    outer loop
      vertex 42.7729 19.636 2
      vertex 42.1523 17.7351 2
      vertex 41.4439 18.206 2
    endloop
  endfacet
  facet normal 0 0 -1
    outer loop
      vertex 43.7481 18.9549 2
      vertex 42.751 17.1091 2
      vertex 42.1523 17.7351 2
    endloop
  endfacet
  facet normal 0 -0 -1
    outer loop
      vertex 43.7481 18.9549 2
      vertex 44.5618 18.0462 2
      vertex 42.751 17.1091 2
    endloop
  endfacet
  facet normal 0 0 -1
    outer loop
      vertex 43.2399 16.328 2
      vertex 44.5618 18.0462 2
      vertex 45.2139 16.91 2
    endloop
  endfacet
  facet normal 0 0 -1
    outer loop
      vertex 42.751 17.1091 2
      vertex 44.5618 18.0462 2
      vertex 43.2399 16.328 2
    endloop
  endfacet
  facet normal 0 -0 -1
    outer loop
      vertex 42.7729 19.636 2
      vertex 43.7481 18.9549 2
      vertex 42.1523 17.7351 2
    endloop
  endfacet
  facet normal 0 -0 -1
    outer loop
      vertex 41.6113 20.1093 2
      vertex 42.7729 19.636 2
      vertex 41.4439 18.206 2
    endloop
  endfacet
  facet normal 0 0 -1
    outer loop
      vertex 34.5499 17.202 2
      vertex 34.5531 19.5844 2
      vertex 35.6218 18.0876 2
    endloop
  endfacet
  facet normal 0 0 -1
    outer loop
      vertex 33.7727 15.9952 2
      vertex 33.0429 18.455 2
      vertex 34.5499 17.202 2
    endloop
  endfacet
  facet normal 0 -0 -1
    outer loop
      vertex 31.934 16.9134 2
      vertex 33.7727 15.9952 2
      vertex 31.2686 14.9994 2
    endloop
  endfacet
  facet normal 0 -0 -1
    outer loop
      vertex 31.2686 14.9994 2
      vertex 33.3063 14.4989 2
      vertex 31.0469 12.713 2
    endloop
  endfacet
  facet normal 0 0 -1
    outer loop
      vertex 31.0469 12.713 2
      vertex 33.1509 12.713 2
      vertex 31.1487 11.1685 2
    endloop
  endfacet
  facet normal 0 0 -1
    outer loop
      vertex 31.1487 11.1685 2
      vertex 33.316 10.9247 2
      vertex 31.454 9.76454 2
    endloop
  endfacet
  facet normal 0 0 -1
    outer loop
      vertex 31.454 9.76454 2
      vertex 33.8113 9.40633 2
      vertex 31.9629 8.50099 2
    endloop
  endfacet
  facet normal 0 0 -1
    outer loop
      vertex 31.9629 8.50099 2
      vertex 33.8113 9.40633 2
      vertex 32.6651 7.40077 2
    endloop
  endfacet
  facet normal 0 0 -1
    outer loop
      vertex 32.6651 7.40077 2
      vertex 34.6369 8.15799 2
      vertex 33.5491 6.48677 2
    endloop
  endfacet
  facet normal 0 -0 -1
    outer loop
      vertex 35.7547 7.23077 2
      vertex 35.8458 5.23065 2
      vertex 34.6149 5.75899 2
    endloop
  endfacet
  facet normal 0 0 -1
    outer loop
      vertex 35.7547 7.23077 2
      vertex 37.1253 6.67444 2
      vertex 35.8458 5.23065 2
    endloop
  endfacet
  facet normal 0 0 -1
    outer loop
      vertex 35.8458 5.23065 2
      vertex 37.1253 6.67444 2
      vertex 37.2238 4.91368 2
    endloop
  endfacet
  facet normal 0 0 -1
    outer loop
      vertex 37.2238 4.91368 2
      vertex 38.7489 6.489 2
      vertex 38.7489 4.80801 2
    endloop
  endfacet
  facet normal 0 0 1
    outer loop
      vertex 22.308 1.01501 4
      vertex 21.88 2.38968 4
      vertex 21.645 0.882233 4
    endloop
  endfacet
  facet normal 0 -0 1
    outer loop
      vertex 21.645 0.882233 4
      vertex 21.88 2.38968 4
      vertex 21.464 2.34268 4
    endloop
  endfacet
  facet normal 0 -0 1
    outer loop
      vertex 22.308 1.01501 4
      vertex 22.308 2.468 4
      vertex 21.88 2.38968 4
    endloop
  endfacet
  facet normal 0 0 1
    outer loop
      vertex 21.645 0.882233 4
      vertex 21.464 2.34268 4
      vertex 21.06 2.32701 4
    endloop
  endfacet
  facet normal 0 0 1
    outer loop
      vertex 21.645 0.882233 4
      vertex 21.06 2.32701 4
      vertex 21.0013 0.802567 4
    endloop
  endfacet
  facet normal 0 0 1
    outer loop
      vertex 21.06 2.32701 4
      vertex 20.377 0.776001 4
      vertex 21.0013 0.802567 4
    endloop
  endfacet
  facet normal 0 0 1
    outer loop
      vertex 20.3653 2.39479 4
      vertex 20.377 0.776001 4
      vertex 21.06 2.32701 4
    endloop
  endfacet
  facet normal 0 0 1
    outer loop
      vertex 19.756 2.59811 4
      vertex 19.3494 0.879227 4
      vertex 20.3653 2.39479 4
    endloop
  endfacet
  facet normal 0 0 1
    outer loop
      vertex 19.232 2.93701 4
      vertex 18.782 3.42767 4
      vertex 17.681 1.705 4
    endloop
  endfacet
  facet normal 0 -0 1
    outer loop
      vertex 17.019 2.46268 4
      vertex 18.3933 4.08768 4
      vertex 16.4423 3.49701 4
    endloop
  endfacet
  facet normal 0 0 1
    outer loop
      vertex 19.6062 7.17032 4
      vertex 18.2519 6.62633 4
      vertex 19.8562 5.35933 4
    endloop
  endfacet
  facet normal 0 0 1
    outer loop
      vertex 11.3169 10.907 4
      vertex 9.41599 9.85988 4
      vertex 11.7995 9.38699 4
    endloop
  endfacet
  facet normal 0 0 1
    outer loop
      vertex 21.4737 9.31499 4
      vertex 22.59 7.37799 4
      vertex 23.4939 8.89377 4
    endloop
  endfacet
  facet normal 0 0 1
    outer loop
      vertex 21.9457 10.853 4
      vertex 23.4939 8.89377 4
      vertex 24.0362 10.6651 4
    endloop
  endfacet
  facet normal 0 0 1
    outer loop
      vertex 35.7547 7.23077 4
      vertex 33.5491 6.48677 4
      vertex 34.6149 5.75899 4
    endloop
  endfacet
  facet normal 0 -0 1
    outer loop
      vertex 21.3642 6.17966 4
      vertex 22.59 7.37799 4
      vertex 20.687 8.077 4
    endloop
  endfacet
  facet normal 0 0 1
    outer loop
      vertex 34.6369 8.15799 4
      vertex 33.5491 6.48677 4
      vertex 35.7547 7.23077 4
    endloop
  endfacet
  facet normal 0 -0 1
    outer loop
      vertex 24.0362 10.6651 4
      vertex 24.217 12.692 4
      vertex 22.103 12.691 4
    endloop
  endfacet
  facet normal 0 0 1
    outer loop
      vertex 18.1314 20.385 4
      vertex 18.2511 18.6152 4
      vertex 19.4801 20.076 4
    endloop
  endfacet
  facet normal 0 -0 1
    outer loop
      vertex 43.6419 10.945 4
      vertex 45.5499 12.68 4
      vertex 39.0739 12.68 4
    endloop
  endfacet
  facet normal 0 0 1
    outer loop
      vertex 18.2511 18.6152 4
      vertex 18.1314 20.385 4
      vertex 16.646 18.796 4
    endloop
  endfacet
  facet normal 0 0 1
    outer loop
      vertex 39.0739 10.945 4
      vertex 43.6419 10.945 4
      vertex 39.0739 12.68 4
    endloop
  endfacet
  facet normal 0 0 1
    outer loop
      vertex 21.7439 18.8495 4
      vertex 19.5944 18.0729 4
      vertex 20.676 17.169 4
    endloop
  endfacet
  facet normal 0 0 1
    outer loop
      vertex 43.6419 10.945 4
      vertex 43.6419 8.18399 4
      vertex 45.5499 7.403 4
    endloop
  endfacet
  facet normal 0 0 1
    outer loop
      vertex 22.6172 17.9512 4
      vertex 20.676 17.169 4
      vertex 21.4688 15.9488 4
    endloop
  endfacet
  facet normal 0 -0 1
    outer loop
      vertex 33.1509 12.713 4
      vertex 33.3063 14.4989 4
      vertex 31.0469 12.713 4
    endloop
  endfacet
  facet normal -0 0 1
    outer loop
      vertex 14.4337 20.2584 4
      vertex 15.028 18.6177 4
      vertex 16.645 20.488 4
    endloop
  endfacet
  facet normal 0 0 1
    outer loop
      vertex 22.6172 17.9512 4
      vertex 21.4688 15.9488 4
      vertex 23.311 16.866 4
    endloop
  endfacet
  facet normal 0 0 1
    outer loop
      vertex 38.6509 20.488 4
      vertex 36.4224 20.2621 4
      vertex 36.9708 18.6189 4
    endloop
  endfacet
  facet normal 0 0 1
    outer loop
      vertex 39.6701 18.7304 4
      vertex 38.6509 20.488 4
      vertex 38.5969 18.796 4
    endloop
  endfacet
  facet normal -0 0 1
    outer loop
      vertex 9.27499 14.9571 4
      vertex 11.3151 14.4777 4
      vertex 11.7924 15.9777 4
    endloop
  endfacet
  facet normal -0 0 1
    outer loop
      vertex 11.059 18.422 4
      vertex 12.588 17.191 4
      vertex 12.5717 19.5698 4
    endloop
  endfacet
  facet normal 0 0 1
    outer loop
      vertex 13.6753 18.0827 4
      vertex 15.028 18.6177 4
      vertex 14.4337 20.2584 4
    endloop
  endfacet
  facet normal 0 0 1
    outer loop
      vertex 16.624 6.44499 4
      vertex 15.0347 6.63232 4
      vertex 15.951 4.80801 4
    endloop
  endfacet
  facet normal 0 0 1
    outer loop
      vertex 12.246 5.89699 4
      vertex 13.6947 7.19432 4
      vertex 12.604 8.131 4
    endloop
  endfacet
  facet normal 0 0 1
    outer loop
      vertex 13.3497 5.34 4
      vertex 15.0347 6.63232 4
      vertex 13.6947 7.19432 4
    endloop
  endfacet
  facet normal 0 -0 1
    outer loop
      vertex 14.5847 4.97701 4
      vertex 15.0347 6.63232 4
      vertex 13.3497 5.34 4
    endloop
  endfacet
  facet normal 0 0 1
    outer loop
      vertex 15.951 4.80801 4
      vertex 15.0347 6.63232 4
      vertex 14.5847 4.97701 4
    endloop
  endfacet
  facet normal 0 -0 1
    outer loop
      vertex 12.246 5.89699 4
      vertex 12.604 8.131 4
      vertex 11.2905 6.6371 4
    endloop
  endfacet
  facet normal 0 -0 1
    outer loop
      vertex 11.2905 6.6371 4
      vertex 12.604 8.131 4
      vertex 10.4989 7.54811 4
    endloop
  endfacet
  facet normal 0 0 1
    outer loop
      vertex 18.782 3.42767 4
      vertex 18.3933 4.08768 4
      vertex 17.019 2.46268 4
    endloop
  endfacet
  facet normal 0 0 1
    outer loop
      vertex 19.232 2.93701 4
      vertex 17.681 1.705 4
      vertex 18.4508 1.1889 4
    endloop
  endfacet
  facet normal 0 0 1
    outer loop
      vertex 18.3933 4.08768 4
      vertex 18.066 4.91701 4
      vertex 16.4423 3.49701 4
    endloop
  endfacet
  facet normal 0 0 1
    outer loop
      vertex 15.951 4.80801 4
      vertex 18.066 4.91701 4
      vertex 16.624 6.44499 4
    endloop
  endfacet
  facet normal 0 -0 1
    outer loop
      vertex 16.4423 3.49701 4
      vertex 18.066 4.91701 4
      vertex 15.951 4.80801 4
    endloop
  endfacet
  facet normal 0 -0 1
    outer loop
      vertex 17.681 1.705 4
      vertex 18.782 3.42767 4
      vertex 17.019 2.46268 4
    endloop
  endfacet
  facet normal 0 0 1
    outer loop
      vertex 19.232 2.93701 4
      vertex 18.4508 1.1889 4
      vertex 19.756 2.59811 4
    endloop
  endfacet
  facet normal -0 0 1
    outer loop
      vertex 18.4508 1.1889 4
      vertex 19.3494 0.879227 4
      vertex 19.756 2.59811 4
    endloop
  endfacet
  facet normal -0 0 1
    outer loop
      vertex 19.3494 0.879227 4
      vertex 20.377 0.776001 4
      vertex 20.3653 2.39479 4
    endloop
  endfacet
  facet normal 0 -0 1
    outer loop
      vertex 21.9444 14.4561 4
      vertex 23.8143 15.6169 4
      vertex 21.4688 15.9488 4
    endloop
  endfacet
  facet normal 0 -0 1
    outer loop
      vertex 10.4989 7.54811 4
      vertex 11.7995 9.38699 4
      vertex 9.87099 8.62999 4
    endloop
  endfacet
  facet normal -0 0 1
    outer loop
      vertex 12.246 5.89699 4
      vertex 13.3497 5.34 4
      vertex 13.6947 7.19432 4
    endloop
  endfacet
  facet normal 0 0 1
    outer loop
      vertex 24.1163 14.2256 4
      vertex 22.103 12.691 4
      vertex 24.217 12.692 4
    endloop
  endfacet
  facet normal 0 0 1
    outer loop
      vertex 12.604 8.131 4
      vertex 11.7995 9.38699 4
      vertex 10.4989 7.54811 4
    endloop
  endfacet
  facet normal 0 0 1
    outer loop
      vertex 11.7995 9.38699 4
      vertex 9.41599 9.85988 4
      vertex 9.87099 8.62999 4
    endloop
  endfacet
  facet normal 0 0 1
    outer loop
      vertex 11.156 12.691 4
      vertex 9.14299 11.2135 4
      vertex 11.3169 10.907 4
    endloop
  endfacet
  facet normal 0 0 1
    outer loop
      vertex 11.3169 10.907 4
      vertex 9.14299 11.2135 4
      vertex 9.41599 9.85988 4
    endloop
  endfacet
  facet normal 0 0 1
    outer loop
      vertex 11.3151 14.4777 4
      vertex 9.05199 12.691 4
      vertex 11.156 12.691 4
    endloop
  endfacet
  facet normal 0 0 1
    outer loop
      vertex 11.156 12.691 4
      vertex 9.05199 12.691 4
      vertex 9.14299 11.2135 4
    endloop
  endfacet
  facet normal 0 0 1
    outer loop
      vertex 9.27499 14.9571 4
      vertex 9.05199 12.691 4
      vertex 11.3151 14.4777 4
    endloop
  endfacet
  facet normal 0 0 1
    outer loop
      vertex 11.059 18.422 4
      vertex 9.94398 16.8674 4
      vertex 11.7924 15.9777 4
    endloop
  endfacet
  facet normal 0 0 1
    outer loop
      vertex 11.7924 15.9777 4
      vertex 9.94398 16.8674 4
      vertex 9.27499 14.9571 4
    endloop
  endfacet
  facet normal 0 0 1
    outer loop
      vertex 11.059 18.422 4
      vertex 11.7924 15.9777 4
      vertex 12.588 17.191 4
    endloop
  endfacet
  facet normal 0 0 1
    outer loop
      vertex 12.5717 19.5698 4
      vertex 12.588 17.191 4
      vertex 13.6753 18.0827 4
    endloop
  endfacet
  facet normal -0 0 1
    outer loop
      vertex 12.5717 19.5698 4
      vertex 13.6753 18.0827 4
      vertex 14.4337 20.2584 4
    endloop
  endfacet
  facet normal 0 0 1
    outer loop
      vertex 18.1314 20.385 4
      vertex 16.645 20.488 4
      vertex 16.646 18.796 4
    endloop
  endfacet
  facet normal 0 0 1
    outer loop
      vertex 16.646 18.796 4
      vertex 16.645 20.488 4
      vertex 15.028 18.6177 4
    endloop
  endfacet
  facet normal -0 0 1
    outer loop
      vertex 18.2511 18.6152 4
      vertex 19.5944 18.0729 4
      vertex 19.4801 20.076 4
    endloop
  endfacet
  facet normal 0 0 1
    outer loop
      vertex 21.7439 18.8495 4
      vertex 20.691 19.561 4
      vertex 19.5944 18.0729 4
    endloop
  endfacet
  facet normal 0 -0 1
    outer loop
      vertex 19.5944 18.0729 4
      vertex 20.691 19.561 4
      vertex 19.4801 20.076 4
    endloop
  endfacet
  facet normal 0 0 1
    outer loop
      vertex 22.6172 17.9512 4
      vertex 21.7439 18.8495 4
      vertex 20.676 17.169 4
    endloop
  endfacet
  facet normal -0 0 1
    outer loop
      vertex 21.4688 15.9488 4
      vertex 23.8143 15.6169 4
      vertex 23.311 16.866 4
    endloop
  endfacet
  facet normal 0 -0 1
    outer loop
      vertex 22.103 12.691 4
      vertex 24.1163 14.2256 4
      vertex 21.9444 14.4561 4
    endloop
  endfacet
  facet normal -0 0 1
    outer loop
      vertex 21.9444 14.4561 4
      vertex 24.1163 14.2256 4
      vertex 23.8143 15.6169 4
    endloop
  endfacet
  facet normal 0 0 1
    outer loop
      vertex 22.103 12.691 4
      vertex 21.9457 10.853 4
      vertex 24.0362 10.6651 4
    endloop
  endfacet
  facet normal 0 0 1
    outer loop
      vertex 21.9457 10.853 4
      vertex 21.4737 9.31499 4
      vertex 23.4939 8.89377 4
    endloop
  endfacet
  facet normal 0 0 1
    outer loop
      vertex 21.4737 9.31499 4
      vertex 20.687 8.077 4
      vertex 22.59 7.37799 4
    endloop
  endfacet
  facet normal 0 0 1
    outer loop
      vertex 20.687 8.077 4
      vertex 19.6062 7.17032 4
      vertex 21.3642 6.17966 4
    endloop
  endfacet
  facet normal 0 0 1
    outer loop
      vertex 19.6062 7.17032 4
      vertex 19.8562 5.35933 4
      vertex 21.3642 6.17966 4
    endloop
  endfacet
  facet normal 0 0 1
    outer loop
      vertex 18.2519 6.62633 4
      vertex 18.066 4.91701 4
      vertex 19.8562 5.35933 4
    endloop
  endfacet
  facet normal -0 0 1
    outer loop
      vertex 16.624 6.44499 4
      vertex 18.066 4.91701 4
      vertex 18.2519 6.62633 4
    endloop
  endfacet
  facet normal 0 0 1
    outer loop
      vertex 43.6419 8.18399 4
      vertex 44.679 6.63977 4
      vertex 45.5499 7.403 4
    endloop
  endfacet
  facet normal 0 0 1
    outer loop
      vertex 43.6863 6.00076 4
      vertex 43.0517 7.69878 4
      vertex 42.3517 7.28577 4
    endloop
  endfacet
  facet normal 0 0 1
    outer loop
      vertex 33.7727 15.9952 4
      vertex 31.2686 14.9994 4
      vertex 33.3063 14.4989 4
    endloop
  endfacet
  facet normal -0 0 1
    outer loop
      vertex 31.934 16.9134 4
      vertex 33.7727 15.9952 4
      vertex 33.0429 18.455 4
    endloop
  endfacet
  facet normal 0 0 1
    outer loop
      vertex 36.4224 20.2621 4
      vertex 35.6218 18.0876 4
      vertex 36.9708 18.6189 4
    endloop
  endfacet
  facet normal 0 0 1
    outer loop
      vertex 33.316 10.9247 4
      vertex 33.1509 12.713 4
      vertex 31.1487 11.1685 4
    endloop
  endfacet
  facet normal 0 0 1
    outer loop
      vertex 42.5719 5.48599 4
      vertex 42.3517 7.28577 4
      vertex 41.5419 6.94499 4
    endloop
  endfacet
  facet normal 0 0 1
    outer loop
      vertex 40.6555 6.69167 4
      vertex 40.0896 4.88335 4
      vertex 41.364 5.10933 4
    endloop
  endfacet
  facet normal 0 -0 1
    outer loop
      vertex 45.5499 7.403 4
      vertex 45.5499 12.68 4
      vertex 43.6419 10.945 4
    endloop
  endfacet
  facet normal 0 -0 1
    outer loop
      vertex 43.6863 6.00076 4
      vertex 44.679 6.63977 4
      vertex 43.0517 7.69878 4
    endloop
  endfacet
  facet normal -0 0 1
    outer loop
      vertex 43.0517 7.69878 4
      vertex 44.679 6.63977 4
      vertex 43.6419 8.18399 4
    endloop
  endfacet
  facet normal 0 0 1
    outer loop
      vertex 42.3517 7.28577 4
      vertex 42.5719 5.48599 4
      vertex 43.6863 6.00076 4
    endloop
  endfacet
  facet normal 0 0 1
    outer loop
      vertex 41.5419 6.94499 4
      vertex 41.364 5.10933 4
      vertex 42.5719 5.48599 4
    endloop
  endfacet
  facet normal -0 0 1
    outer loop
      vertex 40.6555 6.69167 4
      vertex 41.364 5.10933 4
      vertex 41.5419 6.94499 4
    endloop
  endfacet
  facet normal -0 0 1
    outer loop
      vertex 39.7245 6.53966 4
      vertex 40.0896 4.88335 4
      vertex 40.6555 6.69167 4
    endloop
  endfacet
  facet normal 0 0 1
    outer loop
      vertex 38.7489 4.80801 4
      vertex 40.0896 4.88335 4
      vertex 39.7245 6.53966 4
    endloop
  endfacet
  facet normal 0 0 1
    outer loop
      vertex 38.7489 4.80801 4
      vertex 39.7245 6.53966 4
      vertex 38.7489 6.489 4
    endloop
  endfacet
  facet normal 0 0 1
    outer loop
      vertex 34.6369 8.15799 4
      vertex 33.8113 9.40633 4
      vertex 32.6651 7.40077 4
    endloop
  endfacet
  facet normal 0 -0 1
    outer loop
      vertex 37.2238 4.91368 4
      vertex 38.7489 6.489 4
      vertex 37.1253 6.67444 4
    endloop
  endfacet
  facet normal 0 0 1
    outer loop
      vertex 33.8113 9.40633 4
      vertex 33.316 10.9247 4
      vertex 31.454 9.76454 4
    endloop
  endfacet
  facet normal -0 0 1
    outer loop
      vertex 33.0429 18.455 4
      vertex 34.5499 17.202 4
      vertex 34.5531 19.5844 4
    endloop
  endfacet
  facet normal 0 -0 1
    outer loop
      vertex 35.6218 18.0876 4
      vertex 36.4224 20.2621 4
      vertex 34.5531 19.5844 4
    endloop
  endfacet
  facet normal 0 0 1
    outer loop
      vertex 38.6509 20.488 4
      vertex 36.9708 18.6189 4
      vertex 38.5969 18.796 4
    endloop
  endfacet
  facet normal 0 0 1
    outer loop
      vertex 40.6191 18.5338 4
      vertex 40.2373 20.3933 4
      vertex 39.6701 18.7304 4
    endloop
  endfacet
  facet normal 0 0 1
    outer loop
      vertex 40.2373 20.3933 4
      vertex 38.6509 20.488 4
      vertex 39.6701 18.7304 4
    endloop
  endfacet
  facet normal 0 0 1
    outer loop
      vertex 41.6113 20.1093 4
      vertex 40.6191 18.5338 4
      vertex 41.4439 18.206 4
    endloop
  endfacet
  facet normal 0 0 1
    outer loop
      vertex 40.2373 20.3933 4
      vertex 40.6191 18.5338 4
      vertex 41.6113 20.1093 4
    endloop
  endfacet
  facet normal -0 0 1
    outer loop
      vertex 41.4439 18.206 4
      vertex 42.1523 17.7351 4
      vertex 42.7729 19.636 4
    endloop
  endfacet
  facet normal -0 0 1
    outer loop
      vertex 42.1523 17.7351 4
      vertex 42.751 17.1091 4
      vertex 43.7481 18.9549 4
    endloop
  endfacet
  facet normal 0 0 1
    outer loop
      vertex 42.751 17.1091 4
      vertex 44.5618 18.0462 4
      vertex 43.7481 18.9549 4
    endloop
  endfacet
  facet normal 0 0 1
    outer loop
      vertex 45.2139 16.91 4
      vertex 44.5618 18.0462 4
      vertex 43.2399 16.328 4
    endloop
  endfacet
  facet normal 0 -0 1
    outer loop
      vertex 43.2399 16.328 4
      vertex 44.5618 18.0462 4
      vertex 42.751 17.1091 4
    endloop
  endfacet
  facet normal 0 0 1
    outer loop
      vertex 42.1523 17.7351 4
      vertex 43.7481 18.9549 4
      vertex 42.7729 19.636 4
    endloop
  endfacet
  facet normal 0 0 1
    outer loop
      vertex 41.4439 18.206 4
      vertex 42.7729 19.636 4
      vertex 41.6113 20.1093 4
    endloop
  endfacet
  facet normal 0 0 1
    outer loop
      vertex 35.6218 18.0876 4
      vertex 34.5531 19.5844 4
      vertex 34.5499 17.202 4
    endloop
  endfacet
  facet normal 0 0 1
    outer loop
      vertex 34.5499 17.202 4
      vertex 33.0429 18.455 4
      vertex 33.7727 15.9952 4
    endloop
  endfacet
  facet normal 0 0 1
    outer loop
      vertex 31.2686 14.9994 4
      vertex 33.7727 15.9952 4
      vertex 31.934 16.9134 4
    endloop
  endfacet
  facet normal 0 0 1
    outer loop
      vertex 31.0469 12.713 4
      vertex 33.3063 14.4989 4
      vertex 31.2686 14.9994 4
    endloop
  endfacet
  facet normal 0 -0 1
    outer loop
      vertex 31.1487 11.1685 4
      vertex 33.1509 12.713 4
      vertex 31.0469 12.713 4
    endloop
  endfacet
  facet normal 0 -0 1
    outer loop
      vertex 31.454 9.76454 4
      vertex 33.316 10.9247 4
      vertex 31.1487 11.1685 4
    endloop
  endfacet
  facet normal 0 -0 1
    outer loop
      vertex 31.9629 8.50099 4
      vertex 33.8113 9.40633 4
      vertex 31.454 9.76454 4
    endloop
  endfacet
  facet normal 0 -0 1
    outer loop
      vertex 32.6651 7.40077 4
      vertex 33.8113 9.40633 4
      vertex 31.9629 8.50099 4
    endloop
  endfacet
  facet normal 0 -0 1
    outer loop
      vertex 33.5491 6.48677 4
      vertex 34.6369 8.15799 4
      vertex 32.6651 7.40077 4
    endloop
  endfacet
  facet normal -0 0 1
    outer loop
      vertex 34.6149 5.75899 4
      vertex 35.8458 5.23065 4
      vertex 35.7547 7.23077 4
    endloop
  endfacet
  facet normal 0 -0 1
    outer loop
      vertex 35.8458 5.23065 4
      vertex 37.1253 6.67444 4
      vertex 35.7547 7.23077 4
    endloop
  endfacet
  facet normal 0 0 1
    outer loop
      vertex 37.2238 4.91368 4
      vertex 37.1253 6.67444 4
      vertex 35.8458 5.23065 4
    endloop
  endfacet
  facet normal 0 -0 1
    outer loop
      vertex 38.7489 4.80801 4
      vertex 38.7489 6.489 4
      vertex 37.2238 4.91368 4
    endloop
  endfacet
  facet normal 0.122833 -0.992427 0
    outer loop
      vertex 21.645 0.882233 2
      vertex 21.0013 0.802567 4
      vertex 21.0013 0.802567 2
    endloop
  endfacet
  facet normal 0.122833 -0.992427 0
    outer loop
      vertex 21.645 0.882233 2
      vertex 21.645 0.882233 4
      vertex 21.0013 0.802567 4
    endloop
  endfacet
  facet normal 0.196372 -0.980529 0
    outer loop
      vertex 22.308 1.01501 2
      vertex 21.645 0.882233 4
      vertex 21.645 0.882233 2
    endloop
  endfacet
  facet normal 0.196372 -0.980529 0
    outer loop
      vertex 22.308 1.01501 2
      vertex 22.308 1.01501 4
      vertex 21.645 0.882233 4
    endloop
  endfacet
  facet normal 1 0 0
    outer loop
      vertex 22.308 2.468 2
      vertex 22.308 1.01501 4
      vertex 22.308 1.01501 2
    endloop
  endfacet
  facet normal 1 0 -0
    outer loop
      vertex 22.308 2.468 2
      vertex 22.308 2.468 4
      vertex 22.308 1.01501 4
    endloop
  endfacet
  facet normal -0.180006 0.983666 0
    outer loop
      vertex 21.88 2.38968 2
      vertex 22.308 2.468 4
      vertex 22.308 2.468 2
    endloop
  endfacet
  facet normal -0.180006 0.983666 0
    outer loop
      vertex 21.88 2.38968 2
      vertex 21.88 2.38968 4
      vertex 22.308 2.468 4
    endloop
  endfacet
  facet normal -0.11226 0.993679 0
    outer loop
      vertex 21.464 2.34268 2
      vertex 21.88 2.38968 4
      vertex 21.88 2.38968 2
    endloop
  endfacet
  facet normal -0.11226 0.993679 0
    outer loop
      vertex 21.464 2.34268 2
      vertex 21.464 2.34268 4
      vertex 21.88 2.38968 4
    endloop
  endfacet
  facet normal -0.0387607 0.999249 0
    outer loop
      vertex 21.06 2.32701 2
      vertex 21.464 2.34268 4
      vertex 21.464 2.34268 2
    endloop
  endfacet
  facet normal -0.0387607 0.999249 0
    outer loop
      vertex 21.06 2.32701 2
      vertex 21.06 2.32701 4
      vertex 21.464 2.34268 4
    endloop
  endfacet
  facet normal 0.0971095 0.995274 0
    outer loop
      vertex 20.3653 2.39479 2
      vertex 21.06 2.32701 4
      vertex 21.06 2.32701 2
    endloop
  endfacet
  facet normal 0.0971095 0.995274 -0
    outer loop
      vertex 20.3653 2.39479 2
      vertex 20.3653 2.39479 4
      vertex 21.06 2.32701 4
    endloop
  endfacet
  facet normal 0.316527 0.948583 0
    outer loop
      vertex 19.756 2.59811 2
      vertex 20.3653 2.39479 4
      vertex 20.3653 2.39479 2
    endloop
  endfacet
  facet normal 0.316527 0.948583 -0
    outer loop
      vertex 19.756 2.59811 2
      vertex 19.756 2.59811 4
      vertex 20.3653 2.39479 4
    endloop
  endfacet
  facet normal 0.543068 0.839689 0
    outer loop
      vertex 19.232 2.93701 2
      vertex 19.756 2.59811 4
      vertex 19.756 2.59811 2
    endloop
  endfacet
  facet normal 0.543068 0.839689 -0
    outer loop
      vertex 19.232 2.93701 2
      vertex 19.232 2.93701 4
      vertex 19.756 2.59811 4
    endloop
  endfacet
  facet normal 0.736987 0.675907 0
    outer loop
      vertex 18.782 3.42767 2
      vertex 19.232 2.93701 4
      vertex 19.232 2.93701 2
    endloop
  endfacet
  facet normal 0.736987 0.675907 -0
    outer loop
      vertex 18.782 3.42767 2
      vertex 18.782 3.42767 4
      vertex 19.232 2.93701 4
    endloop
  endfacet
  facet normal 0.861686 0.507441 0
    outer loop
      vertex 18.3933 4.08768 2
      vertex 18.782 3.42767 4
      vertex 18.782 3.42767 2
    endloop
  endfacet
  facet normal 0.861686 0.507441 -0
    outer loop
      vertex 18.3933 4.08768 2
      vertex 18.3933 4.08768 4
      vertex 18.782 3.42767 4
    endloop
  endfacet
  facet normal 0.930169 0.367132 0
    outer loop
      vertex 18.066 4.91701 2
      vertex 18.3933 4.08768 4
      vertex 18.3933 4.08768 2
    endloop
  endfacet
  facet normal 0.930169 0.367132 -0
    outer loop
      vertex 18.066 4.91701 2
      vertex 18.066 4.91701 4
      vertex 18.3933 4.08768 4
    endloop
  endfacet
  facet normal 0.239863 -0.970807 0
    outer loop
      vertex 19.8562 5.35933 2
      vertex 18.066 4.91701 4
      vertex 18.066 4.91701 2
    endloop
  endfacet
  facet normal 0.239863 -0.970807 0
    outer loop
      vertex 19.8562 5.35933 2
      vertex 19.8562 5.35933 4
      vertex 18.066 4.91701 4
    endloop
  endfacet
  facet normal 0.477857 -0.878437 0
    outer loop
      vertex 21.3642 6.17966 2
      vertex 19.8562 5.35933 4
      vertex 19.8562 5.35933 2
    endloop
  endfacet
  facet normal 0.477857 -0.878437 0
    outer loop
      vertex 21.3642 6.17966 2
      vertex 21.3642 6.17966 4
      vertex 19.8562 5.35933 4
    endloop
  endfacet
  facet normal 0.699055 -0.715068 0
    outer loop
      vertex 22.59 7.37799 2
      vertex 21.3642 6.17966 4
      vertex 21.3642 6.17966 2
    endloop
  endfacet
  facet normal 0.699055 -0.715068 0
    outer loop
      vertex 22.59 7.37799 2
      vertex 22.59 7.37799 4
      vertex 21.3642 6.17966 4
    endloop
  endfacet
  facet normal 0.858885 -0.512168 0
    outer loop
      vertex 23.4939 8.89377 2
      vertex 22.59 7.37799 4
      vertex 22.59 7.37799 2
    endloop
  endfacet
  facet normal 0.858885 -0.512168 0
    outer loop
      vertex 23.4939 8.89377 2
      vertex 23.4939 8.89377 4
      vertex 22.59 7.37799 4
    endloop
  endfacet
  facet normal 0.956187 -0.292755 0
    outer loop
      vertex 24.0362 10.6651 2
      vertex 23.4939 8.89377 4
      vertex 23.4939 8.89377 2
    endloop
  endfacet
  facet normal 0.956187 -0.292755 0
    outer loop
      vertex 24.0362 10.6651 2
      vertex 24.0362 10.6651 4
      vertex 23.4939 8.89377 4
    endloop
  endfacet
  facet normal 0.996046 -0.0888413 0
    outer loop
      vertex 24.217 12.692 2
      vertex 24.0362 10.6651 4
      vertex 24.0362 10.6651 2
    endloop
  endfacet
  facet normal 0.996046 -0.0888413 0
    outer loop
      vertex 24.217 12.692 2
      vertex 24.217 12.692 4
      vertex 24.0362 10.6651 4
    endloop
  endfacet
  facet normal 0.997853 0.0654982 0
    outer loop
      vertex 24.1163 14.2256 2
      vertex 24.217 12.692 4
      vertex 24.217 12.692 2
    endloop
  endfacet
  facet normal 0.997853 0.0654982 -0
    outer loop
      vertex 24.1163 14.2256 2
      vertex 24.1163 14.2256 4
      vertex 24.217 12.692 4
    endloop
  endfacet
  facet normal 0.977243 0.212121 0
    outer loop
      vertex 23.8143 15.6169 2
      vertex 24.1163 14.2256 4
      vertex 24.1163 14.2256 2
    endloop
  endfacet
  facet normal 0.977243 0.212121 -0
    outer loop
      vertex 23.8143 15.6169 2
      vertex 23.8143 15.6169 4
      vertex 24.1163 14.2256 4
    endloop
  endfacet
  facet normal 0.927527 0.373755 0
    outer loop
      vertex 23.311 16.866 2
      vertex 23.8143 15.6169 4
      vertex 23.8143 15.6169 2
    endloop
  endfacet
  facet normal 0.927527 0.373755 -0
    outer loop
      vertex 23.311 16.866 2
      vertex 23.311 16.866 4
      vertex 23.8143 15.6169 4
    endloop
  endfacet
  facet normal 0.842543 0.53863 0
    outer loop
      vertex 22.6172 17.9512 2
      vertex 23.311 16.866 4
      vertex 23.311 16.866 2
    endloop
  endfacet
  facet normal 0.842543 0.53863 -0
    outer loop
      vertex 22.6172 17.9512 2
      vertex 22.6172 17.9512 4
      vertex 23.311 16.866 4
    endloop
  endfacet
  facet normal 0.717011 0.697062 0
    outer loop
      vertex 21.7439 18.8495 2
      vertex 22.6172 17.9512 4
      vertex 22.6172 17.9512 2
    endloop
  endfacet
  facet normal 0.717011 0.697062 -0
    outer loop
      vertex 21.7439 18.8495 2
      vertex 21.7439 18.8495 4
      vertex 22.6172 17.9512 4
    endloop
  endfacet
  facet normal 0.559874 0.828578 0
    outer loop
      vertex 20.691 19.561 2
      vertex 21.7439 18.8495 4
      vertex 21.7439 18.8495 2
    endloop
  endfacet
  facet normal 0.559874 0.828578 -0
    outer loop
      vertex 20.691 19.561 2
      vertex 20.691 19.561 4
      vertex 21.7439 18.8495 4
    endloop
  endfacet
  facet normal 0.391379 0.92023 0
    outer loop
      vertex 19.4801 20.076 2
      vertex 20.691 19.561 4
      vertex 20.691 19.561 2
    endloop
  endfacet
  facet normal 0.391379 0.92023 -0
    outer loop
      vertex 19.4801 20.076 2
      vertex 19.4801 20.076 4
      vertex 20.691 19.561 4
    endloop
  endfacet
  facet normal 0.223333 0.974742 0
    outer loop
      vertex 18.1314 20.385 2
      vertex 19.4801 20.076 4
      vertex 19.4801 20.076 2
    endloop
  endfacet
  facet normal 0.223333 0.974742 -0
    outer loop
      vertex 18.1314 20.385 2
      vertex 18.1314 20.385 4
      vertex 19.4801 20.076 4
    endloop
  endfacet
  facet normal 0.0691247 0.997608 0
    outer loop
      vertex 16.645 20.488 2
      vertex 18.1314 20.385 4
      vertex 18.1314 20.385 2
    endloop
  endfacet
  facet normal 0.0691247 0.997608 -0
    outer loop
      vertex 16.645 20.488 2
      vertex 16.645 20.488 4
      vertex 18.1314 20.385 4
    endloop
  endfacet
  facet normal -0.103253 0.994655 0
    outer loop
      vertex 14.4337 20.2584 2
      vertex 16.645 20.488 4
      vertex 16.645 20.488 2
    endloop
  endfacet
  facet normal -0.103253 0.994655 0
    outer loop
      vertex 14.4337 20.2584 2
      vertex 14.4337 20.2584 4
      vertex 16.645 20.488 4
    endloop
  endfacet
  facet normal -0.346892 0.937905 0
    outer loop
      vertex 12.5717 19.5698 2
      vertex 14.4337 20.2584 4
      vertex 14.4337 20.2584 2
    endloop
  endfacet
  facet normal -0.346892 0.937905 0
    outer loop
      vertex 12.5717 19.5698 2
      vertex 12.5717 19.5698 4
      vertex 14.4337 20.2584 4
    endloop
  endfacet
  facet normal -0.604462 0.796634 0
    outer loop
      vertex 11.059 18.422 2
      vertex 12.5717 19.5698 4
      vertex 12.5717 19.5698 2
    endloop
  endfacet
  facet normal -0.604462 0.796634 0
    outer loop
      vertex 11.059 18.422 2
      vertex 11.059 18.422 4
      vertex 12.5717 19.5698 4
    endloop
  endfacet
  facet normal -0.812594 0.58283 0
    outer loop
      vertex 9.94398 16.8674 2
      vertex 11.059 18.422 4
      vertex 11.059 18.422 2
    endloop
  endfacet
  facet normal -0.812594 0.58283 0
    outer loop
      vertex 9.94398 16.8674 2
      vertex 9.94398 16.8674 4
      vertex 11.059 18.422 4
    endloop
  endfacet
  facet normal -0.9438 0.330517 0
    outer loop
      vertex 9.27499 14.9571 2
      vertex 9.94398 16.8674 4
      vertex 9.94398 16.8674 2
    endloop
  endfacet
  facet normal -0.9438 0.330517 0
    outer loop
      vertex 9.27499 14.9571 2
      vertex 9.27499 14.9571 4
      vertex 9.94398 16.8674 4
    endloop
  endfacet
  facet normal -0.995193 0.0979365 0
    outer loop
      vertex 9.05199 12.691 2
      vertex 9.27499 14.9571 4
      vertex 9.27499 14.9571 2
    endloop
  endfacet
  facet normal -0.995193 0.0979365 0
    outer loop
      vertex 9.05199 12.691 2
      vertex 9.05199 12.691 4
      vertex 9.27499 14.9571 4
    endloop
  endfacet
  facet normal -0.998108 -0.0614785 0
    outer loop
      vertex 9.14299 11.2135 2
      vertex 9.05199 12.691 4
      vertex 9.05199 12.691 2
    endloop
  endfacet
  facet normal -0.998108 -0.0614785 0
    outer loop
      vertex 9.14299 11.2135 2
      vertex 9.14299 11.2135 4
      vertex 9.05199 12.691 4
    endloop
  endfacet
  facet normal -0.980264 -0.19769 0
    outer loop
      vertex 9.41599 9.85988 2
      vertex 9.14299 11.2135 4
      vertex 9.14299 11.2135 2
    endloop
  endfacet
  facet normal -0.980264 -0.19769 0
    outer loop
      vertex 9.41599 9.85988 2
      vertex 9.41599 9.85988 4
      vertex 9.14299 11.2135 4
    endloop
  endfacet
  facet normal -0.937876 -0.346971 0
    outer loop
      vertex 9.87099 8.62999 2
      vertex 9.41599 9.85988 4
      vertex 9.41599 9.85988 2
    endloop
  endfacet
  facet normal -0.937876 -0.346971 0
    outer loop
      vertex 9.87099 8.62999 2
      vertex 9.87099 8.62999 4
      vertex 9.41599 9.85988 4
    endloop
  endfacet
  facet normal -0.864889 -0.501963 0
    outer loop
      vertex 10.4989 7.54811 2
      vertex 9.87099 8.62999 4
      vertex 9.87099 8.62999 2
    endloop
  endfacet
  facet normal -0.864889 -0.501963 0
    outer loop
      vertex 10.4989 7.54811 2
      vertex 10.4989 7.54811 4
      vertex 9.87099 8.62999 4
    endloop
  endfacet
  facet normal -0.754822 -0.65593 0
    outer loop
      vertex 11.2905 6.6371 2
      vertex 10.4989 7.54811 4
      vertex 10.4989 7.54811 2
    endloop
  endfacet
  facet normal -0.754822 -0.65593 0
    outer loop
      vertex 11.2905 6.6371 2
      vertex 11.2905 6.6371 4
      vertex 10.4989 7.54811 4
    endloop
  endfacet
  facet normal -0.612387 -0.790558 0
    outer loop
      vertex 12.246 5.89699 2
      vertex 11.2905 6.6371 4
      vertex 11.2905 6.6371 2
    endloop
  endfacet
  facet normal -0.612387 -0.790558 0
    outer loop
      vertex 12.246 5.89699 2
      vertex 12.246 5.89699 4
      vertex 11.2905 6.6371 4
    endloop
  endfacet
  facet normal -0.450548 -0.892752 0
    outer loop
      vertex 13.3497 5.34 2
      vertex 12.246 5.89699 4
      vertex 12.246 5.89699 2
    endloop
  endfacet
  facet normal -0.450548 -0.892752 0
    outer loop
      vertex 13.3497 5.34 2
      vertex 13.3497 5.34 4
      vertex 12.246 5.89699 4
    endloop
  endfacet
  facet normal -0.281992 -0.959417 0
    outer loop
      vertex 14.5847 4.97701 2
      vertex 13.3497 5.34 4
      vertex 13.3497 5.34 2
    endloop
  endfacet
  facet normal -0.281992 -0.959417 0
    outer loop
      vertex 14.5847 4.97701 2
      vertex 14.5847 4.97701 4
      vertex 13.3497 5.34 4
    endloop
  endfacet
  facet normal -0.122747 -0.992438 0
    outer loop
      vertex 15.951 4.80801 2
      vertex 14.5847 4.97701 4
      vertex 14.5847 4.97701 2
    endloop
  endfacet
  facet normal -0.122747 -0.992438 0
    outer loop
      vertex 15.951 4.80801 2
      vertex 15.951 4.80801 4
      vertex 14.5847 4.97701 4
    endloop
  endfacet
  facet normal -0.936398 -0.350939 0
    outer loop
      vertex 16.4423 3.49701 2
      vertex 15.951 4.80801 4
      vertex 15.951 4.80801 2
    endloop
  endfacet
  facet normal -0.936398 -0.350939 0
    outer loop
      vertex 16.4423 3.49701 2
      vertex 16.4423 3.49701 4
      vertex 15.951 4.80801 4
    endloop
  endfacet
  facet normal -0.873423 -0.486963 0
    outer loop
      vertex 17.019 2.46268 2
      vertex 16.4423 3.49701 4
      vertex 16.4423 3.49701 2
    endloop
  endfacet
  facet normal -0.873423 -0.486963 0
    outer loop
      vertex 17.019 2.46268 2
      vertex 17.019 2.46268 4
      vertex 16.4423 3.49701 4
    endloop
  endfacet
  facet normal -0.753051 -0.657962 0
    outer loop
      vertex 17.681 1.705 2
      vertex 17.019 2.46268 4
      vertex 17.019 2.46268 2
    endloop
  endfacet
  facet normal -0.753051 -0.657962 0
    outer loop
      vertex 17.681 1.705 2
      vertex 17.681 1.705 4
      vertex 17.019 2.46268 4
    endloop
  endfacet
  facet normal -0.556875 -0.830596 0
    outer loop
      vertex 18.4508 1.1889 2
      vertex 17.681 1.705 4
      vertex 17.681 1.705 2
    endloop
  endfacet
  facet normal -0.556875 -0.830596 0
    outer loop
      vertex 18.4508 1.1889 2
      vertex 18.4508 1.1889 4
      vertex 17.681 1.705 4
    endloop
  endfacet
  facet normal -0.325795 -0.94544 0
    outer loop
      vertex 19.3494 0.879227 2
      vertex 18.4508 1.1889 4
      vertex 18.4508 1.1889 2
    endloop
  endfacet
  facet normal -0.325795 -0.94544 0
    outer loop
      vertex 19.3494 0.879227 2
      vertex 19.3494 0.879227 4
      vertex 18.4508 1.1889 4
    endloop
  endfacet
  facet normal -0.0999543 -0.994992 0
    outer loop
      vertex 20.377 0.776001 2
      vertex 19.3494 0.879227 4
      vertex 19.3494 0.879227 2
    endloop
  endfacet
  facet normal -0.0999543 -0.994992 0
    outer loop
      vertex 20.377 0.776001 2
      vertex 20.377 0.776001 4
      vertex 19.3494 0.879227 4
    endloop
  endfacet
  facet normal 0.0425121 -0.999096 0
    outer loop
      vertex 21.0013 0.802567 2
      vertex 20.377 0.776001 4
      vertex 20.377 0.776001 2
    endloop
  endfacet
  facet normal 0.0425121 -0.999096 0
    outer loop
      vertex 21.0013 0.802567 2
      vertex 21.0013 0.802567 4
      vertex 20.377 0.776001 4
    endloop
  endfacet
  facet normal 0.386763 0.922179 -0
    outer loop
      vertex 13.6947 7.19432 2
      vertex 13.6947 7.19432 4
      vertex 15.0347 6.63232 2
    endloop
  endfacet
  facet normal 0.386763 0.922179 0
    outer loop
      vertex 15.0347 6.63232 4
      vertex 15.0347 6.63232 2
      vertex 13.6947 7.19432 4
    endloop
  endfacet
  facet normal 0.65152 0.758631 -0
    outer loop
      vertex 12.604 8.131 2
      vertex 12.604 8.131 4
      vertex 13.6947 7.19432 2
    endloop
  endfacet
  facet normal 0.65152 0.758631 0
    outer loop
      vertex 13.6947 7.19432 4
      vertex 13.6947 7.19432 2
      vertex 12.604 8.131 4
    endloop
  endfacet
  facet normal 0.842087 0.539342 -0
    outer loop
      vertex 11.7995 9.38699 2
      vertex 11.7995 9.38699 4
      vertex 12.604 8.131 2
    endloop
  endfacet
  facet normal 0.842087 0.539342 0
    outer loop
      vertex 12.604 8.131 4
      vertex 12.604 8.131 2
      vertex 11.7995 9.38699 4
    endloop
  endfacet
  facet normal 0.953102 0.30265 -0
    outer loop
      vertex 11.3169 10.907 2
      vertex 11.3169 10.907 4
      vertex 11.7995 9.38699 2
    endloop
  endfacet
  facet normal 0.953102 0.30265 0
    outer loop
      vertex 11.7995 9.38699 4
      vertex 11.7995 9.38699 2
      vertex 11.3169 10.907 4
    endloop
  endfacet
  facet normal 0.995958 0.0898199 -0
    outer loop
      vertex 11.156 12.691 2
      vertex 11.156 12.691 4
      vertex 11.3169 10.907 2
    endloop
  endfacet
  facet normal 0.995958 0.0898199 0
    outer loop
      vertex 11.3169 10.907 4
      vertex 11.3169 10.907 2
      vertex 11.156 12.691 4
    endloop
  endfacet
  facet normal 0.996058 -0.0887078 0
    outer loop
      vertex 11.3151 14.4777 2
      vertex 11.3151 14.4777 4
      vertex 11.156 12.691 2
    endloop
  endfacet
  facet normal 0.996058 -0.0887078 0
    outer loop
      vertex 11.156 12.691 4
      vertex 11.156 12.691 2
      vertex 11.3151 14.4777 4
    endloop
  endfacet
  facet normal 0.952916 -0.303234 0
    outer loop
      vertex 11.7924 15.9777 2
      vertex 11.7924 15.9777 4
      vertex 11.3151 14.4777 2
    endloop
  endfacet
  facet normal 0.952916 -0.303234 0
    outer loop
      vertex 11.3151 14.4777 4
      vertex 11.3151 14.4777 2
      vertex 11.7924 15.9777 4
    endloop
  endfacet
  facet normal 0.836265 -0.548325 0
    outer loop
      vertex 12.588 17.191 2
      vertex 12.588 17.191 4
      vertex 11.7924 15.9777 2
    endloop
  endfacet
  facet normal 0.836265 -0.548325 0
    outer loop
      vertex 11.7924 15.9777 4
      vertex 11.7924 15.9777 2
      vertex 12.588 17.191 4
    endloop
  endfacet
  facet normal 0.634103 -0.773249 0
    outer loop
      vertex 13.6753 18.0827 2
      vertex 13.6753 18.0827 4
      vertex 12.588 17.191 2
    endloop
  endfacet
  facet normal 0.634103 -0.773249 0
    outer loop
      vertex 12.588 17.191 4
      vertex 12.588 17.191 2
      vertex 13.6753 18.0827 4
    endloop
  endfacet
  facet normal 0.367792 -0.929908 0
    outer loop
      vertex 15.028 18.6177 2
      vertex 15.028 18.6177 4
      vertex 13.6753 18.0827 2
    endloop
  endfacet
  facet normal 0.367792 -0.929908 0
    outer loop
      vertex 13.6753 18.0827 4
      vertex 13.6753 18.0827 2
      vertex 15.028 18.6177 4
    endloop
  endfacet
  facet normal 0.109553 -0.993981 0
    outer loop
      vertex 16.646 18.796 2
      vertex 16.646 18.796 4
      vertex 15.028 18.6177 2
    endloop
  endfacet
  facet normal 0.109553 -0.993981 0
    outer loop
      vertex 15.028 18.6177 4
      vertex 15.028 18.6177 2
      vertex 16.646 18.796 4
    endloop
  endfacet
  facet normal -0.111915 -0.993718 0
    outer loop
      vertex 18.2511 18.6152 2
      vertex 18.2511 18.6152 4
      vertex 16.646 18.796 2
    endloop
  endfacet
  facet normal -0.111915 -0.993718 -0
    outer loop
      vertex 16.646 18.796 4
      vertex 16.646 18.796 2
      vertex 18.2511 18.6152 4
    endloop
  endfacet
  facet normal -0.374369 -0.92728 0
    outer loop
      vertex 19.5944 18.0729 2
      vertex 19.5944 18.0729 4
      vertex 18.2511 18.6152 2
    endloop
  endfacet
  facet normal -0.374369 -0.92728 -0
    outer loop
      vertex 18.2511 18.6152 4
      vertex 18.2511 18.6152 2
      vertex 19.5944 18.0729 4
    endloop
  endfacet
  facet normal -0.641267 -0.767318 0
    outer loop
      vertex 20.676 17.169 2
      vertex 20.676 17.169 4
      vertex 19.5944 18.0729 2
    endloop
  endfacet
  facet normal -0.641267 -0.767318 -0
    outer loop
      vertex 19.5944 18.0729 4
      vertex 19.5944 18.0729 2
      vertex 20.676 17.169 4
    endloop
  endfacet
  facet normal -0.83856 -0.54481 0
    outer loop
      vertex 21.4688 15.9488 2
      vertex 21.4688 15.9488 4
      vertex 20.676 17.169 2
    endloop
  endfacet
  facet normal -0.83856 -0.54481 -0
    outer loop
      vertex 20.676 17.169 4
      vertex 20.676 17.169 2
      vertex 21.4688 15.9488 4
    endloop
  endfacet
  facet normal -0.95279 -0.30363 0
    outer loop
      vertex 21.9444 14.4561 2
      vertex 21.9444 14.4561 4
      vertex 21.4688 15.9488 2
    endloop
  endfacet
  facet normal -0.95279 -0.30363 -0
    outer loop
      vertex 21.4688 15.9488 4
      vertex 21.4688 15.9488 2
      vertex 21.9444 14.4561 4
    endloop
  endfacet
  facet normal -0.99599 -0.0894667 0
    outer loop
      vertex 22.103 12.691 2
      vertex 22.103 12.691 4
      vertex 21.9444 14.4561 2
    endloop
  endfacet
  facet normal -0.99599 -0.0894667 -0
    outer loop
      vertex 21.9444 14.4561 4
      vertex 21.9444 14.4561 2
      vertex 22.103 12.691 4
    endloop
  endfacet
  facet normal -0.996356 0.0852885 0
    outer loop
      vertex 21.9457 10.853 2
      vertex 21.9457 10.853 4
      vertex 22.103 12.691 2
    endloop
  endfacet
  facet normal -0.996356 0.0852885 0
    outer loop
      vertex 22.103 12.691 4
      vertex 22.103 12.691 2
      vertex 21.9457 10.853 4
    endloop
  endfacet
  facet normal -0.955994 0.293385 0
    outer loop
      vertex 21.4737 9.31499 2
      vertex 21.4737 9.31499 4
      vertex 21.9457 10.853 2
    endloop
  endfacet
  facet normal -0.955994 0.293385 0
    outer loop
      vertex 21.9457 10.853 4
      vertex 21.9457 10.853 2
      vertex 21.4737 9.31499 4
    endloop
  endfacet
  facet normal -0.844015 0.536319 0
    outer loop
      vertex 20.687 8.077 2
      vertex 20.687 8.077 4
      vertex 21.4737 9.31499 2
    endloop
  endfacet
  facet normal -0.844015 0.536319 0
    outer loop
      vertex 21.4737 9.31499 4
      vertex 21.4737 9.31499 2
      vertex 20.687 8.077 4
    endloop
  endfacet
  facet normal -0.642702 0.766116 0
    outer loop
      vertex 19.6062 7.17032 2
      vertex 19.6062 7.17032 4
      vertex 20.687 8.077 2
    endloop
  endfacet
  facet normal -0.642702 0.766116 0
    outer loop
      vertex 20.687 8.077 4
      vertex 20.687 8.077 2
      vertex 19.6062 7.17032 4
    endloop
  endfacet
  facet normal -0.372722 0.927943 0
    outer loop
      vertex 18.2519 6.62633 2
      vertex 18.2519 6.62633 4
      vertex 19.6062 7.17032 2
    endloop
  endfacet
  facet normal -0.372722 0.927943 0
    outer loop
      vertex 19.6062 7.17032 4
      vertex 19.6062 7.17032 2
      vertex 18.2519 6.62633 4
    endloop
  endfacet
  facet normal -0.110709 0.993853 0
    outer loop
      vertex 16.624 6.44499 2
      vertex 16.624 6.44499 4
      vertex 18.2519 6.62633 2
    endloop
  endfacet
  facet normal -0.110709 0.993853 0
    outer loop
      vertex 18.2519 6.62633 4
      vertex 18.2519 6.62633 2
      vertex 16.624 6.44499 4
    endloop
  endfacet
  facet normal 0.117058 0.993125 -0
    outer loop
      vertex 15.0347 6.63232 2
      vertex 15.0347 6.63232 4
      vertex 16.624 6.44499 2
    endloop
  endfacet
  facet normal 0.117058 0.993125 0
    outer loop
      vertex 16.624 6.44499 4
      vertex 16.624 6.44499 2
      vertex 15.0347 6.63232 4
    endloop
  endfacet
  facet normal 0.174609 -0.984638 0
    outer loop
      vertex 41.364 5.10933 2
      vertex 40.0896 4.88335 4
      vertex 40.0896 4.88335 2
    endloop
  endfacet
  facet normal 0.174609 -0.984638 0
    outer loop
      vertex 41.364 5.10933 2
      vertex 41.364 5.10933 4
      vertex 40.0896 4.88335 4
    endloop
  endfacet
  facet normal 0.297698 -0.95466 0
    outer loop
      vertex 42.5719 5.48599 2
      vertex 41.364 5.10933 4
      vertex 41.364 5.10933 2
    endloop
  endfacet
  facet normal 0.297698 -0.95466 0
    outer loop
      vertex 42.5719 5.48599 2
      vertex 42.5719 5.48599 4
      vertex 41.364 5.10933 4
    endloop
  endfacet
  facet normal 0.419331 -0.907833 0
    outer loop
      vertex 43.6863 6.00076 2
      vertex 42.5719 5.48599 4
      vertex 42.5719 5.48599 2
    endloop
  endfacet
  facet normal 0.419331 -0.907833 0
    outer loop
      vertex 43.6863 6.00076 2
      vertex 43.6863 6.00076 4
      vertex 42.5719 5.48599 4
    endloop
  endfacet
  facet normal 0.541278 -0.840844 0
    outer loop
      vertex 44.679 6.63977 2
      vertex 43.6863 6.00076 4
      vertex 43.6863 6.00076 2
    endloop
  endfacet
  facet normal 0.541278 -0.840844 0
    outer loop
      vertex 44.679 6.63977 2
      vertex 44.679 6.63977 4
      vertex 43.6863 6.00076 4
    endloop
  endfacet
  facet normal 0.659089 -0.752065 0
    outer loop
      vertex 45.5499 7.403 2
      vertex 44.679 6.63977 4
      vertex 44.679 6.63977 2
    endloop
  endfacet
  facet normal 0.659089 -0.752065 0
    outer loop
      vertex 45.5499 7.403 2
      vertex 45.5499 7.403 4
      vertex 44.679 6.63977 4
    endloop
  endfacet
  facet normal 1 0 0
    outer loop
      vertex 45.5499 12.68 2
      vertex 45.5499 7.403 4
      vertex 45.5499 7.403 2
    endloop
  endfacet
  facet normal 1 0 -0
    outer loop
      vertex 45.5499 12.68 2
      vertex 45.5499 12.68 4
      vertex 45.5499 7.403 4
    endloop
  endfacet
  facet normal 0 1 0
    outer loop
      vertex 39.0739 12.68 2
      vertex 45.5499 12.68 4
      vertex 45.5499 12.68 2
    endloop
  endfacet
  facet normal 0 1 0
    outer loop
      vertex 39.0739 12.68 2
      vertex 39.0739 12.68 4
      vertex 45.5499 12.68 4
    endloop
  endfacet
  facet normal -1 0 0
    outer loop
      vertex 39.0739 10.945 2
      vertex 39.0739 12.68 4
      vertex 39.0739 12.68 2
    endloop
  endfacet
  facet normal -1 0 0
    outer loop
      vertex 39.0739 10.945 2
      vertex 39.0739 10.945 4
      vertex 39.0739 12.68 4
    endloop
  endfacet
  facet normal 0 -1 0
    outer loop
      vertex 43.6419 10.945 2
      vertex 39.0739 10.945 4
      vertex 39.0739 10.945 2
    endloop
  endfacet
  facet normal 0 -1 0
    outer loop
      vertex 43.6419 10.945 2
      vertex 43.6419 10.945 4
      vertex 39.0739 10.945 4
    endloop
  endfacet
  facet normal -1 0 0
    outer loop
      vertex 43.6419 8.18399 2
      vertex 43.6419 10.945 4
      vertex 43.6419 10.945 2
    endloop
  endfacet
  facet normal -1 0 0
    outer loop
      vertex 43.6419 8.18399 2
      vertex 43.6419 8.18399 4
      vertex 43.6419 10.945 4
    endloop
  endfacet
  facet normal -0.635041 0.772478 0
    outer loop
      vertex 43.0517 7.69878 2
      vertex 43.6419 8.18399 4
      vertex 43.6419 8.18399 2
    endloop
  endfacet
  facet normal -0.635041 0.772478 0
    outer loop
      vertex 43.0517 7.69878 2
      vertex 43.0517 7.69878 4
      vertex 43.6419 8.18399 4
    endloop
  endfacet
  facet normal -0.508159 0.861263 0
    outer loop
      vertex 42.3517 7.28577 2
      vertex 43.0517 7.69878 4
      vertex 43.0517 7.69878 2
    endloop
  endfacet
  facet normal -0.508159 0.861263 0
    outer loop
      vertex 42.3517 7.28577 2
      vertex 42.3517 7.28577 4
      vertex 43.0517 7.69878 4
    endloop
  endfacet
  facet normal -0.387876 0.921712 0
    outer loop
      vertex 41.5419 6.94499 2
      vertex 42.3517 7.28577 4
      vertex 42.3517 7.28577 2
    endloop
  endfacet
  facet normal -0.387876 0.921712 0
    outer loop
      vertex 41.5419 6.94499 2
      vertex 41.5419 6.94499 4
      vertex 42.3517 7.28577 4
    endloop
  endfacet
  facet normal -0.274813 0.961498 0
    outer loop
      vertex 40.6555 6.69167 2
      vertex 41.5419 6.94499 4
      vertex 41.5419 6.94499 2
    endloop
  endfacet
  facet normal -0.274813 0.961498 0
    outer loop
      vertex 40.6555 6.69167 2
      vertex 40.6555 6.69167 4
      vertex 41.5419 6.94499 4
    endloop
  endfacet
  facet normal -0.16114 0.986932 0
    outer loop
      vertex 39.7245 6.53966 2
      vertex 40.6555 6.69167 4
      vertex 40.6555 6.69167 2
    endloop
  endfacet
  facet normal -0.16114 0.986932 0
    outer loop
      vertex 39.7245 6.53966 2
      vertex 39.7245 6.53966 4
      vertex 40.6555 6.69167 4
    endloop
  endfacet
  facet normal -0.0518522 0.998655 0
    outer loop
      vertex 38.7489 6.489 2
      vertex 39.7245 6.53966 4
      vertex 39.7245 6.53966 2
    endloop
  endfacet
  facet normal -0.0518522 0.998655 0
    outer loop
      vertex 38.7489 6.489 2
      vertex 38.7489 6.489 4
      vertex 39.7245 6.53966 4
    endloop
  endfacet
  facet normal 0.113481 0.99354 0
    outer loop
      vertex 37.1253 6.67444 2
      vertex 38.7489 6.489 4
      vertex 38.7489 6.489 2
    endloop
  endfacet
  facet normal 0.113481 0.99354 -0
    outer loop
      vertex 37.1253 6.67444 2
      vertex 37.1253 6.67444 4
      vertex 38.7489 6.489 4
    endloop
  endfacet
  facet normal 0.376088 0.926584 0
    outer loop
      vertex 35.7547 7.23077 2
      vertex 37.1253 6.67444 4
      vertex 37.1253 6.67444 2
    endloop
  endfacet
  facet normal 0.376088 0.926584 -0
    outer loop
      vertex 35.7547 7.23077 2
      vertex 35.7547 7.23077 4
      vertex 37.1253 6.67444 4
    endloop
  endfacet
  facet normal 0.638448 0.769665 0
    outer loop
      vertex 34.6369 8.15799 2
      vertex 35.7547 7.23077 4
      vertex 35.7547 7.23077 2
    endloop
  endfacet
  facet normal 0.638448 0.769665 -0
    outer loop
      vertex 34.6369 8.15799 2
      vertex 34.6369 8.15799 4
      vertex 35.7547 7.23077 4
    endloop
  endfacet
  facet normal 0.834104 0.551607 0
    outer loop
      vertex 33.8113 9.40633 2
      vertex 34.6369 8.15799 4
      vertex 34.6369 8.15799 2
    endloop
  endfacet
  facet normal 0.834104 0.551607 -0
    outer loop
      vertex 33.8113 9.40633 2
      vertex 33.8113 9.40633 4
      vertex 34.6369 8.15799 4
    endloop
  endfacet
  facet normal 0.950686 0.310156 0
    outer loop
      vertex 33.316 10.9247 2
      vertex 33.8113 9.40633 4
      vertex 33.8113 9.40633 2
    endloop
  endfacet
  facet normal 0.950686 0.310156 -0
    outer loop
      vertex 33.316 10.9247 2
      vertex 33.316 10.9247 4
      vertex 33.8113 9.40633 4
    endloop
  endfacet
  facet normal 0.995766 0.0919291 0
    outer loop
      vertex 33.1509 12.713 2
      vertex 33.316 10.9247 4
      vertex 33.316 10.9247 2
    endloop
  endfacet
  facet normal 0.995766 0.0919291 -0
    outer loop
      vertex 33.1509 12.713 2
      vertex 33.1509 12.713 4
      vertex 33.316 10.9247 4
    endloop
  endfacet
  facet normal 0.996234 -0.0867108 0
    outer loop
      vertex 33.3063 14.4989 2
      vertex 33.1509 12.713 4
      vertex 33.1509 12.713 2
    endloop
  endfacet
  facet normal 0.996234 -0.0867108 0
    outer loop
      vertex 33.3063 14.4989 2
      vertex 33.3063 14.4989 4
      vertex 33.1509 12.713 4
    endloop
  endfacet
  facet normal 0.954709 -0.297542 0
    outer loop
      vertex 33.7727 15.9952 2
      vertex 33.3063 14.4989 4
      vertex 33.3063 14.4989 2
    endloop
  endfacet
  facet normal 0.954709 -0.297542 0
    outer loop
      vertex 33.7727 15.9952 2
      vertex 33.7727 15.9952 4
      vertex 33.3063 14.4989 4
    endloop
  endfacet
  facet normal 0.840725 -0.541462 0
    outer loop
      vertex 34.5499 17.202 2
      vertex 33.7727 15.9952 4
      vertex 33.7727 15.9952 2
    endloop
  endfacet
  facet normal 0.840725 -0.541462 0
    outer loop
      vertex 34.5499 17.202 2
      vertex 34.5499 17.202 4
      vertex 33.7727 15.9952 4
    endloop
  endfacet
  facet normal 0.63692 -0.77093 0
    outer loop
      vertex 35.6218 18.0876 2
      vertex 34.5499 17.202 4
      vertex 34.5499 17.202 2
    endloop
  endfacet
  facet normal 0.63692 -0.77093 0
    outer loop
      vertex 35.6218 18.0876 2
      vertex 35.6218 18.0876 4
      vertex 34.5499 17.202 4
    endloop
  endfacet
  facet normal 0.366466 -0.930431 0
    outer loop
      vertex 36.9708 18.6189 2
      vertex 35.6218 18.0876 4
      vertex 35.6218 18.0876 2
    endloop
  endfacet
  facet normal 0.366466 -0.930431 0
    outer loop
      vertex 36.9708 18.6189 2
      vertex 36.9708 18.6189 4
      vertex 35.6218 18.0876 4
    endloop
  endfacet
  facet normal 0.108275 -0.994121 0
    outer loop
      vertex 38.5969 18.796 2
      vertex 36.9708 18.6189 4
      vertex 36.9708 18.6189 2
    endloop
  endfacet
  facet normal 0.108275 -0.994121 0
    outer loop
      vertex 38.5969 18.796 2
      vertex 38.5969 18.796 4
      vertex 36.9708 18.6189 4
    endloop
  endfacet
  facet normal -0.0609655 -0.99814 0
    outer loop
      vertex 39.6701 18.7304 2
      vertex 38.5969 18.796 4
      vertex 38.5969 18.796 2
    endloop
  endfacet
  facet normal -0.0609655 -0.99814 0
    outer loop
      vertex 39.6701 18.7304 2
      vertex 39.6701 18.7304 4
      vertex 38.5969 18.796 4
    endloop
  endfacet
  facet normal -0.20293 -0.979193 0
    outer loop
      vertex 40.6191 18.5338 2
      vertex 39.6701 18.7304 4
      vertex 39.6701 18.7304 2
    endloop
  endfacet
  facet normal -0.20293 -0.979193 0
    outer loop
      vertex 40.6191 18.5338 2
      vertex 40.6191 18.5338 4
      vertex 39.6701 18.7304 4
    endloop
  endfacet
  facet normal -0.369312 -0.929306 0
    outer loop
      vertex 41.4439 18.206 2
      vertex 40.6191 18.5338 4
      vertex 40.6191 18.5338 2
    endloop
  endfacet
  facet normal -0.369312 -0.929306 0
    outer loop
      vertex 41.4439 18.206 2
      vertex 41.4439 18.206 4
      vertex 40.6191 18.5338 4
    endloop
  endfacet
  facet normal -0.553557 -0.832811 0
    outer loop
      vertex 42.1523 17.7351 2
      vertex 41.4439 18.206 4
      vertex 41.4439 18.206 2
    endloop
  endfacet
  facet normal -0.553557 -0.832811 0
    outer loop
      vertex 42.1523 17.7351 2
      vertex 42.1523 17.7351 4
      vertex 41.4439 18.206 4
    endloop
  endfacet
  facet normal -0.722706 -0.691156 0
    outer loop
      vertex 42.751 17.1091 2
      vertex 42.1523 17.7351 4
      vertex 42.1523 17.7351 2
    endloop
  endfacet
  facet normal -0.722706 -0.691156 0
    outer loop
      vertex 42.751 17.1091 2
      vertex 42.751 17.1091 4
      vertex 42.1523 17.7351 4
    endloop
  endfacet
  facet normal -0.847666 -0.53053 0
    outer loop
      vertex 43.2399 16.328 2
      vertex 42.751 17.1091 4
      vertex 42.751 17.1091 2
    endloop
  endfacet
  facet normal -0.847666 -0.53053 0
    outer loop
      vertex 43.2399 16.328 2
      vertex 43.2399 16.328 4
      vertex 42.751 17.1091 4
    endloop
  endfacet
  facet normal 0.282796 -0.95918 0
    outer loop
      vertex 45.2139 16.91 2
      vertex 43.2399 16.328 4
      vertex 43.2399 16.328 2
    endloop
  endfacet
  facet normal 0.282796 -0.95918 0
    outer loop
      vertex 45.2139 16.91 2
      vertex 45.2139 16.91 4
      vertex 43.2399 16.328 4
    endloop
  endfacet
  facet normal 0.867308 0.497772 0
    outer loop
      vertex 44.5618 18.0462 2
      vertex 45.2139 16.91 4
      vertex 45.2139 16.91 2
    endloop
  endfacet
  facet normal 0.867308 0.497772 -0
    outer loop
      vertex 44.5618 18.0462 2
      vertex 44.5618 18.0462 4
      vertex 45.2139 16.91 4
    endloop
  endfacet
  facet normal 0.744971 0.667096 0
    outer loop
      vertex 43.7481 18.9549 2
      vertex 44.5618 18.0462 4
      vertex 44.5618 18.0462 2
    endloop
  endfacet
  facet normal 0.744971 0.667096 -0
    outer loop
      vertex 43.7481 18.9549 2
      vertex 43.7481 18.9549 4
      vertex 44.5618 18.0462 4
    endloop
  endfacet
  facet normal 0.572589 0.819843 0
    outer loop
      vertex 42.7729 19.636 2
      vertex 43.7481 18.9549 4
      vertex 43.7481 18.9549 2
    endloop
  endfacet
  facet normal 0.572589 0.819843 -0
    outer loop
      vertex 42.7729 19.636 2
      vertex 42.7729 19.636 4
      vertex 43.7481 18.9549 4
    endloop
  endfacet
  facet normal 0.377375 0.92606 0
    outer loop
      vertex 41.6113 20.1093 2
      vertex 42.7729 19.636 4
      vertex 42.7729 19.636 2
    endloop
  endfacet
  facet normal 0.377375 0.92606 -0
    outer loop
      vertex 41.6113 20.1093 2
      vertex 41.6113 20.1093 4
      vertex 42.7729 19.636 4
    endloop
  endfacet
  facet normal 0.202416 0.9793 0
    outer loop
      vertex 40.2373 20.3933 2
      vertex 41.6113 20.1093 4
      vertex 41.6113 20.1093 2
    endloop
  endfacet
  facet normal 0.202416 0.9793 -0
    outer loop
      vertex 40.2373 20.3933 2
      vertex 40.2373 20.3933 4
      vertex 41.6113 20.1093 4
    endloop
  endfacet
  facet normal 0.0595657 0.998224 0
    outer loop
      vertex 38.6509 20.488 2
      vertex 40.2373 20.3933 4
      vertex 40.2373 20.3933 2
    endloop
  endfacet
  facet normal 0.0595657 0.998224 -0
    outer loop
      vertex 38.6509 20.488 2
      vertex 38.6509 20.488 4
      vertex 40.2373 20.3933 4
    endloop
  endfacet
  facet normal -0.10085 0.994902 0
    outer loop
      vertex 36.4224 20.2621 2
      vertex 38.6509 20.488 4
      vertex 38.6509 20.488 2
    endloop
  endfacet
  facet normal -0.10085 0.994902 0
    outer loop
      vertex 36.4224 20.2621 2
      vertex 36.4224 20.2621 4
      vertex 38.6509 20.488 4
    endloop
  endfacet
  facet normal -0.340812 0.940132 0
    outer loop
      vertex 34.5531 19.5844 2
      vertex 36.4224 20.2621 4
      vertex 36.4224 20.2621 2
    endloop
  endfacet
  facet normal -0.340812 0.940132 0
    outer loop
      vertex 34.5531 19.5844 2
      vertex 34.5531 19.5844 4
      vertex 36.4224 20.2621 4
    endloop
  endfacet
  facet normal -0.598909 0.800817 0
    outer loop
      vertex 33.0429 18.455 2
      vertex 34.5531 19.5844 4
      vertex 34.5531 19.5844 2
    endloop
  endfacet
  facet normal -0.598909 0.800817 0
    outer loop
      vertex 33.0429 18.455 2
      vertex 33.0429 18.455 4
      vertex 34.5531 19.5844 4
    endloop
  endfacet
  facet normal -0.811791 0.583948 0
    outer loop
      vertex 31.934 16.9134 2
      vertex 33.0429 18.455 4
      vertex 33.0429 18.455 2
    endloop
  endfacet
  facet normal -0.811791 0.583948 0
    outer loop
      vertex 31.934 16.9134 2
      vertex 31.934 16.9134 4
      vertex 33.0429 18.455 4
    endloop
  endfacet
  facet normal -0.944557 0.328347 0
    outer loop
      vertex 31.2686 14.9994 2
      vertex 31.934 16.9134 4
      vertex 31.934 16.9134 2
    endloop
  endfacet
  facet normal -0.944557 0.328347 0
    outer loop
      vertex 31.2686 14.9994 2
      vertex 31.2686 14.9994 4
      vertex 31.934 16.9134 4
    endloop
  endfacet
  facet normal -0.995329 0.0965411 0
    outer loop
      vertex 31.0469 12.713 2
      vertex 31.2686 14.9994 4
      vertex 31.2686 14.9994 2
    endloop
  endfacet
  facet normal -0.995329 0.0965411 0
    outer loop
      vertex 31.0469 12.713 2
      vertex 31.0469 12.713 4
      vertex 31.2686 14.9994 4
    endloop
  endfacet
  facet normal -0.997836 -0.0657554 0
    outer loop
      vertex 31.1487 11.1685 2
      vertex 31.0469 12.713 4
      vertex 31.0469 12.713 2
    endloop
  endfacet
  facet normal -0.997836 -0.0657554 0
    outer loop
      vertex 31.1487 11.1685 2
      vertex 31.1487 11.1685 4
      vertex 31.0469 12.713 4
    endloop
  endfacet
  facet normal -0.977161 -0.212502 0
    outer loop
      vertex 31.454 9.76454 2
      vertex 31.1487 11.1685 4
      vertex 31.1487 11.1685 2
    endloop
  endfacet
  facet normal -0.977161 -0.212502 0
    outer loop
      vertex 31.454 9.76454 2
      vertex 31.454 9.76454 4
      vertex 31.1487 11.1685 4
    endloop
  endfacet
  facet normal -0.927594 -0.373589 0
    outer loop
      vertex 31.9629 8.50099 2
      vertex 31.454 9.76454 4
      vertex 31.454 9.76454 2
    endloop
  endfacet
  facet normal -0.927594 -0.373589 0
    outer loop
      vertex 31.9629 8.50099 2
      vertex 31.9629 8.50099 4
      vertex 31.454 9.76454 4
    endloop
  endfacet
  facet normal -0.842937 -0.538012 0
    outer loop
      vertex 32.6651 7.40077 2
      vertex 31.9629 8.50099 4
      vertex 31.9629 8.50099 2
    endloop
  endfacet
  facet normal -0.842937 -0.538012 0
    outer loop
      vertex 32.6651 7.40077 2
      vertex 32.6651 7.40077 4
      vertex 31.9629 8.50099 4
    endloop
  endfacet
  facet normal -0.718804 -0.695212 0
    outer loop
      vertex 33.5491 6.48677 2
      vertex 32.6651 7.40077 4
      vertex 32.6651 7.40077 2
    endloop
  endfacet
  facet normal -0.718804 -0.695212 0
    outer loop
      vertex 33.5491 6.48677 2
      vertex 33.5491 6.48677 4
      vertex 32.6651 7.40077 4
    endloop
  endfacet
  facet normal -0.563932 -0.825821 0
    outer loop
      vertex 34.6149 5.75899 2
      vertex 33.5491 6.48677 4
      vertex 33.5491 6.48677 2
    endloop
  endfacet
  facet normal -0.563932 -0.825821 0
    outer loop
      vertex 34.6149 5.75899 2
      vertex 34.6149 5.75899 4
      vertex 33.5491 6.48677 4
    endloop
  endfacet
  facet normal -0.394429 -0.918926 0
    outer loop
      vertex 35.8458 5.23065 2
      vertex 34.6149 5.75899 4
      vertex 34.6149 5.75899 2
    endloop
  endfacet
  facet normal -0.394429 -0.918926 0
    outer loop
      vertex 35.8458 5.23065 2
      vertex 35.8458 5.23065 4
      vertex 34.6149 5.75899 4
    endloop
  endfacet
  facet normal -0.224167 -0.974551 0
    outer loop
      vertex 37.2238 4.91368 2
      vertex 35.8458 5.23065 4
      vertex 35.8458 5.23065 2
    endloop
  endfacet
  facet normal -0.224167 -0.974551 0
    outer loop
      vertex 37.2238 4.91368 2
      vertex 37.2238 4.91368 4
      vertex 35.8458 5.23065 4
    endloop
  endfacet
  facet normal -0.0691196 -0.997608 0
    outer loop
      vertex 38.7489 4.80801 2
      vertex 37.2238 4.91368 4
      vertex 37.2238 4.91368 2
    endloop
  endfacet
  facet normal -0.0691196 -0.997608 0
    outer loop
      vertex 38.7489 4.80801 2
      vertex 38.7489 4.80801 4
      vertex 37.2238 4.91368 4
    endloop
  endfacet
  facet normal 0.0560974 -0.998425 0
    outer loop
      vertex 40.0896 4.88335 2
      vertex 38.7489 4.80801 4
      vertex 38.7489 4.80801 2
    endloop
  endfacet
  facet normal 0.0560974 -0.998425 0
    outer loop
      vertex 40.0896 4.88335 2
      vertex 40.0896 4.88335 4
      vertex 38.7489 4.80801 4
    endloop
  endfacet
endsolid OpenSCAD_Model
