solid OpenSCAD_Model
  facet normal 0 0 -1
    outer loop
      vertex 42.8626 7.6221 2
      vertex 40.6288 7.91533 2
      vertex 41.8857 9.672 2
    endloop
  endfacet
  facet normal -0 0 -1
    outer loop
      vertex 41.9773 6.6241 2
      vertex 40.9217 5.83499 2
      vertex 40.6288 7.91533 2
    endloop
  endfacet
  facet normal 0 0 -1
    outer loop
      vertex 41.9773 6.6241 2
      vertex 40.6288 7.91533 2
      vertex 42.8626 7.6221 2
    endloop
  endfacet
  facet normal 0 0 -1
    outer loop
      vertex 41.8857 9.672 2
      vertex 43.5777 8.82899 2
      vertex 42.8626 7.6221 2
    endloop
  endfacet
  facet normal 0 0 -1
    outer loop
      vertex 38.3977 4.92212 2
      vertex 39.0168 6.86133 2
      vertex 39.7207 5.26443 2
    endloop
  endfacet
  facet normal 0 0 -1
    outer loop
      vertex 38.3977 4.92212 2
      vertex 37.0497 6.50999 2
      vertex 39.0168 6.86133 2
    endloop
  endfacet
  facet normal 0 0 -1
    outer loop
      vertex 39.0168 6.86133 2
      vertex 40.9217 5.83499 2
      vertex 39.7207 5.26443 2
    endloop
  endfacet
  facet normal 0 -0 -1
    outer loop
      vertex 40.6288 7.91533 2
      vertex 40.9217 5.83499 2
      vertex 39.0168 6.86133 2
    endloop
  endfacet
  facet normal -0 0 -1
    outer loop
      vertex 38.3977 4.92212 2
      vertex 36.9527 4.80801 2
      vertex 37.0497 6.50999 2
    endloop
  endfacet
  facet normal -0 0 -1
    outer loop
      vertex 37.0497 6.50999 2
      vertex 35.4795 4.91434 2
      vertex 35.4911 6.6991 2
    endloop
  endfacet
  facet normal 0 0 -1
    outer loop
      vertex 32.9497 5.765 2
      vertex 31.9131 6.49432 2
      vertex 34.1631 7.26643 2
    endloop
  endfacet
  facet normal 0 0 -1
    outer loop
      vertex 30.3757 8.50099 2
      vertex 32.248 9.46843 2
      vertex 31.0551 7.40633 2
    endloop
  endfacet
  facet normal 0 0 -1
    outer loop
      vertex 30.3757 8.50099 2
      vertex 29.8841 9.75966 2
      vertex 32.248 9.46843 2
    endloop
  endfacet
  facet normal 0 0 -1
    outer loop
      vertex 29.8841 9.75966 2
      vertex 29.5891 11.1637 2
      vertex 31.7573 10.9684 2
    endloop
  endfacet
  facet normal 0 0 -1
    outer loop
      vertex 29.5891 11.1637 2
      vertex 29.4907 12.713 2
      vertex 31.5937 12.712 2
    endloop
  endfacet
  facet normal 0 0 -1
    outer loop
      vertex 29.4907 12.713 2
      vertex 29.7104 14.9669 2
      vertex 31.7507 14.466 2
    endloop
  endfacet
  facet normal 0 0 -1
    outer loop
      vertex 29.7104 14.9669 2
      vertex 30.3694 16.8699 2
      vertex 32.2217 15.952 2
    endloop
  endfacet
  facet normal 0 0 -1
    outer loop
      vertex 32.2217 15.952 2
      vertex 31.4677 18.422 2
      vertex 33.0067 17.17 2
    endloop
  endfacet
  facet normal 0 0 -1
    outer loop
      vertex 33.0067 17.17 2
      vertex 32.9546 19.5698 2
      vertex 34.0743 18.0733 2
    endloop
  endfacet
  facet normal 0 0 -1
    outer loop
      vertex 34.0743 18.0733 2
      vertex 32.9546 19.5698 2
      vertex 34.7793 20.2584 2
    endloop
  endfacet
  facet normal 0 0 -1
    outer loop
      vertex 35.393 18.6153 2
      vertex 36.9417 20.488 2
      vertex 36.9627 18.796 2
    endloop
  endfacet
  facet normal 0 -0 -1
    outer loop
      vertex 38.4817 20.3824 2
      vertex 38.9267 18.4849 2
      vertex 37.9937 18.7182 2
    endloop
  endfacet
  facet normal 0 0 -1
    outer loop
      vertex 39.8431 20.0658 2
      vertex 39.7617 18.096 2
      vertex 38.9267 18.4849 2
    endloop
  endfacet
  facet normal 0 0 -1
    outer loop
      vertex 41.0257 19.538 2
      vertex 40.476 17.56 2
      vertex 39.7617 18.096 2
    endloop
  endfacet
  facet normal 0 0 -1
    outer loop
      vertex 42.0225 18.8027 2
      vertex 41.0466 16.8853 2
      vertex 40.476 17.56 2
    endloop
  endfacet
  facet normal 0 -0 -1
    outer loop
      vertex 42.0225 18.8027 2
      vertex 42.8262 17.8633 2
      vertex 41.0466 16.8853 2
    endloop
  endfacet
  facet normal 0 0 -1
    outer loop
      vertex 41.0466 16.8853 2
      vertex 42.8262 17.8633 2
      vertex 41.4737 16.072 2
    endloop
  endfacet
  facet normal 0 0 -1
    outer loop
      vertex 41.4737 16.072 2
      vertex 42.8262 17.8633 2
      vertex 43.4367 16.72 2
    endloop
  endfacet
  facet normal 0 -0 -1
    outer loop
      vertex 41.0257 19.538 2
      vertex 42.0225 18.8027 2
      vertex 40.476 17.56 2
    endloop
  endfacet
  facet normal 0 -0 -1
    outer loop
      vertex 39.8431 20.0658 2
      vertex 41.0257 19.538 2
      vertex 39.7617 18.096 2
    endloop
  endfacet
  facet normal 0 0 -1
    outer loop
      vertex 38.4817 20.3824 2
      vertex 39.8431 20.0658 2
      vertex 38.9267 18.4849 2
    endloop
  endfacet
  facet normal 0 0 -1
    outer loop
      vertex 36.9417 20.488 2
      vertex 38.4817 20.3824 2
      vertex 37.9937 18.7182 2
    endloop
  endfacet
  facet normal 0 0 -1
    outer loop
      vertex 36.9627 18.796 2
      vertex 36.9417 20.488 2
      vertex 37.9937 18.7182 2
    endloop
  endfacet
  facet normal 0 0 -1
    outer loop
      vertex 35.393 18.6153 2
      vertex 34.7793 20.2584 2
      vertex 36.9417 20.488 2
    endloop
  endfacet
  facet normal -0 0 -1
    outer loop
      vertex 35.393 18.6153 2
      vertex 34.0743 18.0733 2
      vertex 34.7793 20.2584 2
    endloop
  endfacet
  facet normal 0 0 -1
    outer loop
      vertex 33.0067 17.17 2
      vertex 31.4677 18.422 2
      vertex 32.9546 19.5698 2
    endloop
  endfacet
  facet normal 0 0 -1
    outer loop
      vertex 32.2217 15.952 2
      vertex 30.3694 16.8699 2
      vertex 31.4677 18.422 2
    endloop
  endfacet
  facet normal 0 0 -1
    outer loop
      vertex 31.7507 14.466 2
      vertex 29.7104 14.9669 2
      vertex 32.2217 15.952 2
    endloop
  endfacet
  facet normal -0 0 -1
    outer loop
      vertex 19.9487 19.7827 2
      vertex 18.7404 18.3263 2
      vertex 18.6183 20.1677 2
    endloop
  endfacet
  facet normal 0 0 -1
    outer loop
      vertex 31.5937 12.712 2
      vertex 29.4907 12.713 2
      vertex 31.7507 14.466 2
    endloop
  endfacet
  facet normal 0 0 -1
    outer loop
      vertex 22.3136 14.8526 2
      vertex 20.342 15.905 2
      vertex 22.424 15.927 2
    endloop
  endfacet
  facet normal 0 0 -1
    outer loop
      vertex 31.7573 10.9684 2
      vertex 29.5891 11.1637 2
      vertex 31.5937 12.712 2
    endloop
  endfacet
  facet normal 0 0 -1
    outer loop
      vertex 20.342 15.905 2
      vertex 22.2677 17.1997 2
      vertex 22.424 15.927 2
    endloop
  endfacet
  facet normal 0 0 -1
    outer loop
      vertex 32.248 9.46843 2
      vertex 29.8841 9.75966 2
      vertex 31.7573 10.9684 2
    endloop
  endfacet
  facet normal 0 0 -1
    outer loop
      vertex 19.9433 14.3414 2
      vertex 20.2423 15.0551 2
      vertex 21.9822 13.8985 2
    endloop
  endfacet
  facet normal 0 0 -1
    outer loop
      vertex 31.0551 7.40633 2
      vertex 32.248 9.46843 2
      vertex 33.0657 8.21199 2
    endloop
  endfacet
  facet normal 0 0 -1
    outer loop
      vertex 31.9131 6.49432 2
      vertex 31.0551 7.40633 2
      vertex 33.0657 8.21199 2
    endloop
  endfacet
  facet normal 0 0 -1
    outer loop
      vertex 20.646 5 2
      vertex 18.687 11.601 2
      vertex 23.032 5 2
    endloop
  endfacet
  facet normal -0 0 -1
    outer loop
      vertex 34.1631 7.26643 2
      vertex 31.9131 6.49432 2
      vertex 33.0657 8.21199 2
    endloop
  endfacet
  facet normal 0 0 -1
    outer loop
      vertex 34.1452 5.23332 2
      vertex 32.9497 5.765 2
      vertex 34.1631 7.26643 2
    endloop
  endfacet
  facet normal -0 0 -1
    outer loop
      vertex 35.4911 6.6991 2
      vertex 34.1452 5.23332 2
      vertex 34.1631 7.26643 2
    endloop
  endfacet
  facet normal 0 0 -1
    outer loop
      vertex 35.4911 6.6991 2
      vertex 35.4795 4.91434 2
      vertex 34.1452 5.23332 2
    endloop
  endfacet
  facet normal 0 0 -1
    outer loop
      vertex 37.0497 6.50999 2
      vertex 36.9527 4.80801 2
      vertex 35.4795 4.91434 2
    endloop
  endfacet
  facet normal 0 -0 -1
    outer loop
      vertex 18.6183 20.1677 2
      vertex 18.7404 18.3263 2
      vertex 17.8691 18.5593 2
    endloop
  endfacet
  facet normal -0 0 -1
    outer loop
      vertex 11.896 11.363 2
      vertex 9.825 5 2
      vertex 11.896 13 2
    endloop
  endfacet
  facet normal 0 0 -1
    outer loop
      vertex 16.67 11.363 2
      vertex 18.687 11.601 2
      vertex 20.646 5 2
    endloop
  endfacet
  facet normal 0 0 -1
    outer loop
      vertex 17.8691 18.5593 2
      vertex 17.026 20.296 2
      vertex 18.6183 20.1677 2
    endloop
  endfacet
  facet normal 0 0 -1
    outer loop
      vertex 19.445 13.764 2
      vertex 19.9433 14.3414 2
      vertex 21.43 13.065 2
    endloop
  endfacet
  facet normal 0 -0 -1
    outer loop
      vertex 17.026 20.296 2
      vertex 17.8691 18.5593 2
      vertex 16.82 18.637 2
    endloop
  endfacet
  facet normal 0 0 -1
    outer loop
      vertex 9.825 20.296 2
      vertex 17.026 20.296 2
      vertex 11.896 18.637 2
    endloop
  endfacet
  facet normal 0 0 -1
    outer loop
      vertex 16.67 11.363 2
      vertex 11.896 13 2
      vertex 16.907 13 2
    endloop
  endfacet
  facet normal 0 0 -1
    outer loop
      vertex 16.67 11.363 2
      vertex 11.896 11.363 2
      vertex 11.896 13 2
    endloop
  endfacet
  facet normal 0 -0 -1
    outer loop
      vertex 11.896 11.363 2
      vertex 11.896 5 2
      vertex 9.825 5 2
    endloop
  endfacet
  facet normal 0 0 -1
    outer loop
      vertex 16.67 11.363 2
      vertex 17.9183 13.0849 2
      vertex 18.687 11.601 2
    endloop
  endfacet
  facet normal -0 0 -1
    outer loop
      vertex 20.6834 12.3868 2
      vertex 19.7691 11.8988 2
      vertex 19.445 13.764 2
    endloop
  endfacet
  facet normal -0 0 -1
    outer loop
      vertex 11.896 13 2
      vertex 9.825 5 2
      vertex 9.825 20.296 2
    endloop
  endfacet
  facet normal 0 0 -1
    outer loop
      vertex 9.825 20.296 2
      vertex 11.896 18.637 2
      vertex 11.896 13 2
    endloop
  endfacet
  facet normal 0 0 -1
    outer loop
      vertex 16.82 18.637 2
      vertex 11.896 18.637 2
      vertex 17.026 20.296 2
    endloop
  endfacet
  facet normal 0 0 -1
    outer loop
      vertex 19.9487 19.7827 2
      vertex 19.434 17.938 2
      vertex 18.7404 18.3263 2
    endloop
  endfacet
  facet normal 0 0 -1
    outer loop
      vertex 19.434 17.938 2
      vertex 21.017 19.141 2
      vertex 19.9384 17.4014 2
    endloop
  endfacet
  facet normal 0 -0 -1
    outer loop
      vertex 19.9487 19.7827 2
      vertex 21.017 19.141 2
      vertex 19.434 17.938 2
    endloop
  endfacet
  facet normal 0 0 -1
    outer loop
      vertex 19.9384 17.4014 2
      vertex 21.7987 18.271 2
      vertex 20.2411 16.7238 2
    endloop
  endfacet
  facet normal 0 -0 -1
    outer loop
      vertex 21.017 19.141 2
      vertex 21.7987 18.271 2
      vertex 19.9384 17.4014 2
    endloop
  endfacet
  facet normal 0 0 -1
    outer loop
      vertex 20.2411 16.7238 2
      vertex 22.2677 17.1997 2
      vertex 20.342 15.905 2
    endloop
  endfacet
  facet normal 0 -0 -1
    outer loop
      vertex 21.7987 18.271 2
      vertex 22.2677 17.1997 2
      vertex 20.2411 16.7238 2
    endloop
  endfacet
  facet normal 0 0 -1
    outer loop
      vertex 22.3136 14.8526 2
      vertex 20.2423 15.0551 2
      vertex 20.342 15.905 2
    endloop
  endfacet
  facet normal 0 0 -1
    outer loop
      vertex 20.2423 15.0551 2
      vertex 22.3136 14.8526 2
      vertex 21.9822 13.8985 2
    endloop
  endfacet
  facet normal 0 0 -1
    outer loop
      vertex 19.9433 14.3414 2
      vertex 21.9822 13.8985 2
      vertex 21.43 13.065 2
    endloop
  endfacet
  facet normal -0 0 -1
    outer loop
      vertex 21.43 13.065 2
      vertex 20.6834 12.3868 2
      vertex 19.445 13.764 2
    endloop
  endfacet
  facet normal 0 -0 -1
    outer loop
      vertex 19.445 13.764 2
      vertex 19.7691 11.8988 2
      vertex 18.7643 13.3396 2
    endloop
  endfacet
  facet normal 0 -0 -1
    outer loop
      vertex 18.7643 13.3396 2
      vertex 19.7691 11.8988 2
      vertex 18.687 11.601 2
    endloop
  endfacet
  facet normal 0 -0 -1
    outer loop
      vertex 16.907 13 2
      vertex 17.9183 13.0849 2
      vertex 16.67 11.363 2
    endloop
  endfacet
  facet normal 0 0 -1
    outer loop
      vertex 17.9183 13.0849 2
      vertex 18.7643 13.3396 2
      vertex 18.687 11.601 2
    endloop
  endfacet
  facet normal 0 0 1
    outer loop
      vertex 41.8857 9.672 4
      vertex 40.6288 7.91533 4
      vertex 42.8626 7.6221 4
    endloop
  endfacet
  facet normal 0 0 1
    outer loop
      vertex 40.6288 7.91533 4
      vertex 40.9217 5.83499 4
      vertex 41.9773 6.6241 4
    endloop
  endfacet
  facet normal 0 0 1
    outer loop
      vertex 42.8626 7.6221 4
      vertex 40.6288 7.91533 4
      vertex 41.9773 6.6241 4
    endloop
  endfacet
  facet normal 0 -0 1
    outer loop
      vertex 42.8626 7.6221 4
      vertex 43.5777 8.82899 4
      vertex 41.8857 9.672 4
    endloop
  endfacet
  facet normal 0 0 1
    outer loop
      vertex 39.7207 5.26443 4
      vertex 39.0168 6.86133 4
      vertex 38.3977 4.92212 4
    endloop
  endfacet
  facet normal 0 0 1
    outer loop
      vertex 39.0168 6.86133 4
      vertex 37.0497 6.50999 4
      vertex 38.3977 4.92212 4
    endloop
  endfacet
  facet normal 0 -0 1
    outer loop
      vertex 39.7207 5.26443 4
      vertex 40.9217 5.83499 4
      vertex 39.0168 6.86133 4
    endloop
  endfacet
  facet normal -0 0 1
    outer loop
      vertex 39.0168 6.86133 4
      vertex 40.9217 5.83499 4
      vertex 40.6288 7.91533 4
    endloop
  endfacet
  facet normal 0 0 1
    outer loop
      vertex 37.0497 6.50999 4
      vertex 36.9527 4.80801 4
      vertex 38.3977 4.92212 4
    endloop
  endfacet
  facet normal 0 0 1
    outer loop
      vertex 35.4911 6.6991 4
      vertex 35.4795 4.91434 4
      vertex 37.0497 6.50999 4
    endloop
  endfacet
  facet normal 0 0 1
    outer loop
      vertex 34.1631 7.26643 4
      vertex 31.9131 6.49432 4
      vertex 32.9497 5.765 4
    endloop
  endfacet
  facet normal 0 -0 1
    outer loop
      vertex 31.0551 7.40633 4
      vertex 32.248 9.46843 4
      vertex 30.3757 8.50099 4
    endloop
  endfacet
  facet normal 0 0 1
    outer loop
      vertex 32.248 9.46843 4
      vertex 29.8841 9.75966 4
      vertex 30.3757 8.50099 4
    endloop
  endfacet
  facet normal 0 0 1
    outer loop
      vertex 31.7573 10.9684 4
      vertex 29.5891 11.1637 4
      vertex 29.8841 9.75966 4
    endloop
  endfacet
  facet normal 0 0 1
    outer loop
      vertex 31.5937 12.712 4
      vertex 29.4907 12.713 4
      vertex 29.5891 11.1637 4
    endloop
  endfacet
  facet normal 0 0 1
    outer loop
      vertex 31.7507 14.466 4
      vertex 29.7104 14.9669 4
      vertex 29.4907 12.713 4
    endloop
  endfacet
  facet normal 0 0 1
    outer loop
      vertex 32.2217 15.952 4
      vertex 30.3694 16.8699 4
      vertex 29.7104 14.9669 4
    endloop
  endfacet
  facet normal 0 0 1
    outer loop
      vertex 33.0067 17.17 4
      vertex 31.4677 18.422 4
      vertex 32.2217 15.952 4
    endloop
  endfacet
  facet normal 0 0 1
    outer loop
      vertex 34.0743 18.0733 4
      vertex 32.9546 19.5698 4
      vertex 33.0067 17.17 4
    endloop
  endfacet
  facet normal 0 0 1
    outer loop
      vertex 34.7793 20.2584 4
      vertex 32.9546 19.5698 4
      vertex 34.0743 18.0733 4
    endloop
  endfacet
  facet normal 0 0 1
    outer loop
      vertex 36.9627 18.796 4
      vertex 36.9417 20.488 4
      vertex 35.393 18.6153 4
    endloop
  endfacet
  facet normal -0 0 1
    outer loop
      vertex 37.9937 18.7182 4
      vertex 38.9267 18.4849 4
      vertex 38.4817 20.3824 4
    endloop
  endfacet
  facet normal -0 0 1
    outer loop
      vertex 38.9267 18.4849 4
      vertex 39.7617 18.096 4
      vertex 39.8431 20.0658 4
    endloop
  endfacet
  facet normal -0 0 1
    outer loop
      vertex 39.7617 18.096 4
      vertex 40.476 17.56 4
      vertex 41.0257 19.538 4
    endloop
  endfacet
  facet normal -0 0 1
    outer loop
      vertex 40.476 17.56 4
      vertex 41.0466 16.8853 4
      vertex 42.0225 18.8027 4
    endloop
  endfacet
  facet normal 0 0 1
    outer loop
      vertex 41.0466 16.8853 4
      vertex 42.8262 17.8633 4
      vertex 42.0225 18.8027 4
    endloop
  endfacet
  facet normal 0 -0 1
    outer loop
      vertex 41.4737 16.072 4
      vertex 42.8262 17.8633 4
      vertex 41.0466 16.8853 4
    endloop
  endfacet
  facet normal 0 0 1
    outer loop
      vertex 43.4367 16.72 4
      vertex 42.8262 17.8633 4
      vertex 41.4737 16.072 4
    endloop
  endfacet
  facet normal 0 0 1
    outer loop
      vertex 40.476 17.56 4
      vertex 42.0225 18.8027 4
      vertex 41.0257 19.538 4
    endloop
  endfacet
  facet normal 0 0 1
    outer loop
      vertex 39.7617 18.096 4
      vertex 41.0257 19.538 4
      vertex 39.8431 20.0658 4
    endloop
  endfacet
  facet normal 0 -0 1
    outer loop
      vertex 38.9267 18.4849 4
      vertex 39.8431 20.0658 4
      vertex 38.4817 20.3824 4
    endloop
  endfacet
  facet normal 0 -0 1
    outer loop
      vertex 37.9937 18.7182 4
      vertex 38.4817 20.3824 4
      vertex 36.9417 20.488 4
    endloop
  endfacet
  facet normal 0 0 1
    outer loop
      vertex 37.9937 18.7182 4
      vertex 36.9417 20.488 4
      vertex 36.9627 18.796 4
    endloop
  endfacet
  facet normal 0 0 1
    outer loop
      vertex 36.9417 20.488 4
      vertex 34.7793 20.2584 4
      vertex 35.393 18.6153 4
    endloop
  endfacet
  facet normal 0 0 1
    outer loop
      vertex 34.7793 20.2584 4
      vertex 34.0743 18.0733 4
      vertex 35.393 18.6153 4
    endloop
  endfacet
  facet normal 0 0 1
    outer loop
      vertex 32.9546 19.5698 4
      vertex 31.4677 18.422 4
      vertex 33.0067 17.17 4
    endloop
  endfacet
  facet normal 0 0 1
    outer loop
      vertex 31.4677 18.422 4
      vertex 30.3694 16.8699 4
      vertex 32.2217 15.952 4
    endloop
  endfacet
  facet normal 0 0 1
    outer loop
      vertex 32.2217 15.952 4
      vertex 29.7104 14.9669 4
      vertex 31.7507 14.466 4
    endloop
  endfacet
  facet normal 0 0 1
    outer loop
      vertex 18.6183 20.1677 4
      vertex 18.7404 18.3263 4
      vertex 19.9487 19.7827 4
    endloop
  endfacet
  facet normal 0 0 1
    outer loop
      vertex 31.7507 14.466 4
      vertex 29.4907 12.713 4
      vertex 31.5937 12.712 4
    endloop
  endfacet
  facet normal 0 0 1
    outer loop
      vertex 22.424 15.927 4
      vertex 20.342 15.905 4
      vertex 22.3136 14.8526 4
    endloop
  endfacet
  facet normal 0 0 1
    outer loop
      vertex 31.5937 12.712 4
      vertex 29.5891 11.1637 4
      vertex 31.7573 10.9684 4
    endloop
  endfacet
  facet normal 0 0 1
    outer loop
      vertex 22.424 15.927 4
      vertex 22.2677 17.1997 4
      vertex 20.342 15.905 4
    endloop
  endfacet
  facet normal 0 0 1
    outer loop
      vertex 31.7573 10.9684 4
      vertex 29.8841 9.75966 4
      vertex 32.248 9.46843 4
    endloop
  endfacet
  facet normal 0 0 1
    outer loop
      vertex 21.9822 13.8985 4
      vertex 20.2423 15.0551 4
      vertex 19.9433 14.3414 4
    endloop
  endfacet
  facet normal 0 0 1
    outer loop
      vertex 33.0657 8.21199 4
      vertex 32.248 9.46843 4
      vertex 31.0551 7.40633 4
    endloop
  endfacet
  facet normal 0 0 1
    outer loop
      vertex 33.0657 8.21199 4
      vertex 31.0551 7.40633 4
      vertex 31.9131 6.49432 4
    endloop
  endfacet
  facet normal 0 0 1
    outer loop
      vertex 23.032 5 4
      vertex 18.687 11.601 4
      vertex 20.646 5 4
    endloop
  endfacet
  facet normal 0 0 1
    outer loop
      vertex 33.0657 8.21199 4
      vertex 31.9131 6.49432 4
      vertex 34.1631 7.26643 4
    endloop
  endfacet
  facet normal 0 0 1
    outer loop
      vertex 34.1631 7.26643 4
      vertex 32.9497 5.765 4
      vertex 34.1452 5.23332 4
    endloop
  endfacet
  facet normal 0 0 1
    outer loop
      vertex 34.1631 7.26643 4
      vertex 34.1452 5.23332 4
      vertex 35.4911 6.6991 4
    endloop
  endfacet
  facet normal -0 0 1
    outer loop
      vertex 34.1452 5.23332 4
      vertex 35.4795 4.91434 4
      vertex 35.4911 6.6991 4
    endloop
  endfacet
  facet normal -0 0 1
    outer loop
      vertex 35.4795 4.91434 4
      vertex 36.9527 4.80801 4
      vertex 37.0497 6.50999 4
    endloop
  endfacet
  facet normal -0 0 1
    outer loop
      vertex 17.8691 18.5593 4
      vertex 18.7404 18.3263 4
      vertex 18.6183 20.1677 4
    endloop
  endfacet
  facet normal 0 0 1
    outer loop
      vertex 11.896 13 4
      vertex 9.825 5 4
      vertex 11.896 11.363 4
    endloop
  endfacet
  facet normal 0 0 1
    outer loop
      vertex 20.646 5 4
      vertex 18.687 11.601 4
      vertex 16.67 11.363 4
    endloop
  endfacet
  facet normal 0 0 1
    outer loop
      vertex 18.6183 20.1677 4
      vertex 17.026 20.296 4
      vertex 17.8691 18.5593 4
    endloop
  endfacet
  facet normal 0 0 1
    outer loop
      vertex 21.43 13.065 4
      vertex 19.9433 14.3414 4
      vertex 19.445 13.764 4
    endloop
  endfacet
  facet normal -0 0 1
    outer loop
      vertex 16.82 18.637 4
      vertex 17.8691 18.5593 4
      vertex 17.026 20.296 4
    endloop
  endfacet
  facet normal 0 -0 1
    outer loop
      vertex 11.896 18.637 4
      vertex 17.026 20.296 4
      vertex 9.825 20.296 4
    endloop
  endfacet
  facet normal 0 0 1
    outer loop
      vertex 16.907 13 4
      vertex 11.896 13 4
      vertex 16.67 11.363 4
    endloop
  endfacet
  facet normal 0 0 1
    outer loop
      vertex 11.896 13 4
      vertex 11.896 11.363 4
      vertex 16.67 11.363 4
    endloop
  endfacet
  facet normal 0 0 1
    outer loop
      vertex 9.825 5 4
      vertex 11.896 5 4
      vertex 11.896 11.363 4
    endloop
  endfacet
  facet normal 0 0 1
    outer loop
      vertex 18.687 11.601 4
      vertex 17.9183 13.0849 4
      vertex 16.67 11.363 4
    endloop
  endfacet
  facet normal 0 0 1
    outer loop
      vertex 19.445 13.764 4
      vertex 19.7691 11.8988 4
      vertex 20.6834 12.3868 4
    endloop
  endfacet
  facet normal 0 0 1
    outer loop
      vertex 9.825 20.296 4
      vertex 9.825 5 4
      vertex 11.896 13 4
    endloop
  endfacet
  facet normal 0 -0 1
    outer loop
      vertex 11.896 13 4
      vertex 11.896 18.637 4
      vertex 9.825 20.296 4
    endloop
  endfacet
  facet normal 0 0 1
    outer loop
      vertex 17.026 20.296 4
      vertex 11.896 18.637 4
      vertex 16.82 18.637 4
    endloop
  endfacet
  facet normal -0 0 1
    outer loop
      vertex 18.7404 18.3263 4
      vertex 19.434 17.938 4
      vertex 19.9487 19.7827 4
    endloop
  endfacet
  facet normal 0 -0 1
    outer loop
      vertex 19.9384 17.4014 4
      vertex 21.017 19.141 4
      vertex 19.434 17.938 4
    endloop
  endfacet
  facet normal 0 0 1
    outer loop
      vertex 19.434 17.938 4
      vertex 21.017 19.141 4
      vertex 19.9487 19.7827 4
    endloop
  endfacet
  facet normal 0 -0 1
    outer loop
      vertex 20.2411 16.7238 4
      vertex 21.7987 18.271 4
      vertex 19.9384 17.4014 4
    endloop
  endfacet
  facet normal 0 0 1
    outer loop
      vertex 19.9384 17.4014 4
      vertex 21.7987 18.271 4
      vertex 21.017 19.141 4
    endloop
  endfacet
  facet normal 0 -0 1
    outer loop
      vertex 20.342 15.905 4
      vertex 22.2677 17.1997 4
      vertex 20.2411 16.7238 4
    endloop
  endfacet
  facet normal 0 0 1
    outer loop
      vertex 20.2411 16.7238 4
      vertex 22.2677 17.1997 4
      vertex 21.7987 18.271 4
    endloop
  endfacet
  facet normal 0 0 1
    outer loop
      vertex 20.342 15.905 4
      vertex 20.2423 15.0551 4
      vertex 22.3136 14.8526 4
    endloop
  endfacet
  facet normal 0 -0 1
    outer loop
      vertex 21.9822 13.8985 4
      vertex 22.3136 14.8526 4
      vertex 20.2423 15.0551 4
    endloop
  endfacet
  facet normal 0 -0 1
    outer loop
      vertex 21.43 13.065 4
      vertex 21.9822 13.8985 4
      vertex 19.9433 14.3414 4
    endloop
  endfacet
  facet normal 0 0 1
    outer loop
      vertex 19.445 13.764 4
      vertex 20.6834 12.3868 4
      vertex 21.43 13.065 4
    endloop
  endfacet
  facet normal -0 0 1
    outer loop
      vertex 18.7643 13.3396 4
      vertex 19.7691 11.8988 4
      vertex 19.445 13.764 4
    endloop
  endfacet
  facet normal 0 0 1
    outer loop
      vertex 18.687 11.601 4
      vertex 19.7691 11.8988 4
      vertex 18.7643 13.3396 4
    endloop
  endfacet
  facet normal 0 0 1
    outer loop
      vertex 16.67 11.363 4
      vertex 17.9183 13.0849 4
      vertex 16.907 13 4
    endloop
  endfacet
  facet normal 0 -0 1
    outer loop
      vertex 18.687 11.601 4
      vertex 18.7643 13.3396 4
      vertex 17.9183 13.0849 4
    endloop
  endfacet
  facet normal 0.250493 -0.968118 0
    outer loop
      vertex 39.7207 5.26443 2
      vertex 38.3977 4.92212 4
      vertex 38.3977 4.92212 2
    endloop
  endfacet
  facet normal 0.250493 -0.968118 0
    outer loop
      vertex 39.7207 5.26443 2
      vertex 39.7207 5.26443 4
      vertex 38.3977 4.92212 4
    endloop
  endfacet
  facet normal 0.429106 -0.903254 0
    outer loop
      vertex 40.9217 5.83499 2
      vertex 39.7207 5.26443 4
      vertex 39.7207 5.26443 2
    endloop
  endfacet
  facet normal 0.429106 -0.903254 0
    outer loop
      vertex 40.9217 5.83499 2
      vertex 40.9217 5.83499 4
      vertex 39.7207 5.26443 4
    endloop
  endfacet
  facet normal 0.598756 -0.800931 0
    outer loop
      vertex 41.9773 6.6241 2
      vertex 40.9217 5.83499 4
      vertex 40.9217 5.83499 2
    endloop
  endfacet
  facet normal 0.598756 -0.800931 0
    outer loop
      vertex 41.9773 6.6241 2
      vertex 41.9773 6.6241 4
      vertex 40.9217 5.83499 4
    endloop
  endfacet
  facet normal 0.748072 -0.663617 0
    outer loop
      vertex 42.8626 7.6221 2
      vertex 41.9773 6.6241 4
      vertex 41.9773 6.6241 2
    endloop
  endfacet
  facet normal 0.748072 -0.663617 0
    outer loop
      vertex 42.8626 7.6221 2
      vertex 42.8626 7.6221 4
      vertex 41.9773 6.6241 4
    endloop
  endfacet
  facet normal 0.860321 -0.509753 0
    outer loop
      vertex 43.5777 8.82899 2
      vertex 42.8626 7.6221 4
      vertex 42.8626 7.6221 2
    endloop
  endfacet
  facet normal 0.860321 -0.509753 0
    outer loop
      vertex 43.5777 8.82899 2
      vertex 43.5777 8.82899 4
      vertex 42.8626 7.6221 4
    endloop
  endfacet
  facet normal 0.445947 0.895059 0
    outer loop
      vertex 41.8857 9.672 2
      vertex 43.5777 8.82899 4
      vertex 43.5777 8.82899 2
    endloop
  endfacet
  facet normal 0.445947 0.895059 -0
    outer loop
      vertex 41.8857 9.672 2
      vertex 41.8857 9.672 4
      vertex 43.5777 8.82899 4
    endloop
  endfacet
  facet normal -0.813266 0.581892 0
    outer loop
      vertex 40.6288 7.91533 2
      vertex 41.8857 9.672 4
      vertex 41.8857 9.672 2
    endloop
  endfacet
  facet normal -0.813266 0.581892 0
    outer loop
      vertex 40.6288 7.91533 2
      vertex 40.6288 7.91533 4
      vertex 41.8857 9.672 4
    endloop
  endfacet
  facet normal -0.54725 0.836969 0
    outer loop
      vertex 39.0168 6.86133 2
      vertex 40.6288 7.91533 4
      vertex 40.6288 7.91533 2
    endloop
  endfacet
  facet normal -0.54725 0.836969 0
    outer loop
      vertex 39.0168 6.86133 2
      vertex 39.0168 6.86133 4
      vertex 40.6288 7.91533 4
    endloop
  endfacet
  facet normal -0.175821 0.984422 0
    outer loop
      vertex 37.0497 6.50999 2
      vertex 39.0168 6.86133 4
      vertex 39.0168 6.86133 2
    endloop
  endfacet
  facet normal -0.175821 0.984422 0
    outer loop
      vertex 37.0497 6.50999 2
      vertex 37.0497 6.50999 4
      vertex 39.0168 6.86133 4
    endloop
  endfacet
  facet normal 0.120441 0.992721 0
    outer loop
      vertex 35.4911 6.6991 2
      vertex 37.0497 6.50999 4
      vertex 37.0497 6.50999 2
    endloop
  endfacet
  facet normal 0.120441 0.992721 -0
    outer loop
      vertex 35.4911 6.6991 2
      vertex 35.4911 6.6991 4
      vertex 37.0497 6.50999 4
    endloop
  endfacet
  facet normal 0.392862 0.919597 0
    outer loop
      vertex 34.1631 7.26643 2
      vertex 35.4911 6.6991 4
      vertex 35.4911 6.6991 2
    endloop
  endfacet
  facet normal 0.392862 0.919597 -0
    outer loop
      vertex 34.1631 7.26643 2
      vertex 34.1631 7.26643 4
      vertex 35.4911 6.6991 4
    endloop
  endfacet
  facet normal 0.652772 0.757554 0
    outer loop
      vertex 33.0657 8.21199 2
      vertex 34.1631 7.26643 4
      vertex 34.1631 7.26643 2
    endloop
  endfacet
  facet normal 0.652772 0.757554 -0
    outer loop
      vertex 33.0657 8.21199 2
      vertex 33.0657 8.21199 4
      vertex 34.1631 7.26643 4
    endloop
  endfacet
  facet normal 0.83811 0.545501 0
    outer loop
      vertex 32.248 9.46843 2
      vertex 33.0657 8.21199 4
      vertex 33.0657 8.21199 2
    endloop
  endfacet
  facet normal 0.83811 0.545501 -0
    outer loop
      vertex 32.248 9.46843 2
      vertex 32.248 9.46843 4
      vertex 33.0657 8.21199 4
    endloop
  endfacet
  facet normal 0.950443 0.310897 0
    outer loop
      vertex 31.7573 10.9684 2
      vertex 32.248 9.46843 4
      vertex 32.248 9.46843 2
    endloop
  endfacet
  facet normal 0.950443 0.310897 -0
    outer loop
      vertex 31.7573 10.9684 2
      vertex 31.7573 10.9684 4
      vertex 32.248 9.46843 4
    endloop
  endfacet
  facet normal 0.995629 0.0933974 0
    outer loop
      vertex 31.5937 12.712 2
      vertex 31.7573 10.9684 4
      vertex 31.7573 10.9684 2
    endloop
  endfacet
  facet normal 0.995629 0.0933974 -0
    outer loop
      vertex 31.5937 12.712 2
      vertex 31.5937 12.712 4
      vertex 31.7573 10.9684 4
    endloop
  endfacet
  facet normal 0.996018 -0.0891521 0
    outer loop
      vertex 31.7507 14.466 2
      vertex 31.5937 12.712 4
      vertex 31.5937 12.712 2
    endloop
  endfacet
  facet normal 0.996018 -0.0891521 0
    outer loop
      vertex 31.7507 14.466 2
      vertex 31.7507 14.466 4
      vertex 31.5937 12.712 4
    endloop
  endfacet
  facet normal 0.953261 -0.302148 0
    outer loop
      vertex 32.2217 15.952 2
      vertex 31.7507 14.466 4
      vertex 31.7507 14.466 2
    endloop
  endfacet
  facet normal 0.953261 -0.302148 0
    outer loop
      vertex 32.2217 15.952 2
      vertex 32.2217 15.952 4
      vertex 31.7507 14.466 4
    endloop
  endfacet
  facet normal 0.840554 -0.541727 0
    outer loop
      vertex 33.0067 17.17 2
      vertex 32.2217 15.952 4
      vertex 32.2217 15.952 2
    endloop
  endfacet
  facet normal 0.840554 -0.541727 0
    outer loop
      vertex 33.0067 17.17 2
      vertex 33.0067 17.17 4
      vertex 32.2217 15.952 4
    endloop
  endfacet
  facet normal 0.64594 -0.763388 0
    outer loop
      vertex 34.0743 18.0733 2
      vertex 33.0067 17.17 4
      vertex 33.0067 17.17 2
    endloop
  endfacet
  facet normal 0.64594 -0.763388 0
    outer loop
      vertex 34.0743 18.0733 2
      vertex 34.0743 18.0733 4
      vertex 33.0067 17.17 4
    endloop
  endfacet
  facet normal 0.380167 -0.924918 0
    outer loop
      vertex 35.393 18.6153 2
      vertex 34.0743 18.0733 4
      vertex 34.0743 18.0733 2
    endloop
  endfacet
  facet normal 0.380167 -0.924918 0
    outer loop
      vertex 35.393 18.6153 2
      vertex 35.393 18.6153 4
      vertex 34.0743 18.0733 4
    endloop
  endfacet
  facet normal 0.114334 -0.993442 0
    outer loop
      vertex 36.9627 18.796 2
      vertex 35.393 18.6153 4
      vertex 35.393 18.6153 2
    endloop
  endfacet
  facet normal 0.114334 -0.993442 0
    outer loop
      vertex 36.9627 18.796 2
      vertex 36.9627 18.796 4
      vertex 35.393 18.6153 4
    endloop
  endfacet
  facet normal -0.0752225 -0.997167 0
    outer loop
      vertex 37.9937 18.7182 2
      vertex 36.9627 18.796 4
      vertex 36.9627 18.796 2
    endloop
  endfacet
  facet normal -0.0752225 -0.997167 0
    outer loop
      vertex 37.9937 18.7182 2
      vertex 37.9937 18.7182 4
      vertex 36.9627 18.796 4
    endloop
  endfacet
  facet normal -0.242621 -0.970121 0
    outer loop
      vertex 38.9267 18.4849 2
      vertex 37.9937 18.7182 4
      vertex 37.9937 18.7182 2
    endloop
  endfacet
  facet normal -0.242621 -0.970121 0
    outer loop
      vertex 38.9267 18.4849 2
      vertex 38.9267 18.4849 4
      vertex 37.9937 18.7182 4
    endloop
  endfacet
  facet normal -0.422186 -0.906509 0
    outer loop
      vertex 39.7617 18.096 2
      vertex 38.9267 18.4849 4
      vertex 38.9267 18.4849 2
    endloop
  endfacet
  facet normal -0.422186 -0.906509 0
    outer loop
      vertex 39.7617 18.096 2
      vertex 39.7617 18.096 4
      vertex 38.9267 18.4849 4
    endloop
  endfacet
  facet normal -0.600238 -0.799822 0
    outer loop
      vertex 40.476 17.56 2
      vertex 39.7617 18.096 4
      vertex 39.7617 18.096 2
    endloop
  endfacet
  facet normal -0.600238 -0.799822 0
    outer loop
      vertex 40.476 17.56 2
      vertex 40.476 17.56 4
      vertex 39.7617 18.096 4
    endloop
  endfacet
  facet normal -0.763494 -0.645815 0
    outer loop
      vertex 41.0466 16.8853 2
      vertex 40.476 17.56 4
      vertex 40.476 17.56 2
    endloop
  endfacet
  facet normal -0.763494 -0.645815 0
    outer loop
      vertex 41.0466 16.8853 2
      vertex 41.0466 16.8853 4
      vertex 40.476 17.56 4
    endloop
  endfacet
  facet normal -0.885351 -0.464924 0
    outer loop
      vertex 41.4737 16.072 2
      vertex 41.0466 16.8853 4
      vertex 41.0466 16.8853 2
    endloop
  endfacet
  facet normal -0.885351 -0.464924 0
    outer loop
      vertex 41.4737 16.072 2
      vertex 41.4737 16.072 4
      vertex 41.0466 16.8853 4
    endloop
  endfacet
  facet normal 0.313467 -0.949599 0
    outer loop
      vertex 43.4367 16.72 2
      vertex 41.4737 16.072 4
      vertex 41.4737 16.072 2
    endloop
  endfacet
  facet normal 0.313467 -0.949599 0
    outer loop
      vertex 43.4367 16.72 2
      vertex 43.4367 16.72 4
      vertex 41.4737 16.072 4
    endloop
  endfacet
  facet normal 0.882102 0.471059 0
    outer loop
      vertex 42.8262 17.8633 2
      vertex 43.4367 16.72 4
      vertex 43.4367 16.72 2
    endloop
  endfacet
  facet normal 0.882102 0.471059 -0
    outer loop
      vertex 42.8262 17.8633 2
      vertex 42.8262 17.8633 4
      vertex 43.4367 16.72 4
    endloop
  endfacet
  facet normal 0.759846 0.650103 0
    outer loop
      vertex 42.0225 18.8027 2
      vertex 42.8262 17.8633 4
      vertex 42.8262 17.8633 2
    endloop
  endfacet
  facet normal 0.759846 0.650103 -0
    outer loop
      vertex 42.0225 18.8027 2
      vertex 42.0225 18.8027 4
      vertex 42.8262 17.8633 4
    endloop
  endfacet
  facet normal 0.593658 0.804717 0
    outer loop
      vertex 41.0257 19.538 2
      vertex 42.0225 18.8027 4
      vertex 42.0225 18.8027 2
    endloop
  endfacet
  facet normal 0.593658 0.804717 -0
    outer loop
      vertex 41.0257 19.538 2
      vertex 41.0257 19.538 4
      vertex 42.0225 18.8027 4
    endloop
  endfacet
  facet normal 0.407515 0.913198 0
    outer loop
      vertex 39.8431 20.0658 2
      vertex 41.0257 19.538 4
      vertex 41.0257 19.538 2
    endloop
  endfacet
  facet normal 0.407515 0.913198 -0
    outer loop
      vertex 39.8431 20.0658 2
      vertex 39.8431 20.0658 4
      vertex 41.0257 19.538 4
    endloop
  endfacet
  facet normal 0.226566 0.973996 0
    outer loop
      vertex 38.4817 20.3824 2
      vertex 39.8431 20.0658 4
      vertex 39.8431 20.0658 2
    endloop
  endfacet
  facet normal 0.226566 0.973996 -0
    outer loop
      vertex 38.4817 20.3824 2
      vertex 38.4817 20.3824 4
      vertex 39.8431 20.0658 4
    endloop
  endfacet
  facet normal 0.0683855 0.997659 0
    outer loop
      vertex 36.9417 20.488 2
      vertex 38.4817 20.3824 4
      vertex 38.4817 20.3824 2
    endloop
  endfacet
  facet normal 0.0683855 0.997659 -0
    outer loop
      vertex 36.9417 20.488 2
      vertex 36.9417 20.488 4
      vertex 38.4817 20.3824 4
    endloop
  endfacet
  facet normal -0.105561 0.994413 0
    outer loop
      vertex 34.7793 20.2584 2
      vertex 36.9417 20.488 4
      vertex 36.9417 20.488 2
    endloop
  endfacet
  facet normal -0.105561 0.994413 0
    outer loop
      vertex 34.7793 20.2584 2
      vertex 34.7793 20.2584 4
      vertex 36.9417 20.488 4
    endloop
  endfacet
  facet normal -0.35311 0.935582 0
    outer loop
      vertex 32.9546 19.5698 2
      vertex 34.7793 20.2584 4
      vertex 34.7793 20.2584 2
    endloop
  endfacet
  facet normal -0.35311 0.935582 0
    outer loop
      vertex 32.9546 19.5698 2
      vertex 32.9546 19.5698 4
      vertex 34.7793 20.2584 4
    endloop
  endfacet
  facet normal -0.611049 0.791593 0
    outer loop
      vertex 31.4677 18.422 2
      vertex 32.9546 19.5698 4
      vertex 32.9546 19.5698 2
    endloop
  endfacet
  facet normal -0.611049 0.791593 0
    outer loop
      vertex 31.4677 18.422 2
      vertex 31.4677 18.422 4
      vertex 32.9546 19.5698 4
    endloop
  endfacet
  facet normal -0.816293 0.577638 0
    outer loop
      vertex 30.3694 16.8699 2
      vertex 31.4677 18.422 4
      vertex 31.4677 18.422 2
    endloop
  endfacet
  facet normal -0.816293 0.577638 0
    outer loop
      vertex 30.3694 16.8699 2
      vertex 30.3694 16.8699 4
      vertex 31.4677 18.422 4
    endloop
  endfacet
  facet normal -0.944945 0.327228 0
    outer loop
      vertex 29.7104 14.9669 2
      vertex 30.3694 16.8699 4
      vertex 30.3694 16.8699 2
    endloop
  endfacet
  facet normal -0.944945 0.327228 0
    outer loop
      vertex 29.7104 14.9669 2
      vertex 29.7104 14.9669 4
      vertex 30.3694 16.8699 4
    endloop
  endfacet
  facet normal -0.995284 0.097001 0
    outer loop
      vertex 29.4907 12.713 2
      vertex 29.7104 14.9669 4
      vertex 29.7104 14.9669 2
    endloop
  endfacet
  facet normal -0.995284 0.097001 0
    outer loop
      vertex 29.4907 12.713 2
      vertex 29.4907 12.713 4
      vertex 29.7104 14.9669 4
    endloop
  endfacet
  facet normal -0.997992 -0.0633371 0
    outer loop
      vertex 29.5891 11.1637 2
      vertex 29.4907 12.713 4
      vertex 29.4907 12.713 2
    endloop
  endfacet
  facet normal -0.997992 -0.0633371 0
    outer loop
      vertex 29.5891 11.1637 2
      vertex 29.5891 11.1637 4
      vertex 29.4907 12.713 4
    endloop
  endfacet
  facet normal -0.978632 -0.205622 0
    outer loop
      vertex 29.8841 9.75966 2
      vertex 29.5891 11.1637 4
      vertex 29.5891 11.1637 2
    endloop
  endfacet
  facet normal -0.978632 -0.205622 0
    outer loop
      vertex 29.8841 9.75966 2
      vertex 29.8841 9.75966 4
      vertex 29.5891 11.1637 4
    endloop
  endfacet
  facet normal -0.931457 -0.363852 0
    outer loop
      vertex 30.3757 8.50099 2
      vertex 29.8841 9.75966 4
      vertex 29.8841 9.75966 2
    endloop
  endfacet
  facet normal -0.931457 -0.363852 0
    outer loop
      vertex 30.3757 8.50099 2
      vertex 30.3757 8.50099 4
      vertex 29.8841 9.75966 4
    endloop
  endfacet
  facet normal -0.849679 -0.527301 0
    outer loop
      vertex 31.0551 7.40633 2
      vertex 30.3757 8.50099 4
      vertex 30.3757 8.50099 2
    endloop
  endfacet
  facet normal -0.849679 -0.527301 0
    outer loop
      vertex 31.0551 7.40633 2
      vertex 31.0551 7.40633 4
      vertex 30.3757 8.50099 4
    endloop
  endfacet
  facet normal -0.728341 -0.685215 0
    outer loop
      vertex 31.9131 6.49432 2
      vertex 31.0551 7.40633 4
      vertex 31.0551 7.40633 2
    endloop
  endfacet
  facet normal -0.728341 -0.685215 0
    outer loop
      vertex 31.9131 6.49432 2
      vertex 31.9131 6.49432 4
      vertex 31.0551 7.40633 4
    endloop
  endfacet
  facet normal -0.575397 -0.817874 0
    outer loop
      vertex 32.9497 5.765 2
      vertex 31.9131 6.49432 4
      vertex 31.9131 6.49432 2
    endloop
  endfacet
  facet normal -0.575397 -0.817874 0
    outer loop
      vertex 32.9497 5.765 2
      vertex 32.9497 5.765 4
      vertex 31.9131 6.49432 4
    endloop
  endfacet
  facet normal -0.406377 -0.913706 0
    outer loop
      vertex 34.1452 5.23332 2
      vertex 32.9497 5.765 4
      vertex 32.9497 5.765 2
    endloop
  endfacet
  facet normal -0.406377 -0.913706 0
    outer loop
      vertex 34.1452 5.23332 2
      vertex 34.1452 5.23332 4
      vertex 32.9497 5.765 4
    endloop
  endfacet
  facet normal -0.232508 -0.972595 0
    outer loop
      vertex 35.4795 4.91434 2
      vertex 34.1452 5.23332 4
      vertex 34.1452 5.23332 2
    endloop
  endfacet
  facet normal -0.232508 -0.972595 0
    outer loop
      vertex 35.4795 4.91434 2
      vertex 35.4795 4.91434 4
      vertex 34.1452 5.23332 4
    endloop
  endfacet
  facet normal -0.0719834 -0.997406 0
    outer loop
      vertex 36.9527 4.80801 2
      vertex 35.4795 4.91434 4
      vertex 35.4795 4.91434 2
    endloop
  endfacet
  facet normal -0.0719834 -0.997406 0
    outer loop
      vertex 36.9527 4.80801 2
      vertex 36.9527 4.80801 4
      vertex 35.4795 4.91434 4
    endloop
  endfacet
  facet normal 0.0787201 -0.996897 0
    outer loop
      vertex 38.3977 4.92212 2
      vertex 36.9527 4.80801 4
      vertex 36.9527 4.80801 2
    endloop
  endfacet
  facet normal 0.0787201 -0.996897 0
    outer loop
      vertex 38.3977 4.92212 2
      vertex 38.3977 4.92212 4
      vertex 36.9527 4.80801 4
    endloop
  endfacet
  facet normal 0 -1 0
    outer loop
      vertex 16.67 11.363 2
      vertex 11.896 11.363 4
      vertex 11.896 11.363 2
    endloop
  endfacet
  facet normal 0 -1 0
    outer loop
      vertex 16.67 11.363 2
      vertex 16.67 11.363 4
      vertex 11.896 11.363 4
    endloop
  endfacet
  facet normal -0.848051 -0.529915 0
    outer loop
      vertex 20.646 5 2
      vertex 16.67 11.363 4
      vertex 16.67 11.363 2
    endloop
  endfacet
  facet normal -0.848051 -0.529915 0
    outer loop
      vertex 20.646 5 2
      vertex 20.646 5 4
      vertex 16.67 11.363 4
    endloop
  endfacet
  facet normal 0 -1 0
    outer loop
      vertex 23.032 5 2
      vertex 20.646 5 4
      vertex 20.646 5 2
    endloop
  endfacet
  facet normal 0 -1 0
    outer loop
      vertex 23.032 5 2
      vertex 23.032 5 4
      vertex 20.646 5 4
    endloop
  endfacet
  facet normal 0.835287 0.549814 0
    outer loop
      vertex 18.687 11.601 2
      vertex 23.032 5 4
      vertex 23.032 5 2
    endloop
  endfacet
  facet normal 0.835287 0.549814 -0
    outer loop
      vertex 18.687 11.601 2
      vertex 18.687 11.601 4
      vertex 23.032 5 4
    endloop
  endfacet
  facet normal 0.265319 -0.964161 0
    outer loop
      vertex 19.7691 11.8988 2
      vertex 18.687 11.601 4
      vertex 18.687 11.601 2
    endloop
  endfacet
  facet normal 0.265319 -0.964161 0
    outer loop
      vertex 19.7691 11.8988 2
      vertex 19.7691 11.8988 4
      vertex 18.687 11.601 4
    endloop
  endfacet
  facet normal 0.470847 -0.882215 0
    outer loop
      vertex 20.6834 12.3868 2
      vertex 19.7691 11.8988 4
      vertex 19.7691 11.8988 2
    endloop
  endfacet
  facet normal 0.470847 -0.882215 0
    outer loop
      vertex 20.6834 12.3868 2
      vertex 20.6834 12.3868 4
      vertex 19.7691 11.8988 4
    endloop
  endfacet
  facet normal 0.672423 -0.740167 0
    outer loop
      vertex 21.43 13.065 2
      vertex 20.6834 12.3868 4
      vertex 20.6834 12.3868 2
    endloop
  endfacet
  facet normal 0.672423 -0.740167 0
    outer loop
      vertex 21.43 13.065 2
      vertex 21.43 13.065 4
      vertex 20.6834 12.3868 4
    endloop
  endfacet
  facet normal 0.833657 -0.552282 0
    outer loop
      vertex 21.9822 13.8985 2
      vertex 21.43 13.065 4
      vertex 21.43 13.065 2
    endloop
  endfacet
  facet normal 0.833657 -0.552282 0
    outer loop
      vertex 21.9822 13.8985 2
      vertex 21.9822 13.8985 4
      vertex 21.43 13.065 4
    endloop
  endfacet
  facet normal 0.944646 -0.328092 0
    outer loop
      vertex 22.3136 14.8526 2
      vertex 21.9822 13.8985 4
      vertex 21.9822 13.8985 2
    endloop
  endfacet
  facet normal 0.944646 -0.328092 0
    outer loop
      vertex 22.3136 14.8526 2
      vertex 22.3136 14.8526 4
      vertex 21.9822 13.8985 4
    endloop
  endfacet
  facet normal 0.994758 -0.102253 0
    outer loop
      vertex 22.424 15.927 2
      vertex 22.3136 14.8526 4
      vertex 22.3136 14.8526 2
    endloop
  endfacet
  facet normal 0.994758 -0.102253 0
    outer loop
      vertex 22.424 15.927 2
      vertex 22.424 15.927 4
      vertex 22.3136 14.8526 4
    endloop
  endfacet
  facet normal 0.992539 0.121928 0
    outer loop
      vertex 22.2677 17.1997 2
      vertex 22.424 15.927 4
      vertex 22.424 15.927 2
    endloop
  endfacet
  facet normal 0.992539 0.121928 -0
    outer loop
      vertex 22.2677 17.1997 2
      vertex 22.2677 17.1997 4
      vertex 22.424 15.927 4
    endloop
  endfacet
  facet normal 0.916068 0.401023 0
    outer loop
      vertex 21.7987 18.271 2
      vertex 22.2677 17.1997 4
      vertex 22.2677 17.1997 2
    endloop
  endfacet
  facet normal 0.916068 0.401023 -0
    outer loop
      vertex 21.7987 18.271 2
      vertex 21.7987 18.271 4
      vertex 22.2677 17.1997 4
    endloop
  endfacet
  facet normal 0.743861 0.668335 0
    outer loop
      vertex 21.017 19.141 2
      vertex 21.7987 18.271 4
      vertex 21.7987 18.271 2
    endloop
  endfacet
  facet normal 0.743861 0.668335 -0
    outer loop
      vertex 21.017 19.141 2
      vertex 21.017 19.141 4
      vertex 21.7987 18.271 4
    endloop
  endfacet
  facet normal 0.514883 0.857261 0
    outer loop
      vertex 19.9487 19.7827 2
      vertex 21.017 19.141 4
      vertex 21.017 19.141 2
    endloop
  endfacet
  facet normal 0.514883 0.857261 -0
    outer loop
      vertex 19.9487 19.7827 2
      vertex 19.9487 19.7827 4
      vertex 21.017 19.141 4
    endloop
  endfacet
  facet normal 0.278002 0.96058 0
    outer loop
      vertex 18.6183 20.1677 2
      vertex 19.9487 19.7827 4
      vertex 19.9487 19.7827 2
    endloop
  endfacet
  facet normal 0.278002 0.96058 -0
    outer loop
      vertex 18.6183 20.1677 2
      vertex 18.6183 20.1677 4
      vertex 19.9487 19.7827 4
    endloop
  endfacet
  facet normal 0.0803291 0.996768 0
    outer loop
      vertex 17.026 20.296 2
      vertex 18.6183 20.1677 4
      vertex 18.6183 20.1677 2
    endloop
  endfacet
  facet normal 0.0803291 0.996768 -0
    outer loop
      vertex 17.026 20.296 2
      vertex 17.026 20.296 4
      vertex 18.6183 20.1677 4
    endloop
  endfacet
  facet normal 0 1 0
    outer loop
      vertex 9.825 20.296 2
      vertex 17.026 20.296 4
      vertex 17.026 20.296 2
    endloop
  endfacet
  facet normal 0 1 0
    outer loop
      vertex 9.825 20.296 2
      vertex 9.825 20.296 4
      vertex 17.026 20.296 4
    endloop
  endfacet
  facet normal -1 0 0
    outer loop
      vertex 9.825 5 2
      vertex 9.825 20.296 4
      vertex 9.825 20.296 2
    endloop
  endfacet
  facet normal -1 0 0
    outer loop
      vertex 9.825 5 2
      vertex 9.825 5 4
      vertex 9.825 20.296 4
    endloop
  endfacet
  facet normal 0 -1 0
    outer loop
      vertex 11.896 5 2
      vertex 9.825 5 4
      vertex 9.825 5 2
    endloop
  endfacet
  facet normal 0 -1 0
    outer loop
      vertex 11.896 5 2
      vertex 11.896 5 4
      vertex 9.825 5 4
    endloop
  endfacet
  facet normal 1 0 0
    outer loop
      vertex 11.896 11.363 2
      vertex 11.896 5 4
      vertex 11.896 5 2
    endloop
  endfacet
  facet normal 1 0 -0
    outer loop
      vertex 11.896 11.363 2
      vertex 11.896 11.363 4
      vertex 11.896 5 4
    endloop
  endfacet
  facet normal 1 0 -0
    outer loop
      vertex 11.896 18.637 2
      vertex 11.896 18.637 4
      vertex 11.896 13 2
    endloop
  endfacet
  facet normal 1 -0 0
    outer loop
      vertex 11.896 13 4
      vertex 11.896 13 2
      vertex 11.896 18.637 4
    endloop
  endfacet
  facet normal 0 -1 0
    outer loop
      vertex 16.82 18.637 2
      vertex 16.82 18.637 4
      vertex 11.896 18.637 2
    endloop
  endfacet
  facet normal 0 -1 0
    outer loop
      vertex 11.896 18.637 4
      vertex 11.896 18.637 2
      vertex 16.82 18.637 4
    endloop
  endfacet
  facet normal -0.0738289 -0.997271 0
    outer loop
      vertex 17.8691 18.5593 2
      vertex 17.8691 18.5593 4
      vertex 16.82 18.637 2
    endloop
  endfacet
  facet normal -0.0738289 -0.997271 -0
    outer loop
      vertex 16.82 18.637 4
      vertex 16.82 18.637 2
      vertex 17.8691 18.5593 4
    endloop
  endfacet
  facet normal -0.258334 -0.966056 0
    outer loop
      vertex 18.7404 18.3263 2
      vertex 18.7404 18.3263 4
      vertex 17.8691 18.5593 2
    endloop
  endfacet
  facet normal -0.258334 -0.966056 -0
    outer loop
      vertex 17.8691 18.5593 4
      vertex 17.8691 18.5593 2
      vertex 18.7404 18.3263 4
    endloop
  endfacet
  facet normal -0.48855 -0.872536 0
    outer loop
      vertex 19.434 17.938 2
      vertex 19.434 17.938 4
      vertex 18.7404 18.3263 2
    endloop
  endfacet
  facet normal -0.48855 -0.872536 -0
    outer loop
      vertex 18.7404 18.3263 4
      vertex 18.7404 18.3263 2
      vertex 19.434 17.938 4
    endloop
  endfacet
  facet normal -0.728568 -0.684974 0
    outer loop
      vertex 19.9384 17.4014 2
      vertex 19.9384 17.4014 4
      vertex 19.434 17.938 2
    endloop
  endfacet
  facet normal -0.728568 -0.684974 -0
    outer loop
      vertex 19.434 17.938 4
      vertex 19.434 17.938 2
      vertex 19.9384 17.4014 4
    endloop
  endfacet
  facet normal -0.913067 -0.407809 0
    outer loop
      vertex 20.2411 16.7238 2
      vertex 20.2411 16.7238 4
      vertex 19.9384 17.4014 2
    endloop
  endfacet
  facet normal -0.913067 -0.407809 -0
    outer loop
      vertex 19.9384 17.4014 4
      vertex 19.9384 17.4014 2
      vertex 20.2411 16.7238 4
    endloop
  endfacet
  facet normal -0.992493 -0.122298 0
    outer loop
      vertex 20.342 15.905 2
      vertex 20.342 15.905 4
      vertex 20.2411 16.7238 2
    endloop
  endfacet
  facet normal -0.992493 -0.122298 -0
    outer loop
      vertex 20.2411 16.7238 4
      vertex 20.2411 16.7238 2
      vertex 20.342 15.905 4
    endloop
  endfacet
  facet normal -0.993194 0.116475 0
    outer loop
      vertex 20.2423 15.0551 2
      vertex 20.2423 15.0551 4
      vertex 20.342 15.905 2
    endloop
  endfacet
  facet normal -0.993194 0.116475 0
    outer loop
      vertex 20.342 15.905 4
      vertex 20.342 15.905 2
      vertex 20.2423 15.0551 4
    endloop
  endfacet
  facet normal -0.922325 0.386414 0
    outer loop
      vertex 19.9433 14.3414 2
      vertex 19.9433 14.3414 4
      vertex 20.2423 15.0551 2
    endloop
  endfacet
  facet normal -0.922325 0.386414 0
    outer loop
      vertex 20.2423 15.0551 4
      vertex 20.2423 15.0551 2
      vertex 19.9433 14.3414 4
    endloop
  endfacet
  facet normal -0.757056 0.65335 0
    outer loop
      vertex 19.445 13.764 2
      vertex 19.445 13.764 4
      vertex 19.9433 14.3414 2
    endloop
  endfacet
  facet normal -0.757056 0.65335 0
    outer loop
      vertex 19.9433 14.3414 4
      vertex 19.9433 14.3414 2
      vertex 19.445 13.764 4
    endloop
  endfacet
  facet normal -0.529123 0.848545 0
    outer loop
      vertex 18.7643 13.3396 2
      vertex 18.7643 13.3396 4
      vertex 19.445 13.764 2
    endloop
  endfacet
  facet normal -0.529123 0.848545 0
    outer loop
      vertex 19.445 13.764 4
      vertex 19.445 13.764 2
      vertex 18.7643 13.3396 4
    endloop
  endfacet
  facet normal -0.288248 0.957556 0
    outer loop
      vertex 17.9183 13.0849 2
      vertex 17.9183 13.0849 4
      vertex 18.7643 13.3396 2
    endloop
  endfacet
  facet normal -0.288248 0.957556 0
    outer loop
      vertex 18.7643 13.3396 4
      vertex 18.7643 13.3396 2
      vertex 17.9183 13.0849 4
    endloop
  endfacet
  facet normal -0.0836402 0.996496 0
    outer loop
      vertex 16.907 13 2
      vertex 16.907 13 4
      vertex 17.9183 13.0849 2
    endloop
  endfacet
  facet normal -0.0836402 0.996496 0
    outer loop
      vertex 17.9183 13.0849 4
      vertex 17.9183 13.0849 2
      vertex 16.907 13 4
    endloop
  endfacet
  facet normal 0 1 0
    outer loop
      vertex 11.896 13 2
      vertex 11.896 13 4
      vertex 16.907 13 2
    endloop
  endfacet
  facet normal 0 1 0
    outer loop
      vertex 16.907 13 4
      vertex 16.907 13 2
      vertex 11.896 13 4
    endloop
  endfacet
endsolid OpenSCAD_Model
