solid OpenSCAD_Model
  facet normal 0 0 -1
    outer loop
      vertex 41.8344 9.34854 2
      vertex 44.1702 9.79077 2
      vertex 43.6607 8.528 2
    endloop
  endfacet
  facet normal 0 0 -1
    outer loop
      vertex 41.0477 8.11499 2
      vertex 41.8344 9.34854 2
      vertex 42.9614 7.42377 2
    endloop
  endfacet
  facet normal 0 -0 -1
    outer loop
      vertex 42.3064 10.8812 2
      vertex 44.1702 9.79077 2
      vertex 41.8344 9.34854 2
    endloop
  endfacet
  facet normal 0 0 -1
    outer loop
      vertex 42.3064 10.8812 2
      vertex 42.4637 12.713 2
      vertex 44.4758 11.1858 2
    endloop
  endfacet
  facet normal -0 0 -1
    outer loop
      vertex 42.0847 6.50444 2
      vertex 41.0307 5.76999 2
      vertex 39.9669 7.21165 2
    endloop
  endfacet
  facet normal 0 0 -1
    outer loop
      vertex 44.5777 12.713 2
      vertex 42.4637 12.713 2
      vertex 44.4771 14.2427 2
    endloop
  endfacet
  facet normal 0 0 -1
    outer loop
      vertex 38.6126 6.66966 2
      vertex 39.9669 7.21165 2
      vertex 39.8194 5.23555 2
    endloop
  endfacet
  facet normal -0 0 -1
    outer loop
      vertex 44.1751 15.6303 2
      vertex 42.3052 14.4714 2
      vertex 41.8295 15.9588 2
    endloop
  endfacet
  facet normal -0 0 -1
    outer loop
      vertex 39.8409 20.0769 2
      vertex 38.6118 18.6159 2
      vertex 38.4922 20.3852 2
    endloop
  endfacet
  facet normal 0 0 -1
    outer loop
      vertex 37.0067 18.796 2
      vertex 38.4922 20.3852 2
      vertex 38.6118 18.6159 2
    endloop
  endfacet
  facet normal 0 0 -1
    outer loop
      vertex 41.0367 17.175 2
      vertex 39.9552 18.0755 2
      vertex 42.1046 18.8538 2
    endloop
  endfacet
  facet normal 0 0 -1
    outer loop
      vertex 41.8295 15.9588 2
      vertex 41.0367 17.175 2
      vertex 42.978 17.9581 2
    endloop
  endfacet
  facet normal 0 0 -1
    outer loop
      vertex 37.0057 20.488 2
      vertex 35.3887 18.6183 2
      vertex 34.7944 20.2591 2
    endloop
  endfacet
  facet normal -0 0 -1
    outer loop
      vertex 43.6717 16.876 2
      vertex 41.8295 15.9588 2
      vertex 42.978 17.9581 2
    endloop
  endfacet
  facet normal 0 -0 -1
    outer loop
      vertex 32.9324 19.5724 2
      vertex 32.9487 17.197 2
      vertex 31.4197 18.428 2
    endloop
  endfacet
  facet normal 0 -0 -1
    outer loop
      vertex 31.4197 18.428 2
      vertex 32.1532 15.9881 2
      vertex 30.3047 16.8774 2
    endloop
  endfacet
  facet normal 0 0 -1
    outer loop
      vertex 32.1532 15.9881 2
      vertex 31.6758 14.4934 2
      vertex 29.6357 14.9724 2
    endloop
  endfacet
  facet normal 0 0 -1
    outer loop
      vertex 31.6758 14.4934 2
      vertex 31.5167 12.713 2
      vertex 29.4127 12.713 2
    endloop
  endfacet
  facet normal 0 -0 -1
    outer loop
      vertex 31.5167 12.713 2
      vertex 31.6776 10.9352 2
      vertex 29.5127 11.179 2
    endloop
  endfacet
  facet normal -0 0 -1
    outer loop
      vertex 19.9487 19.7827 2
      vertex 18.7404 18.3263 2
      vertex 18.6183 20.1677 2
    endloop
  endfacet
  facet normal 0 0 -1
    outer loop
      vertex 32.9324 19.5724 2
      vertex 34.0361 18.0853 2
      vertex 32.9487 17.197 2
    endloop
  endfacet
  facet normal 0 0 -1
    outer loop
      vertex 22.3136 14.8526 2
      vertex 20.342 15.905 2
      vertex 22.424 15.927 2
    endloop
  endfacet
  facet normal 0 0 -1
    outer loop
      vertex 29.8127 9.77832 2
      vertex 31.6776 10.9352 2
      vertex 32.1603 9.42055 2
    endloop
  endfacet
  facet normal 0 0 -1
    outer loop
      vertex 20.342 15.905 2
      vertex 22.2677 17.1997 2
      vertex 22.424 15.927 2
    endloop
  endfacet
  facet normal -0 0 -1
    outer loop
      vertex 38.4707 4.9149 2
      vertex 36.9847 4.80801 2
      vertex 36.9847 6.489 2
    endloop
  endfacet
  facet normal 0 0 -1
    outer loop
      vertex 19.9433 14.3414 2
      vertex 20.2423 15.0551 2
      vertex 21.9822 13.8985 2
    endloop
  endfacet
  facet normal 0 0 -1
    outer loop
      vertex 31.0031 7.40521 2
      vertex 32.9647 8.16899 2
      vertex 31.8727 6.48788 2
    endloop
  endfacet
  facet normal 0 0 -1
    outer loop
      vertex 34.1327 5.23065 2
      vertex 35.3954 6.67566 2
      vertex 35.4871 4.91368 2
    endloop
  endfacet
  facet normal 0 0 -1
    outer loop
      vertex 20.646 5 2
      vertex 18.687 11.601 2
      vertex 23.032 5 2
    endloop
  endfacet
  facet normal 0 0 -1
    outer loop
      vertex 34.0554 7.23566 2
      vertex 35.3954 6.67566 2
      vertex 34.1327 5.23065 2
    endloop
  endfacet
  facet normal 0 0 -1
    outer loop
      vertex 32.9217 5.75899 2
      vertex 34.0554 7.23566 2
      vertex 34.1327 5.23065 2
    endloop
  endfacet
  facet normal 0 0 -1
    outer loop
      vertex 31.8727 6.48788 2
      vertex 32.9647 8.16899 2
      vertex 34.0554 7.23566 2
    endloop
  endfacet
  facet normal -0 0 -1
    outer loop
      vertex 36.9847 6.489 2
      vertex 35.4871 4.91368 2
      vertex 35.3954 6.67566 2
    endloop
  endfacet
  facet normal 0 -0 -1
    outer loop
      vertex 36.9847 6.489 2
      vertex 36.9847 4.80801 2
      vertex 35.4871 4.91368 2
    endloop
  endfacet
  facet normal 0 0 -1
    outer loop
      vertex 30.3127 8.51099 2
      vertex 32.1603 9.42055 2
      vertex 31.0031 7.40521 2
    endloop
  endfacet
  facet normal 0 0 -1
    outer loop
      vertex 32.9217 5.75899 2
      vertex 31.8727 6.48788 2
      vertex 34.0554 7.23566 2
    endloop
  endfacet
  facet normal 0 0 -1
    outer loop
      vertex 31.0031 7.40521 2
      vertex 32.1603 9.42055 2
      vertex 32.9647 8.16899 2
    endloop
  endfacet
  facet normal 0 0 -1
    outer loop
      vertex 30.3127 8.51099 2
      vertex 29.8127 9.77832 2
      vertex 32.1603 9.42055 2
    endloop
  endfacet
  facet normal -0 0 -1
    outer loop
      vertex 31.6776 10.9352 2
      vertex 29.8127 9.77832 2
      vertex 29.5127 11.179 2
    endloop
  endfacet
  facet normal -0 0 -1
    outer loop
      vertex 31.5167 12.713 2
      vertex 29.5127 11.179 2
      vertex 29.4127 12.713 2
    endloop
  endfacet
  facet normal -0 0 -1
    outer loop
      vertex 31.6758 14.4934 2
      vertex 29.4127 12.713 2
      vertex 29.6357 14.9724 2
    endloop
  endfacet
  facet normal -0 0 -1
    outer loop
      vertex 32.1532 15.9881 2
      vertex 29.6357 14.9724 2
      vertex 30.3047 16.8774 2
    endloop
  endfacet
  facet normal -0 0 -1
    outer loop
      vertex 32.9487 17.197 2
      vertex 32.1532 15.9881 2
      vertex 31.4197 18.428 2
    endloop
  endfacet
  facet normal 0 0 -1
    outer loop
      vertex 32.9324 19.5724 2
      vertex 34.7944 20.2591 2
      vertex 34.0361 18.0853 2
    endloop
  endfacet
  facet normal 0 0 -1
    outer loop
      vertex 34.0361 18.0853 2
      vertex 34.7944 20.2591 2
      vertex 35.3887 18.6183 2
    endloop
  endfacet
  facet normal 0 0 -1
    outer loop
      vertex 37.0067 18.796 2
      vertex 37.0057 20.488 2
      vertex 38.4922 20.3852 2
    endloop
  endfacet
  facet normal 0 0 -1
    outer loop
      vertex 35.3887 18.6183 2
      vertex 37.0057 20.488 2
      vertex 37.0067 18.796 2
    endloop
  endfacet
  facet normal 0 -0 -1
    outer loop
      vertex 39.8409 20.0769 2
      vertex 39.9552 18.0755 2
      vertex 38.6118 18.6159 2
    endloop
  endfacet
  facet normal 0 0 -1
    outer loop
      vertex 39.9552 18.0755 2
      vertex 41.0517 19.563 2
      vertex 42.1046 18.8538 2
    endloop
  endfacet
  facet normal 0 0 -1
    outer loop
      vertex 39.8409 20.0769 2
      vertex 41.0517 19.563 2
      vertex 39.9552 18.0755 2
    endloop
  endfacet
  facet normal 0 0 -1
    outer loop
      vertex 41.0367 17.175 2
      vertex 42.1046 18.8538 2
      vertex 42.978 17.9581 2
    endloop
  endfacet
  facet normal 0 -0 -1
    outer loop
      vertex 43.6717 16.876 2
      vertex 44.1751 15.6303 2
      vertex 41.8295 15.9588 2
    endloop
  endfacet
  facet normal 0 0 -1
    outer loop
      vertex 42.3052 14.4714 2
      vertex 44.4771 14.2427 2
      vertex 42.4637 12.713 2
    endloop
  endfacet
  facet normal 0 -0 -1
    outer loop
      vertex 44.1751 15.6303 2
      vertex 44.4771 14.2427 2
      vertex 42.3052 14.4714 2
    endloop
  endfacet
  facet normal -0 0 -1
    outer loop
      vertex 44.5777 12.713 2
      vertex 44.4758 11.1858 2
      vertex 42.4637 12.713 2
    endloop
  endfacet
  facet normal 0 0 -1
    outer loop
      vertex 44.4758 11.1858 2
      vertex 44.1702 9.79077 2
      vertex 42.3064 10.8812 2
    endloop
  endfacet
  facet normal -0 0 -1
    outer loop
      vertex 43.6607 8.528 2
      vertex 42.9614 7.42377 2
      vertex 41.8344 9.34854 2
    endloop
  endfacet
  facet normal -0 0 -1
    outer loop
      vertex 42.9614 7.42377 2
      vertex 42.0847 6.50444 2
      vertex 41.0477 8.11499 2
    endloop
  endfacet
  facet normal 0 -0 -1
    outer loop
      vertex 41.0477 8.11499 2
      vertex 42.0847 6.50444 2
      vertex 39.9669 7.21165 2
    endloop
  endfacet
  facet normal 0 -0 -1
    outer loop
      vertex 39.9669 7.21165 2
      vertex 41.0307 5.76999 2
      vertex 39.8194 5.23555 2
    endloop
  endfacet
  facet normal 0 0 -1
    outer loop
      vertex 36.9847 6.489 2
      vertex 38.6126 6.66966 2
      vertex 38.4707 4.9149 2
    endloop
  endfacet
  facet normal 0 -0 -1
    outer loop
      vertex 38.6126 6.66966 2
      vertex 39.8194 5.23555 2
      vertex 38.4707 4.9149 2
    endloop
  endfacet
  facet normal 0 -0 -1
    outer loop
      vertex 18.6183 20.1677 2
      vertex 18.7404 18.3263 2
      vertex 17.8691 18.5593 2
    endloop
  endfacet
  facet normal -0 0 -1
    outer loop
      vertex 11.896 11.363 2
      vertex 9.825 5 2
      vertex 11.896 13 2
    endloop
  endfacet
  facet normal 0 0 -1
    outer loop
      vertex 16.67 11.363 2
      vertex 18.687 11.601 2
      vertex 20.646 5 2
    endloop
  endfacet
  facet normal 0 0 -1
    outer loop
      vertex 17.8691 18.5593 2
      vertex 17.026 20.296 2
      vertex 18.6183 20.1677 2
    endloop
  endfacet
  facet normal 0 0 -1
    outer loop
      vertex 19.445 13.764 2
      vertex 19.9433 14.3414 2
      vertex 21.43 13.065 2
    endloop
  endfacet
  facet normal 0 -0 -1
    outer loop
      vertex 17.026 20.296 2
      vertex 17.8691 18.5593 2
      vertex 16.82 18.637 2
    endloop
  endfacet
  facet normal 0 0 -1
    outer loop
      vertex 9.825 20.296 2
      vertex 17.026 20.296 2
      vertex 11.896 18.637 2
    endloop
  endfacet
  facet normal 0 0 -1
    outer loop
      vertex 16.67 11.363 2
      vertex 11.896 13 2
      vertex 16.907 13 2
    endloop
  endfacet
  facet normal 0 0 -1
    outer loop
      vertex 16.67 11.363 2
      vertex 11.896 11.363 2
      vertex 11.896 13 2
    endloop
  endfacet
  facet normal 0 -0 -1
    outer loop
      vertex 11.896 11.363 2
      vertex 11.896 5 2
      vertex 9.825 5 2
    endloop
  endfacet
  facet normal 0 0 -1
    outer loop
      vertex 16.67 11.363 2
      vertex 17.9183 13.0849 2
      vertex 18.687 11.601 2
    endloop
  endfacet
  facet normal -0 0 -1
    outer loop
      vertex 20.6834 12.3868 2
      vertex 19.7691 11.8988 2
      vertex 19.445 13.764 2
    endloop
  endfacet
  facet normal -0 0 -1
    outer loop
      vertex 11.896 13 2
      vertex 9.825 5 2
      vertex 9.825 20.296 2
    endloop
  endfacet
  facet normal 0 0 -1
    outer loop
      vertex 9.825 20.296 2
      vertex 11.896 18.637 2
      vertex 11.896 13 2
    endloop
  endfacet
  facet normal 0 0 -1
    outer loop
      vertex 16.82 18.637 2
      vertex 11.896 18.637 2
      vertex 17.026 20.296 2
    endloop
  endfacet
  facet normal 0 0 -1
    outer loop
      vertex 19.9487 19.7827 2
      vertex 19.434 17.938 2
      vertex 18.7404 18.3263 2
    endloop
  endfacet
  facet normal 0 0 -1
    outer loop
      vertex 19.434 17.938 2
      vertex 21.017 19.141 2
      vertex 19.9384 17.4014 2
    endloop
  endfacet
  facet normal 0 -0 -1
    outer loop
      vertex 19.9487 19.7827 2
      vertex 21.017 19.141 2
      vertex 19.434 17.938 2
    endloop
  endfacet
  facet normal 0 0 -1
    outer loop
      vertex 19.9384 17.4014 2
      vertex 21.7987 18.271 2
      vertex 20.2411 16.7238 2
    endloop
  endfacet
  facet normal 0 -0 -1
    outer loop
      vertex 21.017 19.141 2
      vertex 21.7987 18.271 2
      vertex 19.9384 17.4014 2
    endloop
  endfacet
  facet normal 0 0 -1
    outer loop
      vertex 20.2411 16.7238 2
      vertex 22.2677 17.1997 2
      vertex 20.342 15.905 2
    endloop
  endfacet
  facet normal 0 -0 -1
    outer loop
      vertex 21.7987 18.271 2
      vertex 22.2677 17.1997 2
      vertex 20.2411 16.7238 2
    endloop
  endfacet
  facet normal 0 0 -1
    outer loop
      vertex 22.3136 14.8526 2
      vertex 20.2423 15.0551 2
      vertex 20.342 15.905 2
    endloop
  endfacet
  facet normal 0 0 -1
    outer loop
      vertex 20.2423 15.0551 2
      vertex 22.3136 14.8526 2
      vertex 21.9822 13.8985 2
    endloop
  endfacet
  facet normal 0 0 -1
    outer loop
      vertex 19.9433 14.3414 2
      vertex 21.9822 13.8985 2
      vertex 21.43 13.065 2
    endloop
  endfacet
  facet normal -0 0 -1
    outer loop
      vertex 21.43 13.065 2
      vertex 20.6834 12.3868 2
      vertex 19.445 13.764 2
    endloop
  endfacet
  facet normal 0 -0 -1
    outer loop
      vertex 19.445 13.764 2
      vertex 19.7691 11.8988 2
      vertex 18.7643 13.3396 2
    endloop
  endfacet
  facet normal 0 -0 -1
    outer loop
      vertex 18.7643 13.3396 2
      vertex 19.7691 11.8988 2
      vertex 18.687 11.601 2
    endloop
  endfacet
  facet normal 0 -0 -1
    outer loop
      vertex 16.907 13 2
      vertex 17.9183 13.0849 2
      vertex 16.67 11.363 2
    endloop
  endfacet
  facet normal 0 0 -1
    outer loop
      vertex 17.9183 13.0849 2
      vertex 18.7643 13.3396 2
      vertex 18.687 11.601 2
    endloop
  endfacet
  facet normal 0 -0 1
    outer loop
      vertex 43.6607 8.528 4
      vertex 44.1702 9.79077 4
      vertex 41.8344 9.34854 4
    endloop
  endfacet
  facet normal 0 0 1
    outer loop
      vertex 42.9614 7.42377 4
      vertex 41.8344 9.34854 4
      vertex 41.0477 8.11499 4
    endloop
  endfacet
  facet normal 0 0 1
    outer loop
      vertex 41.8344 9.34854 4
      vertex 44.1702 9.79077 4
      vertex 42.3064 10.8812 4
    endloop
  endfacet
  facet normal 0 0 1
    outer loop
      vertex 44.4758 11.1858 4
      vertex 42.4637 12.713 4
      vertex 42.3064 10.8812 4
    endloop
  endfacet
  facet normal 0 0 1
    outer loop
      vertex 39.9669 7.21165 4
      vertex 41.0307 5.76999 4
      vertex 42.0847 6.50444 4
    endloop
  endfacet
  facet normal 0 0 1
    outer loop
      vertex 44.4771 14.2427 4
      vertex 42.4637 12.713 4
      vertex 44.5777 12.713 4
    endloop
  endfacet
  facet normal 0 -0 1
    outer loop
      vertex 39.8194 5.23555 4
      vertex 39.9669 7.21165 4
      vertex 38.6126 6.66966 4
    endloop
  endfacet
  facet normal 0 0 1
    outer loop
      vertex 41.8295 15.9588 4
      vertex 42.3052 14.4714 4
      vertex 44.1751 15.6303 4
    endloop
  endfacet
  facet normal 0 0 1
    outer loop
      vertex 38.4922 20.3852 4
      vertex 38.6118 18.6159 4
      vertex 39.8409 20.0769 4
    endloop
  endfacet
  facet normal 0 0 1
    outer loop
      vertex 38.6118 18.6159 4
      vertex 38.4922 20.3852 4
      vertex 37.0067 18.796 4
    endloop
  endfacet
  facet normal 0 0 1
    outer loop
      vertex 42.1046 18.8538 4
      vertex 39.9552 18.0755 4
      vertex 41.0367 17.175 4
    endloop
  endfacet
  facet normal 0 0 1
    outer loop
      vertex 42.978 17.9581 4
      vertex 41.0367 17.175 4
      vertex 41.8295 15.9588 4
    endloop
  endfacet
  facet normal -0 0 1
    outer loop
      vertex 34.7944 20.2591 4
      vertex 35.3887 18.6183 4
      vertex 37.0057 20.488 4
    endloop
  endfacet
  facet normal 0 0 1
    outer loop
      vertex 42.978 17.9581 4
      vertex 41.8295 15.9588 4
      vertex 43.6717 16.876 4
    endloop
  endfacet
  facet normal -0 0 1
    outer loop
      vertex 31.4197 18.428 4
      vertex 32.9487 17.197 4
      vertex 32.9324 19.5724 4
    endloop
  endfacet
  facet normal -0 0 1
    outer loop
      vertex 30.3047 16.8774 4
      vertex 32.1532 15.9881 4
      vertex 31.4197 18.428 4
    endloop
  endfacet
  facet normal -0 0 1
    outer loop
      vertex 29.6357 14.9724 4
      vertex 31.6758 14.4934 4
      vertex 32.1532 15.9881 4
    endloop
  endfacet
  facet normal 0 0 1
    outer loop
      vertex 29.4127 12.713 4
      vertex 31.5167 12.713 4
      vertex 31.6758 14.4934 4
    endloop
  endfacet
  facet normal -0 0 1
    outer loop
      vertex 29.5127 11.179 4
      vertex 31.6776 10.9352 4
      vertex 31.5167 12.713 4
    endloop
  endfacet
  facet normal 0 0 1
    outer loop
      vertex 18.6183 20.1677 4
      vertex 18.7404 18.3263 4
      vertex 19.9487 19.7827 4
    endloop
  endfacet
  facet normal 0 -0 1
    outer loop
      vertex 32.9487 17.197 4
      vertex 34.0361 18.0853 4
      vertex 32.9324 19.5724 4
    endloop
  endfacet
  facet normal 0 0 1
    outer loop
      vertex 22.424 15.927 4
      vertex 20.342 15.905 4
      vertex 22.3136 14.8526 4
    endloop
  endfacet
  facet normal 0 0 1
    outer loop
      vertex 32.1603 9.42055 4
      vertex 31.6776 10.9352 4
      vertex 29.8127 9.77832 4
    endloop
  endfacet
  facet normal 0 0 1
    outer loop
      vertex 22.424 15.927 4
      vertex 22.2677 17.1997 4
      vertex 20.342 15.905 4
    endloop
  endfacet
  facet normal 0 0 1
    outer loop
      vertex 36.9847 6.489 4
      vertex 36.9847 4.80801 4
      vertex 38.4707 4.9149 4
    endloop
  endfacet
  facet normal 0 0 1
    outer loop
      vertex 21.9822 13.8985 4
      vertex 20.2423 15.0551 4
      vertex 19.9433 14.3414 4
    endloop
  endfacet
  facet normal 0 -0 1
    outer loop
      vertex 31.8727 6.48788 4
      vertex 32.9647 8.16899 4
      vertex 31.0031 7.40521 4
    endloop
  endfacet
  facet normal 0 0 1
    outer loop
      vertex 35.4871 4.91368 4
      vertex 35.3954 6.67566 4
      vertex 34.1327 5.23065 4
    endloop
  endfacet
  facet normal 0 0 1
    outer loop
      vertex 23.032 5 4
      vertex 18.687 11.601 4
      vertex 20.646 5 4
    endloop
  endfacet
  facet normal 0 -0 1
    outer loop
      vertex 34.1327 5.23065 4
      vertex 35.3954 6.67566 4
      vertex 34.0554 7.23566 4
    endloop
  endfacet
  facet normal 0 0 1
    outer loop
      vertex 34.1327 5.23065 4
      vertex 34.0554 7.23566 4
      vertex 32.9217 5.75899 4
    endloop
  endfacet
  facet normal 0 0 1
    outer loop
      vertex 34.0554 7.23566 4
      vertex 32.9647 8.16899 4
      vertex 31.8727 6.48788 4
    endloop
  endfacet
  facet normal 0 0 1
    outer loop
      vertex 35.3954 6.67566 4
      vertex 35.4871 4.91368 4
      vertex 36.9847 6.489 4
    endloop
  endfacet
  facet normal -0 0 1
    outer loop
      vertex 35.4871 4.91368 4
      vertex 36.9847 4.80801 4
      vertex 36.9847 6.489 4
    endloop
  endfacet
  facet normal 0 -0 1
    outer loop
      vertex 31.0031 7.40521 4
      vertex 32.1603 9.42055 4
      vertex 30.3127 8.51099 4
    endloop
  endfacet
  facet normal 0 0 1
    outer loop
      vertex 34.0554 7.23566 4
      vertex 31.8727 6.48788 4
      vertex 32.9217 5.75899 4
    endloop
  endfacet
  facet normal 0 0 1
    outer loop
      vertex 32.9647 8.16899 4
      vertex 32.1603 9.42055 4
      vertex 31.0031 7.40521 4
    endloop
  endfacet
  facet normal 0 0 1
    outer loop
      vertex 32.1603 9.42055 4
      vertex 29.8127 9.77832 4
      vertex 30.3127 8.51099 4
    endloop
  endfacet
  facet normal 0 0 1
    outer loop
      vertex 29.5127 11.179 4
      vertex 29.8127 9.77832 4
      vertex 31.6776 10.9352 4
    endloop
  endfacet
  facet normal -0 0 1
    outer loop
      vertex 29.4127 12.713 4
      vertex 29.5127 11.179 4
      vertex 31.5167 12.713 4
    endloop
  endfacet
  facet normal 0 0 1
    outer loop
      vertex 29.6357 14.9724 4
      vertex 29.4127 12.713 4
      vertex 31.6758 14.4934 4
    endloop
  endfacet
  facet normal 0 0 1
    outer loop
      vertex 30.3047 16.8774 4
      vertex 29.6357 14.9724 4
      vertex 32.1532 15.9881 4
    endloop
  endfacet
  facet normal 0 0 1
    outer loop
      vertex 31.4197 18.428 4
      vertex 32.1532 15.9881 4
      vertex 32.9487 17.197 4
    endloop
  endfacet
  facet normal 0 -0 1
    outer loop
      vertex 34.0361 18.0853 4
      vertex 34.7944 20.2591 4
      vertex 32.9324 19.5724 4
    endloop
  endfacet
  facet normal 0 0 1
    outer loop
      vertex 35.3887 18.6183 4
      vertex 34.7944 20.2591 4
      vertex 34.0361 18.0853 4
    endloop
  endfacet
  facet normal 0 0 1
    outer loop
      vertex 38.4922 20.3852 4
      vertex 37.0057 20.488 4
      vertex 37.0067 18.796 4
    endloop
  endfacet
  facet normal 0 0 1
    outer loop
      vertex 37.0067 18.796 4
      vertex 37.0057 20.488 4
      vertex 35.3887 18.6183 4
    endloop
  endfacet
  facet normal -0 0 1
    outer loop
      vertex 38.6118 18.6159 4
      vertex 39.9552 18.0755 4
      vertex 39.8409 20.0769 4
    endloop
  endfacet
  facet normal 0 0 1
    outer loop
      vertex 42.1046 18.8538 4
      vertex 41.0517 19.563 4
      vertex 39.9552 18.0755 4
    endloop
  endfacet
  facet normal 0 -0 1
    outer loop
      vertex 39.9552 18.0755 4
      vertex 41.0517 19.563 4
      vertex 39.8409 20.0769 4
    endloop
  endfacet
  facet normal 0 0 1
    outer loop
      vertex 42.978 17.9581 4
      vertex 42.1046 18.8538 4
      vertex 41.0367 17.175 4
    endloop
  endfacet
  facet normal -0 0 1
    outer loop
      vertex 41.8295 15.9588 4
      vertex 44.1751 15.6303 4
      vertex 43.6717 16.876 4
    endloop
  endfacet
  facet normal 0 -0 1
    outer loop
      vertex 42.4637 12.713 4
      vertex 44.4771 14.2427 4
      vertex 42.3052 14.4714 4
    endloop
  endfacet
  facet normal -0 0 1
    outer loop
      vertex 42.3052 14.4714 4
      vertex 44.4771 14.2427 4
      vertex 44.1751 15.6303 4
    endloop
  endfacet
  facet normal -0 0 1
    outer loop
      vertex 42.4637 12.713 4
      vertex 44.4758 11.1858 4
      vertex 44.5777 12.713 4
    endloop
  endfacet
  facet normal -0 0 1
    outer loop
      vertex 42.3064 10.8812 4
      vertex 44.1702 9.79077 4
      vertex 44.4758 11.1858 4
    endloop
  endfacet
  facet normal 0 0 1
    outer loop
      vertex 41.8344 9.34854 4
      vertex 42.9614 7.42377 4
      vertex 43.6607 8.528 4
    endloop
  endfacet
  facet normal 0 0 1
    outer loop
      vertex 41.0477 8.11499 4
      vertex 42.0847 6.50444 4
      vertex 42.9614 7.42377 4
    endloop
  endfacet
  facet normal -0 0 1
    outer loop
      vertex 39.9669 7.21165 4
      vertex 42.0847 6.50444 4
      vertex 41.0477 8.11499 4
    endloop
  endfacet
  facet normal 0 0 1
    outer loop
      vertex 39.8194 5.23555 4
      vertex 41.0307 5.76999 4
      vertex 39.9669 7.21165 4
    endloop
  endfacet
  facet normal 0 -0 1
    outer loop
      vertex 38.4707 4.9149 4
      vertex 38.6126 6.66966 4
      vertex 36.9847 6.489 4
    endloop
  endfacet
  facet normal 0 0 1
    outer loop
      vertex 38.4707 4.9149 4
      vertex 39.8194 5.23555 4
      vertex 38.6126 6.66966 4
    endloop
  endfacet
  facet normal -0 0 1
    outer loop
      vertex 17.8691 18.5593 4
      vertex 18.7404 18.3263 4
      vertex 18.6183 20.1677 4
    endloop
  endfacet
  facet normal 0 0 1
    outer loop
      vertex 11.896 13 4
      vertex 9.825 5 4
      vertex 11.896 11.363 4
    endloop
  endfacet
  facet normal 0 0 1
    outer loop
      vertex 20.646 5 4
      vertex 18.687 11.601 4
      vertex 16.67 11.363 4
    endloop
  endfacet
  facet normal 0 0 1
    outer loop
      vertex 18.6183 20.1677 4
      vertex 17.026 20.296 4
      vertex 17.8691 18.5593 4
    endloop
  endfacet
  facet normal 0 0 1
    outer loop
      vertex 21.43 13.065 4
      vertex 19.9433 14.3414 4
      vertex 19.445 13.764 4
    endloop
  endfacet
  facet normal -0 0 1
    outer loop
      vertex 16.82 18.637 4
      vertex 17.8691 18.5593 4
      vertex 17.026 20.296 4
    endloop
  endfacet
  facet normal 0 -0 1
    outer loop
      vertex 11.896 18.637 4
      vertex 17.026 20.296 4
      vertex 9.825 20.296 4
    endloop
  endfacet
  facet normal 0 0 1
    outer loop
      vertex 16.907 13 4
      vertex 11.896 13 4
      vertex 16.67 11.363 4
    endloop
  endfacet
  facet normal 0 0 1
    outer loop
      vertex 11.896 13 4
      vertex 11.896 11.363 4
      vertex 16.67 11.363 4
    endloop
  endfacet
  facet normal 0 0 1
    outer loop
      vertex 9.825 5 4
      vertex 11.896 5 4
      vertex 11.896 11.363 4
    endloop
  endfacet
  facet normal 0 0 1
    outer loop
      vertex 18.687 11.601 4
      vertex 17.9183 13.0849 4
      vertex 16.67 11.363 4
    endloop
  endfacet
  facet normal 0 0 1
    outer loop
      vertex 19.445 13.764 4
      vertex 19.7691 11.8988 4
      vertex 20.6834 12.3868 4
    endloop
  endfacet
  facet normal 0 0 1
    outer loop
      vertex 9.825 20.296 4
      vertex 9.825 5 4
      vertex 11.896 13 4
    endloop
  endfacet
  facet normal 0 -0 1
    outer loop
      vertex 11.896 13 4
      vertex 11.896 18.637 4
      vertex 9.825 20.296 4
    endloop
  endfacet
  facet normal 0 0 1
    outer loop
      vertex 17.026 20.296 4
      vertex 11.896 18.637 4
      vertex 16.82 18.637 4
    endloop
  endfacet
  facet normal -0 0 1
    outer loop
      vertex 18.7404 18.3263 4
      vertex 19.434 17.938 4
      vertex 19.9487 19.7827 4
    endloop
  endfacet
  facet normal 0 -0 1
    outer loop
      vertex 19.9384 17.4014 4
      vertex 21.017 19.141 4
      vertex 19.434 17.938 4
    endloop
  endfacet
  facet normal 0 0 1
    outer loop
      vertex 19.434 17.938 4
      vertex 21.017 19.141 4
      vertex 19.9487 19.7827 4
    endloop
  endfacet
  facet normal 0 -0 1
    outer loop
      vertex 20.2411 16.7238 4
      vertex 21.7987 18.271 4
      vertex 19.9384 17.4014 4
    endloop
  endfacet
  facet normal 0 0 1
    outer loop
      vertex 19.9384 17.4014 4
      vertex 21.7987 18.271 4
      vertex 21.017 19.141 4
    endloop
  endfacet
  facet normal 0 -0 1
    outer loop
      vertex 20.342 15.905 4
      vertex 22.2677 17.1997 4
      vertex 20.2411 16.7238 4
    endloop
  endfacet
  facet normal 0 0 1
    outer loop
      vertex 20.2411 16.7238 4
      vertex 22.2677 17.1997 4
      vertex 21.7987 18.271 4
    endloop
  endfacet
  facet normal 0 0 1
    outer loop
      vertex 20.342 15.905 4
      vertex 20.2423 15.0551 4
      vertex 22.3136 14.8526 4
    endloop
  endfacet
  facet normal 0 -0 1
    outer loop
      vertex 21.9822 13.8985 4
      vertex 22.3136 14.8526 4
      vertex 20.2423 15.0551 4
    endloop
  endfacet
  facet normal 0 -0 1
    outer loop
      vertex 21.43 13.065 4
      vertex 21.9822 13.8985 4
      vertex 19.9433 14.3414 4
    endloop
  endfacet
  facet normal 0 0 1
    outer loop
      vertex 19.445 13.764 4
      vertex 20.6834 12.3868 4
      vertex 21.43 13.065 4
    endloop
  endfacet
  facet normal -0 0 1
    outer loop
      vertex 18.7643 13.3396 4
      vertex 19.7691 11.8988 4
      vertex 19.445 13.764 4
    endloop
  endfacet
  facet normal 0 0 1
    outer loop
      vertex 18.687 11.601 4
      vertex 19.7691 11.8988 4
      vertex 18.7643 13.3396 4
    endloop
  endfacet
  facet normal 0 0 1
    outer loop
      vertex 16.67 11.363 4
      vertex 17.9183 13.0849 4
      vertex 16.907 13 4
    endloop
  endfacet
  facet normal 0 -0 1
    outer loop
      vertex 18.687 11.601 4
      vertex 18.7643 13.3396 4
      vertex 17.9183 13.0849 4
    endloop
  endfacet
  facet normal 0.231305 -0.972881 0
    outer loop
      vertex 39.8194 5.23555 2
      vertex 38.4707 4.9149 4
      vertex 38.4707 4.9149 2
    endloop
  endfacet
  facet normal 0.231305 -0.972881 0
    outer loop
      vertex 39.8194 5.23555 2
      vertex 39.8194 5.23555 4
      vertex 38.4707 4.9149 4
    endloop
  endfacet
  facet normal 0.403657 -0.91491 0
    outer loop
      vertex 41.0307 5.76999 2
      vertex 39.8194 5.23555 4
      vertex 39.8194 5.23555 2
    endloop
  endfacet
  facet normal 0.403657 -0.91491 0
    outer loop
      vertex 41.0307 5.76999 2
      vertex 41.0307 5.76999 4
      vertex 39.8194 5.23555 4
    endloop
  endfacet
  facet normal 0.571711 -0.820455 0
    outer loop
      vertex 42.0847 6.50444 2
      vertex 41.0307 5.76999 4
      vertex 41.0307 5.76999 2
    endloop
  endfacet
  facet normal 0.571711 -0.820455 0
    outer loop
      vertex 42.0847 6.50444 2
      vertex 42.0847 6.50444 4
      vertex 41.0307 5.76999 4
    endloop
  endfacet
  facet normal 0.7237 -0.690115 0
    outer loop
      vertex 42.9614 7.42377 2
      vertex 42.0847 6.50444 4
      vertex 42.0847 6.50444 2
    endloop
  endfacet
  facet normal 0.7237 -0.690115 0
    outer loop
      vertex 42.9614 7.42377 2
      vertex 42.9614 7.42377 4
      vertex 42.0847 6.50444 4
    endloop
  endfacet
  facet normal 0.844821 -0.535048 0
    outer loop
      vertex 43.6607 8.528 2
      vertex 42.9614 7.42377 4
      vertex 42.9614 7.42377 2
    endloop
  endfacet
  facet normal 0.844821 -0.535048 0
    outer loop
      vertex 43.6607 8.528 2
      vertex 43.6607 8.528 4
      vertex 42.9614 7.42377 4
    endloop
  endfacet
  facet normal 0.927374 -0.374135 0
    outer loop
      vertex 44.1702 9.79077 2
      vertex 43.6607 8.528 4
      vertex 43.6607 8.528 2
    endloop
  endfacet
  facet normal 0.927374 -0.374135 0
    outer loop
      vertex 44.1702 9.79077 2
      vertex 44.1702 9.79077 4
      vertex 43.6607 8.528 4
    endloop
  endfacet
  facet normal 0.976826 -0.214036 0
    outer loop
      vertex 44.4758 11.1858 2
      vertex 44.1702 9.79077 4
      vertex 44.1702 9.79077 2
    endloop
  endfacet
  facet normal 0.976826 -0.214036 0
    outer loop
      vertex 44.4758 11.1858 2
      vertex 44.4758 11.1858 4
      vertex 44.1702 9.79077 4
    endloop
  endfacet
  facet normal 0.997782 -0.0665633 0
    outer loop
      vertex 44.5777 12.713 2
      vertex 44.4758 11.1858 4
      vertex 44.4758 11.1858 2
    endloop
  endfacet
  facet normal 0.997782 -0.0665633 0
    outer loop
      vertex 44.5777 12.713 2
      vertex 44.5777 12.713 4
      vertex 44.4758 11.1858 4
    endloop
  endfacet
  facet normal 0.997842 0.0656648 0
    outer loop
      vertex 44.4771 14.2427 2
      vertex 44.5777 12.713 4
      vertex 44.5777 12.713 2
    endloop
  endfacet
  facet normal 0.997842 0.0656648 -0
    outer loop
      vertex 44.4771 14.2427 2
      vertex 44.4771 14.2427 4
      vertex 44.5777 12.713 4
    endloop
  endfacet
  facet normal 0.977127 0.212655 0
    outer loop
      vertex 44.1751 15.6303 2
      vertex 44.4771 14.2427 4
      vertex 44.4771 14.2427 2
    endloop
  endfacet
  facet normal 0.977127 0.212655 -0
    outer loop
      vertex 44.1751 15.6303 2
      vertex 44.1751 15.6303 4
      vertex 44.4771 14.2427 4
    endloop
  endfacet
  facet normal 0.927172 0.374635 0
    outer loop
      vertex 43.6717 16.876 2
      vertex 44.1751 15.6303 4
      vertex 44.1751 15.6303 2
    endloop
  endfacet
  facet normal 0.927172 0.374635 -0
    outer loop
      vertex 43.6717 16.876 2
      vertex 43.6717 16.876 4
      vertex 44.1751 15.6303 4
    endloop
  endfacet
  facet normal 0.841834 0.539737 0
    outer loop
      vertex 42.978 17.9581 2
      vertex 43.6717 16.876 4
      vertex 43.6717 16.876 2
    endloop
  endfacet
  facet normal 0.841834 0.539737 -0
    outer loop
      vertex 42.978 17.9581 2
      vertex 42.978 17.9581 4
      vertex 43.6717 16.876 4
    endloop
  endfacet
  facet normal 0.715985 0.698116 0
    outer loop
      vertex 42.1046 18.8538 2
      vertex 42.978 17.9581 4
      vertex 42.978 17.9581 2
    endloop
  endfacet
  facet normal 0.715985 0.698116 -0
    outer loop
      vertex 42.1046 18.8538 2
      vertex 42.1046 18.8538 4
      vertex 42.978 17.9581 4
    endloop
  endfacet
  facet normal 0.558663 0.829395 0
    outer loop
      vertex 41.0517 19.563 2
      vertex 42.1046 18.8538 4
      vertex 42.1046 18.8538 2
    endloop
  endfacet
  facet normal 0.558663 0.829395 -0
    outer loop
      vertex 41.0517 19.563 2
      vertex 41.0517 19.563 4
      vertex 42.1046 18.8538 4
    endloop
  endfacet
  facet normal 0.390666 0.920532 0
    outer loop
      vertex 39.8409 20.0769 2
      vertex 41.0517 19.563 4
      vertex 41.0517 19.563 2
    endloop
  endfacet
  facet normal 0.390666 0.920532 -0
    outer loop
      vertex 39.8409 20.0769 2
      vertex 39.8409 20.0769 4
      vertex 41.0517 19.563 4
    endloop
  endfacet
  facet normal 0.222869 0.974848 0
    outer loop
      vertex 38.4922 20.3852 2
      vertex 39.8409 20.0769 4
      vertex 39.8409 20.0769 2
    endloop
  endfacet
  facet normal 0.222869 0.974848 -0
    outer loop
      vertex 38.4922 20.3852 2
      vertex 38.4922 20.3852 4
      vertex 39.8409 20.0769 4
    endloop
  endfacet
  facet normal 0.0689827 0.997618 0
    outer loop
      vertex 37.0057 20.488 2
      vertex 38.4922 20.3852 4
      vertex 38.4922 20.3852 2
    endloop
  endfacet
  facet normal 0.0689827 0.997618 -0
    outer loop
      vertex 37.0057 20.488 2
      vertex 37.0057 20.488 4
      vertex 38.4922 20.3852 4
    endloop
  endfacet
  facet normal -0.102954 0.994686 0
    outer loop
      vertex 34.7944 20.2591 2
      vertex 37.0057 20.488 4
      vertex 37.0057 20.488 2
    endloop
  endfacet
  facet normal -0.102954 0.994686 0
    outer loop
      vertex 34.7944 20.2591 2
      vertex 34.7944 20.2591 4
      vertex 37.0057 20.488 4
    endloop
  endfacet
  facet normal -0.346005 0.938233 0
    outer loop
      vertex 32.9324 19.5724 2
      vertex 34.7944 20.2591 4
      vertex 34.7944 20.2591 2
    endloop
  endfacet
  facet normal -0.346005 0.938233 0
    outer loop
      vertex 32.9324 19.5724 2
      vertex 32.9324 19.5724 4
      vertex 34.7944 20.2591 4
    endloop
  endfacet
  facet normal -0.603349 0.797477 0
    outer loop
      vertex 31.4197 18.428 2
      vertex 32.9324 19.5724 4
      vertex 32.9324 19.5724 2
    endloop
  endfacet
  facet normal -0.603349 0.797477 0
    outer loop
      vertex 31.4197 18.428 2
      vertex 31.4197 18.428 4
      vertex 32.9324 19.5724 4
    endloop
  endfacet
  facet normal -0.81188 0.583825 0
    outer loop
      vertex 30.3047 16.8774 2
      vertex 31.4197 18.428 4
      vertex 31.4197 18.428 2
    endloop
  endfacet
  facet normal -0.81188 0.583825 0
    outer loop
      vertex 30.3047 16.8774 2
      vertex 30.3047 16.8774 4
      vertex 31.4197 18.428 4
    endloop
  endfacet
  facet normal -0.943512 0.331339 0
    outer loop
      vertex 29.6357 14.9724 2
      vertex 30.3047 16.8774 4
      vertex 30.3047 16.8774 2
    endloop
  endfacet
  facet normal -0.943512 0.331339 0
    outer loop
      vertex 29.6357 14.9724 2
      vertex 29.6357 14.9724 4
      vertex 30.3047 16.8774 4
    endloop
  endfacet
  facet normal -0.995164 0.0982227 0
    outer loop
      vertex 29.4127 12.713 2
      vertex 29.6357 14.9724 4
      vertex 29.6357 14.9724 2
    endloop
  endfacet
  facet normal -0.995164 0.0982227 0
    outer loop
      vertex 29.4127 12.713 2
      vertex 29.4127 12.713 4
      vertex 29.6357 14.9724 4
    endloop
  endfacet
  facet normal -0.997882 -0.0650544 0
    outer loop
      vertex 29.5127 11.179 2
      vertex 29.4127 12.713 4
      vertex 29.4127 12.713 2
    endloop
  endfacet
  facet normal -0.997882 -0.0650544 0
    outer loop
      vertex 29.5127 11.179 2
      vertex 29.5127 11.179 4
      vertex 29.4127 12.713 4
    endloop
  endfacet
  facet normal -0.977825 -0.209426 0
    outer loop
      vertex 29.8127 9.77832 2
      vertex 29.5127 11.179 4
      vertex 29.5127 11.179 2
    endloop
  endfacet
  facet normal -0.977825 -0.209426 0
    outer loop
      vertex 29.8127 9.77832 2
      vertex 29.8127 9.77832 4
      vertex 29.5127 11.179 4
    endloop
  endfacet
  facet normal -0.930221 -0.366999 0
    outer loop
      vertex 30.3127 8.51099 2
      vertex 29.8127 9.77832 4
      vertex 29.8127 9.77832 2
    endloop
  endfacet
  facet normal -0.930221 -0.366999 0
    outer loop
      vertex 30.3127 8.51099 2
      vertex 30.3127 8.51099 4
      vertex 29.8127 9.77832 4
    endloop
  endfacet
  facet normal -0.848264 -0.529574 0
    outer loop
      vertex 31.0031 7.40521 2
      vertex 30.3127 8.51099 4
      vertex 30.3127 8.51099 2
    endloop
  endfacet
  facet normal -0.848264 -0.529574 0
    outer loop
      vertex 31.0031 7.40521 2
      vertex 31.0031 7.40521 4
      vertex 30.3127 8.51099 4
    endloop
  endfacet
  facet normal -0.725705 -0.688006 0
    outer loop
      vertex 31.8727 6.48788 2
      vertex 31.0031 7.40521 4
      vertex 31.0031 7.40521 2
    endloop
  endfacet
  facet normal -0.725705 -0.688006 0
    outer loop
      vertex 31.8727 6.48788 2
      vertex 31.8727 6.48788 4
      vertex 31.0031 7.40521 4
    endloop
  endfacet
  facet normal -0.570622 -0.821213 0
    outer loop
      vertex 32.9217 5.75899 2
      vertex 31.8727 6.48788 4
      vertex 31.8727 6.48788 2
    endloop
  endfacet
  facet normal -0.570622 -0.821213 0
    outer loop
      vertex 32.9217 5.75899 2
      vertex 32.9217 5.75899 4
      vertex 31.8727 6.48788 4
    endloop
  endfacet
  facet normal -0.399881 -0.916567 0
    outer loop
      vertex 34.1327 5.23065 2
      vertex 32.9217 5.75899 4
      vertex 32.9217 5.75899 2
    endloop
  endfacet
  facet normal -0.399881 -0.916567 0
    outer loop
      vertex 34.1327 5.23065 2
      vertex 34.1327 5.23065 4
      vertex 32.9217 5.75899 4
    endloop
  endfacet
  facet normal -0.227885 -0.973688 0
    outer loop
      vertex 35.4871 4.91368 2
      vertex 34.1327 5.23065 4
      vertex 34.1327 5.23065 2
    endloop
  endfacet
  facet normal -0.227885 -0.973688 0
    outer loop
      vertex 35.4871 4.91368 2
      vertex 35.4871 4.91368 4
      vertex 34.1327 5.23065 4
    endloop
  endfacet
  facet normal -0.0703789 -0.99752 0
    outer loop
      vertex 36.9847 4.80801 2
      vertex 35.4871 4.91368 4
      vertex 35.4871 4.91368 2
    endloop
  endfacet
  facet normal -0.0703789 -0.99752 0
    outer loop
      vertex 36.9847 4.80801 2
      vertex 36.9847 4.80801 4
      vertex 35.4871 4.91368 4
    endloop
  endfacet
  facet normal 0.0717449 -0.997423 0
    outer loop
      vertex 38.4707 4.9149 2
      vertex 36.9847 4.80801 4
      vertex 36.9847 4.80801 2
    endloop
  endfacet
  facet normal 0.0717449 -0.997423 0
    outer loop
      vertex 38.4707 4.9149 2
      vertex 38.4707 4.9149 4
      vertex 36.9847 4.80801 4
    endloop
  endfacet
  facet normal 0.385592 0.922669 -0
    outer loop
      vertex 34.0554 7.23566 2
      vertex 34.0554 7.23566 4
      vertex 35.3954 6.67566 2
    endloop
  endfacet
  facet normal 0.385592 0.922669 0
    outer loop
      vertex 35.3954 6.67566 4
      vertex 35.3954 6.67566 2
      vertex 34.0554 7.23566 4
    endloop
  endfacet
  facet normal 0.650179 0.759781 -0
    outer loop
      vertex 32.9647 8.16899 2
      vertex 32.9647 8.16899 4
      vertex 34.0554 7.23566 2
    endloop
  endfacet
  facet normal 0.650179 0.759781 0
    outer loop
      vertex 34.0554 7.23566 4
      vertex 34.0554 7.23566 2
      vertex 32.9647 8.16899 4
    endloop
  endfacet
  facet normal 0.841218 0.540696 -0
    outer loop
      vertex 32.1603 9.42055 2
      vertex 32.1603 9.42055 4
      vertex 32.9647 8.16899 2
    endloop
  endfacet
  facet normal 0.841218 0.540696 0
    outer loop
      vertex 32.9647 8.16899 4
      vertex 32.9647 8.16899 2
      vertex 32.1603 9.42055 4
    endloop
  endfacet
  facet normal 0.952793 0.303619 -0
    outer loop
      vertex 31.6776 10.9352 2
      vertex 31.6776 10.9352 4
      vertex 32.1603 9.42055 2
    endloop
  endfacet
  facet normal 0.952793 0.303619 0
    outer loop
      vertex 32.1603 9.42055 4
      vertex 32.1603 9.42055 2
      vertex 31.6776 10.9352 4
    endloop
  endfacet
  facet normal 0.99593 0.0901311 -0
    outer loop
      vertex 31.5167 12.713 2
      vertex 31.5167 12.713 4
      vertex 31.6776 10.9352 2
    endloop
  endfacet
  facet normal 0.99593 0.0901311 0
    outer loop
      vertex 31.6776 10.9352 4
      vertex 31.6776 10.9352 2
      vertex 31.5167 12.713 4
    endloop
  endfacet
  facet normal 0.996031 -0.0890071 0
    outer loop
      vertex 31.6758 14.4934 2
      vertex 31.6758 14.4934 4
      vertex 31.5167 12.713 2
    endloop
  endfacet
  facet normal 0.996031 -0.0890071 0
    outer loop
      vertex 31.5167 12.713 4
      vertex 31.5167 12.713 2
      vertex 31.6758 14.4934 4
    endloop
  endfacet
  facet normal 0.9526 -0.304226 0
    outer loop
      vertex 32.1532 15.9881 2
      vertex 32.1532 15.9881 4
      vertex 31.6758 14.4934 2
    endloop
  endfacet
  facet normal 0.9526 -0.304226 0
    outer loop
      vertex 31.6758 14.4934 4
      vertex 31.6758 14.4934 2
      vertex 32.1532 15.9881 4
    endloop
  endfacet
  facet normal 0.835346 -0.549724 0
    outer loop
      vertex 32.9487 17.197 2
      vertex 32.9487 17.197 4
      vertex 32.1532 15.9881 2
    endloop
  endfacet
  facet normal 0.835346 -0.549724 0
    outer loop
      vertex 32.1532 15.9881 4
      vertex 32.1532 15.9881 2
      vertex 32.9487 17.197 4
    endloop
  endfacet
  facet normal 0.63268 -0.774413 0
    outer loop
      vertex 34.0361 18.0853 2
      vertex 34.0361 18.0853 4
      vertex 32.9487 17.197 2
    endloop
  endfacet
  facet normal 0.63268 -0.774413 0
    outer loop
      vertex 32.9487 17.197 4
      vertex 32.9487 17.197 2
      vertex 34.0361 18.0853 4
    endloop
  endfacet
  facet normal 0.366607 -0.930376 0
    outer loop
      vertex 35.3887 18.6183 2
      vertex 35.3887 18.6183 4
      vertex 34.0361 18.0853 2
    endloop
  endfacet
  facet normal 0.366607 -0.930376 0
    outer loop
      vertex 34.0361 18.0853 4
      vertex 34.0361 18.0853 2
      vertex 35.3887 18.6183 4
    endloop
  endfacet
  facet normal 0.109145 -0.994026 0
    outer loop
      vertex 37.0067 18.796 2
      vertex 37.0067 18.796 4
      vertex 35.3887 18.6183 2
    endloop
  endfacet
  facet normal 0.109145 -0.994026 0
    outer loop
      vertex 35.3887 18.6183 4
      vertex 35.3887 18.6183 2
      vertex 37.0067 18.796 4
    endloop
  endfacet
  facet normal -0.111513 -0.993763 0
    outer loop
      vertex 38.6118 18.6159 2
      vertex 38.6118 18.6159 4
      vertex 37.0067 18.796 2
    endloop
  endfacet
  facet normal -0.111513 -0.993763 -0
    outer loop
      vertex 37.0067 18.796 4
      vertex 37.0067 18.796 2
      vertex 38.6118 18.6159 4
    endloop
  endfacet
  facet normal -0.373172 -0.927762 0
    outer loop
      vertex 39.9552 18.0755 2
      vertex 39.9552 18.0755 4
      vertex 38.6118 18.6159 2
    endloop
  endfacet
  facet normal -0.373172 -0.927762 -0
    outer loop
      vertex 38.6118 18.6159 4
      vertex 38.6118 18.6159 2
      vertex 39.9552 18.0755 4
    endloop
  endfacet
  facet normal -0.639879 -0.768475 0
    outer loop
      vertex 41.0367 17.175 2
      vertex 41.0367 17.175 4
      vertex 39.9552 18.0755 2
    endloop
  endfacet
  facet normal -0.639879 -0.768475 -0
    outer loop
      vertex 39.9552 18.0755 4
      vertex 39.9552 18.0755 2
      vertex 41.0367 17.175 4
    endloop
  endfacet
  facet normal -0.837736 -0.546075 0
    outer loop
      vertex 41.8295 15.9588 2
      vertex 41.8295 15.9588 4
      vertex 41.0367 17.175 2
    endloop
  endfacet
  facet normal -0.837736 -0.546075 -0
    outer loop
      vertex 41.0367 17.175 4
      vertex 41.0367 17.175 2
      vertex 41.8295 15.9588 4
    endloop
  endfacet
  facet normal -0.952477 -0.30461 0
    outer loop
      vertex 42.3052 14.4714 2
      vertex 42.3052 14.4714 4
      vertex 41.8295 15.9588 2
    endloop
  endfacet
  facet normal -0.952477 -0.30461 -0
    outer loop
      vertex 41.8295 15.9588 4
      vertex 41.8295 15.9588 2
      vertex 42.3052 14.4714 4
    endloop
  endfacet
  facet normal -0.99596 -0.0898032 0
    outer loop
      vertex 42.4637 12.713 2
      vertex 42.4637 12.713 4
      vertex 42.3052 14.4714 2
    endloop
  endfacet
  facet normal -0.99596 -0.0898032 -0
    outer loop
      vertex 42.3052 14.4714 4
      vertex 42.3052 14.4714 2
      vertex 42.4637 12.713 4
    endloop
  endfacet
  facet normal -0.996332 0.0855756 0
    outer loop
      vertex 42.3064 10.8812 2
      vertex 42.3064 10.8812 4
      vertex 42.4637 12.713 2
    endloop
  endfacet
  facet normal -0.996332 0.0855756 0
    outer loop
      vertex 42.4637 12.713 4
      vertex 42.4637 12.713 2
      vertex 42.3064 10.8812 4
    endloop
  endfacet
  facet normal -0.955707 0.294319 0
    outer loop
      vertex 41.8344 9.34854 2
      vertex 41.8344 9.34854 4
      vertex 42.3064 10.8812 2
    endloop
  endfacet
  facet normal -0.955707 0.294319 0
    outer loop
      vertex 42.3064 10.8812 4
      vertex 42.3064 10.8812 2
      vertex 41.8344 9.34854 4
    endloop
  endfacet
  facet normal -0.843141 0.537692 0
    outer loop
      vertex 41.0477 8.11499 2
      vertex 41.0477 8.11499 4
      vertex 41.8344 9.34854 2
    endloop
  endfacet
  facet normal -0.843141 0.537692 0
    outer loop
      vertex 41.8344 9.34854 4
      vertex 41.8344 9.34854 2
      vertex 41.0477 8.11499 4
    endloop
  endfacet
  facet normal -0.641309 0.767283 0
    outer loop
      vertex 39.9669 7.21165 2
      vertex 39.9669 7.21165 4
      vertex 41.0477 8.11499 2
    endloop
  endfacet
  facet normal -0.641309 0.767283 0
    outer loop
      vertex 41.0477 8.11499 4
      vertex 41.0477 8.11499 2
      vertex 39.9669 7.21165 4
    endloop
  endfacet
  facet normal -0.371546 0.928415 0
    outer loop
      vertex 38.6126 6.66966 2
      vertex 38.6126 6.66966 4
      vertex 39.9669 7.21165 2
    endloop
  endfacet
  facet normal -0.371546 0.928415 0
    outer loop
      vertex 39.9669 7.21165 4
      vertex 39.9669 7.21165 2
      vertex 38.6126 6.66966 4
    endloop
  endfacet
  facet normal -0.110304 0.993898 0
    outer loop
      vertex 36.9847 6.489 2
      vertex 36.9847 6.489 4
      vertex 38.6126 6.66966 2
    endloop
  endfacet
  facet normal -0.110304 0.993898 0
    outer loop
      vertex 38.6126 6.66966 4
      vertex 38.6126 6.66966 2
      vertex 36.9847 6.489 4
    endloop
  endfacet
  facet normal 0.116644 0.993174 -0
    outer loop
      vertex 35.3954 6.67566 2
      vertex 35.3954 6.67566 4
      vertex 36.9847 6.489 2
    endloop
  endfacet
  facet normal 0.116644 0.993174 0
    outer loop
      vertex 36.9847 6.489 4
      vertex 36.9847 6.489 2
      vertex 35.3954 6.67566 4
    endloop
  endfacet
  facet normal 0 -1 0
    outer loop
      vertex 16.67 11.363 2
      vertex 11.896 11.363 4
      vertex 11.896 11.363 2
    endloop
  endfacet
  facet normal 0 -1 0
    outer loop
      vertex 16.67 11.363 2
      vertex 16.67 11.363 4
      vertex 11.896 11.363 4
    endloop
  endfacet
  facet normal -0.848051 -0.529915 0
    outer loop
      vertex 20.646 5 2
      vertex 16.67 11.363 4
      vertex 16.67 11.363 2
    endloop
  endfacet
  facet normal -0.848051 -0.529915 0
    outer loop
      vertex 20.646 5 2
      vertex 20.646 5 4
      vertex 16.67 11.363 4
    endloop
  endfacet
  facet normal 0 -1 0
    outer loop
      vertex 23.032 5 2
      vertex 20.646 5 4
      vertex 20.646 5 2
    endloop
  endfacet
  facet normal 0 -1 0
    outer loop
      vertex 23.032 5 2
      vertex 23.032 5 4
      vertex 20.646 5 4
    endloop
  endfacet
  facet normal 0.835287 0.549814 0
    outer loop
      vertex 18.687 11.601 2
      vertex 23.032 5 4
      vertex 23.032 5 2
    endloop
  endfacet
  facet normal 0.835287 0.549814 -0
    outer loop
      vertex 18.687 11.601 2
      vertex 18.687 11.601 4
      vertex 23.032 5 4
    endloop
  endfacet
  facet normal 0.265319 -0.964161 0
    outer loop
      vertex 19.7691 11.8988 2
      vertex 18.687 11.601 4
      vertex 18.687 11.601 2
    endloop
  endfacet
  facet normal 0.265319 -0.964161 0
    outer loop
      vertex 19.7691 11.8988 2
      vertex 19.7691 11.8988 4
      vertex 18.687 11.601 4
    endloop
  endfacet
  facet normal 0.470847 -0.882215 0
    outer loop
      vertex 20.6834 12.3868 2
      vertex 19.7691 11.8988 4
      vertex 19.7691 11.8988 2
    endloop
  endfacet
  facet normal 0.470847 -0.882215 0
    outer loop
      vertex 20.6834 12.3868 2
      vertex 20.6834 12.3868 4
      vertex 19.7691 11.8988 4
    endloop
  endfacet
  facet normal 0.672423 -0.740167 0
    outer loop
      vertex 21.43 13.065 2
      vertex 20.6834 12.3868 4
      vertex 20.6834 12.3868 2
    endloop
  endfacet
  facet normal 0.672423 -0.740167 0
    outer loop
      vertex 21.43 13.065 2
      vertex 21.43 13.065 4
      vertex 20.6834 12.3868 4
    endloop
  endfacet
  facet normal 0.833657 -0.552282 0
    outer loop
      vertex 21.9822 13.8985 2
      vertex 21.43 13.065 4
      vertex 21.43 13.065 2
    endloop
  endfacet
  facet normal 0.833657 -0.552282 0
    outer loop
      vertex 21.9822 13.8985 2
      vertex 21.9822 13.8985 4
      vertex 21.43 13.065 4
    endloop
  endfacet
  facet normal 0.944646 -0.328092 0
    outer loop
      vertex 22.3136 14.8526 2
      vertex 21.9822 13.8985 4
      vertex 21.9822 13.8985 2
    endloop
  endfacet
  facet normal 0.944646 -0.328092 0
    outer loop
      vertex 22.3136 14.8526 2
      vertex 22.3136 14.8526 4
      vertex 21.9822 13.8985 4
    endloop
  endfacet
  facet normal 0.994758 -0.102253 0
    outer loop
      vertex 22.424 15.927 2
      vertex 22.3136 14.8526 4
      vertex 22.3136 14.8526 2
    endloop
  endfacet
  facet normal 0.994758 -0.102253 0
    outer loop
      vertex 22.424 15.927 2
      vertex 22.424 15.927 4
      vertex 22.3136 14.8526 4
    endloop
  endfacet
  facet normal 0.992539 0.121928 0
    outer loop
      vertex 22.2677 17.1997 2
      vertex 22.424 15.927 4
      vertex 22.424 15.927 2
    endloop
  endfacet
  facet normal 0.992539 0.121928 -0
    outer loop
      vertex 22.2677 17.1997 2
      vertex 22.2677 17.1997 4
      vertex 22.424 15.927 4
    endloop
  endfacet
  facet normal 0.916068 0.401023 0
    outer loop
      vertex 21.7987 18.271 2
      vertex 22.2677 17.1997 4
      vertex 22.2677 17.1997 2
    endloop
  endfacet
  facet normal 0.916068 0.401023 -0
    outer loop
      vertex 21.7987 18.271 2
      vertex 21.7987 18.271 4
      vertex 22.2677 17.1997 4
    endloop
  endfacet
  facet normal 0.743861 0.668335 0
    outer loop
      vertex 21.017 19.141 2
      vertex 21.7987 18.271 4
      vertex 21.7987 18.271 2
    endloop
  endfacet
  facet normal 0.743861 0.668335 -0
    outer loop
      vertex 21.017 19.141 2
      vertex 21.017 19.141 4
      vertex 21.7987 18.271 4
    endloop
  endfacet
  facet normal 0.514883 0.857261 0
    outer loop
      vertex 19.9487 19.7827 2
      vertex 21.017 19.141 4
      vertex 21.017 19.141 2
    endloop
  endfacet
  facet normal 0.514883 0.857261 -0
    outer loop
      vertex 19.9487 19.7827 2
      vertex 19.9487 19.7827 4
      vertex 21.017 19.141 4
    endloop
  endfacet
  facet normal 0.278002 0.96058 0
    outer loop
      vertex 18.6183 20.1677 2
      vertex 19.9487 19.7827 4
      vertex 19.9487 19.7827 2
    endloop
  endfacet
  facet normal 0.278002 0.96058 -0
    outer loop
      vertex 18.6183 20.1677 2
      vertex 18.6183 20.1677 4
      vertex 19.9487 19.7827 4
    endloop
  endfacet
  facet normal 0.0803291 0.996768 0
    outer loop
      vertex 17.026 20.296 2
      vertex 18.6183 20.1677 4
      vertex 18.6183 20.1677 2
    endloop
  endfacet
  facet normal 0.0803291 0.996768 -0
    outer loop
      vertex 17.026 20.296 2
      vertex 17.026 20.296 4
      vertex 18.6183 20.1677 4
    endloop
  endfacet
  facet normal 0 1 0
    outer loop
      vertex 9.825 20.296 2
      vertex 17.026 20.296 4
      vertex 17.026 20.296 2
    endloop
  endfacet
  facet normal 0 1 0
    outer loop
      vertex 9.825 20.296 2
      vertex 9.825 20.296 4
      vertex 17.026 20.296 4
    endloop
  endfacet
  facet normal -1 0 0
    outer loop
      vertex 9.825 5 2
      vertex 9.825 20.296 4
      vertex 9.825 20.296 2
    endloop
  endfacet
  facet normal -1 0 0
    outer loop
      vertex 9.825 5 2
      vertex 9.825 5 4
      vertex 9.825 20.296 4
    endloop
  endfacet
  facet normal 0 -1 0
    outer loop
      vertex 11.896 5 2
      vertex 9.825 5 4
      vertex 9.825 5 2
    endloop
  endfacet
  facet normal 0 -1 0
    outer loop
      vertex 11.896 5 2
      vertex 11.896 5 4
      vertex 9.825 5 4
    endloop
  endfacet
  facet normal 1 0 0
    outer loop
      vertex 11.896 11.363 2
      vertex 11.896 5 4
      vertex 11.896 5 2
    endloop
  endfacet
  facet normal 1 0 -0
    outer loop
      vertex 11.896 11.363 2
      vertex 11.896 11.363 4
      vertex 11.896 5 4
    endloop
  endfacet
  facet normal 1 0 -0
    outer loop
      vertex 11.896 18.637 2
      vertex 11.896 18.637 4
      vertex 11.896 13 2
    endloop
  endfacet
  facet normal 1 -0 0
    outer loop
      vertex 11.896 13 4
      vertex 11.896 13 2
      vertex 11.896 18.637 4
    endloop
  endfacet
  facet normal 0 -1 0
    outer loop
      vertex 16.82 18.637 2
      vertex 16.82 18.637 4
      vertex 11.896 18.637 2
    endloop
  endfacet
  facet normal 0 -1 0
    outer loop
      vertex 11.896 18.637 4
      vertex 11.896 18.637 2
      vertex 16.82 18.637 4
    endloop
  endfacet
  facet normal -0.0738289 -0.997271 0
    outer loop
      vertex 17.8691 18.5593 2
      vertex 17.8691 18.5593 4
      vertex 16.82 18.637 2
    endloop
  endfacet
  facet normal -0.0738289 -0.997271 -0
    outer loop
      vertex 16.82 18.637 4
      vertex 16.82 18.637 2
      vertex 17.8691 18.5593 4
    endloop
  endfacet
  facet normal -0.258334 -0.966056 0
    outer loop
      vertex 18.7404 18.3263 2
      vertex 18.7404 18.3263 4
      vertex 17.8691 18.5593 2
    endloop
  endfacet
  facet normal -0.258334 -0.966056 -0
    outer loop
      vertex 17.8691 18.5593 4
      vertex 17.8691 18.5593 2
      vertex 18.7404 18.3263 4
    endloop
  endfacet
  facet normal -0.48855 -0.872536 0
    outer loop
      vertex 19.434 17.938 2
      vertex 19.434 17.938 4
      vertex 18.7404 18.3263 2
    endloop
  endfacet
  facet normal -0.48855 -0.872536 -0
    outer loop
      vertex 18.7404 18.3263 4
      vertex 18.7404 18.3263 2
      vertex 19.434 17.938 4
    endloop
  endfacet
  facet normal -0.728568 -0.684974 0
    outer loop
      vertex 19.9384 17.4014 2
      vertex 19.9384 17.4014 4
      vertex 19.434 17.938 2
    endloop
  endfacet
  facet normal -0.728568 -0.684974 -0
    outer loop
      vertex 19.434 17.938 4
      vertex 19.434 17.938 2
      vertex 19.9384 17.4014 4
    endloop
  endfacet
  facet normal -0.913067 -0.407809 0
    outer loop
      vertex 20.2411 16.7238 2
      vertex 20.2411 16.7238 4
      vertex 19.9384 17.4014 2
    endloop
  endfacet
  facet normal -0.913067 -0.407809 -0
    outer loop
      vertex 19.9384 17.4014 4
      vertex 19.9384 17.4014 2
      vertex 20.2411 16.7238 4
    endloop
  endfacet
  facet normal -0.992493 -0.122298 0
    outer loop
      vertex 20.342 15.905 2
      vertex 20.342 15.905 4
      vertex 20.2411 16.7238 2
    endloop
  endfacet
  facet normal -0.992493 -0.122298 -0
    outer loop
      vertex 20.2411 16.7238 4
      vertex 20.2411 16.7238 2
      vertex 20.342 15.905 4
    endloop
  endfacet
  facet normal -0.993194 0.116475 0
    outer loop
      vertex 20.2423 15.0551 2
      vertex 20.2423 15.0551 4
      vertex 20.342 15.905 2
    endloop
  endfacet
  facet normal -0.993194 0.116475 0
    outer loop
      vertex 20.342 15.905 4
      vertex 20.342 15.905 2
      vertex 20.2423 15.0551 4
    endloop
  endfacet
  facet normal -0.922325 0.386414 0
    outer loop
      vertex 19.9433 14.3414 2
      vertex 19.9433 14.3414 4
      vertex 20.2423 15.0551 2
    endloop
  endfacet
  facet normal -0.922325 0.386414 0
    outer loop
      vertex 20.2423 15.0551 4
      vertex 20.2423 15.0551 2
      vertex 19.9433 14.3414 4
    endloop
  endfacet
  facet normal -0.757056 0.65335 0
    outer loop
      vertex 19.445 13.764 2
      vertex 19.445 13.764 4
      vertex 19.9433 14.3414 2
    endloop
  endfacet
  facet normal -0.757056 0.65335 0
    outer loop
      vertex 19.9433 14.3414 4
      vertex 19.9433 14.3414 2
      vertex 19.445 13.764 4
    endloop
  endfacet
  facet normal -0.529123 0.848545 0
    outer loop
      vertex 18.7643 13.3396 2
      vertex 18.7643 13.3396 4
      vertex 19.445 13.764 2
    endloop
  endfacet
  facet normal -0.529123 0.848545 0
    outer loop
      vertex 19.445 13.764 4
      vertex 19.445 13.764 2
      vertex 18.7643 13.3396 4
    endloop
  endfacet
  facet normal -0.288248 0.957556 0
    outer loop
      vertex 17.9183 13.0849 2
      vertex 17.9183 13.0849 4
      vertex 18.7643 13.3396 2
    endloop
  endfacet
  facet normal -0.288248 0.957556 0
    outer loop
      vertex 18.7643 13.3396 4
      vertex 18.7643 13.3396 2
      vertex 17.9183 13.0849 4
    endloop
  endfacet
  facet normal -0.0836402 0.996496 0
    outer loop
      vertex 16.907 13 2
      vertex 16.907 13 4
      vertex 17.9183 13.0849 2
    endloop
  endfacet
  facet normal -0.0836402 0.996496 0
    outer loop
      vertex 17.9183 13.0849 4
      vertex 17.9183 13.0849 2
      vertex 16.907 13 4
    endloop
  endfacet
  facet normal 0 1 0
    outer loop
      vertex 11.896 13 2
      vertex 11.896 13 4
      vertex 16.907 13 2
    endloop
  endfacet
  facet normal 0 1 0
    outer loop
      vertex 16.907 13 4
      vertex 16.907 13 2
      vertex 11.896 13 4
    endloop
  endfacet
endsolid OpenSCAD_Model
