solid OpenSCAD_Model
  facet normal 0 0 -1
    outer loop
      vertex 20.342 15.905 2
      vertex 22.2677 17.1997 2
      vertex 22.424 15.927 2
    endloop
  endfacet
  facet normal 0 -0 -1
    outer loop
      vertex 11.896 13 2
      vertex 11.896 11.363 2
      vertex 9.825 5 2
    endloop
  endfacet
  facet normal 0 0 -1
    outer loop
      vertex 18.687 11.601 2
      vertex 23.032 5 2
      vertex 20.646 5 2
    endloop
  endfacet
  facet normal 0 0 -1
    outer loop
      vertex 16.67 11.363 2
      vertex 18.687 11.601 2
      vertex 20.646 5 2
    endloop
  endfacet
  facet normal 0 0 -1
    outer loop
      vertex 38.6814 16.5758 2
      vertex 38.3746 17.986 2
      vertex 39.3607 20.296 2
    endloop
  endfacet
  facet normal 0 0 -1
    outer loop
      vertex 20.2423 15.0551 2
      vertex 20.342 15.905 2
      vertex 22.3136 14.8526 2
    endloop
  endfacet
  facet normal 0 0 -1
    outer loop
      vertex 21.9822 13.8985 2
      vertex 20.2423 15.0551 2
      vertex 22.3136 14.8526 2
    endloop
  endfacet
  facet normal -0 0 -1
    outer loop
      vertex 22.2677 17.1997 2
      vertex 20.2411 16.7238 2
      vertex 21.7987 18.271 2
    endloop
  endfacet
  facet normal -0 0 -1
    outer loop
      vertex 21.7987 18.271 2
      vertex 19.9384 17.4014 2
      vertex 21.017 19.141 2
    endloop
  endfacet
  facet normal 0 0 -1
    outer loop
      vertex 18.7404 18.3263 2
      vertex 18.6183 20.1677 2
      vertex 19.9487 19.7827 2
    endloop
  endfacet
  facet normal 0 0 -1
    outer loop
      vertex 34.3627 9.42699 2
      vertex 34.8495 11.2622 2
      vertex 36.4913 10.6679 2
    endloop
  endfacet
  facet normal 0 0 -1
    outer loop
      vertex 18.7404 18.3263 2
      vertex 17.8691 18.5593 2
      vertex 18.6183 20.1677 2
    endloop
  endfacet
  facet normal 0 0 -1
    outer loop
      vertex 19.434 17.938 2
      vertex 18.7404 18.3263 2
      vertex 19.9487 19.7827 2
    endloop
  endfacet
  facet normal 0 0 -1
    outer loop
      vertex 34.8495 11.2622 2
      vertex 35.8542 14.8852 2
      vertex 37.48 14.2942 2
    endloop
  endfacet
  facet normal 0 0 -1
    outer loop
      vertex 17.026 20.296 2
      vertex 18.6183 20.1677 2
      vertex 17.8691 18.5593 2
    endloop
  endfacet
  facet normal 0 0 -1
    outer loop
      vertex 38.1962 17.1919 2
      vertex 37.8967 15.879 2
      vertex 35.8542 14.8852 2
    endloop
  endfacet
  facet normal 0 0 -1
    outer loop
      vertex 17.8691 18.5593 2
      vertex 16.82 18.637 2
      vertex 17.026 20.296 2
    endloop
  endfacet
  facet normal 0 -0 -1
    outer loop
      vertex 37.3766 20.296 2
      vertex 38.1962 17.1919 2
      vertex 35.8542 14.8852 2
    endloop
  endfacet
  facet normal 0 0 -1
    outer loop
      vertex 19.7691 11.8988 2
      vertex 19.445 13.764 2
      vertex 20.6834 12.3868 2
    endloop
  endfacet
  facet normal 0 0 -1
    outer loop
      vertex 37.3766 20.296 2
      vertex 39.3607 20.296 2
      vertex 38.3746 17.986 2
    endloop
  endfacet
  facet normal 0 0 -1
    outer loop
      vertex 11.896 13 2
      vertex 16.907 13 2
      vertex 16.67 11.363 2
    endloop
  endfacet
  facet normal 0 0 -1
    outer loop
      vertex 9.825 5 2
      vertex 9.825 20.296 2
      vertex 11.896 13 2
    endloop
  endfacet
  facet normal 0 0 -1
    outer loop
      vertex 11.896 5 2
      vertex 9.825 5 2
      vertex 11.896 11.363 2
    endloop
  endfacet
  facet normal 0 -0 -1
    outer loop
      vertex 17.9183 13.0849 2
      vertex 18.687 11.601 2
      vertex 16.67 11.363 2
    endloop
  endfacet
  facet normal 0 0 -1
    outer loop
      vertex 11.896 11.363 2
      vertex 11.896 13 2
      vertex 16.67 11.363 2
    endloop
  endfacet
  facet normal 0 0 -1
    outer loop
      vertex 11.896 18.637 2
      vertex 17.026 20.296 2
      vertex 16.82 18.637 2
    endloop
  endfacet
  facet normal -0 0 -1
    outer loop
      vertex 17.026 20.296 2
      vertex 11.896 18.637 2
      vertex 9.825 20.296 2
    endloop
  endfacet
  facet normal -0 -0 -1
    outer loop
      vertex 11.896 18.637 2
      vertex 11.896 13 2
      vertex 9.825 20.296 2
    endloop
  endfacet
  facet normal 0 0 -1
    outer loop
      vertex 20.6834 12.3868 2
      vertex 19.445 13.764 2
      vertex 21.43 13.065 2
    endloop
  endfacet
  facet normal -0 0 -1
    outer loop
      vertex 21.017 19.141 2
      vertex 19.434 17.938 2
      vertex 19.9487 19.7827 2
    endloop
  endfacet
  facet normal 0 0 -1
    outer loop
      vertex 21.017 19.141 2
      vertex 19.9384 17.4014 2
      vertex 19.434 17.938 2
    endloop
  endfacet
  facet normal 0 0 -1
    outer loop
      vertex 21.7987 18.271 2
      vertex 20.2411 16.7238 2
      vertex 19.9384 17.4014 2
    endloop
  endfacet
  facet normal 0 0 -1
    outer loop
      vertex 22.2677 17.1997 2
      vertex 20.342 15.905 2
      vertex 20.2411 16.7238 2
    endloop
  endfacet
  facet normal 0 0 -1
    outer loop
      vertex 20.342 15.905 2
      vertex 22.424 15.927 2
      vertex 22.3136 14.8526 2
    endloop
  endfacet
  facet normal 0 0 -1
    outer loop
      vertex 21.9822 13.8985 2
      vertex 19.9433 14.3414 2
      vertex 20.2423 15.0551 2
    endloop
  endfacet
  facet normal 0 -0 -1
    outer loop
      vertex 19.9433 14.3414 2
      vertex 21.43 13.065 2
      vertex 19.445 13.764 2
    endloop
  endfacet
  facet normal -0 0 -1
    outer loop
      vertex 21.9822 13.8985 2
      vertex 21.43 13.065 2
      vertex 19.9433 14.3414 2
    endloop
  endfacet
  facet normal 0 0 -1
    outer loop
      vertex 19.7691 11.8988 2
      vertex 18.7643 13.3396 2
      vertex 19.445 13.764 2
    endloop
  endfacet
  facet normal -0 0 -1
    outer loop
      vertex 19.7691 11.8988 2
      vertex 18.687 11.601 2
      vertex 18.7643 13.3396 2
    endloop
  endfacet
  facet normal 0 0 -1
    outer loop
      vertex 18.7643 13.3396 2
      vertex 18.687 11.601 2
      vertex 17.9183 13.0849 2
    endloop
  endfacet
  facet normal 0 0 -1
    outer loop
      vertex 17.9183 13.0849 2
      vertex 16.67 11.363 2
      vertex 16.907 13 2
    endloop
  endfacet
  facet normal 0 0 -1
    outer loop
      vertex 37.3766 20.296 2
      vertex 38.3746 17.986 2
      vertex 38.1962 17.1919 2
    endloop
  endfacet
  facet normal 0 0 -1
    outer loop
      vertex 35.8542 14.8852 2
      vertex 37.8967 15.879 2
      vertex 37.48 14.2942 2
    endloop
  endfacet
  facet normal 0 -0 -1
    outer loop
      vertex 46.6096 20.296 2
      vertex 48.7677 20.296 2
      vertex 44.9952 14.5024 2
    endloop
  endfacet
  facet normal 0 0 -1
    outer loop
      vertex 44.2597 5 2
      vertex 41.7877 5 2
      vertex 42.9797 6.82199 2
    endloop
  endfacet
  facet normal -0 -0 -1
    outer loop
      vertex 30.1077 20.296 2
      vertex 32.8577 10.579 2
      vertex 27.9496 20.296 2
    endloop
  endfacet
  facet normal 0 -0 -1
    outer loop
      vertex 42.7188 7.98021 2
      vertex 42.9797 6.82199 2
      vertex 41.7877 5 2
    endloop
  endfacet
  facet normal 0 -0 -1
    outer loop
      vertex 44.9952 14.5024 2
      vertex 48.7677 20.296 2
      vertex 44.2597 5 2
    endloop
  endfacet
  facet normal 0 0 -1
    outer loop
      vertex 44.2597 5 2
      vertex 43.9772 10.8164 2
      vertex 44.9952 14.5024 2
    endloop
  endfacet
  facet normal 0 0 -1
    outer loop
      vertex 44.2597 5 2
      vertex 43.5556 9.23799 2
      vertex 43.9772 10.8164 2
    endloop
  endfacet
  facet normal 0 0 -1
    outer loop
      vertex 41.7877 5 2
      vertex 39.1357 14.718 2
      vertex 42.0237 10.774 2
    endloop
  endfacet
  facet normal 0 0 -1
    outer loop
      vertex 44.2597 5 2
      vertex 43.0777 7.202 2
      vertex 43.5556 9.23799 2
    endloop
  endfacet
  facet normal 0 0 -1
    outer loop
      vertex 41.7877 5 2
      vertex 42.4001 9.29755 2
      vertex 42.7188 7.98021 2
    endloop
  endfacet
  facet normal 0 0 -1
    outer loop
      vertex 44.2597 5 2
      vertex 42.9797 6.82199 2
      vertex 43.0777 7.202 2
    endloop
  endfacet
  facet normal 0 0 -1
    outer loop
      vertex 41.7877 5 2
      vertex 42.0237 10.774 2
      vertex 42.4001 9.29755 2
    endloop
  endfacet
  facet normal 0 0 -1
    outer loop
      vertex 39.1357 14.718 2
      vertex 38.9351 15.4864 2
      vertex 42.0237 10.774 2
    endloop
  endfacet
  facet normal 0 0 -1
    outer loop
      vertex 38.9351 15.4864 2
      vertex 39.3607 20.296 2
      vertex 42.0237 10.774 2
    endloop
  endfacet
  facet normal 0 0 -1
    outer loop
      vertex 38.6814 16.5758 2
      vertex 39.3607 20.296 2
      vertex 38.9351 15.4864 2
    endloop
  endfacet
  facet normal 0 0 -1
    outer loop
      vertex 36.4913 10.6679 2
      vertex 34.8495 11.2622 2
      vertex 37.48 14.2942 2
    endloop
  endfacet
  facet normal 0 -0 -1
    outer loop
      vertex 34.3627 9.42699 2
      vertex 36.4913 10.6679 2
      vertex 34.1436 8.51044 2
    endloop
  endfacet
  facet normal 0 0 -1
    outer loop
      vertex 34.1436 8.51044 2
      vertex 36.4913 10.6679 2
      vertex 34.9306 5 2
    endloop
  endfacet
  facet normal 0 0 -1
    outer loop
      vertex 33.9427 7.64211 2
      vertex 34.1436 8.51044 2
      vertex 34.9306 5 2
    endloop
  endfacet
  facet normal 0 -0 -1
    outer loop
      vertex 33.4759 8.09854 2
      vertex 33.7597 6.82199 2
      vertex 32.4586 5 2
    endloop
  endfacet
  facet normal 0 0 -1
    outer loop
      vertex 33.7597 6.82199 2
      vertex 33.9427 7.64211 2
      vertex 34.9306 5 2
    endloop
  endfacet
  facet normal 0 -0 -1
    outer loop
      vertex 33.1752 9.35088 2
      vertex 33.4759 8.09854 2
      vertex 32.4586 5 2
    endloop
  endfacet
  facet normal 0 0 -1
    outer loop
      vertex 32.4586 5 2
      vertex 33.7597 6.82199 2
      vertex 34.9306 5 2
    endloop
  endfacet
  facet normal -0 0 -1
    outer loop
      vertex 32.8577 10.579 2
      vertex 32.4586 5 2
      vertex 27.9496 20.296 2
    endloop
  endfacet
  facet normal -0 0 -1
    outer loop
      vertex 33.1752 9.35088 2
      vertex 32.4586 5 2
      vertex 32.8577 10.579 2
    endloop
  endfacet
  facet normal 0 0 1
    outer loop
      vertex 22.424 15.927 4
      vertex 22.2677 17.1997 4
      vertex 20.342 15.905 4
    endloop
  endfacet
  facet normal 0 0 1
    outer loop
      vertex 9.825 5 4
      vertex 11.896 11.363 4
      vertex 11.896 13 4
    endloop
  endfacet
  facet normal 0 -0 1
    outer loop
      vertex 20.646 5 4
      vertex 23.032 5 4
      vertex 18.687 11.601 4
    endloop
  endfacet
  facet normal 0 0 1
    outer loop
      vertex 20.646 5 4
      vertex 18.687 11.601 4
      vertex 16.67 11.363 4
    endloop
  endfacet
  facet normal 0 0 1
    outer loop
      vertex 39.3607 20.296 4
      vertex 38.3746 17.986 4
      vertex 38.6814 16.5758 4
    endloop
  endfacet
  facet normal 0 0 1
    outer loop
      vertex 22.3136 14.8526 4
      vertex 20.342 15.905 4
      vertex 20.2423 15.0551 4
    endloop
  endfacet
  facet normal 0 0 1
    outer loop
      vertex 22.3136 14.8526 4
      vertex 20.2423 15.0551 4
      vertex 21.9822 13.8985 4
    endloop
  endfacet
  facet normal 0 0 1
    outer loop
      vertex 21.7987 18.271 4
      vertex 20.2411 16.7238 4
      vertex 22.2677 17.1997 4
    endloop
  endfacet
  facet normal 0 0 1
    outer loop
      vertex 21.017 19.141 4
      vertex 19.9384 17.4014 4
      vertex 21.7987 18.271 4
    endloop
  endfacet
  facet normal 0 0 1
    outer loop
      vertex 19.9487 19.7827 4
      vertex 18.6183 20.1677 4
      vertex 18.7404 18.3263 4
    endloop
  endfacet
  facet normal 0 0 1
    outer loop
      vertex 36.4913 10.6679 4
      vertex 34.8495 11.2622 4
      vertex 34.3627 9.42699 4
    endloop
  endfacet
  facet normal 0 0 1
    outer loop
      vertex 18.6183 20.1677 4
      vertex 17.8691 18.5593 4
      vertex 18.7404 18.3263 4
    endloop
  endfacet
  facet normal 0 0 1
    outer loop
      vertex 19.9487 19.7827 4
      vertex 18.7404 18.3263 4
      vertex 19.434 17.938 4
    endloop
  endfacet
  facet normal 0 0 1
    outer loop
      vertex 37.48 14.2942 4
      vertex 35.8542 14.8852 4
      vertex 34.8495 11.2622 4
    endloop
  endfacet
  facet normal 0 -0 1
    outer loop
      vertex 17.8691 18.5593 4
      vertex 18.6183 20.1677 4
      vertex 17.026 20.296 4
    endloop
  endfacet
  facet normal 0 0 1
    outer loop
      vertex 35.8542 14.8852 4
      vertex 37.8967 15.879 4
      vertex 38.1962 17.1919 4
    endloop
  endfacet
  facet normal 0 0 1
    outer loop
      vertex 17.026 20.296 4
      vertex 16.82 18.637 4
      vertex 17.8691 18.5593 4
    endloop
  endfacet
  facet normal 0 0 1
    outer loop
      vertex 35.8542 14.8852 4
      vertex 38.1962 17.1919 4
      vertex 37.3766 20.296 4
    endloop
  endfacet
  facet normal 0 0 1
    outer loop
      vertex 20.6834 12.3868 4
      vertex 19.445 13.764 4
      vertex 19.7691 11.8988 4
    endloop
  endfacet
  facet normal 0 -0 1
    outer loop
      vertex 38.3746 17.986 4
      vertex 39.3607 20.296 4
      vertex 37.3766 20.296 4
    endloop
  endfacet
  facet normal 0 -0 1
    outer loop
      vertex 16.67 11.363 4
      vertex 16.907 13 4
      vertex 11.896 13 4
    endloop
  endfacet
  facet normal 0 0 1
    outer loop
      vertex 11.896 13 4
      vertex 9.825 20.296 4
      vertex 9.825 5 4
    endloop
  endfacet
  facet normal 0 0 1
    outer loop
      vertex 11.896 11.363 4
      vertex 9.825 5 4
      vertex 11.896 5 4
    endloop
  endfacet
  facet normal 0 0 1
    outer loop
      vertex 16.67 11.363 4
      vertex 18.687 11.601 4
      vertex 17.9183 13.0849 4
    endloop
  endfacet
  facet normal 0 0 1
    outer loop
      vertex 16.67 11.363 4
      vertex 11.896 13 4
      vertex 11.896 11.363 4
    endloop
  endfacet
  facet normal 0 -0 1
    outer loop
      vertex 16.82 18.637 4
      vertex 17.026 20.296 4
      vertex 11.896 18.637 4
    endloop
  endfacet
  facet normal -0 0 1
    outer loop
      vertex 9.825 20.296 4
      vertex 11.896 18.637 4
      vertex 17.026 20.296 4
    endloop
  endfacet
  facet normal 0 0 1
    outer loop
      vertex 9.825 20.296 4
      vertex 11.896 13 4
      vertex 11.896 18.637 4
    endloop
  endfacet
  facet normal 0 0 1
    outer loop
      vertex 21.43 13.065 4
      vertex 19.445 13.764 4
      vertex 20.6834 12.3868 4
    endloop
  endfacet
  facet normal 0 0 1
    outer loop
      vertex 19.9487 19.7827 4
      vertex 19.434 17.938 4
      vertex 21.017 19.141 4
    endloop
  endfacet
  facet normal -0 0 1
    outer loop
      vertex 19.434 17.938 4
      vertex 19.9384 17.4014 4
      vertex 21.017 19.141 4
    endloop
  endfacet
  facet normal -0 0 1
    outer loop
      vertex 19.9384 17.4014 4
      vertex 20.2411 16.7238 4
      vertex 21.7987 18.271 4
    endloop
  endfacet
  facet normal -0 0 1
    outer loop
      vertex 20.2411 16.7238 4
      vertex 20.342 15.905 4
      vertex 22.2677 17.1997 4
    endloop
  endfacet
  facet normal 0 -0 1
    outer loop
      vertex 22.3136 14.8526 4
      vertex 22.424 15.927 4
      vertex 20.342 15.905 4
    endloop
  endfacet
  facet normal 0 0 1
    outer loop
      vertex 20.2423 15.0551 4
      vertex 19.9433 14.3414 4
      vertex 21.9822 13.8985 4
    endloop
  endfacet
  facet normal -0 0 1
    outer loop
      vertex 19.445 13.764 4
      vertex 21.43 13.065 4
      vertex 19.9433 14.3414 4
    endloop
  endfacet
  facet normal 0 0 1
    outer loop
      vertex 19.9433 14.3414 4
      vertex 21.43 13.065 4
      vertex 21.9822 13.8985 4
    endloop
  endfacet
  facet normal 0 0 1
    outer loop
      vertex 19.445 13.764 4
      vertex 18.7643 13.3396 4
      vertex 19.7691 11.8988 4
    endloop
  endfacet
  facet normal 0 0 1
    outer loop
      vertex 18.7643 13.3396 4
      vertex 18.687 11.601 4
      vertex 19.7691 11.8988 4
    endloop
  endfacet
  facet normal -0 0 1
    outer loop
      vertex 17.9183 13.0849 4
      vertex 18.687 11.601 4
      vertex 18.7643 13.3396 4
    endloop
  endfacet
  facet normal -0 0 1
    outer loop
      vertex 16.907 13 4
      vertex 16.67 11.363 4
      vertex 17.9183 13.0849 4
    endloop
  endfacet
  facet normal 0 -0 1
    outer loop
      vertex 38.1962 17.1919 4
      vertex 38.3746 17.986 4
      vertex 37.3766 20.296 4
    endloop
  endfacet
  facet normal 0 -0 1
    outer loop
      vertex 37.48 14.2942 4
      vertex 37.8967 15.879 4
      vertex 35.8542 14.8852 4
    endloop
  endfacet
  facet normal 0 0 1
    outer loop
      vertex 44.9952 14.5024 4
      vertex 48.7677 20.296 4
      vertex 46.6096 20.296 4
    endloop
  endfacet
  facet normal 0 0 1
    outer loop
      vertex 42.9797 6.82199 4
      vertex 41.7877 5 4
      vertex 44.2597 5 4
    endloop
  endfacet
  facet normal -0 0 1
    outer loop
      vertex 27.9496 20.296 4
      vertex 32.8577 10.579 4
      vertex 30.1077 20.296 4
    endloop
  endfacet
  facet normal 0 0 1
    outer loop
      vertex 41.7877 5 4
      vertex 42.9797 6.82199 4
      vertex 42.7188 7.98021 4
    endloop
  endfacet
  facet normal 0 0 1
    outer loop
      vertex 44.2597 5 4
      vertex 48.7677 20.296 4
      vertex 44.9952 14.5024 4
    endloop
  endfacet
  facet normal 0 0 1
    outer loop
      vertex 44.9952 14.5024 4
      vertex 43.9772 10.8164 4
      vertex 44.2597 5 4
    endloop
  endfacet
  facet normal 0 0 1
    outer loop
      vertex 43.9772 10.8164 4
      vertex 43.5556 9.23799 4
      vertex 44.2597 5 4
    endloop
  endfacet
  facet normal 0 0 1
    outer loop
      vertex 42.0237 10.774 4
      vertex 39.1357 14.718 4
      vertex 41.7877 5 4
    endloop
  endfacet
  facet normal 0 0 1
    outer loop
      vertex 43.5556 9.23799 4
      vertex 43.0777 7.202 4
      vertex 44.2597 5 4
    endloop
  endfacet
  facet normal 0 0 1
    outer loop
      vertex 42.7188 7.98021 4
      vertex 42.4001 9.29755 4
      vertex 41.7877 5 4
    endloop
  endfacet
  facet normal 0 0 1
    outer loop
      vertex 43.0777 7.202 4
      vertex 42.9797 6.82199 4
      vertex 44.2597 5 4
    endloop
  endfacet
  facet normal 0 0 1
    outer loop
      vertex 42.4001 9.29755 4
      vertex 42.0237 10.774 4
      vertex 41.7877 5 4
    endloop
  endfacet
  facet normal 0 0 1
    outer loop
      vertex 42.0237 10.774 4
      vertex 38.9351 15.4864 4
      vertex 39.1357 14.718 4
    endloop
  endfacet
  facet normal 0 0 1
    outer loop
      vertex 42.0237 10.774 4
      vertex 39.3607 20.296 4
      vertex 38.9351 15.4864 4
    endloop
  endfacet
  facet normal 0 -0 1
    outer loop
      vertex 38.9351 15.4864 4
      vertex 39.3607 20.296 4
      vertex 38.6814 16.5758 4
    endloop
  endfacet
  facet normal 0 0 1
    outer loop
      vertex 37.48 14.2942 4
      vertex 34.8495 11.2622 4
      vertex 36.4913 10.6679 4
    endloop
  endfacet
  facet normal 0 0 1
    outer loop
      vertex 34.1436 8.51044 4
      vertex 36.4913 10.6679 4
      vertex 34.3627 9.42699 4
    endloop
  endfacet
  facet normal 0 -0 1
    outer loop
      vertex 34.9306 5 4
      vertex 36.4913 10.6679 4
      vertex 34.1436 8.51044 4
    endloop
  endfacet
  facet normal 0 0 1
    outer loop
      vertex 34.9306 5 4
      vertex 34.1436 8.51044 4
      vertex 33.9427 7.64211 4
    endloop
  endfacet
  facet normal 0 0 1
    outer loop
      vertex 32.4586 5 4
      vertex 33.7597 6.82199 4
      vertex 33.4759 8.09854 4
    endloop
  endfacet
  facet normal 0 0 1
    outer loop
      vertex 34.9306 5 4
      vertex 33.9427 7.64211 4
      vertex 33.7597 6.82199 4
    endloop
  endfacet
  facet normal 0 0 1
    outer loop
      vertex 32.4586 5 4
      vertex 33.4759 8.09854 4
      vertex 33.1752 9.35088 4
    endloop
  endfacet
  facet normal 0 0 1
    outer loop
      vertex 34.9306 5 4
      vertex 33.7597 6.82199 4
      vertex 32.4586 5 4
    endloop
  endfacet
  facet normal 0 0 1
    outer loop
      vertex 27.9496 20.296 4
      vertex 32.4586 5 4
      vertex 32.8577 10.579 4
    endloop
  endfacet
  facet normal 0 0 1
    outer loop
      vertex 32.8577 10.579 4
      vertex 32.4586 5 4
      vertex 33.1752 9.35088 4
    endloop
  endfacet
  facet normal 0 -1 0
    outer loop
      vertex 16.67 11.363 2
      vertex 11.896 11.363 4
      vertex 11.896 11.363 2
    endloop
  endfacet
  facet normal 0 -1 0
    outer loop
      vertex 16.67 11.363 2
      vertex 16.67 11.363 4
      vertex 11.896 11.363 4
    endloop
  endfacet
  facet normal -0.848051 -0.529915 0
    outer loop
      vertex 20.646 5 2
      vertex 16.67 11.363 4
      vertex 16.67 11.363 2
    endloop
  endfacet
  facet normal -0.848051 -0.529915 0
    outer loop
      vertex 20.646 5 2
      vertex 20.646 5 4
      vertex 16.67 11.363 4
    endloop
  endfacet
  facet normal 0 -1 0
    outer loop
      vertex 23.032 5 2
      vertex 20.646 5 4
      vertex 20.646 5 2
    endloop
  endfacet
  facet normal 0 -1 0
    outer loop
      vertex 23.032 5 2
      vertex 23.032 5 4
      vertex 20.646 5 4
    endloop
  endfacet
  facet normal 0.835287 0.549814 0
    outer loop
      vertex 18.687 11.601 2
      vertex 23.032 5 4
      vertex 23.032 5 2
    endloop
  endfacet
  facet normal 0.835287 0.549814 -0
    outer loop
      vertex 18.687 11.601 2
      vertex 18.687 11.601 4
      vertex 23.032 5 4
    endloop
  endfacet
  facet normal 0.265319 -0.964161 0
    outer loop
      vertex 19.7691 11.8988 2
      vertex 18.687 11.601 4
      vertex 18.687 11.601 2
    endloop
  endfacet
  facet normal 0.265319 -0.964161 0
    outer loop
      vertex 19.7691 11.8988 2
      vertex 19.7691 11.8988 4
      vertex 18.687 11.601 4
    endloop
  endfacet
  facet normal 0.470847 -0.882215 0
    outer loop
      vertex 20.6834 12.3868 2
      vertex 19.7691 11.8988 4
      vertex 19.7691 11.8988 2
    endloop
  endfacet
  facet normal 0.470847 -0.882215 0
    outer loop
      vertex 20.6834 12.3868 2
      vertex 20.6834 12.3868 4
      vertex 19.7691 11.8988 4
    endloop
  endfacet
  facet normal 0.672423 -0.740167 0
    outer loop
      vertex 21.43 13.065 2
      vertex 20.6834 12.3868 4
      vertex 20.6834 12.3868 2
    endloop
  endfacet
  facet normal 0.672423 -0.740167 0
    outer loop
      vertex 21.43 13.065 2
      vertex 21.43 13.065 4
      vertex 20.6834 12.3868 4
    endloop
  endfacet
  facet normal 0.833657 -0.552282 0
    outer loop
      vertex 21.9822 13.8985 2
      vertex 21.43 13.065 4
      vertex 21.43 13.065 2
    endloop
  endfacet
  facet normal 0.833657 -0.552282 0
    outer loop
      vertex 21.9822 13.8985 2
      vertex 21.9822 13.8985 4
      vertex 21.43 13.065 4
    endloop
  endfacet
  facet normal 0.944646 -0.328092 0
    outer loop
      vertex 22.3136 14.8526 2
      vertex 21.9822 13.8985 4
      vertex 21.9822 13.8985 2
    endloop
  endfacet
  facet normal 0.944646 -0.328092 0
    outer loop
      vertex 22.3136 14.8526 2
      vertex 22.3136 14.8526 4
      vertex 21.9822 13.8985 4
    endloop
  endfacet
  facet normal 0.994758 -0.102253 0
    outer loop
      vertex 22.424 15.927 2
      vertex 22.3136 14.8526 4
      vertex 22.3136 14.8526 2
    endloop
  endfacet
  facet normal 0.994758 -0.102253 0
    outer loop
      vertex 22.424 15.927 2
      vertex 22.424 15.927 4
      vertex 22.3136 14.8526 4
    endloop
  endfacet
  facet normal 0.992539 0.121928 0
    outer loop
      vertex 22.2677 17.1997 2
      vertex 22.424 15.927 4
      vertex 22.424 15.927 2
    endloop
  endfacet
  facet normal 0.992539 0.121928 -0
    outer loop
      vertex 22.2677 17.1997 2
      vertex 22.2677 17.1997 4
      vertex 22.424 15.927 4
    endloop
  endfacet
  facet normal 0.916068 0.401023 0
    outer loop
      vertex 21.7987 18.271 2
      vertex 22.2677 17.1997 4
      vertex 22.2677 17.1997 2
    endloop
  endfacet
  facet normal 0.916068 0.401023 -0
    outer loop
      vertex 21.7987 18.271 2
      vertex 21.7987 18.271 4
      vertex 22.2677 17.1997 4
    endloop
  endfacet
  facet normal 0.743861 0.668335 0
    outer loop
      vertex 21.017 19.141 2
      vertex 21.7987 18.271 4
      vertex 21.7987 18.271 2
    endloop
  endfacet
  facet normal 0.743861 0.668335 -0
    outer loop
      vertex 21.017 19.141 2
      vertex 21.017 19.141 4
      vertex 21.7987 18.271 4
    endloop
  endfacet
  facet normal 0.514883 0.857261 0
    outer loop
      vertex 19.9487 19.7827 2
      vertex 21.017 19.141 4
      vertex 21.017 19.141 2
    endloop
  endfacet
  facet normal 0.514883 0.857261 -0
    outer loop
      vertex 19.9487 19.7827 2
      vertex 19.9487 19.7827 4
      vertex 21.017 19.141 4
    endloop
  endfacet
  facet normal 0.278002 0.96058 0
    outer loop
      vertex 18.6183 20.1677 2
      vertex 19.9487 19.7827 4
      vertex 19.9487 19.7827 2
    endloop
  endfacet
  facet normal 0.278002 0.96058 -0
    outer loop
      vertex 18.6183 20.1677 2
      vertex 18.6183 20.1677 4
      vertex 19.9487 19.7827 4
    endloop
  endfacet
  facet normal 0.0803291 0.996768 0
    outer loop
      vertex 17.026 20.296 2
      vertex 18.6183 20.1677 4
      vertex 18.6183 20.1677 2
    endloop
  endfacet
  facet normal 0.0803291 0.996768 -0
    outer loop
      vertex 17.026 20.296 2
      vertex 17.026 20.296 4
      vertex 18.6183 20.1677 4
    endloop
  endfacet
  facet normal 0 1 0
    outer loop
      vertex 9.825 20.296 2
      vertex 17.026 20.296 4
      vertex 17.026 20.296 2
    endloop
  endfacet
  facet normal 0 1 0
    outer loop
      vertex 9.825 20.296 2
      vertex 9.825 20.296 4
      vertex 17.026 20.296 4
    endloop
  endfacet
  facet normal -1 0 0
    outer loop
      vertex 9.825 5 2
      vertex 9.825 20.296 4
      vertex 9.825 20.296 2
    endloop
  endfacet
  facet normal -1 0 0
    outer loop
      vertex 9.825 5 2
      vertex 9.825 5 4
      vertex 9.825 20.296 4
    endloop
  endfacet
  facet normal 0 -1 0
    outer loop
      vertex 11.896 5 2
      vertex 9.825 5 4
      vertex 9.825 5 2
    endloop
  endfacet
  facet normal 0 -1 0
    outer loop
      vertex 11.896 5 2
      vertex 11.896 5 4
      vertex 9.825 5 4
    endloop
  endfacet
  facet normal 1 0 0
    outer loop
      vertex 11.896 11.363 2
      vertex 11.896 5 4
      vertex 11.896 5 2
    endloop
  endfacet
  facet normal 1 0 -0
    outer loop
      vertex 11.896 11.363 2
      vertex 11.896 11.363 4
      vertex 11.896 5 4
    endloop
  endfacet
  facet normal 1 0 -0
    outer loop
      vertex 11.896 18.637 2
      vertex 11.896 18.637 4
      vertex 11.896 13 2
    endloop
  endfacet
  facet normal 1 -0 0
    outer loop
      vertex 11.896 13 4
      vertex 11.896 13 2
      vertex 11.896 18.637 4
    endloop
  endfacet
  facet normal 0 -1 0
    outer loop
      vertex 16.82 18.637 2
      vertex 16.82 18.637 4
      vertex 11.896 18.637 2
    endloop
  endfacet
  facet normal 0 -1 0
    outer loop
      vertex 11.896 18.637 4
      vertex 11.896 18.637 2
      vertex 16.82 18.637 4
    endloop
  endfacet
  facet normal -0.0738289 -0.997271 0
    outer loop
      vertex 17.8691 18.5593 2
      vertex 17.8691 18.5593 4
      vertex 16.82 18.637 2
    endloop
  endfacet
  facet normal -0.0738289 -0.997271 -0
    outer loop
      vertex 16.82 18.637 4
      vertex 16.82 18.637 2
      vertex 17.8691 18.5593 4
    endloop
  endfacet
  facet normal -0.258334 -0.966056 0
    outer loop
      vertex 18.7404 18.3263 2
      vertex 18.7404 18.3263 4
      vertex 17.8691 18.5593 2
    endloop
  endfacet
  facet normal -0.258334 -0.966056 -0
    outer loop
      vertex 17.8691 18.5593 4
      vertex 17.8691 18.5593 2
      vertex 18.7404 18.3263 4
    endloop
  endfacet
  facet normal -0.48855 -0.872536 0
    outer loop
      vertex 19.434 17.938 2
      vertex 19.434 17.938 4
      vertex 18.7404 18.3263 2
    endloop
  endfacet
  facet normal -0.48855 -0.872536 -0
    outer loop
      vertex 18.7404 18.3263 4
      vertex 18.7404 18.3263 2
      vertex 19.434 17.938 4
    endloop
  endfacet
  facet normal -0.728568 -0.684974 0
    outer loop
      vertex 19.9384 17.4014 2
      vertex 19.9384 17.4014 4
      vertex 19.434 17.938 2
    endloop
  endfacet
  facet normal -0.728568 -0.684974 -0
    outer loop
      vertex 19.434 17.938 4
      vertex 19.434 17.938 2
      vertex 19.9384 17.4014 4
    endloop
  endfacet
  facet normal -0.913067 -0.407809 0
    outer loop
      vertex 20.2411 16.7238 2
      vertex 20.2411 16.7238 4
      vertex 19.9384 17.4014 2
    endloop
  endfacet
  facet normal -0.913067 -0.407809 -0
    outer loop
      vertex 19.9384 17.4014 4
      vertex 19.9384 17.4014 2
      vertex 20.2411 16.7238 4
    endloop
  endfacet
  facet normal -0.992493 -0.122298 0
    outer loop
      vertex 20.342 15.905 2
      vertex 20.342 15.905 4
      vertex 20.2411 16.7238 2
    endloop
  endfacet
  facet normal -0.992493 -0.122298 -0
    outer loop
      vertex 20.2411 16.7238 4
      vertex 20.2411 16.7238 2
      vertex 20.342 15.905 4
    endloop
  endfacet
  facet normal -0.993194 0.116475 0
    outer loop
      vertex 20.2423 15.0551 2
      vertex 20.2423 15.0551 4
      vertex 20.342 15.905 2
    endloop
  endfacet
  facet normal -0.993194 0.116475 0
    outer loop
      vertex 20.342 15.905 4
      vertex 20.342 15.905 2
      vertex 20.2423 15.0551 4
    endloop
  endfacet
  facet normal -0.922325 0.386414 0
    outer loop
      vertex 19.9433 14.3414 2
      vertex 19.9433 14.3414 4
      vertex 20.2423 15.0551 2
    endloop
  endfacet
  facet normal -0.922325 0.386414 0
    outer loop
      vertex 20.2423 15.0551 4
      vertex 20.2423 15.0551 2
      vertex 19.9433 14.3414 4
    endloop
  endfacet
  facet normal -0.757056 0.65335 0
    outer loop
      vertex 19.445 13.764 2
      vertex 19.445 13.764 4
      vertex 19.9433 14.3414 2
    endloop
  endfacet
  facet normal -0.757056 0.65335 0
    outer loop
      vertex 19.9433 14.3414 4
      vertex 19.9433 14.3414 2
      vertex 19.445 13.764 4
    endloop
  endfacet
  facet normal -0.529123 0.848545 0
    outer loop
      vertex 18.7643 13.3396 2
      vertex 18.7643 13.3396 4
      vertex 19.445 13.764 2
    endloop
  endfacet
  facet normal -0.529123 0.848545 0
    outer loop
      vertex 19.445 13.764 4
      vertex 19.445 13.764 2
      vertex 18.7643 13.3396 4
    endloop
  endfacet
  facet normal -0.288248 0.957556 0
    outer loop
      vertex 17.9183 13.0849 2
      vertex 17.9183 13.0849 4
      vertex 18.7643 13.3396 2
    endloop
  endfacet
  facet normal -0.288248 0.957556 0
    outer loop
      vertex 18.7643 13.3396 4
      vertex 18.7643 13.3396 2
      vertex 17.9183 13.0849 4
    endloop
  endfacet
  facet normal -0.0836402 0.996496 0
    outer loop
      vertex 16.907 13 2
      vertex 16.907 13 4
      vertex 17.9183 13.0849 2
    endloop
  endfacet
  facet normal -0.0836402 0.996496 0
    outer loop
      vertex 17.9183 13.0849 4
      vertex 17.9183 13.0849 2
      vertex 16.907 13 4
    endloop
  endfacet
  facet normal 0 1 0
    outer loop
      vertex 11.896 13 2
      vertex 11.896 13 4
      vertex 16.907 13 2
    endloop
  endfacet
  facet normal 0 1 0
    outer loop
      vertex 16.907 13 4
      vertex 16.907 13 2
      vertex 11.896 13 4
    endloop
  endfacet
  facet normal 0.964787 -0.263033 0
    outer loop
      vertex 37.48 14.2942 2
      vertex 36.4913 10.6679 4
      vertex 36.4913 10.6679 2
    endloop
  endfacet
  facet normal 0.964787 -0.263033 0
    outer loop
      vertex 37.48 14.2942 2
      vertex 37.48 14.2942 4
      vertex 36.4913 10.6679 4
    endloop
  endfacet
  facet normal 0.967131 -0.254279 0
    outer loop
      vertex 37.8967 15.879 2
      vertex 37.48 14.2942 4
      vertex 37.48 14.2942 2
    endloop
  endfacet
  facet normal 0.967131 -0.254279 0
    outer loop
      vertex 37.8967 15.879 2
      vertex 37.8967 15.879 4
      vertex 37.48 14.2942 4
    endloop
  endfacet
  facet normal 0.974943 -0.222453 0
    outer loop
      vertex 38.1962 17.1919 2
      vertex 37.8967 15.879 4
      vertex 37.8967 15.879 2
    endloop
  endfacet
  facet normal 0.974943 -0.222453 0
    outer loop
      vertex 38.1962 17.1919 2
      vertex 38.1962 17.1919 4
      vertex 37.8967 15.879 4
    endloop
  endfacet
  facet normal 0.975673 -0.219232 0
    outer loop
      vertex 38.3746 17.986 2
      vertex 38.1962 17.1919 4
      vertex 38.1962 17.1919 2
    endloop
  endfacet
  facet normal 0.975673 -0.219232 0
    outer loop
      vertex 38.3746 17.986 2
      vertex 38.3746 17.986 4
      vertex 38.1962 17.1919 4
    endloop
  endfacet
  facet normal -0.977146 -0.212568 0
    outer loop
      vertex 38.6814 16.5758 2
      vertex 38.3746 17.986 4
      vertex 38.3746 17.986 2
    endloop
  endfacet
  facet normal -0.977146 -0.212568 0
    outer loop
      vertex 38.6814 16.5758 2
      vertex 38.6814 16.5758 4
      vertex 38.3746 17.986 4
    endloop
  endfacet
  facet normal -0.97394 -0.226804 0
    outer loop
      vertex 38.9351 15.4864 2
      vertex 38.6814 16.5758 4
      vertex 38.6814 16.5758 2
    endloop
  endfacet
  facet normal -0.97394 -0.226804 0
    outer loop
      vertex 38.9351 15.4864 2
      vertex 38.9351 15.4864 4
      vertex 38.6814 16.5758 4
    endloop
  endfacet
  facet normal -0.967592 -0.252518 0
    outer loop
      vertex 39.1357 14.718 2
      vertex 38.9351 15.4864 4
      vertex 38.9351 15.4864 2
    endloop
  endfacet
  facet normal -0.967592 -0.252518 0
    outer loop
      vertex 39.1357 14.718 2
      vertex 39.1357 14.718 4
      vertex 38.9351 15.4864 4
    endloop
  endfacet
  facet normal -0.964722 -0.26327 0
    outer loop
      vertex 41.7877 5 2
      vertex 39.1357 14.718 4
      vertex 39.1357 14.718 2
    endloop
  endfacet
  facet normal -0.964722 -0.26327 0
    outer loop
      vertex 41.7877 5 2
      vertex 41.7877 5 4
      vertex 39.1357 14.718 4
    endloop
  endfacet
  facet normal 0 -1 0
    outer loop
      vertex 44.2597 5 2
      vertex 41.7877 5 4
      vertex 41.7877 5 2
    endloop
  endfacet
  facet normal 0 -1 0
    outer loop
      vertex 44.2597 5 2
      vertex 44.2597 5 4
      vertex 41.7877 5 4
    endloop
  endfacet
  facet normal 0.95921 -0.282696 0
    outer loop
      vertex 48.7677 20.296 2
      vertex 44.2597 5 4
      vertex 44.2597 5 2
    endloop
  endfacet
  facet normal 0.95921 -0.282696 0
    outer loop
      vertex 48.7677 20.296 2
      vertex 48.7677 20.296 4
      vertex 44.2597 5 4
    endloop
  endfacet
  facet normal 0 1 0
    outer loop
      vertex 46.6096 20.296 2
      vertex 48.7677 20.296 4
      vertex 48.7677 20.296 2
    endloop
  endfacet
  facet normal 0 1 0
    outer loop
      vertex 46.6096 20.296 2
      vertex 46.6096 20.296 4
      vertex 48.7677 20.296 4
    endloop
  endfacet
  facet normal -0.963298 0.268434 0
    outer loop
      vertex 44.9952 14.5024 2
      vertex 46.6096 20.296 4
      vertex 46.6096 20.296 2
    endloop
  endfacet
  facet normal -0.963298 0.268434 0
    outer loop
      vertex 44.9952 14.5024 2
      vertex 44.9952 14.5024 4
      vertex 46.6096 20.296 4
    endloop
  endfacet
  facet normal -0.963914 0.266215 0
    outer loop
      vertex 43.9772 10.8164 2
      vertex 44.9952 14.5024 4
      vertex 44.9952 14.5024 2
    endloop
  endfacet
  facet normal -0.963914 0.266215 0
    outer loop
      vertex 43.9772 10.8164 2
      vertex 43.9772 10.8164 4
      vertex 44.9952 14.5024 4
    endloop
  endfacet
  facet normal -0.966138 0.258026 0
    outer loop
      vertex 43.5556 9.23799 2
      vertex 43.9772 10.8164 4
      vertex 43.9772 10.8164 2
    endloop
  endfacet
  facet normal -0.966138 0.258026 0
    outer loop
      vertex 43.5556 9.23799 2
      vertex 43.5556 9.23799 4
      vertex 43.9772 10.8164 4
    endloop
  endfacet
  facet normal -0.97353 0.228559 0
    outer loop
      vertex 43.0777 7.202 2
      vertex 43.5556 9.23799 4
      vertex 43.5556 9.23799 2
    endloop
  endfacet
  facet normal -0.97353 0.228559 0
    outer loop
      vertex 43.0777 7.202 2
      vertex 43.0777 7.202 4
      vertex 43.5556 9.23799 4
    endloop
  endfacet
  facet normal -0.968323 0.249702 0
    outer loop
      vertex 42.9797 6.82199 2
      vertex 43.0777 7.202 4
      vertex 43.0777 7.202 2
    endloop
  endfacet
  facet normal -0.968323 0.249702 0
    outer loop
      vertex 42.9797 6.82199 2
      vertex 42.9797 6.82199 4
      vertex 43.0777 7.202 4
    endloop
  endfacet
  facet normal 0.975556 0.219749 0
    outer loop
      vertex 42.7188 7.98021 2
      vertex 42.9797 6.82199 4
      vertex 42.9797 6.82199 2
    endloop
  endfacet
  facet normal 0.975556 0.219749 -0
    outer loop
      vertex 42.7188 7.98021 2
      vertex 42.7188 7.98021 4
      vertex 42.9797 6.82199 4
    endloop
  endfacet
  facet normal 0.971967 0.235119 0
    outer loop
      vertex 42.4001 9.29755 2
      vertex 42.7188 7.98021 4
      vertex 42.7188 7.98021 2
    endloop
  endfacet
  facet normal 0.971967 0.235119 -0
    outer loop
      vertex 42.4001 9.29755 2
      vertex 42.4001 9.29755 4
      vertex 42.7188 7.98021 4
    endloop
  endfacet
  facet normal 0.968999 0.247067 0
    outer loop
      vertex 42.0237 10.774 2
      vertex 42.4001 9.29755 4
      vertex 42.4001 9.29755 2
    endloop
  endfacet
  facet normal 0.968999 0.247067 -0
    outer loop
      vertex 42.0237 10.774 2
      vertex 42.0237 10.774 4
      vertex 42.4001 9.29755 4
    endloop
  endfacet
  facet normal 0.963047 0.269333 0
    outer loop
      vertex 39.3607 20.296 2
      vertex 42.0237 10.774 4
      vertex 42.0237 10.774 2
    endloop
  endfacet
  facet normal 0.963047 0.269333 -0
    outer loop
      vertex 39.3607 20.296 2
      vertex 39.3607 20.296 4
      vertex 42.0237 10.774 4
    endloop
  endfacet
  facet normal 0 1 0
    outer loop
      vertex 37.3766 20.296 2
      vertex 39.3607 20.296 4
      vertex 39.3607 20.296 2
    endloop
  endfacet
  facet normal 0 1 0
    outer loop
      vertex 37.3766 20.296 2
      vertex 37.3766 20.296 4
      vertex 39.3607 20.296 4
    endloop
  endfacet
  facet normal -0.96262 0.270855 0
    outer loop
      vertex 35.8542 14.8852 2
      vertex 37.3766 20.296 4
      vertex 37.3766 20.296 2
    endloop
  endfacet
  facet normal -0.96262 0.270855 0
    outer loop
      vertex 35.8542 14.8852 2
      vertex 35.8542 14.8852 4
      vertex 37.3766 20.296 4
    endloop
  endfacet
  facet normal -0.963637 0.267215 0
    outer loop
      vertex 34.8495 11.2622 2
      vertex 35.8542 14.8852 4
      vertex 35.8542 14.8852 2
    endloop
  endfacet
  facet normal -0.963637 0.267215 0
    outer loop
      vertex 34.8495 11.2622 2
      vertex 34.8495 11.2622 4
      vertex 35.8542 14.8852 4
    endloop
  endfacet
  facet normal -0.966562 0.256433 0
    outer loop
      vertex 34.3627 9.42699 2
      vertex 34.8495 11.2622 4
      vertex 34.8495 11.2622 2
    endloop
  endfacet
  facet normal -0.966562 0.256433 0
    outer loop
      vertex 34.3627 9.42699 2
      vertex 34.3627 9.42699 4
      vertex 34.8495 11.2622 4
    endloop
  endfacet
  facet normal -0.972619 0.232407 0
    outer loop
      vertex 34.1436 8.51044 2
      vertex 34.3627 9.42699 4
      vertex 34.3627 9.42699 2
    endloop
  endfacet
  facet normal -0.972619 0.232407 0
    outer loop
      vertex 34.1436 8.51044 2
      vertex 34.1436 8.51044 4
      vertex 34.3627 9.42699 4
    endloop
  endfacet
  facet normal -0.974242 0.225503 0
    outer loop
      vertex 33.9427 7.64211 2
      vertex 34.1436 8.51044 4
      vertex 34.1436 8.51044 2
    endloop
  endfacet
  facet normal -0.974242 0.225503 0
    outer loop
      vertex 33.9427 7.64211 2
      vertex 33.9427 7.64211 4
      vertex 34.1436 8.51044 4
    endloop
  endfacet
  facet normal -0.975997 0.217782 0
    outer loop
      vertex 33.7597 6.82199 2
      vertex 33.9427 7.64211 4
      vertex 33.9427 7.64211 2
    endloop
  endfacet
  facet normal -0.975997 0.217782 0
    outer loop
      vertex 33.7597 6.82199 2
      vertex 33.7597 6.82199 4
      vertex 33.9427 7.64211 4
    endloop
  endfacet
  facet normal 0.97617 0.217007 0
    outer loop
      vertex 33.4759 8.09854 2
      vertex 33.7597 6.82199 4
      vertex 33.7597 6.82199 2
    endloop
  endfacet
  facet normal 0.97617 0.217007 -0
    outer loop
      vertex 33.4759 8.09854 2
      vertex 33.4759 8.09854 4
      vertex 33.7597 6.82199 4
    endloop
  endfacet
  facet normal 0.972367 0.233457 0
    outer loop
      vertex 33.1752 9.35088 2
      vertex 33.4759 8.09854 4
      vertex 33.4759 8.09854 2
    endloop
  endfacet
  facet normal 0.972367 0.233457 -0
    outer loop
      vertex 33.1752 9.35088 2
      vertex 33.1752 9.35088 4
      vertex 33.4759 8.09854 4
    endloop
  endfacet
  facet normal 0.96816 0.250334 0
    outer loop
      vertex 32.8577 10.579 2
      vertex 33.1752 9.35088 4
      vertex 33.1752 9.35088 2
    endloop
  endfacet
  facet normal 0.96816 0.250334 -0
    outer loop
      vertex 32.8577 10.579 2
      vertex 32.8577 10.579 4
      vertex 33.1752 9.35088 4
    endloop
  endfacet
  facet normal 0.962208 0.272314 0
    outer loop
      vertex 30.1077 20.296 2
      vertex 32.8577 10.579 4
      vertex 32.8577 10.579 2
    endloop
  endfacet
  facet normal 0.962208 0.272314 -0
    outer loop
      vertex 30.1077 20.296 2
      vertex 30.1077 20.296 4
      vertex 32.8577 10.579 4
    endloop
  endfacet
  facet normal 0 1 0
    outer loop
      vertex 27.9496 20.296 2
      vertex 30.1077 20.296 4
      vertex 30.1077 20.296 2
    endloop
  endfacet
  facet normal 0 1 0
    outer loop
      vertex 27.9496 20.296 2
      vertex 27.9496 20.296 4
      vertex 30.1077 20.296 4
    endloop
  endfacet
  facet normal -0.959192 -0.282754 0
    outer loop
      vertex 32.4586 5 2
      vertex 27.9496 20.296 4
      vertex 27.9496 20.296 2
    endloop
  endfacet
  facet normal -0.959192 -0.282754 0
    outer loop
      vertex 32.4586 5 2
      vertex 32.4586 5 4
      vertex 27.9496 20.296 4
    endloop
  endfacet
  facet normal 0 -1 0
    outer loop
      vertex 34.9306 5 2
      vertex 32.4586 5 4
      vertex 32.4586 5 2
    endloop
  endfacet
  facet normal 0 -1 0
    outer loop
      vertex 34.9306 5 2
      vertex 34.9306 5 4
      vertex 32.4586 5 4
    endloop
  endfacet
  facet normal 0.964118 -0.265473 0
    outer loop
      vertex 36.4913 10.6679 2
      vertex 34.9306 5 4
      vertex 34.9306 5 2
    endloop
  endfacet
  facet normal 0.964118 -0.265473 0
    outer loop
      vertex 36.4913 10.6679 2
      vertex 36.4913 10.6679 4
      vertex 34.9306 5 4
    endloop
  endfacet
endsolid OpenSCAD_Model
