solid OpenSCAD_Model
  facet normal 0 0 -1
    outer loop
      vertex 21.058 18.604 2
      vertex 15.809 18.604 2
      vertex 21.058 20.296 2
    endloop
  endfacet
  facet normal -0 0 -1
    outer loop
      vertex 21.058 20.296 2
      vertex 15.809 18.604 2
      vertex 8.49899 20.296 2
    endloop
  endfacet
  facet normal 0 0 -1
    outer loop
      vertex 8.49899 20.296 2
      vertex 15.809 18.604 2
      vertex 13.748 18.604 2
    endloop
  endfacet
  facet normal -0 -0 -1
    outer loop
      vertex 15.809 18.604 2
      vertex 15.809 5 2
      vertex 13.748 18.604 2
    endloop
  endfacet
  facet normal 0 0 -1
    outer loop
      vertex 13.748 18.604 2
      vertex 15.809 5 2
      vertex 13.748 5 2
    endloop
  endfacet
  facet normal 0 0 -1
    outer loop
      vertex 8.49899 20.296 2
      vertex 13.748 18.604 2
      vertex 8.49899 18.604 2
    endloop
  endfacet
  facet normal 0 0 -1
    outer loop
      vertex 27.0723 9.46399 2
      vertex 25.3203 5 2
      vertex 23.1733 5 2
    endloop
  endfacet
  facet normal 0 0 -1
    outer loop
      vertex 23.1733 5 2
      vertex 29.3953 20.296 2
      vertex 27.6993 11.08 2
    endloop
  endfacet
  facet normal 0 0 -1
    outer loop
      vertex 34.0153 9.46399 2
      vertex 27.6993 11.08 2
      vertex 33.3993 11.08 2
    endloop
  endfacet
  facet normal 0 0 -1
    outer loop
      vertex 34.0153 9.46399 2
      vertex 37.8713 5 2
      vertex 35.7563 5 2
    endloop
  endfacet
  facet normal 0 0 -1
    outer loop
      vertex 33.3993 11.08 2
      vertex 31.7483 20.296 2
      vertex 37.8713 5 2
    endloop
  endfacet
  facet normal 0 0 -1
    outer loop
      vertex 34.0153 9.46399 2
      vertex 33.3993 11.08 2
      vertex 37.8713 5 2
    endloop
  endfacet
  facet normal 0 0 -1
    outer loop
      vertex 29.6463 16.114 2
      vertex 29.3953 20.296 2
      vertex 29.9708 16.9993 2
    endloop
  endfacet
  facet normal -0 0 -1
    outer loop
      vertex 27.0723 9.46399 2
      vertex 23.1733 5 2
      vertex 27.6993 11.08 2
    endloop
  endfacet
  facet normal 0 0 -1
    outer loop
      vertex 27.0723 9.46399 2
      vertex 27.6993 11.08 2
      vertex 34.0153 9.46399 2
    endloop
  endfacet
  facet normal 0 0 -1
    outer loop
      vertex 27.6993 11.08 2
      vertex 29.3953 20.296 2
      vertex 29.6463 16.114 2
    endloop
  endfacet
  facet normal 0 0 -1
    outer loop
      vertex 30.5443 18.734 2
      vertex 31.7483 20.296 2
      vertex 30.8363 17.832 2
    endloop
  endfacet
  facet normal 0 0 -1
    outer loop
      vertex 29.9708 16.9993 2
      vertex 29.3953 20.296 2
      vertex 30.2378 17.7713 2
    endloop
  endfacet
  facet normal 0 0 -1
    outer loop
      vertex 30.2378 17.7713 2
      vertex 29.3953 20.296 2
      vertex 30.5443 18.734 2
    endloop
  endfacet
  facet normal 0 0 -1
    outer loop
      vertex 30.5443 18.734 2
      vertex 29.3953 20.296 2
      vertex 31.7483 20.296 2
    endloop
  endfacet
  facet normal 0 0 -1
    outer loop
      vertex 30.8363 17.832 2
      vertex 31.7483 20.296 2
      vertex 31.0383 17.2231 2
    endloop
  endfacet
  facet normal 0 0 -1
    outer loop
      vertex 31.0383 17.2231 2
      vertex 31.7483 20.296 2
      vertex 31.2403 16.6578 2
    endloop
  endfacet
  facet normal 0 0 -1
    outer loop
      vertex 31.2403 16.6578 2
      vertex 31.7483 20.296 2
      vertex 33.3993 11.08 2
    endloop
  endfacet
  facet normal 0 0 1
    outer loop
      vertex 21.058 20.296 4
      vertex 15.809 18.604 4
      vertex 21.058 18.604 4
    endloop
  endfacet
  facet normal -0 0 1
    outer loop
      vertex 8.49899 20.296 4
      vertex 15.809 18.604 4
      vertex 21.058 20.296 4
    endloop
  endfacet
  facet normal 0 -0 1
    outer loop
      vertex 13.748 18.604 4
      vertex 15.809 18.604 4
      vertex 8.49899 20.296 4
    endloop
  endfacet
  facet normal -0 0 1
    outer loop
      vertex 13.748 18.604 4
      vertex 15.809 5 4
      vertex 15.809 18.604 4
    endloop
  endfacet
  facet normal 0 0 1
    outer loop
      vertex 13.748 5 4
      vertex 15.809 5 4
      vertex 13.748 18.604 4
    endloop
  endfacet
  facet normal 0 0 1
    outer loop
      vertex 8.49899 18.604 4
      vertex 13.748 18.604 4
      vertex 8.49899 20.296 4
    endloop
  endfacet
  facet normal 0 0 1
    outer loop
      vertex 23.1733 5 4
      vertex 25.3203 5 4
      vertex 27.0723 9.46399 4
    endloop
  endfacet
  facet normal 0 -0 1
    outer loop
      vertex 27.6993 11.08 4
      vertex 29.3953 20.296 4
      vertex 23.1733 5 4
    endloop
  endfacet
  facet normal 0 0 1
    outer loop
      vertex 33.3993 11.08 4
      vertex 27.6993 11.08 4
      vertex 34.0153 9.46399 4
    endloop
  endfacet
  facet normal 0 -0 1
    outer loop
      vertex 35.7563 5 4
      vertex 37.8713 5 4
      vertex 34.0153 9.46399 4
    endloop
  endfacet
  facet normal 0 0 1
    outer loop
      vertex 37.8713 5 4
      vertex 31.7483 20.296 4
      vertex 33.3993 11.08 4
    endloop
  endfacet
  facet normal 0 0 1
    outer loop
      vertex 37.8713 5 4
      vertex 33.3993 11.08 4
      vertex 34.0153 9.46399 4
    endloop
  endfacet
  facet normal 0 0 1
    outer loop
      vertex 29.9708 16.9993 4
      vertex 29.3953 20.296 4
      vertex 29.6463 16.114 4
    endloop
  endfacet
  facet normal 0 0 1
    outer loop
      vertex 27.6993 11.08 4
      vertex 23.1733 5 4
      vertex 27.0723 9.46399 4
    endloop
  endfacet
  facet normal 0 0 1
    outer loop
      vertex 34.0153 9.46399 4
      vertex 27.6993 11.08 4
      vertex 27.0723 9.46399 4
    endloop
  endfacet
  facet normal 0 0 1
    outer loop
      vertex 29.6463 16.114 4
      vertex 29.3953 20.296 4
      vertex 27.6993 11.08 4
    endloop
  endfacet
  facet normal 0 -0 1
    outer loop
      vertex 30.8363 17.832 4
      vertex 31.7483 20.296 4
      vertex 30.5443 18.734 4
    endloop
  endfacet
  facet normal 0 0 1
    outer loop
      vertex 30.2378 17.7713 4
      vertex 29.3953 20.296 4
      vertex 29.9708 16.9993 4
    endloop
  endfacet
  facet normal 0 0 1
    outer loop
      vertex 30.5443 18.734 4
      vertex 29.3953 20.296 4
      vertex 30.2378 17.7713 4
    endloop
  endfacet
  facet normal 0 0 1
    outer loop
      vertex 31.7483 20.296 4
      vertex 29.3953 20.296 4
      vertex 30.5443 18.734 4
    endloop
  endfacet
  facet normal 0 -0 1
    outer loop
      vertex 31.0383 17.2231 4
      vertex 31.7483 20.296 4
      vertex 30.8363 17.832 4
    endloop
  endfacet
  facet normal 0 -0 1
    outer loop
      vertex 31.2403 16.6578 4
      vertex 31.7483 20.296 4
      vertex 31.0383 17.2231 4
    endloop
  endfacet
  facet normal 0 0 1
    outer loop
      vertex 33.3993 11.08 4
      vertex 31.7483 20.296 4
      vertex 31.2403 16.6578 4
    endloop
  endfacet
  facet normal 0 -1 0
    outer loop
      vertex 21.058 18.604 2
      vertex 15.809 18.604 4
      vertex 15.809 18.604 2
    endloop
  endfacet
  facet normal 0 -1 0
    outer loop
      vertex 21.058 18.604 2
      vertex 21.058 18.604 4
      vertex 15.809 18.604 4
    endloop
  endfacet
  facet normal 1 0 0
    outer loop
      vertex 21.058 20.296 2
      vertex 21.058 18.604 4
      vertex 21.058 18.604 2
    endloop
  endfacet
  facet normal 1 0 -0
    outer loop
      vertex 21.058 20.296 2
      vertex 21.058 20.296 4
      vertex 21.058 18.604 4
    endloop
  endfacet
  facet normal 0 1 0
    outer loop
      vertex 8.49899 20.296 2
      vertex 21.058 20.296 4
      vertex 21.058 20.296 2
    endloop
  endfacet
  facet normal 0 1 0
    outer loop
      vertex 8.49899 20.296 2
      vertex 8.49899 20.296 4
      vertex 21.058 20.296 4
    endloop
  endfacet
  facet normal -1 0 0
    outer loop
      vertex 8.49899 18.604 2
      vertex 8.49899 20.296 4
      vertex 8.49899 20.296 2
    endloop
  endfacet
  facet normal -1 0 0
    outer loop
      vertex 8.49899 18.604 2
      vertex 8.49899 18.604 4
      vertex 8.49899 20.296 4
    endloop
  endfacet
  facet normal 0 -1 0
    outer loop
      vertex 13.748 18.604 2
      vertex 8.49899 18.604 4
      vertex 8.49899 18.604 2
    endloop
  endfacet
  facet normal 0 -1 0
    outer loop
      vertex 13.748 18.604 2
      vertex 13.748 18.604 4
      vertex 8.49899 18.604 4
    endloop
  endfacet
  facet normal -1 0 0
    outer loop
      vertex 13.748 5 2
      vertex 13.748 18.604 4
      vertex 13.748 18.604 2
    endloop
  endfacet
  facet normal -1 0 0
    outer loop
      vertex 13.748 5 2
      vertex 13.748 5 4
      vertex 13.748 18.604 4
    endloop
  endfacet
  facet normal 0 -1 0
    outer loop
      vertex 15.809 5 2
      vertex 13.748 5 4
      vertex 13.748 5 2
    endloop
  endfacet
  facet normal 0 -1 0
    outer loop
      vertex 15.809 5 2
      vertex 15.809 5 4
      vertex 13.748 5 4
    endloop
  endfacet
  facet normal 1 0 0
    outer loop
      vertex 15.809 18.604 2
      vertex 15.809 5 4
      vertex 15.809 5 2
    endloop
  endfacet
  facet normal 1 0 -0
    outer loop
      vertex 15.809 18.604 2
      vertex 15.809 18.604 4
      vertex 15.809 5 4
    endloop
  endfacet
  facet normal 0 -1 0
    outer loop
      vertex 34.0153 9.46399 2
      vertex 27.0723 9.46399 4
      vertex 27.0723 9.46399 2
    endloop
  endfacet
  facet normal 0 -1 0
    outer loop
      vertex 34.0153 9.46399 2
      vertex 34.0153 9.46399 4
      vertex 27.0723 9.46399 4
    endloop
  endfacet
  facet normal -0.931651 -0.363356 0
    outer loop
      vertex 35.7563 5 2
      vertex 34.0153 9.46399 4
      vertex 34.0153 9.46399 2
    endloop
  endfacet
  facet normal -0.931651 -0.363356 0
    outer loop
      vertex 35.7563 5 2
      vertex 35.7563 5 4
      vertex 34.0153 9.46399 4
    endloop
  endfacet
  facet normal 0 -1 0
    outer loop
      vertex 37.8713 5 2
      vertex 35.7563 5 4
      vertex 35.7563 5 2
    endloop
  endfacet
  facet normal 0 -1 0
    outer loop
      vertex 37.8713 5 2
      vertex 37.8713 5 4
      vertex 35.7563 5 4
    endloop
  endfacet
  facet normal 0.92838 0.371632 0
    outer loop
      vertex 31.7483 20.296 2
      vertex 37.8713 5 4
      vertex 37.8713 5 2
    endloop
  endfacet
  facet normal 0.92838 0.371632 -0
    outer loop
      vertex 31.7483 20.296 2
      vertex 31.7483 20.296 4
      vertex 37.8713 5 4
    endloop
  endfacet
  facet normal 0 1 0
    outer loop
      vertex 29.3953 20.296 2
      vertex 31.7483 20.296 4
      vertex 31.7483 20.296 2
    endloop
  endfacet
  facet normal 0 1 0
    outer loop
      vertex 29.3953 20.296 2
      vertex 29.3953 20.296 4
      vertex 31.7483 20.296 4
    endloop
  endfacet
  facet normal -0.926297 0.376793 0
    outer loop
      vertex 23.1733 5 2
      vertex 29.3953 20.296 4
      vertex 29.3953 20.296 2
    endloop
  endfacet
  facet normal -0.926297 0.376793 0
    outer loop
      vertex 23.1733 5 2
      vertex 23.1733 5 4
      vertex 29.3953 20.296 4
    endloop
  endfacet
  facet normal 0 -1 0
    outer loop
      vertex 25.3203 5 2
      vertex 23.1733 5 4
      vertex 23.1733 5 2
    endloop
  endfacet
  facet normal 0 -1 0
    outer loop
      vertex 25.3203 5 2
      vertex 25.3203 5 4
      vertex 23.1733 5 4
    endloop
  endfacet
  facet normal 0.930873 -0.365343 0
    outer loop
      vertex 27.0723 9.46399 2
      vertex 25.3203 5 4
      vertex 25.3203 5 2
    endloop
  endfacet
  facet normal 0.930873 -0.365343 0
    outer loop
      vertex 27.0723 9.46399 2
      vertex 27.0723 9.46399 4
      vertex 25.3203 5 4
    endloop
  endfacet
  facet normal 0.932671 -0.360729 0
    outer loop
      vertex 29.6463 16.114 2
      vertex 29.6463 16.114 4
      vertex 27.6993 11.08 2
    endloop
  endfacet
  facet normal 0.932671 -0.360729 0
    outer loop
      vertex 27.6993 11.08 4
      vertex 27.6993 11.08 2
      vertex 29.6463 16.114 4
    endloop
  endfacet
  facet normal 0.938899 -0.344192 0
    outer loop
      vertex 29.9708 16.9993 2
      vertex 29.9708 16.9993 4
      vertex 29.6463 16.114 2
    endloop
  endfacet
  facet normal 0.938899 -0.344192 0
    outer loop
      vertex 29.6463 16.114 4
      vertex 29.6463 16.114 2
      vertex 29.9708 16.9993 4
    endloop
  endfacet
  facet normal 0.945074 -0.326855 0
    outer loop
      vertex 30.2378 17.7713 2
      vertex 30.2378 17.7713 4
      vertex 29.9708 16.9993 2
    endloop
  endfacet
  facet normal 0.945074 -0.326855 0
    outer loop
      vertex 29.9708 16.9993 4
      vertex 29.9708 16.9993 2
      vertex 30.2378 17.7713 4
    endloop
  endfacet
  facet normal 0.952886 -0.30333 0
    outer loop
      vertex 30.5443 18.734 2
      vertex 30.5443 18.734 4
      vertex 30.2378 17.7713 2
    endloop
  endfacet
  facet normal 0.952886 -0.30333 0
    outer loop
      vertex 30.2378 17.7713 4
      vertex 30.2378 17.7713 2
      vertex 30.5443 18.734 4
    endloop
  endfacet
  facet normal -0.951388 -0.307993 0
    outer loop
      vertex 30.8363 17.832 2
      vertex 30.8363 17.832 4
      vertex 30.5443 18.734 2
    endloop
  endfacet
  facet normal -0.951388 -0.307993 -0
    outer loop
      vertex 30.5443 18.734 4
      vertex 30.5443 18.734 2
      vertex 30.8363 17.832 4
    endloop
  endfacet
  facet normal -0.949134 -0.314872 0
    outer loop
      vertex 31.0383 17.2231 2
      vertex 31.0383 17.2231 4
      vertex 30.8363 17.832 2
    endloop
  endfacet
  facet normal -0.949134 -0.314872 -0
    outer loop
      vertex 30.8363 17.832 4
      vertex 30.8363 17.832 2
      vertex 31.0383 17.2231 4
    endloop
  endfacet
  facet normal -0.941692 -0.336476 0
    outer loop
      vertex 31.2403 16.6578 2
      vertex 31.2403 16.6578 4
      vertex 31.0383 17.2231 2
    endloop
  endfacet
  facet normal -0.941692 -0.336476 -0
    outer loop
      vertex 31.0383 17.2231 4
      vertex 31.0383 17.2231 2
      vertex 31.2403 16.6578 4
    endloop
  endfacet
  facet normal -0.932576 -0.360973 0
    outer loop
      vertex 33.3993 11.08 2
      vertex 33.3993 11.08 4
      vertex 31.2403 16.6578 2
    endloop
  endfacet
  facet normal -0.932576 -0.360973 -0
    outer loop
      vertex 31.2403 16.6578 4
      vertex 31.2403 16.6578 2
      vertex 33.3993 11.08 4
    endloop
  endfacet
  facet normal 0 1 0
    outer loop
      vertex 27.6993 11.08 2
      vertex 27.6993 11.08 4
      vertex 33.3993 11.08 2
    endloop
  endfacet
  facet normal 0 1 0
    outer loop
      vertex 33.3993 11.08 4
      vertex 33.3993 11.08 2
      vertex 27.6993 11.08 4
    endloop
  endfacet
endsolid OpenSCAD_Model
