solid OpenSCAD_Model
  facet normal 0 0 -1
    outer loop
      vertex 21.058 18.604 2
      vertex 15.809 18.604 2
      vertex 21.058 20.296 2
    endloop
  endfacet
  facet normal -0 0 -1
    outer loop
      vertex 21.058 20.296 2
      vertex 15.809 18.604 2
      vertex 8.49899 20.296 2
    endloop
  endfacet
  facet normal 0 0 -1
    outer loop
      vertex 8.49899 20.296 2
      vertex 15.809 18.604 2
      vertex 13.748 18.604 2
    endloop
  endfacet
  facet normal -0 -0 -1
    outer loop
      vertex 15.809 18.604 2
      vertex 15.809 5 2
      vertex 13.748 18.604 2
    endloop
  endfacet
  facet normal 0 0 -1
    outer loop
      vertex 13.748 18.604 2
      vertex 15.809 5 2
      vertex 13.748 5 2
    endloop
  endfacet
  facet normal 0 0 -1
    outer loop
      vertex 8.49899 20.296 2
      vertex 13.748 18.604 2
      vertex 8.49899 18.604 2
    endloop
  endfacet
  facet normal -0 -0 -1
    outer loop
      vertex 39.0545 6.69199 2
      vertex 39.0545 5 2
      vertex 29.1115 6.69199 2
    endloop
  endfacet
  facet normal 0 -0 -1
    outer loop
      vertex 29.1115 6.69199 2
      vertex 39.0545 5 2
      vertex 27.0405 5 2
    endloop
  endfacet
  facet normal -0 -0 -1
    outer loop
      vertex 37.9604 13.704 2
      vertex 37.9604 12.034 2
      vertex 29.1115 13.704 2
    endloop
  endfacet
  facet normal -0 -0 -1
    outer loop
      vertex 29.1115 18.604 2
      vertex 29.1115 13.704 2
      vertex 27.0405 20.296 2
    endloop
  endfacet
  facet normal 0 0 -1
    outer loop
      vertex 29.1115 13.704 2
      vertex 37.9604 12.034 2
      vertex 29.1115 12.034 2
    endloop
  endfacet
  facet normal 0 -0 -1
    outer loop
      vertex 38.6105 20.296 2
      vertex 38.6105 18.604 2
      vertex 29.1115 18.604 2
    endloop
  endfacet
  facet normal 0 0 -1
    outer loop
      vertex 27.0405 20.296 2
      vertex 38.6105 20.296 2
      vertex 29.1115 18.604 2
    endloop
  endfacet
  facet normal -0 0 -1
    outer loop
      vertex 29.1115 6.69199 2
      vertex 27.0405 5 2
      vertex 29.1115 12.034 2
    endloop
  endfacet
  facet normal -0 -0 -1
    outer loop
      vertex 29.1115 13.704 2
      vertex 29.1115 12.034 2
      vertex 27.0405 20.296 2
    endloop
  endfacet
  facet normal -0 0 -1
    outer loop
      vertex 29.1115 12.034 2
      vertex 27.0405 5 2
      vertex 27.0405 20.296 2
    endloop
  endfacet
  facet normal 0 0 1
    outer loop
      vertex 21.058 20.296 4
      vertex 15.809 18.604 4
      vertex 21.058 18.604 4
    endloop
  endfacet
  facet normal -0 0 1
    outer loop
      vertex 8.49899 20.296 4
      vertex 15.809 18.604 4
      vertex 21.058 20.296 4
    endloop
  endfacet
  facet normal 0 -0 1
    outer loop
      vertex 13.748 18.604 4
      vertex 15.809 18.604 4
      vertex 8.49899 20.296 4
    endloop
  endfacet
  facet normal -0 0 1
    outer loop
      vertex 13.748 18.604 4
      vertex 15.809 5 4
      vertex 15.809 18.604 4
    endloop
  endfacet
  facet normal 0 0 1
    outer loop
      vertex 13.748 5 4
      vertex 15.809 5 4
      vertex 13.748 18.604 4
    endloop
  endfacet
  facet normal 0 0 1
    outer loop
      vertex 8.49899 18.604 4
      vertex 13.748 18.604 4
      vertex 8.49899 20.296 4
    endloop
  endfacet
  facet normal -0 0 1
    outer loop
      vertex 29.1115 6.69199 4
      vertex 39.0545 5 4
      vertex 39.0545 6.69199 4
    endloop
  endfacet
  facet normal 0 0 1
    outer loop
      vertex 27.0405 5 4
      vertex 39.0545 5 4
      vertex 29.1115 6.69199 4
    endloop
  endfacet
  facet normal -0 0 1
    outer loop
      vertex 29.1115 13.704 4
      vertex 37.9604 12.034 4
      vertex 37.9604 13.704 4
    endloop
  endfacet
  facet normal 0 0 1
    outer loop
      vertex 27.0405 20.296 4
      vertex 29.1115 13.704 4
      vertex 29.1115 18.604 4
    endloop
  endfacet
  facet normal 0 0 1
    outer loop
      vertex 29.1115 12.034 4
      vertex 37.9604 12.034 4
      vertex 29.1115 13.704 4
    endloop
  endfacet
  facet normal 0 0 1
    outer loop
      vertex 29.1115 18.604 4
      vertex 38.6105 18.604 4
      vertex 38.6105 20.296 4
    endloop
  endfacet
  facet normal 0 -0 1
    outer loop
      vertex 29.1115 18.604 4
      vertex 38.6105 20.296 4
      vertex 27.0405 20.296 4
    endloop
  endfacet
  facet normal 0 0 1
    outer loop
      vertex 29.1115 12.034 4
      vertex 27.0405 5 4
      vertex 29.1115 6.69199 4
    endloop
  endfacet
  facet normal 0 0 1
    outer loop
      vertex 27.0405 20.296 4
      vertex 29.1115 12.034 4
      vertex 29.1115 13.704 4
    endloop
  endfacet
  facet normal 0 0 1
    outer loop
      vertex 27.0405 20.296 4
      vertex 27.0405 5 4
      vertex 29.1115 12.034 4
    endloop
  endfacet
  facet normal 0 -1 0
    outer loop
      vertex 21.058 18.604 2
      vertex 15.809 18.604 4
      vertex 15.809 18.604 2
    endloop
  endfacet
  facet normal 0 -1 0
    outer loop
      vertex 21.058 18.604 2
      vertex 21.058 18.604 4
      vertex 15.809 18.604 4
    endloop
  endfacet
  facet normal 1 0 0
    outer loop
      vertex 21.058 20.296 2
      vertex 21.058 18.604 4
      vertex 21.058 18.604 2
    endloop
  endfacet
  facet normal 1 0 -0
    outer loop
      vertex 21.058 20.296 2
      vertex 21.058 20.296 4
      vertex 21.058 18.604 4
    endloop
  endfacet
  facet normal 0 1 0
    outer loop
      vertex 8.49899 20.296 2
      vertex 21.058 20.296 4
      vertex 21.058 20.296 2
    endloop
  endfacet
  facet normal 0 1 0
    outer loop
      vertex 8.49899 20.296 2
      vertex 8.49899 20.296 4
      vertex 21.058 20.296 4
    endloop
  endfacet
  facet normal -1 0 0
    outer loop
      vertex 8.49899 18.604 2
      vertex 8.49899 20.296 4
      vertex 8.49899 20.296 2
    endloop
  endfacet
  facet normal -1 0 0
    outer loop
      vertex 8.49899 18.604 2
      vertex 8.49899 18.604 4
      vertex 8.49899 20.296 4
    endloop
  endfacet
  facet normal 0 -1 0
    outer loop
      vertex 13.748 18.604 2
      vertex 8.49899 18.604 4
      vertex 8.49899 18.604 2
    endloop
  endfacet
  facet normal 0 -1 0
    outer loop
      vertex 13.748 18.604 2
      vertex 13.748 18.604 4
      vertex 8.49899 18.604 4
    endloop
  endfacet
  facet normal -1 0 0
    outer loop
      vertex 13.748 5 2
      vertex 13.748 18.604 4
      vertex 13.748 18.604 2
    endloop
  endfacet
  facet normal -1 0 0
    outer loop
      vertex 13.748 5 2
      vertex 13.748 5 4
      vertex 13.748 18.604 4
    endloop
  endfacet
  facet normal 0 -1 0
    outer loop
      vertex 15.809 5 2
      vertex 13.748 5 4
      vertex 13.748 5 2
    endloop
  endfacet
  facet normal 0 -1 0
    outer loop
      vertex 15.809 5 2
      vertex 15.809 5 4
      vertex 13.748 5 4
    endloop
  endfacet
  facet normal 1 0 0
    outer loop
      vertex 15.809 18.604 2
      vertex 15.809 5 4
      vertex 15.809 5 2
    endloop
  endfacet
  facet normal 1 0 -0
    outer loop
      vertex 15.809 18.604 2
      vertex 15.809 18.604 4
      vertex 15.809 5 4
    endloop
  endfacet
  facet normal 0 1 0
    outer loop
      vertex 29.1115 6.69199 2
      vertex 39.0545 6.69199 4
      vertex 39.0545 6.69199 2
    endloop
  endfacet
  facet normal 0 1 0
    outer loop
      vertex 29.1115 6.69199 2
      vertex 29.1115 6.69199 4
      vertex 39.0545 6.69199 4
    endloop
  endfacet
  facet normal 1 0 0
    outer loop
      vertex 29.1115 12.034 2
      vertex 29.1115 6.69199 4
      vertex 29.1115 6.69199 2
    endloop
  endfacet
  facet normal 1 0 -0
    outer loop
      vertex 29.1115 12.034 2
      vertex 29.1115 12.034 4
      vertex 29.1115 6.69199 4
    endloop
  endfacet
  facet normal 0 -1 0
    outer loop
      vertex 37.9604 12.034 2
      vertex 29.1115 12.034 4
      vertex 29.1115 12.034 2
    endloop
  endfacet
  facet normal 0 -1 0
    outer loop
      vertex 37.9604 12.034 2
      vertex 37.9604 12.034 4
      vertex 29.1115 12.034 4
    endloop
  endfacet
  facet normal 1 0 0
    outer loop
      vertex 37.9604 13.704 2
      vertex 37.9604 12.034 4
      vertex 37.9604 12.034 2
    endloop
  endfacet
  facet normal 1 0 -0
    outer loop
      vertex 37.9604 13.704 2
      vertex 37.9604 13.704 4
      vertex 37.9604 12.034 4
    endloop
  endfacet
  facet normal 0 1 0
    outer loop
      vertex 29.1115 13.704 2
      vertex 37.9604 13.704 4
      vertex 37.9604 13.704 2
    endloop
  endfacet
  facet normal 0 1 0
    outer loop
      vertex 29.1115 13.704 2
      vertex 29.1115 13.704 4
      vertex 37.9604 13.704 4
    endloop
  endfacet
  facet normal 1 0 0
    outer loop
      vertex 29.1115 18.604 2
      vertex 29.1115 13.704 4
      vertex 29.1115 13.704 2
    endloop
  endfacet
  facet normal 1 0 -0
    outer loop
      vertex 29.1115 18.604 2
      vertex 29.1115 18.604 4
      vertex 29.1115 13.704 4
    endloop
  endfacet
  facet normal 0 -1 0
    outer loop
      vertex 38.6105 18.604 2
      vertex 29.1115 18.604 4
      vertex 29.1115 18.604 2
    endloop
  endfacet
  facet normal 0 -1 0
    outer loop
      vertex 38.6105 18.604 2
      vertex 38.6105 18.604 4
      vertex 29.1115 18.604 4
    endloop
  endfacet
  facet normal 1 0 0
    outer loop
      vertex 38.6105 20.296 2
      vertex 38.6105 18.604 4
      vertex 38.6105 18.604 2
    endloop
  endfacet
  facet normal 1 0 -0
    outer loop
      vertex 38.6105 20.296 2
      vertex 38.6105 20.296 4
      vertex 38.6105 18.604 4
    endloop
  endfacet
  facet normal 0 1 0
    outer loop
      vertex 27.0405 20.296 2
      vertex 38.6105 20.296 4
      vertex 38.6105 20.296 2
    endloop
  endfacet
  facet normal 0 1 0
    outer loop
      vertex 27.0405 20.296 2
      vertex 27.0405 20.296 4
      vertex 38.6105 20.296 4
    endloop
  endfacet
  facet normal -1 0 0
    outer loop
      vertex 27.0405 5 2
      vertex 27.0405 20.296 4
      vertex 27.0405 20.296 2
    endloop
  endfacet
  facet normal -1 0 0
    outer loop
      vertex 27.0405 5 2
      vertex 27.0405 5 4
      vertex 27.0405 20.296 4
    endloop
  endfacet
  facet normal 0 -1 0
    outer loop
      vertex 39.0545 5 2
      vertex 27.0405 5 4
      vertex 27.0405 5 2
    endloop
  endfacet
  facet normal 0 -1 0
    outer loop
      vertex 39.0545 5 2
      vertex 39.0545 5 4
      vertex 27.0405 5 4
    endloop
  endfacet
  facet normal 1 0 0
    outer loop
      vertex 39.0545 6.69199 2
      vertex 39.0545 5 4
      vertex 39.0545 5 2
    endloop
  endfacet
  facet normal 1 0 -0
    outer loop
      vertex 39.0545 6.69199 2
      vertex 39.0545 6.69199 4
      vertex 39.0545 5 4
    endloop
  endfacet
endsolid OpenSCAD_Model
