solid OpenSCAD_Model
  facet normal 0 0 -1
    outer loop
      vertex 21.058 18.604 2
      vertex 15.809 18.604 2
      vertex 21.058 20.296 2
    endloop
  endfacet
  facet normal -0 0 -1
    outer loop
      vertex 21.058 20.296 2
      vertex 15.809 18.604 2
      vertex 8.49899 20.296 2
    endloop
  endfacet
  facet normal 0 0 -1
    outer loop
      vertex 8.49899 20.296 2
      vertex 15.809 18.604 2
      vertex 13.748 18.604 2
    endloop
  endfacet
  facet normal 0 0 -1
    outer loop
      vertex 25.7215 20.296 2
      vertex 33.0314 18.604 2
      vertex 30.9705 18.604 2
    endloop
  endfacet
  facet normal -0 -0 -1
    outer loop
      vertex 15.809 18.604 2
      vertex 15.809 5 2
      vertex 13.748 18.604 2
    endloop
  endfacet
  facet normal 0 0 -1
    outer loop
      vertex 13.748 18.604 2
      vertex 15.809 5 2
      vertex 13.748 5 2
    endloop
  endfacet
  facet normal 0 0 -1
    outer loop
      vertex 8.49899 20.296 2
      vertex 13.748 18.604 2
      vertex 8.49899 18.604 2
    endloop
  endfacet
  facet normal 0 0 -1
    outer loop
      vertex 30.9705 18.604 2
      vertex 33.0314 5 2
      vertex 30.9705 5 2
    endloop
  endfacet
  facet normal -0 -0 -1
    outer loop
      vertex 33.0314 18.604 2
      vertex 33.0314 5 2
      vertex 30.9705 18.604 2
    endloop
  endfacet
  facet normal 0 -0 -1
    outer loop
      vertex 38.2805 20.296 2
      vertex 38.2805 18.604 2
      vertex 33.0314 18.604 2
    endloop
  endfacet
  facet normal 0 0 -1
    outer loop
      vertex 25.7215 20.296 2
      vertex 38.2805 20.296 2
      vertex 33.0314 18.604 2
    endloop
  endfacet
  facet normal 0 0 -1
    outer loop
      vertex 25.7215 20.296 2
      vertex 30.9705 18.604 2
      vertex 25.7215 18.604 2
    endloop
  endfacet
  facet normal 0 0 1
    outer loop
      vertex 21.058 20.296 4
      vertex 15.809 18.604 4
      vertex 21.058 18.604 4
    endloop
  endfacet
  facet normal -0 0 1
    outer loop
      vertex 8.49899 20.296 4
      vertex 15.809 18.604 4
      vertex 21.058 20.296 4
    endloop
  endfacet
  facet normal 0 -0 1
    outer loop
      vertex 13.748 18.604 4
      vertex 15.809 18.604 4
      vertex 8.49899 20.296 4
    endloop
  endfacet
  facet normal 0 -0 1
    outer loop
      vertex 30.9705 18.604 4
      vertex 33.0314 18.604 4
      vertex 25.7215 20.296 4
    endloop
  endfacet
  facet normal -0 0 1
    outer loop
      vertex 13.748 18.604 4
      vertex 15.809 5 4
      vertex 15.809 18.604 4
    endloop
  endfacet
  facet normal 0 0 1
    outer loop
      vertex 13.748 5 4
      vertex 15.809 5 4
      vertex 13.748 18.604 4
    endloop
  endfacet
  facet normal 0 0 1
    outer loop
      vertex 8.49899 18.604 4
      vertex 13.748 18.604 4
      vertex 8.49899 20.296 4
    endloop
  endfacet
  facet normal 0 0 1
    outer loop
      vertex 30.9705 5 4
      vertex 33.0314 5 4
      vertex 30.9705 18.604 4
    endloop
  endfacet
  facet normal -0 0 1
    outer loop
      vertex 30.9705 18.604 4
      vertex 33.0314 5 4
      vertex 33.0314 18.604 4
    endloop
  endfacet
  facet normal 0 0 1
    outer loop
      vertex 33.0314 18.604 4
      vertex 38.2805 18.604 4
      vertex 38.2805 20.296 4
    endloop
  endfacet
  facet normal 0 -0 1
    outer loop
      vertex 33.0314 18.604 4
      vertex 38.2805 20.296 4
      vertex 25.7215 20.296 4
    endloop
  endfacet
  facet normal 0 0 1
    outer loop
      vertex 25.7215 18.604 4
      vertex 30.9705 18.604 4
      vertex 25.7215 20.296 4
    endloop
  endfacet
  facet normal 0 -1 0
    outer loop
      vertex 21.058 18.604 2
      vertex 15.809 18.604 4
      vertex 15.809 18.604 2
    endloop
  endfacet
  facet normal 0 -1 0
    outer loop
      vertex 21.058 18.604 2
      vertex 21.058 18.604 4
      vertex 15.809 18.604 4
    endloop
  endfacet
  facet normal 1 0 0
    outer loop
      vertex 21.058 20.296 2
      vertex 21.058 18.604 4
      vertex 21.058 18.604 2
    endloop
  endfacet
  facet normal 1 0 -0
    outer loop
      vertex 21.058 20.296 2
      vertex 21.058 20.296 4
      vertex 21.058 18.604 4
    endloop
  endfacet
  facet normal 0 1 0
    outer loop
      vertex 8.49899 20.296 2
      vertex 21.058 20.296 4
      vertex 21.058 20.296 2
    endloop
  endfacet
  facet normal 0 1 0
    outer loop
      vertex 8.49899 20.296 2
      vertex 8.49899 20.296 4
      vertex 21.058 20.296 4
    endloop
  endfacet
  facet normal -1 0 0
    outer loop
      vertex 8.49899 18.604 2
      vertex 8.49899 20.296 4
      vertex 8.49899 20.296 2
    endloop
  endfacet
  facet normal -1 0 0
    outer loop
      vertex 8.49899 18.604 2
      vertex 8.49899 18.604 4
      vertex 8.49899 20.296 4
    endloop
  endfacet
  facet normal 0 -1 0
    outer loop
      vertex 13.748 18.604 2
      vertex 8.49899 18.604 4
      vertex 8.49899 18.604 2
    endloop
  endfacet
  facet normal 0 -1 0
    outer loop
      vertex 13.748 18.604 2
      vertex 13.748 18.604 4
      vertex 8.49899 18.604 4
    endloop
  endfacet
  facet normal -1 0 0
    outer loop
      vertex 13.748 5 2
      vertex 13.748 18.604 4
      vertex 13.748 18.604 2
    endloop
  endfacet
  facet normal -1 0 0
    outer loop
      vertex 13.748 5 2
      vertex 13.748 5 4
      vertex 13.748 18.604 4
    endloop
  endfacet
  facet normal 0 -1 0
    outer loop
      vertex 15.809 5 2
      vertex 13.748 5 4
      vertex 13.748 5 2
    endloop
  endfacet
  facet normal 0 -1 0
    outer loop
      vertex 15.809 5 2
      vertex 15.809 5 4
      vertex 13.748 5 4
    endloop
  endfacet
  facet normal 1 0 0
    outer loop
      vertex 15.809 18.604 2
      vertex 15.809 5 4
      vertex 15.809 5 2
    endloop
  endfacet
  facet normal 1 0 -0
    outer loop
      vertex 15.809 18.604 2
      vertex 15.809 18.604 4
      vertex 15.809 5 4
    endloop
  endfacet
  facet normal 0 -1 0
    outer loop
      vertex 38.2805 18.604 2
      vertex 33.0314 18.604 4
      vertex 33.0314 18.604 2
    endloop
  endfacet
  facet normal 0 -1 0
    outer loop
      vertex 38.2805 18.604 2
      vertex 38.2805 18.604 4
      vertex 33.0314 18.604 4
    endloop
  endfacet
  facet normal 1 0 0
    outer loop
      vertex 38.2805 20.296 2
      vertex 38.2805 18.604 4
      vertex 38.2805 18.604 2
    endloop
  endfacet
  facet normal 1 0 -0
    outer loop
      vertex 38.2805 20.296 2
      vertex 38.2805 20.296 4
      vertex 38.2805 18.604 4
    endloop
  endfacet
  facet normal 0 1 0
    outer loop
      vertex 25.7215 20.296 2
      vertex 38.2805 20.296 4
      vertex 38.2805 20.296 2
    endloop
  endfacet
  facet normal 0 1 0
    outer loop
      vertex 25.7215 20.296 2
      vertex 25.7215 20.296 4
      vertex 38.2805 20.296 4
    endloop
  endfacet
  facet normal -1 0 0
    outer loop
      vertex 25.7215 18.604 2
      vertex 25.7215 20.296 4
      vertex 25.7215 20.296 2
    endloop
  endfacet
  facet normal -1 0 0
    outer loop
      vertex 25.7215 18.604 2
      vertex 25.7215 18.604 4
      vertex 25.7215 20.296 4
    endloop
  endfacet
  facet normal 0 -1 0
    outer loop
      vertex 30.9705 18.604 2
      vertex 25.7215 18.604 4
      vertex 25.7215 18.604 2
    endloop
  endfacet
  facet normal 0 -1 0
    outer loop
      vertex 30.9705 18.604 2
      vertex 30.9705 18.604 4
      vertex 25.7215 18.604 4
    endloop
  endfacet
  facet normal -1 0 0
    outer loop
      vertex 30.9705 5 2
      vertex 30.9705 18.604 4
      vertex 30.9705 18.604 2
    endloop
  endfacet
  facet normal -1 0 0
    outer loop
      vertex 30.9705 5 2
      vertex 30.9705 5 4
      vertex 30.9705 18.604 4
    endloop
  endfacet
  facet normal 0 -1 0
    outer loop
      vertex 33.0314 5 2
      vertex 30.9705 5 4
      vertex 30.9705 5 2
    endloop
  endfacet
  facet normal 0 -1 0
    outer loop
      vertex 33.0314 5 2
      vertex 33.0314 5 4
      vertex 30.9705 5 4
    endloop
  endfacet
  facet normal 1 0 0
    outer loop
      vertex 33.0314 18.604 2
      vertex 33.0314 5 4
      vertex 33.0314 5 2
    endloop
  endfacet
  facet normal 1 0 -0
    outer loop
      vertex 33.0314 18.604 2
      vertex 33.0314 18.604 4
      vertex 33.0314 5 4
    endloop
  endfacet
endsolid OpenSCAD_Model
