solid OpenSCAD_Model
  facet normal 0 0 -1
    outer loop
      vertex 37.5047 12.68 2
      vertex 43.9807 12.68 2
      vertex 42.0727 10.945 2
    endloop
  endfacet
  facet normal 0 0 -1
    outer loop
      vertex 42.0727 10.945 2
      vertex 43.9807 7.403 2
      vertex 42.0727 8.18399 2
    endloop
  endfacet
  facet normal 0 0 -1
    outer loop
      vertex 37.5047 12.68 2
      vertex 42.0727 10.945 2
      vertex 37.5047 10.945 2
    endloop
  endfacet
  facet normal 0 0 -1
    outer loop
      vertex 42.0727 8.18399 2
      vertex 43.9807 7.403 2
      vertex 43.1098 6.63977 2
    endloop
  endfacet
  facet normal 0 0 -1
    outer loop
      vertex 42.1172 6.00076 2
      vertex 41.4825 7.69878 2
      vertex 43.1098 6.63977 2
    endloop
  endfacet
  facet normal 0 0 -1
    outer loop
      vertex 42.1172 6.00076 2
      vertex 40.7825 7.28577 2
      vertex 41.4825 7.69878 2
    endloop
  endfacet
  facet normal 0 0 -1
    outer loop
      vertex 38.5205 4.88335 2
      vertex 39.0864 6.69167 2
      vertex 39.7948 5.10933 2
    endloop
  endfacet
  facet normal 0 0 -1
    outer loop
      vertex 38.1554 6.53966 2
      vertex 37.1797 4.80801 2
      vertex 37.1797 6.489 2
    endloop
  endfacet
  facet normal 0 -0 -1
    outer loop
      vertex 40.7825 7.28577 2
      vertex 41.0027 5.48599 2
      vertex 39.9727 6.94499 2
    endloop
  endfacet
  facet normal 0 0 -1
    outer loop
      vertex 42.0727 10.945 2
      vertex 43.9807 12.68 2
      vertex 43.9807 7.403 2
    endloop
  endfacet
  facet normal 0 0 -1
    outer loop
      vertex 41.4825 7.69878 2
      vertex 42.0727 8.18399 2
      vertex 43.1098 6.63977 2
    endloop
  endfacet
  facet normal -0 0 -1
    outer loop
      vertex 42.1172 6.00076 2
      vertex 41.0027 5.48599 2
      vertex 40.7825 7.28577 2
    endloop
  endfacet
  facet normal -0 0 -1
    outer loop
      vertex 41.0027 5.48599 2
      vertex 39.7948 5.10933 2
      vertex 39.9727 6.94499 2
    endloop
  endfacet
  facet normal 0 0 -1
    outer loop
      vertex 39.9727 6.94499 2
      vertex 39.7948 5.10933 2
      vertex 39.0864 6.69167 2
    endloop
  endfacet
  facet normal 0 0 -1
    outer loop
      vertex 39.0864 6.69167 2
      vertex 38.5205 4.88335 2
      vertex 38.1554 6.53966 2
    endloop
  endfacet
  facet normal 0 -0 -1
    outer loop
      vertex 38.1554 6.53966 2
      vertex 38.5205 4.88335 2
      vertex 37.1797 4.80801 2
    endloop
  endfacet
  facet normal -0 0 -1
    outer loop
      vertex 37.1797 6.489 2
      vertex 35.6546 4.91368 2
      vertex 35.5562 6.67444 2
    endloop
  endfacet
  facet normal 0 0 -1
    outer loop
      vertex 33.0457 5.75899 2
      vertex 31.9799 6.48677 2
      vertex 34.1855 7.23077 2
    endloop
  endfacet
  facet normal 0 0 -1
    outer loop
      vertex 31.096 7.40077 2
      vertex 32.2422 9.40633 2
      vertex 33.0677 8.15799 2
    endloop
  endfacet
  facet normal 0 0 -1
    outer loop
      vertex 31.096 7.40077 2
      vertex 30.3937 8.50099 2
      vertex 32.2422 9.40633 2
    endloop
  endfacet
  facet normal 0 0 -1
    outer loop
      vertex 29.8848 9.76454 2
      vertex 29.5795 11.1685 2
      vertex 31.7468 10.9247 2
    endloop
  endfacet
  facet normal 0 0 -1
    outer loop
      vertex 29.5795 11.1685 2
      vertex 29.4777 12.713 2
      vertex 31.5817 12.713 2
    endloop
  endfacet
  facet normal 0 0 -1
    outer loop
      vertex 29.4777 12.713 2
      vertex 29.6995 14.9994 2
      vertex 31.7372 14.4989 2
    endloop
  endfacet
  facet normal 0 0 -1
    outer loop
      vertex 29.6995 14.9994 2
      vertex 30.3649 16.9134 2
      vertex 32.2035 15.9952 2
    endloop
  endfacet
  facet normal 0 0 -1
    outer loop
      vertex 32.2035 15.9952 2
      vertex 31.4737 18.455 2
      vertex 32.9807 17.202 2
    endloop
  endfacet
  facet normal 0 0 -1
    outer loop
      vertex 32.9807 17.202 2
      vertex 32.984 19.5844 2
      vertex 34.0526 18.0876 2
    endloop
  endfacet
  facet normal 0 0 -1
    outer loop
      vertex 34.0526 18.0876 2
      vertex 32.984 19.5844 2
      vertex 34.8533 20.2621 2
    endloop
  endfacet
  facet normal 0 0 -1
    outer loop
      vertex 35.4016 18.6189 2
      vertex 37.0817 20.488 2
      vertex 37.0277 18.796 2
    endloop
  endfacet
  facet normal 0 -0 -1
    outer loop
      vertex 38.6682 20.3933 2
      vertex 39.05 18.5338 2
      vertex 38.101 18.7304 2
    endloop
  endfacet
  facet normal 0 0 -1
    outer loop
      vertex 40.0422 20.1093 2
      vertex 39.8747 18.206 2
      vertex 39.05 18.5338 2
    endloop
  endfacet
  facet normal 0 0 -1
    outer loop
      vertex 41.2037 19.636 2
      vertex 40.5832 17.7351 2
      vertex 39.8747 18.206 2
    endloop
  endfacet
  facet normal 0 0 -1
    outer loop
      vertex 42.179 18.9549 2
      vertex 41.1818 17.1091 2
      vertex 40.5832 17.7351 2
    endloop
  endfacet
  facet normal 0 -0 -1
    outer loop
      vertex 42.179 18.9549 2
      vertex 42.9926 18.0462 2
      vertex 41.1818 17.1091 2
    endloop
  endfacet
  facet normal 0 0 -1
    outer loop
      vertex 41.6707 16.328 2
      vertex 42.9926 18.0462 2
      vertex 43.6447 16.91 2
    endloop
  endfacet
  facet normal 0 0 -1
    outer loop
      vertex 41.1818 17.1091 2
      vertex 42.9926 18.0462 2
      vertex 41.6707 16.328 2
    endloop
  endfacet
  facet normal 0 -0 -1
    outer loop
      vertex 41.2037 19.636 2
      vertex 42.179 18.9549 2
      vertex 40.5832 17.7351 2
    endloop
  endfacet
  facet normal 0 -0 -1
    outer loop
      vertex 40.0422 20.1093 2
      vertex 41.2037 19.636 2
      vertex 39.8747 18.206 2
    endloop
  endfacet
  facet normal 0 0 -1
    outer loop
      vertex 38.6682 20.3933 2
      vertex 40.0422 20.1093 2
      vertex 39.05 18.5338 2
    endloop
  endfacet
  facet normal 0 0 -1
    outer loop
      vertex 37.0817 20.488 2
      vertex 38.6682 20.3933 2
      vertex 38.101 18.7304 2
    endloop
  endfacet
  facet normal 0 0 -1
    outer loop
      vertex 37.0277 18.796 2
      vertex 37.0817 20.488 2
      vertex 38.101 18.7304 2
    endloop
  endfacet
  facet normal 0 0 -1
    outer loop
      vertex 35.4016 18.6189 2
      vertex 34.8533 20.2621 2
      vertex 37.0817 20.488 2
    endloop
  endfacet
  facet normal -0 0 -1
    outer loop
      vertex 35.4016 18.6189 2
      vertex 34.0526 18.0876 2
      vertex 34.8533 20.2621 2
    endloop
  endfacet
  facet normal 0 0 -1
    outer loop
      vertex 32.9807 17.202 2
      vertex 31.4737 18.455 2
      vertex 32.984 19.5844 2
    endloop
  endfacet
  facet normal 0 0 -1
    outer loop
      vertex 32.2035 15.9952 2
      vertex 30.3649 16.9134 2
      vertex 31.4737 18.455 2
    endloop
  endfacet
  facet normal 0 0 -1
    outer loop
      vertex 31.7372 14.4989 2
      vertex 29.6995 14.9994 2
      vertex 32.2035 15.9952 2
    endloop
  endfacet
  facet normal 0 -0 -1
    outer loop
      vertex 19.14 7.60999 2
      vertex 19.334 5.51799 2
      vertex 18.2738 6.98721 2
    endloop
  endfacet
  facet normal 0 0 -1
    outer loop
      vertex 31.5817 12.713 2
      vertex 29.4777 12.713 2
      vertex 31.7372 14.4989 2
    endloop
  endfacet
  facet normal 0 0 -1
    outer loop
      vertex 31.7468 10.9247 2
      vertex 29.5795 11.1685 2
      vertex 31.5817 12.713 2
    endloop
  endfacet
  facet normal 0 0 -1
    outer loop
      vertex 20.1595 9.56599 2
      vertex 22.2604 9.59021 2
      vertex 21.9978 8.52455 2
    endloop
  endfacet
  facet normal 0 0 -1
    outer loop
      vertex 32.2422 9.40633 2
      vertex 29.8848 9.76454 2
      vertex 31.7468 10.9247 2
    endloop
  endfacet
  facet normal -0 0 -1
    outer loop
      vertex 21.9978 8.52455 2
      vertex 19.7772 8.47299 2
      vertex 20.1595 9.56599 2
    endloop
  endfacet
  facet normal -0 0 -1
    outer loop
      vertex 32.2422 9.40633 2
      vertex 30.3937 8.50099 2
      vertex 29.8848 9.76454 2
    endloop
  endfacet
  facet normal 0 0 -1
    outer loop
      vertex 21.56 7.57199 2
      vertex 19.7772 8.47299 2
      vertex 21.9978 8.52455 2
    endloop
  endfacet
  facet normal 0 0 -1
    outer loop
      vertex 31.9799 6.48677 2
      vertex 31.096 7.40077 2
      vertex 33.0677 8.15799 2
    endloop
  endfacet
  facet normal 0 0 -1
    outer loop
      vertex 20.1595 9.56599 2
      vertex 20.287 10.889 2
      vertex 22.2604 9.59021 2
    endloop
  endfacet
  facet normal -0 0 -1
    outer loop
      vertex 34.1855 7.23077 2
      vertex 31.9799 6.48677 2
      vertex 33.0677 8.15799 2
    endloop
  endfacet
  facet normal 0 0 -1
    outer loop
      vertex 34.2766 5.23065 2
      vertex 33.0457 5.75899 2
      vertex 34.1855 7.23077 2
    endloop
  endfacet
  facet normal -0 0 -1
    outer loop
      vertex 35.5562 6.67444 2
      vertex 34.2766 5.23065 2
      vertex 34.1855 7.23077 2
    endloop
  endfacet
  facet normal 0 -0 -1
    outer loop
      vertex 35.5562 6.67444 2
      vertex 35.6546 4.91368 2
      vertex 34.2766 5.23065 2
    endloop
  endfacet
  facet normal 0 -0 -1
    outer loop
      vertex 37.1797 6.489 2
      vertex 37.1797 4.80801 2
      vertex 35.6546 4.91368 2
    endloop
  endfacet
  facet normal 0 0 -1
    outer loop
      vertex 22.2604 9.59021 2
      vertex 20.287 10.889 2
      vertex 22.348 10.769 2
    endloop
  endfacet
  facet normal 0 0 -1
    outer loop
      vertex 19.334 5.51799 2
      vertex 19.14 7.60999 2
      vertex 20.2209 6.06177 2
    endloop
  endfacet
  facet normal 0 0 -1
    outer loop
      vertex 20.287 10.889 2
      vertex 20.287 20.296 2
      vertex 22.348 20.296 2
    endloop
  endfacet
  facet normal 0 0 -1
    outer loop
      vertex 17.2031 6.61354 2
      vertex 18.2738 6.98721 2
      vertex 18.3173 5.12355 2
    endloop
  endfacet
  facet normal -0 0 -1
    outer loop
      vertex 17.186 4.8869 2
      vertex 15.94 4.80801 2
      vertex 15.928 6.489 2
    endloop
  endfacet
  facet normal 0 0 -1
    outer loop
      vertex 22.348 10.769 2
      vertex 20.287 10.889 2
      vertex 22.348 20.296 2
    endloop
  endfacet
  facet normal 0 0 -1
    outer loop
      vertex 17.186 4.8869 2
      vertex 15.928 6.489 2
      vertex 17.2031 6.61354 2
    endloop
  endfacet
  facet normal 0 -0 -1
    outer loop
      vertex 19.7772 8.47299 2
      vertex 20.9629 6.74643 2
      vertex 19.14 7.60999 2
    endloop
  endfacet
  facet normal -0 0 -1
    outer loop
      vertex 21.56 7.57199 2
      vertex 20.9629 6.74643 2
      vertex 19.7772 8.47299 2
    endloop
  endfacet
  facet normal 0 0 -1
    outer loop
      vertex 19.14 7.60999 2
      vertex 20.9629 6.74643 2
      vertex 20.2209 6.06177 2
    endloop
  endfacet
  facet normal 0 0 -1
    outer loop
      vertex 18.2738 6.98721 2
      vertex 19.334 5.51799 2
      vertex 18.3173 5.12355 2
    endloop
  endfacet
  facet normal 0 -0 -1
    outer loop
      vertex 17.2031 6.61354 2
      vertex 18.3173 5.12355 2
      vertex 17.186 4.8869 2
    endloop
  endfacet
  facet normal -0 0 -1
    outer loop
      vertex 15.928 6.489 2
      vertex 14.7403 4.8839 2
      vertex 14.6924 6.60944 2
    endloop
  endfacet
  facet normal 0 0 -1
    outer loop
      vertex 12.659 5.491 2
      vertex 12.852 7.573 2
      vertex 13.6671 6.97076 2
    endloop
  endfacet
  facet normal 0 0 -1
    outer loop
      vertex 10.487 7.474 2
      vertex 12.2603 8.40755 2
      vertex 11.071 6.67589 2
    endloop
  endfacet
  facet normal 0 0 -1
    outer loop
      vertex 10.487 7.474 2
      vertex 10.0587 8.39665 2
      vertex 12.2603 8.40755 2
    endloop
  endfacet
  facet normal 0 0 -1
    outer loop
      vertex 10.0587 8.39665 2
      vertex 9.80167 9.42999 2
      vertex 11.9053 9.46588 2
    endloop
  endfacet
  facet normal -0 0 -1
    outer loop
      vertex 11.9053 9.46588 2
      vertex 9.80167 9.42999 2
      vertex 11.787 10.748 2
    endloop
  endfacet
  facet normal -0 0 -1
    outer loop
      vertex 11.787 10.748 2
      vertex 9.71599 10.574 2
      vertex 9.71599 20.296 2
    endloop
  endfacet
  facet normal -0 -0 -1
    outer loop
      vertex 11.787 20.296 2
      vertex 11.787 10.748 2
      vertex 9.71599 20.296 2
    endloop
  endfacet
  facet normal 0 0 -1
    outer loop
      vertex 11.787 10.748 2
      vertex 9.80167 9.42999 2
      vertex 9.71599 10.574 2
    endloop
  endfacet
  facet normal -0 0 -1
    outer loop
      vertex 12.2603 8.40755 2
      vertex 10.0587 8.39665 2
      vertex 11.9053 9.46588 2
    endloop
  endfacet
  facet normal 0 0 -1
    outer loop
      vertex 11.071 6.67589 2
      vertex 12.2603 8.40755 2
      vertex 12.852 7.573 2
    endloop
  endfacet
  facet normal 0 0 -1
    outer loop
      vertex 11.795 6.01488 2
      vertex 11.071 6.67589 2
      vertex 12.852 7.573 2
    endloop
  endfacet
  facet normal 0 0 -1
    outer loop
      vertex 12.659 5.491 2
      vertex 11.795 6.01488 2
      vertex 12.852 7.573 2
    endloop
  endfacet
  facet normal 0 0 -1
    outer loop
      vertex 13.6467 5.11154 2
      vertex 12.659 5.491 2
      vertex 13.6671 6.97076 2
    endloop
  endfacet
  facet normal -0 0 -1
    outer loop
      vertex 14.6924 6.60944 2
      vertex 13.6467 5.11154 2
      vertex 13.6671 6.97076 2
    endloop
  endfacet
  facet normal 0 -0 -1
    outer loop
      vertex 14.6924 6.60944 2
      vertex 14.7403 4.8839 2
      vertex 13.6467 5.11154 2
    endloop
  endfacet
  facet normal 0 -0 -1
    outer loop
      vertex 15.928 6.489 2
      vertex 15.94 4.80801 2
      vertex 14.7403 4.8839 2
    endloop
  endfacet
  facet normal 0 -0 1
    outer loop
      vertex 42.0727 10.945 4
      vertex 43.9807 12.68 4
      vertex 37.5047 12.68 4
    endloop
  endfacet
  facet normal -0 0 1
    outer loop
      vertex 42.0727 8.18399 4
      vertex 43.9807 7.403 4
      vertex 42.0727 10.945 4
    endloop
  endfacet
  facet normal 0 0 1
    outer loop
      vertex 37.5047 10.945 4
      vertex 42.0727 10.945 4
      vertex 37.5047 12.68 4
    endloop
  endfacet
  facet normal 0 -0 1
    outer loop
      vertex 43.1098 6.63977 4
      vertex 43.9807 7.403 4
      vertex 42.0727 8.18399 4
    endloop
  endfacet
  facet normal 0 0 1
    outer loop
      vertex 43.1098 6.63977 4
      vertex 41.4825 7.69878 4
      vertex 42.1172 6.00076 4
    endloop
  endfacet
  facet normal 0 0 1
    outer loop
      vertex 41.4825 7.69878 4
      vertex 40.7825 7.28577 4
      vertex 42.1172 6.00076 4
    endloop
  endfacet
  facet normal 0 0 1
    outer loop
      vertex 39.7948 5.10933 4
      vertex 39.0864 6.69167 4
      vertex 38.5205 4.88335 4
    endloop
  endfacet
  facet normal -0 0 1
    outer loop
      vertex 37.1797 6.489 4
      vertex 37.1797 4.80801 4
      vertex 38.1554 6.53966 4
    endloop
  endfacet
  facet normal -0 0 1
    outer loop
      vertex 39.9727 6.94499 4
      vertex 41.0027 5.48599 4
      vertex 40.7825 7.28577 4
    endloop
  endfacet
  facet normal 0 -0 1
    outer loop
      vertex 43.9807 7.403 4
      vertex 43.9807 12.68 4
      vertex 42.0727 10.945 4
    endloop
  endfacet
  facet normal 0 0 1
    outer loop
      vertex 43.1098 6.63977 4
      vertex 42.0727 8.18399 4
      vertex 41.4825 7.69878 4
    endloop
  endfacet
  facet normal 0 0 1
    outer loop
      vertex 40.7825 7.28577 4
      vertex 41.0027 5.48599 4
      vertex 42.1172 6.00076 4
    endloop
  endfacet
  facet normal 0 0 1
    outer loop
      vertex 39.9727 6.94499 4
      vertex 39.7948 5.10933 4
      vertex 41.0027 5.48599 4
    endloop
  endfacet
  facet normal -0 0 1
    outer loop
      vertex 39.0864 6.69167 4
      vertex 39.7948 5.10933 4
      vertex 39.9727 6.94499 4
    endloop
  endfacet
  facet normal -0 0 1
    outer loop
      vertex 38.1554 6.53966 4
      vertex 38.5205 4.88335 4
      vertex 39.0864 6.69167 4
    endloop
  endfacet
  facet normal 0 0 1
    outer loop
      vertex 37.1797 4.80801 4
      vertex 38.5205 4.88335 4
      vertex 38.1554 6.53966 4
    endloop
  endfacet
  facet normal 0 0 1
    outer loop
      vertex 35.5562 6.67444 4
      vertex 35.6546 4.91368 4
      vertex 37.1797 6.489 4
    endloop
  endfacet
  facet normal 0 0 1
    outer loop
      vertex 34.1855 7.23077 4
      vertex 31.9799 6.48677 4
      vertex 33.0457 5.75899 4
    endloop
  endfacet
  facet normal 0 0 1
    outer loop
      vertex 33.0677 8.15799 4
      vertex 32.2422 9.40633 4
      vertex 31.096 7.40077 4
    endloop
  endfacet
  facet normal 0 0 1
    outer loop
      vertex 32.2422 9.40633 4
      vertex 30.3937 8.50099 4
      vertex 31.096 7.40077 4
    endloop
  endfacet
  facet normal 0 0 1
    outer loop
      vertex 31.7468 10.9247 4
      vertex 29.5795 11.1685 4
      vertex 29.8848 9.76454 4
    endloop
  endfacet
  facet normal 0 0 1
    outer loop
      vertex 31.5817 12.713 4
      vertex 29.4777 12.713 4
      vertex 29.5795 11.1685 4
    endloop
  endfacet
  facet normal 0 0 1
    outer loop
      vertex 31.7372 14.4989 4
      vertex 29.6995 14.9994 4
      vertex 29.4777 12.713 4
    endloop
  endfacet
  facet normal 0 0 1
    outer loop
      vertex 32.2035 15.9952 4
      vertex 30.3649 16.9134 4
      vertex 29.6995 14.9994 4
    endloop
  endfacet
  facet normal 0 0 1
    outer loop
      vertex 32.9807 17.202 4
      vertex 31.4737 18.455 4
      vertex 32.2035 15.9952 4
    endloop
  endfacet
  facet normal 0 0 1
    outer loop
      vertex 34.0526 18.0876 4
      vertex 32.984 19.5844 4
      vertex 32.9807 17.202 4
    endloop
  endfacet
  facet normal 0 0 1
    outer loop
      vertex 34.8533 20.2621 4
      vertex 32.984 19.5844 4
      vertex 34.0526 18.0876 4
    endloop
  endfacet
  facet normal 0 -0 1
    outer loop
      vertex 37.0277 18.796 4
      vertex 37.0817 20.488 4
      vertex 35.4016 18.6189 4
    endloop
  endfacet
  facet normal -0 0 1
    outer loop
      vertex 38.101 18.7304 4
      vertex 39.05 18.5338 4
      vertex 38.6682 20.3933 4
    endloop
  endfacet
  facet normal -0 0 1
    outer loop
      vertex 39.05 18.5338 4
      vertex 39.8747 18.206 4
      vertex 40.0422 20.1093 4
    endloop
  endfacet
  facet normal -0 0 1
    outer loop
      vertex 39.8747 18.206 4
      vertex 40.5832 17.7351 4
      vertex 41.2037 19.636 4
    endloop
  endfacet
  facet normal -0 0 1
    outer loop
      vertex 40.5832 17.7351 4
      vertex 41.1818 17.1091 4
      vertex 42.179 18.9549 4
    endloop
  endfacet
  facet normal 0 0 1
    outer loop
      vertex 41.1818 17.1091 4
      vertex 42.9926 18.0462 4
      vertex 42.179 18.9549 4
    endloop
  endfacet
  facet normal 0 0 1
    outer loop
      vertex 43.6447 16.91 4
      vertex 42.9926 18.0462 4
      vertex 41.6707 16.328 4
    endloop
  endfacet
  facet normal 0 -0 1
    outer loop
      vertex 41.6707 16.328 4
      vertex 42.9926 18.0462 4
      vertex 41.1818 17.1091 4
    endloop
  endfacet
  facet normal 0 0 1
    outer loop
      vertex 40.5832 17.7351 4
      vertex 42.179 18.9549 4
      vertex 41.2037 19.636 4
    endloop
  endfacet
  facet normal 0 0 1
    outer loop
      vertex 39.8747 18.206 4
      vertex 41.2037 19.636 4
      vertex 40.0422 20.1093 4
    endloop
  endfacet
  facet normal 0 -0 1
    outer loop
      vertex 39.05 18.5338 4
      vertex 40.0422 20.1093 4
      vertex 38.6682 20.3933 4
    endloop
  endfacet
  facet normal 0 -0 1
    outer loop
      vertex 38.101 18.7304 4
      vertex 38.6682 20.3933 4
      vertex 37.0817 20.488 4
    endloop
  endfacet
  facet normal 0 0 1
    outer loop
      vertex 38.101 18.7304 4
      vertex 37.0817 20.488 4
      vertex 37.0277 18.796 4
    endloop
  endfacet
  facet normal 0 0 1
    outer loop
      vertex 37.0817 20.488 4
      vertex 34.8533 20.2621 4
      vertex 35.4016 18.6189 4
    endloop
  endfacet
  facet normal 0 0 1
    outer loop
      vertex 34.8533 20.2621 4
      vertex 34.0526 18.0876 4
      vertex 35.4016 18.6189 4
    endloop
  endfacet
  facet normal 0 0 1
    outer loop
      vertex 32.984 19.5844 4
      vertex 31.4737 18.455 4
      vertex 32.9807 17.202 4
    endloop
  endfacet
  facet normal 0 0 1
    outer loop
      vertex 31.4737 18.455 4
      vertex 30.3649 16.9134 4
      vertex 32.2035 15.9952 4
    endloop
  endfacet
  facet normal 0 0 1
    outer loop
      vertex 32.2035 15.9952 4
      vertex 29.6995 14.9994 4
      vertex 31.7372 14.4989 4
    endloop
  endfacet
  facet normal -0 0 1
    outer loop
      vertex 18.2738 6.98721 4
      vertex 19.334 5.51799 4
      vertex 19.14 7.60999 4
    endloop
  endfacet
  facet normal 0 0 1
    outer loop
      vertex 31.7372 14.4989 4
      vertex 29.4777 12.713 4
      vertex 31.5817 12.713 4
    endloop
  endfacet
  facet normal 0 0 1
    outer loop
      vertex 31.5817 12.713 4
      vertex 29.5795 11.1685 4
      vertex 31.7468 10.9247 4
    endloop
  endfacet
  facet normal 0 -0 1
    outer loop
      vertex 21.9978 8.52455 4
      vertex 22.2604 9.59021 4
      vertex 20.1595 9.56599 4
    endloop
  endfacet
  facet normal 0 0 1
    outer loop
      vertex 31.7468 10.9247 4
      vertex 29.8848 9.76454 4
      vertex 32.2422 9.40633 4
    endloop
  endfacet
  facet normal 0 0 1
    outer loop
      vertex 20.1595 9.56599 4
      vertex 19.7772 8.47299 4
      vertex 21.9978 8.52455 4
    endloop
  endfacet
  facet normal 0 0 1
    outer loop
      vertex 29.8848 9.76454 4
      vertex 30.3937 8.50099 4
      vertex 32.2422 9.40633 4
    endloop
  endfacet
  facet normal 0 0 1
    outer loop
      vertex 21.9978 8.52455 4
      vertex 19.7772 8.47299 4
      vertex 21.56 7.57199 4
    endloop
  endfacet
  facet normal 0 0 1
    outer loop
      vertex 33.0677 8.15799 4
      vertex 31.096 7.40077 4
      vertex 31.9799 6.48677 4
    endloop
  endfacet
  facet normal 0 0 1
    outer loop
      vertex 22.2604 9.59021 4
      vertex 20.287 10.889 4
      vertex 20.1595 9.56599 4
    endloop
  endfacet
  facet normal 0 0 1
    outer loop
      vertex 33.0677 8.15799 4
      vertex 31.9799 6.48677 4
      vertex 34.1855 7.23077 4
    endloop
  endfacet
  facet normal 0 0 1
    outer loop
      vertex 34.1855 7.23077 4
      vertex 33.0457 5.75899 4
      vertex 34.2766 5.23065 4
    endloop
  endfacet
  facet normal 0 0 1
    outer loop
      vertex 34.1855 7.23077 4
      vertex 34.2766 5.23065 4
      vertex 35.5562 6.67444 4
    endloop
  endfacet
  facet normal -0 0 1
    outer loop
      vertex 34.2766 5.23065 4
      vertex 35.6546 4.91368 4
      vertex 35.5562 6.67444 4
    endloop
  endfacet
  facet normal -0 0 1
    outer loop
      vertex 35.6546 4.91368 4
      vertex 37.1797 4.80801 4
      vertex 37.1797 6.489 4
    endloop
  endfacet
  facet normal 0 0 1
    outer loop
      vertex 22.348 10.769 4
      vertex 20.287 10.889 4
      vertex 22.2604 9.59021 4
    endloop
  endfacet
  facet normal 0 0 1
    outer loop
      vertex 20.2209 6.06177 4
      vertex 19.14 7.60999 4
      vertex 19.334 5.51799 4
    endloop
  endfacet
  facet normal 0 0 1
    outer loop
      vertex 22.348 20.296 4
      vertex 20.287 20.296 4
      vertex 20.287 10.889 4
    endloop
  endfacet
  facet normal 0 0 1
    outer loop
      vertex 18.3173 5.12355 4
      vertex 18.2738 6.98721 4
      vertex 17.2031 6.61354 4
    endloop
  endfacet
  facet normal 0 0 1
    outer loop
      vertex 15.928 6.489 4
      vertex 15.94 4.80801 4
      vertex 17.186 4.8869 4
    endloop
  endfacet
  facet normal 0 0 1
    outer loop
      vertex 22.348 20.296 4
      vertex 20.287 10.889 4
      vertex 22.348 10.769 4
    endloop
  endfacet
  facet normal 0 0 1
    outer loop
      vertex 17.2031 6.61354 4
      vertex 15.928 6.489 4
      vertex 17.186 4.8869 4
    endloop
  endfacet
  facet normal -0 0 1
    outer loop
      vertex 19.14 7.60999 4
      vertex 20.9629 6.74643 4
      vertex 19.7772 8.47299 4
    endloop
  endfacet
  facet normal 0 0 1
    outer loop
      vertex 19.7772 8.47299 4
      vertex 20.9629 6.74643 4
      vertex 21.56 7.57199 4
    endloop
  endfacet
  facet normal 0 -0 1
    outer loop
      vertex 20.2209 6.06177 4
      vertex 20.9629 6.74643 4
      vertex 19.14 7.60999 4
    endloop
  endfacet
  facet normal 0 -0 1
    outer loop
      vertex 18.3173 5.12355 4
      vertex 19.334 5.51799 4
      vertex 18.2738 6.98721 4
    endloop
  endfacet
  facet normal 0 0 1
    outer loop
      vertex 17.186 4.8869 4
      vertex 18.3173 5.12355 4
      vertex 17.2031 6.61354 4
    endloop
  endfacet
  facet normal 0 0 1
    outer loop
      vertex 14.6924 6.60944 4
      vertex 14.7403 4.8839 4
      vertex 15.928 6.489 4
    endloop
  endfacet
  facet normal 0 0 1
    outer loop
      vertex 13.6671 6.97076 4
      vertex 12.852 7.573 4
      vertex 12.659 5.491 4
    endloop
  endfacet
  facet normal 0 -0 1
    outer loop
      vertex 11.071 6.67589 4
      vertex 12.2603 8.40755 4
      vertex 10.487 7.474 4
    endloop
  endfacet
  facet normal 0 0 1
    outer loop
      vertex 12.2603 8.40755 4
      vertex 10.0587 8.39665 4
      vertex 10.487 7.474 4
    endloop
  endfacet
  facet normal 0 0 1
    outer loop
      vertex 11.9053 9.46588 4
      vertex 9.80167 9.42999 4
      vertex 10.0587 8.39665 4
    endloop
  endfacet
  facet normal 0 0 1
    outer loop
      vertex 11.787 10.748 4
      vertex 9.80167 9.42999 4
      vertex 11.9053 9.46588 4
    endloop
  endfacet
  facet normal 0 0 1
    outer loop
      vertex 9.71599 20.296 4
      vertex 9.71599 10.574 4
      vertex 11.787 10.748 4
    endloop
  endfacet
  facet normal -0 0 1
    outer loop
      vertex 9.71599 20.296 4
      vertex 11.787 10.748 4
      vertex 11.787 20.296 4
    endloop
  endfacet
  facet normal -0 0 1
    outer loop
      vertex 9.71599 10.574 4
      vertex 9.80167 9.42999 4
      vertex 11.787 10.748 4
    endloop
  endfacet
  facet normal 0 0 1
    outer loop
      vertex 11.9053 9.46588 4
      vertex 10.0587 8.39665 4
      vertex 12.2603 8.40755 4
    endloop
  endfacet
  facet normal 0 0 1
    outer loop
      vertex 12.852 7.573 4
      vertex 12.2603 8.40755 4
      vertex 11.071 6.67589 4
    endloop
  endfacet
  facet normal 0 0 1
    outer loop
      vertex 12.852 7.573 4
      vertex 11.071 6.67589 4
      vertex 11.795 6.01488 4
    endloop
  endfacet
  facet normal 0 0 1
    outer loop
      vertex 12.852 7.573 4
      vertex 11.795 6.01488 4
      vertex 12.659 5.491 4
    endloop
  endfacet
  facet normal 0 0 1
    outer loop
      vertex 13.6671 6.97076 4
      vertex 12.659 5.491 4
      vertex 13.6467 5.11154 4
    endloop
  endfacet
  facet normal 0 0 1
    outer loop
      vertex 13.6671 6.97076 4
      vertex 13.6467 5.11154 4
      vertex 14.6924 6.60944 4
    endloop
  endfacet
  facet normal -0 0 1
    outer loop
      vertex 13.6467 5.11154 4
      vertex 14.7403 4.8839 4
      vertex 14.6924 6.60944 4
    endloop
  endfacet
  facet normal -0 0 1
    outer loop
      vertex 14.7403 4.8839 4
      vertex 15.94 4.80801 4
      vertex 15.928 6.489 4
    endloop
  endfacet
  facet normal 0.174609 -0.984638 0
    outer loop
      vertex 39.7948 5.10933 2
      vertex 38.5205 4.88335 4
      vertex 38.5205 4.88335 2
    endloop
  endfacet
  facet normal 0.174609 -0.984638 0
    outer loop
      vertex 39.7948 5.10933 2
      vertex 39.7948 5.10933 4
      vertex 38.5205 4.88335 4
    endloop
  endfacet
  facet normal 0.297698 -0.95466 0
    outer loop
      vertex 41.0027 5.48599 2
      vertex 39.7948 5.10933 4
      vertex 39.7948 5.10933 2
    endloop
  endfacet
  facet normal 0.297698 -0.95466 0
    outer loop
      vertex 41.0027 5.48599 2
      vertex 41.0027 5.48599 4
      vertex 39.7948 5.10933 4
    endloop
  endfacet
  facet normal 0.419336 -0.907831 0
    outer loop
      vertex 42.1172 6.00076 2
      vertex 41.0027 5.48599 4
      vertex 41.0027 5.48599 2
    endloop
  endfacet
  facet normal 0.419336 -0.907831 0
    outer loop
      vertex 42.1172 6.00076 2
      vertex 42.1172 6.00076 4
      vertex 41.0027 5.48599 4
    endloop
  endfacet
  facet normal 0.541272 -0.840847 0
    outer loop
      vertex 43.1098 6.63977 2
      vertex 42.1172 6.00076 4
      vertex 42.1172 6.00076 2
    endloop
  endfacet
  facet normal 0.541272 -0.840847 0
    outer loop
      vertex 43.1098 6.63977 2
      vertex 43.1098 6.63977 4
      vertex 42.1172 6.00076 4
    endloop
  endfacet
  facet normal 0.659096 -0.752059 0
    outer loop
      vertex 43.9807 7.403 2
      vertex 43.1098 6.63977 4
      vertex 43.1098 6.63977 2
    endloop
  endfacet
  facet normal 0.659096 -0.752059 0
    outer loop
      vertex 43.9807 7.403 2
      vertex 43.9807 7.403 4
      vertex 43.1098 6.63977 4
    endloop
  endfacet
  facet normal 1 0 0
    outer loop
      vertex 43.9807 12.68 2
      vertex 43.9807 7.403 4
      vertex 43.9807 7.403 2
    endloop
  endfacet
  facet normal 1 0 -0
    outer loop
      vertex 43.9807 12.68 2
      vertex 43.9807 12.68 4
      vertex 43.9807 7.403 4
    endloop
  endfacet
  facet normal 0 1 0
    outer loop
      vertex 37.5047 12.68 2
      vertex 43.9807 12.68 4
      vertex 43.9807 12.68 2
    endloop
  endfacet
  facet normal 0 1 0
    outer loop
      vertex 37.5047 12.68 2
      vertex 37.5047 12.68 4
      vertex 43.9807 12.68 4
    endloop
  endfacet
  facet normal -1 0 0
    outer loop
      vertex 37.5047 10.945 2
      vertex 37.5047 12.68 4
      vertex 37.5047 12.68 2
    endloop
  endfacet
  facet normal -1 0 0
    outer loop
      vertex 37.5047 10.945 2
      vertex 37.5047 10.945 4
      vertex 37.5047 12.68 4
    endloop
  endfacet
  facet normal 0 -1 0
    outer loop
      vertex 42.0727 10.945 2
      vertex 37.5047 10.945 4
      vertex 37.5047 10.945 2
    endloop
  endfacet
  facet normal 0 -1 0
    outer loop
      vertex 42.0727 10.945 2
      vertex 42.0727 10.945 4
      vertex 37.5047 10.945 4
    endloop
  endfacet
  facet normal -1 0 0
    outer loop
      vertex 42.0727 8.18399 2
      vertex 42.0727 10.945 4
      vertex 42.0727 10.945 2
    endloop
  endfacet
  facet normal -1 0 0
    outer loop
      vertex 42.0727 8.18399 2
      vertex 42.0727 8.18399 4
      vertex 42.0727 10.945 4
    endloop
  endfacet
  facet normal -0.635041 0.772478 0
    outer loop
      vertex 41.4825 7.69878 2
      vertex 42.0727 8.18399 4
      vertex 42.0727 8.18399 2
    endloop
  endfacet
  facet normal -0.635041 0.772478 0
    outer loop
      vertex 41.4825 7.69878 2
      vertex 41.4825 7.69878 4
      vertex 42.0727 8.18399 4
    endloop
  endfacet
  facet normal -0.508159 0.861263 0
    outer loop
      vertex 40.7825 7.28577 2
      vertex 41.4825 7.69878 4
      vertex 41.4825 7.69878 2
    endloop
  endfacet
  facet normal -0.508159 0.861263 0
    outer loop
      vertex 40.7825 7.28577 2
      vertex 40.7825 7.28577 4
      vertex 41.4825 7.69878 4
    endloop
  endfacet
  facet normal -0.387876 0.921712 0
    outer loop
      vertex 39.9727 6.94499 2
      vertex 40.7825 7.28577 4
      vertex 40.7825 7.28577 2
    endloop
  endfacet
  facet normal -0.387876 0.921712 0
    outer loop
      vertex 39.9727 6.94499 2
      vertex 39.9727 6.94499 4
      vertex 40.7825 7.28577 4
    endloop
  endfacet
  facet normal -0.274809 0.961499 0
    outer loop
      vertex 39.0864 6.69167 2
      vertex 39.9727 6.94499 4
      vertex 39.9727 6.94499 2
    endloop
  endfacet
  facet normal -0.274809 0.961499 0
    outer loop
      vertex 39.0864 6.69167 2
      vertex 39.0864 6.69167 4
      vertex 39.9727 6.94499 4
    endloop
  endfacet
  facet normal -0.16114 0.986932 0
    outer loop
      vertex 38.1554 6.53966 2
      vertex 39.0864 6.69167 4
      vertex 39.0864 6.69167 2
    endloop
  endfacet
  facet normal -0.16114 0.986932 0
    outer loop
      vertex 38.1554 6.53966 2
      vertex 38.1554 6.53966 4
      vertex 39.0864 6.69167 4
    endloop
  endfacet
  facet normal -0.051853 0.998655 0
    outer loop
      vertex 37.1797 6.489 2
      vertex 38.1554 6.53966 4
      vertex 38.1554 6.53966 2
    endloop
  endfacet
  facet normal -0.051853 0.998655 0
    outer loop
      vertex 37.1797 6.489 2
      vertex 37.1797 6.489 4
      vertex 38.1554 6.53966 4
    endloop
  endfacet
  facet normal 0.113481 0.99354 0
    outer loop
      vertex 35.5562 6.67444 2
      vertex 37.1797 6.489 4
      vertex 37.1797 6.489 2
    endloop
  endfacet
  facet normal 0.113481 0.99354 -0
    outer loop
      vertex 35.5562 6.67444 2
      vertex 35.5562 6.67444 4
      vertex 37.1797 6.489 4
    endloop
  endfacet
  facet normal 0.376088 0.926584 0
    outer loop
      vertex 34.1855 7.23077 2
      vertex 35.5562 6.67444 4
      vertex 35.5562 6.67444 2
    endloop
  endfacet
  facet normal 0.376088 0.926584 -0
    outer loop
      vertex 34.1855 7.23077 2
      vertex 34.1855 7.23077 4
      vertex 35.5562 6.67444 4
    endloop
  endfacet
  facet normal 0.638448 0.769665 0
    outer loop
      vertex 33.0677 8.15799 2
      vertex 34.1855 7.23077 4
      vertex 34.1855 7.23077 2
    endloop
  endfacet
  facet normal 0.638448 0.769665 -0
    outer loop
      vertex 33.0677 8.15799 2
      vertex 33.0677 8.15799 4
      vertex 34.1855 7.23077 4
    endloop
  endfacet
  facet normal 0.834099 0.551614 0
    outer loop
      vertex 32.2422 9.40633 2
      vertex 33.0677 8.15799 4
      vertex 33.0677 8.15799 2
    endloop
  endfacet
  facet normal 0.834099 0.551614 -0
    outer loop
      vertex 32.2422 9.40633 2
      vertex 32.2422 9.40633 4
      vertex 33.0677 8.15799 4
    endloop
  endfacet
  facet normal 0.950688 0.310148 0
    outer loop
      vertex 31.7468 10.9247 2
      vertex 32.2422 9.40633 4
      vertex 32.2422 9.40633 2
    endloop
  endfacet
  facet normal 0.950688 0.310148 -0
    outer loop
      vertex 31.7468 10.9247 2
      vertex 31.7468 10.9247 4
      vertex 32.2422 9.40633 4
    endloop
  endfacet
  facet normal 0.995766 0.0919291 0
    outer loop
      vertex 31.5817 12.713 2
      vertex 31.7468 10.9247 4
      vertex 31.7468 10.9247 2
    endloop
  endfacet
  facet normal 0.995766 0.0919291 -0
    outer loop
      vertex 31.5817 12.713 2
      vertex 31.5817 12.713 4
      vertex 31.7468 10.9247 4
    endloop
  endfacet
  facet normal 0.996234 -0.0867108 0
    outer loop
      vertex 31.7372 14.4989 2
      vertex 31.5817 12.713 4
      vertex 31.5817 12.713 2
    endloop
  endfacet
  facet normal 0.996234 -0.0867108 0
    outer loop
      vertex 31.7372 14.4989 2
      vertex 31.7372 14.4989 4
      vertex 31.5817 12.713 4
    endloop
  endfacet
  facet normal 0.954712 -0.297533 0
    outer loop
      vertex 32.2035 15.9952 2
      vertex 31.7372 14.4989 4
      vertex 31.7372 14.4989 2
    endloop
  endfacet
  facet normal 0.954712 -0.297533 0
    outer loop
      vertex 32.2035 15.9952 2
      vertex 32.2035 15.9952 4
      vertex 31.7372 14.4989 4
    endloop
  endfacet
  facet normal 0.840725 -0.541462 0
    outer loop
      vertex 32.9807 17.202 2
      vertex 32.2035 15.9952 4
      vertex 32.2035 15.9952 2
    endloop
  endfacet
  facet normal 0.840725 -0.541462 0
    outer loop
      vertex 32.9807 17.202 2
      vertex 32.9807 17.202 4
      vertex 32.2035 15.9952 4
    endloop
  endfacet
  facet normal 0.636914 -0.770935 0
    outer loop
      vertex 34.0526 18.0876 2
      vertex 32.9807 17.202 4
      vertex 32.9807 17.202 2
    endloop
  endfacet
  facet normal 0.636914 -0.770935 0
    outer loop
      vertex 34.0526 18.0876 2
      vertex 34.0526 18.0876 4
      vertex 32.9807 17.202 4
    endloop
  endfacet
  facet normal 0.366466 -0.930431 0
    outer loop
      vertex 35.4016 18.6189 2
      vertex 34.0526 18.0876 4
      vertex 34.0526 18.0876 2
    endloop
  endfacet
  facet normal 0.366466 -0.930431 0
    outer loop
      vertex 35.4016 18.6189 2
      vertex 35.4016 18.6189 4
      vertex 34.0526 18.0876 4
    endloop
  endfacet
  facet normal 0.108275 -0.994121 0
    outer loop
      vertex 37.0277 18.796 2
      vertex 35.4016 18.6189 4
      vertex 35.4016 18.6189 2
    endloop
  endfacet
  facet normal 0.108275 -0.994121 0
    outer loop
      vertex 37.0277 18.796 2
      vertex 37.0277 18.796 4
      vertex 35.4016 18.6189 4
    endloop
  endfacet
  facet normal -0.0609664 -0.99814 0
    outer loop
      vertex 38.101 18.7304 2
      vertex 37.0277 18.796 4
      vertex 37.0277 18.796 2
    endloop
  endfacet
  facet normal -0.0609664 -0.99814 0
    outer loop
      vertex 38.101 18.7304 2
      vertex 38.101 18.7304 4
      vertex 37.0277 18.796 4
    endloop
  endfacet
  facet normal -0.202927 -0.979194 0
    outer loop
      vertex 39.05 18.5338 2
      vertex 38.101 18.7304 4
      vertex 38.101 18.7304 2
    endloop
  endfacet
  facet normal -0.202927 -0.979194 0
    outer loop
      vertex 39.05 18.5338 2
      vertex 39.05 18.5338 4
      vertex 38.101 18.7304 4
    endloop
  endfacet
  facet normal -0.369312 -0.929306 0
    outer loop
      vertex 39.8747 18.206 2
      vertex 39.05 18.5338 4
      vertex 39.05 18.5338 2
    endloop
  endfacet
  facet normal -0.369312 -0.929306 0
    outer loop
      vertex 39.8747 18.206 2
      vertex 39.8747 18.206 4
      vertex 39.05 18.5338 4
    endloop
  endfacet
  facet normal -0.553557 -0.832811 0
    outer loop
      vertex 40.5832 17.7351 2
      vertex 39.8747 18.206 4
      vertex 39.8747 18.206 2
    endloop
  endfacet
  facet normal -0.553557 -0.832811 0
    outer loop
      vertex 40.5832 17.7351 2
      vertex 40.5832 17.7351 4
      vertex 39.8747 18.206 4
    endloop
  endfacet
  facet normal -0.722715 -0.691147 0
    outer loop
      vertex 41.1818 17.1091 2
      vertex 40.5832 17.7351 4
      vertex 40.5832 17.7351 2
    endloop
  endfacet
  facet normal -0.722715 -0.691147 0
    outer loop
      vertex 41.1818 17.1091 2
      vertex 41.1818 17.1091 4
      vertex 40.5832 17.7351 4
    endloop
  endfacet
  facet normal -0.847659 -0.530542 0
    outer loop
      vertex 41.6707 16.328 2
      vertex 41.1818 17.1091 4
      vertex 41.1818 17.1091 2
    endloop
  endfacet
  facet normal -0.847659 -0.530542 0
    outer loop
      vertex 41.6707 16.328 2
      vertex 41.6707 16.328 4
      vertex 41.1818 17.1091 4
    endloop
  endfacet
  facet normal 0.282798 -0.959179 0
    outer loop
      vertex 43.6447 16.91 2
      vertex 41.6707 16.328 4
      vertex 41.6707 16.328 2
    endloop
  endfacet
  facet normal 0.282798 -0.959179 0
    outer loop
      vertex 43.6447 16.91 2
      vertex 43.6447 16.91 4
      vertex 41.6707 16.328 4
    endloop
  endfacet
  facet normal 0.867313 0.497764 0
    outer loop
      vertex 42.9926 18.0462 2
      vertex 43.6447 16.91 4
      vertex 43.6447 16.91 2
    endloop
  endfacet
  facet normal 0.867313 0.497764 -0
    outer loop
      vertex 42.9926 18.0462 2
      vertex 42.9926 18.0462 4
      vertex 43.6447 16.91 4
    endloop
  endfacet
  facet normal 0.744971 0.667096 0
    outer loop
      vertex 42.179 18.9549 2
      vertex 42.9926 18.0462 4
      vertex 42.9926 18.0462 2
    endloop
  endfacet
  facet normal 0.744971 0.667096 -0
    outer loop
      vertex 42.179 18.9549 2
      vertex 42.179 18.9549 4
      vertex 42.9926 18.0462 4
    endloop
  endfacet
  facet normal 0.572589 0.819843 0
    outer loop
      vertex 41.2037 19.636 2
      vertex 42.179 18.9549 4
      vertex 42.179 18.9549 2
    endloop
  endfacet
  facet normal 0.572589 0.819843 -0
    outer loop
      vertex 41.2037 19.636 2
      vertex 41.2037 19.636 4
      vertex 42.179 18.9549 4
    endloop
  endfacet
  facet normal 0.377375 0.92606 0
    outer loop
      vertex 40.0422 20.1093 2
      vertex 41.2037 19.636 4
      vertex 41.2037 19.636 2
    endloop
  endfacet
  facet normal 0.377375 0.92606 -0
    outer loop
      vertex 40.0422 20.1093 2
      vertex 40.0422 20.1093 4
      vertex 41.2037 19.636 4
    endloop
  endfacet
  facet normal 0.202416 0.9793 0
    outer loop
      vertex 38.6682 20.3933 2
      vertex 40.0422 20.1093 4
      vertex 40.0422 20.1093 2
    endloop
  endfacet
  facet normal 0.202416 0.9793 -0
    outer loop
      vertex 38.6682 20.3933 2
      vertex 38.6682 20.3933 4
      vertex 40.0422 20.1093 4
    endloop
  endfacet
  facet normal 0.0595657 0.998224 0
    outer loop
      vertex 37.0817 20.488 2
      vertex 38.6682 20.3933 4
      vertex 38.6682 20.3933 2
    endloop
  endfacet
  facet normal 0.0595657 0.998224 -0
    outer loop
      vertex 37.0817 20.488 2
      vertex 37.0817 20.488 4
      vertex 38.6682 20.3933 4
    endloop
  endfacet
  facet normal -0.10085 0.994902 0
    outer loop
      vertex 34.8533 20.2621 2
      vertex 37.0817 20.488 4
      vertex 37.0817 20.488 2
    endloop
  endfacet
  facet normal -0.10085 0.994902 0
    outer loop
      vertex 34.8533 20.2621 2
      vertex 34.8533 20.2621 4
      vertex 37.0817 20.488 4
    endloop
  endfacet
  facet normal -0.340812 0.940132 0
    outer loop
      vertex 32.984 19.5844 2
      vertex 34.8533 20.2621 4
      vertex 34.8533 20.2621 2
    endloop
  endfacet
  facet normal -0.340812 0.940132 0
    outer loop
      vertex 32.984 19.5844 2
      vertex 32.984 19.5844 4
      vertex 34.8533 20.2621 4
    endloop
  endfacet
  facet normal -0.598909 0.800817 0
    outer loop
      vertex 31.4737 18.455 2
      vertex 32.984 19.5844 4
      vertex 32.984 19.5844 2
    endloop
  endfacet
  facet normal -0.598909 0.800817 0
    outer loop
      vertex 31.4737 18.455 2
      vertex 31.4737 18.455 4
      vertex 32.984 19.5844 4
    endloop
  endfacet
  facet normal -0.811791 0.583948 0
    outer loop
      vertex 30.3649 16.9134 2
      vertex 31.4737 18.455 4
      vertex 31.4737 18.455 2
    endloop
  endfacet
  facet normal -0.811791 0.583948 0
    outer loop
      vertex 30.3649 16.9134 2
      vertex 30.3649 16.9134 4
      vertex 31.4737 18.455 4
    endloop
  endfacet
  facet normal -0.944557 0.328347 0
    outer loop
      vertex 29.6995 14.9994 2
      vertex 30.3649 16.9134 4
      vertex 30.3649 16.9134 2
    endloop
  endfacet
  facet normal -0.944557 0.328347 0
    outer loop
      vertex 29.6995 14.9994 2
      vertex 29.6995 14.9994 4
      vertex 30.3649 16.9134 4
    endloop
  endfacet
  facet normal -0.995329 0.0965411 0
    outer loop
      vertex 29.4777 12.713 2
      vertex 29.6995 14.9994 4
      vertex 29.6995 14.9994 2
    endloop
  endfacet
  facet normal -0.995329 0.0965411 0
    outer loop
      vertex 29.4777 12.713 2
      vertex 29.4777 12.713 4
      vertex 29.6995 14.9994 4
    endloop
  endfacet
  facet normal -0.997836 -0.0657554 0
    outer loop
      vertex 29.5795 11.1685 2
      vertex 29.4777 12.713 4
      vertex 29.4777 12.713 2
    endloop
  endfacet
  facet normal -0.997836 -0.0657554 0
    outer loop
      vertex 29.5795 11.1685 2
      vertex 29.5795 11.1685 4
      vertex 29.4777 12.713 4
    endloop
  endfacet
  facet normal -0.977161 -0.212502 0
    outer loop
      vertex 29.8848 9.76454 2
      vertex 29.5795 11.1685 4
      vertex 29.5795 11.1685 2
    endloop
  endfacet
  facet normal -0.977161 -0.212502 0
    outer loop
      vertex 29.8848 9.76454 2
      vertex 29.8848 9.76454 4
      vertex 29.5795 11.1685 4
    endloop
  endfacet
  facet normal -0.927594 -0.373589 0
    outer loop
      vertex 30.3937 8.50099 2
      vertex 29.8848 9.76454 4
      vertex 29.8848 9.76454 2
    endloop
  endfacet
  facet normal -0.927594 -0.373589 0
    outer loop
      vertex 30.3937 8.50099 2
      vertex 30.3937 8.50099 4
      vertex 29.8848 9.76454 4
    endloop
  endfacet
  facet normal -0.842937 -0.538012 0
    outer loop
      vertex 31.096 7.40077 2
      vertex 30.3937 8.50099 4
      vertex 30.3937 8.50099 2
    endloop
  endfacet
  facet normal -0.842937 -0.538012 0
    outer loop
      vertex 31.096 7.40077 2
      vertex 31.096 7.40077 4
      vertex 30.3937 8.50099 4
    endloop
  endfacet
  facet normal -0.71881 -0.695206 0
    outer loop
      vertex 31.9799 6.48677 2
      vertex 31.096 7.40077 4
      vertex 31.096 7.40077 2
    endloop
  endfacet
  facet normal -0.71881 -0.695206 0
    outer loop
      vertex 31.9799 6.48677 2
      vertex 31.9799 6.48677 4
      vertex 31.096 7.40077 4
    endloop
  endfacet
  facet normal -0.563926 -0.825825 0
    outer loop
      vertex 33.0457 5.75899 2
      vertex 31.9799 6.48677 4
      vertex 31.9799 6.48677 2
    endloop
  endfacet
  facet normal -0.563926 -0.825825 0
    outer loop
      vertex 33.0457 5.75899 2
      vertex 33.0457 5.75899 4
      vertex 31.9799 6.48677 4
    endloop
  endfacet
  facet normal -0.394429 -0.918926 0
    outer loop
      vertex 34.2766 5.23065 2
      vertex 33.0457 5.75899 4
      vertex 33.0457 5.75899 2
    endloop
  endfacet
  facet normal -0.394429 -0.918926 0
    outer loop
      vertex 34.2766 5.23065 2
      vertex 34.2766 5.23065 4
      vertex 33.0457 5.75899 4
    endloop
  endfacet
  facet normal -0.22417 -0.97455 0
    outer loop
      vertex 35.6546 4.91368 2
      vertex 34.2766 5.23065 4
      vertex 34.2766 5.23065 2
    endloop
  endfacet
  facet normal -0.22417 -0.97455 0
    outer loop
      vertex 35.6546 4.91368 2
      vertex 35.6546 4.91368 4
      vertex 34.2766 5.23065 4
    endloop
  endfacet
  facet normal -0.0691189 -0.997608 0
    outer loop
      vertex 37.1797 4.80801 2
      vertex 35.6546 4.91368 4
      vertex 35.6546 4.91368 2
    endloop
  endfacet
  facet normal -0.0691189 -0.997608 0
    outer loop
      vertex 37.1797 4.80801 2
      vertex 37.1797 4.80801 4
      vertex 35.6546 4.91368 4
    endloop
  endfacet
  facet normal 0.0560974 -0.998425 0
    outer loop
      vertex 38.5205 4.88335 2
      vertex 37.1797 4.80801 4
      vertex 37.1797 4.80801 2
    endloop
  endfacet
  facet normal 0.0560974 -0.998425 0
    outer loop
      vertex 38.5205 4.88335 2
      vertex 38.5205 4.88335 4
      vertex 37.1797 4.80801 4
    endloop
  endfacet
  facet normal 0.204745 -0.978815 0
    outer loop
      vertex 18.3173 5.12355 2
      vertex 17.186 4.8869 4
      vertex 17.186 4.8869 2
    endloop
  endfacet
  facet normal 0.204745 -0.978815 0
    outer loop
      vertex 18.3173 5.12355 2
      vertex 18.3173 5.12355 4
      vertex 17.186 4.8869 4
    endloop
  endfacet
  facet normal 0.361701 -0.932294 0
    outer loop
      vertex 19.334 5.51799 2
      vertex 18.3173 5.12355 4
      vertex 18.3173 5.12355 2
    endloop
  endfacet
  facet normal 0.361701 -0.932294 0
    outer loop
      vertex 19.334 5.51799 2
      vertex 19.334 5.51799 4
      vertex 18.3173 5.12355 4
    endloop
  endfacet
  facet normal 0.522703 -0.852515 0
    outer loop
      vertex 20.2209 6.06177 2
      vertex 19.334 5.51799 4
      vertex 19.334 5.51799 2
    endloop
  endfacet
  facet normal 0.522703 -0.852515 0
    outer loop
      vertex 20.2209 6.06177 2
      vertex 20.2209 6.06177 4
      vertex 19.334 5.51799 4
    endloop
  endfacet
  facet normal 0.678146 -0.734927 0
    outer loop
      vertex 20.9629 6.74643 2
      vertex 20.2209 6.06177 4
      vertex 20.2209 6.06177 2
    endloop
  endfacet
  facet normal 0.678146 -0.734927 0
    outer loop
      vertex 20.9629 6.74643 2
      vertex 20.9629 6.74643 4
      vertex 20.2209 6.06177 4
    endloop
  endfacet
  facet normal 0.810268 -0.58606 0
    outer loop
      vertex 21.56 7.57199 2
      vertex 20.9629 6.74643 4
      vertex 20.9629 6.74643 2
    endloop
  endfacet
  facet normal 0.810268 -0.58606 0
    outer loop
      vertex 21.56 7.57199 2
      vertex 21.56 7.57199 4
      vertex 20.9629 6.74643 4
    endloop
  endfacet
  facet normal 0.908636 -0.417588 0
    outer loop
      vertex 21.9978 8.52455 2
      vertex 21.56 7.57199 4
      vertex 21.56 7.57199 2
    endloop
  endfacet
  facet normal 0.908636 -0.417588 0
    outer loop
      vertex 21.9978 8.52455 2
      vertex 21.9978 8.52455 4
      vertex 21.56 7.57199 4
    endloop
  endfacet
  facet normal 0.970941 -0.239319 0
    outer loop
      vertex 22.2604 9.59021 2
      vertex 21.9978 8.52455 4
      vertex 21.9978 8.52455 2
    endloop
  endfacet
  facet normal 0.970941 -0.239319 0
    outer loop
      vertex 22.2604 9.59021 2
      vertex 22.2604 9.59021 4
      vertex 21.9978 8.52455 4
    endloop
  endfacet
  facet normal 0.997253 -0.0740714 0
    outer loop
      vertex 22.348 10.769 2
      vertex 22.2604 9.59021 4
      vertex 22.2604 9.59021 2
    endloop
  endfacet
  facet normal 0.997253 -0.0740714 0
    outer loop
      vertex 22.348 10.769 2
      vertex 22.348 10.769 4
      vertex 22.2604 9.59021 4
    endloop
  endfacet
  facet normal 1 0 0
    outer loop
      vertex 22.348 20.296 2
      vertex 22.348 10.769 4
      vertex 22.348 10.769 2
    endloop
  endfacet
  facet normal 1 0 -0
    outer loop
      vertex 22.348 20.296 2
      vertex 22.348 20.296 4
      vertex 22.348 10.769 4
    endloop
  endfacet
  facet normal 0 1 0
    outer loop
      vertex 20.287 20.296 2
      vertex 22.348 20.296 4
      vertex 22.348 20.296 2
    endloop
  endfacet
  facet normal 0 1 0
    outer loop
      vertex 20.287 20.296 2
      vertex 20.287 20.296 4
      vertex 22.348 20.296 4
    endloop
  endfacet
  facet normal -1 0 0
    outer loop
      vertex 20.287 10.889 2
      vertex 20.287 20.296 4
      vertex 20.287 20.296 2
    endloop
  endfacet
  facet normal -1 0 0
    outer loop
      vertex 20.287 10.889 2
      vertex 20.287 10.889 4
      vertex 20.287 20.296 4
    endloop
  endfacet
  facet normal -0.995393 0.0958839 0
    outer loop
      vertex 20.1595 9.56599 2
      vertex 20.287 10.889 4
      vertex 20.287 10.889 2
    endloop
  endfacet
  facet normal -0.995393 0.0958839 0
    outer loop
      vertex 20.1595 9.56599 2
      vertex 20.1595 9.56599 4
      vertex 20.287 10.889 4
    endloop
  endfacet
  facet normal -0.943919 0.330176 0
    outer loop
      vertex 19.7772 8.47299 2
      vertex 20.1595 9.56599 4
      vertex 20.1595 9.56599 2
    endloop
  endfacet
  facet normal -0.943919 0.330176 0
    outer loop
      vertex 19.7772 8.47299 2
      vertex 19.7772 8.47299 4
      vertex 20.1595 9.56599 4
    endloop
  endfacet
  facet normal -0.804467 0.593998 0
    outer loop
      vertex 19.14 7.60999 2
      vertex 19.7772 8.47299 4
      vertex 19.7772 8.47299 2
    endloop
  endfacet
  facet normal -0.804467 0.593998 0
    outer loop
      vertex 19.14 7.60999 2
      vertex 19.14 7.60999 4
      vertex 19.7772 8.47299 4
    endloop
  endfacet
  facet normal -0.583742 0.811939 0
    outer loop
      vertex 18.2738 6.98721 2
      vertex 19.14 7.60999 4
      vertex 19.14 7.60999 2
    endloop
  endfacet
  facet normal -0.583742 0.811939 0
    outer loop
      vertex 18.2738 6.98721 2
      vertex 18.2738 6.98721 4
      vertex 19.14 7.60999 4
    endloop
  endfacet
  facet normal -0.329518 0.944149 0
    outer loop
      vertex 17.2031 6.61354 2
      vertex 18.2738 6.98721 4
      vertex 18.2738 6.98721 2
    endloop
  endfacet
  facet normal -0.329518 0.944149 0
    outer loop
      vertex 17.2031 6.61354 2
      vertex 17.2031 6.61354 4
      vertex 18.2738 6.98721 4
    endloop
  endfacet
  facet normal -0.0972087 0.995264 0
    outer loop
      vertex 15.928 6.489 2
      vertex 17.2031 6.61354 4
      vertex 17.2031 6.61354 2
    endloop
  endfacet
  facet normal -0.0972087 0.995264 0
    outer loop
      vertex 15.928 6.489 2
      vertex 15.928 6.489 4
      vertex 17.2031 6.61354 4
    endloop
  endfacet
  facet normal 0.0970171 0.995283 0
    outer loop
      vertex 14.6924 6.60944 2
      vertex 15.928 6.489 4
      vertex 15.928 6.489 2
    endloop
  endfacet
  facet normal 0.0970171 0.995283 -0
    outer loop
      vertex 14.6924 6.60944 2
      vertex 14.6924 6.60944 4
      vertex 15.928 6.489 4
    endloop
  endfacet
  facet normal 0.332363 0.943151 0
    outer loop
      vertex 13.6671 6.97076 2
      vertex 14.6924 6.60944 4
      vertex 14.6924 6.60944 2
    endloop
  endfacet
  facet normal 0.332363 0.943151 -0
    outer loop
      vertex 13.6671 6.97076 2
      vertex 13.6671 6.97076 4
      vertex 14.6924 6.60944 4
    endloop
  endfacet
  facet normal 0.594239 0.804288 0
    outer loop
      vertex 12.852 7.573 2
      vertex 13.6671 6.97076 4
      vertex 13.6671 6.97076 2
    endloop
  endfacet
  facet normal 0.594239 0.804288 -0
    outer loop
      vertex 12.852 7.573 2
      vertex 12.852 7.573 4
      vertex 13.6671 6.97076 4
    endloop
  endfacet
  facet normal 0.815784 0.578356 0
    outer loop
      vertex 12.2603 8.40755 2
      vertex 12.852 7.573 4
      vertex 12.852 7.573 2
    endloop
  endfacet
  facet normal 0.815784 0.578356 -0
    outer loop
      vertex 12.2603 8.40755 2
      vertex 12.2603 8.40755 4
      vertex 12.852 7.573 4
    endloop
  endfacet
  facet normal 0.948082 0.318027 0
    outer loop
      vertex 11.9053 9.46588 2
      vertex 12.2603 8.40755 4
      vertex 12.2603 8.40755 2
    endloop
  endfacet
  facet normal 0.948082 0.318027 -0
    outer loop
      vertex 11.9053 9.46588 2
      vertex 11.9053 9.46588 4
      vertex 12.2603 8.40755 4
    endloop
  endfacet
  facet normal 0.995768 0.0919045 0
    outer loop
      vertex 11.787 10.748 2
      vertex 11.9053 9.46588 4
      vertex 11.9053 9.46588 2
    endloop
  endfacet
  facet normal 0.995768 0.0919045 -0
    outer loop
      vertex 11.787 10.748 2
      vertex 11.787 10.748 4
      vertex 11.9053 9.46588 4
    endloop
  endfacet
  facet normal 1 0 0
    outer loop
      vertex 11.787 20.296 2
      vertex 11.787 10.748 4
      vertex 11.787 10.748 2
    endloop
  endfacet
  facet normal 1 0 -0
    outer loop
      vertex 11.787 20.296 2
      vertex 11.787 20.296 4
      vertex 11.787 10.748 4
    endloop
  endfacet
  facet normal 0 1 0
    outer loop
      vertex 9.71599 20.296 2
      vertex 11.787 20.296 4
      vertex 11.787 20.296 2
    endloop
  endfacet
  facet normal 0 1 0
    outer loop
      vertex 9.71599 20.296 2
      vertex 9.71599 20.296 4
      vertex 11.787 20.296 4
    endloop
  endfacet
  facet normal -1 0 0
    outer loop
      vertex 9.71599 10.574 2
      vertex 9.71599 20.296 4
      vertex 9.71599 20.296 2
    endloop
  endfacet
  facet normal -1 0 0
    outer loop
      vertex 9.71599 10.574 2
      vertex 9.71599 10.574 4
      vertex 9.71599 20.296 4
    endloop
  endfacet
  facet normal -0.997207 -0.0746845 0
    outer loop
      vertex 9.80167 9.42999 2
      vertex 9.71599 10.574 4
      vertex 9.71599 10.574 2
    endloop
  endfacet
  facet normal -0.997207 -0.0746845 0
    outer loop
      vertex 9.80167 9.42999 2
      vertex 9.80167 9.42999 4
      vertex 9.71599 10.574 4
    endloop
  endfacet
  facet normal -0.970439 -0.241345 0
    outer loop
      vertex 10.0587 8.39665 2
      vertex 9.80167 9.42999 4
      vertex 9.80167 9.42999 2
    endloop
  endfacet
  facet normal -0.970439 -0.241345 0
    outer loop
      vertex 10.0587 8.39665 2
      vertex 10.0587 8.39665 4
      vertex 9.80167 9.42999 4
    endloop
  endfacet
  facet normal -0.90702 -0.421087 0
    outer loop
      vertex 10.487 7.474 2
      vertex 10.0587 8.39665 4
      vertex 10.0587 8.39665 2
    endloop
  endfacet
  facet normal -0.90702 -0.421087 0
    outer loop
      vertex 10.487 7.474 2
      vertex 10.487 7.474 4
      vertex 10.0587 8.39665 4
    endloop
  endfacet
  facet normal -0.807023 -0.590521 0
    outer loop
      vertex 11.071 6.67589 2
      vertex 10.487 7.474 4
      vertex 10.487 7.474 2
    endloop
  endfacet
  facet normal -0.807023 -0.590521 0
    outer loop
      vertex 11.071 6.67589 2
      vertex 11.071 6.67589 4
      vertex 10.487 7.474 4
    endloop
  endfacet
  facet normal -0.674252 -0.738502 0
    outer loop
      vertex 11.795 6.01488 2
      vertex 11.071 6.67589 4
      vertex 11.071 6.67589 2
    endloop
  endfacet
  facet normal -0.674252 -0.738502 0
    outer loop
      vertex 11.795 6.01488 2
      vertex 11.795 6.01488 4
      vertex 11.071 6.67589 4
    endloop
  endfacet
  facet normal -0.518479 -0.855091 0
    outer loop
      vertex 12.659 5.491 2
      vertex 11.795 6.01488 4
      vertex 11.795 6.01488 2
    endloop
  endfacet
  facet normal -0.518479 -0.855091 0
    outer loop
      vertex 12.659 5.491 2
      vertex 12.659 5.491 4
      vertex 11.795 6.01488 4
    endloop
  endfacet
  facet normal -0.35864 -0.933476 0
    outer loop
      vertex 13.6467 5.11154 2
      vertex 12.659 5.491 4
      vertex 12.659 5.491 2
    endloop
  endfacet
  facet normal -0.35864 -0.933476 0
    outer loop
      vertex 13.6467 5.11154 2
      vertex 13.6467 5.11154 4
      vertex 12.659 5.491 4
    endloop
  endfacet
  facet normal -0.20378 -0.979017 0
    outer loop
      vertex 14.7403 4.8839 2
      vertex 13.6467 5.11154 4
      vertex 13.6467 5.11154 2
    endloop
  endfacet
  facet normal -0.20378 -0.979017 0
    outer loop
      vertex 14.7403 4.8839 2
      vertex 14.7403 4.8839 4
      vertex 13.6467 5.11154 4
    endloop
  endfacet
  facet normal -0.0631267 -0.998006 0
    outer loop
      vertex 15.94 4.80801 2
      vertex 14.7403 4.8839 4
      vertex 14.7403 4.8839 2
    endloop
  endfacet
  facet normal -0.0631267 -0.998006 0
    outer loop
      vertex 15.94 4.80801 2
      vertex 15.94 4.80801 4
      vertex 14.7403 4.8839 4
    endloop
  endfacet
  facet normal 0.0631863 -0.998002 0
    outer loop
      vertex 17.186 4.8869 2
      vertex 15.94 4.80801 4
      vertex 15.94 4.80801 2
    endloop
  endfacet
  facet normal 0.0631863 -0.998002 0
    outer loop
      vertex 17.186 4.8869 2
      vertex 17.186 4.8869 4
      vertex 15.94 4.80801 4
    endloop
  endfacet
endsolid OpenSCAD_Model
