solid OpenSCAD_Model
  facet normal 0 -0 -1
    outer loop
      vertex 20.1595 9.56599 2
      vertex 21.9978 8.52455 2
      vertex 19.7772 8.47299 2
    endloop
  endfacet
  facet normal 0 0 -1
    outer loop
      vertex 20.1595 9.56599 2
      vertex 22.2604 9.59021 2
      vertex 21.9978 8.52455 2
    endloop
  endfacet
  facet normal 0 0 -1
    outer loop
      vertex 21.9978 8.52455 2
      vertex 21.56 7.57199 2
      vertex 19.7772 8.47299 2
    endloop
  endfacet
  facet normal 0 0 -1
    outer loop
      vertex 20.1595 9.56599 2
      vertex 20.287 10.889 2
      vertex 22.2604 9.59021 2
    endloop
  endfacet
  facet normal 0 -0 -1
    outer loop
      vertex 32.6898 6.56744 2
      vertex 33.3307 4.80801 2
      vertex 31.087 5.25421 2
    endloop
  endfacet
  facet normal 0 0 -1
    outer loop
      vertex 19.14 7.60999 2
      vertex 19.7772 8.47299 2
      vertex 20.9629 6.74643 2
    endloop
  endfacet
  facet normal -0 0 -1
    outer loop
      vertex 22.348 10.769 2
      vertex 22.2604 9.59021 2
      vertex 20.287 10.889 2
    endloop
  endfacet
  facet normal 0 0 -1
    outer loop
      vertex 31.087 5.25421 2
      vertex 29.5463 6.59288 2
      vertex 31.6187 7.19499 2
    endloop
  endfacet
  facet normal 0 0 -1
    outer loop
      vertex 20.2209 6.06177 2
      vertex 19.14 7.60999 2
      vertex 20.9629 6.74643 2
    endloop
  endfacet
  facet normal 0 -0 -1
    outer loop
      vertex 19.14 7.60999 2
      vertex 19.334 5.51799 2
      vertex 18.2738 6.98721 2
    endloop
  endfacet
  facet normal 0 0 -1
    outer loop
      vertex 20.287 10.889 2
      vertex 20.287 20.296 2
      vertex 22.348 20.296 2
    endloop
  endfacet
  facet normal 0 0 -1
    outer loop
      vertex 35.7101 8.61732 2
      vertex 37.8437 9.577 2
      vertex 37.7096 8.20099 2
    endloop
  endfacet
  facet normal 0 0 -1
    outer loop
      vertex 17.2031 6.61354 2
      vertex 18.2738 6.98721 2
      vertex 18.3173 5.12355 2
    endloop
  endfacet
  facet normal -0 0 -1
    outer loop
      vertex 17.186 4.8869 2
      vertex 15.94 4.80801 2
      vertex 15.928 6.489 2
    endloop
  endfacet
  facet normal 0 0 -1
    outer loop
      vertex 22.348 10.769 2
      vertex 20.287 10.889 2
      vertex 22.348 20.296 2
    endloop
  endfacet
  facet normal 0 0 -1
    outer loop
      vertex 17.186 4.8869 2
      vertex 15.928 6.489 2
      vertex 17.2031 6.61354 2
    endloop
  endfacet
  facet normal 0 0 -1
    outer loop
      vertex 19.7772 8.47299 2
      vertex 21.56 7.57199 2
      vertex 20.9629 6.74643 2
    endloop
  endfacet
  facet normal 0 0 -1
    outer loop
      vertex 17.186 4.8869 2
      vertex 17.2031 6.61354 2
      vertex 18.3173 5.12355 2
    endloop
  endfacet
  facet normal -0 0 -1
    outer loop
      vertex 20.2209 6.06177 2
      vertex 19.334 5.51799 2
      vertex 19.14 7.60999 2
    endloop
  endfacet
  facet normal 0 0 -1
    outer loop
      vertex 18.2738 6.98721 2
      vertex 19.334 5.51799 2
      vertex 18.3173 5.12355 2
    endloop
  endfacet
  facet normal -0 0 -1
    outer loop
      vertex 15.928 6.489 2
      vertex 14.7403 4.8839 2
      vertex 14.6924 6.60944 2
    endloop
  endfacet
  facet normal 0 0 -1
    outer loop
      vertex 12.659 5.491 2
      vertex 12.852 7.573 2
      vertex 13.6671 6.97076 2
    endloop
  endfacet
  facet normal 0 0 -1
    outer loop
      vertex 10.487 7.474 2
      vertex 12.2603 8.40755 2
      vertex 11.071 6.67589 2
    endloop
  endfacet
  facet normal 0 0 -1
    outer loop
      vertex 10.487 7.474 2
      vertex 10.0587 8.39665 2
      vertex 12.2603 8.40755 2
    endloop
  endfacet
  facet normal 0 0 -1
    outer loop
      vertex 10.0587 8.39665 2
      vertex 9.80167 9.42999 2
      vertex 11.9053 9.46588 2
    endloop
  endfacet
  facet normal -0 0 -1
    outer loop
      vertex 11.9053 9.46588 2
      vertex 9.80167 9.42999 2
      vertex 11.787 10.748 2
    endloop
  endfacet
  facet normal -0 0 -1
    outer loop
      vertex 11.787 10.748 2
      vertex 9.71599 10.574 2
      vertex 9.71599 20.296 2
    endloop
  endfacet
  facet normal -0 -0 -1
    outer loop
      vertex 11.787 20.296 2
      vertex 11.787 10.748 2
      vertex 9.71599 20.296 2
    endloop
  endfacet
  facet normal 0 0 -1
    outer loop
      vertex 11.787 10.748 2
      vertex 9.80167 9.42999 2
      vertex 9.71599 10.574 2
    endloop
  endfacet
  facet normal -0 0 -1
    outer loop
      vertex 12.2603 8.40755 2
      vertex 10.0587 8.39665 2
      vertex 11.9053 9.46588 2
    endloop
  endfacet
  facet normal 0 0 -1
    outer loop
      vertex 11.071 6.67589 2
      vertex 12.2603 8.40755 2
      vertex 12.852 7.573 2
    endloop
  endfacet
  facet normal 0 0 -1
    outer loop
      vertex 11.795 6.01488 2
      vertex 11.071 6.67589 2
      vertex 12.852 7.573 2
    endloop
  endfacet
  facet normal 0 0 -1
    outer loop
      vertex 12.659 5.491 2
      vertex 11.795 6.01488 2
      vertex 12.852 7.573 2
    endloop
  endfacet
  facet normal 0 0 -1
    outer loop
      vertex 13.6467 5.11154 2
      vertex 12.659 5.491 2
      vertex 13.6671 6.97076 2
    endloop
  endfacet
  facet normal -0 0 -1
    outer loop
      vertex 14.6924 6.60944 2
      vertex 13.6467 5.11154 2
      vertex 13.6671 6.97076 2
    endloop
  endfacet
  facet normal 0 -0 -1
    outer loop
      vertex 14.6924 6.60944 2
      vertex 14.7403 4.8839 2
      vertex 13.6467 5.11154 2
    endloop
  endfacet
  facet normal 0 -0 -1
    outer loop
      vertex 15.928 6.489 2
      vertex 15.94 4.80801 2
      vertex 14.7403 4.8839 2
    endloop
  endfacet
  facet normal -0 0 -1
    outer loop
      vertex 32.6898 6.56744 2
      vertex 31.087 5.25421 2
      vertex 32.1155 6.80276 2
    endloop
  endfacet
  facet normal 0 0 -1
    outer loop
      vertex 35.4921 7.86066 2
      vertex 37.7096 8.20099 2
      vertex 37.3073 7.03566 2
    endloop
  endfacet
  facet normal 0 0 -1
    outer loop
      vertex 35.4921 7.86066 2
      vertex 35.7101 8.61732 2
      vertex 37.7096 8.20099 2
    endloop
  endfacet
  facet normal 0 0 -1
    outer loop
      vertex 35.733 5.37376 2
      vertex 35.1287 7.26399 2
      vertex 36.6367 6.08099 2
    endloop
  endfacet
  facet normal 0 0 -1
    outer loop
      vertex 37.8437 9.577 2
      vertex 35.7101 8.61732 2
      vertex 35.7827 9.534 2
    endloop
  endfacet
  facet normal 0 0 -1
    outer loop
      vertex 35.7827 18.604 2
      vertex 37.8437 9.577 2
      vertex 35.7827 9.534 2
    endloop
  endfacet
  facet normal 0 0 -1
    outer loop
      vertex 32.8307 20.296 2
      vertex 35.7827 18.604 2
      vertex 32.8307 18.604 2
    endloop
  endfacet
  facet normal 0 0 -1
    outer loop
      vertex 32.8307 20.296 2
      vertex 37.8437 20.296 2
      vertex 35.7827 18.604 2
    endloop
  endfacet
  facet normal 0 0 -1
    outer loop
      vertex 35.7827 18.604 2
      vertex 37.8437 20.296 2
      vertex 37.8437 9.577 2
    endloop
  endfacet
  facet normal 0 0 -1
    outer loop
      vertex 35.733 5.37376 2
      vertex 34.6395 6.83344 2
      vertex 35.1287 7.26399 2
    endloop
  endfacet
  facet normal 0 0 -1
    outer loop
      vertex 35.4921 7.86066 2
      vertex 37.3073 7.03566 2
      vertex 36.6367 6.08099 2
    endloop
  endfacet
  facet normal 0 0 -1
    outer loop
      vertex 35.1287 7.26399 2
      vertex 35.4921 7.86066 2
      vertex 36.6367 6.08099 2
    endloop
  endfacet
  facet normal -0 0 -1
    outer loop
      vertex 35.733 5.37376 2
      vertex 34.631 4.94945 2
      vertex 34.6395 6.83344 2
    endloop
  endfacet
  facet normal 0 -0 -1
    outer loop
      vertex 30.9218 8.38211 2
      vertex 31.2159 7.7271 2
      vertex 29.5463 6.59288 2
    endloop
  endfacet
  facet normal 0 0 -1
    outer loop
      vertex 34.6395 6.83344 2
      vertex 34.631 4.94945 2
      vertex 34.0438 6.5751 2
    endloop
  endfacet
  facet normal 0 -0 -1
    outer loop
      vertex 34.0438 6.5751 2
      vertex 34.631 4.94945 2
      vertex 33.3307 4.80801 2
    endloop
  endfacet
  facet normal 0 -0 -1
    outer loop
      vertex 33.3417 6.489 2
      vertex 34.0438 6.5751 2
      vertex 33.3307 4.80801 2
    endloop
  endfacet
  facet normal 0 0 -1
    outer loop
      vertex 29.5463 6.59288 2
      vertex 31.2159 7.7271 2
      vertex 31.6187 7.19499 2
    endloop
  endfacet
  facet normal 0 0 -1
    outer loop
      vertex 32.6898 6.56744 2
      vertex 33.3417 6.489 2
      vertex 33.3307 4.80801 2
    endloop
  endfacet
  facet normal 0 0 -1
    outer loop
      vertex 28.7087 8.82399 2
      vertex 30.9218 8.38211 2
      vertex 29.5463 6.59288 2
    endloop
  endfacet
  facet normal 0 0 -1
    outer loop
      vertex 28.7087 8.82399 2
      vertex 30.7367 9.15999 2
      vertex 30.9218 8.38211 2
    endloop
  endfacet
  facet normal 0 -0 -1
    outer loop
      vertex 31.6187 7.19499 2
      vertex 32.1155 6.80276 2
      vertex 31.087 5.25421 2
    endloop
  endfacet
  facet normal 0 0 1
    outer loop
      vertex 19.7772 8.47299 4
      vertex 21.9978 8.52455 4
      vertex 20.1595 9.56599 4
    endloop
  endfacet
  facet normal 0 -0 1
    outer loop
      vertex 21.9978 8.52455 4
      vertex 22.2604 9.59021 4
      vertex 20.1595 9.56599 4
    endloop
  endfacet
  facet normal -0 0 1
    outer loop
      vertex 19.7772 8.47299 4
      vertex 21.56 7.57199 4
      vertex 21.9978 8.52455 4
    endloop
  endfacet
  facet normal 0 0 1
    outer loop
      vertex 22.2604 9.59021 4
      vertex 20.287 10.889 4
      vertex 20.1595 9.56599 4
    endloop
  endfacet
  facet normal -0 0 1
    outer loop
      vertex 31.087 5.25421 4
      vertex 33.3307 4.80801 4
      vertex 32.6898 6.56744 4
    endloop
  endfacet
  facet normal 0 0 1
    outer loop
      vertex 20.9629 6.74643 4
      vertex 19.7772 8.47299 4
      vertex 19.14 7.60999 4
    endloop
  endfacet
  facet normal 0 0 1
    outer loop
      vertex 20.287 10.889 4
      vertex 22.2604 9.59021 4
      vertex 22.348 10.769 4
    endloop
  endfacet
  facet normal 0 0 1
    outer loop
      vertex 31.6187 7.19499 4
      vertex 29.5463 6.59288 4
      vertex 31.087 5.25421 4
    endloop
  endfacet
  facet normal 0 0 1
    outer loop
      vertex 20.9629 6.74643 4
      vertex 19.14 7.60999 4
      vertex 20.2209 6.06177 4
    endloop
  endfacet
  facet normal -0 0 1
    outer loop
      vertex 18.2738 6.98721 4
      vertex 19.334 5.51799 4
      vertex 19.14 7.60999 4
    endloop
  endfacet
  facet normal 0 0 1
    outer loop
      vertex 22.348 20.296 4
      vertex 20.287 20.296 4
      vertex 20.287 10.889 4
    endloop
  endfacet
  facet normal 0 -0 1
    outer loop
      vertex 37.7096 8.20099 4
      vertex 37.8437 9.577 4
      vertex 35.7101 8.61732 4
    endloop
  endfacet
  facet normal 0 0 1
    outer loop
      vertex 18.3173 5.12355 4
      vertex 18.2738 6.98721 4
      vertex 17.2031 6.61354 4
    endloop
  endfacet
  facet normal 0 0 1
    outer loop
      vertex 15.928 6.489 4
      vertex 15.94 4.80801 4
      vertex 17.186 4.8869 4
    endloop
  endfacet
  facet normal 0 0 1
    outer loop
      vertex 22.348 20.296 4
      vertex 20.287 10.889 4
      vertex 22.348 10.769 4
    endloop
  endfacet
  facet normal 0 0 1
    outer loop
      vertex 17.2031 6.61354 4
      vertex 15.928 6.489 4
      vertex 17.186 4.8869 4
    endloop
  endfacet
  facet normal 0 -0 1
    outer loop
      vertex 20.9629 6.74643 4
      vertex 21.56 7.57199 4
      vertex 19.7772 8.47299 4
    endloop
  endfacet
  facet normal 0 0 1
    outer loop
      vertex 18.3173 5.12355 4
      vertex 17.2031 6.61354 4
      vertex 17.186 4.8869 4
    endloop
  endfacet
  facet normal 0 0 1
    outer loop
      vertex 19.14 7.60999 4
      vertex 19.334 5.51799 4
      vertex 20.2209 6.06177 4
    endloop
  endfacet
  facet normal 0 -0 1
    outer loop
      vertex 18.3173 5.12355 4
      vertex 19.334 5.51799 4
      vertex 18.2738 6.98721 4
    endloop
  endfacet
  facet normal 0 0 1
    outer loop
      vertex 14.6924 6.60944 4
      vertex 14.7403 4.8839 4
      vertex 15.928 6.489 4
    endloop
  endfacet
  facet normal 0 0 1
    outer loop
      vertex 13.6671 6.97076 4
      vertex 12.852 7.573 4
      vertex 12.659 5.491 4
    endloop
  endfacet
  facet normal 0 -0 1
    outer loop
      vertex 11.071 6.67589 4
      vertex 12.2603 8.40755 4
      vertex 10.487 7.474 4
    endloop
  endfacet
  facet normal 0 0 1
    outer loop
      vertex 12.2603 8.40755 4
      vertex 10.0587 8.39665 4
      vertex 10.487 7.474 4
    endloop
  endfacet
  facet normal 0 0 1
    outer loop
      vertex 11.9053 9.46588 4
      vertex 9.80167 9.42999 4
      vertex 10.0587 8.39665 4
    endloop
  endfacet
  facet normal 0 0 1
    outer loop
      vertex 11.787 10.748 4
      vertex 9.80167 9.42999 4
      vertex 11.9053 9.46588 4
    endloop
  endfacet
  facet normal 0 0 1
    outer loop
      vertex 9.71599 20.296 4
      vertex 9.71599 10.574 4
      vertex 11.787 10.748 4
    endloop
  endfacet
  facet normal -0 0 1
    outer loop
      vertex 9.71599 20.296 4
      vertex 11.787 10.748 4
      vertex 11.787 20.296 4
    endloop
  endfacet
  facet normal -0 0 1
    outer loop
      vertex 9.71599 10.574 4
      vertex 9.80167 9.42999 4
      vertex 11.787 10.748 4
    endloop
  endfacet
  facet normal 0 0 1
    outer loop
      vertex 11.9053 9.46588 4
      vertex 10.0587 8.39665 4
      vertex 12.2603 8.40755 4
    endloop
  endfacet
  facet normal 0 0 1
    outer loop
      vertex 12.852 7.573 4
      vertex 12.2603 8.40755 4
      vertex 11.071 6.67589 4
    endloop
  endfacet
  facet normal 0 0 1
    outer loop
      vertex 12.852 7.573 4
      vertex 11.071 6.67589 4
      vertex 11.795 6.01488 4
    endloop
  endfacet
  facet normal 0 0 1
    outer loop
      vertex 12.852 7.573 4
      vertex 11.795 6.01488 4
      vertex 12.659 5.491 4
    endloop
  endfacet
  facet normal 0 0 1
    outer loop
      vertex 13.6671 6.97076 4
      vertex 12.659 5.491 4
      vertex 13.6467 5.11154 4
    endloop
  endfacet
  facet normal 0 0 1
    outer loop
      vertex 13.6671 6.97076 4
      vertex 13.6467 5.11154 4
      vertex 14.6924 6.60944 4
    endloop
  endfacet
  facet normal -0 0 1
    outer loop
      vertex 13.6467 5.11154 4
      vertex 14.7403 4.8839 4
      vertex 14.6924 6.60944 4
    endloop
  endfacet
  facet normal -0 0 1
    outer loop
      vertex 14.7403 4.8839 4
      vertex 15.94 4.80801 4
      vertex 15.928 6.489 4
    endloop
  endfacet
  facet normal 0 0 1
    outer loop
      vertex 32.1155 6.80276 4
      vertex 31.087 5.25421 4
      vertex 32.6898 6.56744 4
    endloop
  endfacet
  facet normal 0 -0 1
    outer loop
      vertex 37.3073 7.03566 4
      vertex 37.7096 8.20099 4
      vertex 35.4921 7.86066 4
    endloop
  endfacet
  facet normal 0 0 1
    outer loop
      vertex 37.7096 8.20099 4
      vertex 35.7101 8.61732 4
      vertex 35.4921 7.86066 4
    endloop
  endfacet
  facet normal 0 0 1
    outer loop
      vertex 36.6367 6.08099 4
      vertex 35.1287 7.26399 4
      vertex 35.733 5.37376 4
    endloop
  endfacet
  facet normal -0 0 1
    outer loop
      vertex 35.7827 9.534 4
      vertex 35.7101 8.61732 4
      vertex 37.8437 9.577 4
    endloop
  endfacet
  facet normal 0 0 1
    outer loop
      vertex 35.7827 9.534 4
      vertex 37.8437 9.577 4
      vertex 35.7827 18.604 4
    endloop
  endfacet
  facet normal 0 0 1
    outer loop
      vertex 32.8307 18.604 4
      vertex 35.7827 18.604 4
      vertex 32.8307 20.296 4
    endloop
  endfacet
  facet normal 0 -0 1
    outer loop
      vertex 35.7827 18.604 4
      vertex 37.8437 20.296 4
      vertex 32.8307 20.296 4
    endloop
  endfacet
  facet normal 0 -0 1
    outer loop
      vertex 37.8437 9.577 4
      vertex 37.8437 20.296 4
      vertex 35.7827 18.604 4
    endloop
  endfacet
  facet normal 0 0 1
    outer loop
      vertex 35.1287 7.26399 4
      vertex 34.6395 6.83344 4
      vertex 35.733 5.37376 4
    endloop
  endfacet
  facet normal 0 -0 1
    outer loop
      vertex 36.6367 6.08099 4
      vertex 37.3073 7.03566 4
      vertex 35.4921 7.86066 4
    endloop
  endfacet
  facet normal 0 0 1
    outer loop
      vertex 36.6367 6.08099 4
      vertex 35.4921 7.86066 4
      vertex 35.1287 7.26399 4
    endloop
  endfacet
  facet normal 0 0 1
    outer loop
      vertex 34.6395 6.83344 4
      vertex 34.631 4.94945 4
      vertex 35.733 5.37376 4
    endloop
  endfacet
  facet normal 0 0 1
    outer loop
      vertex 29.5463 6.59288 4
      vertex 31.2159 7.7271 4
      vertex 30.9218 8.38211 4
    endloop
  endfacet
  facet normal -0 0 1
    outer loop
      vertex 34.0438 6.5751 4
      vertex 34.631 4.94945 4
      vertex 34.6395 6.83344 4
    endloop
  endfacet
  facet normal 0 0 1
    outer loop
      vertex 33.3307 4.80801 4
      vertex 34.631 4.94945 4
      vertex 34.0438 6.5751 4
    endloop
  endfacet
  facet normal 0 0 1
    outer loop
      vertex 33.3307 4.80801 4
      vertex 34.0438 6.5751 4
      vertex 33.3417 6.489 4
    endloop
  endfacet
  facet normal 0 0 1
    outer loop
      vertex 31.6187 7.19499 4
      vertex 31.2159 7.7271 4
      vertex 29.5463 6.59288 4
    endloop
  endfacet
  facet normal 0 -0 1
    outer loop
      vertex 33.3307 4.80801 4
      vertex 33.3417 6.489 4
      vertex 32.6898 6.56744 4
    endloop
  endfacet
  facet normal 0 -0 1
    outer loop
      vertex 29.5463 6.59288 4
      vertex 30.9218 8.38211 4
      vertex 28.7087 8.82399 4
    endloop
  endfacet
  facet normal 0 0 1
    outer loop
      vertex 30.9218 8.38211 4
      vertex 30.7367 9.15999 4
      vertex 28.7087 8.82399 4
    endloop
  endfacet
  facet normal 0 0 1
    outer loop
      vertex 31.087 5.25421 4
      vertex 32.1155 6.80276 4
      vertex 31.6187 7.19499 4
    endloop
  endfacet
  facet normal 0.204745 -0.978815 0
    outer loop
      vertex 18.3173 5.12355 2
      vertex 17.186 4.8869 4
      vertex 17.186 4.8869 2
    endloop
  endfacet
  facet normal 0.204745 -0.978815 0
    outer loop
      vertex 18.3173 5.12355 2
      vertex 18.3173 5.12355 4
      vertex 17.186 4.8869 4
    endloop
  endfacet
  facet normal 0.361701 -0.932294 0
    outer loop
      vertex 19.334 5.51799 2
      vertex 18.3173 5.12355 4
      vertex 18.3173 5.12355 2
    endloop
  endfacet
  facet normal 0.361701 -0.932294 0
    outer loop
      vertex 19.334 5.51799 2
      vertex 19.334 5.51799 4
      vertex 18.3173 5.12355 4
    endloop
  endfacet
  facet normal 0.522703 -0.852515 0
    outer loop
      vertex 20.2209 6.06177 2
      vertex 19.334 5.51799 4
      vertex 19.334 5.51799 2
    endloop
  endfacet
  facet normal 0.522703 -0.852515 0
    outer loop
      vertex 20.2209 6.06177 2
      vertex 20.2209 6.06177 4
      vertex 19.334 5.51799 4
    endloop
  endfacet
  facet normal 0.678146 -0.734927 0
    outer loop
      vertex 20.9629 6.74643 2
      vertex 20.2209 6.06177 4
      vertex 20.2209 6.06177 2
    endloop
  endfacet
  facet normal 0.678146 -0.734927 0
    outer loop
      vertex 20.9629 6.74643 2
      vertex 20.9629 6.74643 4
      vertex 20.2209 6.06177 4
    endloop
  endfacet
  facet normal 0.810268 -0.58606 0
    outer loop
      vertex 21.56 7.57199 2
      vertex 20.9629 6.74643 4
      vertex 20.9629 6.74643 2
    endloop
  endfacet
  facet normal 0.810268 -0.58606 0
    outer loop
      vertex 21.56 7.57199 2
      vertex 21.56 7.57199 4
      vertex 20.9629 6.74643 4
    endloop
  endfacet
  facet normal 0.908636 -0.417588 0
    outer loop
      vertex 21.9978 8.52455 2
      vertex 21.56 7.57199 4
      vertex 21.56 7.57199 2
    endloop
  endfacet
  facet normal 0.908636 -0.417588 0
    outer loop
      vertex 21.9978 8.52455 2
      vertex 21.9978 8.52455 4
      vertex 21.56 7.57199 4
    endloop
  endfacet
  facet normal 0.970941 -0.239319 0
    outer loop
      vertex 22.2604 9.59021 2
      vertex 21.9978 8.52455 4
      vertex 21.9978 8.52455 2
    endloop
  endfacet
  facet normal 0.970941 -0.239319 0
    outer loop
      vertex 22.2604 9.59021 2
      vertex 22.2604 9.59021 4
      vertex 21.9978 8.52455 4
    endloop
  endfacet
  facet normal 0.997253 -0.0740714 0
    outer loop
      vertex 22.348 10.769 2
      vertex 22.2604 9.59021 4
      vertex 22.2604 9.59021 2
    endloop
  endfacet
  facet normal 0.997253 -0.0740714 0
    outer loop
      vertex 22.348 10.769 2
      vertex 22.348 10.769 4
      vertex 22.2604 9.59021 4
    endloop
  endfacet
  facet normal 1 0 0
    outer loop
      vertex 22.348 20.296 2
      vertex 22.348 10.769 4
      vertex 22.348 10.769 2
    endloop
  endfacet
  facet normal 1 0 -0
    outer loop
      vertex 22.348 20.296 2
      vertex 22.348 20.296 4
      vertex 22.348 10.769 4
    endloop
  endfacet
  facet normal 0 1 0
    outer loop
      vertex 20.287 20.296 2
      vertex 22.348 20.296 4
      vertex 22.348 20.296 2
    endloop
  endfacet
  facet normal 0 1 0
    outer loop
      vertex 20.287 20.296 2
      vertex 20.287 20.296 4
      vertex 22.348 20.296 4
    endloop
  endfacet
  facet normal -1 0 0
    outer loop
      vertex 20.287 10.889 2
      vertex 20.287 20.296 4
      vertex 20.287 20.296 2
    endloop
  endfacet
  facet normal -1 0 0
    outer loop
      vertex 20.287 10.889 2
      vertex 20.287 10.889 4
      vertex 20.287 20.296 4
    endloop
  endfacet
  facet normal -0.995393 0.0958839 0
    outer loop
      vertex 20.1595 9.56599 2
      vertex 20.287 10.889 4
      vertex 20.287 10.889 2
    endloop
  endfacet
  facet normal -0.995393 0.0958839 0
    outer loop
      vertex 20.1595 9.56599 2
      vertex 20.1595 9.56599 4
      vertex 20.287 10.889 4
    endloop
  endfacet
  facet normal -0.943919 0.330176 0
    outer loop
      vertex 19.7772 8.47299 2
      vertex 20.1595 9.56599 4
      vertex 20.1595 9.56599 2
    endloop
  endfacet
  facet normal -0.943919 0.330176 0
    outer loop
      vertex 19.7772 8.47299 2
      vertex 19.7772 8.47299 4
      vertex 20.1595 9.56599 4
    endloop
  endfacet
  facet normal -0.804467 0.593998 0
    outer loop
      vertex 19.14 7.60999 2
      vertex 19.7772 8.47299 4
      vertex 19.7772 8.47299 2
    endloop
  endfacet
  facet normal -0.804467 0.593998 0
    outer loop
      vertex 19.14 7.60999 2
      vertex 19.14 7.60999 4
      vertex 19.7772 8.47299 4
    endloop
  endfacet
  facet normal -0.583742 0.811939 0
    outer loop
      vertex 18.2738 6.98721 2
      vertex 19.14 7.60999 4
      vertex 19.14 7.60999 2
    endloop
  endfacet
  facet normal -0.583742 0.811939 0
    outer loop
      vertex 18.2738 6.98721 2
      vertex 18.2738 6.98721 4
      vertex 19.14 7.60999 4
    endloop
  endfacet
  facet normal -0.329518 0.944149 0
    outer loop
      vertex 17.2031 6.61354 2
      vertex 18.2738 6.98721 4
      vertex 18.2738 6.98721 2
    endloop
  endfacet
  facet normal -0.329518 0.944149 0
    outer loop
      vertex 17.2031 6.61354 2
      vertex 17.2031 6.61354 4
      vertex 18.2738 6.98721 4
    endloop
  endfacet
  facet normal -0.0972087 0.995264 0
    outer loop
      vertex 15.928 6.489 2
      vertex 17.2031 6.61354 4
      vertex 17.2031 6.61354 2
    endloop
  endfacet
  facet normal -0.0972087 0.995264 0
    outer loop
      vertex 15.928 6.489 2
      vertex 15.928 6.489 4
      vertex 17.2031 6.61354 4
    endloop
  endfacet
  facet normal 0.0970171 0.995283 0
    outer loop
      vertex 14.6924 6.60944 2
      vertex 15.928 6.489 4
      vertex 15.928 6.489 2
    endloop
  endfacet
  facet normal 0.0970171 0.995283 -0
    outer loop
      vertex 14.6924 6.60944 2
      vertex 14.6924 6.60944 4
      vertex 15.928 6.489 4
    endloop
  endfacet
  facet normal 0.332363 0.943151 0
    outer loop
      vertex 13.6671 6.97076 2
      vertex 14.6924 6.60944 4
      vertex 14.6924 6.60944 2
    endloop
  endfacet
  facet normal 0.332363 0.943151 -0
    outer loop
      vertex 13.6671 6.97076 2
      vertex 13.6671 6.97076 4
      vertex 14.6924 6.60944 4
    endloop
  endfacet
  facet normal 0.594239 0.804288 0
    outer loop
      vertex 12.852 7.573 2
      vertex 13.6671 6.97076 4
      vertex 13.6671 6.97076 2
    endloop
  endfacet
  facet normal 0.594239 0.804288 -0
    outer loop
      vertex 12.852 7.573 2
      vertex 12.852 7.573 4
      vertex 13.6671 6.97076 4
    endloop
  endfacet
  facet normal 0.815784 0.578356 0
    outer loop
      vertex 12.2603 8.40755 2
      vertex 12.852 7.573 4
      vertex 12.852 7.573 2
    endloop
  endfacet
  facet normal 0.815784 0.578356 -0
    outer loop
      vertex 12.2603 8.40755 2
      vertex 12.2603 8.40755 4
      vertex 12.852 7.573 4
    endloop
  endfacet
  facet normal 0.948082 0.318027 0
    outer loop
      vertex 11.9053 9.46588 2
      vertex 12.2603 8.40755 4
      vertex 12.2603 8.40755 2
    endloop
  endfacet
  facet normal 0.948082 0.318027 -0
    outer loop
      vertex 11.9053 9.46588 2
      vertex 11.9053 9.46588 4
      vertex 12.2603 8.40755 4
    endloop
  endfacet
  facet normal 0.995768 0.0919045 0
    outer loop
      vertex 11.787 10.748 2
      vertex 11.9053 9.46588 4
      vertex 11.9053 9.46588 2
    endloop
  endfacet
  facet normal 0.995768 0.0919045 -0
    outer loop
      vertex 11.787 10.748 2
      vertex 11.787 10.748 4
      vertex 11.9053 9.46588 4
    endloop
  endfacet
  facet normal 1 0 0
    outer loop
      vertex 11.787 20.296 2
      vertex 11.787 10.748 4
      vertex 11.787 10.748 2
    endloop
  endfacet
  facet normal 1 0 -0
    outer loop
      vertex 11.787 20.296 2
      vertex 11.787 20.296 4
      vertex 11.787 10.748 4
    endloop
  endfacet
  facet normal 0 1 0
    outer loop
      vertex 9.71599 20.296 2
      vertex 11.787 20.296 4
      vertex 11.787 20.296 2
    endloop
  endfacet
  facet normal 0 1 0
    outer loop
      vertex 9.71599 20.296 2
      vertex 9.71599 20.296 4
      vertex 11.787 20.296 4
    endloop
  endfacet
  facet normal -1 0 0
    outer loop
      vertex 9.71599 10.574 2
      vertex 9.71599 20.296 4
      vertex 9.71599 20.296 2
    endloop
  endfacet
  facet normal -1 0 0
    outer loop
      vertex 9.71599 10.574 2
      vertex 9.71599 10.574 4
      vertex 9.71599 20.296 4
    endloop
  endfacet
  facet normal -0.997207 -0.0746845 0
    outer loop
      vertex 9.80167 9.42999 2
      vertex 9.71599 10.574 4
      vertex 9.71599 10.574 2
    endloop
  endfacet
  facet normal -0.997207 -0.0746845 0
    outer loop
      vertex 9.80167 9.42999 2
      vertex 9.80167 9.42999 4
      vertex 9.71599 10.574 4
    endloop
  endfacet
  facet normal -0.970439 -0.241345 0
    outer loop
      vertex 10.0587 8.39665 2
      vertex 9.80167 9.42999 4
      vertex 9.80167 9.42999 2
    endloop
  endfacet
  facet normal -0.970439 -0.241345 0
    outer loop
      vertex 10.0587 8.39665 2
      vertex 10.0587 8.39665 4
      vertex 9.80167 9.42999 4
    endloop
  endfacet
  facet normal -0.90702 -0.421087 0
    outer loop
      vertex 10.487 7.474 2
      vertex 10.0587 8.39665 4
      vertex 10.0587 8.39665 2
    endloop
  endfacet
  facet normal -0.90702 -0.421087 0
    outer loop
      vertex 10.487 7.474 2
      vertex 10.487 7.474 4
      vertex 10.0587 8.39665 4
    endloop
  endfacet
  facet normal -0.807023 -0.590521 0
    outer loop
      vertex 11.071 6.67589 2
      vertex 10.487 7.474 4
      vertex 10.487 7.474 2
    endloop
  endfacet
  facet normal -0.807023 -0.590521 0
    outer loop
      vertex 11.071 6.67589 2
      vertex 11.071 6.67589 4
      vertex 10.487 7.474 4
    endloop
  endfacet
  facet normal -0.674252 -0.738502 0
    outer loop
      vertex 11.795 6.01488 2
      vertex 11.071 6.67589 4
      vertex 11.071 6.67589 2
    endloop
  endfacet
  facet normal -0.674252 -0.738502 0
    outer loop
      vertex 11.795 6.01488 2
      vertex 11.795 6.01488 4
      vertex 11.071 6.67589 4
    endloop
  endfacet
  facet normal -0.518479 -0.855091 0
    outer loop
      vertex 12.659 5.491 2
      vertex 11.795 6.01488 4
      vertex 11.795 6.01488 2
    endloop
  endfacet
  facet normal -0.518479 -0.855091 0
    outer loop
      vertex 12.659 5.491 2
      vertex 12.659 5.491 4
      vertex 11.795 6.01488 4
    endloop
  endfacet
  facet normal -0.35864 -0.933476 0
    outer loop
      vertex 13.6467 5.11154 2
      vertex 12.659 5.491 4
      vertex 12.659 5.491 2
    endloop
  endfacet
  facet normal -0.35864 -0.933476 0
    outer loop
      vertex 13.6467 5.11154 2
      vertex 13.6467 5.11154 4
      vertex 12.659 5.491 4
    endloop
  endfacet
  facet normal -0.20378 -0.979017 0
    outer loop
      vertex 14.7403 4.8839 2
      vertex 13.6467 5.11154 4
      vertex 13.6467 5.11154 2
    endloop
  endfacet
  facet normal -0.20378 -0.979017 0
    outer loop
      vertex 14.7403 4.8839 2
      vertex 14.7403 4.8839 4
      vertex 13.6467 5.11154 4
    endloop
  endfacet
  facet normal -0.0631267 -0.998006 0
    outer loop
      vertex 15.94 4.80801 2
      vertex 14.7403 4.8839 4
      vertex 14.7403 4.8839 2
    endloop
  endfacet
  facet normal -0.0631267 -0.998006 0
    outer loop
      vertex 15.94 4.80801 2
      vertex 15.94 4.80801 4
      vertex 14.7403 4.8839 4
    endloop
  endfacet
  facet normal 0.0631863 -0.998002 0
    outer loop
      vertex 17.186 4.8869 2
      vertex 15.94 4.80801 4
      vertex 15.94 4.80801 2
    endloop
  endfacet
  facet normal 0.0631863 -0.998002 0
    outer loop
      vertex 17.186 4.8869 2
      vertex 17.186 4.8869 4
      vertex 15.94 4.80801 4
    endloop
  endfacet
  facet normal 0.359325 -0.933213 0
    outer loop
      vertex 35.733 5.37376 2
      vertex 34.631 4.94945 4
      vertex 34.631 4.94945 2
    endloop
  endfacet
  facet normal 0.359325 -0.933213 0
    outer loop
      vertex 35.733 5.37376 2
      vertex 35.733 5.37376 4
      vertex 34.631 4.94945 4
    endloop
  endfacet
  facet normal 0.616268 -0.787537 0
    outer loop
      vertex 36.6367 6.08099 2
      vertex 35.733 5.37376 4
      vertex 35.733 5.37376 2
    endloop
  endfacet
  facet normal 0.616268 -0.787537 0
    outer loop
      vertex 36.6367 6.08099 2
      vertex 36.6367 6.08099 4
      vertex 35.733 5.37376 4
    endloop
  endfacet
  facet normal 0.818306 -0.574783 0
    outer loop
      vertex 37.3073 7.03566 2
      vertex 36.6367 6.08099 4
      vertex 36.6367 6.08099 2
    endloop
  endfacet
  facet normal 0.818306 -0.574783 0
    outer loop
      vertex 37.3073 7.03566 2
      vertex 37.3073 7.03566 4
      vertex 36.6367 6.08099 4
    endloop
  endfacet
  facet normal 0.94525 -0.326347 0
    outer loop
      vertex 37.7096 8.20099 2
      vertex 37.3073 7.03566 4
      vertex 37.3073 7.03566 2
    endloop
  endfacet
  facet normal 0.94525 -0.326347 0
    outer loop
      vertex 37.7096 8.20099 2
      vertex 37.7096 8.20099 4
      vertex 37.3073 7.03566 4
    endloop
  endfacet
  facet normal 0.995284 -0.0970032 0
    outer loop
      vertex 37.8437 9.577 2
      vertex 37.7096 8.20099 4
      vertex 37.7096 8.20099 2
    endloop
  endfacet
  facet normal 0.995284 -0.0970032 0
    outer loop
      vertex 37.8437 9.577 2
      vertex 37.8437 9.577 4
      vertex 37.7096 8.20099 4
    endloop
  endfacet
  facet normal 1 0 0
    outer loop
      vertex 37.8437 20.296 2
      vertex 37.8437 9.577 4
      vertex 37.8437 9.577 2
    endloop
  endfacet
  facet normal 1 0 -0
    outer loop
      vertex 37.8437 20.296 2
      vertex 37.8437 20.296 4
      vertex 37.8437 9.577 4
    endloop
  endfacet
  facet normal 0 1 0
    outer loop
      vertex 32.8307 20.296 2
      vertex 37.8437 20.296 4
      vertex 37.8437 20.296 2
    endloop
  endfacet
  facet normal 0 1 0
    outer loop
      vertex 32.8307 20.296 2
      vertex 32.8307 20.296 4
      vertex 37.8437 20.296 4
    endloop
  endfacet
  facet normal -1 0 0
    outer loop
      vertex 32.8307 18.604 2
      vertex 32.8307 20.296 4
      vertex 32.8307 20.296 2
    endloop
  endfacet
  facet normal -1 0 0
    outer loop
      vertex 32.8307 18.604 2
      vertex 32.8307 18.604 4
      vertex 32.8307 20.296 4
    endloop
  endfacet
  facet normal 0 -1 0
    outer loop
      vertex 35.7827 18.604 2
      vertex 32.8307 18.604 4
      vertex 32.8307 18.604 2
    endloop
  endfacet
  facet normal 0 -1 0
    outer loop
      vertex 35.7827 18.604 2
      vertex 35.7827 18.604 4
      vertex 32.8307 18.604 4
    endloop
  endfacet
  facet normal -1 0 0
    outer loop
      vertex 35.7827 9.534 2
      vertex 35.7827 18.604 4
      vertex 35.7827 18.604 2
    endloop
  endfacet
  facet normal -1 0 0
    outer loop
      vertex 35.7827 9.534 2
      vertex 35.7827 9.534 4
      vertex 35.7827 18.604 4
    endloop
  endfacet
  facet normal -0.996873 0.0790197 0
    outer loop
      vertex 35.7101 8.61732 2
      vertex 35.7827 9.534 4
      vertex 35.7827 9.534 2
    endloop
  endfacet
  facet normal -0.996873 0.0790197 0
    outer loop
      vertex 35.7101 8.61732 2
      vertex 35.7101 8.61732 4
      vertex 35.7827 9.534 4
    endloop
  endfacet
  facet normal -0.960914 0.276847 0
    outer loop
      vertex 35.4921 7.86066 2
      vertex 35.7101 8.61732 4
      vertex 35.7101 8.61732 2
    endloop
  endfacet
  facet normal -0.960914 0.276847 0
    outer loop
      vertex 35.4921 7.86066 2
      vertex 35.4921 7.86066 4
      vertex 35.7101 8.61732 4
    endloop
  endfacet
  facet normal -0.85411 0.520093 0
    outer loop
      vertex 35.1287 7.26399 2
      vertex 35.4921 7.86066 4
      vertex 35.4921 7.86066 2
    endloop
  endfacet
  facet normal -0.85411 0.520093 0
    outer loop
      vertex 35.1287 7.26399 2
      vertex 35.1287 7.26399 4
      vertex 35.4921 7.86066 4
    endloop
  endfacet
  facet normal -0.66066 0.750685 0
    outer loop
      vertex 34.6395 6.83344 2
      vertex 35.1287 7.26399 4
      vertex 35.1287 7.26399 2
    endloop
  endfacet
  facet normal -0.66066 0.750685 0
    outer loop
      vertex 34.6395 6.83344 2
      vertex 34.6395 6.83344 4
      vertex 35.1287 7.26399 4
    endloop
  endfacet
  facet normal -0.397875 0.91744 0
    outer loop
      vertex 34.0438 6.5751 2
      vertex 34.6395 6.83344 4
      vertex 34.6395 6.83344 2
    endloop
  endfacet
  facet normal -0.397875 0.91744 0
    outer loop
      vertex 34.0438 6.5751 2
      vertex 34.0438 6.5751 4
      vertex 34.6395 6.83344 4
    endloop
  endfacet
  facet normal -0.121727 0.992564 0
    outer loop
      vertex 33.3417 6.489 2
      vertex 34.0438 6.5751 4
      vertex 34.0438 6.5751 2
    endloop
  endfacet
  facet normal -0.121727 0.992564 0
    outer loop
      vertex 33.3417 6.489 2
      vertex 33.3417 6.489 4
      vertex 34.0438 6.5751 4
    endloop
  endfacet
  facet normal 0.119474 0.992837 0
    outer loop
      vertex 32.6898 6.56744 2
      vertex 33.3417 6.489 4
      vertex 33.3417 6.489 2
    endloop
  endfacet
  facet normal 0.119474 0.992837 -0
    outer loop
      vertex 32.6898 6.56744 2
      vertex 32.6898 6.56744 4
      vertex 33.3417 6.489 4
    endloop
  endfacet
  facet normal 0.379134 0.925342 0
    outer loop
      vertex 32.1155 6.80276 2
      vertex 32.6898 6.56744 4
      vertex 32.6898 6.56744 2
    endloop
  endfacet
  facet normal 0.379134 0.925342 -0
    outer loop
      vertex 32.1155 6.80276 2
      vertex 32.1155 6.80276 4
      vertex 32.6898 6.56744 4
    endloop
  endfacet
  facet normal 0.619676 0.784858 0
    outer loop
      vertex 31.6187 7.19499 2
      vertex 32.1155 6.80276 4
      vertex 32.1155 6.80276 2
    endloop
  endfacet
  facet normal 0.619676 0.784858 -0
    outer loop
      vertex 31.6187 7.19499 2
      vertex 31.6187 7.19499 4
      vertex 32.1155 6.80276 4
    endloop
  endfacet
  facet normal 0.797259 0.603637 0
    outer loop
      vertex 31.2159 7.7271 2
      vertex 31.6187 7.19499 4
      vertex 31.6187 7.19499 2
    endloop
  endfacet
  facet normal 0.797259 0.603637 -0
    outer loop
      vertex 31.2159 7.7271 2
      vertex 31.2159 7.7271 4
      vertex 31.6187 7.19499 4
    endloop
  endfacet
  facet normal 0.912312 0.409496 0
    outer loop
      vertex 30.9218 8.38211 2
      vertex 31.2159 7.7271 4
      vertex 31.2159 7.7271 2
    endloop
  endfacet
  facet normal 0.912312 0.409496 -0
    outer loop
      vertex 30.9218 8.38211 2
      vertex 30.9218 8.38211 4
      vertex 31.2159 7.7271 4
    endloop
  endfacet
  facet normal 0.972836 0.231497 0
    outer loop
      vertex 30.7367 9.15999 2
      vertex 30.9218 8.38211 4
      vertex 30.9218 8.38211 2
    endloop
  endfacet
  facet normal 0.972836 0.231497 -0
    outer loop
      vertex 30.7367 9.15999 2
      vertex 30.7367 9.15999 4
      vertex 30.9218 8.38211 4
    endloop
  endfacet
  facet normal -0.163452 0.986551 0
    outer loop
      vertex 28.7087 8.82399 2
      vertex 30.7367 9.15999 4
      vertex 30.7367 9.15999 2
    endloop
  endfacet
  facet normal -0.163452 0.986551 0
    outer loop
      vertex 28.7087 8.82399 2
      vertex 28.7087 8.82399 4
      vertex 30.7367 9.15999 4
    endloop
  endfacet
  facet normal -0.936207 -0.35145 0
    outer loop
      vertex 29.5463 6.59288 2
      vertex 28.7087 8.82399 4
      vertex 28.7087 8.82399 2
    endloop
  endfacet
  facet normal -0.936207 -0.35145 0
    outer loop
      vertex 29.5463 6.59288 2
      vertex 29.5463 6.59288 4
      vertex 28.7087 8.82399 4
    endloop
  endfacet
  facet normal -0.655889 -0.754858 0
    outer loop
      vertex 31.087 5.25421 2
      vertex 29.5463 6.59288 4
      vertex 29.5463 6.59288 2
    endloop
  endfacet
  facet normal -0.655889 -0.754858 0
    outer loop
      vertex 31.087 5.25421 2
      vertex 31.087 5.25421 4
      vertex 29.5463 6.59288 4
    endloop
  endfacet
  facet normal -0.195041 -0.980795 0
    outer loop
      vertex 33.3307 4.80801 2
      vertex 31.087 5.25421 4
      vertex 31.087 5.25421 2
    endloop
  endfacet
  facet normal -0.195041 -0.980795 0
    outer loop
      vertex 33.3307 4.80801 2
      vertex 33.3307 4.80801 4
      vertex 31.087 5.25421 4
    endloop
  endfacet
  facet normal 0.108139 -0.994136 0
    outer loop
      vertex 34.631 4.94945 2
      vertex 33.3307 4.80801 4
      vertex 33.3307 4.80801 2
    endloop
  endfacet
  facet normal 0.108139 -0.994136 0
    outer loop
      vertex 34.631 4.94945 2
      vertex 34.631 4.94945 4
      vertex 33.3307 4.80801 4
    endloop
  endfacet
endsolid OpenSCAD_Model
