solid OpenSCAD_Model
  facet normal 0 -0 -1
    outer loop
      vertex 20.1595 9.56599 2
      vertex 21.9978 8.52455 2
      vertex 19.7772 8.47299 2
    endloop
  endfacet
  facet normal 0 0 -1
    outer loop
      vertex 20.1595 9.56599 2
      vertex 22.2604 9.59021 2
      vertex 21.9978 8.52455 2
    endloop
  endfacet
  facet normal 0 0 -1
    outer loop
      vertex 21.9978 8.52455 2
      vertex 21.56 7.57199 2
      vertex 19.7772 8.47299 2
    endloop
  endfacet
  facet normal 0 -0 -1
    outer loop
      vertex 34.2687 6.82199 2
      vertex 35.4397 5 2
      vertex 32.9677 5 2
    endloop
  endfacet
  facet normal 0 0 -1
    outer loop
      vertex 20.1595 9.56599 2
      vertex 20.287 10.889 2
      vertex 22.2604 9.59021 2
    endloop
  endfacet
  facet normal 0 0 -1
    outer loop
      vertex 19.14 7.60999 2
      vertex 19.7772 8.47299 2
      vertex 20.9629 6.74643 2
    endloop
  endfacet
  facet normal -0 0 -1
    outer loop
      vertex 22.348 10.769 2
      vertex 22.2604 9.59021 2
      vertex 20.287 10.889 2
    endloop
  endfacet
  facet normal -0 0 -1
    outer loop
      vertex 34.2687 6.82199 2
      vertex 32.9677 5 2
      vertex 33.985 8.09854 2
    endloop
  endfacet
  facet normal 0 0 -1
    outer loop
      vertex 20.2209 6.06177 2
      vertex 19.14 7.60999 2
      vertex 20.9629 6.74643 2
    endloop
  endfacet
  facet normal 0 -0 -1
    outer loop
      vertex 19.14 7.60999 2
      vertex 19.334 5.51799 2
      vertex 18.2738 6.98721 2
    endloop
  endfacet
  facet normal 0 0 -1
    outer loop
      vertex 20.287 10.889 2
      vertex 20.287 20.296 2
      vertex 22.348 20.296 2
    endloop
  endfacet
  facet normal 0 -0 -1
    outer loop
      vertex 35.3586 11.2622 2
      vertex 37.0004 10.6679 2
      vertex 34.8717 9.42699 2
    endloop
  endfacet
  facet normal 0 0 -1
    outer loop
      vertex 17.2031 6.61354 2
      vertex 18.2738 6.98721 2
      vertex 18.3173 5.12355 2
    endloop
  endfacet
  facet normal -0 0 -1
    outer loop
      vertex 17.186 4.8869 2
      vertex 15.94 4.80801 2
      vertex 15.928 6.489 2
    endloop
  endfacet
  facet normal 0 0 -1
    outer loop
      vertex 22.348 10.769 2
      vertex 20.287 10.889 2
      vertex 22.348 20.296 2
    endloop
  endfacet
  facet normal 0 0 -1
    outer loop
      vertex 17.186 4.8869 2
      vertex 15.928 6.489 2
      vertex 17.2031 6.61354 2
    endloop
  endfacet
  facet normal 0 0 -1
    outer loop
      vertex 19.7772 8.47299 2
      vertex 21.56 7.57199 2
      vertex 20.9629 6.74643 2
    endloop
  endfacet
  facet normal 0 0 -1
    outer loop
      vertex 17.186 4.8869 2
      vertex 17.2031 6.61354 2
      vertex 18.3173 5.12355 2
    endloop
  endfacet
  facet normal -0 0 -1
    outer loop
      vertex 20.2209 6.06177 2
      vertex 19.334 5.51799 2
      vertex 19.14 7.60999 2
    endloop
  endfacet
  facet normal 0 0 -1
    outer loop
      vertex 18.2738 6.98721 2
      vertex 19.334 5.51799 2
      vertex 18.3173 5.12355 2
    endloop
  endfacet
  facet normal -0 0 -1
    outer loop
      vertex 15.928 6.489 2
      vertex 14.7403 4.8839 2
      vertex 14.6924 6.60944 2
    endloop
  endfacet
  facet normal 0 0 -1
    outer loop
      vertex 12.659 5.491 2
      vertex 12.852 7.573 2
      vertex 13.6671 6.97076 2
    endloop
  endfacet
  facet normal 0 0 -1
    outer loop
      vertex 10.487 7.474 2
      vertex 12.2603 8.40755 2
      vertex 11.071 6.67589 2
    endloop
  endfacet
  facet normal 0 0 -1
    outer loop
      vertex 10.487 7.474 2
      vertex 10.0587 8.39665 2
      vertex 12.2603 8.40755 2
    endloop
  endfacet
  facet normal 0 0 -1
    outer loop
      vertex 10.0587 8.39665 2
      vertex 9.80167 9.42999 2
      vertex 11.9053 9.46588 2
    endloop
  endfacet
  facet normal -0 0 -1
    outer loop
      vertex 11.9053 9.46588 2
      vertex 9.80167 9.42999 2
      vertex 11.787 10.748 2
    endloop
  endfacet
  facet normal -0 0 -1
    outer loop
      vertex 11.787 10.748 2
      vertex 9.71599 10.574 2
      vertex 9.71599 20.296 2
    endloop
  endfacet
  facet normal -0 -0 -1
    outer loop
      vertex 11.787 20.296 2
      vertex 11.787 10.748 2
      vertex 9.71599 20.296 2
    endloop
  endfacet
  facet normal 0 0 -1
    outer loop
      vertex 11.787 10.748 2
      vertex 9.80167 9.42999 2
      vertex 9.71599 10.574 2
    endloop
  endfacet
  facet normal -0 0 -1
    outer loop
      vertex 12.2603 8.40755 2
      vertex 10.0587 8.39665 2
      vertex 11.9053 9.46588 2
    endloop
  endfacet
  facet normal 0 0 -1
    outer loop
      vertex 11.071 6.67589 2
      vertex 12.2603 8.40755 2
      vertex 12.852 7.573 2
    endloop
  endfacet
  facet normal 0 0 -1
    outer loop
      vertex 11.795 6.01488 2
      vertex 11.071 6.67589 2
      vertex 12.852 7.573 2
    endloop
  endfacet
  facet normal 0 0 -1
    outer loop
      vertex 12.659 5.491 2
      vertex 11.795 6.01488 2
      vertex 12.852 7.573 2
    endloop
  endfacet
  facet normal 0 0 -1
    outer loop
      vertex 13.6467 5.11154 2
      vertex 12.659 5.491 2
      vertex 13.6671 6.97076 2
    endloop
  endfacet
  facet normal -0 0 -1
    outer loop
      vertex 14.6924 6.60944 2
      vertex 13.6467 5.11154 2
      vertex 13.6671 6.97076 2
    endloop
  endfacet
  facet normal 0 -0 -1
    outer loop
      vertex 14.6924 6.60944 2
      vertex 14.7403 4.8839 2
      vertex 13.6467 5.11154 2
    endloop
  endfacet
  facet normal 0 -0 -1
    outer loop
      vertex 15.928 6.489 2
      vertex 15.94 4.80801 2
      vertex 14.7403 4.8839 2
    endloop
  endfacet
  facet normal 0 -0 -1
    outer loop
      vertex 34.4517 7.64211 2
      vertex 35.4397 5 2
      vertex 34.2687 6.82199 2
    endloop
  endfacet
  facet normal 0 -0 -1
    outer loop
      vertex 36.3633 14.8852 2
      vertex 37.9891 14.2942 2
      vertex 35.3586 11.2622 2
    endloop
  endfacet
  facet normal 0 0 -1
    outer loop
      vertex 28.4587 20.296 2
      vertex 30.6167 20.296 2
      vertex 33.3667 10.579 2
    endloop
  endfacet
  facet normal 0 0 -1
    outer loop
      vertex 36.3633 14.8852 2
      vertex 38.7053 17.1919 2
      vertex 38.4057 15.879 2
    endloop
  endfacet
  facet normal 0 0 -1
    outer loop
      vertex 36.3633 14.8852 2
      vertex 37.8857 20.296 2
      vertex 38.7053 17.1919 2
    endloop
  endfacet
  facet normal 0 0 -1
    outer loop
      vertex 38.7053 17.1919 2
      vertex 37.8857 20.296 2
      vertex 38.8837 17.986 2
    endloop
  endfacet
  facet normal 0 0 -1
    outer loop
      vertex 45.5043 14.5024 2
      vertex 47.1187 20.296 2
      vertex 49.2767 20.296 2
    endloop
  endfacet
  facet normal 0 0 -1
    outer loop
      vertex 42.2967 5 2
      vertex 43.2278 7.98021 2
      vertex 43.4887 6.82199 2
    endloop
  endfacet
  facet normal 0 0 -1
    outer loop
      vertex 45.5043 14.5024 2
      vertex 44.7687 5 2
      vertex 44.4863 10.8164 2
    endloop
  endfacet
  facet normal 0 0 -1
    outer loop
      vertex 36.3633 14.8852 2
      vertex 38.4057 15.879 2
      vertex 37.9891 14.2942 2
    endloop
  endfacet
  facet normal 0 0 -1
    outer loop
      vertex 44.7687 5 2
      vertex 45.5043 14.5024 2
      vertex 49.2767 20.296 2
    endloop
  endfacet
  facet normal 0 0 -1
    outer loop
      vertex 38.8837 17.986 2
      vertex 37.8857 20.296 2
      vertex 39.8697 20.296 2
    endloop
  endfacet
  facet normal 0 -0 -1
    outer loop
      vertex 44.4863 10.8164 2
      vertex 44.7687 5 2
      vertex 44.0647 9.23799 2
    endloop
  endfacet
  facet normal 0 -0 -1
    outer loop
      vertex 44.0647 9.23799 2
      vertex 44.7687 5 2
      vertex 43.5867 7.202 2
    endloop
  endfacet
  facet normal 0 -0 -1
    outer loop
      vertex 43.5867 7.202 2
      vertex 44.7687 5 2
      vertex 43.4887 6.82199 2
    endloop
  endfacet
  facet normal 0 -0 -1
    outer loop
      vertex 43.4887 6.82199 2
      vertex 44.7687 5 2
      vertex 42.2967 5 2
    endloop
  endfacet
  facet normal -0 0 -1
    outer loop
      vertex 43.2278 7.98021 2
      vertex 42.2967 5 2
      vertex 42.9092 9.29755 2
    endloop
  endfacet
  facet normal -0 0 -1
    outer loop
      vertex 42.9092 9.29755 2
      vertex 42.2967 5 2
      vertex 42.5327 10.774 2
    endloop
  endfacet
  facet normal -0 0 -1
    outer loop
      vertex 42.5327 10.774 2
      vertex 42.2967 5 2
      vertex 39.6447 14.718 2
    endloop
  endfacet
  facet normal 0 0 -1
    outer loop
      vertex 38.8837 17.986 2
      vertex 39.8697 20.296 2
      vertex 39.1905 16.5758 2
    endloop
  endfacet
  facet normal 0 0 -1
    outer loop
      vertex 39.6447 14.718 2
      vertex 39.4442 15.4864 2
      vertex 42.5327 10.774 2
    endloop
  endfacet
  facet normal 0 0 -1
    outer loop
      vertex 39.4442 15.4864 2
      vertex 39.8697 20.296 2
      vertex 42.5327 10.774 2
    endloop
  endfacet
  facet normal 0 0 -1
    outer loop
      vertex 39.1905 16.5758 2
      vertex 39.8697 20.296 2
      vertex 39.4442 15.4864 2
    endloop
  endfacet
  facet normal 0 0 -1
    outer loop
      vertex 35.3586 11.2622 2
      vertex 37.9891 14.2942 2
      vertex 37.0004 10.6679 2
    endloop
  endfacet
  facet normal -0 0 -1
    outer loop
      vertex 33.985 8.09854 2
      vertex 32.9677 5 2
      vertex 33.6843 9.35088 2
    endloop
  endfacet
  facet normal 0 -0 -1
    outer loop
      vertex 34.8717 9.42699 2
      vertex 37.0004 10.6679 2
      vertex 34.6527 8.51044 2
    endloop
  endfacet
  facet normal 0 0 -1
    outer loop
      vertex 34.6527 8.51044 2
      vertex 37.0004 10.6679 2
      vertex 35.4397 5 2
    endloop
  endfacet
  facet normal 0 0 -1
    outer loop
      vertex 34.4517 7.64211 2
      vertex 34.6527 8.51044 2
      vertex 35.4397 5 2
    endloop
  endfacet
  facet normal -0 0 -1
    outer loop
      vertex 33.3667 10.579 2
      vertex 32.9677 5 2
      vertex 28.4587 20.296 2
    endloop
  endfacet
  facet normal -0 0 -1
    outer loop
      vertex 33.6843 9.35088 2
      vertex 32.9677 5 2
      vertex 33.3667 10.579 2
    endloop
  endfacet
  facet normal 0 0 1
    outer loop
      vertex 19.7772 8.47299 4
      vertex 21.9978 8.52455 4
      vertex 20.1595 9.56599 4
    endloop
  endfacet
  facet normal 0 -0 1
    outer loop
      vertex 21.9978 8.52455 4
      vertex 22.2604 9.59021 4
      vertex 20.1595 9.56599 4
    endloop
  endfacet
  facet normal -0 0 1
    outer loop
      vertex 19.7772 8.47299 4
      vertex 21.56 7.57199 4
      vertex 21.9978 8.52455 4
    endloop
  endfacet
  facet normal 0 0 1
    outer loop
      vertex 32.9677 5 4
      vertex 35.4397 5 4
      vertex 34.2687 6.82199 4
    endloop
  endfacet
  facet normal 0 0 1
    outer loop
      vertex 22.2604 9.59021 4
      vertex 20.287 10.889 4
      vertex 20.1595 9.56599 4
    endloop
  endfacet
  facet normal 0 0 1
    outer loop
      vertex 20.9629 6.74643 4
      vertex 19.7772 8.47299 4
      vertex 19.14 7.60999 4
    endloop
  endfacet
  facet normal 0 0 1
    outer loop
      vertex 20.287 10.889 4
      vertex 22.2604 9.59021 4
      vertex 22.348 10.769 4
    endloop
  endfacet
  facet normal 0 0 1
    outer loop
      vertex 33.985 8.09854 4
      vertex 32.9677 5 4
      vertex 34.2687 6.82199 4
    endloop
  endfacet
  facet normal 0 0 1
    outer loop
      vertex 20.9629 6.74643 4
      vertex 19.14 7.60999 4
      vertex 20.2209 6.06177 4
    endloop
  endfacet
  facet normal -0 0 1
    outer loop
      vertex 18.2738 6.98721 4
      vertex 19.334 5.51799 4
      vertex 19.14 7.60999 4
    endloop
  endfacet
  facet normal 0 0 1
    outer loop
      vertex 22.348 20.296 4
      vertex 20.287 20.296 4
      vertex 20.287 10.889 4
    endloop
  endfacet
  facet normal 0 0 1
    outer loop
      vertex 34.8717 9.42699 4
      vertex 37.0004 10.6679 4
      vertex 35.3586 11.2622 4
    endloop
  endfacet
  facet normal 0 0 1
    outer loop
      vertex 18.3173 5.12355 4
      vertex 18.2738 6.98721 4
      vertex 17.2031 6.61354 4
    endloop
  endfacet
  facet normal 0 0 1
    outer loop
      vertex 15.928 6.489 4
      vertex 15.94 4.80801 4
      vertex 17.186 4.8869 4
    endloop
  endfacet
  facet normal 0 0 1
    outer loop
      vertex 22.348 20.296 4
      vertex 20.287 10.889 4
      vertex 22.348 10.769 4
    endloop
  endfacet
  facet normal 0 0 1
    outer loop
      vertex 17.2031 6.61354 4
      vertex 15.928 6.489 4
      vertex 17.186 4.8869 4
    endloop
  endfacet
  facet normal 0 -0 1
    outer loop
      vertex 20.9629 6.74643 4
      vertex 21.56 7.57199 4
      vertex 19.7772 8.47299 4
    endloop
  endfacet
  facet normal 0 0 1
    outer loop
      vertex 18.3173 5.12355 4
      vertex 17.2031 6.61354 4
      vertex 17.186 4.8869 4
    endloop
  endfacet
  facet normal 0 0 1
    outer loop
      vertex 19.14 7.60999 4
      vertex 19.334 5.51799 4
      vertex 20.2209 6.06177 4
    endloop
  endfacet
  facet normal 0 -0 1
    outer loop
      vertex 18.3173 5.12355 4
      vertex 19.334 5.51799 4
      vertex 18.2738 6.98721 4
    endloop
  endfacet
  facet normal 0 0 1
    outer loop
      vertex 14.6924 6.60944 4
      vertex 14.7403 4.8839 4
      vertex 15.928 6.489 4
    endloop
  endfacet
  facet normal 0 0 1
    outer loop
      vertex 13.6671 6.97076 4
      vertex 12.852 7.573 4
      vertex 12.659 5.491 4
    endloop
  endfacet
  facet normal 0 -0 1
    outer loop
      vertex 11.071 6.67589 4
      vertex 12.2603 8.40755 4
      vertex 10.487 7.474 4
    endloop
  endfacet
  facet normal 0 0 1
    outer loop
      vertex 12.2603 8.40755 4
      vertex 10.0587 8.39665 4
      vertex 10.487 7.474 4
    endloop
  endfacet
  facet normal 0 0 1
    outer loop
      vertex 11.9053 9.46588 4
      vertex 9.80167 9.42999 4
      vertex 10.0587 8.39665 4
    endloop
  endfacet
  facet normal 0 0 1
    outer loop
      vertex 11.787 10.748 4
      vertex 9.80167 9.42999 4
      vertex 11.9053 9.46588 4
    endloop
  endfacet
  facet normal 0 0 1
    outer loop
      vertex 9.71599 20.296 4
      vertex 9.71599 10.574 4
      vertex 11.787 10.748 4
    endloop
  endfacet
  facet normal -0 0 1
    outer loop
      vertex 9.71599 20.296 4
      vertex 11.787 10.748 4
      vertex 11.787 20.296 4
    endloop
  endfacet
  facet normal -0 0 1
    outer loop
      vertex 9.71599 10.574 4
      vertex 9.80167 9.42999 4
      vertex 11.787 10.748 4
    endloop
  endfacet
  facet normal 0 0 1
    outer loop
      vertex 11.9053 9.46588 4
      vertex 10.0587 8.39665 4
      vertex 12.2603 8.40755 4
    endloop
  endfacet
  facet normal 0 0 1
    outer loop
      vertex 12.852 7.573 4
      vertex 12.2603 8.40755 4
      vertex 11.071 6.67589 4
    endloop
  endfacet
  facet normal 0 0 1
    outer loop
      vertex 12.852 7.573 4
      vertex 11.071 6.67589 4
      vertex 11.795 6.01488 4
    endloop
  endfacet
  facet normal 0 0 1
    outer loop
      vertex 12.852 7.573 4
      vertex 11.795 6.01488 4
      vertex 12.659 5.491 4
    endloop
  endfacet
  facet normal 0 0 1
    outer loop
      vertex 13.6671 6.97076 4
      vertex 12.659 5.491 4
      vertex 13.6467 5.11154 4
    endloop
  endfacet
  facet normal 0 0 1
    outer loop
      vertex 13.6671 6.97076 4
      vertex 13.6467 5.11154 4
      vertex 14.6924 6.60944 4
    endloop
  endfacet
  facet normal -0 0 1
    outer loop
      vertex 13.6467 5.11154 4
      vertex 14.7403 4.8839 4
      vertex 14.6924 6.60944 4
    endloop
  endfacet
  facet normal -0 0 1
    outer loop
      vertex 14.7403 4.8839 4
      vertex 15.94 4.80801 4
      vertex 15.928 6.489 4
    endloop
  endfacet
  facet normal -0 0 1
    outer loop
      vertex 34.2687 6.82199 4
      vertex 35.4397 5 4
      vertex 34.4517 7.64211 4
    endloop
  endfacet
  facet normal 0 0 1
    outer loop
      vertex 35.3586 11.2622 4
      vertex 37.9891 14.2942 4
      vertex 36.3633 14.8852 4
    endloop
  endfacet
  facet normal 0 0 1
    outer loop
      vertex 33.3667 10.579 4
      vertex 30.6167 20.296 4
      vertex 28.4587 20.296 4
    endloop
  endfacet
  facet normal 0 -0 1
    outer loop
      vertex 38.4057 15.879 4
      vertex 38.7053 17.1919 4
      vertex 36.3633 14.8852 4
    endloop
  endfacet
  facet normal 0 0 1
    outer loop
      vertex 38.7053 17.1919 4
      vertex 37.8857 20.296 4
      vertex 36.3633 14.8852 4
    endloop
  endfacet
  facet normal 0 0 1
    outer loop
      vertex 38.8837 17.986 4
      vertex 37.8857 20.296 4
      vertex 38.7053 17.1919 4
    endloop
  endfacet
  facet normal 0 0 1
    outer loop
      vertex 49.2767 20.296 4
      vertex 47.1187 20.296 4
      vertex 45.5043 14.5024 4
    endloop
  endfacet
  facet normal 0 0 1
    outer loop
      vertex 43.4887 6.82199 4
      vertex 43.2278 7.98021 4
      vertex 42.2967 5 4
    endloop
  endfacet
  facet normal -0 0 1
    outer loop
      vertex 44.4863 10.8164 4
      vertex 44.7687 5 4
      vertex 45.5043 14.5024 4
    endloop
  endfacet
  facet normal 0 -0 1
    outer loop
      vertex 37.9891 14.2942 4
      vertex 38.4057 15.879 4
      vertex 36.3633 14.8852 4
    endloop
  endfacet
  facet normal 0 0 1
    outer loop
      vertex 49.2767 20.296 4
      vertex 45.5043 14.5024 4
      vertex 44.7687 5 4
    endloop
  endfacet
  facet normal 0 0 1
    outer loop
      vertex 39.8697 20.296 4
      vertex 37.8857 20.296 4
      vertex 38.8837 17.986 4
    endloop
  endfacet
  facet normal -0 0 1
    outer loop
      vertex 44.0647 9.23799 4
      vertex 44.7687 5 4
      vertex 44.4863 10.8164 4
    endloop
  endfacet
  facet normal -0 0 1
    outer loop
      vertex 43.5867 7.202 4
      vertex 44.7687 5 4
      vertex 44.0647 9.23799 4
    endloop
  endfacet
  facet normal -0 0 1
    outer loop
      vertex 43.4887 6.82199 4
      vertex 44.7687 5 4
      vertex 43.5867 7.202 4
    endloop
  endfacet
  facet normal 0 0 1
    outer loop
      vertex 42.2967 5 4
      vertex 44.7687 5 4
      vertex 43.4887 6.82199 4
    endloop
  endfacet
  facet normal 0 0 1
    outer loop
      vertex 42.9092 9.29755 4
      vertex 42.2967 5 4
      vertex 43.2278 7.98021 4
    endloop
  endfacet
  facet normal 0 0 1
    outer loop
      vertex 42.5327 10.774 4
      vertex 42.2967 5 4
      vertex 42.9092 9.29755 4
    endloop
  endfacet
  facet normal 0 0 1
    outer loop
      vertex 39.6447 14.718 4
      vertex 42.2967 5 4
      vertex 42.5327 10.774 4
    endloop
  endfacet
  facet normal 0 -0 1
    outer loop
      vertex 39.1905 16.5758 4
      vertex 39.8697 20.296 4
      vertex 38.8837 17.986 4
    endloop
  endfacet
  facet normal 0 0 1
    outer loop
      vertex 42.5327 10.774 4
      vertex 39.4442 15.4864 4
      vertex 39.6447 14.718 4
    endloop
  endfacet
  facet normal 0 0 1
    outer loop
      vertex 42.5327 10.774 4
      vertex 39.8697 20.296 4
      vertex 39.4442 15.4864 4
    endloop
  endfacet
  facet normal 0 -0 1
    outer loop
      vertex 39.4442 15.4864 4
      vertex 39.8697 20.296 4
      vertex 39.1905 16.5758 4
    endloop
  endfacet
  facet normal 0 -0 1
    outer loop
      vertex 37.0004 10.6679 4
      vertex 37.9891 14.2942 4
      vertex 35.3586 11.2622 4
    endloop
  endfacet
  facet normal 0 0 1
    outer loop
      vertex 33.6843 9.35088 4
      vertex 32.9677 5 4
      vertex 33.985 8.09854 4
    endloop
  endfacet
  facet normal 0 0 1
    outer loop
      vertex 34.6527 8.51044 4
      vertex 37.0004 10.6679 4
      vertex 34.8717 9.42699 4
    endloop
  endfacet
  facet normal 0 -0 1
    outer loop
      vertex 35.4397 5 4
      vertex 37.0004 10.6679 4
      vertex 34.6527 8.51044 4
    endloop
  endfacet
  facet normal 0 0 1
    outer loop
      vertex 35.4397 5 4
      vertex 34.6527 8.51044 4
      vertex 34.4517 7.64211 4
    endloop
  endfacet
  facet normal 0 0 1
    outer loop
      vertex 28.4587 20.296 4
      vertex 32.9677 5 4
      vertex 33.3667 10.579 4
    endloop
  endfacet
  facet normal 0 0 1
    outer loop
      vertex 33.3667 10.579 4
      vertex 32.9677 5 4
      vertex 33.6843 9.35088 4
    endloop
  endfacet
  facet normal 0.204745 -0.978815 0
    outer loop
      vertex 18.3173 5.12355 2
      vertex 17.186 4.8869 4
      vertex 17.186 4.8869 2
    endloop
  endfacet
  facet normal 0.204745 -0.978815 0
    outer loop
      vertex 18.3173 5.12355 2
      vertex 18.3173 5.12355 4
      vertex 17.186 4.8869 4
    endloop
  endfacet
  facet normal 0.361701 -0.932294 0
    outer loop
      vertex 19.334 5.51799 2
      vertex 18.3173 5.12355 4
      vertex 18.3173 5.12355 2
    endloop
  endfacet
  facet normal 0.361701 -0.932294 0
    outer loop
      vertex 19.334 5.51799 2
      vertex 19.334 5.51799 4
      vertex 18.3173 5.12355 4
    endloop
  endfacet
  facet normal 0.522703 -0.852515 0
    outer loop
      vertex 20.2209 6.06177 2
      vertex 19.334 5.51799 4
      vertex 19.334 5.51799 2
    endloop
  endfacet
  facet normal 0.522703 -0.852515 0
    outer loop
      vertex 20.2209 6.06177 2
      vertex 20.2209 6.06177 4
      vertex 19.334 5.51799 4
    endloop
  endfacet
  facet normal 0.678146 -0.734927 0
    outer loop
      vertex 20.9629 6.74643 2
      vertex 20.2209 6.06177 4
      vertex 20.2209 6.06177 2
    endloop
  endfacet
  facet normal 0.678146 -0.734927 0
    outer loop
      vertex 20.9629 6.74643 2
      vertex 20.9629 6.74643 4
      vertex 20.2209 6.06177 4
    endloop
  endfacet
  facet normal 0.810268 -0.58606 0
    outer loop
      vertex 21.56 7.57199 2
      vertex 20.9629 6.74643 4
      vertex 20.9629 6.74643 2
    endloop
  endfacet
  facet normal 0.810268 -0.58606 0
    outer loop
      vertex 21.56 7.57199 2
      vertex 21.56 7.57199 4
      vertex 20.9629 6.74643 4
    endloop
  endfacet
  facet normal 0.908636 -0.417588 0
    outer loop
      vertex 21.9978 8.52455 2
      vertex 21.56 7.57199 4
      vertex 21.56 7.57199 2
    endloop
  endfacet
  facet normal 0.908636 -0.417588 0
    outer loop
      vertex 21.9978 8.52455 2
      vertex 21.9978 8.52455 4
      vertex 21.56 7.57199 4
    endloop
  endfacet
  facet normal 0.970941 -0.239319 0
    outer loop
      vertex 22.2604 9.59021 2
      vertex 21.9978 8.52455 4
      vertex 21.9978 8.52455 2
    endloop
  endfacet
  facet normal 0.970941 -0.239319 0
    outer loop
      vertex 22.2604 9.59021 2
      vertex 22.2604 9.59021 4
      vertex 21.9978 8.52455 4
    endloop
  endfacet
  facet normal 0.997253 -0.0740714 0
    outer loop
      vertex 22.348 10.769 2
      vertex 22.2604 9.59021 4
      vertex 22.2604 9.59021 2
    endloop
  endfacet
  facet normal 0.997253 -0.0740714 0
    outer loop
      vertex 22.348 10.769 2
      vertex 22.348 10.769 4
      vertex 22.2604 9.59021 4
    endloop
  endfacet
  facet normal 1 0 0
    outer loop
      vertex 22.348 20.296 2
      vertex 22.348 10.769 4
      vertex 22.348 10.769 2
    endloop
  endfacet
  facet normal 1 0 -0
    outer loop
      vertex 22.348 20.296 2
      vertex 22.348 20.296 4
      vertex 22.348 10.769 4
    endloop
  endfacet
  facet normal 0 1 0
    outer loop
      vertex 20.287 20.296 2
      vertex 22.348 20.296 4
      vertex 22.348 20.296 2
    endloop
  endfacet
  facet normal 0 1 0
    outer loop
      vertex 20.287 20.296 2
      vertex 20.287 20.296 4
      vertex 22.348 20.296 4
    endloop
  endfacet
  facet normal -1 0 0
    outer loop
      vertex 20.287 10.889 2
      vertex 20.287 20.296 4
      vertex 20.287 20.296 2
    endloop
  endfacet
  facet normal -1 0 0
    outer loop
      vertex 20.287 10.889 2
      vertex 20.287 10.889 4
      vertex 20.287 20.296 4
    endloop
  endfacet
  facet normal -0.995393 0.0958839 0
    outer loop
      vertex 20.1595 9.56599 2
      vertex 20.287 10.889 4
      vertex 20.287 10.889 2
    endloop
  endfacet
  facet normal -0.995393 0.0958839 0
    outer loop
      vertex 20.1595 9.56599 2
      vertex 20.1595 9.56599 4
      vertex 20.287 10.889 4
    endloop
  endfacet
  facet normal -0.943919 0.330176 0
    outer loop
      vertex 19.7772 8.47299 2
      vertex 20.1595 9.56599 4
      vertex 20.1595 9.56599 2
    endloop
  endfacet
  facet normal -0.943919 0.330176 0
    outer loop
      vertex 19.7772 8.47299 2
      vertex 19.7772 8.47299 4
      vertex 20.1595 9.56599 4
    endloop
  endfacet
  facet normal -0.804467 0.593998 0
    outer loop
      vertex 19.14 7.60999 2
      vertex 19.7772 8.47299 4
      vertex 19.7772 8.47299 2
    endloop
  endfacet
  facet normal -0.804467 0.593998 0
    outer loop
      vertex 19.14 7.60999 2
      vertex 19.14 7.60999 4
      vertex 19.7772 8.47299 4
    endloop
  endfacet
  facet normal -0.583742 0.811939 0
    outer loop
      vertex 18.2738 6.98721 2
      vertex 19.14 7.60999 4
      vertex 19.14 7.60999 2
    endloop
  endfacet
  facet normal -0.583742 0.811939 0
    outer loop
      vertex 18.2738 6.98721 2
      vertex 18.2738 6.98721 4
      vertex 19.14 7.60999 4
    endloop
  endfacet
  facet normal -0.329518 0.944149 0
    outer loop
      vertex 17.2031 6.61354 2
      vertex 18.2738 6.98721 4
      vertex 18.2738 6.98721 2
    endloop
  endfacet
  facet normal -0.329518 0.944149 0
    outer loop
      vertex 17.2031 6.61354 2
      vertex 17.2031 6.61354 4
      vertex 18.2738 6.98721 4
    endloop
  endfacet
  facet normal -0.0972087 0.995264 0
    outer loop
      vertex 15.928 6.489 2
      vertex 17.2031 6.61354 4
      vertex 17.2031 6.61354 2
    endloop
  endfacet
  facet normal -0.0972087 0.995264 0
    outer loop
      vertex 15.928 6.489 2
      vertex 15.928 6.489 4
      vertex 17.2031 6.61354 4
    endloop
  endfacet
  facet normal 0.0970171 0.995283 0
    outer loop
      vertex 14.6924 6.60944 2
      vertex 15.928 6.489 4
      vertex 15.928 6.489 2
    endloop
  endfacet
  facet normal 0.0970171 0.995283 -0
    outer loop
      vertex 14.6924 6.60944 2
      vertex 14.6924 6.60944 4
      vertex 15.928 6.489 4
    endloop
  endfacet
  facet normal 0.332363 0.943151 0
    outer loop
      vertex 13.6671 6.97076 2
      vertex 14.6924 6.60944 4
      vertex 14.6924 6.60944 2
    endloop
  endfacet
  facet normal 0.332363 0.943151 -0
    outer loop
      vertex 13.6671 6.97076 2
      vertex 13.6671 6.97076 4
      vertex 14.6924 6.60944 4
    endloop
  endfacet
  facet normal 0.594239 0.804288 0
    outer loop
      vertex 12.852 7.573 2
      vertex 13.6671 6.97076 4
      vertex 13.6671 6.97076 2
    endloop
  endfacet
  facet normal 0.594239 0.804288 -0
    outer loop
      vertex 12.852 7.573 2
      vertex 12.852 7.573 4
      vertex 13.6671 6.97076 4
    endloop
  endfacet
  facet normal 0.815784 0.578356 0
    outer loop
      vertex 12.2603 8.40755 2
      vertex 12.852 7.573 4
      vertex 12.852 7.573 2
    endloop
  endfacet
  facet normal 0.815784 0.578356 -0
    outer loop
      vertex 12.2603 8.40755 2
      vertex 12.2603 8.40755 4
      vertex 12.852 7.573 4
    endloop
  endfacet
  facet normal 0.948082 0.318027 0
    outer loop
      vertex 11.9053 9.46588 2
      vertex 12.2603 8.40755 4
      vertex 12.2603 8.40755 2
    endloop
  endfacet
  facet normal 0.948082 0.318027 -0
    outer loop
      vertex 11.9053 9.46588 2
      vertex 11.9053 9.46588 4
      vertex 12.2603 8.40755 4
    endloop
  endfacet
  facet normal 0.995768 0.0919045 0
    outer loop
      vertex 11.787 10.748 2
      vertex 11.9053 9.46588 4
      vertex 11.9053 9.46588 2
    endloop
  endfacet
  facet normal 0.995768 0.0919045 -0
    outer loop
      vertex 11.787 10.748 2
      vertex 11.787 10.748 4
      vertex 11.9053 9.46588 4
    endloop
  endfacet
  facet normal 1 0 0
    outer loop
      vertex 11.787 20.296 2
      vertex 11.787 10.748 4
      vertex 11.787 10.748 2
    endloop
  endfacet
  facet normal 1 0 -0
    outer loop
      vertex 11.787 20.296 2
      vertex 11.787 20.296 4
      vertex 11.787 10.748 4
    endloop
  endfacet
  facet normal 0 1 0
    outer loop
      vertex 9.71599 20.296 2
      vertex 11.787 20.296 4
      vertex 11.787 20.296 2
    endloop
  endfacet
  facet normal 0 1 0
    outer loop
      vertex 9.71599 20.296 2
      vertex 9.71599 20.296 4
      vertex 11.787 20.296 4
    endloop
  endfacet
  facet normal -1 0 0
    outer loop
      vertex 9.71599 10.574 2
      vertex 9.71599 20.296 4
      vertex 9.71599 20.296 2
    endloop
  endfacet
  facet normal -1 0 0
    outer loop
      vertex 9.71599 10.574 2
      vertex 9.71599 10.574 4
      vertex 9.71599 20.296 4
    endloop
  endfacet
  facet normal -0.997207 -0.0746845 0
    outer loop
      vertex 9.80167 9.42999 2
      vertex 9.71599 10.574 4
      vertex 9.71599 10.574 2
    endloop
  endfacet
  facet normal -0.997207 -0.0746845 0
    outer loop
      vertex 9.80167 9.42999 2
      vertex 9.80167 9.42999 4
      vertex 9.71599 10.574 4
    endloop
  endfacet
  facet normal -0.970439 -0.241345 0
    outer loop
      vertex 10.0587 8.39665 2
      vertex 9.80167 9.42999 4
      vertex 9.80167 9.42999 2
    endloop
  endfacet
  facet normal -0.970439 -0.241345 0
    outer loop
      vertex 10.0587 8.39665 2
      vertex 10.0587 8.39665 4
      vertex 9.80167 9.42999 4
    endloop
  endfacet
  facet normal -0.90702 -0.421087 0
    outer loop
      vertex 10.487 7.474 2
      vertex 10.0587 8.39665 4
      vertex 10.0587 8.39665 2
    endloop
  endfacet
  facet normal -0.90702 -0.421087 0
    outer loop
      vertex 10.487 7.474 2
      vertex 10.487 7.474 4
      vertex 10.0587 8.39665 4
    endloop
  endfacet
  facet normal -0.807023 -0.590521 0
    outer loop
      vertex 11.071 6.67589 2
      vertex 10.487 7.474 4
      vertex 10.487 7.474 2
    endloop
  endfacet
  facet normal -0.807023 -0.590521 0
    outer loop
      vertex 11.071 6.67589 2
      vertex 11.071 6.67589 4
      vertex 10.487 7.474 4
    endloop
  endfacet
  facet normal -0.674252 -0.738502 0
    outer loop
      vertex 11.795 6.01488 2
      vertex 11.071 6.67589 4
      vertex 11.071 6.67589 2
    endloop
  endfacet
  facet normal -0.674252 -0.738502 0
    outer loop
      vertex 11.795 6.01488 2
      vertex 11.795 6.01488 4
      vertex 11.071 6.67589 4
    endloop
  endfacet
  facet normal -0.518479 -0.855091 0
    outer loop
      vertex 12.659 5.491 2
      vertex 11.795 6.01488 4
      vertex 11.795 6.01488 2
    endloop
  endfacet
  facet normal -0.518479 -0.855091 0
    outer loop
      vertex 12.659 5.491 2
      vertex 12.659 5.491 4
      vertex 11.795 6.01488 4
    endloop
  endfacet
  facet normal -0.35864 -0.933476 0
    outer loop
      vertex 13.6467 5.11154 2
      vertex 12.659 5.491 4
      vertex 12.659 5.491 2
    endloop
  endfacet
  facet normal -0.35864 -0.933476 0
    outer loop
      vertex 13.6467 5.11154 2
      vertex 13.6467 5.11154 4
      vertex 12.659 5.491 4
    endloop
  endfacet
  facet normal -0.20378 -0.979017 0
    outer loop
      vertex 14.7403 4.8839 2
      vertex 13.6467 5.11154 4
      vertex 13.6467 5.11154 2
    endloop
  endfacet
  facet normal -0.20378 -0.979017 0
    outer loop
      vertex 14.7403 4.8839 2
      vertex 14.7403 4.8839 4
      vertex 13.6467 5.11154 4
    endloop
  endfacet
  facet normal -0.0631267 -0.998006 0
    outer loop
      vertex 15.94 4.80801 2
      vertex 14.7403 4.8839 4
      vertex 14.7403 4.8839 2
    endloop
  endfacet
  facet normal -0.0631267 -0.998006 0
    outer loop
      vertex 15.94 4.80801 2
      vertex 15.94 4.80801 4
      vertex 14.7403 4.8839 4
    endloop
  endfacet
  facet normal 0.0631863 -0.998002 0
    outer loop
      vertex 17.186 4.8869 2
      vertex 15.94 4.80801 4
      vertex 15.94 4.80801 2
    endloop
  endfacet
  facet normal 0.0631863 -0.998002 0
    outer loop
      vertex 17.186 4.8869 2
      vertex 17.186 4.8869 4
      vertex 15.94 4.80801 4
    endloop
  endfacet
  facet normal 0.964786 -0.263037 0
    outer loop
      vertex 37.9891 14.2942 2
      vertex 37.0004 10.6679 4
      vertex 37.0004 10.6679 2
    endloop
  endfacet
  facet normal 0.964786 -0.263037 0
    outer loop
      vertex 37.9891 14.2942 2
      vertex 37.9891 14.2942 4
      vertex 37.0004 10.6679 4
    endloop
  endfacet
  facet normal 0.967133 -0.254271 0
    outer loop
      vertex 38.4057 15.879 2
      vertex 37.9891 14.2942 4
      vertex 37.9891 14.2942 2
    endloop
  endfacet
  facet normal 0.967133 -0.254271 0
    outer loop
      vertex 38.4057 15.879 2
      vertex 38.4057 15.879 4
      vertex 37.9891 14.2942 4
    endloop
  endfacet
  facet normal 0.974943 -0.222453 0
    outer loop
      vertex 38.7053 17.1919 2
      vertex 38.4057 15.879 4
      vertex 38.4057 15.879 2
    endloop
  endfacet
  facet normal 0.974943 -0.222453 0
    outer loop
      vertex 38.7053 17.1919 2
      vertex 38.7053 17.1919 4
      vertex 38.4057 15.879 4
    endloop
  endfacet
  facet normal 0.975673 -0.219232 0
    outer loop
      vertex 38.8837 17.986 2
      vertex 38.7053 17.1919 4
      vertex 38.7053 17.1919 2
    endloop
  endfacet
  facet normal 0.975673 -0.219232 0
    outer loop
      vertex 38.8837 17.986 2
      vertex 38.8837 17.986 4
      vertex 38.7053 17.1919 4
    endloop
  endfacet
  facet normal -0.977146 -0.212568 0
    outer loop
      vertex 39.1905 16.5758 2
      vertex 38.8837 17.986 4
      vertex 38.8837 17.986 2
    endloop
  endfacet
  facet normal -0.977146 -0.212568 0
    outer loop
      vertex 39.1905 16.5758 2
      vertex 39.1905 16.5758 4
      vertex 38.8837 17.986 4
    endloop
  endfacet
  facet normal -0.97394 -0.226804 0
    outer loop
      vertex 39.4442 15.4864 2
      vertex 39.1905 16.5758 4
      vertex 39.1905 16.5758 2
    endloop
  endfacet
  facet normal -0.97394 -0.226804 0
    outer loop
      vertex 39.4442 15.4864 2
      vertex 39.4442 15.4864 4
      vertex 39.1905 16.5758 4
    endloop
  endfacet
  facet normal -0.967592 -0.252518 0
    outer loop
      vertex 39.6447 14.718 2
      vertex 39.4442 15.4864 4
      vertex 39.4442 15.4864 2
    endloop
  endfacet
  facet normal -0.967592 -0.252518 0
    outer loop
      vertex 39.6447 14.718 2
      vertex 39.6447 14.718 4
      vertex 39.4442 15.4864 4
    endloop
  endfacet
  facet normal -0.964722 -0.26327 0
    outer loop
      vertex 42.2967 5 2
      vertex 39.6447 14.718 4
      vertex 39.6447 14.718 2
    endloop
  endfacet
  facet normal -0.964722 -0.26327 0
    outer loop
      vertex 42.2967 5 2
      vertex 42.2967 5 4
      vertex 39.6447 14.718 4
    endloop
  endfacet
  facet normal 0 -1 0
    outer loop
      vertex 44.7687 5 2
      vertex 42.2967 5 4
      vertex 42.2967 5 2
    endloop
  endfacet
  facet normal 0 -1 0
    outer loop
      vertex 44.7687 5 2
      vertex 44.7687 5 4
      vertex 42.2967 5 4
    endloop
  endfacet
  facet normal 0.95921 -0.282696 0
    outer loop
      vertex 49.2767 20.296 2
      vertex 44.7687 5 4
      vertex 44.7687 5 2
    endloop
  endfacet
  facet normal 0.95921 -0.282696 0
    outer loop
      vertex 49.2767 20.296 2
      vertex 49.2767 20.296 4
      vertex 44.7687 5 4
    endloop
  endfacet
  facet normal 0 1 0
    outer loop
      vertex 47.1187 20.296 2
      vertex 49.2767 20.296 4
      vertex 49.2767 20.296 2
    endloop
  endfacet
  facet normal 0 1 0
    outer loop
      vertex 47.1187 20.296 2
      vertex 47.1187 20.296 4
      vertex 49.2767 20.296 4
    endloop
  endfacet
  facet normal -0.963298 0.268434 0
    outer loop
      vertex 45.5043 14.5024 2
      vertex 47.1187 20.296 4
      vertex 47.1187 20.296 2
    endloop
  endfacet
  facet normal -0.963298 0.268434 0
    outer loop
      vertex 45.5043 14.5024 2
      vertex 45.5043 14.5024 4
      vertex 47.1187 20.296 4
    endloop
  endfacet
  facet normal -0.963915 0.266211 0
    outer loop
      vertex 44.4863 10.8164 2
      vertex 45.5043 14.5024 4
      vertex 45.5043 14.5024 2
    endloop
  endfacet
  facet normal -0.963915 0.266211 0
    outer loop
      vertex 44.4863 10.8164 2
      vertex 44.4863 10.8164 4
      vertex 45.5043 14.5024 4
    endloop
  endfacet
  facet normal -0.966136 0.258035 0
    outer loop
      vertex 44.0647 9.23799 2
      vertex 44.4863 10.8164 4
      vertex 44.4863 10.8164 2
    endloop
  endfacet
  facet normal -0.966136 0.258035 0
    outer loop
      vertex 44.0647 9.23799 2
      vertex 44.0647 9.23799 4
      vertex 44.4863 10.8164 4
    endloop
  endfacet
  facet normal -0.97353 0.228559 0
    outer loop
      vertex 43.5867 7.202 2
      vertex 44.0647 9.23799 4
      vertex 44.0647 9.23799 2
    endloop
  endfacet
  facet normal -0.97353 0.228559 0
    outer loop
      vertex 43.5867 7.202 2
      vertex 43.5867 7.202 4
      vertex 44.0647 9.23799 4
    endloop
  endfacet
  facet normal -0.968323 0.249702 0
    outer loop
      vertex 43.4887 6.82199 2
      vertex 43.5867 7.202 4
      vertex 43.5867 7.202 2
    endloop
  endfacet
  facet normal -0.968323 0.249702 0
    outer loop
      vertex 43.4887 6.82199 2
      vertex 43.4887 6.82199 4
      vertex 43.5867 7.202 4
    endloop
  endfacet
  facet normal 0.975556 0.219749 0
    outer loop
      vertex 43.2278 7.98021 2
      vertex 43.4887 6.82199 4
      vertex 43.4887 6.82199 2
    endloop
  endfacet
  facet normal 0.975556 0.219749 -0
    outer loop
      vertex 43.2278 7.98021 2
      vertex 43.2278 7.98021 4
      vertex 43.4887 6.82199 4
    endloop
  endfacet
  facet normal 0.971967 0.235119 0
    outer loop
      vertex 42.9092 9.29755 2
      vertex 43.2278 7.98021 4
      vertex 43.2278 7.98021 2
    endloop
  endfacet
  facet normal 0.971967 0.235119 -0
    outer loop
      vertex 42.9092 9.29755 2
      vertex 42.9092 9.29755 4
      vertex 43.2278 7.98021 4
    endloop
  endfacet
  facet normal 0.968999 0.247067 0
    outer loop
      vertex 42.5327 10.774 2
      vertex 42.9092 9.29755 4
      vertex 42.9092 9.29755 2
    endloop
  endfacet
  facet normal 0.968999 0.247067 -0
    outer loop
      vertex 42.5327 10.774 2
      vertex 42.5327 10.774 4
      vertex 42.9092 9.29755 4
    endloop
  endfacet
  facet normal 0.963047 0.269333 0
    outer loop
      vertex 39.8697 20.296 2
      vertex 42.5327 10.774 4
      vertex 42.5327 10.774 2
    endloop
  endfacet
  facet normal 0.963047 0.269333 -0
    outer loop
      vertex 39.8697 20.296 2
      vertex 39.8697 20.296 4
      vertex 42.5327 10.774 4
    endloop
  endfacet
  facet normal 0 1 0
    outer loop
      vertex 37.8857 20.296 2
      vertex 39.8697 20.296 4
      vertex 39.8697 20.296 2
    endloop
  endfacet
  facet normal 0 1 0
    outer loop
      vertex 37.8857 20.296 2
      vertex 37.8857 20.296 4
      vertex 39.8697 20.296 4
    endloop
  endfacet
  facet normal -0.96262 0.270855 0
    outer loop
      vertex 36.3633 14.8852 2
      vertex 37.8857 20.296 4
      vertex 37.8857 20.296 2
    endloop
  endfacet
  facet normal -0.96262 0.270855 0
    outer loop
      vertex 36.3633 14.8852 2
      vertex 36.3633 14.8852 4
      vertex 37.8857 20.296 4
    endloop
  endfacet
  facet normal -0.963636 0.267219 0
    outer loop
      vertex 35.3586 11.2622 2
      vertex 36.3633 14.8852 4
      vertex 36.3633 14.8852 2
    endloop
  endfacet
  facet normal -0.963636 0.267219 0
    outer loop
      vertex 35.3586 11.2622 2
      vertex 35.3586 11.2622 4
      vertex 36.3633 14.8852 4
    endloop
  endfacet
  facet normal -0.966562 0.256433 0
    outer loop
      vertex 34.8717 9.42699 2
      vertex 35.3586 11.2622 4
      vertex 35.3586 11.2622 2
    endloop
  endfacet
  facet normal -0.966562 0.256433 0
    outer loop
      vertex 34.8717 9.42699 2
      vertex 34.8717 9.42699 4
      vertex 35.3586 11.2622 4
    endloop
  endfacet
  facet normal -0.972622 0.232392 0
    outer loop
      vertex 34.6527 8.51044 2
      vertex 34.8717 9.42699 4
      vertex 34.8717 9.42699 2
    endloop
  endfacet
  facet normal -0.972622 0.232392 0
    outer loop
      vertex 34.6527 8.51044 2
      vertex 34.6527 8.51044 4
      vertex 34.8717 9.42699 4
    endloop
  endfacet
  facet normal -0.974239 0.22552 0
    outer loop
      vertex 34.4517 7.64211 2
      vertex 34.6527 8.51044 4
      vertex 34.6527 8.51044 2
    endloop
  endfacet
  facet normal -0.974239 0.22552 0
    outer loop
      vertex 34.4517 7.64211 2
      vertex 34.4517 7.64211 4
      vertex 34.6527 8.51044 4
    endloop
  endfacet
  facet normal -0.975997 0.217782 0
    outer loop
      vertex 34.2687 6.82199 2
      vertex 34.4517 7.64211 4
      vertex 34.4517 7.64211 2
    endloop
  endfacet
  facet normal -0.975997 0.217782 0
    outer loop
      vertex 34.2687 6.82199 2
      vertex 34.2687 6.82199 4
      vertex 34.4517 7.64211 4
    endloop
  endfacet
  facet normal 0.97617 0.217007 0
    outer loop
      vertex 33.985 8.09854 2
      vertex 34.2687 6.82199 4
      vertex 34.2687 6.82199 2
    endloop
  endfacet
  facet normal 0.97617 0.217007 -0
    outer loop
      vertex 33.985 8.09854 2
      vertex 33.985 8.09854 4
      vertex 34.2687 6.82199 4
    endloop
  endfacet
  facet normal 0.97237 0.233446 0
    outer loop
      vertex 33.6843 9.35088 2
      vertex 33.985 8.09854 4
      vertex 33.985 8.09854 2
    endloop
  endfacet
  facet normal 0.97237 0.233446 -0
    outer loop
      vertex 33.6843 9.35088 2
      vertex 33.6843 9.35088 4
      vertex 33.985 8.09854 4
    endloop
  endfacet
  facet normal 0.968157 0.250345 0
    outer loop
      vertex 33.3667 10.579 2
      vertex 33.6843 9.35088 4
      vertex 33.6843 9.35088 2
    endloop
  endfacet
  facet normal 0.968157 0.250345 -0
    outer loop
      vertex 33.3667 10.579 2
      vertex 33.3667 10.579 4
      vertex 33.6843 9.35088 4
    endloop
  endfacet
  facet normal 0.962208 0.272314 0
    outer loop
      vertex 30.6167 20.296 2
      vertex 33.3667 10.579 4
      vertex 33.3667 10.579 2
    endloop
  endfacet
  facet normal 0.962208 0.272314 -0
    outer loop
      vertex 30.6167 20.296 2
      vertex 30.6167 20.296 4
      vertex 33.3667 10.579 4
    endloop
  endfacet
  facet normal 0 1 0
    outer loop
      vertex 28.4587 20.296 2
      vertex 30.6167 20.296 4
      vertex 30.6167 20.296 2
    endloop
  endfacet
  facet normal 0 1 0
    outer loop
      vertex 28.4587 20.296 2
      vertex 28.4587 20.296 4
      vertex 30.6167 20.296 4
    endloop
  endfacet
  facet normal -0.959193 -0.282753 0
    outer loop
      vertex 32.9677 5 2
      vertex 28.4587 20.296 4
      vertex 28.4587 20.296 2
    endloop
  endfacet
  facet normal -0.959193 -0.282753 0
    outer loop
      vertex 32.9677 5 2
      vertex 32.9677 5 4
      vertex 28.4587 20.296 4
    endloop
  endfacet
  facet normal 0 -1 0
    outer loop
      vertex 35.4397 5 2
      vertex 32.9677 5 4
      vertex 32.9677 5 2
    endloop
  endfacet
  facet normal 0 -1 0
    outer loop
      vertex 35.4397 5 2
      vertex 35.4397 5 4
      vertex 32.9677 5 4
    endloop
  endfacet
  facet normal 0.964118 -0.265473 0
    outer loop
      vertex 37.0004 10.6679 2
      vertex 35.4397 5 4
      vertex 35.4397 5 2
    endloop
  endfacet
  facet normal 0.964118 -0.265473 0
    outer loop
      vertex 37.0004 10.6679 2
      vertex 37.0004 10.6679 4
      vertex 35.4397 5 4
    endloop
  endfacet
endsolid OpenSCAD_Model
