solid OpenSCAD_Model
  facet normal 0 -0 -1
    outer loop
      vertex 20.507 20.296 2
      vertex 22.687 20.296 2
      vertex 16.311 9.52499 2
    endloop
  endfacet
  facet normal 0 -0 -1
    outer loop
      vertex 16.311 9.52499 2
      vertex 16.466 5 2
      vertex 15.403 6.82199 2
    endloop
  endfacet
  facet normal 0 0 -1
    outer loop
      vertex 22.687 20.296 2
      vertex 16.466 5 2
      vertex 16.311 9.52499 2
    endloop
  endfacet
  facet normal 0 -0 -1
    outer loop
      vertex 15.403 6.82199 2
      vertex 16.466 5 2
      vertex 14.319 5 2
    endloop
  endfacet
  facet normal 0 0 -1
    outer loop
      vertex 14.494 9.52499 2
      vertex 8.09698 20.296 2
      vertex 10.276 20.296 2
    endloop
  endfacet
  facet normal -0 0 -1
    outer loop
      vertex 14.494 9.52499 2
      vertex 14.319 5 2
      vertex 8.09698 20.296 2
    endloop
  endfacet
  facet normal 0 -0 -1
    outer loop
      vertex 14.494 9.52499 2
      vertex 15.403 6.82199 2
      vertex 14.319 5 2
    endloop
  endfacet
  facet normal 0 0 -1
    outer loop
      vertex 40.6376 5 2
      vertex 30.6946 6.69199 2
      vertex 40.6376 6.69199 2
    endloop
  endfacet
  facet normal 0 0 -1
    outer loop
      vertex 39.5436 12.034 2
      vertex 30.6946 13.704 2
      vertex 39.5436 13.704 2
    endloop
  endfacet
  facet normal 0 0 -1
    outer loop
      vertex 39.5436 12.034 2
      vertex 30.6946 12.034 2
      vertex 30.6946 13.704 2
    endloop
  endfacet
  facet normal 0 0 -1
    outer loop
      vertex 40.1936 18.604 2
      vertex 30.6946 18.604 2
      vertex 40.1936 20.296 2
    endloop
  endfacet
  facet normal -0 -0 -1
    outer loop
      vertex 30.6946 18.604 2
      vertex 30.6946 13.704 2
      vertex 28.6236 20.296 2
    endloop
  endfacet
  facet normal -0 0 -1
    outer loop
      vertex 40.1936 20.296 2
      vertex 30.6946 18.604 2
      vertex 28.6236 20.296 2
    endloop
  endfacet
  facet normal 0 0 -1
    outer loop
      vertex 40.6376 5 2
      vertex 28.6236 5 2
      vertex 30.6946 6.69199 2
    endloop
  endfacet
  facet normal 0 0 -1
    outer loop
      vertex 28.6236 5 2
      vertex 30.6946 12.034 2
      vertex 30.6946 6.69199 2
    endloop
  endfacet
  facet normal -0 -0 -1
    outer loop
      vertex 30.6946 13.704 2
      vertex 30.6946 12.034 2
      vertex 28.6236 20.296 2
    endloop
  endfacet
  facet normal -0 0 -1
    outer loop
      vertex 30.6946 12.034 2
      vertex 28.6236 5 2
      vertex 28.6236 20.296 2
    endloop
  endfacet
  facet normal 0 0 1
    outer loop
      vertex 16.311 9.52499 4
      vertex 22.687 20.296 4
      vertex 20.507 20.296 4
    endloop
  endfacet
  facet normal -0 0 1
    outer loop
      vertex 15.403 6.82199 4
      vertex 16.466 5 4
      vertex 16.311 9.52499 4
    endloop
  endfacet
  facet normal -0 0 1
    outer loop
      vertex 16.311 9.52499 4
      vertex 16.466 5 4
      vertex 22.687 20.296 4
    endloop
  endfacet
  facet normal 0 0 1
    outer loop
      vertex 14.319 5 4
      vertex 16.466 5 4
      vertex 15.403 6.82199 4
    endloop
  endfacet
  facet normal 0 0 1
    outer loop
      vertex 10.276 20.296 4
      vertex 8.09698 20.296 4
      vertex 14.494 9.52499 4
    endloop
  endfacet
  facet normal 0 0 1
    outer loop
      vertex 8.09698 20.296 4
      vertex 14.319 5 4
      vertex 14.494 9.52499 4
    endloop
  endfacet
  facet normal 0 0 1
    outer loop
      vertex 14.319 5 4
      vertex 15.403 6.82199 4
      vertex 14.494 9.52499 4
    endloop
  endfacet
  facet normal 0 0 1
    outer loop
      vertex 40.6376 6.69199 4
      vertex 30.6946 6.69199 4
      vertex 40.6376 5 4
    endloop
  endfacet
  facet normal 0 0 1
    outer loop
      vertex 39.5436 13.704 4
      vertex 30.6946 13.704 4
      vertex 39.5436 12.034 4
    endloop
  endfacet
  facet normal 0 0 1
    outer loop
      vertex 30.6946 13.704 4
      vertex 30.6946 12.034 4
      vertex 39.5436 12.034 4
    endloop
  endfacet
  facet normal 0 0 1
    outer loop
      vertex 40.1936 20.296 4
      vertex 30.6946 18.604 4
      vertex 40.1936 18.604 4
    endloop
  endfacet
  facet normal 0 0 1
    outer loop
      vertex 28.6236 20.296 4
      vertex 30.6946 13.704 4
      vertex 30.6946 18.604 4
    endloop
  endfacet
  facet normal -0 0 1
    outer loop
      vertex 28.6236 20.296 4
      vertex 30.6946 18.604 4
      vertex 40.1936 20.296 4
    endloop
  endfacet
  facet normal 0 0 1
    outer loop
      vertex 30.6946 6.69199 4
      vertex 28.6236 5 4
      vertex 40.6376 5 4
    endloop
  endfacet
  facet normal 0 -0 1
    outer loop
      vertex 30.6946 6.69199 4
      vertex 30.6946 12.034 4
      vertex 28.6236 5 4
    endloop
  endfacet
  facet normal 0 0 1
    outer loop
      vertex 28.6236 20.296 4
      vertex 30.6946 12.034 4
      vertex 30.6946 13.704 4
    endloop
  endfacet
  facet normal 0 0 1
    outer loop
      vertex 28.6236 20.296 4
      vertex 28.6236 5 4
      vertex 30.6946 12.034 4
    endloop
  endfacet
  facet normal 0 1 0
    outer loop
      vertex 20.507 20.296 2
      vertex 22.687 20.296 4
      vertex 22.687 20.296 2
    endloop
  endfacet
  facet normal 0 1 0
    outer loop
      vertex 20.507 20.296 2
      vertex 20.507 20.296 4
      vertex 22.687 20.296 4
    endloop
  endfacet
  facet normal -0.931792 0.362993 0
    outer loop
      vertex 16.311 9.52499 2
      vertex 20.507 20.296 4
      vertex 20.507 20.296 2
    endloop
  endfacet
  facet normal -0.931792 0.362993 0
    outer loop
      vertex 16.311 9.52499 2
      vertex 16.311 9.52499 4
      vertex 20.507 20.296 4
    endloop
  endfacet
  facet normal -0.947945 0.318433 0
    outer loop
      vertex 15.403 6.82199 2
      vertex 16.311 9.52499 4
      vertex 16.311 9.52499 2
    endloop
  endfacet
  facet normal -0.947945 0.318433 0
    outer loop
      vertex 15.403 6.82199 2
      vertex 15.403 6.82199 4
      vertex 16.311 9.52499 4
    endloop
  endfacet
  facet normal 0.947837 0.318755 0
    outer loop
      vertex 14.494 9.52499 2
      vertex 15.403 6.82199 4
      vertex 15.403 6.82199 2
    endloop
  endfacet
  facet normal 0.947837 0.318755 -0
    outer loop
      vertex 14.494 9.52499 2
      vertex 14.494 9.52499 4
      vertex 15.403 6.82199 4
    endloop
  endfacet
  facet normal 0.931147 0.364644 0
    outer loop
      vertex 10.276 20.296 2
      vertex 14.494 9.52499 4
      vertex 14.494 9.52499 2
    endloop
  endfacet
  facet normal 0.931147 0.364644 -0
    outer loop
      vertex 10.276 20.296 2
      vertex 10.276 20.296 4
      vertex 14.494 9.52499 4
    endloop
  endfacet
  facet normal 0 1 0
    outer loop
      vertex 8.09698 20.296 2
      vertex 10.276 20.296 4
      vertex 10.276 20.296 2
    endloop
  endfacet
  facet normal 0 1 0
    outer loop
      vertex 8.09698 20.296 2
      vertex 8.09698 20.296 4
      vertex 10.276 20.296 4
    endloop
  endfacet
  facet normal -0.926297 -0.376793 0
    outer loop
      vertex 14.319 5 2
      vertex 8.09698 20.296 4
      vertex 8.09698 20.296 2
    endloop
  endfacet
  facet normal -0.926297 -0.376793 0
    outer loop
      vertex 14.319 5 2
      vertex 14.319 5 4
      vertex 8.09698 20.296 4
    endloop
  endfacet
  facet normal 0 -1 0
    outer loop
      vertex 16.466 5 2
      vertex 14.319 5 4
      vertex 14.319 5 2
    endloop
  endfacet
  facet normal 0 -1 0
    outer loop
      vertex 16.466 5 2
      vertex 16.466 5 4
      vertex 14.319 5 4
    endloop
  endfacet
  facet normal 0.926318 -0.376742 0
    outer loop
      vertex 22.687 20.296 2
      vertex 16.466 5 4
      vertex 16.466 5 2
    endloop
  endfacet
  facet normal 0.926318 -0.376742 0
    outer loop
      vertex 22.687 20.296 2
      vertex 22.687 20.296 4
      vertex 16.466 5 4
    endloop
  endfacet
  facet normal 0 1 0
    outer loop
      vertex 30.6946 6.69199 2
      vertex 40.6376 6.69199 4
      vertex 40.6376 6.69199 2
    endloop
  endfacet
  facet normal 0 1 0
    outer loop
      vertex 30.6946 6.69199 2
      vertex 30.6946 6.69199 4
      vertex 40.6376 6.69199 4
    endloop
  endfacet
  facet normal 1 0 0
    outer loop
      vertex 30.6946 12.034 2
      vertex 30.6946 6.69199 4
      vertex 30.6946 6.69199 2
    endloop
  endfacet
  facet normal 1 0 -0
    outer loop
      vertex 30.6946 12.034 2
      vertex 30.6946 12.034 4
      vertex 30.6946 6.69199 4
    endloop
  endfacet
  facet normal 0 -1 0
    outer loop
      vertex 39.5436 12.034 2
      vertex 30.6946 12.034 4
      vertex 30.6946 12.034 2
    endloop
  endfacet
  facet normal 0 -1 0
    outer loop
      vertex 39.5436 12.034 2
      vertex 39.5436 12.034 4
      vertex 30.6946 12.034 4
    endloop
  endfacet
  facet normal 1 0 0
    outer loop
      vertex 39.5436 13.704 2
      vertex 39.5436 12.034 4
      vertex 39.5436 12.034 2
    endloop
  endfacet
  facet normal 1 0 -0
    outer loop
      vertex 39.5436 13.704 2
      vertex 39.5436 13.704 4
      vertex 39.5436 12.034 4
    endloop
  endfacet
  facet normal 0 1 0
    outer loop
      vertex 30.6946 13.704 2
      vertex 39.5436 13.704 4
      vertex 39.5436 13.704 2
    endloop
  endfacet
  facet normal 0 1 0
    outer loop
      vertex 30.6946 13.704 2
      vertex 30.6946 13.704 4
      vertex 39.5436 13.704 4
    endloop
  endfacet
  facet normal 1 0 0
    outer loop
      vertex 30.6946 18.604 2
      vertex 30.6946 13.704 4
      vertex 30.6946 13.704 2
    endloop
  endfacet
  facet normal 1 0 -0
    outer loop
      vertex 30.6946 18.604 2
      vertex 30.6946 18.604 4
      vertex 30.6946 13.704 4
    endloop
  endfacet
  facet normal 0 -1 0
    outer loop
      vertex 40.1936 18.604 2
      vertex 30.6946 18.604 4
      vertex 30.6946 18.604 2
    endloop
  endfacet
  facet normal 0 -1 0
    outer loop
      vertex 40.1936 18.604 2
      vertex 40.1936 18.604 4
      vertex 30.6946 18.604 4
    endloop
  endfacet
  facet normal 1 0 0
    outer loop
      vertex 40.1936 20.296 2
      vertex 40.1936 18.604 4
      vertex 40.1936 18.604 2
    endloop
  endfacet
  facet normal 1 0 -0
    outer loop
      vertex 40.1936 20.296 2
      vertex 40.1936 20.296 4
      vertex 40.1936 18.604 4
    endloop
  endfacet
  facet normal 0 1 0
    outer loop
      vertex 28.6236 20.296 2
      vertex 40.1936 20.296 4
      vertex 40.1936 20.296 2
    endloop
  endfacet
  facet normal 0 1 0
    outer loop
      vertex 28.6236 20.296 2
      vertex 28.6236 20.296 4
      vertex 40.1936 20.296 4
    endloop
  endfacet
  facet normal -1 0 0
    outer loop
      vertex 28.6236 5 2
      vertex 28.6236 20.296 4
      vertex 28.6236 20.296 2
    endloop
  endfacet
  facet normal -1 0 0
    outer loop
      vertex 28.6236 5 2
      vertex 28.6236 5 4
      vertex 28.6236 20.296 4
    endloop
  endfacet
  facet normal 0 -1 0
    outer loop
      vertex 40.6376 5 2
      vertex 28.6236 5 4
      vertex 28.6236 5 2
    endloop
  endfacet
  facet normal 0 -1 0
    outer loop
      vertex 40.6376 5 2
      vertex 40.6376 5 4
      vertex 28.6236 5 4
    endloop
  endfacet
  facet normal 1 0 0
    outer loop
      vertex 40.6376 6.69199 2
      vertex 40.6376 5 4
      vertex 40.6376 5 2
    endloop
  endfacet
  facet normal 1 0 -0
    outer loop
      vertex 40.6376 6.69199 2
      vertex 40.6376 6.69199 4
      vertex 40.6376 5 4
    endloop
  endfacet
endsolid OpenSCAD_Model
