solid OpenSCAD_Model
  facet normal 0 -0 -1
    outer loop
      vertex 20.507 20.296 2
      vertex 22.687 20.296 2
      vertex 16.311 9.52499 2
    endloop
  endfacet
  facet normal 0 -0 -1
    outer loop
      vertex 16.311 9.52499 2
      vertex 16.466 5 2
      vertex 15.403 6.82199 2
    endloop
  endfacet
  facet normal 0 0 -1
    outer loop
      vertex 22.687 20.296 2
      vertex 16.466 5 2
      vertex 16.311 9.52499 2
    endloop
  endfacet
  facet normal 0 -0 -1
    outer loop
      vertex 15.403 6.82199 2
      vertex 16.466 5 2
      vertex 14.319 5 2
    endloop
  endfacet
  facet normal 0 0 -1
    outer loop
      vertex 14.494 9.52499 2
      vertex 8.09698 20.296 2
      vertex 10.276 20.296 2
    endloop
  endfacet
  facet normal -0 0 -1
    outer loop
      vertex 14.494 9.52499 2
      vertex 14.319 5 2
      vertex 8.09698 20.296 2
    endloop
  endfacet
  facet normal 0 -0 -1
    outer loop
      vertex 14.494 9.52499 2
      vertex 15.403 6.82199 2
      vertex 14.319 5 2
    endloop
  endfacet
  facet normal -0 0 -1
    outer loop
      vertex 38.7542 19.7827 2
      vertex 37.546 18.3263 2
      vertex 37.4239 20.1677 2
    endloop
  endfacet
  facet normal -0 0 -1
    outer loop
      vertex 39.489 12.3868 2
      vertex 38.5747 11.8988 2
      vertex 38.2506 13.764 2
    endloop
  endfacet
  facet normal -0 0 -1
    outer loop
      vertex 41.2296 15.927 2
      vertex 39.1476 15.905 2
      vertex 41.0732 17.1997 2
    endloop
  endfacet
  facet normal 0 0 -1
    outer loop
      vertex 41.8376 5 2
      vertex 39.4516 5 2
      vertex 37.4926 11.601 2
    endloop
  endfacet
  facet normal 0 -0 -1
    outer loop
      vertex 37.4926 11.601 2
      vertex 39.4516 5 2
      vertex 35.4756 11.363 2
    endloop
  endfacet
  facet normal 0 0 -1
    outer loop
      vertex 38.7489 14.3414 2
      vertex 39.0479 15.0551 2
      vertex 40.7878 13.8985 2
    endloop
  endfacet
  facet normal 0 0 -1
    outer loop
      vertex 39.1476 15.905 2
      vertex 39.0467 16.7238 2
      vertex 41.0732 17.1997 2
    endloop
  endfacet
  facet normal 0 0 -1
    outer loop
      vertex 39.0467 16.7238 2
      vertex 38.744 17.4014 2
      vertex 40.6042 18.271 2
    endloop
  endfacet
  facet normal 0 -0 -1
    outer loop
      vertex 37.4239 20.1677 2
      vertex 37.546 18.3263 2
      vertex 36.6747 18.5593 2
    endloop
  endfacet
  facet normal 0 0 -1
    outer loop
      vertex 36.6747 18.5593 2
      vertex 35.8316 20.296 2
      vertex 37.4239 20.1677 2
    endloop
  endfacet
  facet normal 0 0 -1
    outer loop
      vertex 38.2506 13.764 2
      vertex 38.7489 14.3414 2
      vertex 40.2356 13.065 2
    endloop
  endfacet
  facet normal 0 -0 -1
    outer loop
      vertex 35.8316 20.296 2
      vertex 36.6747 18.5593 2
      vertex 35.6256 18.637 2
    endloop
  endfacet
  facet normal 0 0 -1
    outer loop
      vertex 28.6306 20.296 2
      vertex 35.8316 20.296 2
      vertex 30.7016 18.637 2
    endloop
  endfacet
  facet normal 0 0 -1
    outer loop
      vertex 35.4756 11.363 2
      vertex 30.7016 13 2
      vertex 35.7126 13 2
    endloop
  endfacet
  facet normal 0 0 -1
    outer loop
      vertex 35.4756 11.363 2
      vertex 30.7016 11.363 2
      vertex 30.7016 13 2
    endloop
  endfacet
  facet normal 0 0 -1
    outer loop
      vertex 35.4756 11.363 2
      vertex 36.7239 13.0849 2
      vertex 37.4926 11.601 2
    endloop
  endfacet
  facet normal 0 0 -1
    outer loop
      vertex 30.7016 5 2
      vertex 28.6306 5 2
      vertex 30.7016 11.363 2
    endloop
  endfacet
  facet normal -0 0 -1
    outer loop
      vertex 30.7016 11.363 2
      vertex 28.6306 5 2
      vertex 30.7016 13 2
    endloop
  endfacet
  facet normal -0 0 -1
    outer loop
      vertex 30.7016 13 2
      vertex 28.6306 5 2
      vertex 28.6306 20.296 2
    endloop
  endfacet
  facet normal 0 0 -1
    outer loop
      vertex 28.6306 20.296 2
      vertex 30.7016 18.637 2
      vertex 30.7016 13 2
    endloop
  endfacet
  facet normal 0 0 -1
    outer loop
      vertex 35.6256 18.637 2
      vertex 30.7016 18.637 2
      vertex 35.8316 20.296 2
    endloop
  endfacet
  facet normal 0 0 -1
    outer loop
      vertex 38.7542 19.7827 2
      vertex 38.2396 17.938 2
      vertex 37.546 18.3263 2
    endloop
  endfacet
  facet normal 0 0 -1
    outer loop
      vertex 38.2396 17.938 2
      vertex 39.8226 19.141 2
      vertex 38.744 17.4014 2
    endloop
  endfacet
  facet normal 0 -0 -1
    outer loop
      vertex 38.7542 19.7827 2
      vertex 39.8226 19.141 2
      vertex 38.2396 17.938 2
    endloop
  endfacet
  facet normal 0 0 -1
    outer loop
      vertex 38.744 17.4014 2
      vertex 39.8226 19.141 2
      vertex 40.6042 18.271 2
    endloop
  endfacet
  facet normal 0 0 -1
    outer loop
      vertex 39.0467 16.7238 2
      vertex 40.6042 18.271 2
      vertex 41.0732 17.1997 2
    endloop
  endfacet
  facet normal 0 -0 -1
    outer loop
      vertex 39.1476 15.905 2
      vertex 41.1191 14.8526 2
      vertex 39.0479 15.0551 2
    endloop
  endfacet
  facet normal 0 0 -1
    outer loop
      vertex 41.2296 15.927 2
      vertex 41.1191 14.8526 2
      vertex 39.1476 15.905 2
    endloop
  endfacet
  facet normal 0 0 -1
    outer loop
      vertex 39.0479 15.0551 2
      vertex 41.1191 14.8526 2
      vertex 40.7878 13.8985 2
    endloop
  endfacet
  facet normal 0 0 -1
    outer loop
      vertex 38.7489 14.3414 2
      vertex 40.7878 13.8985 2
      vertex 40.2356 13.065 2
    endloop
  endfacet
  facet normal -0 0 -1
    outer loop
      vertex 40.2356 13.065 2
      vertex 39.489 12.3868 2
      vertex 38.2506 13.764 2
    endloop
  endfacet
  facet normal 0 -0 -1
    outer loop
      vertex 38.2506 13.764 2
      vertex 38.5747 11.8988 2
      vertex 37.5699 13.3396 2
    endloop
  endfacet
  facet normal 0 -0 -1
    outer loop
      vertex 37.5699 13.3396 2
      vertex 38.5747 11.8988 2
      vertex 37.4926 11.601 2
    endloop
  endfacet
  facet normal 0 -0 -1
    outer loop
      vertex 35.7126 13 2
      vertex 36.7239 13.0849 2
      vertex 35.4756 11.363 2
    endloop
  endfacet
  facet normal 0 0 -1
    outer loop
      vertex 36.7239 13.0849 2
      vertex 37.5699 13.3396 2
      vertex 37.4926 11.601 2
    endloop
  endfacet
  facet normal 0 0 1
    outer loop
      vertex 16.311 9.52499 4
      vertex 22.687 20.296 4
      vertex 20.507 20.296 4
    endloop
  endfacet
  facet normal -0 0 1
    outer loop
      vertex 15.403 6.82199 4
      vertex 16.466 5 4
      vertex 16.311 9.52499 4
    endloop
  endfacet
  facet normal -0 0 1
    outer loop
      vertex 16.311 9.52499 4
      vertex 16.466 5 4
      vertex 22.687 20.296 4
    endloop
  endfacet
  facet normal 0 0 1
    outer loop
      vertex 14.319 5 4
      vertex 16.466 5 4
      vertex 15.403 6.82199 4
    endloop
  endfacet
  facet normal 0 0 1
    outer loop
      vertex 10.276 20.296 4
      vertex 8.09698 20.296 4
      vertex 14.494 9.52499 4
    endloop
  endfacet
  facet normal 0 0 1
    outer loop
      vertex 8.09698 20.296 4
      vertex 14.319 5 4
      vertex 14.494 9.52499 4
    endloop
  endfacet
  facet normal 0 0 1
    outer loop
      vertex 14.319 5 4
      vertex 15.403 6.82199 4
      vertex 14.494 9.52499 4
    endloop
  endfacet
  facet normal 0 0 1
    outer loop
      vertex 37.4239 20.1677 4
      vertex 37.546 18.3263 4
      vertex 38.7542 19.7827 4
    endloop
  endfacet
  facet normal 0 0 1
    outer loop
      vertex 38.2506 13.764 4
      vertex 38.5747 11.8988 4
      vertex 39.489 12.3868 4
    endloop
  endfacet
  facet normal 0 0 1
    outer loop
      vertex 41.0732 17.1997 4
      vertex 39.1476 15.905 4
      vertex 41.2296 15.927 4
    endloop
  endfacet
  facet normal 0 0 1
    outer loop
      vertex 37.4926 11.601 4
      vertex 39.4516 5 4
      vertex 41.8376 5 4
    endloop
  endfacet
  facet normal -0 0 1
    outer loop
      vertex 35.4756 11.363 4
      vertex 39.4516 5 4
      vertex 37.4926 11.601 4
    endloop
  endfacet
  facet normal 0 0 1
    outer loop
      vertex 40.7878 13.8985 4
      vertex 39.0479 15.0551 4
      vertex 38.7489 14.3414 4
    endloop
  endfacet
  facet normal 0 0 1
    outer loop
      vertex 41.0732 17.1997 4
      vertex 39.0467 16.7238 4
      vertex 39.1476 15.905 4
    endloop
  endfacet
  facet normal 0 0 1
    outer loop
      vertex 40.6042 18.271 4
      vertex 38.744 17.4014 4
      vertex 39.0467 16.7238 4
    endloop
  endfacet
  facet normal -0 0 1
    outer loop
      vertex 36.6747 18.5593 4
      vertex 37.546 18.3263 4
      vertex 37.4239 20.1677 4
    endloop
  endfacet
  facet normal 0 0 1
    outer loop
      vertex 37.4239 20.1677 4
      vertex 35.8316 20.296 4
      vertex 36.6747 18.5593 4
    endloop
  endfacet
  facet normal 0 0 1
    outer loop
      vertex 40.2356 13.065 4
      vertex 38.7489 14.3414 4
      vertex 38.2506 13.764 4
    endloop
  endfacet
  facet normal -0 0 1
    outer loop
      vertex 35.6256 18.637 4
      vertex 36.6747 18.5593 4
      vertex 35.8316 20.296 4
    endloop
  endfacet
  facet normal 0 -0 1
    outer loop
      vertex 30.7016 18.637 4
      vertex 35.8316 20.296 4
      vertex 28.6306 20.296 4
    endloop
  endfacet
  facet normal 0 0 1
    outer loop
      vertex 35.7126 13 4
      vertex 30.7016 13 4
      vertex 35.4756 11.363 4
    endloop
  endfacet
  facet normal 0 0 1
    outer loop
      vertex 30.7016 13 4
      vertex 30.7016 11.363 4
      vertex 35.4756 11.363 4
    endloop
  endfacet
  facet normal 0 0 1
    outer loop
      vertex 37.4926 11.601 4
      vertex 36.7239 13.0849 4
      vertex 35.4756 11.363 4
    endloop
  endfacet
  facet normal 0 0 1
    outer loop
      vertex 30.7016 11.363 4
      vertex 28.6306 5 4
      vertex 30.7016 5 4
    endloop
  endfacet
  facet normal 0 0 1
    outer loop
      vertex 30.7016 13 4
      vertex 28.6306 5 4
      vertex 30.7016 11.363 4
    endloop
  endfacet
  facet normal 0 0 1
    outer loop
      vertex 28.6306 20.296 4
      vertex 28.6306 5 4
      vertex 30.7016 13 4
    endloop
  endfacet
  facet normal 0 -0 1
    outer loop
      vertex 30.7016 13 4
      vertex 30.7016 18.637 4
      vertex 28.6306 20.296 4
    endloop
  endfacet
  facet normal 0 0 1
    outer loop
      vertex 35.8316 20.296 4
      vertex 30.7016 18.637 4
      vertex 35.6256 18.637 4
    endloop
  endfacet
  facet normal -0 0 1
    outer loop
      vertex 37.546 18.3263 4
      vertex 38.2396 17.938 4
      vertex 38.7542 19.7827 4
    endloop
  endfacet
  facet normal 0 -0 1
    outer loop
      vertex 38.744 17.4014 4
      vertex 39.8226 19.141 4
      vertex 38.2396 17.938 4
    endloop
  endfacet
  facet normal 0 0 1
    outer loop
      vertex 38.2396 17.938 4
      vertex 39.8226 19.141 4
      vertex 38.7542 19.7827 4
    endloop
  endfacet
  facet normal 0 0 1
    outer loop
      vertex 40.6042 18.271 4
      vertex 39.8226 19.141 4
      vertex 38.744 17.4014 4
    endloop
  endfacet
  facet normal 0 0 1
    outer loop
      vertex 41.0732 17.1997 4
      vertex 40.6042 18.271 4
      vertex 39.0467 16.7238 4
    endloop
  endfacet
  facet normal -0 0 1
    outer loop
      vertex 39.0479 15.0551 4
      vertex 41.1191 14.8526 4
      vertex 39.1476 15.905 4
    endloop
  endfacet
  facet normal -0 0 1
    outer loop
      vertex 39.1476 15.905 4
      vertex 41.1191 14.8526 4
      vertex 41.2296 15.927 4
    endloop
  endfacet
  facet normal 0 -0 1
    outer loop
      vertex 40.7878 13.8985 4
      vertex 41.1191 14.8526 4
      vertex 39.0479 15.0551 4
    endloop
  endfacet
  facet normal 0 -0 1
    outer loop
      vertex 40.2356 13.065 4
      vertex 40.7878 13.8985 4
      vertex 38.7489 14.3414 4
    endloop
  endfacet
  facet normal 0 0 1
    outer loop
      vertex 38.2506 13.764 4
      vertex 39.489 12.3868 4
      vertex 40.2356 13.065 4
    endloop
  endfacet
  facet normal -0 0 1
    outer loop
      vertex 37.5699 13.3396 4
      vertex 38.5747 11.8988 4
      vertex 38.2506 13.764 4
    endloop
  endfacet
  facet normal 0 0 1
    outer loop
      vertex 37.4926 11.601 4
      vertex 38.5747 11.8988 4
      vertex 37.5699 13.3396 4
    endloop
  endfacet
  facet normal 0 0 1
    outer loop
      vertex 35.4756 11.363 4
      vertex 36.7239 13.0849 4
      vertex 35.7126 13 4
    endloop
  endfacet
  facet normal 0 -0 1
    outer loop
      vertex 37.4926 11.601 4
      vertex 37.5699 13.3396 4
      vertex 36.7239 13.0849 4
    endloop
  endfacet
  facet normal 0 1 0
    outer loop
      vertex 20.507 20.296 2
      vertex 22.687 20.296 4
      vertex 22.687 20.296 2
    endloop
  endfacet
  facet normal 0 1 0
    outer loop
      vertex 20.507 20.296 2
      vertex 20.507 20.296 4
      vertex 22.687 20.296 4
    endloop
  endfacet
  facet normal -0.931792 0.362993 0
    outer loop
      vertex 16.311 9.52499 2
      vertex 20.507 20.296 4
      vertex 20.507 20.296 2
    endloop
  endfacet
  facet normal -0.931792 0.362993 0
    outer loop
      vertex 16.311 9.52499 2
      vertex 16.311 9.52499 4
      vertex 20.507 20.296 4
    endloop
  endfacet
  facet normal -0.947945 0.318433 0
    outer loop
      vertex 15.403 6.82199 2
      vertex 16.311 9.52499 4
      vertex 16.311 9.52499 2
    endloop
  endfacet
  facet normal -0.947945 0.318433 0
    outer loop
      vertex 15.403 6.82199 2
      vertex 15.403 6.82199 4
      vertex 16.311 9.52499 4
    endloop
  endfacet
  facet normal 0.947837 0.318755 0
    outer loop
      vertex 14.494 9.52499 2
      vertex 15.403 6.82199 4
      vertex 15.403 6.82199 2
    endloop
  endfacet
  facet normal 0.947837 0.318755 -0
    outer loop
      vertex 14.494 9.52499 2
      vertex 14.494 9.52499 4
      vertex 15.403 6.82199 4
    endloop
  endfacet
  facet normal 0.931147 0.364644 0
    outer loop
      vertex 10.276 20.296 2
      vertex 14.494 9.52499 4
      vertex 14.494 9.52499 2
    endloop
  endfacet
  facet normal 0.931147 0.364644 -0
    outer loop
      vertex 10.276 20.296 2
      vertex 10.276 20.296 4
      vertex 14.494 9.52499 4
    endloop
  endfacet
  facet normal 0 1 0
    outer loop
      vertex 8.09698 20.296 2
      vertex 10.276 20.296 4
      vertex 10.276 20.296 2
    endloop
  endfacet
  facet normal 0 1 0
    outer loop
      vertex 8.09698 20.296 2
      vertex 8.09698 20.296 4
      vertex 10.276 20.296 4
    endloop
  endfacet
  facet normal -0.926297 -0.376793 0
    outer loop
      vertex 14.319 5 2
      vertex 8.09698 20.296 4
      vertex 8.09698 20.296 2
    endloop
  endfacet
  facet normal -0.926297 -0.376793 0
    outer loop
      vertex 14.319 5 2
      vertex 14.319 5 4
      vertex 8.09698 20.296 4
    endloop
  endfacet
  facet normal 0 -1 0
    outer loop
      vertex 16.466 5 2
      vertex 14.319 5 4
      vertex 14.319 5 2
    endloop
  endfacet
  facet normal 0 -1 0
    outer loop
      vertex 16.466 5 2
      vertex 16.466 5 4
      vertex 14.319 5 4
    endloop
  endfacet
  facet normal 0.926318 -0.376742 0
    outer loop
      vertex 22.687 20.296 2
      vertex 16.466 5 4
      vertex 16.466 5 2
    endloop
  endfacet
  facet normal 0.926318 -0.376742 0
    outer loop
      vertex 22.687 20.296 2
      vertex 22.687 20.296 4
      vertex 16.466 5 4
    endloop
  endfacet
  facet normal 0 -1 0
    outer loop
      vertex 35.4756 11.363 2
      vertex 30.7016 11.363 4
      vertex 30.7016 11.363 2
    endloop
  endfacet
  facet normal 0 -1 0
    outer loop
      vertex 35.4756 11.363 2
      vertex 35.4756 11.363 4
      vertex 30.7016 11.363 4
    endloop
  endfacet
  facet normal -0.848051 -0.529915 0
    outer loop
      vertex 39.4516 5 2
      vertex 35.4756 11.363 4
      vertex 35.4756 11.363 2
    endloop
  endfacet
  facet normal -0.848051 -0.529915 0
    outer loop
      vertex 39.4516 5 2
      vertex 39.4516 5 4
      vertex 35.4756 11.363 4
    endloop
  endfacet
  facet normal 0 -1 0
    outer loop
      vertex 41.8376 5 2
      vertex 39.4516 5 4
      vertex 39.4516 5 2
    endloop
  endfacet
  facet normal 0 -1 0
    outer loop
      vertex 41.8376 5 2
      vertex 41.8376 5 4
      vertex 39.4516 5 4
    endloop
  endfacet
  facet normal 0.835287 0.549814 0
    outer loop
      vertex 37.4926 11.601 2
      vertex 41.8376 5 4
      vertex 41.8376 5 2
    endloop
  endfacet
  facet normal 0.835287 0.549814 -0
    outer loop
      vertex 37.4926 11.601 2
      vertex 37.4926 11.601 4
      vertex 41.8376 5 4
    endloop
  endfacet
  facet normal 0.265315 -0.964162 0
    outer loop
      vertex 38.5747 11.8988 2
      vertex 37.4926 11.601 4
      vertex 37.4926 11.601 2
    endloop
  endfacet
  facet normal 0.265315 -0.964162 0
    outer loop
      vertex 38.5747 11.8988 2
      vertex 38.5747 11.8988 4
      vertex 37.4926 11.601 4
    endloop
  endfacet
  facet normal 0.470853 -0.882211 0
    outer loop
      vertex 39.489 12.3868 2
      vertex 38.5747 11.8988 4
      vertex 38.5747 11.8988 2
    endloop
  endfacet
  facet normal 0.470853 -0.882211 0
    outer loop
      vertex 39.489 12.3868 2
      vertex 39.489 12.3868 4
      vertex 38.5747 11.8988 4
    endloop
  endfacet
  facet normal 0.672415 -0.740174 0
    outer loop
      vertex 40.2356 13.065 2
      vertex 39.489 12.3868 4
      vertex 39.489 12.3868 2
    endloop
  endfacet
  facet normal 0.672415 -0.740174 0
    outer loop
      vertex 40.2356 13.065 2
      vertex 40.2356 13.065 4
      vertex 39.489 12.3868 4
    endloop
  endfacet
  facet normal 0.833657 -0.552282 0
    outer loop
      vertex 40.7878 13.8985 2
      vertex 40.2356 13.065 4
      vertex 40.2356 13.065 2
    endloop
  endfacet
  facet normal 0.833657 -0.552282 0
    outer loop
      vertex 40.7878 13.8985 2
      vertex 40.7878 13.8985 4
      vertex 40.2356 13.065 4
    endloop
  endfacet
  facet normal 0.94465 -0.328079 0
    outer loop
      vertex 41.1191 14.8526 2
      vertex 40.7878 13.8985 4
      vertex 40.7878 13.8985 2
    endloop
  endfacet
  facet normal 0.94465 -0.328079 0
    outer loop
      vertex 41.1191 14.8526 2
      vertex 41.1191 14.8526 4
      vertex 40.7878 13.8985 4
    endloop
  endfacet
  facet normal 0.994758 -0.102253 0
    outer loop
      vertex 41.2296 15.927 2
      vertex 41.1191 14.8526 4
      vertex 41.1191 14.8526 2
    endloop
  endfacet
  facet normal 0.994758 -0.102253 0
    outer loop
      vertex 41.2296 15.927 2
      vertex 41.2296 15.927 4
      vertex 41.1191 14.8526 4
    endloop
  endfacet
  facet normal 0.99254 0.121917 0
    outer loop
      vertex 41.0732 17.1997 2
      vertex 41.2296 15.927 4
      vertex 41.2296 15.927 2
    endloop
  endfacet
  facet normal 0.99254 0.121917 -0
    outer loop
      vertex 41.0732 17.1997 2
      vertex 41.0732 17.1997 4
      vertex 41.2296 15.927 4
    endloop
  endfacet
  facet normal 0.916068 0.401023 0
    outer loop
      vertex 40.6042 18.271 2
      vertex 41.0732 17.1997 4
      vertex 41.0732 17.1997 2
    endloop
  endfacet
  facet normal 0.916068 0.401023 -0
    outer loop
      vertex 40.6042 18.271 2
      vertex 40.6042 18.271 4
      vertex 41.0732 17.1997 4
    endloop
  endfacet
  facet normal 0.743854 0.668342 0
    outer loop
      vertex 39.8226 19.141 2
      vertex 40.6042 18.271 4
      vertex 40.6042 18.271 2
    endloop
  endfacet
  facet normal 0.743854 0.668342 -0
    outer loop
      vertex 39.8226 19.141 2
      vertex 39.8226 19.141 4
      vertex 40.6042 18.271 4
    endloop
  endfacet
  facet normal 0.514888 0.857257 0
    outer loop
      vertex 38.7542 19.7827 2
      vertex 39.8226 19.141 4
      vertex 39.8226 19.141 2
    endloop
  endfacet
  facet normal 0.514888 0.857257 -0
    outer loop
      vertex 38.7542 19.7827 2
      vertex 38.7542 19.7827 4
      vertex 39.8226 19.141 4
    endloop
  endfacet
  facet normal 0.277999 0.960581 0
    outer loop
      vertex 37.4239 20.1677 2
      vertex 38.7542 19.7827 4
      vertex 38.7542 19.7827 2
    endloop
  endfacet
  facet normal 0.277999 0.960581 -0
    outer loop
      vertex 37.4239 20.1677 2
      vertex 37.4239 20.1677 4
      vertex 38.7542 19.7827 4
    endloop
  endfacet
  facet normal 0.0803299 0.996768 0
    outer loop
      vertex 35.8316 20.296 2
      vertex 37.4239 20.1677 4
      vertex 37.4239 20.1677 2
    endloop
  endfacet
  facet normal 0.0803299 0.996768 -0
    outer loop
      vertex 35.8316 20.296 2
      vertex 35.8316 20.296 4
      vertex 37.4239 20.1677 4
    endloop
  endfacet
  facet normal 0 1 0
    outer loop
      vertex 28.6306 20.296 2
      vertex 35.8316 20.296 4
      vertex 35.8316 20.296 2
    endloop
  endfacet
  facet normal 0 1 0
    outer loop
      vertex 28.6306 20.296 2
      vertex 28.6306 20.296 4
      vertex 35.8316 20.296 4
    endloop
  endfacet
  facet normal -1 0 0
    outer loop
      vertex 28.6306 5 2
      vertex 28.6306 20.296 4
      vertex 28.6306 20.296 2
    endloop
  endfacet
  facet normal -1 0 0
    outer loop
      vertex 28.6306 5 2
      vertex 28.6306 5 4
      vertex 28.6306 20.296 4
    endloop
  endfacet
  facet normal 0 -1 0
    outer loop
      vertex 30.7016 5 2
      vertex 28.6306 5 4
      vertex 28.6306 5 2
    endloop
  endfacet
  facet normal 0 -1 0
    outer loop
      vertex 30.7016 5 2
      vertex 30.7016 5 4
      vertex 28.6306 5 4
    endloop
  endfacet
  facet normal 1 0 0
    outer loop
      vertex 30.7016 11.363 2
      vertex 30.7016 5 4
      vertex 30.7016 5 2
    endloop
  endfacet
  facet normal 1 0 -0
    outer loop
      vertex 30.7016 11.363 2
      vertex 30.7016 11.363 4
      vertex 30.7016 5 4
    endloop
  endfacet
  facet normal 1 0 -0
    outer loop
      vertex 30.7016 18.637 2
      vertex 30.7016 18.637 4
      vertex 30.7016 13 2
    endloop
  endfacet
  facet normal 1 -0 0
    outer loop
      vertex 30.7016 13 4
      vertex 30.7016 13 2
      vertex 30.7016 18.637 4
    endloop
  endfacet
  facet normal 0 -1 0
    outer loop
      vertex 35.6256 18.637 2
      vertex 35.6256 18.637 4
      vertex 30.7016 18.637 2
    endloop
  endfacet
  facet normal 0 -1 0
    outer loop
      vertex 30.7016 18.637 4
      vertex 30.7016 18.637 2
      vertex 35.6256 18.637 4
    endloop
  endfacet
  facet normal -0.07383 -0.997271 0
    outer loop
      vertex 36.6747 18.5593 2
      vertex 36.6747 18.5593 4
      vertex 35.6256 18.637 2
    endloop
  endfacet
  facet normal -0.07383 -0.997271 -0
    outer loop
      vertex 35.6256 18.637 4
      vertex 35.6256 18.637 2
      vertex 36.6747 18.5593 4
    endloop
  endfacet
  facet normal -0.25833 -0.966057 0
    outer loop
      vertex 37.546 18.3263 2
      vertex 37.546 18.3263 4
      vertex 36.6747 18.5593 2
    endloop
  endfacet
  facet normal -0.25833 -0.966057 -0
    outer loop
      vertex 36.6747 18.5593 4
      vertex 36.6747 18.5593 2
      vertex 37.546 18.3263 4
    endloop
  endfacet
  facet normal -0.48855 -0.872536 0
    outer loop
      vertex 38.2396 17.938 2
      vertex 38.2396 17.938 4
      vertex 37.546 18.3263 2
    endloop
  endfacet
  facet normal -0.48855 -0.872536 -0
    outer loop
      vertex 37.546 18.3263 4
      vertex 37.546 18.3263 2
      vertex 38.2396 17.938 4
    endloop
  endfacet
  facet normal -0.728568 -0.684974 0
    outer loop
      vertex 38.744 17.4014 2
      vertex 38.744 17.4014 4
      vertex 38.2396 17.938 2
    endloop
  endfacet
  facet normal -0.728568 -0.684974 -0
    outer loop
      vertex 38.2396 17.938 4
      vertex 38.2396 17.938 2
      vertex 38.744 17.4014 4
    endloop
  endfacet
  facet normal -0.913067 -0.407809 0
    outer loop
      vertex 39.0467 16.7238 2
      vertex 39.0467 16.7238 4
      vertex 38.744 17.4014 2
    endloop
  endfacet
  facet normal -0.913067 -0.407809 -0
    outer loop
      vertex 38.744 17.4014 4
      vertex 38.744 17.4014 2
      vertex 39.0467 16.7238 4
    endloop
  endfacet
  facet normal -0.992496 -0.122279 0
    outer loop
      vertex 39.1476 15.905 2
      vertex 39.1476 15.905 4
      vertex 39.0467 16.7238 2
    endloop
  endfacet
  facet normal -0.992496 -0.122279 -0
    outer loop
      vertex 39.0467 16.7238 4
      vertex 39.0467 16.7238 2
      vertex 39.1476 15.905 4
    endloop
  endfacet
  facet normal -0.993196 0.116457 0
    outer loop
      vertex 39.0479 15.0551 2
      vertex 39.0479 15.0551 4
      vertex 39.1476 15.905 2
    endloop
  endfacet
  facet normal -0.993196 0.116457 0
    outer loop
      vertex 39.1476 15.905 4
      vertex 39.1476 15.905 2
      vertex 39.0479 15.0551 4
    endloop
  endfacet
  facet normal -0.922318 0.386431 0
    outer loop
      vertex 38.7489 14.3414 2
      vertex 38.7489 14.3414 4
      vertex 39.0479 15.0551 2
    endloop
  endfacet
  facet normal -0.922318 0.386431 0
    outer loop
      vertex 39.0479 15.0551 4
      vertex 39.0479 15.0551 2
      vertex 38.7489 14.3414 4
    endloop
  endfacet
  facet normal -0.757066 0.653338 0
    outer loop
      vertex 38.2506 13.764 2
      vertex 38.2506 13.764 4
      vertex 38.7489 14.3414 2
    endloop
  endfacet
  facet normal -0.757066 0.653338 0
    outer loop
      vertex 38.7489 14.3414 4
      vertex 38.7489 14.3414 2
      vertex 38.2506 13.764 4
    endloop
  endfacet
  facet normal -0.529115 0.84855 0
    outer loop
      vertex 37.5699 13.3396 2
      vertex 37.5699 13.3396 4
      vertex 38.2506 13.764 2
    endloop
  endfacet
  facet normal -0.529115 0.84855 0
    outer loop
      vertex 38.2506 13.764 4
      vertex 38.2506 13.764 2
      vertex 37.5699 13.3396 4
    endloop
  endfacet
  facet normal -0.288253 0.957554 0
    outer loop
      vertex 36.7239 13.0849 2
      vertex 36.7239 13.0849 4
      vertex 37.5699 13.3396 2
    endloop
  endfacet
  facet normal -0.288253 0.957554 0
    outer loop
      vertex 37.5699 13.3396 4
      vertex 37.5699 13.3396 2
      vertex 36.7239 13.0849 4
    endloop
  endfacet
  facet normal -0.083639 0.996496 0
    outer loop
      vertex 35.7126 13 2
      vertex 35.7126 13 4
      vertex 36.7239 13.0849 2
    endloop
  endfacet
  facet normal -0.083639 0.996496 0
    outer loop
      vertex 36.7239 13.0849 4
      vertex 36.7239 13.0849 2
      vertex 35.7126 13 4
    endloop
  endfacet
  facet normal 0 1 0
    outer loop
      vertex 30.7016 13 2
      vertex 30.7016 13 4
      vertex 35.7126 13 2
    endloop
  endfacet
  facet normal 0 1 0
    outer loop
      vertex 35.7126 13 4
      vertex 35.7126 13 2
      vertex 30.7016 13 4
    endloop
  endfacet
endsolid OpenSCAD_Model
