solid OpenSCAD_Model
  facet normal 0 -0 -1
    outer loop
      vertex 20.507 20.296 2
      vertex 22.687 20.296 2
      vertex 16.311 9.52499 2
    endloop
  endfacet
  facet normal 0 -0 -1
    outer loop
      vertex 16.311 9.52499 2
      vertex 16.466 5 2
      vertex 15.403 6.82199 2
    endloop
  endfacet
  facet normal 0 0 -1
    outer loop
      vertex 22.687 20.296 2
      vertex 16.466 5 2
      vertex 16.311 9.52499 2
    endloop
  endfacet
  facet normal 0 -0 -1
    outer loop
      vertex 15.403 6.82199 2
      vertex 16.466 5 2
      vertex 14.319 5 2
    endloop
  endfacet
  facet normal 0 0 -1
    outer loop
      vertex 14.494 9.52499 2
      vertex 8.09698 20.296 2
      vertex 10.276 20.296 2
    endloop
  endfacet
  facet normal -0 0 -1
    outer loop
      vertex 14.494 9.52499 2
      vertex 14.319 5 2
      vertex 8.09698 20.296 2
    endloop
  endfacet
  facet normal 0 -0 -1
    outer loop
      vertex 14.494 9.52499 2
      vertex 15.403 6.82199 2
      vertex 14.319 5 2
    endloop
  endfacet
  facet normal -0 0 -1
    outer loop
      vertex 35.4636 13.023 2
      vertex 33.1046 12.947 2
      vertex 34.2736 14.293 2
    endloop
  endfacet
  facet normal -0 0 -1
    outer loop
      vertex 34.2626 11.687 2
      vertex 29.5916 5 2
      vertex 33.1046 12.947 2
    endloop
  endfacet
  facet normal 0 0 -1
    outer loop
      vertex 41.1246 5 2
      vertex 38.8366 5 2
      vertex 35.4636 13.023 2
    endloop
  endfacet
  facet normal -0 0 -1
    outer loop
      vertex 40.6806 20.296 2
      vertex 35.4636 13.023 2
      vertex 38.3926 20.296 2
    endloop
  endfacet
  facet normal 0 -0 -1
    outer loop
      vertex 35.4636 13.023 2
      vertex 38.8366 5 2
      vertex 34.2626 11.687 2
    endloop
  endfacet
  facet normal 0 0 -1
    outer loop
      vertex 38.3926 20.296 2
      vertex 35.4636 13.023 2
      vertex 34.2736 14.293 2
    endloop
  endfacet
  facet normal -0 0 -1
    outer loop
      vertex 34.2736 14.293 2
      vertex 33.1046 12.947 2
      vertex 30.0356 20.296 2
    endloop
  endfacet
  facet normal -0 -0 -1
    outer loop
      vertex 30.0356 20.296 2
      vertex 33.1046 12.947 2
      vertex 27.7476 20.296 2
    endloop
  endfacet
  facet normal 0 0 -1
    outer loop
      vertex 34.2626 11.687 2
      vertex 33.1046 12.947 2
      vertex 35.4636 13.023 2
    endloop
  endfacet
  facet normal 0 0 -1
    outer loop
      vertex 29.5916 5 2
      vertex 27.3036 5 2
      vertex 33.1046 12.947 2
    endloop
  endfacet
  facet normal 0 0 1
    outer loop
      vertex 16.311 9.52499 4
      vertex 22.687 20.296 4
      vertex 20.507 20.296 4
    endloop
  endfacet
  facet normal -0 0 1
    outer loop
      vertex 15.403 6.82199 4
      vertex 16.466 5 4
      vertex 16.311 9.52499 4
    endloop
  endfacet
  facet normal -0 0 1
    outer loop
      vertex 16.311 9.52499 4
      vertex 16.466 5 4
      vertex 22.687 20.296 4
    endloop
  endfacet
  facet normal 0 0 1
    outer loop
      vertex 14.319 5 4
      vertex 16.466 5 4
      vertex 15.403 6.82199 4
    endloop
  endfacet
  facet normal 0 0 1
    outer loop
      vertex 10.276 20.296 4
      vertex 8.09698 20.296 4
      vertex 14.494 9.52499 4
    endloop
  endfacet
  facet normal 0 0 1
    outer loop
      vertex 8.09698 20.296 4
      vertex 14.319 5 4
      vertex 14.494 9.52499 4
    endloop
  endfacet
  facet normal 0 0 1
    outer loop
      vertex 14.319 5 4
      vertex 15.403 6.82199 4
      vertex 14.494 9.52499 4
    endloop
  endfacet
  facet normal 0 0 1
    outer loop
      vertex 34.2736 14.293 4
      vertex 33.1046 12.947 4
      vertex 35.4636 13.023 4
    endloop
  endfacet
  facet normal 0 0 1
    outer loop
      vertex 33.1046 12.947 4
      vertex 29.5916 5 4
      vertex 34.2626 11.687 4
    endloop
  endfacet
  facet normal 0 0 1
    outer loop
      vertex 35.4636 13.023 4
      vertex 38.8366 5 4
      vertex 41.1246 5 4
    endloop
  endfacet
  facet normal -0 0 1
    outer loop
      vertex 38.3926 20.296 4
      vertex 35.4636 13.023 4
      vertex 40.6806 20.296 4
    endloop
  endfacet
  facet normal -0 0 1
    outer loop
      vertex 34.2626 11.687 4
      vertex 38.8366 5 4
      vertex 35.4636 13.023 4
    endloop
  endfacet
  facet normal -0 0 1
    outer loop
      vertex 34.2736 14.293 4
      vertex 35.4636 13.023 4
      vertex 38.3926 20.296 4
    endloop
  endfacet
  facet normal 0 0 1
    outer loop
      vertex 30.0356 20.296 4
      vertex 33.1046 12.947 4
      vertex 34.2736 14.293 4
    endloop
  endfacet
  facet normal -0 0 1
    outer loop
      vertex 27.7476 20.296 4
      vertex 33.1046 12.947 4
      vertex 30.0356 20.296 4
    endloop
  endfacet
  facet normal 0 0 1
    outer loop
      vertex 35.4636 13.023 4
      vertex 33.1046 12.947 4
      vertex 34.2626 11.687 4
    endloop
  endfacet
  facet normal 0 0 1
    outer loop
      vertex 33.1046 12.947 4
      vertex 27.3036 5 4
      vertex 29.5916 5 4
    endloop
  endfacet
  facet normal 0 1 0
    outer loop
      vertex 20.507 20.296 2
      vertex 22.687 20.296 4
      vertex 22.687 20.296 2
    endloop
  endfacet
  facet normal 0 1 0
    outer loop
      vertex 20.507 20.296 2
      vertex 20.507 20.296 4
      vertex 22.687 20.296 4
    endloop
  endfacet
  facet normal -0.931792 0.362993 0
    outer loop
      vertex 16.311 9.52499 2
      vertex 20.507 20.296 4
      vertex 20.507 20.296 2
    endloop
  endfacet
  facet normal -0.931792 0.362993 0
    outer loop
      vertex 16.311 9.52499 2
      vertex 16.311 9.52499 4
      vertex 20.507 20.296 4
    endloop
  endfacet
  facet normal -0.947945 0.318433 0
    outer loop
      vertex 15.403 6.82199 2
      vertex 16.311 9.52499 4
      vertex 16.311 9.52499 2
    endloop
  endfacet
  facet normal -0.947945 0.318433 0
    outer loop
      vertex 15.403 6.82199 2
      vertex 15.403 6.82199 4
      vertex 16.311 9.52499 4
    endloop
  endfacet
  facet normal 0.947837 0.318755 0
    outer loop
      vertex 14.494 9.52499 2
      vertex 15.403 6.82199 4
      vertex 15.403 6.82199 2
    endloop
  endfacet
  facet normal 0.947837 0.318755 -0
    outer loop
      vertex 14.494 9.52499 2
      vertex 14.494 9.52499 4
      vertex 15.403 6.82199 4
    endloop
  endfacet
  facet normal 0.931147 0.364644 0
    outer loop
      vertex 10.276 20.296 2
      vertex 14.494 9.52499 4
      vertex 14.494 9.52499 2
    endloop
  endfacet
  facet normal 0.931147 0.364644 -0
    outer loop
      vertex 10.276 20.296 2
      vertex 10.276 20.296 4
      vertex 14.494 9.52499 4
    endloop
  endfacet
  facet normal 0 1 0
    outer loop
      vertex 8.09698 20.296 2
      vertex 10.276 20.296 4
      vertex 10.276 20.296 2
    endloop
  endfacet
  facet normal 0 1 0
    outer loop
      vertex 8.09698 20.296 2
      vertex 8.09698 20.296 4
      vertex 10.276 20.296 4
    endloop
  endfacet
  facet normal -0.926297 -0.376793 0
    outer loop
      vertex 14.319 5 2
      vertex 8.09698 20.296 4
      vertex 8.09698 20.296 2
    endloop
  endfacet
  facet normal -0.926297 -0.376793 0
    outer loop
      vertex 14.319 5 2
      vertex 14.319 5 4
      vertex 8.09698 20.296 4
    endloop
  endfacet
  facet normal 0 -1 0
    outer loop
      vertex 16.466 5 2
      vertex 14.319 5 4
      vertex 14.319 5 2
    endloop
  endfacet
  facet normal 0 -1 0
    outer loop
      vertex 16.466 5 2
      vertex 16.466 5 4
      vertex 14.319 5 4
    endloop
  endfacet
  facet normal 0.926318 -0.376742 0
    outer loop
      vertex 22.687 20.296 2
      vertex 16.466 5 4
      vertex 16.466 5 2
    endloop
  endfacet
  facet normal 0.926318 -0.376742 0
    outer loop
      vertex 22.687 20.296 2
      vertex 22.687 20.296 4
      vertex 16.466 5 4
    endloop
  endfacet
  facet normal -0.825383 -0.564574 0
    outer loop
      vertex 38.8366 5 2
      vertex 34.2626 11.687 4
      vertex 34.2626 11.687 2
    endloop
  endfacet
  facet normal -0.825383 -0.564574 0
    outer loop
      vertex 38.8366 5 2
      vertex 38.8366 5 4
      vertex 34.2626 11.687 4
    endloop
  endfacet
  facet normal 0 -1 0
    outer loop
      vertex 41.1246 5 2
      vertex 38.8366 5 4
      vertex 38.8366 5 2
    endloop
  endfacet
  facet normal 0 -1 0
    outer loop
      vertex 41.1246 5 2
      vertex 41.1246 5 4
      vertex 38.8366 5 4
    endloop
  endfacet
  facet normal 0.817078 0.576527 0
    outer loop
      vertex 35.4636 13.023 2
      vertex 41.1246 5 4
      vertex 41.1246 5 2
    endloop
  endfacet
  facet normal 0.817078 0.576527 -0
    outer loop
      vertex 35.4636 13.023 2
      vertex 35.4636 13.023 4
      vertex 41.1246 5 4
    endloop
  endfacet
  facet normal 0.812569 -0.582864 0
    outer loop
      vertex 40.6806 20.296 2
      vertex 35.4636 13.023 4
      vertex 35.4636 13.023 2
    endloop
  endfacet
  facet normal 0.812569 -0.582864 0
    outer loop
      vertex 40.6806 20.296 2
      vertex 40.6806 20.296 4
      vertex 35.4636 13.023 4
    endloop
  endfacet
  facet normal 0 1 0
    outer loop
      vertex 38.3926 20.296 2
      vertex 40.6806 20.296 4
      vertex 40.6806 20.296 2
    endloop
  endfacet
  facet normal 0 1 0
    outer loop
      vertex 38.3926 20.296 2
      vertex 38.3926 20.296 4
      vertex 40.6806 20.296 4
    endloop
  endfacet
  facet normal -0.824558 0.565777 0
    outer loop
      vertex 34.2736 14.293 2
      vertex 38.3926 20.296 4
      vertex 38.3926 20.296 2
    endloop
  endfacet
  facet normal -0.824558 0.565777 0
    outer loop
      vertex 34.2736 14.293 2
      vertex 34.2736 14.293 4
      vertex 38.3926 20.296 4
    endloop
  endfacet
  facet normal 0.816929 0.576738 0
    outer loop
      vertex 30.0356 20.296 2
      vertex 34.2736 14.293 4
      vertex 34.2736 14.293 2
    endloop
  endfacet
  facet normal 0.816929 0.576738 -0
    outer loop
      vertex 30.0356 20.296 2
      vertex 30.0356 20.296 4
      vertex 34.2736 14.293 4
    endloop
  endfacet
  facet normal 0 1 0
    outer loop
      vertex 27.7476 20.296 2
      vertex 30.0356 20.296 4
      vertex 30.0356 20.296 2
    endloop
  endfacet
  facet normal 0 1 0
    outer loop
      vertex 27.7476 20.296 2
      vertex 27.7476 20.296 4
      vertex 30.0356 20.296 4
    endloop
  endfacet
  facet normal -0.808094 -0.589054 0
    outer loop
      vertex 33.1046 12.947 2
      vertex 27.7476 20.296 4
      vertex 27.7476 20.296 2
    endloop
  endfacet
  facet normal -0.808094 -0.589054 0
    outer loop
      vertex 33.1046 12.947 2
      vertex 33.1046 12.947 4
      vertex 27.7476 20.296 4
    endloop
  endfacet
  facet normal -0.807702 0.589591 0
    outer loop
      vertex 27.3036 5 2
      vertex 33.1046 12.947 4
      vertex 33.1046 12.947 2
    endloop
  endfacet
  facet normal -0.807702 0.589591 0
    outer loop
      vertex 27.3036 5 2
      vertex 27.3036 5 4
      vertex 33.1046 12.947 4
    endloop
  endfacet
  facet normal 0 -1 0
    outer loop
      vertex 29.5916 5 2
      vertex 27.3036 5 4
      vertex 27.3036 5 2
    endloop
  endfacet
  facet normal 0 -1 0
    outer loop
      vertex 29.5916 5 2
      vertex 29.5916 5 4
      vertex 27.3036 5 4
    endloop
  endfacet
  facet normal 0.819801 -0.572648 0
    outer loop
      vertex 34.2626 11.687 2
      vertex 29.5916 5 4
      vertex 29.5916 5 2
    endloop
  endfacet
  facet normal 0.819801 -0.572648 0
    outer loop
      vertex 34.2626 11.687 2
      vertex 34.2626 11.687 4
      vertex 29.5916 5 4
    endloop
  endfacet
endsolid OpenSCAD_Model
