solid OpenSCAD_Model
  facet normal 0 -0 -1
    outer loop
      vertex 17.525 20.296 2
      vertex 18.3445 17.1919 2
      vertex 16.0025 14.8852 2
    endloop
  endfacet
  facet normal 0 0 -1
    outer loop
      vertex 18.3445 17.1919 2
      vertex 18.045 15.879 2
      vertex 16.0025 14.8852 2
    endloop
  endfacet
  facet normal -0 0 -1
    outer loop
      vertex 18.523 17.986 2
      vertex 18.3445 17.1919 2
      vertex 17.525 20.296 2
    endloop
  endfacet
  facet normal 0 0 -1
    outer loop
      vertex 16.0025 14.8852 2
      vertex 18.045 15.879 2
      vertex 17.6283 14.2942 2
    endloop
  endfacet
  facet normal 0 0 -1
    outer loop
      vertex 14.9979 11.2622 2
      vertex 16.0025 14.8852 2
      vertex 17.6283 14.2942 2
    endloop
  endfacet
  facet normal 0 0 -1
    outer loop
      vertex 25.1436 14.5024 2
      vertex 26.758 20.296 2
      vertex 28.916 20.296 2
    endloop
  endfacet
  facet normal 0 0 -1
    outer loop
      vertex 28.916 20.296 2
      vertex 24.408 5 2
      vertex 25.1436 14.5024 2
    endloop
  endfacet
  facet normal 0 0 -1
    outer loop
      vertex 18.523 17.986 2
      vertex 17.525 20.296 2
      vertex 19.509 20.296 2
    endloop
  endfacet
  facet normal 0 0 -1
    outer loop
      vertex 16.6397 10.6679 2
      vertex 14.9979 11.2622 2
      vertex 17.6283 14.2942 2
    endloop
  endfacet
  facet normal -0 0 -1
    outer loop
      vertex 16.6397 10.6679 2
      vertex 14.511 9.42699 2
      vertex 14.9979 11.2622 2
    endloop
  endfacet
  facet normal -0 0 -1
    outer loop
      vertex 23.128 6.82199 2
      vertex 21.936 5 2
      vertex 22.8671 7.98021 2
    endloop
  endfacet
  facet normal 0 0 -1
    outer loop
      vertex 24.1255 10.8164 2
      vertex 25.1436 14.5024 2
      vertex 24.408 5 2
    endloop
  endfacet
  facet normal 0 0 -1
    outer loop
      vertex 23.704 9.23799 2
      vertex 24.1255 10.8164 2
      vertex 24.408 5 2
    endloop
  endfacet
  facet normal 0 0 -1
    outer loop
      vertex 23.226 7.202 2
      vertex 23.704 9.23799 2
      vertex 24.408 5 2
    endloop
  endfacet
  facet normal 0 0 -1
    outer loop
      vertex 21.936 5 2
      vertex 23.128 6.82199 2
      vertex 24.408 5 2
    endloop
  endfacet
  facet normal 0 0 -1
    outer loop
      vertex 23.128 6.82199 2
      vertex 23.226 7.202 2
      vertex 24.408 5 2
    endloop
  endfacet
  facet normal 0 -0 -1
    outer loop
      vertex 22.5484 9.29755 2
      vertex 22.8671 7.98021 2
      vertex 21.936 5 2
    endloop
  endfacet
  facet normal 0 -0 -1
    outer loop
      vertex 22.172 10.774 2
      vertex 22.5484 9.29755 2
      vertex 21.936 5 2
    endloop
  endfacet
  facet normal 0 0 -1
    outer loop
      vertex 19.284 14.718 2
      vertex 22.172 10.774 2
      vertex 21.936 5 2
    endloop
  endfacet
  facet normal 0 0 -1
    outer loop
      vertex 19.509 20.296 2
      vertex 18.8298 16.5758 2
      vertex 18.523 17.986 2
    endloop
  endfacet
  facet normal 0 0 -1
    outer loop
      vertex 19.284 14.718 2
      vertex 19.0834 15.4864 2
      vertex 22.172 10.774 2
    endloop
  endfacet
  facet normal 0 0 -1
    outer loop
      vertex 19.0834 15.4864 2
      vertex 19.509 20.296 2
      vertex 22.172 10.774 2
    endloop
  endfacet
  facet normal 0 0 -1
    outer loop
      vertex 18.8298 16.5758 2
      vertex 19.509 20.296 2
      vertex 19.0834 15.4864 2
    endloop
  endfacet
  facet normal 0 0 -1
    outer loop
      vertex 16.6397 10.6679 2
      vertex 14.292 8.51044 2
      vertex 14.511 9.42699 2
    endloop
  endfacet
  facet normal 0 0 -1
    outer loop
      vertex 16.6397 10.6679 2
      vertex 15.079 5 2
      vertex 14.292 8.51044 2
    endloop
  endfacet
  facet normal 0 -0 -1
    outer loop
      vertex 14.292 8.51044 2
      vertex 15.079 5 2
      vertex 14.091 7.64211 2
    endloop
  endfacet
  facet normal 0 -0 -1
    outer loop
      vertex 14.091 7.64211 2
      vertex 15.079 5 2
      vertex 13.908 6.82199 2
    endloop
  endfacet
  facet normal 0 -0 -1
    outer loop
      vertex 13.908 6.82199 2
      vertex 15.079 5 2
      vertex 12.607 5 2
    endloop
  endfacet
  facet normal 0 0 -1
    outer loop
      vertex 8.09799 20.296 2
      vertex 13.006 10.579 2
      vertex 12.607 5 2
    endloop
  endfacet
  facet normal 0 0 -1
    outer loop
      vertex 12.607 5 2
      vertex 13.006 10.579 2
      vertex 13.3235 9.35088 2
    endloop
  endfacet
  facet normal 0 0 -1
    outer loop
      vertex 13.006 10.579 2
      vertex 8.09799 20.296 2
      vertex 10.256 20.296 2
    endloop
  endfacet
  facet normal -0 0 -1
    outer loop
      vertex 13.6242 8.09854 2
      vertex 12.607 5 2
      vertex 13.3235 9.35088 2
    endloop
  endfacet
  facet normal 0 -0 -1
    outer loop
      vertex 13.6242 8.09854 2
      vertex 13.908 6.82199 2
      vertex 12.607 5 2
    endloop
  endfacet
  facet normal 0 0 -1
    outer loop
      vertex 49.5081 11.2933 2
      vertex 49.2004 9.91299 2
      vertex 47.2242 10.5081 2
    endloop
  endfacet
  facet normal 0 0 -1
    outer loop
      vertex 46.3212 8.67166 2
      vertex 46.8436 9.52599 2
      vertex 47.9865 7.57288 2
    endloop
  endfacet
  facet normal 0 0 -1
    outer loop
      vertex 47.4525 11.6011 2
      vertex 49.6106 12.805 2
      vertex 49.5081 11.2933 2
    endloop
  endfacet
  facet normal 0 0 -1
    outer loop
      vertex 47.1139 6.66621 2
      vertex 45.6672 7.96199 2
      vertex 46.3212 8.67166 2
    endloop
  endfacet
  facet normal 0 0 -1
    outer loop
      vertex 49.6106 12.805 2
      vertex 47.5286 12.805 2
      vertex 47.3553 14.552 2
    endloop
  endfacet
  facet normal 0 0 -1
    outer loop
      vertex 43.985 6.987 2
      vertex 44.8816 7.39699 2
      vertex 44.8823 5.41954 2
    endloop
  endfacet
  facet normal 0 0 -1
    outer loop
      vertex 45.9686 17.144 2
      vertex 44.7735 17.9734 2
      vertex 45.8922 19.4298 2
    endloop
  endfacet
  facet normal 0 0 -1
    outer loop
      vertex 44.7735 17.9734 2
      vertex 43.2682 18.4711 2
      vertex 43.8919 20.0794 2
    endloop
  endfacet
  facet normal -0 0 -1
    outer loop
      vertex 43.8919 20.0794 2
      vertex 43.2682 18.4711 2
      vertex 41.4966 20.296 2
    endloop
  endfacet
  facet normal 0 -0 -1
    outer loop
      vertex 41.4966 20.296 2
      vertex 43.2682 18.4711 2
      vertex 41.4526 18.637 2
    endloop
  endfacet
  facet normal 0 0 -1
    outer loop
      vertex 38.5066 18.637 2
      vertex 41.4966 20.296 2
      vertex 41.4526 18.637 2
    endloop
  endfacet
  facet normal 0 0 -1
    outer loop
      vertex 42.1596 5 2
      vertex 36.4356 5 2
      vertex 38.5066 6.659 2
    endloop
  endfacet
  facet normal 0 0 -1
    outer loop
      vertex 42.1596 5 2
      vertex 38.5066 6.659 2
      vertex 41.9196 6.659 2
    endloop
  endfacet
  facet normal 0 0 -1
    outer loop
      vertex 42.1596 5 2
      vertex 42.9976 6.741 2
      vertex 43.579 5.10487 2
    endloop
  endfacet
  facet normal 0 0 -1
    outer loop
      vertex 38.5066 6.659 2
      vertex 36.4356 20.296 2
      vertex 38.5066 18.637 2
    endloop
  endfacet
  facet normal -0 0 -1
    outer loop
      vertex 38.5066 6.659 2
      vertex 36.4356 5 2
      vertex 36.4356 20.296 2
    endloop
  endfacet
  facet normal 0 0 -1
    outer loop
      vertex 38.5066 18.637 2
      vertex 36.4356 20.296 2
      vertex 41.4966 20.296 2
    endloop
  endfacet
  facet normal -0 0 -1
    outer loop
      vertex 47.4976 18.347 2
      vertex 45.9686 17.144 2
      vertex 45.8922 19.4298 2
    endloop
  endfacet
  facet normal 0 0 -1
    outer loop
      vertex 44.7735 17.9734 2
      vertex 43.8919 20.0794 2
      vertex 45.8922 19.4298 2
    endloop
  endfacet
  facet normal 0 0 -1
    outer loop
      vertex 47.4976 18.347 2
      vertex 46.8353 15.9983 2
      vertex 45.9686 17.144 2
    endloop
  endfacet
  facet normal 0 0 -1
    outer loop
      vertex 46.8353 15.9983 2
      vertex 48.6715 16.8654 2
      vertex 47.3553 14.552 2
    endloop
  endfacet
  facet normal 0 -0 -1
    outer loop
      vertex 47.4976 18.347 2
      vertex 48.6715 16.8654 2
      vertex 46.8353 15.9983 2
    endloop
  endfacet
  facet normal 0 0 -1
    outer loop
      vertex 47.3553 14.552 2
      vertex 49.3759 15.0181 2
      vertex 49.6106 12.805 2
    endloop
  endfacet
  facet normal 0 -0 -1
    outer loop
      vertex 48.6715 16.8654 2
      vertex 49.3759 15.0181 2
      vertex 47.3553 14.552 2
    endloop
  endfacet
  facet normal -0 0 -1
    outer loop
      vertex 49.6106 12.805 2
      vertex 47.4525 11.6011 2
      vertex 47.5286 12.805 2
    endloop
  endfacet
  facet normal -0 0 -1
    outer loop
      vertex 49.5081 11.2933 2
      vertex 47.2242 10.5081 2
      vertex 47.4525 11.6011 2
    endloop
  endfacet
  facet normal 0 -0 -1
    outer loop
      vertex 47.2242 10.5081 2
      vertex 48.6876 8.66399 2
      vertex 46.8436 9.52599 2
    endloop
  endfacet
  facet normal -0 0 -1
    outer loop
      vertex 49.2004 9.91299 2
      vertex 48.6876 8.66399 2
      vertex 47.2242 10.5081 2
    endloop
  endfacet
  facet normal -0 0 -1
    outer loop
      vertex 48.6876 8.66399 2
      vertex 47.9865 7.57288 2
      vertex 46.8436 9.52599 2
    endloop
  endfacet
  facet normal -0 0 -1
    outer loop
      vertex 47.9865 7.57288 2
      vertex 47.1139 6.66621 2
      vertex 46.3212 8.67166 2
    endloop
  endfacet
  facet normal -0 0 -1
    outer loop
      vertex 47.1139 6.66621 2
      vertex 46.0696 5.94398 2
      vertex 45.6672 7.96199 2
    endloop
  endfacet
  facet normal 0 -0 -1
    outer loop
      vertex 45.6672 7.96199 2
      vertex 46.0696 5.94398 2
      vertex 44.8816 7.39699 2
    endloop
  endfacet
  facet normal 0 0 -1
    outer loop
      vertex 44.8816 7.39699 2
      vertex 46.0696 5.94398 2
      vertex 44.8823 5.41954 2
    endloop
  endfacet
  facet normal 0 -0 -1
    outer loop
      vertex 43.985 6.987 2
      vertex 44.8823 5.41954 2
      vertex 43.579 5.10487 2
    endloop
  endfacet
  facet normal 0 0 -1
    outer loop
      vertex 41.9196 6.659 2
      vertex 42.9976 6.741 2
      vertex 42.1596 5 2
    endloop
  endfacet
  facet normal 0 0 -1
    outer loop
      vertex 42.9976 6.741 2
      vertex 43.985 6.987 2
      vertex 43.579 5.10487 2
    endloop
  endfacet
  facet normal 0 0 1
    outer loop
      vertex 16.0025 14.8852 4
      vertex 18.3445 17.1919 4
      vertex 17.525 20.296 4
    endloop
  endfacet
  facet normal 0 0 1
    outer loop
      vertex 16.0025 14.8852 4
      vertex 18.045 15.879 4
      vertex 18.3445 17.1919 4
    endloop
  endfacet
  facet normal 0 0 1
    outer loop
      vertex 17.525 20.296 4
      vertex 18.3445 17.1919 4
      vertex 18.523 17.986 4
    endloop
  endfacet
  facet normal 0 -0 1
    outer loop
      vertex 17.6283 14.2942 4
      vertex 18.045 15.879 4
      vertex 16.0025 14.8852 4
    endloop
  endfacet
  facet normal 0 0 1
    outer loop
      vertex 17.6283 14.2942 4
      vertex 16.0025 14.8852 4
      vertex 14.9979 11.2622 4
    endloop
  endfacet
  facet normal 0 0 1
    outer loop
      vertex 28.916 20.296 4
      vertex 26.758 20.296 4
      vertex 25.1436 14.5024 4
    endloop
  endfacet
  facet normal -0 0 1
    outer loop
      vertex 25.1436 14.5024 4
      vertex 24.408 5 4
      vertex 28.916 20.296 4
    endloop
  endfacet
  facet normal 0 0 1
    outer loop
      vertex 19.509 20.296 4
      vertex 17.525 20.296 4
      vertex 18.523 17.986 4
    endloop
  endfacet
  facet normal 0 0 1
    outer loop
      vertex 17.6283 14.2942 4
      vertex 14.9979 11.2622 4
      vertex 16.6397 10.6679 4
    endloop
  endfacet
  facet normal 0 0 1
    outer loop
      vertex 14.9979 11.2622 4
      vertex 14.511 9.42699 4
      vertex 16.6397 10.6679 4
    endloop
  endfacet
  facet normal 0 0 1
    outer loop
      vertex 22.8671 7.98021 4
      vertex 21.936 5 4
      vertex 23.128 6.82199 4
    endloop
  endfacet
  facet normal 0 -0 1
    outer loop
      vertex 24.408 5 4
      vertex 25.1436 14.5024 4
      vertex 24.1255 10.8164 4
    endloop
  endfacet
  facet normal 0 0 1
    outer loop
      vertex 24.408 5 4
      vertex 24.1255 10.8164 4
      vertex 23.704 9.23799 4
    endloop
  endfacet
  facet normal 0 0 1
    outer loop
      vertex 24.408 5 4
      vertex 23.704 9.23799 4
      vertex 23.226 7.202 4
    endloop
  endfacet
  facet normal 0 0 1
    outer loop
      vertex 24.408 5 4
      vertex 23.128 6.82199 4
      vertex 21.936 5 4
    endloop
  endfacet
  facet normal 0 0 1
    outer loop
      vertex 24.408 5 4
      vertex 23.226 7.202 4
      vertex 23.128 6.82199 4
    endloop
  endfacet
  facet normal 0 0 1
    outer loop
      vertex 21.936 5 4
      vertex 22.8671 7.98021 4
      vertex 22.5484 9.29755 4
    endloop
  endfacet
  facet normal 0 0 1
    outer loop
      vertex 21.936 5 4
      vertex 22.5484 9.29755 4
      vertex 22.172 10.774 4
    endloop
  endfacet
  facet normal 0 -0 1
    outer loop
      vertex 21.936 5 4
      vertex 22.172 10.774 4
      vertex 19.284 14.718 4
    endloop
  endfacet
  facet normal -0 0 1
    outer loop
      vertex 18.523 17.986 4
      vertex 18.8298 16.5758 4
      vertex 19.509 20.296 4
    endloop
  endfacet
  facet normal 0 0 1
    outer loop
      vertex 22.172 10.774 4
      vertex 19.0834 15.4864 4
      vertex 19.284 14.718 4
    endloop
  endfacet
  facet normal 0 0 1
    outer loop
      vertex 22.172 10.774 4
      vertex 19.509 20.296 4
      vertex 19.0834 15.4864 4
    endloop
  endfacet
  facet normal 0 -0 1
    outer loop
      vertex 19.0834 15.4864 4
      vertex 19.509 20.296 4
      vertex 18.8298 16.5758 4
    endloop
  endfacet
  facet normal -0 0 1
    outer loop
      vertex 14.511 9.42699 4
      vertex 14.292 8.51044 4
      vertex 16.6397 10.6679 4
    endloop
  endfacet
  facet normal -0 0 1
    outer loop
      vertex 14.292 8.51044 4
      vertex 15.079 5 4
      vertex 16.6397 10.6679 4
    endloop
  endfacet
  facet normal -0 0 1
    outer loop
      vertex 14.091 7.64211 4
      vertex 15.079 5 4
      vertex 14.292 8.51044 4
    endloop
  endfacet
  facet normal -0 0 1
    outer loop
      vertex 13.908 6.82199 4
      vertex 15.079 5 4
      vertex 14.091 7.64211 4
    endloop
  endfacet
  facet normal 0 0 1
    outer loop
      vertex 12.607 5 4
      vertex 15.079 5 4
      vertex 13.908 6.82199 4
    endloop
  endfacet
  facet normal 0 -0 1
    outer loop
      vertex 12.607 5 4
      vertex 13.006 10.579 4
      vertex 8.09799 20.296 4
    endloop
  endfacet
  facet normal 0 0 1
    outer loop
      vertex 13.3235 9.35088 4
      vertex 13.006 10.579 4
      vertex 12.607 5 4
    endloop
  endfacet
  facet normal 0 0 1
    outer loop
      vertex 10.256 20.296 4
      vertex 8.09799 20.296 4
      vertex 13.006 10.579 4
    endloop
  endfacet
  facet normal 0 0 1
    outer loop
      vertex 13.3235 9.35088 4
      vertex 12.607 5 4
      vertex 13.6242 8.09854 4
    endloop
  endfacet
  facet normal 0 0 1
    outer loop
      vertex 12.607 5 4
      vertex 13.908 6.82199 4
      vertex 13.6242 8.09854 4
    endloop
  endfacet
  facet normal -0 0 1
    outer loop
      vertex 47.2242 10.5081 4
      vertex 49.2004 9.91299 4
      vertex 49.5081 11.2933 4
    endloop
  endfacet
  facet normal 0 0 1
    outer loop
      vertex 47.9865 7.57288 4
      vertex 46.8436 9.52599 4
      vertex 46.3212 8.67166 4
    endloop
  endfacet
  facet normal 0 -0 1
    outer loop
      vertex 49.5081 11.2933 4
      vertex 49.6106 12.805 4
      vertex 47.4525 11.6011 4
    endloop
  endfacet
  facet normal 0 0 1
    outer loop
      vertex 46.3212 8.67166 4
      vertex 45.6672 7.96199 4
      vertex 47.1139 6.66621 4
    endloop
  endfacet
  facet normal 0 0 1
    outer loop
      vertex 47.3553 14.552 4
      vertex 47.5286 12.805 4
      vertex 49.6106 12.805 4
    endloop
  endfacet
  facet normal 0 0 1
    outer loop
      vertex 44.8823 5.41954 4
      vertex 44.8816 7.39699 4
      vertex 43.985 6.987 4
    endloop
  endfacet
  facet normal 0 0 1
    outer loop
      vertex 45.8922 19.4298 4
      vertex 44.7735 17.9734 4
      vertex 45.9686 17.144 4
    endloop
  endfacet
  facet normal 0 0 1
    outer loop
      vertex 43.8919 20.0794 4
      vertex 43.2682 18.4711 4
      vertex 44.7735 17.9734 4
    endloop
  endfacet
  facet normal 0 0 1
    outer loop
      vertex 41.4966 20.296 4
      vertex 43.2682 18.4711 4
      vertex 43.8919 20.0794 4
    endloop
  endfacet
  facet normal -0 0 1
    outer loop
      vertex 41.4526 18.637 4
      vertex 43.2682 18.4711 4
      vertex 41.4966 20.296 4
    endloop
  endfacet
  facet normal 0 -0 1
    outer loop
      vertex 41.4526 18.637 4
      vertex 41.4966 20.296 4
      vertex 38.5066 18.637 4
    endloop
  endfacet
  facet normal 0 0 1
    outer loop
      vertex 38.5066 6.659 4
      vertex 36.4356 5 4
      vertex 42.1596 5 4
    endloop
  endfacet
  facet normal 0 0 1
    outer loop
      vertex 41.9196 6.659 4
      vertex 38.5066 6.659 4
      vertex 42.1596 5 4
    endloop
  endfacet
  facet normal 0 0 1
    outer loop
      vertex 43.579 5.10487 4
      vertex 42.9976 6.741 4
      vertex 42.1596 5 4
    endloop
  endfacet
  facet normal 0 0 1
    outer loop
      vertex 38.5066 18.637 4
      vertex 36.4356 20.296 4
      vertex 38.5066 6.659 4
    endloop
  endfacet
  facet normal 0 0 1
    outer loop
      vertex 36.4356 20.296 4
      vertex 36.4356 5 4
      vertex 38.5066 6.659 4
    endloop
  endfacet
  facet normal 0 0 1
    outer loop
      vertex 41.4966 20.296 4
      vertex 36.4356 20.296 4
      vertex 38.5066 18.637 4
    endloop
  endfacet
  facet normal 0 0 1
    outer loop
      vertex 45.8922 19.4298 4
      vertex 45.9686 17.144 4
      vertex 47.4976 18.347 4
    endloop
  endfacet
  facet normal 0 0 1
    outer loop
      vertex 45.8922 19.4298 4
      vertex 43.8919 20.0794 4
      vertex 44.7735 17.9734 4
    endloop
  endfacet
  facet normal -0 0 1
    outer loop
      vertex 45.9686 17.144 4
      vertex 46.8353 15.9983 4
      vertex 47.4976 18.347 4
    endloop
  endfacet
  facet normal 0 -0 1
    outer loop
      vertex 47.3553 14.552 4
      vertex 48.6715 16.8654 4
      vertex 46.8353 15.9983 4
    endloop
  endfacet
  facet normal 0 0 1
    outer loop
      vertex 46.8353 15.9983 4
      vertex 48.6715 16.8654 4
      vertex 47.4976 18.347 4
    endloop
  endfacet
  facet normal 0 0 1
    outer loop
      vertex 49.6106 12.805 4
      vertex 49.3759 15.0181 4
      vertex 47.3553 14.552 4
    endloop
  endfacet
  facet normal 0 0 1
    outer loop
      vertex 47.3553 14.552 4
      vertex 49.3759 15.0181 4
      vertex 48.6715 16.8654 4
    endloop
  endfacet
  facet normal -0 0 1
    outer loop
      vertex 47.5286 12.805 4
      vertex 47.4525 11.6011 4
      vertex 49.6106 12.805 4
    endloop
  endfacet
  facet normal 0 0 1
    outer loop
      vertex 47.4525 11.6011 4
      vertex 47.2242 10.5081 4
      vertex 49.5081 11.2933 4
    endloop
  endfacet
  facet normal -0 0 1
    outer loop
      vertex 46.8436 9.52599 4
      vertex 48.6876 8.66399 4
      vertex 47.2242 10.5081 4
    endloop
  endfacet
  facet normal 0 0 1
    outer loop
      vertex 47.2242 10.5081 4
      vertex 48.6876 8.66399 4
      vertex 49.2004 9.91299 4
    endloop
  endfacet
  facet normal 0 0 1
    outer loop
      vertex 46.8436 9.52599 4
      vertex 47.9865 7.57288 4
      vertex 48.6876 8.66399 4
    endloop
  endfacet
  facet normal 0 0 1
    outer loop
      vertex 46.3212 8.67166 4
      vertex 47.1139 6.66621 4
      vertex 47.9865 7.57288 4
    endloop
  endfacet
  facet normal 0 0 1
    outer loop
      vertex 45.6672 7.96199 4
      vertex 46.0696 5.94398 4
      vertex 47.1139 6.66621 4
    endloop
  endfacet
  facet normal -0 0 1
    outer loop
      vertex 44.8816 7.39699 4
      vertex 46.0696 5.94398 4
      vertex 45.6672 7.96199 4
    endloop
  endfacet
  facet normal 0 -0 1
    outer loop
      vertex 44.8823 5.41954 4
      vertex 46.0696 5.94398 4
      vertex 44.8816 7.39699 4
    endloop
  endfacet
  facet normal 0 0 1
    outer loop
      vertex 43.579 5.10487 4
      vertex 44.8823 5.41954 4
      vertex 43.985 6.987 4
    endloop
  endfacet
  facet normal 0 -0 1
    outer loop
      vertex 42.1596 5 4
      vertex 42.9976 6.741 4
      vertex 41.9196 6.659 4
    endloop
  endfacet
  facet normal 0 -0 1
    outer loop
      vertex 43.579 5.10487 4
      vertex 43.985 6.987 4
      vertex 42.9976 6.741 4
    endloop
  endfacet
  facet normal 0.964787 -0.263033 0
    outer loop
      vertex 17.6283 14.2942 2
      vertex 16.6397 10.6679 4
      vertex 16.6397 10.6679 2
    endloop
  endfacet
  facet normal 0.964787 -0.263033 0
    outer loop
      vertex 17.6283 14.2942 2
      vertex 17.6283 14.2942 4
      vertex 16.6397 10.6679 4
    endloop
  endfacet
  facet normal 0.967131 -0.254279 0
    outer loop
      vertex 18.045 15.879 2
      vertex 17.6283 14.2942 4
      vertex 17.6283 14.2942 2
    endloop
  endfacet
  facet normal 0.967131 -0.254279 0
    outer loop
      vertex 18.045 15.879 2
      vertex 18.045 15.879 4
      vertex 17.6283 14.2942 4
    endloop
  endfacet
  facet normal 0.974946 -0.222442 0
    outer loop
      vertex 18.3445 17.1919 2
      vertex 18.045 15.879 4
      vertex 18.045 15.879 2
    endloop
  endfacet
  facet normal 0.974946 -0.222442 0
    outer loop
      vertex 18.3445 17.1919 2
      vertex 18.3445 17.1919 4
      vertex 18.045 15.879 4
    endloop
  endfacet
  facet normal 0.975669 -0.21925 0
    outer loop
      vertex 18.523 17.986 2
      vertex 18.3445 17.1919 4
      vertex 18.3445 17.1919 2
    endloop
  endfacet
  facet normal 0.975669 -0.21925 0
    outer loop
      vertex 18.523 17.986 2
      vertex 18.523 17.986 4
      vertex 18.3445 17.1919 4
    endloop
  endfacet
  facet normal -0.977146 -0.212568 0
    outer loop
      vertex 18.8298 16.5758 2
      vertex 18.523 17.986 4
      vertex 18.523 17.986 2
    endloop
  endfacet
  facet normal -0.977146 -0.212568 0
    outer loop
      vertex 18.8298 16.5758 2
      vertex 18.8298 16.5758 4
      vertex 18.523 17.986 4
    endloop
  endfacet
  facet normal -0.973943 -0.226791 0
    outer loop
      vertex 19.0834 15.4864 2
      vertex 18.8298 16.5758 4
      vertex 18.8298 16.5758 2
    endloop
  endfacet
  facet normal -0.973943 -0.226791 0
    outer loop
      vertex 19.0834 15.4864 2
      vertex 19.0834 15.4864 4
      vertex 18.8298 16.5758 4
    endloop
  endfacet
  facet normal -0.967587 -0.252536 0
    outer loop
      vertex 19.284 14.718 2
      vertex 19.0834 15.4864 4
      vertex 19.0834 15.4864 2
    endloop
  endfacet
  facet normal -0.967587 -0.252536 0
    outer loop
      vertex 19.284 14.718 2
      vertex 19.284 14.718 4
      vertex 19.0834 15.4864 4
    endloop
  endfacet
  facet normal -0.964723 -0.263268 0
    outer loop
      vertex 21.936 5 2
      vertex 19.284 14.718 4
      vertex 19.284 14.718 2
    endloop
  endfacet
  facet normal -0.964723 -0.263268 0
    outer loop
      vertex 21.936 5 2
      vertex 21.936 5 4
      vertex 19.284 14.718 4
    endloop
  endfacet
  facet normal 0 -1 0
    outer loop
      vertex 24.408 5 2
      vertex 21.936 5 4
      vertex 21.936 5 2
    endloop
  endfacet
  facet normal 0 -1 0
    outer loop
      vertex 24.408 5 2
      vertex 24.408 5 4
      vertex 21.936 5 4
    endloop
  endfacet
  facet normal 0.95921 -0.282696 0
    outer loop
      vertex 28.916 20.296 2
      vertex 24.408 5 4
      vertex 24.408 5 2
    endloop
  endfacet
  facet normal 0.95921 -0.282696 0
    outer loop
      vertex 28.916 20.296 2
      vertex 28.916 20.296 4
      vertex 24.408 5 4
    endloop
  endfacet
  facet normal 0 1 0
    outer loop
      vertex 26.758 20.296 2
      vertex 28.916 20.296 4
      vertex 28.916 20.296 2
    endloop
  endfacet
  facet normal 0 1 0
    outer loop
      vertex 26.758 20.296 2
      vertex 26.758 20.296 4
      vertex 28.916 20.296 4
    endloop
  endfacet
  facet normal -0.963298 0.268434 0
    outer loop
      vertex 25.1436 14.5024 2
      vertex 26.758 20.296 4
      vertex 26.758 20.296 2
    endloop
  endfacet
  facet normal -0.963298 0.268434 0
    outer loop
      vertex 25.1436 14.5024 2
      vertex 25.1436 14.5024 4
      vertex 26.758 20.296 4
    endloop
  endfacet
  facet normal -0.963914 0.266215 0
    outer loop
      vertex 24.1255 10.8164 2
      vertex 25.1436 14.5024 4
      vertex 25.1436 14.5024 2
    endloop
  endfacet
  facet normal -0.963914 0.266215 0
    outer loop
      vertex 24.1255 10.8164 2
      vertex 24.1255 10.8164 4
      vertex 25.1436 14.5024 4
    endloop
  endfacet
  facet normal -0.966138 0.258026 0
    outer loop
      vertex 23.704 9.23799 2
      vertex 24.1255 10.8164 4
      vertex 24.1255 10.8164 2
    endloop
  endfacet
  facet normal -0.966138 0.258026 0
    outer loop
      vertex 23.704 9.23799 2
      vertex 23.704 9.23799 4
      vertex 24.1255 10.8164 4
    endloop
  endfacet
  facet normal -0.97353 0.228559 0
    outer loop
      vertex 23.226 7.202 2
      vertex 23.704 9.23799 4
      vertex 23.704 9.23799 2
    endloop
  endfacet
  facet normal -0.97353 0.228559 0
    outer loop
      vertex 23.226 7.202 2
      vertex 23.226 7.202 4
      vertex 23.704 9.23799 4
    endloop
  endfacet
  facet normal -0.968313 0.249738 0
    outer loop
      vertex 23.128 6.82199 2
      vertex 23.226 7.202 4
      vertex 23.226 7.202 2
    endloop
  endfacet
  facet normal -0.968313 0.249738 0
    outer loop
      vertex 23.128 6.82199 2
      vertex 23.128 6.82199 4
      vertex 23.226 7.202 4
    endloop
  endfacet
  facet normal 0.975556 0.219749 0
    outer loop
      vertex 22.8671 7.98021 2
      vertex 23.128 6.82199 4
      vertex 23.128 6.82199 2
    endloop
  endfacet
  facet normal 0.975556 0.219749 -0
    outer loop
      vertex 22.8671 7.98021 2
      vertex 22.8671 7.98021 4
      vertex 23.128 6.82199 4
    endloop
  endfacet
  facet normal 0.971967 0.235119 0
    outer loop
      vertex 22.5484 9.29755 2
      vertex 22.8671 7.98021 4
      vertex 22.8671 7.98021 2
    endloop
  endfacet
  facet normal 0.971967 0.235119 -0
    outer loop
      vertex 22.5484 9.29755 2
      vertex 22.5484 9.29755 4
      vertex 22.8671 7.98021 4
    endloop
  endfacet
  facet normal 0.969001 0.247057 0
    outer loop
      vertex 22.172 10.774 2
      vertex 22.5484 9.29755 4
      vertex 22.5484 9.29755 2
    endloop
  endfacet
  facet normal 0.969001 0.247057 -0
    outer loop
      vertex 22.172 10.774 2
      vertex 22.172 10.774 4
      vertex 22.5484 9.29755 4
    endloop
  endfacet
  facet normal 0.963047 0.269334 0
    outer loop
      vertex 19.509 20.296 2
      vertex 22.172 10.774 4
      vertex 22.172 10.774 2
    endloop
  endfacet
  facet normal 0.963047 0.269334 -0
    outer loop
      vertex 19.509 20.296 2
      vertex 19.509 20.296 4
      vertex 22.172 10.774 4
    endloop
  endfacet
  facet normal 0 1 0
    outer loop
      vertex 17.525 20.296 2
      vertex 19.509 20.296 4
      vertex 19.509 20.296 2
    endloop
  endfacet
  facet normal 0 1 0
    outer loop
      vertex 17.525 20.296 2
      vertex 17.525 20.296 4
      vertex 19.509 20.296 4
    endloop
  endfacet
  facet normal -0.96262 0.270855 0
    outer loop
      vertex 16.0025 14.8852 2
      vertex 17.525 20.296 4
      vertex 17.525 20.296 2
    endloop
  endfacet
  facet normal -0.96262 0.270855 0
    outer loop
      vertex 16.0025 14.8852 2
      vertex 16.0025 14.8852 4
      vertex 17.525 20.296 4
    endloop
  endfacet
  facet normal -0.963636 0.267219 0
    outer loop
      vertex 14.9979 11.2622 2
      vertex 16.0025 14.8852 4
      vertex 16.0025 14.8852 2
    endloop
  endfacet
  facet normal -0.963636 0.267219 0
    outer loop
      vertex 14.9979 11.2622 2
      vertex 14.9979 11.2622 4
      vertex 16.0025 14.8852 4
    endloop
  endfacet
  facet normal -0.966562 0.256433 0
    outer loop
      vertex 14.511 9.42699 2
      vertex 14.9979 11.2622 4
      vertex 14.9979 11.2622 2
    endloop
  endfacet
  facet normal -0.966562 0.256433 0
    outer loop
      vertex 14.511 9.42699 2
      vertex 14.511 9.42699 4
      vertex 14.9979 11.2622 4
    endloop
  endfacet
  facet normal -0.972622 0.232392 0
    outer loop
      vertex 14.292 8.51044 2
      vertex 14.511 9.42699 4
      vertex 14.511 9.42699 2
    endloop
  endfacet
  facet normal -0.972622 0.232392 0
    outer loop
      vertex 14.292 8.51044 2
      vertex 14.292 8.51044 4
      vertex 14.511 9.42699 4
    endloop
  endfacet
  facet normal -0.974239 0.22552 0
    outer loop
      vertex 14.091 7.64211 2
      vertex 14.292 8.51044 4
      vertex 14.292 8.51044 2
    endloop
  endfacet
  facet normal -0.974239 0.22552 0
    outer loop
      vertex 14.091 7.64211 2
      vertex 14.091 7.64211 4
      vertex 14.292 8.51044 4
    endloop
  endfacet
  facet normal -0.975997 0.217782 0
    outer loop
      vertex 13.908 6.82199 2
      vertex 14.091 7.64211 4
      vertex 14.091 7.64211 2
    endloop
  endfacet
  facet normal -0.975997 0.217782 0
    outer loop
      vertex 13.908 6.82199 2
      vertex 13.908 6.82199 4
      vertex 14.091 7.64211 4
    endloop
  endfacet
  facet normal 0.976173 0.216996 0
    outer loop
      vertex 13.6242 8.09854 2
      vertex 13.908 6.82199 4
      vertex 13.908 6.82199 2
    endloop
  endfacet
  facet normal 0.976173 0.216996 -0
    outer loop
      vertex 13.6242 8.09854 2
      vertex 13.6242 8.09854 4
      vertex 13.908 6.82199 4
    endloop
  endfacet
  facet normal 0.972367 0.233457 0
    outer loop
      vertex 13.3235 9.35088 2
      vertex 13.6242 8.09854 4
      vertex 13.6242 8.09854 2
    endloop
  endfacet
  facet normal 0.972367 0.233457 -0
    outer loop
      vertex 13.3235 9.35088 2
      vertex 13.3235 9.35088 4
      vertex 13.6242 8.09854 4
    endloop
  endfacet
  facet normal 0.96816 0.250334 0
    outer loop
      vertex 13.006 10.579 2
      vertex 13.3235 9.35088 4
      vertex 13.3235 9.35088 2
    endloop
  endfacet
  facet normal 0.96816 0.250334 -0
    outer loop
      vertex 13.006 10.579 2
      vertex 13.006 10.579 4
      vertex 13.3235 9.35088 4
    endloop
  endfacet
  facet normal 0.962208 0.272314 0
    outer loop
      vertex 10.256 20.296 2
      vertex 13.006 10.579 4
      vertex 13.006 10.579 2
    endloop
  endfacet
  facet normal 0.962208 0.272314 -0
    outer loop
      vertex 10.256 20.296 2
      vertex 10.256 20.296 4
      vertex 13.006 10.579 4
    endloop
  endfacet
  facet normal 0 1 0
    outer loop
      vertex 8.09799 20.296 2
      vertex 10.256 20.296 4
      vertex 10.256 20.296 2
    endloop
  endfacet
  facet normal 0 1 0
    outer loop
      vertex 8.09799 20.296 2
      vertex 8.09799 20.296 4
      vertex 10.256 20.296 4
    endloop
  endfacet
  facet normal -0.959192 -0.282754 0
    outer loop
      vertex 12.607 5 2
      vertex 8.09799 20.296 4
      vertex 8.09799 20.296 2
    endloop
  endfacet
  facet normal -0.959192 -0.282754 0
    outer loop
      vertex 12.607 5 2
      vertex 12.607 5 4
      vertex 8.09799 20.296 4
    endloop
  endfacet
  facet normal 0 -1 0
    outer loop
      vertex 15.079 5 2
      vertex 12.607 5 4
      vertex 12.607 5 2
    endloop
  endfacet
  facet normal 0 -1 0
    outer loop
      vertex 15.079 5 2
      vertex 15.079 5 4
      vertex 12.607 5 4
    endloop
  endfacet
  facet normal 0.964118 -0.265473 0
    outer loop
      vertex 16.6397 10.6679 2
      vertex 15.079 5 4
      vertex 15.079 5 2
    endloop
  endfacet
  facet normal 0.964118 -0.265473 0
    outer loop
      vertex 16.6397 10.6679 2
      vertex 16.6397 10.6679 4
      vertex 15.079 5 4
    endloop
  endfacet
  facet normal 0.234687 -0.972071 0
    outer loop
      vertex 44.8823 5.41954 2
      vertex 43.579 5.10487 4
      vertex 43.579 5.10487 2
    endloop
  endfacet
  facet normal 0.234687 -0.972071 0
    outer loop
      vertex 44.8823 5.41954 2
      vertex 44.8823 5.41954 4
      vertex 43.579 5.10487 4
    endloop
  endfacet
  facet normal 0.404041 -0.914741 0
    outer loop
      vertex 46.0696 5.94398 2
      vertex 44.8823 5.41954 4
      vertex 44.8823 5.41954 2
    endloop
  endfacet
  facet normal 0.404041 -0.914741 0
    outer loop
      vertex 46.0696 5.94398 2
      vertex 46.0696 5.94398 4
      vertex 44.8823 5.41954 4
    endloop
  endfacet
  facet normal 0.568841 -0.822447 0
    outer loop
      vertex 47.1139 6.66621 2
      vertex 46.0696 5.94398 4
      vertex 46.0696 5.94398 2
    endloop
  endfacet
  facet normal 0.568841 -0.822447 0
    outer loop
      vertex 47.1139 6.66621 2
      vertex 47.1139 6.66621 4
      vertex 46.0696 5.94398 4
    endloop
  endfacet
  facet normal 0.720486 -0.69347 0
    outer loop
      vertex 47.9865 7.57288 2
      vertex 47.1139 6.66621 4
      vertex 47.1139 6.66621 2
    endloop
  endfacet
  facet normal 0.720486 -0.69347 0
    outer loop
      vertex 47.9865 7.57288 2
      vertex 47.9865 7.57288 4
      vertex 47.1139 6.66621 4
    endloop
  endfacet
  facet normal 0.84129 -0.540585 0
    outer loop
      vertex 48.6876 8.66399 2
      vertex 47.9865 7.57288 4
      vertex 47.9865 7.57288 2
    endloop
  endfacet
  facet normal 0.84129 -0.540585 0
    outer loop
      vertex 48.6876 8.66399 2
      vertex 48.6876 8.66399 4
      vertex 47.9865 7.57288 4
    endloop
  endfacet
  facet normal 0.925075 -0.379783 0
    outer loop
      vertex 49.2004 9.91299 2
      vertex 48.6876 8.66399 4
      vertex 48.6876 8.66399 2
    endloop
  endfacet
  facet normal 0.925075 -0.379783 0
    outer loop
      vertex 49.2004 9.91299 2
      vertex 49.2004 9.91299 4
      vertex 48.6876 8.66399 4
    endloop
  endfacet
  facet normal 0.976046 -0.217563 0
    outer loop
      vertex 49.5081 11.2933 2
      vertex 49.2004 9.91299 4
      vertex 49.2004 9.91299 2
    endloop
  endfacet
  facet normal 0.976046 -0.217563 0
    outer loop
      vertex 49.5081 11.2933 2
      vertex 49.5081 11.2933 4
      vertex 49.2004 9.91299 4
    endloop
  endfacet
  facet normal 0.997707 -0.067686 0
    outer loop
      vertex 49.6106 12.805 2
      vertex 49.5081 11.2933 4
      vertex 49.5081 11.2933 2
    endloop
  endfacet
  facet normal 0.997707 -0.067686 0
    outer loop
      vertex 49.6106 12.805 2
      vertex 49.6106 12.805 4
      vertex 49.5081 11.2933 4
    endloop
  endfacet
  facet normal 0.99442 0.105497 0
    outer loop
      vertex 49.3759 15.0181 2
      vertex 49.6106 12.805 4
      vertex 49.6106 12.805 2
    endloop
  endfacet
  facet normal 0.99442 0.105497 -0
    outer loop
      vertex 49.3759 15.0181 2
      vertex 49.3759 15.0181 4
      vertex 49.6106 12.805 4
    endloop
  endfacet
  facet normal 0.93439 0.356253 0
    outer loop
      vertex 48.6715 16.8654 2
      vertex 49.3759 15.0181 4
      vertex 49.3759 15.0181 2
    endloop
  endfacet
  facet normal 0.93439 0.356253 -0
    outer loop
      vertex 48.6715 16.8654 2
      vertex 48.6715 16.8654 4
      vertex 49.3759 15.0181 4
    endloop
  endfacet
  facet normal 0.78379 0.621026 0
    outer loop
      vertex 47.4976 18.347 2
      vertex 48.6715 16.8654 4
      vertex 48.6715 16.8654 2
    endloop
  endfacet
  facet normal 0.78379 0.621026 -0
    outer loop
      vertex 47.4976 18.347 2
      vertex 47.4976 18.347 4
      vertex 48.6715 16.8654 4
    endloop
  endfacet
  facet normal 0.559156 0.829062 0
    outer loop
      vertex 45.8922 19.4298 2
      vertex 47.4976 18.347 4
      vertex 47.4976 18.347 2
    endloop
  endfacet
  facet normal 0.559156 0.829062 -0
    outer loop
      vertex 45.8922 19.4298 2
      vertex 45.8922 19.4298 4
      vertex 47.4976 18.347 4
    endloop
  endfacet
  facet normal 0.308899 0.951095 0
    outer loop
      vertex 43.8919 20.0794 2
      vertex 45.8922 19.4298 4
      vertex 45.8922 19.4298 2
    endloop
  endfacet
  facet normal 0.308899 0.951095 -0
    outer loop
      vertex 43.8919 20.0794 2
      vertex 43.8919 20.0794 4
      vertex 45.8922 19.4298 4
    endloop
  endfacet
  facet normal 0.0900432 0.995938 0
    outer loop
      vertex 41.4966 20.296 2
      vertex 43.8919 20.0794 4
      vertex 43.8919 20.0794 2
    endloop
  endfacet
  facet normal 0.0900432 0.995938 -0
    outer loop
      vertex 41.4966 20.296 2
      vertex 41.4966 20.296 4
      vertex 43.8919 20.0794 4
    endloop
  endfacet
  facet normal 0 1 0
    outer loop
      vertex 36.4356 20.296 2
      vertex 41.4966 20.296 4
      vertex 41.4966 20.296 2
    endloop
  endfacet
  facet normal 0 1 0
    outer loop
      vertex 36.4356 20.296 2
      vertex 36.4356 20.296 4
      vertex 41.4966 20.296 4
    endloop
  endfacet
  facet normal -1 0 0
    outer loop
      vertex 36.4356 5 2
      vertex 36.4356 20.296 4
      vertex 36.4356 20.296 2
    endloop
  endfacet
  facet normal -1 0 0
    outer loop
      vertex 36.4356 5 2
      vertex 36.4356 5 4
      vertex 36.4356 20.296 4
    endloop
  endfacet
  facet normal 0 -1 0
    outer loop
      vertex 42.1596 5 2
      vertex 36.4356 5 4
      vertex 36.4356 5 2
    endloop
  endfacet
  facet normal 0 -1 0
    outer loop
      vertex 42.1596 5 2
      vertex 42.1596 5 4
      vertex 36.4356 5 4
    endloop
  endfacet
  facet normal 0.0736888 -0.997281 0
    outer loop
      vertex 43.579 5.10487 2
      vertex 42.1596 5 4
      vertex 42.1596 5 2
    endloop
  endfacet
  facet normal 0.0736888 -0.997281 0
    outer loop
      vertex 43.579 5.10487 2
      vertex 43.579 5.10487 4
      vertex 42.1596 5 4
    endloop
  endfacet
  facet normal 1 0 -0
    outer loop
      vertex 38.5066 18.637 2
      vertex 38.5066 18.637 4
      vertex 38.5066 6.659 2
    endloop
  endfacet
  facet normal 1 -0 0
    outer loop
      vertex 38.5066 6.659 4
      vertex 38.5066 6.659 2
      vertex 38.5066 18.637 4
    endloop
  endfacet
  facet normal 0 -1 0
    outer loop
      vertex 41.4526 18.637 2
      vertex 41.4526 18.637 4
      vertex 38.5066 18.637 2
    endloop
  endfacet
  facet normal 0 -1 0
    outer loop
      vertex 38.5066 18.637 4
      vertex 38.5066 18.637 2
      vertex 41.4526 18.637 4
    endloop
  endfacet
  facet normal -0.0909946 -0.995851 0
    outer loop
      vertex 43.2682 18.4711 2
      vertex 43.2682 18.4711 4
      vertex 41.4526 18.637 2
    endloop
  endfacet
  facet normal -0.0909946 -0.995851 -0
    outer loop
      vertex 41.4526 18.637 4
      vertex 41.4526 18.637 2
      vertex 43.2682 18.4711 4
    endloop
  endfacet
  facet normal -0.313891 -0.949459 0
    outer loop
      vertex 44.7735 17.9734 2
      vertex 44.7735 17.9734 4
      vertex 43.2682 18.4711 2
    endloop
  endfacet
  facet normal -0.313891 -0.949459 -0
    outer loop
      vertex 43.2682 18.4711 4
      vertex 43.2682 18.4711 2
      vertex 44.7735 17.9734 4
    endloop
  endfacet
  facet normal -0.570162 -0.821532 0
    outer loop
      vertex 45.9686 17.144 2
      vertex 45.9686 17.144 4
      vertex 44.7735 17.9734 2
    endloop
  endfacet
  facet normal -0.570162 -0.821532 -0
    outer loop
      vertex 44.7735 17.9734 4
      vertex 44.7735 17.9734 2
      vertex 45.9686 17.144 4
    endloop
  endfacet
  facet normal -0.797522 -0.60329 0
    outer loop
      vertex 46.8353 15.9983 2
      vertex 46.8353 15.9983 4
      vertex 45.9686 17.144 2
    endloop
  endfacet
  facet normal -0.797522 -0.60329 -0
    outer loop
      vertex 45.9686 17.144 4
      vertex 45.9686 17.144 2
      vertex 46.8353 15.9983 4
    endloop
  endfacet
  facet normal -0.941028 -0.33833 0
    outer loop
      vertex 47.3553 14.552 2
      vertex 47.3553 14.552 4
      vertex 46.8353 15.9983 2
    endloop
  endfacet
  facet normal -0.941028 -0.33833 -0
    outer loop
      vertex 46.8353 15.9983 4
      vertex 46.8353 15.9983 2
      vertex 47.3553 14.552 4
    endloop
  endfacet
  facet normal -0.995114 -0.0987369 0
    outer loop
      vertex 47.5286 12.805 2
      vertex 47.5286 12.805 4
      vertex 47.3553 14.552 2
    endloop
  endfacet
  facet normal -0.995114 -0.0987369 -0
    outer loop
      vertex 47.3553 14.552 4
      vertex 47.3553 14.552 2
      vertex 47.5286 12.805 4
    endloop
  endfacet
  facet normal -0.998008 0.0630949 0
    outer loop
      vertex 47.4525 11.6011 2
      vertex 47.4525 11.6011 4
      vertex 47.5286 12.805 2
    endloop
  endfacet
  facet normal -0.998008 0.0630949 0
    outer loop
      vertex 47.5286 12.805 4
      vertex 47.5286 12.805 2
      vertex 47.4525 11.6011 4
    endloop
  endfacet
  facet normal -0.978869 0.20449 0
    outer loop
      vertex 47.2242 10.5081 2
      vertex 47.2242 10.5081 4
      vertex 47.4525 11.6011 2
    endloop
  endfacet
  facet normal -0.978869 0.20449 0
    outer loop
      vertex 47.4525 11.6011 4
      vertex 47.4525 11.6011 2
      vertex 47.2242 10.5081 4
    endloop
  endfacet
  facet normal -0.932447 0.361308 0
    outer loop
      vertex 46.8436 9.52599 2
      vertex 46.8436 9.52599 4
      vertex 47.2242 10.5081 2
    endloop
  endfacet
  facet normal -0.932447 0.361308 0
    outer loop
      vertex 47.2242 10.5081 4
      vertex 47.2242 10.5081 2
      vertex 46.8436 9.52599 4
    endloop
  endfacet
  facet normal -0.853122 0.521711 0
    outer loop
      vertex 46.3212 8.67166 2
      vertex 46.3212 8.67166 4
      vertex 46.8436 9.52599 2
    endloop
  endfacet
  facet normal -0.853122 0.521711 0
    outer loop
      vertex 46.8436 9.52599 4
      vertex 46.8436 9.52599 2
      vertex 46.3212 8.67166 4
    endloop
  endfacet
  facet normal -0.735358 0.677679 0
    outer loop
      vertex 45.6672 7.96199 2
      vertex 45.6672 7.96199 4
      vertex 46.3212 8.67166 2
    endloop
  endfacet
  facet normal -0.735358 0.677679 0
    outer loop
      vertex 46.3212 8.67166 4
      vertex 46.3212 8.67166 2
      vertex 45.6672 7.96199 4
    endloop
  endfacet
  facet normal -0.583899 0.811826 0
    outer loop
      vertex 44.8816 7.39699 2
      vertex 44.8816 7.39699 4
      vertex 45.6672 7.96199 2
    endloop
  endfacet
  facet normal -0.583899 0.811826 0
    outer loop
      vertex 45.6672 7.96199 4
      vertex 45.6672 7.96199 2
      vertex 44.8816 7.39699 4
    endloop
  endfacet
  facet normal -0.41583 0.909443 0
    outer loop
      vertex 43.985 6.987 2
      vertex 43.985 6.987 4
      vertex 44.8816 7.39699 2
    endloop
  endfacet
  facet normal -0.41583 0.909443 0
    outer loop
      vertex 44.8816 7.39699 4
      vertex 44.8816 7.39699 2
      vertex 43.985 6.987 4
    endloop
  endfacet
  facet normal -0.241766 0.970334 0
    outer loop
      vertex 42.9976 6.741 2
      vertex 42.9976 6.741 4
      vertex 43.985 6.987 2
    endloop
  endfacet
  facet normal -0.241766 0.970334 0
    outer loop
      vertex 43.985 6.987 4
      vertex 43.985 6.987 2
      vertex 42.9976 6.741 4
    endloop
  endfacet
  facet normal -0.0758481 0.997119 0
    outer loop
      vertex 41.9196 6.659 2
      vertex 41.9196 6.659 4
      vertex 42.9976 6.741 2
    endloop
  endfacet
  facet normal -0.0758481 0.997119 0
    outer loop
      vertex 42.9976 6.741 4
      vertex 42.9976 6.741 2
      vertex 41.9196 6.659 4
    endloop
  endfacet
  facet normal 0 1 0
    outer loop
      vertex 38.5066 6.659 2
      vertex 38.5066 6.659 4
      vertex 41.9196 6.659 2
    endloop
  endfacet
  facet normal 0 1 0
    outer loop
      vertex 41.9196 6.659 4
      vertex 41.9196 6.659 2
      vertex 38.5066 6.659 4
    endloop
  endfacet
endsolid OpenSCAD_Model
