solid OpenSCAD_Model
  facet normal 0 -0 -1
    outer loop
      vertex 17.525 20.296 2
      vertex 18.3445 17.1919 2
      vertex 16.0025 14.8852 2
    endloop
  endfacet
  facet normal 0 0 -1
    outer loop
      vertex 18.3445 17.1919 2
      vertex 18.045 15.879 2
      vertex 16.0025 14.8852 2
    endloop
  endfacet
  facet normal -0 0 -1
    outer loop
      vertex 18.523 17.986 2
      vertex 18.3445 17.1919 2
      vertex 17.525 20.296 2
    endloop
  endfacet
  facet normal 0 0 -1
    outer loop
      vertex 16.0025 14.8852 2
      vertex 18.045 15.879 2
      vertex 17.6283 14.2942 2
    endloop
  endfacet
  facet normal 0 0 -1
    outer loop
      vertex 14.9979 11.2622 2
      vertex 16.0025 14.8852 2
      vertex 17.6283 14.2942 2
    endloop
  endfacet
  facet normal 0 0 -1
    outer loop
      vertex 25.1436 14.5024 2
      vertex 26.758 20.296 2
      vertex 28.916 20.296 2
    endloop
  endfacet
  facet normal 0 0 -1
    outer loop
      vertex 28.916 20.296 2
      vertex 24.408 5 2
      vertex 25.1436 14.5024 2
    endloop
  endfacet
  facet normal 0 0 -1
    outer loop
      vertex 18.523 17.986 2
      vertex 17.525 20.296 2
      vertex 19.509 20.296 2
    endloop
  endfacet
  facet normal 0 0 -1
    outer loop
      vertex 16.6397 10.6679 2
      vertex 14.9979 11.2622 2
      vertex 17.6283 14.2942 2
    endloop
  endfacet
  facet normal -0 0 -1
    outer loop
      vertex 16.6397 10.6679 2
      vertex 14.511 9.42699 2
      vertex 14.9979 11.2622 2
    endloop
  endfacet
  facet normal -0 0 -1
    outer loop
      vertex 23.128 6.82199 2
      vertex 21.936 5 2
      vertex 22.8671 7.98021 2
    endloop
  endfacet
  facet normal 0 0 -1
    outer loop
      vertex 24.1255 10.8164 2
      vertex 25.1436 14.5024 2
      vertex 24.408 5 2
    endloop
  endfacet
  facet normal 0 0 -1
    outer loop
      vertex 23.704 9.23799 2
      vertex 24.1255 10.8164 2
      vertex 24.408 5 2
    endloop
  endfacet
  facet normal 0 0 -1
    outer loop
      vertex 23.226 7.202 2
      vertex 23.704 9.23799 2
      vertex 24.408 5 2
    endloop
  endfacet
  facet normal 0 0 -1
    outer loop
      vertex 21.936 5 2
      vertex 23.128 6.82199 2
      vertex 24.408 5 2
    endloop
  endfacet
  facet normal 0 0 -1
    outer loop
      vertex 23.128 6.82199 2
      vertex 23.226 7.202 2
      vertex 24.408 5 2
    endloop
  endfacet
  facet normal 0 -0 -1
    outer loop
      vertex 22.5484 9.29755 2
      vertex 22.8671 7.98021 2
      vertex 21.936 5 2
    endloop
  endfacet
  facet normal 0 -0 -1
    outer loop
      vertex 22.172 10.774 2
      vertex 22.5484 9.29755 2
      vertex 21.936 5 2
    endloop
  endfacet
  facet normal 0 0 -1
    outer loop
      vertex 19.284 14.718 2
      vertex 22.172 10.774 2
      vertex 21.936 5 2
    endloop
  endfacet
  facet normal 0 0 -1
    outer loop
      vertex 19.509 20.296 2
      vertex 18.8298 16.5758 2
      vertex 18.523 17.986 2
    endloop
  endfacet
  facet normal 0 0 -1
    outer loop
      vertex 19.284 14.718 2
      vertex 19.0834 15.4864 2
      vertex 22.172 10.774 2
    endloop
  endfacet
  facet normal 0 0 -1
    outer loop
      vertex 19.0834 15.4864 2
      vertex 19.509 20.296 2
      vertex 22.172 10.774 2
    endloop
  endfacet
  facet normal 0 0 -1
    outer loop
      vertex 18.8298 16.5758 2
      vertex 19.509 20.296 2
      vertex 19.0834 15.4864 2
    endloop
  endfacet
  facet normal 0 0 -1
    outer loop
      vertex 16.6397 10.6679 2
      vertex 14.292 8.51044 2
      vertex 14.511 9.42699 2
    endloop
  endfacet
  facet normal 0 0 -1
    outer loop
      vertex 16.6397 10.6679 2
      vertex 15.079 5 2
      vertex 14.292 8.51044 2
    endloop
  endfacet
  facet normal 0 -0 -1
    outer loop
      vertex 14.292 8.51044 2
      vertex 15.079 5 2
      vertex 14.091 7.64211 2
    endloop
  endfacet
  facet normal 0 -0 -1
    outer loop
      vertex 14.091 7.64211 2
      vertex 15.079 5 2
      vertex 13.908 6.82199 2
    endloop
  endfacet
  facet normal 0 -0 -1
    outer loop
      vertex 13.908 6.82199 2
      vertex 15.079 5 2
      vertex 12.607 5 2
    endloop
  endfacet
  facet normal 0 0 -1
    outer loop
      vertex 8.09799 20.296 2
      vertex 13.006 10.579 2
      vertex 12.607 5 2
    endloop
  endfacet
  facet normal 0 0 -1
    outer loop
      vertex 12.607 5 2
      vertex 13.006 10.579 2
      vertex 13.3235 9.35088 2
    endloop
  endfacet
  facet normal 0 0 -1
    outer loop
      vertex 13.006 10.579 2
      vertex 8.09799 20.296 2
      vertex 10.256 20.296 2
    endloop
  endfacet
  facet normal -0 0 -1
    outer loop
      vertex 13.6242 8.09854 2
      vertex 12.607 5 2
      vertex 13.3235 9.35088 2
    endloop
  endfacet
  facet normal 0 -0 -1
    outer loop
      vertex 13.6242 8.09854 2
      vertex 13.908 6.82199 2
      vertex 12.607 5 2
    endloop
  endfacet
  facet normal -0 -0 -1
    outer loop
      vertex 38.7236 20.296 2
      vertex 38.7236 5 2
      vertex 36.6516 20.296 2
    endloop
  endfacet
  facet normal 0 0 -1
    outer loop
      vertex 38.7236 5 2
      vertex 36.6516 5 2
      vertex 36.6516 20.296 2
    endloop
  endfacet
  facet normal 0 0 1
    outer loop
      vertex 16.0025 14.8852 4
      vertex 18.3445 17.1919 4
      vertex 17.525 20.296 4
    endloop
  endfacet
  facet normal 0 0 1
    outer loop
      vertex 16.0025 14.8852 4
      vertex 18.045 15.879 4
      vertex 18.3445 17.1919 4
    endloop
  endfacet
  facet normal 0 0 1
    outer loop
      vertex 17.525 20.296 4
      vertex 18.3445 17.1919 4
      vertex 18.523 17.986 4
    endloop
  endfacet
  facet normal 0 -0 1
    outer loop
      vertex 17.6283 14.2942 4
      vertex 18.045 15.879 4
      vertex 16.0025 14.8852 4
    endloop
  endfacet
  facet normal 0 0 1
    outer loop
      vertex 17.6283 14.2942 4
      vertex 16.0025 14.8852 4
      vertex 14.9979 11.2622 4
    endloop
  endfacet
  facet normal 0 0 1
    outer loop
      vertex 28.916 20.296 4
      vertex 26.758 20.296 4
      vertex 25.1436 14.5024 4
    endloop
  endfacet
  facet normal -0 0 1
    outer loop
      vertex 25.1436 14.5024 4
      vertex 24.408 5 4
      vertex 28.916 20.296 4
    endloop
  endfacet
  facet normal 0 0 1
    outer loop
      vertex 19.509 20.296 4
      vertex 17.525 20.296 4
      vertex 18.523 17.986 4
    endloop
  endfacet
  facet normal 0 0 1
    outer loop
      vertex 17.6283 14.2942 4
      vertex 14.9979 11.2622 4
      vertex 16.6397 10.6679 4
    endloop
  endfacet
  facet normal 0 0 1
    outer loop
      vertex 14.9979 11.2622 4
      vertex 14.511 9.42699 4
      vertex 16.6397 10.6679 4
    endloop
  endfacet
  facet normal 0 0 1
    outer loop
      vertex 22.8671 7.98021 4
      vertex 21.936 5 4
      vertex 23.128 6.82199 4
    endloop
  endfacet
  facet normal 0 -0 1
    outer loop
      vertex 24.408 5 4
      vertex 25.1436 14.5024 4
      vertex 24.1255 10.8164 4
    endloop
  endfacet
  facet normal 0 0 1
    outer loop
      vertex 24.408 5 4
      vertex 24.1255 10.8164 4
      vertex 23.704 9.23799 4
    endloop
  endfacet
  facet normal 0 0 1
    outer loop
      vertex 24.408 5 4
      vertex 23.704 9.23799 4
      vertex 23.226 7.202 4
    endloop
  endfacet
  facet normal 0 0 1
    outer loop
      vertex 24.408 5 4
      vertex 23.128 6.82199 4
      vertex 21.936 5 4
    endloop
  endfacet
  facet normal 0 0 1
    outer loop
      vertex 24.408 5 4
      vertex 23.226 7.202 4
      vertex 23.128 6.82199 4
    endloop
  endfacet
  facet normal 0 0 1
    outer loop
      vertex 21.936 5 4
      vertex 22.8671 7.98021 4
      vertex 22.5484 9.29755 4
    endloop
  endfacet
  facet normal 0 0 1
    outer loop
      vertex 21.936 5 4
      vertex 22.5484 9.29755 4
      vertex 22.172 10.774 4
    endloop
  endfacet
  facet normal 0 -0 1
    outer loop
      vertex 21.936 5 4
      vertex 22.172 10.774 4
      vertex 19.284 14.718 4
    endloop
  endfacet
  facet normal -0 0 1
    outer loop
      vertex 18.523 17.986 4
      vertex 18.8298 16.5758 4
      vertex 19.509 20.296 4
    endloop
  endfacet
  facet normal 0 0 1
    outer loop
      vertex 22.172 10.774 4
      vertex 19.0834 15.4864 4
      vertex 19.284 14.718 4
    endloop
  endfacet
  facet normal 0 0 1
    outer loop
      vertex 22.172 10.774 4
      vertex 19.509 20.296 4
      vertex 19.0834 15.4864 4
    endloop
  endfacet
  facet normal 0 -0 1
    outer loop
      vertex 19.0834 15.4864 4
      vertex 19.509 20.296 4
      vertex 18.8298 16.5758 4
    endloop
  endfacet
  facet normal -0 0 1
    outer loop
      vertex 14.511 9.42699 4
      vertex 14.292 8.51044 4
      vertex 16.6397 10.6679 4
    endloop
  endfacet
  facet normal -0 0 1
    outer loop
      vertex 14.292 8.51044 4
      vertex 15.079 5 4
      vertex 16.6397 10.6679 4
    endloop
  endfacet
  facet normal -0 0 1
    outer loop
      vertex 14.091 7.64211 4
      vertex 15.079 5 4
      vertex 14.292 8.51044 4
    endloop
  endfacet
  facet normal -0 0 1
    outer loop
      vertex 13.908 6.82199 4
      vertex 15.079 5 4
      vertex 14.091 7.64211 4
    endloop
  endfacet
  facet normal 0 0 1
    outer loop
      vertex 12.607 5 4
      vertex 15.079 5 4
      vertex 13.908 6.82199 4
    endloop
  endfacet
  facet normal 0 -0 1
    outer loop
      vertex 12.607 5 4
      vertex 13.006 10.579 4
      vertex 8.09799 20.296 4
    endloop
  endfacet
  facet normal 0 0 1
    outer loop
      vertex 13.3235 9.35088 4
      vertex 13.006 10.579 4
      vertex 12.607 5 4
    endloop
  endfacet
  facet normal 0 0 1
    outer loop
      vertex 10.256 20.296 4
      vertex 8.09799 20.296 4
      vertex 13.006 10.579 4
    endloop
  endfacet
  facet normal 0 0 1
    outer loop
      vertex 13.3235 9.35088 4
      vertex 12.607 5 4
      vertex 13.6242 8.09854 4
    endloop
  endfacet
  facet normal 0 0 1
    outer loop
      vertex 12.607 5 4
      vertex 13.908 6.82199 4
      vertex 13.6242 8.09854 4
    endloop
  endfacet
  facet normal -0 0 1
    outer loop
      vertex 36.6516 20.296 4
      vertex 38.7236 5 4
      vertex 38.7236 20.296 4
    endloop
  endfacet
  facet normal 0 0 1
    outer loop
      vertex 36.6516 20.296 4
      vertex 36.6516 5 4
      vertex 38.7236 5 4
    endloop
  endfacet
  facet normal 0.964787 -0.263033 0
    outer loop
      vertex 17.6283 14.2942 2
      vertex 16.6397 10.6679 4
      vertex 16.6397 10.6679 2
    endloop
  endfacet
  facet normal 0.964787 -0.263033 0
    outer loop
      vertex 17.6283 14.2942 2
      vertex 17.6283 14.2942 4
      vertex 16.6397 10.6679 4
    endloop
  endfacet
  facet normal 0.967131 -0.254279 0
    outer loop
      vertex 18.045 15.879 2
      vertex 17.6283 14.2942 4
      vertex 17.6283 14.2942 2
    endloop
  endfacet
  facet normal 0.967131 -0.254279 0
    outer loop
      vertex 18.045 15.879 2
      vertex 18.045 15.879 4
      vertex 17.6283 14.2942 4
    endloop
  endfacet
  facet normal 0.974946 -0.222442 0
    outer loop
      vertex 18.3445 17.1919 2
      vertex 18.045 15.879 4
      vertex 18.045 15.879 2
    endloop
  endfacet
  facet normal 0.974946 -0.222442 0
    outer loop
      vertex 18.3445 17.1919 2
      vertex 18.3445 17.1919 4
      vertex 18.045 15.879 4
    endloop
  endfacet
  facet normal 0.975669 -0.21925 0
    outer loop
      vertex 18.523 17.986 2
      vertex 18.3445 17.1919 4
      vertex 18.3445 17.1919 2
    endloop
  endfacet
  facet normal 0.975669 -0.21925 0
    outer loop
      vertex 18.523 17.986 2
      vertex 18.523 17.986 4
      vertex 18.3445 17.1919 4
    endloop
  endfacet
  facet normal -0.977146 -0.212568 0
    outer loop
      vertex 18.8298 16.5758 2
      vertex 18.523 17.986 4
      vertex 18.523 17.986 2
    endloop
  endfacet
  facet normal -0.977146 -0.212568 0
    outer loop
      vertex 18.8298 16.5758 2
      vertex 18.8298 16.5758 4
      vertex 18.523 17.986 4
    endloop
  endfacet
  facet normal -0.973943 -0.226791 0
    outer loop
      vertex 19.0834 15.4864 2
      vertex 18.8298 16.5758 4
      vertex 18.8298 16.5758 2
    endloop
  endfacet
  facet normal -0.973943 -0.226791 0
    outer loop
      vertex 19.0834 15.4864 2
      vertex 19.0834 15.4864 4
      vertex 18.8298 16.5758 4
    endloop
  endfacet
  facet normal -0.967587 -0.252536 0
    outer loop
      vertex 19.284 14.718 2
      vertex 19.0834 15.4864 4
      vertex 19.0834 15.4864 2
    endloop
  endfacet
  facet normal -0.967587 -0.252536 0
    outer loop
      vertex 19.284 14.718 2
      vertex 19.284 14.718 4
      vertex 19.0834 15.4864 4
    endloop
  endfacet
  facet normal -0.964723 -0.263268 0
    outer loop
      vertex 21.936 5 2
      vertex 19.284 14.718 4
      vertex 19.284 14.718 2
    endloop
  endfacet
  facet normal -0.964723 -0.263268 0
    outer loop
      vertex 21.936 5 2
      vertex 21.936 5 4
      vertex 19.284 14.718 4
    endloop
  endfacet
  facet normal 0 -1 0
    outer loop
      vertex 24.408 5 2
      vertex 21.936 5 4
      vertex 21.936 5 2
    endloop
  endfacet
  facet normal 0 -1 0
    outer loop
      vertex 24.408 5 2
      vertex 24.408 5 4
      vertex 21.936 5 4
    endloop
  endfacet
  facet normal 0.95921 -0.282696 0
    outer loop
      vertex 28.916 20.296 2
      vertex 24.408 5 4
      vertex 24.408 5 2
    endloop
  endfacet
  facet normal 0.95921 -0.282696 0
    outer loop
      vertex 28.916 20.296 2
      vertex 28.916 20.296 4
      vertex 24.408 5 4
    endloop
  endfacet
  facet normal 0 1 0
    outer loop
      vertex 26.758 20.296 2
      vertex 28.916 20.296 4
      vertex 28.916 20.296 2
    endloop
  endfacet
  facet normal 0 1 0
    outer loop
      vertex 26.758 20.296 2
      vertex 26.758 20.296 4
      vertex 28.916 20.296 4
    endloop
  endfacet
  facet normal -0.963298 0.268434 0
    outer loop
      vertex 25.1436 14.5024 2
      vertex 26.758 20.296 4
      vertex 26.758 20.296 2
    endloop
  endfacet
  facet normal -0.963298 0.268434 0
    outer loop
      vertex 25.1436 14.5024 2
      vertex 25.1436 14.5024 4
      vertex 26.758 20.296 4
    endloop
  endfacet
  facet normal -0.963914 0.266215 0
    outer loop
      vertex 24.1255 10.8164 2
      vertex 25.1436 14.5024 4
      vertex 25.1436 14.5024 2
    endloop
  endfacet
  facet normal -0.963914 0.266215 0
    outer loop
      vertex 24.1255 10.8164 2
      vertex 24.1255 10.8164 4
      vertex 25.1436 14.5024 4
    endloop
  endfacet
  facet normal -0.966138 0.258026 0
    outer loop
      vertex 23.704 9.23799 2
      vertex 24.1255 10.8164 4
      vertex 24.1255 10.8164 2
    endloop
  endfacet
  facet normal -0.966138 0.258026 0
    outer loop
      vertex 23.704 9.23799 2
      vertex 23.704 9.23799 4
      vertex 24.1255 10.8164 4
    endloop
  endfacet
  facet normal -0.97353 0.228559 0
    outer loop
      vertex 23.226 7.202 2
      vertex 23.704 9.23799 4
      vertex 23.704 9.23799 2
    endloop
  endfacet
  facet normal -0.97353 0.228559 0
    outer loop
      vertex 23.226 7.202 2
      vertex 23.226 7.202 4
      vertex 23.704 9.23799 4
    endloop
  endfacet
  facet normal -0.968313 0.249738 0
    outer loop
      vertex 23.128 6.82199 2
      vertex 23.226 7.202 4
      vertex 23.226 7.202 2
    endloop
  endfacet
  facet normal -0.968313 0.249738 0
    outer loop
      vertex 23.128 6.82199 2
      vertex 23.128 6.82199 4
      vertex 23.226 7.202 4
    endloop
  endfacet
  facet normal 0.975556 0.219749 0
    outer loop
      vertex 22.8671 7.98021 2
      vertex 23.128 6.82199 4
      vertex 23.128 6.82199 2
    endloop
  endfacet
  facet normal 0.975556 0.219749 -0
    outer loop
      vertex 22.8671 7.98021 2
      vertex 22.8671 7.98021 4
      vertex 23.128 6.82199 4
    endloop
  endfacet
  facet normal 0.971967 0.235119 0
    outer loop
      vertex 22.5484 9.29755 2
      vertex 22.8671 7.98021 4
      vertex 22.8671 7.98021 2
    endloop
  endfacet
  facet normal 0.971967 0.235119 -0
    outer loop
      vertex 22.5484 9.29755 2
      vertex 22.5484 9.29755 4
      vertex 22.8671 7.98021 4
    endloop
  endfacet
  facet normal 0.969001 0.247057 0
    outer loop
      vertex 22.172 10.774 2
      vertex 22.5484 9.29755 4
      vertex 22.5484 9.29755 2
    endloop
  endfacet
  facet normal 0.969001 0.247057 -0
    outer loop
      vertex 22.172 10.774 2
      vertex 22.172 10.774 4
      vertex 22.5484 9.29755 4
    endloop
  endfacet
  facet normal 0.963047 0.269334 0
    outer loop
      vertex 19.509 20.296 2
      vertex 22.172 10.774 4
      vertex 22.172 10.774 2
    endloop
  endfacet
  facet normal 0.963047 0.269334 -0
    outer loop
      vertex 19.509 20.296 2
      vertex 19.509 20.296 4
      vertex 22.172 10.774 4
    endloop
  endfacet
  facet normal 0 1 0
    outer loop
      vertex 17.525 20.296 2
      vertex 19.509 20.296 4
      vertex 19.509 20.296 2
    endloop
  endfacet
  facet normal 0 1 0
    outer loop
      vertex 17.525 20.296 2
      vertex 17.525 20.296 4
      vertex 19.509 20.296 4
    endloop
  endfacet
  facet normal -0.96262 0.270855 0
    outer loop
      vertex 16.0025 14.8852 2
      vertex 17.525 20.296 4
      vertex 17.525 20.296 2
    endloop
  endfacet
  facet normal -0.96262 0.270855 0
    outer loop
      vertex 16.0025 14.8852 2
      vertex 16.0025 14.8852 4
      vertex 17.525 20.296 4
    endloop
  endfacet
  facet normal -0.963636 0.267219 0
    outer loop
      vertex 14.9979 11.2622 2
      vertex 16.0025 14.8852 4
      vertex 16.0025 14.8852 2
    endloop
  endfacet
  facet normal -0.963636 0.267219 0
    outer loop
      vertex 14.9979 11.2622 2
      vertex 14.9979 11.2622 4
      vertex 16.0025 14.8852 4
    endloop
  endfacet
  facet normal -0.966562 0.256433 0
    outer loop
      vertex 14.511 9.42699 2
      vertex 14.9979 11.2622 4
      vertex 14.9979 11.2622 2
    endloop
  endfacet
  facet normal -0.966562 0.256433 0
    outer loop
      vertex 14.511 9.42699 2
      vertex 14.511 9.42699 4
      vertex 14.9979 11.2622 4
    endloop
  endfacet
  facet normal -0.972622 0.232392 0
    outer loop
      vertex 14.292 8.51044 2
      vertex 14.511 9.42699 4
      vertex 14.511 9.42699 2
    endloop
  endfacet
  facet normal -0.972622 0.232392 0
    outer loop
      vertex 14.292 8.51044 2
      vertex 14.292 8.51044 4
      vertex 14.511 9.42699 4
    endloop
  endfacet
  facet normal -0.974239 0.22552 0
    outer loop
      vertex 14.091 7.64211 2
      vertex 14.292 8.51044 4
      vertex 14.292 8.51044 2
    endloop
  endfacet
  facet normal -0.974239 0.22552 0
    outer loop
      vertex 14.091 7.64211 2
      vertex 14.091 7.64211 4
      vertex 14.292 8.51044 4
    endloop
  endfacet
  facet normal -0.975997 0.217782 0
    outer loop
      vertex 13.908 6.82199 2
      vertex 14.091 7.64211 4
      vertex 14.091 7.64211 2
    endloop
  endfacet
  facet normal -0.975997 0.217782 0
    outer loop
      vertex 13.908 6.82199 2
      vertex 13.908 6.82199 4
      vertex 14.091 7.64211 4
    endloop
  endfacet
  facet normal 0.976173 0.216996 0
    outer loop
      vertex 13.6242 8.09854 2
      vertex 13.908 6.82199 4
      vertex 13.908 6.82199 2
    endloop
  endfacet
  facet normal 0.976173 0.216996 -0
    outer loop
      vertex 13.6242 8.09854 2
      vertex 13.6242 8.09854 4
      vertex 13.908 6.82199 4
    endloop
  endfacet
  facet normal 0.972367 0.233457 0
    outer loop
      vertex 13.3235 9.35088 2
      vertex 13.6242 8.09854 4
      vertex 13.6242 8.09854 2
    endloop
  endfacet
  facet normal 0.972367 0.233457 -0
    outer loop
      vertex 13.3235 9.35088 2
      vertex 13.3235 9.35088 4
      vertex 13.6242 8.09854 4
    endloop
  endfacet
  facet normal 0.96816 0.250334 0
    outer loop
      vertex 13.006 10.579 2
      vertex 13.3235 9.35088 4
      vertex 13.3235 9.35088 2
    endloop
  endfacet
  facet normal 0.96816 0.250334 -0
    outer loop
      vertex 13.006 10.579 2
      vertex 13.006 10.579 4
      vertex 13.3235 9.35088 4
    endloop
  endfacet
  facet normal 0.962208 0.272314 0
    outer loop
      vertex 10.256 20.296 2
      vertex 13.006 10.579 4
      vertex 13.006 10.579 2
    endloop
  endfacet
  facet normal 0.962208 0.272314 -0
    outer loop
      vertex 10.256 20.296 2
      vertex 10.256 20.296 4
      vertex 13.006 10.579 4
    endloop
  endfacet
  facet normal 0 1 0
    outer loop
      vertex 8.09799 20.296 2
      vertex 10.256 20.296 4
      vertex 10.256 20.296 2
    endloop
  endfacet
  facet normal 0 1 0
    outer loop
      vertex 8.09799 20.296 2
      vertex 8.09799 20.296 4
      vertex 10.256 20.296 4
    endloop
  endfacet
  facet normal -0.959192 -0.282754 0
    outer loop
      vertex 12.607 5 2
      vertex 8.09799 20.296 4
      vertex 8.09799 20.296 2
    endloop
  endfacet
  facet normal -0.959192 -0.282754 0
    outer loop
      vertex 12.607 5 2
      vertex 12.607 5 4
      vertex 8.09799 20.296 4
    endloop
  endfacet
  facet normal 0 -1 0
    outer loop
      vertex 15.079 5 2
      vertex 12.607 5 4
      vertex 12.607 5 2
    endloop
  endfacet
  facet normal 0 -1 0
    outer loop
      vertex 15.079 5 2
      vertex 15.079 5 4
      vertex 12.607 5 4
    endloop
  endfacet
  facet normal 0.964118 -0.265473 0
    outer loop
      vertex 16.6397 10.6679 2
      vertex 15.079 5 4
      vertex 15.079 5 2
    endloop
  endfacet
  facet normal 0.964118 -0.265473 0
    outer loop
      vertex 16.6397 10.6679 2
      vertex 16.6397 10.6679 4
      vertex 15.079 5 4
    endloop
  endfacet
  facet normal 0 1 0
    outer loop
      vertex 36.6516 20.296 2
      vertex 38.7236 20.296 4
      vertex 38.7236 20.296 2
    endloop
  endfacet
  facet normal 0 1 0
    outer loop
      vertex 36.6516 20.296 2
      vertex 36.6516 20.296 4
      vertex 38.7236 20.296 4
    endloop
  endfacet
  facet normal -1 0 0
    outer loop
      vertex 36.6516 5 2
      vertex 36.6516 20.296 4
      vertex 36.6516 20.296 2
    endloop
  endfacet
  facet normal -1 0 0
    outer loop
      vertex 36.6516 5 2
      vertex 36.6516 5 4
      vertex 36.6516 20.296 4
    endloop
  endfacet
  facet normal 0 -1 0
    outer loop
      vertex 38.7236 5 2
      vertex 36.6516 5 4
      vertex 36.6516 5 2
    endloop
  endfacet
  facet normal 0 -1 0
    outer loop
      vertex 38.7236 5 2
      vertex 38.7236 5 4
      vertex 36.6516 5 4
    endloop
  endfacet
  facet normal 1 0 0
    outer loop
      vertex 38.7236 20.296 2
      vertex 38.7236 5 4
      vertex 38.7236 5 2
    endloop
  endfacet
  facet normal 1 0 -0
    outer loop
      vertex 38.7236 20.296 2
      vertex 38.7236 20.296 4
      vertex 38.7236 5 4
    endloop
  endfacet
endsolid OpenSCAD_Model
