solid OpenSCAD_Model
  facet normal 0 0 -1
    outer loop
      vertex 48.2556 0.882233 2
      vertex 48.4906 2.38968 2
      vertex 48.9186 1.01501 2
    endloop
  endfacet
  facet normal 0 0 -1
    outer loop
      vertex 48.0746 2.34268 2
      vertex 48.4906 2.38968 2
      vertex 48.2556 0.882233 2
    endloop
  endfacet
  facet normal 0 0 -1
    outer loop
      vertex 48.4906 2.38968 2
      vertex 48.9186 2.468 2
      vertex 48.9186 1.01501 2
    endloop
  endfacet
  facet normal 0 0 -1
    outer loop
      vertex 47.6706 2.32701 2
      vertex 48.0746 2.34268 2
      vertex 48.2556 0.882233 2
    endloop
  endfacet
  facet normal 0 0 -1
    outer loop
      vertex 47.612 0.802567 2
      vertex 47.6706 2.32701 2
      vertex 48.2556 0.882233 2
    endloop
  endfacet
  facet normal -0 0 -1
    outer loop
      vertex 47.612 0.802567 2
      vertex 46.9876 0.776001 2
      vertex 47.6706 2.32701 2
    endloop
  endfacet
  facet normal -0 0 -1
    outer loop
      vertex 47.6706 2.32701 2
      vertex 46.9876 0.776001 2
      vertex 46.976 2.39479 2
    endloop
  endfacet
  facet normal -0 0 -1
    outer loop
      vertex 46.976 2.39479 2
      vertex 45.9601 0.879227 2
      vertex 46.3666 2.59811 2
    endloop
  endfacet
  facet normal 0 0 -1
    outer loop
      vertex 44.2916 1.705 2
      vertex 45.3926 3.42767 2
      vertex 45.8426 2.93701 2
    endloop
  endfacet
  facet normal 0 0 -1
    outer loop
      vertex 43.053 3.49701 2
      vertex 45.004 4.08768 2
      vertex 43.6296 2.46268 2
    endloop
  endfacet
  facet normal 0 0 -1
    outer loop
      vertex 46.4669 5.35933 2
      vertex 44.8625 6.62633 2
      vertex 46.2169 7.17032 2
    endloop
  endfacet
  facet normal 0 0 -1
    outer loop
      vertex 38.4102 9.38699 2
      vertex 36.0266 9.85988 2
      vertex 37.9275 10.907 2
    endloop
  endfacet
  facet normal -0 0 -1
    outer loop
      vertex 50.1045 8.89377 2
      vertex 49.2006 7.37799 2
      vertex 48.0843 9.31499 2
    endloop
  endfacet
  facet normal -0 0 -1
    outer loop
      vertex 50.6469 10.6651 2
      vertex 50.1045 8.89377 2
      vertex 48.5563 10.853 2
    endloop
  endfacet
  facet normal 0 0 -1
    outer loop
      vertex 47.2976 8.077 2
      vertex 49.2006 7.37799 2
      vertex 47.9749 6.17966 2
    endloop
  endfacet
  facet normal 0 0 -1
    outer loop
      vertex 48.7136 12.691 2
      vertex 50.8276 12.692 2
      vertex 50.6469 10.6651 2
    endloop
  endfacet
  facet normal -0 0 -1
    outer loop
      vertex 46.0907 20.076 2
      vertex 44.8618 18.6152 2
      vertex 44.7421 20.385 2
    endloop
  endfacet
  facet normal 0 0 -1
    outer loop
      vertex 43.2566 18.796 2
      vertex 44.7421 20.385 2
      vertex 44.8618 18.6152 2
    endloop
  endfacet
  facet normal 0 0 -1
    outer loop
      vertex 47.2866 17.169 2
      vertex 46.2051 18.0729 2
      vertex 48.3545 18.8495 2
    endloop
  endfacet
  facet normal 0 0 -1
    outer loop
      vertex 48.0794 15.9488 2
      vertex 47.2866 17.169 2
      vertex 49.2279 17.9512 2
    endloop
  endfacet
  facet normal 0 0 -1
    outer loop
      vertex 43.2556 20.488 2
      vertex 41.6386 18.6177 2
      vertex 41.0443 20.2584 2
    endloop
  endfacet
  facet normal -0 0 -1
    outer loop
      vertex 49.9216 16.866 2
      vertex 48.0794 15.9488 2
      vertex 49.2279 17.9512 2
    endloop
  endfacet
  facet normal 0 0 -1
    outer loop
      vertex 38.4031 15.9777 2
      vertex 37.9258 14.4777 2
      vertex 35.8856 14.9571 2
    endloop
  endfacet
  facet normal 0 -0 -1
    outer loop
      vertex 39.1823 19.5698 2
      vertex 39.1986 17.191 2
      vertex 37.6696 18.422 2
    endloop
  endfacet
  facet normal 0 -0 -1
    outer loop
      vertex 41.0443 20.2584 2
      vertex 41.6386 18.6177 2
      vertex 40.286 18.0827 2
    endloop
  endfacet
  facet normal 0 0 -1
    outer loop
      vertex 42.5616 4.80801 2
      vertex 41.6453 6.63232 2
      vertex 43.2346 6.44499 2
    endloop
  endfacet
  facet normal 0 -0 -1
    outer loop
      vertex 39.2146 8.131 2
      vertex 40.3053 7.19432 2
      vertex 38.8566 5.89699 2
    endloop
  endfacet
  facet normal 0 0 -1
    outer loop
      vertex 16.6397 10.6679 2
      vertex 14.9979 11.2622 2
      vertex 17.6283 14.2942 2
    endloop
  endfacet
  facet normal 0 -0 -1
    outer loop
      vertex 40.3053 7.19432 2
      vertex 41.6453 6.63232 2
      vertex 39.9603 5.34 2
    endloop
  endfacet
  facet normal 0 0 -1
    outer loop
      vertex 39.9603 5.34 2
      vertex 41.6453 6.63232 2
      vertex 41.1953 4.97701 2
    endloop
  endfacet
  facet normal -0 0 -1
    outer loop
      vertex 28.916 20.296 2
      vertex 25.1436 14.5024 2
      vertex 26.758 20.296 2
    endloop
  endfacet
  facet normal 0 0 -1
    outer loop
      vertex 41.1953 4.97701 2
      vertex 41.6453 6.63232 2
      vertex 42.5616 4.80801 2
    endloop
  endfacet
  facet normal 0 0 -1
    outer loop
      vertex 37.9012 6.6371 2
      vertex 39.2146 8.131 2
      vertex 38.8566 5.89699 2
    endloop
  endfacet
  facet normal 0 0 -1
    outer loop
      vertex 37.1095 7.54811 2
      vertex 39.2146 8.131 2
      vertex 37.9012 6.6371 2
    endloop
  endfacet
  facet normal 0 0 -1
    outer loop
      vertex 43.6296 2.46268 2
      vertex 45.004 4.08768 2
      vertex 45.3926 3.42767 2
    endloop
  endfacet
  facet normal 0 0 -1
    outer loop
      vertex 45.0614 1.1889 2
      vertex 44.2916 1.705 2
      vertex 45.8426 2.93701 2
    endloop
  endfacet
  facet normal 0 0 -1
    outer loop
      vertex 43.053 3.49701 2
      vertex 44.6766 4.91701 2
      vertex 45.004 4.08768 2
    endloop
  endfacet
  facet normal 0 -0 -1
    outer loop
      vertex 43.2346 6.44499 2
      vertex 44.6766 4.91701 2
      vertex 42.5616 4.80801 2
    endloop
  endfacet
  facet normal 0 0 -1
    outer loop
      vertex 42.5616 4.80801 2
      vertex 44.6766 4.91701 2
      vertex 43.053 3.49701 2
    endloop
  endfacet
  facet normal 0 0 -1
    outer loop
      vertex 43.6296 2.46268 2
      vertex 45.3926 3.42767 2
      vertex 44.2916 1.705 2
    endloop
  endfacet
  facet normal -0 0 -1
    outer loop
      vertex 46.3666 2.59811 2
      vertex 45.0614 1.1889 2
      vertex 45.8426 2.93701 2
    endloop
  endfacet
  facet normal 0 0 -1
    outer loop
      vertex 46.3666 2.59811 2
      vertex 45.9601 0.879227 2
      vertex 45.0614 1.1889 2
    endloop
  endfacet
  facet normal 0 -0 -1
    outer loop
      vertex 46.976 2.39479 2
      vertex 46.9876 0.776001 2
      vertex 45.9601 0.879227 2
    endloop
  endfacet
  facet normal 0 0 -1
    outer loop
      vertex 48.0794 15.9488 2
      vertex 50.425 15.6169 2
      vertex 48.5551 14.4561 2
    endloop
  endfacet
  facet normal 0 0 -1
    outer loop
      vertex 36.4816 8.62999 2
      vertex 38.4102 9.38699 2
      vertex 37.1095 7.54811 2
    endloop
  endfacet
  facet normal 0 0 -1
    outer loop
      vertex 40.3053 7.19432 2
      vertex 39.9603 5.34 2
      vertex 38.8566 5.89699 2
    endloop
  endfacet
  facet normal -0 0 -1
    outer loop
      vertex 50.8276 12.692 2
      vertex 48.7136 12.691 2
      vertex 50.727 14.2256 2
    endloop
  endfacet
  facet normal 0 0 -1
    outer loop
      vertex 37.1095 7.54811 2
      vertex 38.4102 9.38699 2
      vertex 39.2146 8.131 2
    endloop
  endfacet
  facet normal 0 0 -1
    outer loop
      vertex 36.4816 8.62999 2
      vertex 36.0266 9.85988 2
      vertex 38.4102 9.38699 2
    endloop
  endfacet
  facet normal 0 0 -1
    outer loop
      vertex 37.9275 10.907 2
      vertex 35.7536 11.2135 2
      vertex 37.7666 12.691 2
    endloop
  endfacet
  facet normal 0 0 -1
    outer loop
      vertex 36.0266 9.85988 2
      vertex 35.7536 11.2135 2
      vertex 37.9275 10.907 2
    endloop
  endfacet
  facet normal 0 0 -1
    outer loop
      vertex 37.7666 12.691 2
      vertex 35.6626 12.691 2
      vertex 37.9258 14.4777 2
    endloop
  endfacet
  facet normal 0 0 -1
    outer loop
      vertex 35.7536 11.2135 2
      vertex 35.6626 12.691 2
      vertex 37.7666 12.691 2
    endloop
  endfacet
  facet normal -0 0 -1
    outer loop
      vertex 37.9258 14.4777 2
      vertex 35.6626 12.691 2
      vertex 35.8856 14.9571 2
    endloop
  endfacet
  facet normal 0 0 -1
    outer loop
      vertex 38.4031 15.9777 2
      vertex 36.5546 16.8674 2
      vertex 37.6696 18.422 2
    endloop
  endfacet
  facet normal 0 0 -1
    outer loop
      vertex 35.8856 14.9571 2
      vertex 36.5546 16.8674 2
      vertex 38.4031 15.9777 2
    endloop
  endfacet
  facet normal -0 0 -1
    outer loop
      vertex 39.1986 17.191 2
      vertex 38.4031 15.9777 2
      vertex 37.6696 18.422 2
    endloop
  endfacet
  facet normal -0 0 -1
    outer loop
      vertex 40.286 18.0827 2
      vertex 39.1986 17.191 2
      vertex 39.1823 19.5698 2
    endloop
  endfacet
  facet normal 0 0 -1
    outer loop
      vertex 41.0443 20.2584 2
      vertex 40.286 18.0827 2
      vertex 39.1823 19.5698 2
    endloop
  endfacet
  facet normal 0 0 -1
    outer loop
      vertex 43.2566 18.796 2
      vertex 43.2556 20.488 2
      vertex 44.7421 20.385 2
    endloop
  endfacet
  facet normal 0 0 -1
    outer loop
      vertex 41.6386 18.6177 2
      vertex 43.2556 20.488 2
      vertex 43.2566 18.796 2
    endloop
  endfacet
  facet normal 0 -0 -1
    outer loop
      vertex 46.0907 20.076 2
      vertex 46.2051 18.0729 2
      vertex 44.8618 18.6152 2
    endloop
  endfacet
  facet normal 0 0 -1
    outer loop
      vertex 46.2051 18.0729 2
      vertex 47.3016 19.561 2
      vertex 48.3545 18.8495 2
    endloop
  endfacet
  facet normal 0 0 -1
    outer loop
      vertex 46.0907 20.076 2
      vertex 47.3016 19.561 2
      vertex 46.2051 18.0729 2
    endloop
  endfacet
  facet normal 0 0 -1
    outer loop
      vertex 47.2866 17.169 2
      vertex 48.3545 18.8495 2
      vertex 49.2279 17.9512 2
    endloop
  endfacet
  facet normal 0 -0 -1
    outer loop
      vertex 49.9216 16.866 2
      vertex 50.425 15.6169 2
      vertex 48.0794 15.9488 2
    endloop
  endfacet
  facet normal 0 0 -1
    outer loop
      vertex 48.5551 14.4561 2
      vertex 50.727 14.2256 2
      vertex 48.7136 12.691 2
    endloop
  endfacet
  facet normal 0 -0 -1
    outer loop
      vertex 50.425 15.6169 2
      vertex 50.727 14.2256 2
      vertex 48.5551 14.4561 2
    endloop
  endfacet
  facet normal 0 0 -1
    outer loop
      vertex 50.6469 10.6651 2
      vertex 48.5563 10.853 2
      vertex 48.7136 12.691 2
    endloop
  endfacet
  facet normal 0 0 -1
    outer loop
      vertex 50.1045 8.89377 2
      vertex 48.0843 9.31499 2
      vertex 48.5563 10.853 2
    endloop
  endfacet
  facet normal 0 0 -1
    outer loop
      vertex 49.2006 7.37799 2
      vertex 47.2976 8.077 2
      vertex 48.0843 9.31499 2
    endloop
  endfacet
  facet normal 0 0 -1
    outer loop
      vertex 47.9749 6.17966 2
      vertex 46.2169 7.17032 2
      vertex 47.2976 8.077 2
    endloop
  endfacet
  facet normal -0 0 -1
    outer loop
      vertex 47.9749 6.17966 2
      vertex 46.4669 5.35933 2
      vertex 46.2169 7.17032 2
    endloop
  endfacet
  facet normal -0 0 -1
    outer loop
      vertex 46.4669 5.35933 2
      vertex 44.6766 4.91701 2
      vertex 44.8625 6.62633 2
    endloop
  endfacet
  facet normal 0 0 -1
    outer loop
      vertex 44.8625 6.62633 2
      vertex 44.6766 4.91701 2
      vertex 43.2346 6.44499 2
    endloop
  endfacet
  facet normal -0 0 -1
    outer loop
      vertex 18.3445 17.1919 2
      vertex 16.0025 14.8852 2
      vertex 17.525 20.296 2
    endloop
  endfacet
  facet normal -0 0 -1
    outer loop
      vertex 18.523 17.986 2
      vertex 18.3445 17.1919 2
      vertex 17.525 20.296 2
    endloop
  endfacet
  facet normal 0 0 -1
    outer loop
      vertex 18.3445 17.1919 2
      vertex 18.045 15.879 2
      vertex 16.0025 14.8852 2
    endloop
  endfacet
  facet normal 0 0 -1
    outer loop
      vertex 16.0025 14.8852 2
      vertex 18.045 15.879 2
      vertex 17.6283 14.2942 2
    endloop
  endfacet
  facet normal 0 0 -1
    outer loop
      vertex 14.9979 11.2622 2
      vertex 16.0025 14.8852 2
      vertex 17.6283 14.2942 2
    endloop
  endfacet
  facet normal 0 0 -1
    outer loop
      vertex 28.916 20.296 2
      vertex 24.408 5 2
      vertex 25.1436 14.5024 2
    endloop
  endfacet
  facet normal -0 0 -1
    outer loop
      vertex 16.6397 10.6679 2
      vertex 14.511 9.42699 2
      vertex 14.9979 11.2622 2
    endloop
  endfacet
  facet normal 0 0 -1
    outer loop
      vertex 18.8298 16.5758 2
      vertex 18.523 17.986 2
      vertex 19.509 20.296 2
    endloop
  endfacet
  facet normal -0 0 -1
    outer loop
      vertex 23.128 6.82199 2
      vertex 21.936 5 2
      vertex 22.8671 7.98021 2
    endloop
  endfacet
  facet normal 0 0 -1
    outer loop
      vertex 24.1255 10.8164 2
      vertex 25.1436 14.5024 2
      vertex 24.408 5 2
    endloop
  endfacet
  facet normal 0 0 -1
    outer loop
      vertex 23.704 9.23799 2
      vertex 24.1255 10.8164 2
      vertex 24.408 5 2
    endloop
  endfacet
  facet normal 0 0 -1
    outer loop
      vertex 23.226 7.202 2
      vertex 23.704 9.23799 2
      vertex 24.408 5 2
    endloop
  endfacet
  facet normal 0 0 -1
    outer loop
      vertex 21.936 5 2
      vertex 23.128 6.82199 2
      vertex 24.408 5 2
    endloop
  endfacet
  facet normal 0 0 -1
    outer loop
      vertex 23.128 6.82199 2
      vertex 23.226 7.202 2
      vertex 24.408 5 2
    endloop
  endfacet
  facet normal 0 -0 -1
    outer loop
      vertex 22.5484 9.29755 2
      vertex 22.8671 7.98021 2
      vertex 21.936 5 2
    endloop
  endfacet
  facet normal 0 -0 -1
    outer loop
      vertex 22.172 10.774 2
      vertex 22.5484 9.29755 2
      vertex 21.936 5 2
    endloop
  endfacet
  facet normal 0 0 -1
    outer loop
      vertex 19.284 14.718 2
      vertex 22.172 10.774 2
      vertex 21.936 5 2
    endloop
  endfacet
  facet normal -0 0 -1
    outer loop
      vertex 19.509 20.296 2
      vertex 18.523 17.986 2
      vertex 17.525 20.296 2
    endloop
  endfacet
  facet normal 0 0 -1
    outer loop
      vertex 19.284 14.718 2
      vertex 19.0834 15.4864 2
      vertex 22.172 10.774 2
    endloop
  endfacet
  facet normal 0 0 -1
    outer loop
      vertex 19.0834 15.4864 2
      vertex 19.509 20.296 2
      vertex 22.172 10.774 2
    endloop
  endfacet
  facet normal 0 0 -1
    outer loop
      vertex 18.8298 16.5758 2
      vertex 19.509 20.296 2
      vertex 19.0834 15.4864 2
    endloop
  endfacet
  facet normal 0 0 -1
    outer loop
      vertex 16.6397 10.6679 2
      vertex 14.292 8.51044 2
      vertex 14.511 9.42699 2
    endloop
  endfacet
  facet normal 0 0 -1
    outer loop
      vertex 16.6397 10.6679 2
      vertex 15.079 5 2
      vertex 14.292 8.51044 2
    endloop
  endfacet
  facet normal 0 -0 -1
    outer loop
      vertex 14.292 8.51044 2
      vertex 15.079 5 2
      vertex 14.091 7.64211 2
    endloop
  endfacet
  facet normal 0 -0 -1
    outer loop
      vertex 14.091 7.64211 2
      vertex 15.079 5 2
      vertex 13.908 6.82199 2
    endloop
  endfacet
  facet normal 0 -0 -1
    outer loop
      vertex 13.908 6.82199 2
      vertex 15.079 5 2
      vertex 12.607 5 2
    endloop
  endfacet
  facet normal 0 0 -1
    outer loop
      vertex 8.09799 20.296 2
      vertex 13.006 10.579 2
      vertex 12.607 5 2
    endloop
  endfacet
  facet normal 0 0 -1
    outer loop
      vertex 12.607 5 2
      vertex 13.006 10.579 2
      vertex 13.3235 9.35088 2
    endloop
  endfacet
  facet normal 0 0 -1
    outer loop
      vertex 13.006 10.579 2
      vertex 8.09799 20.296 2
      vertex 10.256 20.296 2
    endloop
  endfacet
  facet normal -0 0 -1
    outer loop
      vertex 13.6242 8.09854 2
      vertex 12.607 5 2
      vertex 13.3235 9.35088 2
    endloop
  endfacet
  facet normal 0 -0 -1
    outer loop
      vertex 13.6242 8.09854 2
      vertex 13.908 6.82199 2
      vertex 12.607 5 2
    endloop
  endfacet
  facet normal 0 0 1
    outer loop
      vertex 48.9186 1.01501 4
      vertex 48.4906 2.38968 4
      vertex 48.2556 0.882233 4
    endloop
  endfacet
  facet normal 0 -0 1
    outer loop
      vertex 48.2556 0.882233 4
      vertex 48.4906 2.38968 4
      vertex 48.0746 2.34268 4
    endloop
  endfacet
  facet normal 0 -0 1
    outer loop
      vertex 48.9186 1.01501 4
      vertex 48.9186 2.468 4
      vertex 48.4906 2.38968 4
    endloop
  endfacet
  facet normal 0 0 1
    outer loop
      vertex 48.2556 0.882233 4
      vertex 48.0746 2.34268 4
      vertex 47.6706 2.32701 4
    endloop
  endfacet
  facet normal 0 0 1
    outer loop
      vertex 48.2556 0.882233 4
      vertex 47.6706 2.32701 4
      vertex 47.612 0.802567 4
    endloop
  endfacet
  facet normal 0 0 1
    outer loop
      vertex 47.6706 2.32701 4
      vertex 46.9876 0.776001 4
      vertex 47.612 0.802567 4
    endloop
  endfacet
  facet normal 0 0 1
    outer loop
      vertex 46.976 2.39479 4
      vertex 46.9876 0.776001 4
      vertex 47.6706 2.32701 4
    endloop
  endfacet
  facet normal 0 0 1
    outer loop
      vertex 46.3666 2.59811 4
      vertex 45.9601 0.879227 4
      vertex 46.976 2.39479 4
    endloop
  endfacet
  facet normal 0 0 1
    outer loop
      vertex 45.8426 2.93701 4
      vertex 45.3926 3.42767 4
      vertex 44.2916 1.705 4
    endloop
  endfacet
  facet normal 0 -0 1
    outer loop
      vertex 43.6296 2.46268 4
      vertex 45.004 4.08768 4
      vertex 43.053 3.49701 4
    endloop
  endfacet
  facet normal 0 0 1
    outer loop
      vertex 46.2169 7.17032 4
      vertex 44.8625 6.62633 4
      vertex 46.4669 5.35933 4
    endloop
  endfacet
  facet normal 0 0 1
    outer loop
      vertex 37.9275 10.907 4
      vertex 36.0266 9.85988 4
      vertex 38.4102 9.38699 4
    endloop
  endfacet
  facet normal 0 0 1
    outer loop
      vertex 48.0843 9.31499 4
      vertex 49.2006 7.37799 4
      vertex 50.1045 8.89377 4
    endloop
  endfacet
  facet normal 0 0 1
    outer loop
      vertex 48.5563 10.853 4
      vertex 50.1045 8.89377 4
      vertex 50.6469 10.6651 4
    endloop
  endfacet
  facet normal 0 -0 1
    outer loop
      vertex 47.9749 6.17966 4
      vertex 49.2006 7.37799 4
      vertex 47.2976 8.077 4
    endloop
  endfacet
  facet normal 0 -0 1
    outer loop
      vertex 50.6469 10.6651 4
      vertex 50.8276 12.692 4
      vertex 48.7136 12.691 4
    endloop
  endfacet
  facet normal 0 0 1
    outer loop
      vertex 44.7421 20.385 4
      vertex 44.8618 18.6152 4
      vertex 46.0907 20.076 4
    endloop
  endfacet
  facet normal 0 0 1
    outer loop
      vertex 44.8618 18.6152 4
      vertex 44.7421 20.385 4
      vertex 43.2566 18.796 4
    endloop
  endfacet
  facet normal 0 0 1
    outer loop
      vertex 48.3545 18.8495 4
      vertex 46.2051 18.0729 4
      vertex 47.2866 17.169 4
    endloop
  endfacet
  facet normal 0 0 1
    outer loop
      vertex 49.2279 17.9512 4
      vertex 47.2866 17.169 4
      vertex 48.0794 15.9488 4
    endloop
  endfacet
  facet normal -0 0 1
    outer loop
      vertex 41.0443 20.2584 4
      vertex 41.6386 18.6177 4
      vertex 43.2556 20.488 4
    endloop
  endfacet
  facet normal 0 0 1
    outer loop
      vertex 49.2279 17.9512 4
      vertex 48.0794 15.9488 4
      vertex 49.9216 16.866 4
    endloop
  endfacet
  facet normal -0 0 1
    outer loop
      vertex 35.8856 14.9571 4
      vertex 37.9258 14.4777 4
      vertex 38.4031 15.9777 4
    endloop
  endfacet
  facet normal -0 0 1
    outer loop
      vertex 37.6696 18.422 4
      vertex 39.1986 17.191 4
      vertex 39.1823 19.5698 4
    endloop
  endfacet
  facet normal 0 0 1
    outer loop
      vertex 40.286 18.0827 4
      vertex 41.6386 18.6177 4
      vertex 41.0443 20.2584 4
    endloop
  endfacet
  facet normal 0 0 1
    outer loop
      vertex 43.2346 6.44499 4
      vertex 41.6453 6.63232 4
      vertex 42.5616 4.80801 4
    endloop
  endfacet
  facet normal 0 0 1
    outer loop
      vertex 38.8566 5.89699 4
      vertex 40.3053 7.19432 4
      vertex 39.2146 8.131 4
    endloop
  endfacet
  facet normal 0 0 1
    outer loop
      vertex 17.6283 14.2942 4
      vertex 14.9979 11.2622 4
      vertex 16.6397 10.6679 4
    endloop
  endfacet
  facet normal 0 0 1
    outer loop
      vertex 39.9603 5.34 4
      vertex 41.6453 6.63232 4
      vertex 40.3053 7.19432 4
    endloop
  endfacet
  facet normal 0 -0 1
    outer loop
      vertex 41.1953 4.97701 4
      vertex 41.6453 6.63232 4
      vertex 39.9603 5.34 4
    endloop
  endfacet
  facet normal -0 0 1
    outer loop
      vertex 26.758 20.296 4
      vertex 25.1436 14.5024 4
      vertex 28.916 20.296 4
    endloop
  endfacet
  facet normal 0 0 1
    outer loop
      vertex 42.5616 4.80801 4
      vertex 41.6453 6.63232 4
      vertex 41.1953 4.97701 4
    endloop
  endfacet
  facet normal 0 -0 1
    outer loop
      vertex 38.8566 5.89699 4
      vertex 39.2146 8.131 4
      vertex 37.9012 6.6371 4
    endloop
  endfacet
  facet normal 0 -0 1
    outer loop
      vertex 37.9012 6.6371 4
      vertex 39.2146 8.131 4
      vertex 37.1095 7.54811 4
    endloop
  endfacet
  facet normal 0 0 1
    outer loop
      vertex 45.3926 3.42767 4
      vertex 45.004 4.08768 4
      vertex 43.6296 2.46268 4
    endloop
  endfacet
  facet normal 0 0 1
    outer loop
      vertex 45.8426 2.93701 4
      vertex 44.2916 1.705 4
      vertex 45.0614 1.1889 4
    endloop
  endfacet
  facet normal 0 0 1
    outer loop
      vertex 45.004 4.08768 4
      vertex 44.6766 4.91701 4
      vertex 43.053 3.49701 4
    endloop
  endfacet
  facet normal 0 0 1
    outer loop
      vertex 42.5616 4.80801 4
      vertex 44.6766 4.91701 4
      vertex 43.2346 6.44499 4
    endloop
  endfacet
  facet normal 0 -0 1
    outer loop
      vertex 43.053 3.49701 4
      vertex 44.6766 4.91701 4
      vertex 42.5616 4.80801 4
    endloop
  endfacet
  facet normal 0 -0 1
    outer loop
      vertex 44.2916 1.705 4
      vertex 45.3926 3.42767 4
      vertex 43.6296 2.46268 4
    endloop
  endfacet
  facet normal 0 0 1
    outer loop
      vertex 45.8426 2.93701 4
      vertex 45.0614 1.1889 4
      vertex 46.3666 2.59811 4
    endloop
  endfacet
  facet normal -0 0 1
    outer loop
      vertex 45.0614 1.1889 4
      vertex 45.9601 0.879227 4
      vertex 46.3666 2.59811 4
    endloop
  endfacet
  facet normal -0 0 1
    outer loop
      vertex 45.9601 0.879227 4
      vertex 46.9876 0.776001 4
      vertex 46.976 2.39479 4
    endloop
  endfacet
  facet normal 0 -0 1
    outer loop
      vertex 48.5551 14.4561 4
      vertex 50.425 15.6169 4
      vertex 48.0794 15.9488 4
    endloop
  endfacet
  facet normal 0 -0 1
    outer loop
      vertex 37.1095 7.54811 4
      vertex 38.4102 9.38699 4
      vertex 36.4816 8.62999 4
    endloop
  endfacet
  facet normal -0 0 1
    outer loop
      vertex 38.8566 5.89699 4
      vertex 39.9603 5.34 4
      vertex 40.3053 7.19432 4
    endloop
  endfacet
  facet normal 0 0 1
    outer loop
      vertex 50.727 14.2256 4
      vertex 48.7136 12.691 4
      vertex 50.8276 12.692 4
    endloop
  endfacet
  facet normal 0 0 1
    outer loop
      vertex 39.2146 8.131 4
      vertex 38.4102 9.38699 4
      vertex 37.1095 7.54811 4
    endloop
  endfacet
  facet normal 0 0 1
    outer loop
      vertex 38.4102 9.38699 4
      vertex 36.0266 9.85988 4
      vertex 36.4816 8.62999 4
    endloop
  endfacet
  facet normal 0 0 1
    outer loop
      vertex 37.7666 12.691 4
      vertex 35.7536 11.2135 4
      vertex 37.9275 10.907 4
    endloop
  endfacet
  facet normal 0 0 1
    outer loop
      vertex 37.9275 10.907 4
      vertex 35.7536 11.2135 4
      vertex 36.0266 9.85988 4
    endloop
  endfacet
  facet normal 0 0 1
    outer loop
      vertex 37.9258 14.4777 4
      vertex 35.6626 12.691 4
      vertex 37.7666 12.691 4
    endloop
  endfacet
  facet normal 0 0 1
    outer loop
      vertex 37.7666 12.691 4
      vertex 35.6626 12.691 4
      vertex 35.7536 11.2135 4
    endloop
  endfacet
  facet normal 0 0 1
    outer loop
      vertex 35.8856 14.9571 4
      vertex 35.6626 12.691 4
      vertex 37.9258 14.4777 4
    endloop
  endfacet
  facet normal 0 0 1
    outer loop
      vertex 37.6696 18.422 4
      vertex 36.5546 16.8674 4
      vertex 38.4031 15.9777 4
    endloop
  endfacet
  facet normal 0 0 1
    outer loop
      vertex 38.4031 15.9777 4
      vertex 36.5546 16.8674 4
      vertex 35.8856 14.9571 4
    endloop
  endfacet
  facet normal 0 0 1
    outer loop
      vertex 37.6696 18.422 4
      vertex 38.4031 15.9777 4
      vertex 39.1986 17.191 4
    endloop
  endfacet
  facet normal 0 0 1
    outer loop
      vertex 39.1823 19.5698 4
      vertex 39.1986 17.191 4
      vertex 40.286 18.0827 4
    endloop
  endfacet
  facet normal -0 0 1
    outer loop
      vertex 39.1823 19.5698 4
      vertex 40.286 18.0827 4
      vertex 41.0443 20.2584 4
    endloop
  endfacet
  facet normal 0 0 1
    outer loop
      vertex 44.7421 20.385 4
      vertex 43.2556 20.488 4
      vertex 43.2566 18.796 4
    endloop
  endfacet
  facet normal 0 0 1
    outer loop
      vertex 43.2566 18.796 4
      vertex 43.2556 20.488 4
      vertex 41.6386 18.6177 4
    endloop
  endfacet
  facet normal -0 0 1
    outer loop
      vertex 44.8618 18.6152 4
      vertex 46.2051 18.0729 4
      vertex 46.0907 20.076 4
    endloop
  endfacet
  facet normal 0 0 1
    outer loop
      vertex 48.3545 18.8495 4
      vertex 47.3016 19.561 4
      vertex 46.2051 18.0729 4
    endloop
  endfacet
  facet normal 0 -0 1
    outer loop
      vertex 46.2051 18.0729 4
      vertex 47.3016 19.561 4
      vertex 46.0907 20.076 4
    endloop
  endfacet
  facet normal 0 0 1
    outer loop
      vertex 49.2279 17.9512 4
      vertex 48.3545 18.8495 4
      vertex 47.2866 17.169 4
    endloop
  endfacet
  facet normal -0 0 1
    outer loop
      vertex 48.0794 15.9488 4
      vertex 50.425 15.6169 4
      vertex 49.9216 16.866 4
    endloop
  endfacet
  facet normal 0 -0 1
    outer loop
      vertex 48.7136 12.691 4
      vertex 50.727 14.2256 4
      vertex 48.5551 14.4561 4
    endloop
  endfacet
  facet normal -0 0 1
    outer loop
      vertex 48.5551 14.4561 4
      vertex 50.727 14.2256 4
      vertex 50.425 15.6169 4
    endloop
  endfacet
  facet normal 0 0 1
    outer loop
      vertex 48.7136 12.691 4
      vertex 48.5563 10.853 4
      vertex 50.6469 10.6651 4
    endloop
  endfacet
  facet normal 0 0 1
    outer loop
      vertex 48.5563 10.853 4
      vertex 48.0843 9.31499 4
      vertex 50.1045 8.89377 4
    endloop
  endfacet
  facet normal 0 0 1
    outer loop
      vertex 48.0843 9.31499 4
      vertex 47.2976 8.077 4
      vertex 49.2006 7.37799 4
    endloop
  endfacet
  facet normal 0 0 1
    outer loop
      vertex 47.2976 8.077 4
      vertex 46.2169 7.17032 4
      vertex 47.9749 6.17966 4
    endloop
  endfacet
  facet normal 0 0 1
    outer loop
      vertex 46.2169 7.17032 4
      vertex 46.4669 5.35933 4
      vertex 47.9749 6.17966 4
    endloop
  endfacet
  facet normal 0 0 1
    outer loop
      vertex 44.8625 6.62633 4
      vertex 44.6766 4.91701 4
      vertex 46.4669 5.35933 4
    endloop
  endfacet
  facet normal -0 0 1
    outer loop
      vertex 43.2346 6.44499 4
      vertex 44.6766 4.91701 4
      vertex 44.8625 6.62633 4
    endloop
  endfacet
  facet normal 0 0 1
    outer loop
      vertex 17.525 20.296 4
      vertex 16.0025 14.8852 4
      vertex 18.3445 17.1919 4
    endloop
  endfacet
  facet normal 0 0 1
    outer loop
      vertex 17.525 20.296 4
      vertex 18.3445 17.1919 4
      vertex 18.523 17.986 4
    endloop
  endfacet
  facet normal 0 0 1
    outer loop
      vertex 16.0025 14.8852 4
      vertex 18.045 15.879 4
      vertex 18.3445 17.1919 4
    endloop
  endfacet
  facet normal 0 -0 1
    outer loop
      vertex 17.6283 14.2942 4
      vertex 18.045 15.879 4
      vertex 16.0025 14.8852 4
    endloop
  endfacet
  facet normal 0 0 1
    outer loop
      vertex 17.6283 14.2942 4
      vertex 16.0025 14.8852 4
      vertex 14.9979 11.2622 4
    endloop
  endfacet
  facet normal -0 0 1
    outer loop
      vertex 25.1436 14.5024 4
      vertex 24.408 5 4
      vertex 28.916 20.296 4
    endloop
  endfacet
  facet normal 0 0 1
    outer loop
      vertex 14.9979 11.2622 4
      vertex 14.511 9.42699 4
      vertex 16.6397 10.6679 4
    endloop
  endfacet
  facet normal 0 0 1
    outer loop
      vertex 19.509 20.296 4
      vertex 18.523 17.986 4
      vertex 18.8298 16.5758 4
    endloop
  endfacet
  facet normal 0 0 1
    outer loop
      vertex 22.8671 7.98021 4
      vertex 21.936 5 4
      vertex 23.128 6.82199 4
    endloop
  endfacet
  facet normal 0 -0 1
    outer loop
      vertex 24.408 5 4
      vertex 25.1436 14.5024 4
      vertex 24.1255 10.8164 4
    endloop
  endfacet
  facet normal 0 0 1
    outer loop
      vertex 24.408 5 4
      vertex 24.1255 10.8164 4
      vertex 23.704 9.23799 4
    endloop
  endfacet
  facet normal 0 0 1
    outer loop
      vertex 24.408 5 4
      vertex 23.704 9.23799 4
      vertex 23.226 7.202 4
    endloop
  endfacet
  facet normal 0 0 1
    outer loop
      vertex 24.408 5 4
      vertex 23.128 6.82199 4
      vertex 21.936 5 4
    endloop
  endfacet
  facet normal 0 0 1
    outer loop
      vertex 24.408 5 4
      vertex 23.226 7.202 4
      vertex 23.128 6.82199 4
    endloop
  endfacet
  facet normal 0 0 1
    outer loop
      vertex 21.936 5 4
      vertex 22.8671 7.98021 4
      vertex 22.5484 9.29755 4
    endloop
  endfacet
  facet normal 0 0 1
    outer loop
      vertex 21.936 5 4
      vertex 22.5484 9.29755 4
      vertex 22.172 10.774 4
    endloop
  endfacet
  facet normal 0 -0 1
    outer loop
      vertex 21.936 5 4
      vertex 22.172 10.774 4
      vertex 19.284 14.718 4
    endloop
  endfacet
  facet normal -0 0 1
    outer loop
      vertex 17.525 20.296 4
      vertex 18.523 17.986 4
      vertex 19.509 20.296 4
    endloop
  endfacet
  facet normal 0 0 1
    outer loop
      vertex 22.172 10.774 4
      vertex 19.0834 15.4864 4
      vertex 19.284 14.718 4
    endloop
  endfacet
  facet normal 0 0 1
    outer loop
      vertex 22.172 10.774 4
      vertex 19.509 20.296 4
      vertex 19.0834 15.4864 4
    endloop
  endfacet
  facet normal 0 -0 1
    outer loop
      vertex 19.0834 15.4864 4
      vertex 19.509 20.296 4
      vertex 18.8298 16.5758 4
    endloop
  endfacet
  facet normal -0 0 1
    outer loop
      vertex 14.511 9.42699 4
      vertex 14.292 8.51044 4
      vertex 16.6397 10.6679 4
    endloop
  endfacet
  facet normal -0 0 1
    outer loop
      vertex 14.292 8.51044 4
      vertex 15.079 5 4
      vertex 16.6397 10.6679 4
    endloop
  endfacet
  facet normal -0 0 1
    outer loop
      vertex 14.091 7.64211 4
      vertex 15.079 5 4
      vertex 14.292 8.51044 4
    endloop
  endfacet
  facet normal -0 0 1
    outer loop
      vertex 13.908 6.82199 4
      vertex 15.079 5 4
      vertex 14.091 7.64211 4
    endloop
  endfacet
  facet normal 0 0 1
    outer loop
      vertex 12.607 5 4
      vertex 15.079 5 4
      vertex 13.908 6.82199 4
    endloop
  endfacet
  facet normal 0 -0 1
    outer loop
      vertex 12.607 5 4
      vertex 13.006 10.579 4
      vertex 8.09799 20.296 4
    endloop
  endfacet
  facet normal 0 0 1
    outer loop
      vertex 13.3235 9.35088 4
      vertex 13.006 10.579 4
      vertex 12.607 5 4
    endloop
  endfacet
  facet normal 0 0 1
    outer loop
      vertex 10.256 20.296 4
      vertex 8.09799 20.296 4
      vertex 13.006 10.579 4
    endloop
  endfacet
  facet normal 0 0 1
    outer loop
      vertex 13.3235 9.35088 4
      vertex 12.607 5 4
      vertex 13.6242 8.09854 4
    endloop
  endfacet
  facet normal 0 0 1
    outer loop
      vertex 12.607 5 4
      vertex 13.908 6.82199 4
      vertex 13.6242 8.09854 4
    endloop
  endfacet
  facet normal 0.122833 -0.992427 0
    outer loop
      vertex 48.2556 0.882233 2
      vertex 47.612 0.802567 4
      vertex 47.612 0.802567 2
    endloop
  endfacet
  facet normal 0.122833 -0.992427 0
    outer loop
      vertex 48.2556 0.882233 2
      vertex 48.2556 0.882233 4
      vertex 47.612 0.802567 4
    endloop
  endfacet
  facet normal 0.196372 -0.980529 0
    outer loop
      vertex 48.9186 1.01501 2
      vertex 48.2556 0.882233 4
      vertex 48.2556 0.882233 2
    endloop
  endfacet
  facet normal 0.196372 -0.980529 0
    outer loop
      vertex 48.9186 1.01501 2
      vertex 48.9186 1.01501 4
      vertex 48.2556 0.882233 4
    endloop
  endfacet
  facet normal 1 0 0
    outer loop
      vertex 48.9186 2.468 2
      vertex 48.9186 1.01501 4
      vertex 48.9186 1.01501 2
    endloop
  endfacet
  facet normal 1 0 -0
    outer loop
      vertex 48.9186 2.468 2
      vertex 48.9186 2.468 4
      vertex 48.9186 1.01501 4
    endloop
  endfacet
  facet normal -0.180006 0.983666 0
    outer loop
      vertex 48.4906 2.38968 2
      vertex 48.9186 2.468 4
      vertex 48.9186 2.468 2
    endloop
  endfacet
  facet normal -0.180006 0.983666 0
    outer loop
      vertex 48.4906 2.38968 2
      vertex 48.4906 2.38968 4
      vertex 48.9186 2.468 4
    endloop
  endfacet
  facet normal -0.11226 0.993679 0
    outer loop
      vertex 48.0746 2.34268 2
      vertex 48.4906 2.38968 4
      vertex 48.4906 2.38968 2
    endloop
  endfacet
  facet normal -0.11226 0.993679 0
    outer loop
      vertex 48.0746 2.34268 2
      vertex 48.0746 2.34268 4
      vertex 48.4906 2.38968 4
    endloop
  endfacet
  facet normal -0.0387607 0.999249 0
    outer loop
      vertex 47.6706 2.32701 2
      vertex 48.0746 2.34268 4
      vertex 48.0746 2.34268 2
    endloop
  endfacet
  facet normal -0.0387607 0.999249 0
    outer loop
      vertex 47.6706 2.32701 2
      vertex 47.6706 2.32701 4
      vertex 48.0746 2.34268 4
    endloop
  endfacet
  facet normal 0.0971095 0.995274 0
    outer loop
      vertex 46.976 2.39479 2
      vertex 47.6706 2.32701 4
      vertex 47.6706 2.32701 2
    endloop
  endfacet
  facet normal 0.0971095 0.995274 -0
    outer loop
      vertex 46.976 2.39479 2
      vertex 46.976 2.39479 4
      vertex 47.6706 2.32701 4
    endloop
  endfacet
  facet normal 0.316527 0.948583 0
    outer loop
      vertex 46.3666 2.59811 2
      vertex 46.976 2.39479 4
      vertex 46.976 2.39479 2
    endloop
  endfacet
  facet normal 0.316527 0.948583 -0
    outer loop
      vertex 46.3666 2.59811 2
      vertex 46.3666 2.59811 4
      vertex 46.976 2.39479 4
    endloop
  endfacet
  facet normal 0.543068 0.839689 0
    outer loop
      vertex 45.8426 2.93701 2
      vertex 46.3666 2.59811 4
      vertex 46.3666 2.59811 2
    endloop
  endfacet
  facet normal 0.543068 0.839689 -0
    outer loop
      vertex 45.8426 2.93701 2
      vertex 45.8426 2.93701 4
      vertex 46.3666 2.59811 4
    endloop
  endfacet
  facet normal 0.736987 0.675907 0
    outer loop
      vertex 45.3926 3.42767 2
      vertex 45.8426 2.93701 4
      vertex 45.8426 2.93701 2
    endloop
  endfacet
  facet normal 0.736987 0.675907 -0
    outer loop
      vertex 45.3926 3.42767 2
      vertex 45.3926 3.42767 4
      vertex 45.8426 2.93701 4
    endloop
  endfacet
  facet normal 0.861686 0.507441 0
    outer loop
      vertex 45.004 4.08768 2
      vertex 45.3926 3.42767 4
      vertex 45.3926 3.42767 2
    endloop
  endfacet
  facet normal 0.861686 0.507441 -0
    outer loop
      vertex 45.004 4.08768 2
      vertex 45.004 4.08768 4
      vertex 45.3926 3.42767 4
    endloop
  endfacet
  facet normal 0.930169 0.367132 0
    outer loop
      vertex 44.6766 4.91701 2
      vertex 45.004 4.08768 4
      vertex 45.004 4.08768 2
    endloop
  endfacet
  facet normal 0.930169 0.367132 -0
    outer loop
      vertex 44.6766 4.91701 2
      vertex 44.6766 4.91701 4
      vertex 45.004 4.08768 4
    endloop
  endfacet
  facet normal 0.239863 -0.970807 0
    outer loop
      vertex 46.4669 5.35933 2
      vertex 44.6766 4.91701 4
      vertex 44.6766 4.91701 2
    endloop
  endfacet
  facet normal 0.239863 -0.970807 0
    outer loop
      vertex 46.4669 5.35933 2
      vertex 46.4669 5.35933 4
      vertex 44.6766 4.91701 4
    endloop
  endfacet
  facet normal 0.477857 -0.878437 0
    outer loop
      vertex 47.9749 6.17966 2
      vertex 46.4669 5.35933 4
      vertex 46.4669 5.35933 2
    endloop
  endfacet
  facet normal 0.477857 -0.878437 0
    outer loop
      vertex 47.9749 6.17966 2
      vertex 47.9749 6.17966 4
      vertex 46.4669 5.35933 4
    endloop
  endfacet
  facet normal 0.699055 -0.715068 0
    outer loop
      vertex 49.2006 7.37799 2
      vertex 47.9749 6.17966 4
      vertex 47.9749 6.17966 2
    endloop
  endfacet
  facet normal 0.699055 -0.715068 0
    outer loop
      vertex 49.2006 7.37799 2
      vertex 49.2006 7.37799 4
      vertex 47.9749 6.17966 4
    endloop
  endfacet
  facet normal 0.858885 -0.512168 0
    outer loop
      vertex 50.1045 8.89377 2
      vertex 49.2006 7.37799 4
      vertex 49.2006 7.37799 2
    endloop
  endfacet
  facet normal 0.858885 -0.512168 0
    outer loop
      vertex 50.1045 8.89377 2
      vertex 50.1045 8.89377 4
      vertex 49.2006 7.37799 4
    endloop
  endfacet
  facet normal 0.956185 -0.292763 0
    outer loop
      vertex 50.6469 10.6651 2
      vertex 50.1045 8.89377 4
      vertex 50.1045 8.89377 2
    endloop
  endfacet
  facet normal 0.956185 -0.292763 0
    outer loop
      vertex 50.6469 10.6651 2
      vertex 50.6469 10.6651 4
      vertex 50.1045 8.89377 4
    endloop
  endfacet
  facet normal 0.996046 -0.0888339 0
    outer loop
      vertex 50.8276 12.692 2
      vertex 50.6469 10.6651 4
      vertex 50.6469 10.6651 2
    endloop
  endfacet
  facet normal 0.996046 -0.0888339 0
    outer loop
      vertex 50.8276 12.692 2
      vertex 50.8276 12.692 4
      vertex 50.6469 10.6651 4
    endloop
  endfacet
  facet normal 0.997853 0.0654982 0
    outer loop
      vertex 50.727 14.2256 2
      vertex 50.8276 12.692 4
      vertex 50.8276 12.692 2
    endloop
  endfacet
  facet normal 0.997853 0.0654982 -0
    outer loop
      vertex 50.727 14.2256 2
      vertex 50.727 14.2256 4
      vertex 50.8276 12.692 4
    endloop
  endfacet
  facet normal 0.977243 0.212121 0
    outer loop
      vertex 50.425 15.6169 2
      vertex 50.727 14.2256 4
      vertex 50.727 14.2256 2
    endloop
  endfacet
  facet normal 0.977243 0.212121 -0
    outer loop
      vertex 50.425 15.6169 2
      vertex 50.425 15.6169 4
      vertex 50.727 14.2256 4
    endloop
  endfacet
  facet normal 0.927527 0.373755 0
    outer loop
      vertex 49.9216 16.866 2
      vertex 50.425 15.6169 4
      vertex 50.425 15.6169 2
    endloop
  endfacet
  facet normal 0.927527 0.373755 -0
    outer loop
      vertex 49.9216 16.866 2
      vertex 49.9216 16.866 4
      vertex 50.425 15.6169 4
    endloop
  endfacet
  facet normal 0.842543 0.53863 0
    outer loop
      vertex 49.2279 17.9512 2
      vertex 49.9216 16.866 4
      vertex 49.9216 16.866 2
    endloop
  endfacet
  facet normal 0.842543 0.53863 -0
    outer loop
      vertex 49.2279 17.9512 2
      vertex 49.2279 17.9512 4
      vertex 49.9216 16.866 4
    endloop
  endfacet
  facet normal 0.717011 0.697062 0
    outer loop
      vertex 48.3545 18.8495 2
      vertex 49.2279 17.9512 4
      vertex 49.2279 17.9512 2
    endloop
  endfacet
  facet normal 0.717011 0.697062 -0
    outer loop
      vertex 48.3545 18.8495 2
      vertex 48.3545 18.8495 4
      vertex 49.2279 17.9512 4
    endloop
  endfacet
  facet normal 0.559874 0.828578 0
    outer loop
      vertex 47.3016 19.561 2
      vertex 48.3545 18.8495 4
      vertex 48.3545 18.8495 2
    endloop
  endfacet
  facet normal 0.559874 0.828578 -0
    outer loop
      vertex 47.3016 19.561 2
      vertex 47.3016 19.561 4
      vertex 48.3545 18.8495 4
    endloop
  endfacet
  facet normal 0.391379 0.92023 0
    outer loop
      vertex 46.0907 20.076 2
      vertex 47.3016 19.561 4
      vertex 47.3016 19.561 2
    endloop
  endfacet
  facet normal 0.391379 0.92023 -0
    outer loop
      vertex 46.0907 20.076 2
      vertex 46.0907 20.076 4
      vertex 47.3016 19.561 4
    endloop
  endfacet
  facet normal 0.223333 0.974742 0
    outer loop
      vertex 44.7421 20.385 2
      vertex 46.0907 20.076 4
      vertex 46.0907 20.076 2
    endloop
  endfacet
  facet normal 0.223333 0.974742 -0
    outer loop
      vertex 44.7421 20.385 2
      vertex 44.7421 20.385 4
      vertex 46.0907 20.076 4
    endloop
  endfacet
  facet normal 0.0691247 0.997608 0
    outer loop
      vertex 43.2556 20.488 2
      vertex 44.7421 20.385 4
      vertex 44.7421 20.385 2
    endloop
  endfacet
  facet normal 0.0691247 0.997608 -0
    outer loop
      vertex 43.2556 20.488 2
      vertex 43.2556 20.488 4
      vertex 44.7421 20.385 4
    endloop
  endfacet
  facet normal -0.103253 0.994655 0
    outer loop
      vertex 41.0443 20.2584 2
      vertex 43.2556 20.488 4
      vertex 43.2556 20.488 2
    endloop
  endfacet
  facet normal -0.103253 0.994655 0
    outer loop
      vertex 41.0443 20.2584 2
      vertex 41.0443 20.2584 4
      vertex 43.2556 20.488 4
    endloop
  endfacet
  facet normal -0.346892 0.937905 0
    outer loop
      vertex 39.1823 19.5698 2
      vertex 41.0443 20.2584 4
      vertex 41.0443 20.2584 2
    endloop
  endfacet
  facet normal -0.346892 0.937905 0
    outer loop
      vertex 39.1823 19.5698 2
      vertex 39.1823 19.5698 4
      vertex 41.0443 20.2584 4
    endloop
  endfacet
  facet normal -0.604462 0.796634 0
    outer loop
      vertex 37.6696 18.422 2
      vertex 39.1823 19.5698 4
      vertex 39.1823 19.5698 2
    endloop
  endfacet
  facet normal -0.604462 0.796634 0
    outer loop
      vertex 37.6696 18.422 2
      vertex 37.6696 18.422 4
      vertex 39.1823 19.5698 4
    endloop
  endfacet
  facet normal -0.812598 0.582825 0
    outer loop
      vertex 36.5546 16.8674 2
      vertex 37.6696 18.422 4
      vertex 37.6696 18.422 2
    endloop
  endfacet
  facet normal -0.812598 0.582825 0
    outer loop
      vertex 36.5546 16.8674 2
      vertex 36.5546 16.8674 4
      vertex 37.6696 18.422 4
    endloop
  endfacet
  facet normal -0.943798 0.330523 0
    outer loop
      vertex 35.8856 14.9571 2
      vertex 36.5546 16.8674 4
      vertex 36.5546 16.8674 2
    endloop
  endfacet
  facet normal -0.943798 0.330523 0
    outer loop
      vertex 35.8856 14.9571 2
      vertex 35.8856 14.9571 4
      vertex 36.5546 16.8674 4
    endloop
  endfacet
  facet normal -0.995193 0.0979298 0
    outer loop
      vertex 35.6626 12.691 2
      vertex 35.8856 14.9571 4
      vertex 35.8856 14.9571 2
    endloop
  endfacet
  facet normal -0.995193 0.0979298 0
    outer loop
      vertex 35.6626 12.691 2
      vertex 35.6626 12.691 4
      vertex 35.8856 14.9571 4
    endloop
  endfacet
  facet normal -0.998109 -0.0614682 0
    outer loop
      vertex 35.7536 11.2135 2
      vertex 35.6626 12.691 4
      vertex 35.6626 12.691 2
    endloop
  endfacet
  facet normal -0.998109 -0.0614682 0
    outer loop
      vertex 35.7536 11.2135 2
      vertex 35.7536 11.2135 4
      vertex 35.6626 12.691 4
    endloop
  endfacet
  facet normal -0.980262 -0.197701 0
    outer loop
      vertex 36.0266 9.85988 2
      vertex 35.7536 11.2135 4
      vertex 35.7536 11.2135 2
    endloop
  endfacet
  facet normal -0.980262 -0.197701 0
    outer loop
      vertex 36.0266 9.85988 2
      vertex 36.0266 9.85988 4
      vertex 35.7536 11.2135 4
    endloop
  endfacet
  facet normal -0.937876 -0.346971 0
    outer loop
      vertex 36.4816 8.62999 2
      vertex 36.0266 9.85988 4
      vertex 36.0266 9.85988 2
    endloop
  endfacet
  facet normal -0.937876 -0.346971 0
    outer loop
      vertex 36.4816 8.62999 2
      vertex 36.4816 8.62999 4
      vertex 36.0266 9.85988 4
    endloop
  endfacet
  facet normal -0.864894 -0.501954 0
    outer loop
      vertex 37.1095 7.54811 2
      vertex 36.4816 8.62999 4
      vertex 36.4816 8.62999 2
    endloop
  endfacet
  facet normal -0.864894 -0.501954 0
    outer loop
      vertex 37.1095 7.54811 2
      vertex 37.1095 7.54811 4
      vertex 36.4816 8.62999 4
    endloop
  endfacet
  facet normal -0.754815 -0.655937 0
    outer loop
      vertex 37.9012 6.6371 2
      vertex 37.1095 7.54811 4
      vertex 37.1095 7.54811 2
    endloop
  endfacet
  facet normal -0.754815 -0.655937 0
    outer loop
      vertex 37.9012 6.6371 2
      vertex 37.9012 6.6371 4
      vertex 37.1095 7.54811 4
    endloop
  endfacet
  facet normal -0.612387 -0.790558 0
    outer loop
      vertex 38.8566 5.89699 2
      vertex 37.9012 6.6371 4
      vertex 37.9012 6.6371 2
    endloop
  endfacet
  facet normal -0.612387 -0.790558 0
    outer loop
      vertex 38.8566 5.89699 2
      vertex 38.8566 5.89699 4
      vertex 37.9012 6.6371 4
    endloop
  endfacet
  facet normal -0.450553 -0.89275 0
    outer loop
      vertex 39.9603 5.34 2
      vertex 38.8566 5.89699 4
      vertex 38.8566 5.89699 2
    endloop
  endfacet
  facet normal -0.450553 -0.89275 0
    outer loop
      vertex 39.9603 5.34 2
      vertex 39.9603 5.34 4
      vertex 38.8566 5.89699 4
    endloop
  endfacet
  facet normal -0.281992 -0.959417 0
    outer loop
      vertex 41.1953 4.97701 2
      vertex 39.9603 5.34 4
      vertex 39.9603 5.34 2
    endloop
  endfacet
  facet normal -0.281992 -0.959417 0
    outer loop
      vertex 41.1953 4.97701 2
      vertex 41.1953 4.97701 4
      vertex 39.9603 5.34 4
    endloop
  endfacet
  facet normal -0.122747 -0.992438 0
    outer loop
      vertex 42.5616 4.80801 2
      vertex 41.1953 4.97701 4
      vertex 41.1953 4.97701 2
    endloop
  endfacet
  facet normal -0.122747 -0.992438 0
    outer loop
      vertex 42.5616 4.80801 2
      vertex 42.5616 4.80801 4
      vertex 41.1953 4.97701 4
    endloop
  endfacet
  facet normal -0.936398 -0.350939 0
    outer loop
      vertex 43.053 3.49701 2
      vertex 42.5616 4.80801 4
      vertex 42.5616 4.80801 2
    endloop
  endfacet
  facet normal -0.936398 -0.350939 0
    outer loop
      vertex 43.053 3.49701 2
      vertex 43.053 3.49701 4
      vertex 42.5616 4.80801 4
    endloop
  endfacet
  facet normal -0.873423 -0.486963 0
    outer loop
      vertex 43.6296 2.46268 2
      vertex 43.053 3.49701 4
      vertex 43.053 3.49701 2
    endloop
  endfacet
  facet normal -0.873423 -0.486963 0
    outer loop
      vertex 43.6296 2.46268 2
      vertex 43.6296 2.46268 4
      vertex 43.053 3.49701 4
    endloop
  endfacet
  facet normal -0.753051 -0.657962 0
    outer loop
      vertex 44.2916 1.705 2
      vertex 43.6296 2.46268 4
      vertex 43.6296 2.46268 2
    endloop
  endfacet
  facet normal -0.753051 -0.657962 0
    outer loop
      vertex 44.2916 1.705 2
      vertex 44.2916 1.705 4
      vertex 43.6296 2.46268 4
    endloop
  endfacet
  facet normal -0.556875 -0.830596 0
    outer loop
      vertex 45.0614 1.1889 2
      vertex 44.2916 1.705 4
      vertex 44.2916 1.705 2
    endloop
  endfacet
  facet normal -0.556875 -0.830596 0
    outer loop
      vertex 45.0614 1.1889 2
      vertex 45.0614 1.1889 4
      vertex 44.2916 1.705 4
    endloop
  endfacet
  facet normal -0.325795 -0.94544 0
    outer loop
      vertex 45.9601 0.879227 2
      vertex 45.0614 1.1889 4
      vertex 45.0614 1.1889 2
    endloop
  endfacet
  facet normal -0.325795 -0.94544 0
    outer loop
      vertex 45.9601 0.879227 2
      vertex 45.9601 0.879227 4
      vertex 45.0614 1.1889 4
    endloop
  endfacet
  facet normal -0.0999543 -0.994992 0
    outer loop
      vertex 46.9876 0.776001 2
      vertex 45.9601 0.879227 4
      vertex 45.9601 0.879227 2
    endloop
  endfacet
  facet normal -0.0999543 -0.994992 0
    outer loop
      vertex 46.9876 0.776001 2
      vertex 46.9876 0.776001 4
      vertex 45.9601 0.879227 4
    endloop
  endfacet
  facet normal 0.0425121 -0.999096 0
    outer loop
      vertex 47.612 0.802567 2
      vertex 46.9876 0.776001 4
      vertex 46.9876 0.776001 2
    endloop
  endfacet
  facet normal 0.0425121 -0.999096 0
    outer loop
      vertex 47.612 0.802567 2
      vertex 47.612 0.802567 4
      vertex 46.9876 0.776001 4
    endloop
  endfacet
  facet normal 0.38676 0.922181 -0
    outer loop
      vertex 40.3053 7.19432 2
      vertex 40.3053 7.19432 4
      vertex 41.6453 6.63232 2
    endloop
  endfacet
  facet normal 0.38676 0.922181 0
    outer loop
      vertex 41.6453 6.63232 4
      vertex 41.6453 6.63232 2
      vertex 40.3053 7.19432 4
    endloop
  endfacet
  facet normal 0.65152 0.758631 -0
    outer loop
      vertex 39.2146 8.131 2
      vertex 39.2146 8.131 4
      vertex 40.3053 7.19432 2
    endloop
  endfacet
  facet normal 0.65152 0.758631 0
    outer loop
      vertex 40.3053 7.19432 4
      vertex 40.3053 7.19432 2
      vertex 39.2146 8.131 4
    endloop
  endfacet
  facet normal 0.842087 0.539342 -0
    outer loop
      vertex 38.4102 9.38699 2
      vertex 38.4102 9.38699 4
      vertex 39.2146 8.131 2
    endloop
  endfacet
  facet normal 0.842087 0.539342 0
    outer loop
      vertex 39.2146 8.131 4
      vertex 39.2146 8.131 2
      vertex 38.4102 9.38699 4
    endloop
  endfacet
  facet normal 0.953102 0.30265 -0
    outer loop
      vertex 37.9275 10.907 2
      vertex 37.9275 10.907 4
      vertex 38.4102 9.38699 2
    endloop
  endfacet
  facet normal 0.953102 0.30265 0
    outer loop
      vertex 38.4102 9.38699 4
      vertex 38.4102 9.38699 2
      vertex 37.9275 10.907 4
    endloop
  endfacet
  facet normal 0.995958 0.0898199 -0
    outer loop
      vertex 37.7666 12.691 2
      vertex 37.7666 12.691 4
      vertex 37.9275 10.907 2
    endloop
  endfacet
  facet normal 0.995958 0.0898199 0
    outer loop
      vertex 37.9275 10.907 4
      vertex 37.9275 10.907 2
      vertex 37.7666 12.691 4
    endloop
  endfacet
  facet normal 0.996058 -0.0887078 0
    outer loop
      vertex 37.9258 14.4777 2
      vertex 37.9258 14.4777 4
      vertex 37.7666 12.691 2
    endloop
  endfacet
  facet normal 0.996058 -0.0887078 0
    outer loop
      vertex 37.7666 12.691 4
      vertex 37.7666 12.691 2
      vertex 37.9258 14.4777 4
    endloop
  endfacet
  facet normal 0.952916 -0.303234 0
    outer loop
      vertex 38.4031 15.9777 2
      vertex 38.4031 15.9777 4
      vertex 37.9258 14.4777 2
    endloop
  endfacet
  facet normal 0.952916 -0.303234 0
    outer loop
      vertex 37.9258 14.4777 4
      vertex 37.9258 14.4777 2
      vertex 38.4031 15.9777 4
    endloop
  endfacet
  facet normal 0.836265 -0.548325 0
    outer loop
      vertex 39.1986 17.191 2
      vertex 39.1986 17.191 4
      vertex 38.4031 15.9777 2
    endloop
  endfacet
  facet normal 0.836265 -0.548325 0
    outer loop
      vertex 38.4031 15.9777 4
      vertex 38.4031 15.9777 2
      vertex 39.1986 17.191 4
    endloop
  endfacet
  facet normal 0.634103 -0.773249 0
    outer loop
      vertex 40.286 18.0827 2
      vertex 40.286 18.0827 4
      vertex 39.1986 17.191 2
    endloop
  endfacet
  facet normal 0.634103 -0.773249 0
    outer loop
      vertex 39.1986 17.191 4
      vertex 39.1986 17.191 2
      vertex 40.286 18.0827 4
    endloop
  endfacet
  facet normal 0.367792 -0.929908 0
    outer loop
      vertex 41.6386 18.6177 2
      vertex 41.6386 18.6177 4
      vertex 40.286 18.0827 2
    endloop
  endfacet
  facet normal 0.367792 -0.929908 0
    outer loop
      vertex 40.286 18.0827 4
      vertex 40.286 18.0827 2
      vertex 41.6386 18.6177 4
    endloop
  endfacet
  facet normal 0.109553 -0.993981 0
    outer loop
      vertex 43.2566 18.796 2
      vertex 43.2566 18.796 4
      vertex 41.6386 18.6177 2
    endloop
  endfacet
  facet normal 0.109553 -0.993981 0
    outer loop
      vertex 41.6386 18.6177 4
      vertex 41.6386 18.6177 2
      vertex 43.2566 18.796 4
    endloop
  endfacet
  facet normal -0.111914 -0.993718 0
    outer loop
      vertex 44.8618 18.6152 2
      vertex 44.8618 18.6152 4
      vertex 43.2566 18.796 2
    endloop
  endfacet
  facet normal -0.111914 -0.993718 -0
    outer loop
      vertex 43.2566 18.796 4
      vertex 43.2566 18.796 2
      vertex 44.8618 18.6152 4
    endloop
  endfacet
  facet normal -0.374372 -0.927278 0
    outer loop
      vertex 46.2051 18.0729 2
      vertex 46.2051 18.0729 4
      vertex 44.8618 18.6152 2
    endloop
  endfacet
  facet normal -0.374372 -0.927278 -0
    outer loop
      vertex 44.8618 18.6152 4
      vertex 44.8618 18.6152 2
      vertex 46.2051 18.0729 4
    endloop
  endfacet
  facet normal -0.641267 -0.767318 0
    outer loop
      vertex 47.2866 17.169 2
      vertex 47.2866 17.169 4
      vertex 46.2051 18.0729 2
    endloop
  endfacet
  facet normal -0.641267 -0.767318 -0
    outer loop
      vertex 46.2051 18.0729 4
      vertex 46.2051 18.0729 2
      vertex 47.2866 17.169 4
    endloop
  endfacet
  facet normal -0.838555 -0.544817 0
    outer loop
      vertex 48.0794 15.9488 2
      vertex 48.0794 15.9488 4
      vertex 47.2866 17.169 2
    endloop
  endfacet
  facet normal -0.838555 -0.544817 -0
    outer loop
      vertex 47.2866 17.169 4
      vertex 47.2866 17.169 2
      vertex 48.0794 15.9488 4
    endloop
  endfacet
  facet normal -0.952793 -0.303621 0
    outer loop
      vertex 48.5551 14.4561 2
      vertex 48.5551 14.4561 4
      vertex 48.0794 15.9488 2
    endloop
  endfacet
  facet normal -0.952793 -0.303621 -0
    outer loop
      vertex 48.0794 15.9488 4
      vertex 48.0794 15.9488 2
      vertex 48.5551 14.4561 4
    endloop
  endfacet
  facet normal -0.99599 -0.0894667 0
    outer loop
      vertex 48.7136 12.691 2
      vertex 48.7136 12.691 4
      vertex 48.5551 14.4561 2
    endloop
  endfacet
  facet normal -0.99599 -0.0894667 -0
    outer loop
      vertex 48.5551 14.4561 4
      vertex 48.5551 14.4561 2
      vertex 48.7136 12.691 4
    endloop
  endfacet
  facet normal -0.996356 0.0852885 0
    outer loop
      vertex 48.5563 10.853 2
      vertex 48.5563 10.853 4
      vertex 48.7136 12.691 2
    endloop
  endfacet
  facet normal -0.996356 0.0852885 0
    outer loop
      vertex 48.7136 12.691 4
      vertex 48.7136 12.691 2
      vertex 48.5563 10.853 4
    endloop
  endfacet
  facet normal -0.955994 0.293385 0
    outer loop
      vertex 48.0843 9.31499 2
      vertex 48.0843 9.31499 4
      vertex 48.5563 10.853 2
    endloop
  endfacet
  facet normal -0.955994 0.293385 0
    outer loop
      vertex 48.5563 10.853 4
      vertex 48.5563 10.853 2
      vertex 48.0843 9.31499 4
    endloop
  endfacet
  facet normal -0.844015 0.536319 0
    outer loop
      vertex 47.2976 8.077 2
      vertex 47.2976 8.077 4
      vertex 48.0843 9.31499 2
    endloop
  endfacet
  facet normal -0.844015 0.536319 0
    outer loop
      vertex 48.0843 9.31499 4
      vertex 48.0843 9.31499 2
      vertex 47.2976 8.077 4
    endloop
  endfacet
  facet normal -0.642702 0.766116 0
    outer loop
      vertex 46.2169 7.17032 2
      vertex 46.2169 7.17032 4
      vertex 47.2976 8.077 2
    endloop
  endfacet
  facet normal -0.642702 0.766116 0
    outer loop
      vertex 47.2976 8.077 4
      vertex 47.2976 8.077 2
      vertex 46.2169 7.17032 4
    endloop
  endfacet
  facet normal -0.372722 0.927943 0
    outer loop
      vertex 44.8625 6.62633 2
      vertex 44.8625 6.62633 4
      vertex 46.2169 7.17032 2
    endloop
  endfacet
  facet normal -0.372722 0.927943 0
    outer loop
      vertex 46.2169 7.17032 4
      vertex 46.2169 7.17032 2
      vertex 44.8625 6.62633 4
    endloop
  endfacet
  facet normal -0.110709 0.993853 0
    outer loop
      vertex 43.2346 6.44499 2
      vertex 43.2346 6.44499 4
      vertex 44.8625 6.62633 2
    endloop
  endfacet
  facet normal -0.110709 0.993853 0
    outer loop
      vertex 44.8625 6.62633 4
      vertex 44.8625 6.62633 2
      vertex 43.2346 6.44499 4
    endloop
  endfacet
  facet normal 0.117059 0.993125 -0
    outer loop
      vertex 41.6453 6.63232 2
      vertex 41.6453 6.63232 4
      vertex 43.2346 6.44499 2
    endloop
  endfacet
  facet normal 0.117059 0.993125 0
    outer loop
      vertex 43.2346 6.44499 4
      vertex 43.2346 6.44499 2
      vertex 41.6453 6.63232 4
    endloop
  endfacet
  facet normal 0.964787 -0.263033 0
    outer loop
      vertex 17.6283 14.2942 2
      vertex 16.6397 10.6679 4
      vertex 16.6397 10.6679 2
    endloop
  endfacet
  facet normal 0.964787 -0.263033 0
    outer loop
      vertex 17.6283 14.2942 2
      vertex 17.6283 14.2942 4
      vertex 16.6397 10.6679 4
    endloop
  endfacet
  facet normal 0.967131 -0.254279 0
    outer loop
      vertex 18.045 15.879 2
      vertex 17.6283 14.2942 4
      vertex 17.6283 14.2942 2
    endloop
  endfacet
  facet normal 0.967131 -0.254279 0
    outer loop
      vertex 18.045 15.879 2
      vertex 18.045 15.879 4
      vertex 17.6283 14.2942 4
    endloop
  endfacet
  facet normal 0.974946 -0.222442 0
    outer loop
      vertex 18.3445 17.1919 2
      vertex 18.045 15.879 4
      vertex 18.045 15.879 2
    endloop
  endfacet
  facet normal 0.974946 -0.222442 0
    outer loop
      vertex 18.3445 17.1919 2
      vertex 18.3445 17.1919 4
      vertex 18.045 15.879 4
    endloop
  endfacet
  facet normal 0.975669 -0.21925 0
    outer loop
      vertex 18.523 17.986 2
      vertex 18.3445 17.1919 4
      vertex 18.3445 17.1919 2
    endloop
  endfacet
  facet normal 0.975669 -0.21925 0
    outer loop
      vertex 18.523 17.986 2
      vertex 18.523 17.986 4
      vertex 18.3445 17.1919 4
    endloop
  endfacet
  facet normal -0.977146 -0.212568 0
    outer loop
      vertex 18.8298 16.5758 2
      vertex 18.523 17.986 4
      vertex 18.523 17.986 2
    endloop
  endfacet
  facet normal -0.977146 -0.212568 0
    outer loop
      vertex 18.8298 16.5758 2
      vertex 18.8298 16.5758 4
      vertex 18.523 17.986 4
    endloop
  endfacet
  facet normal -0.973943 -0.226791 0
    outer loop
      vertex 19.0834 15.4864 2
      vertex 18.8298 16.5758 4
      vertex 18.8298 16.5758 2
    endloop
  endfacet
  facet normal -0.973943 -0.226791 0
    outer loop
      vertex 19.0834 15.4864 2
      vertex 19.0834 15.4864 4
      vertex 18.8298 16.5758 4
    endloop
  endfacet
  facet normal -0.967587 -0.252536 0
    outer loop
      vertex 19.284 14.718 2
      vertex 19.0834 15.4864 4
      vertex 19.0834 15.4864 2
    endloop
  endfacet
  facet normal -0.967587 -0.252536 0
    outer loop
      vertex 19.284 14.718 2
      vertex 19.284 14.718 4
      vertex 19.0834 15.4864 4
    endloop
  endfacet
  facet normal -0.964723 -0.263268 0
    outer loop
      vertex 21.936 5 2
      vertex 19.284 14.718 4
      vertex 19.284 14.718 2
    endloop
  endfacet
  facet normal -0.964723 -0.263268 0
    outer loop
      vertex 21.936 5 2
      vertex 21.936 5 4
      vertex 19.284 14.718 4
    endloop
  endfacet
  facet normal 0 -1 0
    outer loop
      vertex 24.408 5 2
      vertex 21.936 5 4
      vertex 21.936 5 2
    endloop
  endfacet
  facet normal 0 -1 0
    outer loop
      vertex 24.408 5 2
      vertex 24.408 5 4
      vertex 21.936 5 4
    endloop
  endfacet
  facet normal 0.95921 -0.282696 0
    outer loop
      vertex 28.916 20.296 2
      vertex 24.408 5 4
      vertex 24.408 5 2
    endloop
  endfacet
  facet normal 0.95921 -0.282696 0
    outer loop
      vertex 28.916 20.296 2
      vertex 28.916 20.296 4
      vertex 24.408 5 4
    endloop
  endfacet
  facet normal 0 1 0
    outer loop
      vertex 26.758 20.296 2
      vertex 28.916 20.296 4
      vertex 28.916 20.296 2
    endloop
  endfacet
  facet normal 0 1 0
    outer loop
      vertex 26.758 20.296 2
      vertex 26.758 20.296 4
      vertex 28.916 20.296 4
    endloop
  endfacet
  facet normal -0.963298 0.268434 0
    outer loop
      vertex 25.1436 14.5024 2
      vertex 26.758 20.296 4
      vertex 26.758 20.296 2
    endloop
  endfacet
  facet normal -0.963298 0.268434 0
    outer loop
      vertex 25.1436 14.5024 2
      vertex 25.1436 14.5024 4
      vertex 26.758 20.296 4
    endloop
  endfacet
  facet normal -0.963914 0.266215 0
    outer loop
      vertex 24.1255 10.8164 2
      vertex 25.1436 14.5024 4
      vertex 25.1436 14.5024 2
    endloop
  endfacet
  facet normal -0.963914 0.266215 0
    outer loop
      vertex 24.1255 10.8164 2
      vertex 24.1255 10.8164 4
      vertex 25.1436 14.5024 4
    endloop
  endfacet
  facet normal -0.966138 0.258026 0
    outer loop
      vertex 23.704 9.23799 2
      vertex 24.1255 10.8164 4
      vertex 24.1255 10.8164 2
    endloop
  endfacet
  facet normal -0.966138 0.258026 0
    outer loop
      vertex 23.704 9.23799 2
      vertex 23.704 9.23799 4
      vertex 24.1255 10.8164 4
    endloop
  endfacet
  facet normal -0.97353 0.228559 0
    outer loop
      vertex 23.226 7.202 2
      vertex 23.704 9.23799 4
      vertex 23.704 9.23799 2
    endloop
  endfacet
  facet normal -0.97353 0.228559 0
    outer loop
      vertex 23.226 7.202 2
      vertex 23.226 7.202 4
      vertex 23.704 9.23799 4
    endloop
  endfacet
  facet normal -0.968313 0.249738 0
    outer loop
      vertex 23.128 6.82199 2
      vertex 23.226 7.202 4
      vertex 23.226 7.202 2
    endloop
  endfacet
  facet normal -0.968313 0.249738 0
    outer loop
      vertex 23.128 6.82199 2
      vertex 23.128 6.82199 4
      vertex 23.226 7.202 4
    endloop
  endfacet
  facet normal 0.975556 0.219749 0
    outer loop
      vertex 22.8671 7.98021 2
      vertex 23.128 6.82199 4
      vertex 23.128 6.82199 2
    endloop
  endfacet
  facet normal 0.975556 0.219749 -0
    outer loop
      vertex 22.8671 7.98021 2
      vertex 22.8671 7.98021 4
      vertex 23.128 6.82199 4
    endloop
  endfacet
  facet normal 0.971967 0.235119 0
    outer loop
      vertex 22.5484 9.29755 2
      vertex 22.8671 7.98021 4
      vertex 22.8671 7.98021 2
    endloop
  endfacet
  facet normal 0.971967 0.235119 -0
    outer loop
      vertex 22.5484 9.29755 2
      vertex 22.5484 9.29755 4
      vertex 22.8671 7.98021 4
    endloop
  endfacet
  facet normal 0.969001 0.247057 0
    outer loop
      vertex 22.172 10.774 2
      vertex 22.5484 9.29755 4
      vertex 22.5484 9.29755 2
    endloop
  endfacet
  facet normal 0.969001 0.247057 -0
    outer loop
      vertex 22.172 10.774 2
      vertex 22.172 10.774 4
      vertex 22.5484 9.29755 4
    endloop
  endfacet
  facet normal 0.963047 0.269334 0
    outer loop
      vertex 19.509 20.296 2
      vertex 22.172 10.774 4
      vertex 22.172 10.774 2
    endloop
  endfacet
  facet normal 0.963047 0.269334 -0
    outer loop
      vertex 19.509 20.296 2
      vertex 19.509 20.296 4
      vertex 22.172 10.774 4
    endloop
  endfacet
  facet normal 0 1 0
    outer loop
      vertex 17.525 20.296 2
      vertex 19.509 20.296 4
      vertex 19.509 20.296 2
    endloop
  endfacet
  facet normal 0 1 0
    outer loop
      vertex 17.525 20.296 2
      vertex 17.525 20.296 4
      vertex 19.509 20.296 4
    endloop
  endfacet
  facet normal -0.96262 0.270855 0
    outer loop
      vertex 16.0025 14.8852 2
      vertex 17.525 20.296 4
      vertex 17.525 20.296 2
    endloop
  endfacet
  facet normal -0.96262 0.270855 0
    outer loop
      vertex 16.0025 14.8852 2
      vertex 16.0025 14.8852 4
      vertex 17.525 20.296 4
    endloop
  endfacet
  facet normal -0.963636 0.267219 0
    outer loop
      vertex 14.9979 11.2622 2
      vertex 16.0025 14.8852 4
      vertex 16.0025 14.8852 2
    endloop
  endfacet
  facet normal -0.963636 0.267219 0
    outer loop
      vertex 14.9979 11.2622 2
      vertex 14.9979 11.2622 4
      vertex 16.0025 14.8852 4
    endloop
  endfacet
  facet normal -0.966562 0.256433 0
    outer loop
      vertex 14.511 9.42699 2
      vertex 14.9979 11.2622 4
      vertex 14.9979 11.2622 2
    endloop
  endfacet
  facet normal -0.966562 0.256433 0
    outer loop
      vertex 14.511 9.42699 2
      vertex 14.511 9.42699 4
      vertex 14.9979 11.2622 4
    endloop
  endfacet
  facet normal -0.972622 0.232392 0
    outer loop
      vertex 14.292 8.51044 2
      vertex 14.511 9.42699 4
      vertex 14.511 9.42699 2
    endloop
  endfacet
  facet normal -0.972622 0.232392 0
    outer loop
      vertex 14.292 8.51044 2
      vertex 14.292 8.51044 4
      vertex 14.511 9.42699 4
    endloop
  endfacet
  facet normal -0.974239 0.22552 0
    outer loop
      vertex 14.091 7.64211 2
      vertex 14.292 8.51044 4
      vertex 14.292 8.51044 2
    endloop
  endfacet
  facet normal -0.974239 0.22552 0
    outer loop
      vertex 14.091 7.64211 2
      vertex 14.091 7.64211 4
      vertex 14.292 8.51044 4
    endloop
  endfacet
  facet normal -0.975997 0.217782 0
    outer loop
      vertex 13.908 6.82199 2
      vertex 14.091 7.64211 4
      vertex 14.091 7.64211 2
    endloop
  endfacet
  facet normal -0.975997 0.217782 0
    outer loop
      vertex 13.908 6.82199 2
      vertex 13.908 6.82199 4
      vertex 14.091 7.64211 4
    endloop
  endfacet
  facet normal 0.976173 0.216996 0
    outer loop
      vertex 13.6242 8.09854 2
      vertex 13.908 6.82199 4
      vertex 13.908 6.82199 2
    endloop
  endfacet
  facet normal 0.976173 0.216996 -0
    outer loop
      vertex 13.6242 8.09854 2
      vertex 13.6242 8.09854 4
      vertex 13.908 6.82199 4
    endloop
  endfacet
  facet normal 0.972367 0.233457 0
    outer loop
      vertex 13.3235 9.35088 2
      vertex 13.6242 8.09854 4
      vertex 13.6242 8.09854 2
    endloop
  endfacet
  facet normal 0.972367 0.233457 -0
    outer loop
      vertex 13.3235 9.35088 2
      vertex 13.3235 9.35088 4
      vertex 13.6242 8.09854 4
    endloop
  endfacet
  facet normal 0.96816 0.250334 0
    outer loop
      vertex 13.006 10.579 2
      vertex 13.3235 9.35088 4
      vertex 13.3235 9.35088 2
    endloop
  endfacet
  facet normal 0.96816 0.250334 -0
    outer loop
      vertex 13.006 10.579 2
      vertex 13.006 10.579 4
      vertex 13.3235 9.35088 4
    endloop
  endfacet
  facet normal 0.962208 0.272314 0
    outer loop
      vertex 10.256 20.296 2
      vertex 13.006 10.579 4
      vertex 13.006 10.579 2
    endloop
  endfacet
  facet normal 0.962208 0.272314 -0
    outer loop
      vertex 10.256 20.296 2
      vertex 10.256 20.296 4
      vertex 13.006 10.579 4
    endloop
  endfacet
  facet normal 0 1 0
    outer loop
      vertex 8.09799 20.296 2
      vertex 10.256 20.296 4
      vertex 10.256 20.296 2
    endloop
  endfacet
  facet normal 0 1 0
    outer loop
      vertex 8.09799 20.296 2
      vertex 8.09799 20.296 4
      vertex 10.256 20.296 4
    endloop
  endfacet
  facet normal -0.959192 -0.282754 0
    outer loop
      vertex 12.607 5 2
      vertex 8.09799 20.296 4
      vertex 8.09799 20.296 2
    endloop
  endfacet
  facet normal -0.959192 -0.282754 0
    outer loop
      vertex 12.607 5 2
      vertex 12.607 5 4
      vertex 8.09799 20.296 4
    endloop
  endfacet
  facet normal 0 -1 0
    outer loop
      vertex 15.079 5 2
      vertex 12.607 5 4
      vertex 12.607 5 2
    endloop
  endfacet
  facet normal 0 -1 0
    outer loop
      vertex 15.079 5 2
      vertex 15.079 5 4
      vertex 12.607 5 4
    endloop
  endfacet
  facet normal 0.964118 -0.265473 0
    outer loop
      vertex 16.6397 10.6679 2
      vertex 15.079 5 4
      vertex 15.079 5 2
    endloop
  endfacet
  facet normal 0.964118 -0.265473 0
    outer loop
      vertex 16.6397 10.6679 2
      vertex 16.6397 10.6679 4
      vertex 15.079 5 4
    endloop
  endfacet
endsolid OpenSCAD_Model
