solid OpenSCAD_Model
  facet normal 0 -0 -1
    outer loop
      vertex 17.525 20.296 2
      vertex 18.3445 17.1919 2
      vertex 16.0025 14.8852 2
    endloop
  endfacet
  facet normal 0 0 -1
    outer loop
      vertex 18.3445 17.1919 2
      vertex 18.045 15.879 2
      vertex 16.0025 14.8852 2
    endloop
  endfacet
  facet normal -0 0 -1
    outer loop
      vertex 18.523 17.986 2
      vertex 18.3445 17.1919 2
      vertex 17.525 20.296 2
    endloop
  endfacet
  facet normal 0 0 -1
    outer loop
      vertex 16.0025 14.8852 2
      vertex 18.045 15.879 2
      vertex 17.6283 14.2942 2
    endloop
  endfacet
  facet normal 0 0 -1
    outer loop
      vertex 14.9979 11.2622 2
      vertex 16.0025 14.8852 2
      vertex 17.6283 14.2942 2
    endloop
  endfacet
  facet normal 0 0 -1
    outer loop
      vertex 25.1436 14.5024 2
      vertex 26.758 20.296 2
      vertex 28.916 20.296 2
    endloop
  endfacet
  facet normal 0 0 -1
    outer loop
      vertex 28.916 20.296 2
      vertex 24.408 5 2
      vertex 25.1436 14.5024 2
    endloop
  endfacet
  facet normal 0 0 -1
    outer loop
      vertex 18.523 17.986 2
      vertex 17.525 20.296 2
      vertex 19.509 20.296 2
    endloop
  endfacet
  facet normal 0 0 -1
    outer loop
      vertex 16.6397 10.6679 2
      vertex 14.9979 11.2622 2
      vertex 17.6283 14.2942 2
    endloop
  endfacet
  facet normal -0 0 -1
    outer loop
      vertex 16.6397 10.6679 2
      vertex 14.511 9.42699 2
      vertex 14.9979 11.2622 2
    endloop
  endfacet
  facet normal -0 0 -1
    outer loop
      vertex 23.128 6.82199 2
      vertex 21.936 5 2
      vertex 22.8671 7.98021 2
    endloop
  endfacet
  facet normal 0 0 -1
    outer loop
      vertex 24.1255 10.8164 2
      vertex 25.1436 14.5024 2
      vertex 24.408 5 2
    endloop
  endfacet
  facet normal 0 0 -1
    outer loop
      vertex 23.704 9.23799 2
      vertex 24.1255 10.8164 2
      vertex 24.408 5 2
    endloop
  endfacet
  facet normal 0 0 -1
    outer loop
      vertex 23.226 7.202 2
      vertex 23.704 9.23799 2
      vertex 24.408 5 2
    endloop
  endfacet
  facet normal 0 0 -1
    outer loop
      vertex 21.936 5 2
      vertex 23.128 6.82199 2
      vertex 24.408 5 2
    endloop
  endfacet
  facet normal 0 0 -1
    outer loop
      vertex 23.128 6.82199 2
      vertex 23.226 7.202 2
      vertex 24.408 5 2
    endloop
  endfacet
  facet normal 0 -0 -1
    outer loop
      vertex 22.5484 9.29755 2
      vertex 22.8671 7.98021 2
      vertex 21.936 5 2
    endloop
  endfacet
  facet normal 0 -0 -1
    outer loop
      vertex 22.172 10.774 2
      vertex 22.5484 9.29755 2
      vertex 21.936 5 2
    endloop
  endfacet
  facet normal 0 0 -1
    outer loop
      vertex 19.284 14.718 2
      vertex 22.172 10.774 2
      vertex 21.936 5 2
    endloop
  endfacet
  facet normal 0 0 -1
    outer loop
      vertex 19.509 20.296 2
      vertex 18.8298 16.5758 2
      vertex 18.523 17.986 2
    endloop
  endfacet
  facet normal 0 0 -1
    outer loop
      vertex 19.284 14.718 2
      vertex 19.0834 15.4864 2
      vertex 22.172 10.774 2
    endloop
  endfacet
  facet normal 0 0 -1
    outer loop
      vertex 19.0834 15.4864 2
      vertex 19.509 20.296 2
      vertex 22.172 10.774 2
    endloop
  endfacet
  facet normal 0 0 -1
    outer loop
      vertex 18.8298 16.5758 2
      vertex 19.509 20.296 2
      vertex 19.0834 15.4864 2
    endloop
  endfacet
  facet normal 0 0 -1
    outer loop
      vertex 16.6397 10.6679 2
      vertex 14.292 8.51044 2
      vertex 14.511 9.42699 2
    endloop
  endfacet
  facet normal 0 0 -1
    outer loop
      vertex 16.6397 10.6679 2
      vertex 15.079 5 2
      vertex 14.292 8.51044 2
    endloop
  endfacet
  facet normal 0 -0 -1
    outer loop
      vertex 14.292 8.51044 2
      vertex 15.079 5 2
      vertex 14.091 7.64211 2
    endloop
  endfacet
  facet normal 0 -0 -1
    outer loop
      vertex 14.091 7.64211 2
      vertex 15.079 5 2
      vertex 13.908 6.82199 2
    endloop
  endfacet
  facet normal 0 -0 -1
    outer loop
      vertex 13.908 6.82199 2
      vertex 15.079 5 2
      vertex 12.607 5 2
    endloop
  endfacet
  facet normal 0 0 -1
    outer loop
      vertex 8.09799 20.296 2
      vertex 13.006 10.579 2
      vertex 12.607 5 2
    endloop
  endfacet
  facet normal 0 0 -1
    outer loop
      vertex 12.607 5 2
      vertex 13.006 10.579 2
      vertex 13.3235 9.35088 2
    endloop
  endfacet
  facet normal 0 0 -1
    outer loop
      vertex 13.006 10.579 2
      vertex 8.09799 20.296 2
      vertex 10.256 20.296 2
    endloop
  endfacet
  facet normal -0 0 -1
    outer loop
      vertex 13.6242 8.09854 2
      vertex 12.607 5 2
      vertex 13.3235 9.35088 2
    endloop
  endfacet
  facet normal 0 -0 -1
    outer loop
      vertex 13.6242 8.09854 2
      vertex 13.908 6.82199 2
      vertex 12.607 5 2
    endloop
  endfacet
  facet normal -0 0 -1
    outer loop
      vertex 47.2941 12.3868 2
      vertex 46.3797 11.8988 2
      vertex 46.0556 13.764 2
    endloop
  endfacet
  facet normal -0 0 -1
    outer loop
      vertex 49.0346 15.927 2
      vertex 46.9526 15.905 2
      vertex 48.8783 17.1997 2
    endloop
  endfacet
  facet normal 0 0 -1
    outer loop
      vertex 49.6426 5 2
      vertex 47.2566 5 2
      vertex 45.2976 11.601 2
    endloop
  endfacet
  facet normal 0 -0 -1
    outer loop
      vertex 45.2976 11.601 2
      vertex 47.2566 5 2
      vertex 43.2806 11.363 2
    endloop
  endfacet
  facet normal 0 0 -1
    outer loop
      vertex 46.554 14.3414 2
      vertex 46.853 15.0551 2
      vertex 48.5929 13.8985 2
    endloop
  endfacet
  facet normal 0 0 -1
    outer loop
      vertex 46.9526 15.905 2
      vertex 46.8517 16.7238 2
      vertex 48.8783 17.1997 2
    endloop
  endfacet
  facet normal -0 0 -1
    outer loop
      vertex 46.5593 19.7827 2
      vertex 45.3511 18.3263 2
      vertex 45.229 20.1677 2
    endloop
  endfacet
  facet normal 0 -0 -1
    outer loop
      vertex 45.229 20.1677 2
      vertex 45.3511 18.3263 2
      vertex 44.4798 18.5593 2
    endloop
  endfacet
  facet normal 0 0 -1
    outer loop
      vertex 44.4798 18.5593 2
      vertex 43.6366 20.296 2
      vertex 45.229 20.1677 2
    endloop
  endfacet
  facet normal 0 0 -1
    outer loop
      vertex 46.0556 13.764 2
      vertex 46.554 14.3414 2
      vertex 48.0406 13.065 2
    endloop
  endfacet
  facet normal 0 -0 -1
    outer loop
      vertex 43.6366 20.296 2
      vertex 44.4798 18.5593 2
      vertex 43.4306 18.637 2
    endloop
  endfacet
  facet normal 0 0 -1
    outer loop
      vertex 36.4356 20.296 2
      vertex 43.6366 20.296 2
      vertex 38.5066 18.637 2
    endloop
  endfacet
  facet normal 0 0 -1
    outer loop
      vertex 43.2806 11.363 2
      vertex 38.5066 13 2
      vertex 43.5176 13 2
    endloop
  endfacet
  facet normal 0 0 -1
    outer loop
      vertex 43.2806 11.363 2
      vertex 38.5066 11.363 2
      vertex 38.5066 13 2
    endloop
  endfacet
  facet normal 0 0 -1
    outer loop
      vertex 43.2806 11.363 2
      vertex 44.529 13.0849 2
      vertex 45.2976 11.601 2
    endloop
  endfacet
  facet normal 0 0 -1
    outer loop
      vertex 38.5066 5 2
      vertex 36.4356 5 2
      vertex 38.5066 11.363 2
    endloop
  endfacet
  facet normal -0 0 -1
    outer loop
      vertex 38.5066 11.363 2
      vertex 36.4356 5 2
      vertex 38.5066 13 2
    endloop
  endfacet
  facet normal -0 0 -1
    outer loop
      vertex 38.5066 13 2
      vertex 36.4356 5 2
      vertex 36.4356 20.296 2
    endloop
  endfacet
  facet normal 0 0 -1
    outer loop
      vertex 36.4356 20.296 2
      vertex 38.5066 18.637 2
      vertex 38.5066 13 2
    endloop
  endfacet
  facet normal 0 0 -1
    outer loop
      vertex 43.4306 18.637 2
      vertex 38.5066 18.637 2
      vertex 43.6366 20.296 2
    endloop
  endfacet
  facet normal 0 0 -1
    outer loop
      vertex 46.5593 19.7827 2
      vertex 46.0446 17.938 2
      vertex 45.3511 18.3263 2
    endloop
  endfacet
  facet normal 0 0 -1
    outer loop
      vertex 46.0446 17.938 2
      vertex 47.6276 19.141 2
      vertex 46.5491 17.4014 2
    endloop
  endfacet
  facet normal 0 -0 -1
    outer loop
      vertex 46.5593 19.7827 2
      vertex 47.6276 19.141 2
      vertex 46.0446 17.938 2
    endloop
  endfacet
  facet normal 0 0 -1
    outer loop
      vertex 46.5491 17.4014 2
      vertex 48.4093 18.271 2
      vertex 46.8517 16.7238 2
    endloop
  endfacet
  facet normal 0 -0 -1
    outer loop
      vertex 47.6276 19.141 2
      vertex 48.4093 18.271 2
      vertex 46.5491 17.4014 2
    endloop
  endfacet
  facet normal 0 0 -1
    outer loop
      vertex 46.8517 16.7238 2
      vertex 48.4093 18.271 2
      vertex 48.8783 17.1997 2
    endloop
  endfacet
  facet normal 0 -0 -1
    outer loop
      vertex 46.9526 15.905 2
      vertex 48.9242 14.8526 2
      vertex 46.853 15.0551 2
    endloop
  endfacet
  facet normal 0 0 -1
    outer loop
      vertex 49.0346 15.927 2
      vertex 48.9242 14.8526 2
      vertex 46.9526 15.905 2
    endloop
  endfacet
  facet normal 0 0 -1
    outer loop
      vertex 46.853 15.0551 2
      vertex 48.9242 14.8526 2
      vertex 48.5929 13.8985 2
    endloop
  endfacet
  facet normal 0 0 -1
    outer loop
      vertex 46.554 14.3414 2
      vertex 48.5929 13.8985 2
      vertex 48.0406 13.065 2
    endloop
  endfacet
  facet normal -0 0 -1
    outer loop
      vertex 48.0406 13.065 2
      vertex 47.2941 12.3868 2
      vertex 46.0556 13.764 2
    endloop
  endfacet
  facet normal 0 -0 -1
    outer loop
      vertex 46.0556 13.764 2
      vertex 46.3797 11.8988 2
      vertex 45.375 13.3396 2
    endloop
  endfacet
  facet normal 0 -0 -1
    outer loop
      vertex 45.375 13.3396 2
      vertex 46.3797 11.8988 2
      vertex 45.2976 11.601 2
    endloop
  endfacet
  facet normal 0 -0 -1
    outer loop
      vertex 43.5176 13 2
      vertex 44.529 13.0849 2
      vertex 43.2806 11.363 2
    endloop
  endfacet
  facet normal 0 0 -1
    outer loop
      vertex 44.529 13.0849 2
      vertex 45.375 13.3396 2
      vertex 45.2976 11.601 2
    endloop
  endfacet
  facet normal 0 0 1
    outer loop
      vertex 16.0025 14.8852 4
      vertex 18.3445 17.1919 4
      vertex 17.525 20.296 4
    endloop
  endfacet
  facet normal 0 0 1
    outer loop
      vertex 16.0025 14.8852 4
      vertex 18.045 15.879 4
      vertex 18.3445 17.1919 4
    endloop
  endfacet
  facet normal 0 0 1
    outer loop
      vertex 17.525 20.296 4
      vertex 18.3445 17.1919 4
      vertex 18.523 17.986 4
    endloop
  endfacet
  facet normal 0 -0 1
    outer loop
      vertex 17.6283 14.2942 4
      vertex 18.045 15.879 4
      vertex 16.0025 14.8852 4
    endloop
  endfacet
  facet normal 0 0 1
    outer loop
      vertex 17.6283 14.2942 4
      vertex 16.0025 14.8852 4
      vertex 14.9979 11.2622 4
    endloop
  endfacet
  facet normal 0 0 1
    outer loop
      vertex 28.916 20.296 4
      vertex 26.758 20.296 4
      vertex 25.1436 14.5024 4
    endloop
  endfacet
  facet normal -0 0 1
    outer loop
      vertex 25.1436 14.5024 4
      vertex 24.408 5 4
      vertex 28.916 20.296 4
    endloop
  endfacet
  facet normal 0 0 1
    outer loop
      vertex 19.509 20.296 4
      vertex 17.525 20.296 4
      vertex 18.523 17.986 4
    endloop
  endfacet
  facet normal 0 0 1
    outer loop
      vertex 17.6283 14.2942 4
      vertex 14.9979 11.2622 4
      vertex 16.6397 10.6679 4
    endloop
  endfacet
  facet normal 0 0 1
    outer loop
      vertex 14.9979 11.2622 4
      vertex 14.511 9.42699 4
      vertex 16.6397 10.6679 4
    endloop
  endfacet
  facet normal 0 0 1
    outer loop
      vertex 22.8671 7.98021 4
      vertex 21.936 5 4
      vertex 23.128 6.82199 4
    endloop
  endfacet
  facet normal 0 -0 1
    outer loop
      vertex 24.408 5 4
      vertex 25.1436 14.5024 4
      vertex 24.1255 10.8164 4
    endloop
  endfacet
  facet normal 0 0 1
    outer loop
      vertex 24.408 5 4
      vertex 24.1255 10.8164 4
      vertex 23.704 9.23799 4
    endloop
  endfacet
  facet normal 0 0 1
    outer loop
      vertex 24.408 5 4
      vertex 23.704 9.23799 4
      vertex 23.226 7.202 4
    endloop
  endfacet
  facet normal 0 0 1
    outer loop
      vertex 24.408 5 4
      vertex 23.128 6.82199 4
      vertex 21.936 5 4
    endloop
  endfacet
  facet normal 0 0 1
    outer loop
      vertex 24.408 5 4
      vertex 23.226 7.202 4
      vertex 23.128 6.82199 4
    endloop
  endfacet
  facet normal 0 0 1
    outer loop
      vertex 21.936 5 4
      vertex 22.8671 7.98021 4
      vertex 22.5484 9.29755 4
    endloop
  endfacet
  facet normal 0 0 1
    outer loop
      vertex 21.936 5 4
      vertex 22.5484 9.29755 4
      vertex 22.172 10.774 4
    endloop
  endfacet
  facet normal 0 -0 1
    outer loop
      vertex 21.936 5 4
      vertex 22.172 10.774 4
      vertex 19.284 14.718 4
    endloop
  endfacet
  facet normal -0 0 1
    outer loop
      vertex 18.523 17.986 4
      vertex 18.8298 16.5758 4
      vertex 19.509 20.296 4
    endloop
  endfacet
  facet normal 0 0 1
    outer loop
      vertex 22.172 10.774 4
      vertex 19.0834 15.4864 4
      vertex 19.284 14.718 4
    endloop
  endfacet
  facet normal 0 0 1
    outer loop
      vertex 22.172 10.774 4
      vertex 19.509 20.296 4
      vertex 19.0834 15.4864 4
    endloop
  endfacet
  facet normal 0 -0 1
    outer loop
      vertex 19.0834 15.4864 4
      vertex 19.509 20.296 4
      vertex 18.8298 16.5758 4
    endloop
  endfacet
  facet normal -0 0 1
    outer loop
      vertex 14.511 9.42699 4
      vertex 14.292 8.51044 4
      vertex 16.6397 10.6679 4
    endloop
  endfacet
  facet normal -0 0 1
    outer loop
      vertex 14.292 8.51044 4
      vertex 15.079 5 4
      vertex 16.6397 10.6679 4
    endloop
  endfacet
  facet normal -0 0 1
    outer loop
      vertex 14.091 7.64211 4
      vertex 15.079 5 4
      vertex 14.292 8.51044 4
    endloop
  endfacet
  facet normal -0 0 1
    outer loop
      vertex 13.908 6.82199 4
      vertex 15.079 5 4
      vertex 14.091 7.64211 4
    endloop
  endfacet
  facet normal 0 0 1
    outer loop
      vertex 12.607 5 4
      vertex 15.079 5 4
      vertex 13.908 6.82199 4
    endloop
  endfacet
  facet normal 0 -0 1
    outer loop
      vertex 12.607 5 4
      vertex 13.006 10.579 4
      vertex 8.09799 20.296 4
    endloop
  endfacet
  facet normal 0 0 1
    outer loop
      vertex 13.3235 9.35088 4
      vertex 13.006 10.579 4
      vertex 12.607 5 4
    endloop
  endfacet
  facet normal 0 0 1
    outer loop
      vertex 10.256 20.296 4
      vertex 8.09799 20.296 4
      vertex 13.006 10.579 4
    endloop
  endfacet
  facet normal 0 0 1
    outer loop
      vertex 13.3235 9.35088 4
      vertex 12.607 5 4
      vertex 13.6242 8.09854 4
    endloop
  endfacet
  facet normal 0 0 1
    outer loop
      vertex 12.607 5 4
      vertex 13.908 6.82199 4
      vertex 13.6242 8.09854 4
    endloop
  endfacet
  facet normal 0 0 1
    outer loop
      vertex 46.0556 13.764 4
      vertex 46.3797 11.8988 4
      vertex 47.2941 12.3868 4
    endloop
  endfacet
  facet normal 0 0 1
    outer loop
      vertex 48.8783 17.1997 4
      vertex 46.9526 15.905 4
      vertex 49.0346 15.927 4
    endloop
  endfacet
  facet normal 0 0 1
    outer loop
      vertex 45.2976 11.601 4
      vertex 47.2566 5 4
      vertex 49.6426 5 4
    endloop
  endfacet
  facet normal -0 0 1
    outer loop
      vertex 43.2806 11.363 4
      vertex 47.2566 5 4
      vertex 45.2976 11.601 4
    endloop
  endfacet
  facet normal 0 0 1
    outer loop
      vertex 48.5929 13.8985 4
      vertex 46.853 15.0551 4
      vertex 46.554 14.3414 4
    endloop
  endfacet
  facet normal 0 0 1
    outer loop
      vertex 48.8783 17.1997 4
      vertex 46.8517 16.7238 4
      vertex 46.9526 15.905 4
    endloop
  endfacet
  facet normal 0 0 1
    outer loop
      vertex 45.229 20.1677 4
      vertex 45.3511 18.3263 4
      vertex 46.5593 19.7827 4
    endloop
  endfacet
  facet normal -0 0 1
    outer loop
      vertex 44.4798 18.5593 4
      vertex 45.3511 18.3263 4
      vertex 45.229 20.1677 4
    endloop
  endfacet
  facet normal 0 0 1
    outer loop
      vertex 45.229 20.1677 4
      vertex 43.6366 20.296 4
      vertex 44.4798 18.5593 4
    endloop
  endfacet
  facet normal 0 0 1
    outer loop
      vertex 48.0406 13.065 4
      vertex 46.554 14.3414 4
      vertex 46.0556 13.764 4
    endloop
  endfacet
  facet normal -0 0 1
    outer loop
      vertex 43.4306 18.637 4
      vertex 44.4798 18.5593 4
      vertex 43.6366 20.296 4
    endloop
  endfacet
  facet normal 0 -0 1
    outer loop
      vertex 38.5066 18.637 4
      vertex 43.6366 20.296 4
      vertex 36.4356 20.296 4
    endloop
  endfacet
  facet normal 0 0 1
    outer loop
      vertex 43.5176 13 4
      vertex 38.5066 13 4
      vertex 43.2806 11.363 4
    endloop
  endfacet
  facet normal 0 0 1
    outer loop
      vertex 38.5066 13 4
      vertex 38.5066 11.363 4
      vertex 43.2806 11.363 4
    endloop
  endfacet
  facet normal 0 0 1
    outer loop
      vertex 45.2976 11.601 4
      vertex 44.529 13.0849 4
      vertex 43.2806 11.363 4
    endloop
  endfacet
  facet normal 0 0 1
    outer loop
      vertex 38.5066 11.363 4
      vertex 36.4356 5 4
      vertex 38.5066 5 4
    endloop
  endfacet
  facet normal 0 0 1
    outer loop
      vertex 38.5066 13 4
      vertex 36.4356 5 4
      vertex 38.5066 11.363 4
    endloop
  endfacet
  facet normal 0 0 1
    outer loop
      vertex 36.4356 20.296 4
      vertex 36.4356 5 4
      vertex 38.5066 13 4
    endloop
  endfacet
  facet normal 0 -0 1
    outer loop
      vertex 38.5066 13 4
      vertex 38.5066 18.637 4
      vertex 36.4356 20.296 4
    endloop
  endfacet
  facet normal 0 0 1
    outer loop
      vertex 43.6366 20.296 4
      vertex 38.5066 18.637 4
      vertex 43.4306 18.637 4
    endloop
  endfacet
  facet normal -0 0 1
    outer loop
      vertex 45.3511 18.3263 4
      vertex 46.0446 17.938 4
      vertex 46.5593 19.7827 4
    endloop
  endfacet
  facet normal 0 -0 1
    outer loop
      vertex 46.5491 17.4014 4
      vertex 47.6276 19.141 4
      vertex 46.0446 17.938 4
    endloop
  endfacet
  facet normal 0 0 1
    outer loop
      vertex 46.0446 17.938 4
      vertex 47.6276 19.141 4
      vertex 46.5593 19.7827 4
    endloop
  endfacet
  facet normal 0 -0 1
    outer loop
      vertex 46.8517 16.7238 4
      vertex 48.4093 18.271 4
      vertex 46.5491 17.4014 4
    endloop
  endfacet
  facet normal 0 0 1
    outer loop
      vertex 46.5491 17.4014 4
      vertex 48.4093 18.271 4
      vertex 47.6276 19.141 4
    endloop
  endfacet
  facet normal 0 0 1
    outer loop
      vertex 48.8783 17.1997 4
      vertex 48.4093 18.271 4
      vertex 46.8517 16.7238 4
    endloop
  endfacet
  facet normal -0 0 1
    outer loop
      vertex 46.853 15.0551 4
      vertex 48.9242 14.8526 4
      vertex 46.9526 15.905 4
    endloop
  endfacet
  facet normal -0 0 1
    outer loop
      vertex 46.9526 15.905 4
      vertex 48.9242 14.8526 4
      vertex 49.0346 15.927 4
    endloop
  endfacet
  facet normal 0 -0 1
    outer loop
      vertex 48.5929 13.8985 4
      vertex 48.9242 14.8526 4
      vertex 46.853 15.0551 4
    endloop
  endfacet
  facet normal 0 -0 1
    outer loop
      vertex 48.0406 13.065 4
      vertex 48.5929 13.8985 4
      vertex 46.554 14.3414 4
    endloop
  endfacet
  facet normal 0 0 1
    outer loop
      vertex 46.0556 13.764 4
      vertex 47.2941 12.3868 4
      vertex 48.0406 13.065 4
    endloop
  endfacet
  facet normal -0 0 1
    outer loop
      vertex 45.375 13.3396 4
      vertex 46.3797 11.8988 4
      vertex 46.0556 13.764 4
    endloop
  endfacet
  facet normal 0 0 1
    outer loop
      vertex 45.2976 11.601 4
      vertex 46.3797 11.8988 4
      vertex 45.375 13.3396 4
    endloop
  endfacet
  facet normal 0 0 1
    outer loop
      vertex 43.2806 11.363 4
      vertex 44.529 13.0849 4
      vertex 43.5176 13 4
    endloop
  endfacet
  facet normal 0 -0 1
    outer loop
      vertex 45.2976 11.601 4
      vertex 45.375 13.3396 4
      vertex 44.529 13.0849 4
    endloop
  endfacet
  facet normal 0.964787 -0.263033 0
    outer loop
      vertex 17.6283 14.2942 2
      vertex 16.6397 10.6679 4
      vertex 16.6397 10.6679 2
    endloop
  endfacet
  facet normal 0.964787 -0.263033 0
    outer loop
      vertex 17.6283 14.2942 2
      vertex 17.6283 14.2942 4
      vertex 16.6397 10.6679 4
    endloop
  endfacet
  facet normal 0.967131 -0.254279 0
    outer loop
      vertex 18.045 15.879 2
      vertex 17.6283 14.2942 4
      vertex 17.6283 14.2942 2
    endloop
  endfacet
  facet normal 0.967131 -0.254279 0
    outer loop
      vertex 18.045 15.879 2
      vertex 18.045 15.879 4
      vertex 17.6283 14.2942 4
    endloop
  endfacet
  facet normal 0.974946 -0.222442 0
    outer loop
      vertex 18.3445 17.1919 2
      vertex 18.045 15.879 4
      vertex 18.045 15.879 2
    endloop
  endfacet
  facet normal 0.974946 -0.222442 0
    outer loop
      vertex 18.3445 17.1919 2
      vertex 18.3445 17.1919 4
      vertex 18.045 15.879 4
    endloop
  endfacet
  facet normal 0.975669 -0.21925 0
    outer loop
      vertex 18.523 17.986 2
      vertex 18.3445 17.1919 4
      vertex 18.3445 17.1919 2
    endloop
  endfacet
  facet normal 0.975669 -0.21925 0
    outer loop
      vertex 18.523 17.986 2
      vertex 18.523 17.986 4
      vertex 18.3445 17.1919 4
    endloop
  endfacet
  facet normal -0.977146 -0.212568 0
    outer loop
      vertex 18.8298 16.5758 2
      vertex 18.523 17.986 4
      vertex 18.523 17.986 2
    endloop
  endfacet
  facet normal -0.977146 -0.212568 0
    outer loop
      vertex 18.8298 16.5758 2
      vertex 18.8298 16.5758 4
      vertex 18.523 17.986 4
    endloop
  endfacet
  facet normal -0.973943 -0.226791 0
    outer loop
      vertex 19.0834 15.4864 2
      vertex 18.8298 16.5758 4
      vertex 18.8298 16.5758 2
    endloop
  endfacet
  facet normal -0.973943 -0.226791 0
    outer loop
      vertex 19.0834 15.4864 2
      vertex 19.0834 15.4864 4
      vertex 18.8298 16.5758 4
    endloop
  endfacet
  facet normal -0.967587 -0.252536 0
    outer loop
      vertex 19.284 14.718 2
      vertex 19.0834 15.4864 4
      vertex 19.0834 15.4864 2
    endloop
  endfacet
  facet normal -0.967587 -0.252536 0
    outer loop
      vertex 19.284 14.718 2
      vertex 19.284 14.718 4
      vertex 19.0834 15.4864 4
    endloop
  endfacet
  facet normal -0.964723 -0.263268 0
    outer loop
      vertex 21.936 5 2
      vertex 19.284 14.718 4
      vertex 19.284 14.718 2
    endloop
  endfacet
  facet normal -0.964723 -0.263268 0
    outer loop
      vertex 21.936 5 2
      vertex 21.936 5 4
      vertex 19.284 14.718 4
    endloop
  endfacet
  facet normal 0 -1 0
    outer loop
      vertex 24.408 5 2
      vertex 21.936 5 4
      vertex 21.936 5 2
    endloop
  endfacet
  facet normal 0 -1 0
    outer loop
      vertex 24.408 5 2
      vertex 24.408 5 4
      vertex 21.936 5 4
    endloop
  endfacet
  facet normal 0.95921 -0.282696 0
    outer loop
      vertex 28.916 20.296 2
      vertex 24.408 5 4
      vertex 24.408 5 2
    endloop
  endfacet
  facet normal 0.95921 -0.282696 0
    outer loop
      vertex 28.916 20.296 2
      vertex 28.916 20.296 4
      vertex 24.408 5 4
    endloop
  endfacet
  facet normal 0 1 0
    outer loop
      vertex 26.758 20.296 2
      vertex 28.916 20.296 4
      vertex 28.916 20.296 2
    endloop
  endfacet
  facet normal 0 1 0
    outer loop
      vertex 26.758 20.296 2
      vertex 26.758 20.296 4
      vertex 28.916 20.296 4
    endloop
  endfacet
  facet normal -0.963298 0.268434 0
    outer loop
      vertex 25.1436 14.5024 2
      vertex 26.758 20.296 4
      vertex 26.758 20.296 2
    endloop
  endfacet
  facet normal -0.963298 0.268434 0
    outer loop
      vertex 25.1436 14.5024 2
      vertex 25.1436 14.5024 4
      vertex 26.758 20.296 4
    endloop
  endfacet
  facet normal -0.963914 0.266215 0
    outer loop
      vertex 24.1255 10.8164 2
      vertex 25.1436 14.5024 4
      vertex 25.1436 14.5024 2
    endloop
  endfacet
  facet normal -0.963914 0.266215 0
    outer loop
      vertex 24.1255 10.8164 2
      vertex 24.1255 10.8164 4
      vertex 25.1436 14.5024 4
    endloop
  endfacet
  facet normal -0.966138 0.258026 0
    outer loop
      vertex 23.704 9.23799 2
      vertex 24.1255 10.8164 4
      vertex 24.1255 10.8164 2
    endloop
  endfacet
  facet normal -0.966138 0.258026 0
    outer loop
      vertex 23.704 9.23799 2
      vertex 23.704 9.23799 4
      vertex 24.1255 10.8164 4
    endloop
  endfacet
  facet normal -0.97353 0.228559 0
    outer loop
      vertex 23.226 7.202 2
      vertex 23.704 9.23799 4
      vertex 23.704 9.23799 2
    endloop
  endfacet
  facet normal -0.97353 0.228559 0
    outer loop
      vertex 23.226 7.202 2
      vertex 23.226 7.202 4
      vertex 23.704 9.23799 4
    endloop
  endfacet
  facet normal -0.968313 0.249738 0
    outer loop
      vertex 23.128 6.82199 2
      vertex 23.226 7.202 4
      vertex 23.226 7.202 2
    endloop
  endfacet
  facet normal -0.968313 0.249738 0
    outer loop
      vertex 23.128 6.82199 2
      vertex 23.128 6.82199 4
      vertex 23.226 7.202 4
    endloop
  endfacet
  facet normal 0.975556 0.219749 0
    outer loop
      vertex 22.8671 7.98021 2
      vertex 23.128 6.82199 4
      vertex 23.128 6.82199 2
    endloop
  endfacet
  facet normal 0.975556 0.219749 -0
    outer loop
      vertex 22.8671 7.98021 2
      vertex 22.8671 7.98021 4
      vertex 23.128 6.82199 4
    endloop
  endfacet
  facet normal 0.971967 0.235119 0
    outer loop
      vertex 22.5484 9.29755 2
      vertex 22.8671 7.98021 4
      vertex 22.8671 7.98021 2
    endloop
  endfacet
  facet normal 0.971967 0.235119 -0
    outer loop
      vertex 22.5484 9.29755 2
      vertex 22.5484 9.29755 4
      vertex 22.8671 7.98021 4
    endloop
  endfacet
  facet normal 0.969001 0.247057 0
    outer loop
      vertex 22.172 10.774 2
      vertex 22.5484 9.29755 4
      vertex 22.5484 9.29755 2
    endloop
  endfacet
  facet normal 0.969001 0.247057 -0
    outer loop
      vertex 22.172 10.774 2
      vertex 22.172 10.774 4
      vertex 22.5484 9.29755 4
    endloop
  endfacet
  facet normal 0.963047 0.269334 0
    outer loop
      vertex 19.509 20.296 2
      vertex 22.172 10.774 4
      vertex 22.172 10.774 2
    endloop
  endfacet
  facet normal 0.963047 0.269334 -0
    outer loop
      vertex 19.509 20.296 2
      vertex 19.509 20.296 4
      vertex 22.172 10.774 4
    endloop
  endfacet
  facet normal 0 1 0
    outer loop
      vertex 17.525 20.296 2
      vertex 19.509 20.296 4
      vertex 19.509 20.296 2
    endloop
  endfacet
  facet normal 0 1 0
    outer loop
      vertex 17.525 20.296 2
      vertex 17.525 20.296 4
      vertex 19.509 20.296 4
    endloop
  endfacet
  facet normal -0.96262 0.270855 0
    outer loop
      vertex 16.0025 14.8852 2
      vertex 17.525 20.296 4
      vertex 17.525 20.296 2
    endloop
  endfacet
  facet normal -0.96262 0.270855 0
    outer loop
      vertex 16.0025 14.8852 2
      vertex 16.0025 14.8852 4
      vertex 17.525 20.296 4
    endloop
  endfacet
  facet normal -0.963636 0.267219 0
    outer loop
      vertex 14.9979 11.2622 2
      vertex 16.0025 14.8852 4
      vertex 16.0025 14.8852 2
    endloop
  endfacet
  facet normal -0.963636 0.267219 0
    outer loop
      vertex 14.9979 11.2622 2
      vertex 14.9979 11.2622 4
      vertex 16.0025 14.8852 4
    endloop
  endfacet
  facet normal -0.966562 0.256433 0
    outer loop
      vertex 14.511 9.42699 2
      vertex 14.9979 11.2622 4
      vertex 14.9979 11.2622 2
    endloop
  endfacet
  facet normal -0.966562 0.256433 0
    outer loop
      vertex 14.511 9.42699 2
      vertex 14.511 9.42699 4
      vertex 14.9979 11.2622 4
    endloop
  endfacet
  facet normal -0.972622 0.232392 0
    outer loop
      vertex 14.292 8.51044 2
      vertex 14.511 9.42699 4
      vertex 14.511 9.42699 2
    endloop
  endfacet
  facet normal -0.972622 0.232392 0
    outer loop
      vertex 14.292 8.51044 2
      vertex 14.292 8.51044 4
      vertex 14.511 9.42699 4
    endloop
  endfacet
  facet normal -0.974239 0.22552 0
    outer loop
      vertex 14.091 7.64211 2
      vertex 14.292 8.51044 4
      vertex 14.292 8.51044 2
    endloop
  endfacet
  facet normal -0.974239 0.22552 0
    outer loop
      vertex 14.091 7.64211 2
      vertex 14.091 7.64211 4
      vertex 14.292 8.51044 4
    endloop
  endfacet
  facet normal -0.975997 0.217782 0
    outer loop
      vertex 13.908 6.82199 2
      vertex 14.091 7.64211 4
      vertex 14.091 7.64211 2
    endloop
  endfacet
  facet normal -0.975997 0.217782 0
    outer loop
      vertex 13.908 6.82199 2
      vertex 13.908 6.82199 4
      vertex 14.091 7.64211 4
    endloop
  endfacet
  facet normal 0.976173 0.216996 0
    outer loop
      vertex 13.6242 8.09854 2
      vertex 13.908 6.82199 4
      vertex 13.908 6.82199 2
    endloop
  endfacet
  facet normal 0.976173 0.216996 -0
    outer loop
      vertex 13.6242 8.09854 2
      vertex 13.6242 8.09854 4
      vertex 13.908 6.82199 4
    endloop
  endfacet
  facet normal 0.972367 0.233457 0
    outer loop
      vertex 13.3235 9.35088 2
      vertex 13.6242 8.09854 4
      vertex 13.6242 8.09854 2
    endloop
  endfacet
  facet normal 0.972367 0.233457 -0
    outer loop
      vertex 13.3235 9.35088 2
      vertex 13.3235 9.35088 4
      vertex 13.6242 8.09854 4
    endloop
  endfacet
  facet normal 0.96816 0.250334 0
    outer loop
      vertex 13.006 10.579 2
      vertex 13.3235 9.35088 4
      vertex 13.3235 9.35088 2
    endloop
  endfacet
  facet normal 0.96816 0.250334 -0
    outer loop
      vertex 13.006 10.579 2
      vertex 13.006 10.579 4
      vertex 13.3235 9.35088 4
    endloop
  endfacet
  facet normal 0.962208 0.272314 0
    outer loop
      vertex 10.256 20.296 2
      vertex 13.006 10.579 4
      vertex 13.006 10.579 2
    endloop
  endfacet
  facet normal 0.962208 0.272314 -0
    outer loop
      vertex 10.256 20.296 2
      vertex 10.256 20.296 4
      vertex 13.006 10.579 4
    endloop
  endfacet
  facet normal 0 1 0
    outer loop
      vertex 8.09799 20.296 2
      vertex 10.256 20.296 4
      vertex 10.256 20.296 2
    endloop
  endfacet
  facet normal 0 1 0
    outer loop
      vertex 8.09799 20.296 2
      vertex 8.09799 20.296 4
      vertex 10.256 20.296 4
    endloop
  endfacet
  facet normal -0.959192 -0.282754 0
    outer loop
      vertex 12.607 5 2
      vertex 8.09799 20.296 4
      vertex 8.09799 20.296 2
    endloop
  endfacet
  facet normal -0.959192 -0.282754 0
    outer loop
      vertex 12.607 5 2
      vertex 12.607 5 4
      vertex 8.09799 20.296 4
    endloop
  endfacet
  facet normal 0 -1 0
    outer loop
      vertex 15.079 5 2
      vertex 12.607 5 4
      vertex 12.607 5 2
    endloop
  endfacet
  facet normal 0 -1 0
    outer loop
      vertex 15.079 5 2
      vertex 15.079 5 4
      vertex 12.607 5 4
    endloop
  endfacet
  facet normal 0.964118 -0.265473 0
    outer loop
      vertex 16.6397 10.6679 2
      vertex 15.079 5 4
      vertex 15.079 5 2
    endloop
  endfacet
  facet normal 0.964118 -0.265473 0
    outer loop
      vertex 16.6397 10.6679 2
      vertex 16.6397 10.6679 4
      vertex 15.079 5 4
    endloop
  endfacet
  facet normal 0 -1 0
    outer loop
      vertex 43.2806 11.363 2
      vertex 38.5066 11.363 4
      vertex 38.5066 11.363 2
    endloop
  endfacet
  facet normal 0 -1 0
    outer loop
      vertex 43.2806 11.363 2
      vertex 43.2806 11.363 4
      vertex 38.5066 11.363 4
    endloop
  endfacet
  facet normal -0.848051 -0.529915 0
    outer loop
      vertex 47.2566 5 2
      vertex 43.2806 11.363 4
      vertex 43.2806 11.363 2
    endloop
  endfacet
  facet normal -0.848051 -0.529915 0
    outer loop
      vertex 47.2566 5 2
      vertex 47.2566 5 4
      vertex 43.2806 11.363 4
    endloop
  endfacet
  facet normal 0 -1 0
    outer loop
      vertex 49.6426 5 2
      vertex 47.2566 5 4
      vertex 47.2566 5 2
    endloop
  endfacet
  facet normal 0 -1 0
    outer loop
      vertex 49.6426 5 2
      vertex 49.6426 5 4
      vertex 47.2566 5 4
    endloop
  endfacet
  facet normal 0.835287 0.549814 0
    outer loop
      vertex 45.2976 11.601 2
      vertex 49.6426 5 4
      vertex 49.6426 5 2
    endloop
  endfacet
  facet normal 0.835287 0.549814 -0
    outer loop
      vertex 45.2976 11.601 2
      vertex 45.2976 11.601 4
      vertex 49.6426 5 4
    endloop
  endfacet
  facet normal 0.265319 -0.964161 0
    outer loop
      vertex 46.3797 11.8988 2
      vertex 45.2976 11.601 4
      vertex 45.2976 11.601 2
    endloop
  endfacet
  facet normal 0.265319 -0.964161 0
    outer loop
      vertex 46.3797 11.8988 2
      vertex 46.3797 11.8988 4
      vertex 45.2976 11.601 4
    endloop
  endfacet
  facet normal 0.470847 -0.882215 0
    outer loop
      vertex 47.2941 12.3868 2
      vertex 46.3797 11.8988 4
      vertex 46.3797 11.8988 2
    endloop
  endfacet
  facet normal 0.470847 -0.882215 0
    outer loop
      vertex 47.2941 12.3868 2
      vertex 47.2941 12.3868 4
      vertex 46.3797 11.8988 4
    endloop
  endfacet
  facet normal 0.672423 -0.740167 0
    outer loop
      vertex 48.0406 13.065 2
      vertex 47.2941 12.3868 4
      vertex 47.2941 12.3868 2
    endloop
  endfacet
  facet normal 0.672423 -0.740167 0
    outer loop
      vertex 48.0406 13.065 2
      vertex 48.0406 13.065 4
      vertex 47.2941 12.3868 4
    endloop
  endfacet
  facet normal 0.83365 -0.552293 0
    outer loop
      vertex 48.5929 13.8985 2
      vertex 48.0406 13.065 4
      vertex 48.0406 13.065 2
    endloop
  endfacet
  facet normal 0.83365 -0.552293 0
    outer loop
      vertex 48.5929 13.8985 2
      vertex 48.5929 13.8985 4
      vertex 48.0406 13.065 4
    endloop
  endfacet
  facet normal 0.94465 -0.328079 0
    outer loop
      vertex 48.9242 14.8526 2
      vertex 48.5929 13.8985 4
      vertex 48.5929 13.8985 2
    endloop
  endfacet
  facet normal 0.94465 -0.328079 0
    outer loop
      vertex 48.9242 14.8526 2
      vertex 48.9242 14.8526 4
      vertex 48.5929 13.8985 4
    endloop
  endfacet
  facet normal 0.994758 -0.102253 0
    outer loop
      vertex 49.0346 15.927 2
      vertex 48.9242 14.8526 4
      vertex 48.9242 14.8526 2
    endloop
  endfacet
  facet normal 0.994758 -0.102253 0
    outer loop
      vertex 49.0346 15.927 2
      vertex 49.0346 15.927 4
      vertex 48.9242 14.8526 4
    endloop
  endfacet
  facet normal 0.99254 0.121917 0
    outer loop
      vertex 48.8783 17.1997 2
      vertex 49.0346 15.927 4
      vertex 49.0346 15.927 2
    endloop
  endfacet
  facet normal 0.99254 0.121917 -0
    outer loop
      vertex 48.8783 17.1997 2
      vertex 48.8783 17.1997 4
      vertex 49.0346 15.927 4
    endloop
  endfacet
  facet normal 0.916063 0.401034 0
    outer loop
      vertex 48.4093 18.271 2
      vertex 48.8783 17.1997 4
      vertex 48.8783 17.1997 2
    endloop
  endfacet
  facet normal 0.916063 0.401034 -0
    outer loop
      vertex 48.4093 18.271 2
      vertex 48.4093 18.271 4
      vertex 48.8783 17.1997 4
    endloop
  endfacet
  facet normal 0.743861 0.668335 0
    outer loop
      vertex 47.6276 19.141 2
      vertex 48.4093 18.271 4
      vertex 48.4093 18.271 2
    endloop
  endfacet
  facet normal 0.743861 0.668335 -0
    outer loop
      vertex 47.6276 19.141 2
      vertex 47.6276 19.141 4
      vertex 48.4093 18.271 4
    endloop
  endfacet
  facet normal 0.514888 0.857257 0
    outer loop
      vertex 46.5593 19.7827 2
      vertex 47.6276 19.141 4
      vertex 47.6276 19.141 2
    endloop
  endfacet
  facet normal 0.514888 0.857257 -0
    outer loop
      vertex 46.5593 19.7827 2
      vertex 46.5593 19.7827 4
      vertex 47.6276 19.141 4
    endloop
  endfacet
  facet normal 0.277999 0.960581 0
    outer loop
      vertex 45.229 20.1677 2
      vertex 46.5593 19.7827 4
      vertex 46.5593 19.7827 2
    endloop
  endfacet
  facet normal 0.277999 0.960581 -0
    outer loop
      vertex 45.229 20.1677 2
      vertex 45.229 20.1677 4
      vertex 46.5593 19.7827 4
    endloop
  endfacet
  facet normal 0.0803299 0.996768 0
    outer loop
      vertex 43.6366 20.296 2
      vertex 45.229 20.1677 4
      vertex 45.229 20.1677 2
    endloop
  endfacet
  facet normal 0.0803299 0.996768 -0
    outer loop
      vertex 43.6366 20.296 2
      vertex 43.6366 20.296 4
      vertex 45.229 20.1677 4
    endloop
  endfacet
  facet normal 0 1 0
    outer loop
      vertex 36.4356 20.296 2
      vertex 43.6366 20.296 4
      vertex 43.6366 20.296 2
    endloop
  endfacet
  facet normal 0 1 0
    outer loop
      vertex 36.4356 20.296 2
      vertex 36.4356 20.296 4
      vertex 43.6366 20.296 4
    endloop
  endfacet
  facet normal -1 0 0
    outer loop
      vertex 36.4356 5 2
      vertex 36.4356 20.296 4
      vertex 36.4356 20.296 2
    endloop
  endfacet
  facet normal -1 0 0
    outer loop
      vertex 36.4356 5 2
      vertex 36.4356 5 4
      vertex 36.4356 20.296 4
    endloop
  endfacet
  facet normal 0 -1 0
    outer loop
      vertex 38.5066 5 2
      vertex 36.4356 5 4
      vertex 36.4356 5 2
    endloop
  endfacet
  facet normal 0 -1 0
    outer loop
      vertex 38.5066 5 2
      vertex 38.5066 5 4
      vertex 36.4356 5 4
    endloop
  endfacet
  facet normal 1 0 0
    outer loop
      vertex 38.5066 11.363 2
      vertex 38.5066 5 4
      vertex 38.5066 5 2
    endloop
  endfacet
  facet normal 1 0 -0
    outer loop
      vertex 38.5066 11.363 2
      vertex 38.5066 11.363 4
      vertex 38.5066 5 4
    endloop
  endfacet
  facet normal 1 0 -0
    outer loop
      vertex 38.5066 18.637 2
      vertex 38.5066 18.637 4
      vertex 38.5066 13 2
    endloop
  endfacet
  facet normal 1 -0 0
    outer loop
      vertex 38.5066 13 4
      vertex 38.5066 13 2
      vertex 38.5066 18.637 4
    endloop
  endfacet
  facet normal 0 -1 0
    outer loop
      vertex 43.4306 18.637 2
      vertex 43.4306 18.637 4
      vertex 38.5066 18.637 2
    endloop
  endfacet
  facet normal 0 -1 0
    outer loop
      vertex 38.5066 18.637 4
      vertex 38.5066 18.637 2
      vertex 43.4306 18.637 4
    endloop
  endfacet
  facet normal -0.0738289 -0.997271 0
    outer loop
      vertex 44.4798 18.5593 2
      vertex 44.4798 18.5593 4
      vertex 43.4306 18.637 2
    endloop
  endfacet
  facet normal -0.0738289 -0.997271 -0
    outer loop
      vertex 43.4306 18.637 4
      vertex 43.4306 18.637 2
      vertex 44.4798 18.5593 4
    endloop
  endfacet
  facet normal -0.258334 -0.966056 0
    outer loop
      vertex 45.3511 18.3263 2
      vertex 45.3511 18.3263 4
      vertex 44.4798 18.5593 2
    endloop
  endfacet
  facet normal -0.258334 -0.966056 -0
    outer loop
      vertex 44.4798 18.5593 4
      vertex 44.4798 18.5593 2
      vertex 45.3511 18.3263 4
    endloop
  endfacet
  facet normal -0.48855 -0.872536 0
    outer loop
      vertex 46.0446 17.938 2
      vertex 46.0446 17.938 4
      vertex 45.3511 18.3263 2
    endloop
  endfacet
  facet normal -0.48855 -0.872536 -0
    outer loop
      vertex 45.3511 18.3263 4
      vertex 45.3511 18.3263 2
      vertex 46.0446 17.938 4
    endloop
  endfacet
  facet normal -0.728558 -0.684985 0
    outer loop
      vertex 46.5491 17.4014 2
      vertex 46.5491 17.4014 4
      vertex 46.0446 17.938 2
    endloop
  endfacet
  facet normal -0.728558 -0.684985 -0
    outer loop
      vertex 46.0446 17.938 4
      vertex 46.0446 17.938 2
      vertex 46.5491 17.4014 4
    endloop
  endfacet
  facet normal -0.913075 -0.407792 0
    outer loop
      vertex 46.8517 16.7238 2
      vertex 46.8517 16.7238 4
      vertex 46.5491 17.4014 2
    endloop
  endfacet
  facet normal -0.913075 -0.407792 -0
    outer loop
      vertex 46.5491 17.4014 4
      vertex 46.5491 17.4014 2
      vertex 46.8517 16.7238 4
    endloop
  endfacet
  facet normal -0.992493 -0.122298 0
    outer loop
      vertex 46.9526 15.905 2
      vertex 46.9526 15.905 4
      vertex 46.8517 16.7238 2
    endloop
  endfacet
  facet normal -0.992493 -0.122298 -0
    outer loop
      vertex 46.8517 16.7238 4
      vertex 46.8517 16.7238 2
      vertex 46.9526 15.905 4
    endloop
  endfacet
  facet normal -0.993194 0.116475 0
    outer loop
      vertex 46.853 15.0551 2
      vertex 46.853 15.0551 4
      vertex 46.9526 15.905 2
    endloop
  endfacet
  facet normal -0.993194 0.116475 0
    outer loop
      vertex 46.9526 15.905 4
      vertex 46.9526 15.905 2
      vertex 46.853 15.0551 4
    endloop
  endfacet
  facet normal -0.922325 0.386414 0
    outer loop
      vertex 46.554 14.3414 2
      vertex 46.554 14.3414 4
      vertex 46.853 15.0551 2
    endloop
  endfacet
  facet normal -0.922325 0.386414 0
    outer loop
      vertex 46.853 15.0551 4
      vertex 46.853 15.0551 2
      vertex 46.554 14.3414 4
    endloop
  endfacet
  facet normal -0.757056 0.65335 0
    outer loop
      vertex 46.0556 13.764 2
      vertex 46.0556 13.764 4
      vertex 46.554 14.3414 2
    endloop
  endfacet
  facet normal -0.757056 0.65335 0
    outer loop
      vertex 46.554 14.3414 4
      vertex 46.554 14.3414 2
      vertex 46.0556 13.764 4
    endloop
  endfacet
  facet normal -0.529123 0.848545 0
    outer loop
      vertex 45.375 13.3396 2
      vertex 45.375 13.3396 4
      vertex 46.0556 13.764 2
    endloop
  endfacet
  facet normal -0.529123 0.848545 0
    outer loop
      vertex 46.0556 13.764 4
      vertex 46.0556 13.764 2
      vertex 45.375 13.3396 4
    endloop
  endfacet
  facet normal -0.288253 0.957554 0
    outer loop
      vertex 44.529 13.0849 2
      vertex 44.529 13.0849 4
      vertex 45.375 13.3396 2
    endloop
  endfacet
  facet normal -0.288253 0.957554 0
    outer loop
      vertex 45.375 13.3396 4
      vertex 45.375 13.3396 2
      vertex 44.529 13.0849 4
    endloop
  endfacet
  facet normal -0.083639 0.996496 0
    outer loop
      vertex 43.5176 13 2
      vertex 43.5176 13 4
      vertex 44.529 13.0849 2
    endloop
  endfacet
  facet normal -0.083639 0.996496 0
    outer loop
      vertex 44.529 13.0849 4
      vertex 44.529 13.0849 2
      vertex 43.5176 13 4
    endloop
  endfacet
  facet normal 0 1 0
    outer loop
      vertex 38.5066 13 2
      vertex 38.5066 13 4
      vertex 43.5176 13 2
    endloop
  endfacet
  facet normal 0 1 0
    outer loop
      vertex 43.5176 13 4
      vertex 43.5176 13 2
      vertex 38.5066 13 4
    endloop
  endfacet
endsolid OpenSCAD_Model
