solid OpenSCAD_Model
  facet normal 0 0 -1
    outer loop
      vertex 20.031 5 2
      vertex 16.658 13.023 2
      vertex 22.319 5 2
    endloop
  endfacet
  facet normal 0 0 -1
    outer loop
      vertex 20.031 5 2
      vertex 15.457 11.687 2
      vertex 16.658 13.023 2
    endloop
  endfacet
  facet normal -0 0 -1
    outer loop
      vertex 16.658 13.023 2
      vertex 14.299 12.947 2
      vertex 15.468 14.293 2
    endloop
  endfacet
  facet normal 0 0 -1
    outer loop
      vertex 16.658 13.023 2
      vertex 19.587 20.296 2
      vertex 21.875 20.296 2
    endloop
  endfacet
  facet normal 0 0 -1
    outer loop
      vertex 16.658 13.023 2
      vertex 15.468 14.293 2
      vertex 19.587 20.296 2
    endloop
  endfacet
  facet normal 0 0 -1
    outer loop
      vertex 8.94199 20.296 2
      vertex 11.23 20.296 2
      vertex 14.299 12.947 2
    endloop
  endfacet
  facet normal 0 0 -1
    outer loop
      vertex 14.299 12.947 2
      vertex 11.23 20.296 2
      vertex 15.468 14.293 2
    endloop
  endfacet
  facet normal -0 0 -1
    outer loop
      vertex 15.457 11.687 2
      vertex 10.786 5 2
      vertex 14.299 12.947 2
    endloop
  endfacet
  facet normal 0 0 -1
    outer loop
      vertex 14.299 12.947 2
      vertex 10.786 5 2
      vertex 8.49799 5 2
    endloop
  endfacet
  facet normal 0 0 -1
    outer loop
      vertex 15.457 11.687 2
      vertex 14.299 12.947 2
      vertex 16.658 13.023 2
    endloop
  endfacet
  facet normal 0 0 -1
    outer loop
      vertex 38.9846 20.296 2
      vertex 41.0556 20.296 2
      vertex 38.9846 13.832 2
    endloop
  endfacet
  facet normal 0 0 -1
    outer loop
      vertex 38.9846 5 2
      vertex 38.9846 12.097 2
      vertex 41.0556 5 2
    endloop
  endfacet
  facet normal 0 0 -1
    outer loop
      vertex 41.0556 5 2
      vertex 38.9846 12.097 2
      vertex 41.0556 20.296 2
    endloop
  endfacet
  facet normal 0 0 -1
    outer loop
      vertex 30.7016 13.832 2
      vertex 38.9846 13.832 2
      vertex 38.9846 12.097 2
    endloop
  endfacet
  facet normal 0 0 -1
    outer loop
      vertex 38.9846 13.832 2
      vertex 41.0556 20.296 2
      vertex 38.9846 12.097 2
    endloop
  endfacet
  facet normal 0 0 -1
    outer loop
      vertex 30.7016 12.097 2
      vertex 30.7016 13.832 2
      vertex 38.9846 12.097 2
    endloop
  endfacet
  facet normal 0 0 -1
    outer loop
      vertex 30.7016 13.832 2
      vertex 28.6306 20.296 2
      vertex 30.7016 20.296 2
    endloop
  endfacet
  facet normal 0 0 -1
    outer loop
      vertex 28.6306 5 2
      vertex 30.7016 12.097 2
      vertex 30.7016 5 2
    endloop
  endfacet
  facet normal -0 -0 -1
    outer loop
      vertex 30.7016 13.832 2
      vertex 30.7016 12.097 2
      vertex 28.6306 20.296 2
    endloop
  endfacet
  facet normal -0 0 -1
    outer loop
      vertex 30.7016 12.097 2
      vertex 28.6306 5 2
      vertex 28.6306 20.296 2
    endloop
  endfacet
  facet normal 0 0 1
    outer loop
      vertex 22.319 5 4
      vertex 16.658 13.023 4
      vertex 20.031 5 4
    endloop
  endfacet
  facet normal 0 0 1
    outer loop
      vertex 16.658 13.023 4
      vertex 15.457 11.687 4
      vertex 20.031 5 4
    endloop
  endfacet
  facet normal 0 0 1
    outer loop
      vertex 15.468 14.293 4
      vertex 14.299 12.947 4
      vertex 16.658 13.023 4
    endloop
  endfacet
  facet normal 0 0 1
    outer loop
      vertex 21.875 20.296 4
      vertex 19.587 20.296 4
      vertex 16.658 13.023 4
    endloop
  endfacet
  facet normal 0 0 1
    outer loop
      vertex 19.587 20.296 4
      vertex 15.468 14.293 4
      vertex 16.658 13.023 4
    endloop
  endfacet
  facet normal 0 0 1
    outer loop
      vertex 14.299 12.947 4
      vertex 11.23 20.296 4
      vertex 8.94199 20.296 4
    endloop
  endfacet
  facet normal 0 0 1
    outer loop
      vertex 15.468 14.293 4
      vertex 11.23 20.296 4
      vertex 14.299 12.947 4
    endloop
  endfacet
  facet normal 0 0 1
    outer loop
      vertex 14.299 12.947 4
      vertex 10.786 5 4
      vertex 15.457 11.687 4
    endloop
  endfacet
  facet normal 0 0 1
    outer loop
      vertex 8.49799 5 4
      vertex 10.786 5 4
      vertex 14.299 12.947 4
    endloop
  endfacet
  facet normal 0 0 1
    outer loop
      vertex 16.658 13.023 4
      vertex 14.299 12.947 4
      vertex 15.457 11.687 4
    endloop
  endfacet
  facet normal 0 0 1
    outer loop
      vertex 38.9846 13.832 4
      vertex 41.0556 20.296 4
      vertex 38.9846 20.296 4
    endloop
  endfacet
  facet normal 0 0 1
    outer loop
      vertex 41.0556 5 4
      vertex 38.9846 12.097 4
      vertex 38.9846 5 4
    endloop
  endfacet
  facet normal 0 0 1
    outer loop
      vertex 41.0556 20.296 4
      vertex 38.9846 12.097 4
      vertex 41.0556 5 4
    endloop
  endfacet
  facet normal 0 -0 1
    outer loop
      vertex 38.9846 12.097 4
      vertex 38.9846 13.832 4
      vertex 30.7016 13.832 4
    endloop
  endfacet
  facet normal 0 0 1
    outer loop
      vertex 38.9846 12.097 4
      vertex 41.0556 20.296 4
      vertex 38.9846 13.832 4
    endloop
  endfacet
  facet normal 0 0 1
    outer loop
      vertex 38.9846 12.097 4
      vertex 30.7016 13.832 4
      vertex 30.7016 12.097 4
    endloop
  endfacet
  facet normal 0 0 1
    outer loop
      vertex 30.7016 20.296 4
      vertex 28.6306 20.296 4
      vertex 30.7016 13.832 4
    endloop
  endfacet
  facet normal 0 -0 1
    outer loop
      vertex 30.7016 5 4
      vertex 30.7016 12.097 4
      vertex 28.6306 5 4
    endloop
  endfacet
  facet normal 0 0 1
    outer loop
      vertex 28.6306 20.296 4
      vertex 30.7016 12.097 4
      vertex 30.7016 13.832 4
    endloop
  endfacet
  facet normal 0 0 1
    outer loop
      vertex 28.6306 20.296 4
      vertex 28.6306 5 4
      vertex 30.7016 12.097 4
    endloop
  endfacet
  facet normal -0.825383 -0.564574 0
    outer loop
      vertex 20.031 5 2
      vertex 15.457 11.687 4
      vertex 15.457 11.687 2
    endloop
  endfacet
  facet normal -0.825383 -0.564574 0
    outer loop
      vertex 20.031 5 2
      vertex 20.031 5 4
      vertex 15.457 11.687 4
    endloop
  endfacet
  facet normal 0 -1 0
    outer loop
      vertex 22.319 5 2
      vertex 20.031 5 4
      vertex 20.031 5 2
    endloop
  endfacet
  facet normal 0 -1 0
    outer loop
      vertex 22.319 5 2
      vertex 22.319 5 4
      vertex 20.031 5 4
    endloop
  endfacet
  facet normal 0.817078 0.576527 0
    outer loop
      vertex 16.658 13.023 2
      vertex 22.319 5 4
      vertex 22.319 5 2
    endloop
  endfacet
  facet normal 0.817078 0.576527 -0
    outer loop
      vertex 16.658 13.023 2
      vertex 16.658 13.023 4
      vertex 22.319 5 4
    endloop
  endfacet
  facet normal 0.812569 -0.582866 0
    outer loop
      vertex 21.875 20.296 2
      vertex 16.658 13.023 4
      vertex 16.658 13.023 2
    endloop
  endfacet
  facet normal 0.812569 -0.582866 0
    outer loop
      vertex 21.875 20.296 2
      vertex 21.875 20.296 4
      vertex 16.658 13.023 4
    endloop
  endfacet
  facet normal 0 1 0
    outer loop
      vertex 19.587 20.296 2
      vertex 21.875 20.296 4
      vertex 21.875 20.296 2
    endloop
  endfacet
  facet normal 0 1 0
    outer loop
      vertex 19.587 20.296 2
      vertex 19.587 20.296 4
      vertex 21.875 20.296 4
    endloop
  endfacet
  facet normal -0.824558 0.565777 0
    outer loop
      vertex 15.468 14.293 2
      vertex 19.587 20.296 4
      vertex 19.587 20.296 2
    endloop
  endfacet
  facet normal -0.824558 0.565777 0
    outer loop
      vertex 15.468 14.293 2
      vertex 15.468 14.293 4
      vertex 19.587 20.296 4
    endloop
  endfacet
  facet normal 0.81693 0.576736 0
    outer loop
      vertex 11.23 20.296 2
      vertex 15.468 14.293 4
      vertex 15.468 14.293 2
    endloop
  endfacet
  facet normal 0.81693 0.576736 -0
    outer loop
      vertex 11.23 20.296 2
      vertex 11.23 20.296 4
      vertex 15.468 14.293 4
    endloop
  endfacet
  facet normal 0 1 0
    outer loop
      vertex 8.94199 20.296 2
      vertex 11.23 20.296 4
      vertex 11.23 20.296 2
    endloop
  endfacet
  facet normal 0 1 0
    outer loop
      vertex 8.94199 20.296 2
      vertex 8.94199 20.296 4
      vertex 11.23 20.296 4
    endloop
  endfacet
  facet normal -0.808093 -0.589055 0
    outer loop
      vertex 14.299 12.947 2
      vertex 8.94199 20.296 4
      vertex 8.94199 20.296 2
    endloop
  endfacet
  facet normal -0.808093 -0.589055 0
    outer loop
      vertex 14.299 12.947 2
      vertex 14.299 12.947 4
      vertex 8.94199 20.296 4
    endloop
  endfacet
  facet normal -0.807701 0.589592 0
    outer loop
      vertex 8.49799 5 2
      vertex 14.299 12.947 4
      vertex 14.299 12.947 2
    endloop
  endfacet
  facet normal -0.807701 0.589592 0
    outer loop
      vertex 8.49799 5 2
      vertex 8.49799 5 4
      vertex 14.299 12.947 4
    endloop
  endfacet
  facet normal 0 -1 0
    outer loop
      vertex 10.786 5 2
      vertex 8.49799 5 4
      vertex 8.49799 5 2
    endloop
  endfacet
  facet normal 0 -1 0
    outer loop
      vertex 10.786 5 2
      vertex 10.786 5 4
      vertex 8.49799 5 4
    endloop
  endfacet
  facet normal 0.819802 -0.572647 0
    outer loop
      vertex 15.457 11.687 2
      vertex 10.786 5 4
      vertex 10.786 5 2
    endloop
  endfacet
  facet normal 0.819802 -0.572647 0
    outer loop
      vertex 15.457 11.687 2
      vertex 15.457 11.687 4
      vertex 10.786 5 4
    endloop
  endfacet
  facet normal 0 -1 0
    outer loop
      vertex 38.9846 12.097 2
      vertex 30.7016 12.097 4
      vertex 30.7016 12.097 2
    endloop
  endfacet
  facet normal 0 -1 0
    outer loop
      vertex 38.9846 12.097 2
      vertex 38.9846 12.097 4
      vertex 30.7016 12.097 4
    endloop
  endfacet
  facet normal -1 0 0
    outer loop
      vertex 38.9846 5 2
      vertex 38.9846 12.097 4
      vertex 38.9846 12.097 2
    endloop
  endfacet
  facet normal -1 0 0
    outer loop
      vertex 38.9846 5 2
      vertex 38.9846 5 4
      vertex 38.9846 12.097 4
    endloop
  endfacet
  facet normal 0 -1 0
    outer loop
      vertex 41.0556 5 2
      vertex 38.9846 5 4
      vertex 38.9846 5 2
    endloop
  endfacet
  facet normal 0 -1 0
    outer loop
      vertex 41.0556 5 2
      vertex 41.0556 5 4
      vertex 38.9846 5 4
    endloop
  endfacet
  facet normal 1 0 0
    outer loop
      vertex 41.0556 20.296 2
      vertex 41.0556 5 4
      vertex 41.0556 5 2
    endloop
  endfacet
  facet normal 1 0 -0
    outer loop
      vertex 41.0556 20.296 2
      vertex 41.0556 20.296 4
      vertex 41.0556 5 4
    endloop
  endfacet
  facet normal 0 1 0
    outer loop
      vertex 38.9846 20.296 2
      vertex 41.0556 20.296 4
      vertex 41.0556 20.296 2
    endloop
  endfacet
  facet normal 0 1 0
    outer loop
      vertex 38.9846 20.296 2
      vertex 38.9846 20.296 4
      vertex 41.0556 20.296 4
    endloop
  endfacet
  facet normal -1 0 0
    outer loop
      vertex 38.9846 13.832 2
      vertex 38.9846 20.296 4
      vertex 38.9846 20.296 2
    endloop
  endfacet
  facet normal -1 0 0
    outer loop
      vertex 38.9846 13.832 2
      vertex 38.9846 13.832 4
      vertex 38.9846 20.296 4
    endloop
  endfacet
  facet normal 0 1 0
    outer loop
      vertex 30.7016 13.832 2
      vertex 38.9846 13.832 4
      vertex 38.9846 13.832 2
    endloop
  endfacet
  facet normal 0 1 0
    outer loop
      vertex 30.7016 13.832 2
      vertex 30.7016 13.832 4
      vertex 38.9846 13.832 4
    endloop
  endfacet
  facet normal 1 0 0
    outer loop
      vertex 30.7016 20.296 2
      vertex 30.7016 13.832 4
      vertex 30.7016 13.832 2
    endloop
  endfacet
  facet normal 1 0 -0
    outer loop
      vertex 30.7016 20.296 2
      vertex 30.7016 20.296 4
      vertex 30.7016 13.832 4
    endloop
  endfacet
  facet normal 0 1 0
    outer loop
      vertex 28.6306 20.296 2
      vertex 30.7016 20.296 4
      vertex 30.7016 20.296 2
    endloop
  endfacet
  facet normal 0 1 0
    outer loop
      vertex 28.6306 20.296 2
      vertex 28.6306 20.296 4
      vertex 30.7016 20.296 4
    endloop
  endfacet
  facet normal -1 0 0
    outer loop
      vertex 28.6306 5 2
      vertex 28.6306 20.296 4
      vertex 28.6306 20.296 2
    endloop
  endfacet
  facet normal -1 0 0
    outer loop
      vertex 28.6306 5 2
      vertex 28.6306 5 4
      vertex 28.6306 20.296 4
    endloop
  endfacet
  facet normal 0 -1 0
    outer loop
      vertex 30.7016 5 2
      vertex 28.6306 5 4
      vertex 28.6306 5 2
    endloop
  endfacet
  facet normal 0 -1 0
    outer loop
      vertex 30.7016 5 2
      vertex 30.7016 5 4
      vertex 28.6306 5 4
    endloop
  endfacet
  facet normal 1 0 0
    outer loop
      vertex 30.7016 12.097 2
      vertex 30.7016 5 4
      vertex 30.7016 5 2
    endloop
  endfacet
  facet normal 1 0 -0
    outer loop
      vertex 30.7016 12.097 2
      vertex 30.7016 12.097 4
      vertex 30.7016 5 4
    endloop
  endfacet
endsolid OpenSCAD_Model
