solid OpenSCAD_Model
  facet normal 0 0 -1
    outer loop
      vertex 20.031 5 2
      vertex 16.658 13.023 2
      vertex 22.319 5 2
    endloop
  endfacet
  facet normal 0 0 -1
    outer loop
      vertex 20.031 5 2
      vertex 15.457 11.687 2
      vertex 16.658 13.023 2
    endloop
  endfacet
  facet normal -0 0 -1
    outer loop
      vertex 16.658 13.023 2
      vertex 14.299 12.947 2
      vertex 15.468 14.293 2
    endloop
  endfacet
  facet normal 0 0 -1
    outer loop
      vertex 30.6946 10.979 2
      vertex 30.6946 12.616 2
      vertex 34.8786 12.616 2
    endloop
  endfacet
  facet normal 0 0 -1
    outer loop
      vertex 16.658 13.023 2
      vertex 19.587 20.296 2
      vertex 21.875 20.296 2
    endloop
  endfacet
  facet normal 0 0 -1
    outer loop
      vertex 30.6946 18.637 2
      vertex 35.0416 20.296 2
      vertex 34.7926 18.637 2
    endloop
  endfacet
  facet normal 0 0 -1
    outer loop
      vertex 16.658 13.023 2
      vertex 15.468 14.293 2
      vertex 19.587 20.296 2
    endloop
  endfacet
  facet normal 0 0 -1
    outer loop
      vertex 8.94199 20.296 2
      vertex 11.23 20.296 2
      vertex 14.299 12.947 2
    endloop
  endfacet
  facet normal 0 0 -1
    outer loop
      vertex 14.299 12.947 2
      vertex 11.23 20.296 2
      vertex 15.468 14.293 2
    endloop
  endfacet
  facet normal -0 0 -1
    outer loop
      vertex 15.457 11.687 2
      vertex 10.786 5 2
      vertex 14.299 12.947 2
    endloop
  endfacet
  facet normal 0 0 -1
    outer loop
      vertex 14.299 12.947 2
      vertex 10.786 5 2
      vertex 8.49799 5 2
    endloop
  endfacet
  facet normal 0 0 -1
    outer loop
      vertex 15.457 11.687 2
      vertex 14.299 12.947 2
      vertex 16.658 13.023 2
    endloop
  endfacet
  facet normal 0 0 -1
    outer loop
      vertex 34.8786 12.616 2
      vertex 36.6766 11.121 2
      vertex 35.1736 10.979 2
    endloop
  endfacet
  facet normal 0 0 -1
    outer loop
      vertex 37.9541 13.9782 2
      vertex 39.793 13.2083 2
      vertex 39.0086 12.257 2
    endloop
  endfacet
  facet normal 0 0 -1
    outer loop
      vertex 40.4206 15.703 2
      vertex 40.2637 14.357 2
      vertex 38.3386 15.681 2
    endloop
  endfacet
  facet normal -0 0 -1
    outer loop
      vertex 39.0136 19.093 2
      vertex 36.7626 18.3085 2
      vertex 37.9469 19.7613 2
    endloop
  endfacet
  facet normal -0 0 -1
    outer loop
      vertex 37.9469 19.7613 2
      vertex 36.7626 18.3085 2
      vertex 36.6229 20.1623 2
    endloop
  endfacet
  facet normal 0 0 -1
    outer loop
      vertex 39.0136 19.093 2
      vertex 37.9446 17.3232 2
      vertex 36.7626 18.3085 2
    endloop
  endfacet
  facet normal 0 0 -1
    outer loop
      vertex 34.7926 18.637 2
      vertex 36.6229 20.1623 2
      vertex 36.7626 18.3085 2
    endloop
  endfacet
  facet normal 0 0 -1
    outer loop
      vertex 37.9446 17.3232 2
      vertex 39.7952 18.1821 2
      vertex 40.2642 17.0521 2
    endloop
  endfacet
  facet normal 0 0 -1
    outer loop
      vertex 37.9549 11.547 2
      vertex 36.8008 12.9565 2
      vertex 39.0086 12.257 2
    endloop
  endfacet
  facet normal 0 -0 -1
    outer loop
      vertex 35.0416 20.296 2
      vertex 36.6229 20.1623 2
      vertex 34.7926 18.637 2
    endloop
  endfacet
  facet normal 0 0 -1
    outer loop
      vertex 28.6236 20.296 2
      vertex 35.0416 20.296 2
      vertex 30.6946 18.637 2
    endloop
  endfacet
  facet normal 0 0 -1
    outer loop
      vertex 30.6946 10.979 2
      vertex 34.8786 12.616 2
      vertex 35.1736 10.979 2
    endloop
  endfacet
  facet normal 0 0 -1
    outer loop
      vertex 28.6236 5 2
      vertex 28.6236 20.296 2
      vertex 30.6946 12.616 2
    endloop
  endfacet
  facet normal 0 0 -1
    outer loop
      vertex 28.6236 5 2
      vertex 30.6946 10.979 2
      vertex 30.6946 5 2
    endloop
  endfacet
  facet normal -0 0 -1
    outer loop
      vertex 30.6946 10.979 2
      vertex 28.6236 5 2
      vertex 30.6946 12.616 2
    endloop
  endfacet
  facet normal 0 0 -1
    outer loop
      vertex 28.6236 20.296 2
      vertex 30.6946 18.637 2
      vertex 30.6946 12.616 2
    endloop
  endfacet
  facet normal 0 0 -1
    outer loop
      vertex 39.0086 12.257 2
      vertex 36.8008 12.9565 2
      vertex 37.9541 13.9782 2
    endloop
  endfacet
  facet normal 0 -0 -1
    outer loop
      vertex 39.0136 19.093 2
      vertex 39.7952 18.1821 2
      vertex 37.9446 17.3232 2
    endloop
  endfacet
  facet normal 0 0 -1
    outer loop
      vertex 38.3386 15.681 2
      vertex 40.2642 17.0521 2
      vertex 40.4206 15.703 2
    endloop
  endfacet
  facet normal 0 0 -1
    outer loop
      vertex 37.9446 17.3232 2
      vertex 40.2642 17.0521 2
      vertex 38.3386 15.681 2
    endloop
  endfacet
  facet normal 0 0 -1
    outer loop
      vertex 37.9541 13.9782 2
      vertex 40.2637 14.357 2
      vertex 39.793 13.2083 2
    endloop
  endfacet
  facet normal 0 -0 -1
    outer loop
      vertex 38.3386 15.681 2
      vertex 40.2637 14.357 2
      vertex 37.9541 13.9782 2
    endloop
  endfacet
  facet normal -0 0 -1
    outer loop
      vertex 37.9549 11.547 2
      vertex 36.6766 11.121 2
      vertex 36.8008 12.9565 2
    endloop
  endfacet
  facet normal 0 0 -1
    outer loop
      vertex 36.8008 12.9565 2
      vertex 36.6766 11.121 2
      vertex 34.8786 12.616 2
    endloop
  endfacet
  facet normal 0 0 1
    outer loop
      vertex 22.319 5 4
      vertex 16.658 13.023 4
      vertex 20.031 5 4
    endloop
  endfacet
  facet normal 0 0 1
    outer loop
      vertex 16.658 13.023 4
      vertex 15.457 11.687 4
      vertex 20.031 5 4
    endloop
  endfacet
  facet normal 0 0 1
    outer loop
      vertex 15.468 14.293 4
      vertex 14.299 12.947 4
      vertex 16.658 13.023 4
    endloop
  endfacet
  facet normal 0 0 1
    outer loop
      vertex 34.8786 12.616 4
      vertex 30.6946 12.616 4
      vertex 30.6946 10.979 4
    endloop
  endfacet
  facet normal 0 0 1
    outer loop
      vertex 21.875 20.296 4
      vertex 19.587 20.296 4
      vertex 16.658 13.023 4
    endloop
  endfacet
  facet normal 0 -0 1
    outer loop
      vertex 34.7926 18.637 4
      vertex 35.0416 20.296 4
      vertex 30.6946 18.637 4
    endloop
  endfacet
  facet normal 0 0 1
    outer loop
      vertex 19.587 20.296 4
      vertex 15.468 14.293 4
      vertex 16.658 13.023 4
    endloop
  endfacet
  facet normal 0 0 1
    outer loop
      vertex 14.299 12.947 4
      vertex 11.23 20.296 4
      vertex 8.94199 20.296 4
    endloop
  endfacet
  facet normal 0 0 1
    outer loop
      vertex 15.468 14.293 4
      vertex 11.23 20.296 4
      vertex 14.299 12.947 4
    endloop
  endfacet
  facet normal 0 0 1
    outer loop
      vertex 14.299 12.947 4
      vertex 10.786 5 4
      vertex 15.457 11.687 4
    endloop
  endfacet
  facet normal 0 0 1
    outer loop
      vertex 8.49799 5 4
      vertex 10.786 5 4
      vertex 14.299 12.947 4
    endloop
  endfacet
  facet normal 0 0 1
    outer loop
      vertex 16.658 13.023 4
      vertex 14.299 12.947 4
      vertex 15.457 11.687 4
    endloop
  endfacet
  facet normal 0 -0 1
    outer loop
      vertex 35.1736 10.979 4
      vertex 36.6766 11.121 4
      vertex 34.8786 12.616 4
    endloop
  endfacet
  facet normal 0 -0 1
    outer loop
      vertex 39.0086 12.257 4
      vertex 39.793 13.2083 4
      vertex 37.9541 13.9782 4
    endloop
  endfacet
  facet normal -0 0 1
    outer loop
      vertex 38.3386 15.681 4
      vertex 40.2637 14.357 4
      vertex 40.4206 15.703 4
    endloop
  endfacet
  facet normal 0 0 1
    outer loop
      vertex 37.9469 19.7613 4
      vertex 36.7626 18.3085 4
      vertex 39.0136 19.093 4
    endloop
  endfacet
  facet normal 0 0 1
    outer loop
      vertex 36.6229 20.1623 4
      vertex 36.7626 18.3085 4
      vertex 37.9469 19.7613 4
    endloop
  endfacet
  facet normal -0 0 1
    outer loop
      vertex 36.7626 18.3085 4
      vertex 37.9446 17.3232 4
      vertex 39.0136 19.093 4
    endloop
  endfacet
  facet normal 0 0 1
    outer loop
      vertex 36.7626 18.3085 4
      vertex 36.6229 20.1623 4
      vertex 34.7926 18.637 4
    endloop
  endfacet
  facet normal 0 0 1
    outer loop
      vertex 40.2642 17.0521 4
      vertex 39.7952 18.1821 4
      vertex 37.9446 17.3232 4
    endloop
  endfacet
  facet normal 0 0 1
    outer loop
      vertex 39.0086 12.257 4
      vertex 36.8008 12.9565 4
      vertex 37.9549 11.547 4
    endloop
  endfacet
  facet normal 0 0 1
    outer loop
      vertex 34.7926 18.637 4
      vertex 36.6229 20.1623 4
      vertex 35.0416 20.296 4
    endloop
  endfacet
  facet normal 0 -0 1
    outer loop
      vertex 30.6946 18.637 4
      vertex 35.0416 20.296 4
      vertex 28.6236 20.296 4
    endloop
  endfacet
  facet normal 0 0 1
    outer loop
      vertex 35.1736 10.979 4
      vertex 34.8786 12.616 4
      vertex 30.6946 10.979 4
    endloop
  endfacet
  facet normal 0 0 1
    outer loop
      vertex 30.6946 12.616 4
      vertex 28.6236 20.296 4
      vertex 28.6236 5 4
    endloop
  endfacet
  facet normal 0 -0 1
    outer loop
      vertex 30.6946 5 4
      vertex 30.6946 10.979 4
      vertex 28.6236 5 4
    endloop
  endfacet
  facet normal 0 0 1
    outer loop
      vertex 30.6946 12.616 4
      vertex 28.6236 5 4
      vertex 30.6946 10.979 4
    endloop
  endfacet
  facet normal 0 -0 1
    outer loop
      vertex 30.6946 12.616 4
      vertex 30.6946 18.637 4
      vertex 28.6236 20.296 4
    endloop
  endfacet
  facet normal 0 0 1
    outer loop
      vertex 37.9541 13.9782 4
      vertex 36.8008 12.9565 4
      vertex 39.0086 12.257 4
    endloop
  endfacet
  facet normal 0 0 1
    outer loop
      vertex 37.9446 17.3232 4
      vertex 39.7952 18.1821 4
      vertex 39.0136 19.093 4
    endloop
  endfacet
  facet normal 0 0 1
    outer loop
      vertex 40.4206 15.703 4
      vertex 40.2642 17.0521 4
      vertex 38.3386 15.681 4
    endloop
  endfacet
  facet normal 0 -0 1
    outer loop
      vertex 38.3386 15.681 4
      vertex 40.2642 17.0521 4
      vertex 37.9446 17.3232 4
    endloop
  endfacet
  facet normal 0 -0 1
    outer loop
      vertex 39.793 13.2083 4
      vertex 40.2637 14.357 4
      vertex 37.9541 13.9782 4
    endloop
  endfacet
  facet normal 0 0 1
    outer loop
      vertex 37.9541 13.9782 4
      vertex 40.2637 14.357 4
      vertex 38.3386 15.681 4
    endloop
  endfacet
  facet normal 0 0 1
    outer loop
      vertex 36.8008 12.9565 4
      vertex 36.6766 11.121 4
      vertex 37.9549 11.547 4
    endloop
  endfacet
  facet normal -0 0 1
    outer loop
      vertex 34.8786 12.616 4
      vertex 36.6766 11.121 4
      vertex 36.8008 12.9565 4
    endloop
  endfacet
  facet normal -0.825383 -0.564574 0
    outer loop
      vertex 20.031 5 2
      vertex 15.457 11.687 4
      vertex 15.457 11.687 2
    endloop
  endfacet
  facet normal -0.825383 -0.564574 0
    outer loop
      vertex 20.031 5 2
      vertex 20.031 5 4
      vertex 15.457 11.687 4
    endloop
  endfacet
  facet normal 0 -1 0
    outer loop
      vertex 22.319 5 2
      vertex 20.031 5 4
      vertex 20.031 5 2
    endloop
  endfacet
  facet normal 0 -1 0
    outer loop
      vertex 22.319 5 2
      vertex 22.319 5 4
      vertex 20.031 5 4
    endloop
  endfacet
  facet normal 0.817078 0.576527 0
    outer loop
      vertex 16.658 13.023 2
      vertex 22.319 5 4
      vertex 22.319 5 2
    endloop
  endfacet
  facet normal 0.817078 0.576527 -0
    outer loop
      vertex 16.658 13.023 2
      vertex 16.658 13.023 4
      vertex 22.319 5 4
    endloop
  endfacet
  facet normal 0.812569 -0.582866 0
    outer loop
      vertex 21.875 20.296 2
      vertex 16.658 13.023 4
      vertex 16.658 13.023 2
    endloop
  endfacet
  facet normal 0.812569 -0.582866 0
    outer loop
      vertex 21.875 20.296 2
      vertex 21.875 20.296 4
      vertex 16.658 13.023 4
    endloop
  endfacet
  facet normal 0 1 0
    outer loop
      vertex 19.587 20.296 2
      vertex 21.875 20.296 4
      vertex 21.875 20.296 2
    endloop
  endfacet
  facet normal 0 1 0
    outer loop
      vertex 19.587 20.296 2
      vertex 19.587 20.296 4
      vertex 21.875 20.296 4
    endloop
  endfacet
  facet normal -0.824558 0.565777 0
    outer loop
      vertex 15.468 14.293 2
      vertex 19.587 20.296 4
      vertex 19.587 20.296 2
    endloop
  endfacet
  facet normal -0.824558 0.565777 0
    outer loop
      vertex 15.468 14.293 2
      vertex 15.468 14.293 4
      vertex 19.587 20.296 4
    endloop
  endfacet
  facet normal 0.81693 0.576736 0
    outer loop
      vertex 11.23 20.296 2
      vertex 15.468 14.293 4
      vertex 15.468 14.293 2
    endloop
  endfacet
  facet normal 0.81693 0.576736 -0
    outer loop
      vertex 11.23 20.296 2
      vertex 11.23 20.296 4
      vertex 15.468 14.293 4
    endloop
  endfacet
  facet normal 0 1 0
    outer loop
      vertex 8.94199 20.296 2
      vertex 11.23 20.296 4
      vertex 11.23 20.296 2
    endloop
  endfacet
  facet normal 0 1 0
    outer loop
      vertex 8.94199 20.296 2
      vertex 8.94199 20.296 4
      vertex 11.23 20.296 4
    endloop
  endfacet
  facet normal -0.808093 -0.589055 0
    outer loop
      vertex 14.299 12.947 2
      vertex 8.94199 20.296 4
      vertex 8.94199 20.296 2
    endloop
  endfacet
  facet normal -0.808093 -0.589055 0
    outer loop
      vertex 14.299 12.947 2
      vertex 14.299 12.947 4
      vertex 8.94199 20.296 4
    endloop
  endfacet
  facet normal -0.807701 0.589592 0
    outer loop
      vertex 8.49799 5 2
      vertex 14.299 12.947 4
      vertex 14.299 12.947 2
    endloop
  endfacet
  facet normal -0.807701 0.589592 0
    outer loop
      vertex 8.49799 5 2
      vertex 8.49799 5 4
      vertex 14.299 12.947 4
    endloop
  endfacet
  facet normal 0 -1 0
    outer loop
      vertex 10.786 5 2
      vertex 8.49799 5 4
      vertex 8.49799 5 2
    endloop
  endfacet
  facet normal 0 -1 0
    outer loop
      vertex 10.786 5 2
      vertex 10.786 5 4
      vertex 8.49799 5 4
    endloop
  endfacet
  facet normal 0.819802 -0.572647 0
    outer loop
      vertex 15.457 11.687 2
      vertex 10.786 5 4
      vertex 10.786 5 2
    endloop
  endfacet
  facet normal 0.819802 -0.572647 0
    outer loop
      vertex 15.457 11.687 2
      vertex 15.457 11.687 4
      vertex 10.786 5 4
    endloop
  endfacet
  facet normal 0 -1 0
    outer loop
      vertex 35.1736 10.979 2
      vertex 30.6946 10.979 4
      vertex 30.6946 10.979 2
    endloop
  endfacet
  facet normal 0 -1 0
    outer loop
      vertex 35.1736 10.979 2
      vertex 35.1736 10.979 4
      vertex 30.6946 10.979 4
    endloop
  endfacet
  facet normal 0.0940574 -0.995567 0
    outer loop
      vertex 36.6766 11.121 2
      vertex 35.1736 10.979 4
      vertex 35.1736 10.979 2
    endloop
  endfacet
  facet normal 0.0940574 -0.995567 0
    outer loop
      vertex 36.6766 11.121 2
      vertex 36.6766 11.121 4
      vertex 35.1736 10.979 4
    endloop
  endfacet
  facet normal 0.31616 -0.948706 0
    outer loop
      vertex 37.9549 11.547 2
      vertex 36.6766 11.121 4
      vertex 36.6766 11.121 2
    endloop
  endfacet
  facet normal 0.31616 -0.948706 0
    outer loop
      vertex 37.9549 11.547 2
      vertex 37.9549 11.547 4
      vertex 36.6766 11.121 4
    endloop
  endfacet
  facet normal 0.558806 -0.829298 0
    outer loop
      vertex 39.0086 12.257 2
      vertex 37.9549 11.547 4
      vertex 37.9549 11.547 2
    endloop
  endfacet
  facet normal 0.558806 -0.829298 0
    outer loop
      vertex 39.0086 12.257 2
      vertex 39.0086 12.257 4
      vertex 37.9549 11.547 4
    endloop
  endfacet
  facet normal 0.771539 -0.636182 0
    outer loop
      vertex 39.793 13.2083 2
      vertex 39.0086 12.257 4
      vertex 39.0086 12.257 2
    endloop
  endfacet
  facet normal 0.771539 -0.636182 0
    outer loop
      vertex 39.793 13.2083 2
      vertex 39.793 13.2083 4
      vertex 39.0086 12.257 4
    endloop
  endfacet
  facet normal 0.925331 -0.37916 0
    outer loop
      vertex 40.2637 14.357 2
      vertex 39.793 13.2083 4
      vertex 39.793 13.2083 2
    endloop
  endfacet
  facet normal 0.925331 -0.37916 0
    outer loop
      vertex 40.2637 14.357 2
      vertex 40.2637 14.357 4
      vertex 39.793 13.2083 4
    endloop
  endfacet
  facet normal 0.993275 -0.115778 0
    outer loop
      vertex 40.4206 15.703 2
      vertex 40.2637 14.357 4
      vertex 40.2637 14.357 2
    endloop
  endfacet
  facet normal 0.993275 -0.115778 0
    outer loop
      vertex 40.4206 15.703 2
      vertex 40.4206 15.703 4
      vertex 40.2637 14.357 4
    endloop
  endfacet
  facet normal 0.993352 0.115114 0
    outer loop
      vertex 40.2642 17.0521 2
      vertex 40.4206 15.703 4
      vertex 40.4206 15.703 2
    endloop
  endfacet
  facet normal 0.993352 0.115114 -0
    outer loop
      vertex 40.2642 17.0521 2
      vertex 40.2642 17.0521 4
      vertex 40.4206 15.703 4
    endloop
  endfacet
  facet normal 0.923608 0.383337 0
    outer loop
      vertex 39.7952 18.1821 2
      vertex 40.2642 17.0521 4
      vertex 40.2642 17.0521 2
    endloop
  endfacet
  facet normal 0.923608 0.383337 -0
    outer loop
      vertex 39.7952 18.1821 2
      vertex 39.7952 18.1821 4
      vertex 40.2642 17.0521 4
    endloop
  endfacet
  facet normal 0.758886 0.651224 0
    outer loop
      vertex 39.0136 19.093 2
      vertex 39.7952 18.1821 4
      vertex 39.7952 18.1821 2
    endloop
  endfacet
  facet normal 0.758886 0.651224 -0
    outer loop
      vertex 39.0136 19.093 2
      vertex 39.0136 19.093 4
      vertex 39.7952 18.1821 4
    endloop
  endfacet
  facet normal 0.530952 0.847402 0
    outer loop
      vertex 37.9469 19.7613 2
      vertex 39.0136 19.093 4
      vertex 39.0136 19.093 2
    endloop
  endfacet
  facet normal 0.530952 0.847402 -0
    outer loop
      vertex 37.9469 19.7613 2
      vertex 37.9469 19.7613 4
      vertex 39.0136 19.093 4
    endloop
  endfacet
  facet normal 0.289867 0.957067 0
    outer loop
      vertex 36.6229 20.1623 2
      vertex 37.9469 19.7613 4
      vertex 37.9469 19.7613 2
    endloop
  endfacet
  facet normal 0.289867 0.957067 -0
    outer loop
      vertex 36.6229 20.1623 2
      vertex 36.6229 20.1623 4
      vertex 37.9469 19.7613 4
    endloop
  endfacet
  facet normal 0.0842279 0.996447 0
    outer loop
      vertex 35.0416 20.296 2
      vertex 36.6229 20.1623 4
      vertex 36.6229 20.1623 2
    endloop
  endfacet
  facet normal 0.0842279 0.996447 -0
    outer loop
      vertex 35.0416 20.296 2
      vertex 35.0416 20.296 4
      vertex 36.6229 20.1623 4
    endloop
  endfacet
  facet normal 0 1 0
    outer loop
      vertex 28.6236 20.296 2
      vertex 35.0416 20.296 4
      vertex 35.0416 20.296 2
    endloop
  endfacet
  facet normal 0 1 0
    outer loop
      vertex 28.6236 20.296 2
      vertex 28.6236 20.296 4
      vertex 35.0416 20.296 4
    endloop
  endfacet
  facet normal -1 0 0
    outer loop
      vertex 28.6236 5 2
      vertex 28.6236 20.296 4
      vertex 28.6236 20.296 2
    endloop
  endfacet
  facet normal -1 0 0
    outer loop
      vertex 28.6236 5 2
      vertex 28.6236 5 4
      vertex 28.6236 20.296 4
    endloop
  endfacet
  facet normal 0 -1 0
    outer loop
      vertex 30.6946 5 2
      vertex 28.6236 5 4
      vertex 28.6236 5 2
    endloop
  endfacet
  facet normal 0 -1 0
    outer loop
      vertex 30.6946 5 2
      vertex 30.6946 5 4
      vertex 28.6236 5 4
    endloop
  endfacet
  facet normal 1 0 0
    outer loop
      vertex 30.6946 10.979 2
      vertex 30.6946 5 4
      vertex 30.6946 5 2
    endloop
  endfacet
  facet normal 1 0 -0
    outer loop
      vertex 30.6946 10.979 2
      vertex 30.6946 10.979 4
      vertex 30.6946 5 4
    endloop
  endfacet
  facet normal 1 0 -0
    outer loop
      vertex 30.6946 18.637 2
      vertex 30.6946 18.637 4
      vertex 30.6946 12.616 2
    endloop
  endfacet
  facet normal 1 -0 0
    outer loop
      vertex 30.6946 12.616 4
      vertex 30.6946 12.616 2
      vertex 30.6946 18.637 4
    endloop
  endfacet
  facet normal 0 -1 0
    outer loop
      vertex 34.7926 18.637 2
      vertex 34.7926 18.637 4
      vertex 30.6946 18.637 2
    endloop
  endfacet
  facet normal 0 -1 0
    outer loop
      vertex 30.6946 18.637 4
      vertex 30.6946 18.637 2
      vertex 34.7926 18.637 4
    endloop
  endfacet
  facet normal -0.164454 -0.986385 0
    outer loop
      vertex 36.7626 18.3085 2
      vertex 36.7626 18.3085 4
      vertex 34.7926 18.637 2
    endloop
  endfacet
  facet normal -0.164454 -0.986385 -0
    outer loop
      vertex 34.7926 18.637 4
      vertex 34.7926 18.637 2
      vertex 36.7626 18.3085 4
    endloop
  endfacet
  facet normal -0.640311 -0.768116 0
    outer loop
      vertex 37.9446 17.3232 2
      vertex 37.9446 17.3232 4
      vertex 36.7626 18.3085 2
    endloop
  endfacet
  facet normal -0.640311 -0.768116 -0
    outer loop
      vertex 36.7626 18.3085 4
      vertex 36.7626 18.3085 2
      vertex 37.9446 17.3232 4
    endloop
  endfacet
  facet normal -0.972405 -0.233298 0
    outer loop
      vertex 38.3386 15.681 2
      vertex 38.3386 15.681 4
      vertex 37.9446 17.3232 2
    endloop
  endfacet
  facet normal -0.972405 -0.233298 -0
    outer loop
      vertex 37.9446 17.3232 4
      vertex 37.9446 17.3232 2
      vertex 38.3386 15.681 4
    endloop
  endfacet
  facet normal -0.975448 0.220231 0
    outer loop
      vertex 37.9541 13.9782 2
      vertex 37.9541 13.9782 4
      vertex 38.3386 15.681 2
    endloop
  endfacet
  facet normal -0.975448 0.220231 0
    outer loop
      vertex 38.3386 15.681 4
      vertex 38.3386 15.681 2
      vertex 37.9541 13.9782 4
    endloop
  endfacet
  facet normal -0.663087 0.748543 0
    outer loop
      vertex 36.8008 12.9565 2
      vertex 36.8008 12.9565 4
      vertex 37.9541 13.9782 2
    endloop
  endfacet
  facet normal -0.663087 0.748543 0
    outer loop
      vertex 37.9541 13.9782 4
      vertex 37.9541 13.9782 2
      vertex 36.8008 12.9565 4
    endloop
  endfacet
  facet normal -0.174446 0.984667 0
    outer loop
      vertex 34.8786 12.616 2
      vertex 34.8786 12.616 4
      vertex 36.8008 12.9565 2
    endloop
  endfacet
  facet normal -0.174446 0.984667 0
    outer loop
      vertex 36.8008 12.9565 4
      vertex 36.8008 12.9565 2
      vertex 34.8786 12.616 4
    endloop
  endfacet
  facet normal 0 1 0
    outer loop
      vertex 30.6946 12.616 2
      vertex 30.6946 12.616 4
      vertex 34.8786 12.616 2
    endloop
  endfacet
  facet normal 0 1 0
    outer loop
      vertex 34.8786 12.616 4
      vertex 34.8786 12.616 2
      vertex 30.6946 12.616 4
    endloop
  endfacet
endsolid OpenSCAD_Model
