solid OpenSCAD_Model
  facet normal -0 0 -1
    outer loop
      vertex 22.297 20.296 2
      vertex 16.414 11.34 2
      vertex 20.019 20.296 2
    endloop
  endfacet
  facet normal 0 0 -1
    outer loop
      vertex 20.019 20.296 2
      vertex 16.414 11.34 2
      vertex 15.405 13.01 2
    endloop
  endfacet
  facet normal 0 -0 -1
    outer loop
      vertex 15.405 13.01 2
      vertex 16.414 11.34 2
      vertex 14.353 11.34 2
    endloop
  endfacet
  facet normal 0 0 -1
    outer loop
      vertex 14.353 11.34 2
      vertex 8.487 20.296 2
      vertex 10.764 20.296 2
    endloop
  endfacet
  facet normal -0 -0 -1
    outer loop
      vertex 16.414 11.34 2
      vertex 16.414 5 2
      vertex 14.353 11.34 2
    endloop
  endfacet
  facet normal 0 0 -1
    outer loop
      vertex 14.353 11.34 2
      vertex 16.414 5 2
      vertex 14.353 5 2
    endloop
  endfacet
  facet normal -0 0 -1
    outer loop
      vertex 15.405 13.01 2
      vertex 14.353 11.34 2
      vertex 10.764 20.296 2
    endloop
  endfacet
  facet normal 0 0 -1
    outer loop
      vertex 35.5984 9.46399 2
      vertex 28.6554 9.46399 2
      vertex 29.2824 11.08 2
    endloop
  endfacet
  facet normal 0 0 -1
    outer loop
      vertex 39.4544 5 2
      vertex 35.5984 9.46399 2
      vertex 34.9824 11.08 2
    endloop
  endfacet
  facet normal 0 0 -1
    outer loop
      vertex 35.5984 9.46399 2
      vertex 39.4544 5 2
      vertex 37.3394 5 2
    endloop
  endfacet
  facet normal 0 0 -1
    outer loop
      vertex 34.9824 11.08 2
      vertex 33.3314 20.296 2
      vertex 39.4544 5 2
    endloop
  endfacet
  facet normal -0 -0 -1
    outer loop
      vertex 34.9824 11.08 2
      vertex 35.5984 9.46399 2
      vertex 29.2824 11.08 2
    endloop
  endfacet
  facet normal 0 0 -1
    outer loop
      vertex 26.9034 5 2
      vertex 24.7564 5 2
      vertex 28.6554 9.46399 2
    endloop
  endfacet
  facet normal -0 0 -1
    outer loop
      vertex 28.6554 9.46399 2
      vertex 24.7564 5 2
      vertex 29.2824 11.08 2
    endloop
  endfacet
  facet normal -0 0 -1
    outer loop
      vertex 29.2824 11.08 2
      vertex 24.7564 5 2
      vertex 30.9784 20.296 2
    endloop
  endfacet
  facet normal -0 0 -1
    outer loop
      vertex 31.2294 16.114 2
      vertex 29.2824 11.08 2
      vertex 30.9784 20.296 2
    endloop
  endfacet
  facet normal -0 0 -1
    outer loop
      vertex 31.5539 16.9993 2
      vertex 31.2294 16.114 2
      vertex 30.9784 20.296 2
    endloop
  endfacet
  facet normal -0 0 -1
    outer loop
      vertex 31.8209 17.7713 2
      vertex 31.5539 16.9993 2
      vertex 30.9784 20.296 2
    endloop
  endfacet
  facet normal -0 0 -1
    outer loop
      vertex 33.3314 20.296 2
      vertex 32.1274 18.734 2
      vertex 30.9784 20.296 2
    endloop
  endfacet
  facet normal -0 0 -1
    outer loop
      vertex 32.1274 18.734 2
      vertex 31.8209 17.7713 2
      vertex 30.9784 20.296 2
    endloop
  endfacet
  facet normal 0 0 -1
    outer loop
      vertex 32.6214 17.2231 2
      vertex 32.4194 17.832 2
      vertex 33.3314 20.296 2
    endloop
  endfacet
  facet normal 0 0 -1
    outer loop
      vertex 32.4194 17.832 2
      vertex 32.1274 18.734 2
      vertex 33.3314 20.296 2
    endloop
  endfacet
  facet normal 0 0 -1
    outer loop
      vertex 32.8234 16.6578 2
      vertex 32.6214 17.2231 2
      vertex 33.3314 20.296 2
    endloop
  endfacet
  facet normal 0 0 -1
    outer loop
      vertex 34.9824 11.08 2
      vertex 32.8234 16.6578 2
      vertex 33.3314 20.296 2
    endloop
  endfacet
  facet normal -0 0 1
    outer loop
      vertex 20.019 20.296 4
      vertex 16.414 11.34 4
      vertex 22.297 20.296 4
    endloop
  endfacet
  facet normal -0 0 1
    outer loop
      vertex 15.405 13.01 4
      vertex 16.414 11.34 4
      vertex 20.019 20.296 4
    endloop
  endfacet
  facet normal 0 0 1
    outer loop
      vertex 14.353 11.34 4
      vertex 16.414 11.34 4
      vertex 15.405 13.01 4
    endloop
  endfacet
  facet normal 0 0 1
    outer loop
      vertex 10.764 20.296 4
      vertex 8.487 20.296 4
      vertex 14.353 11.34 4
    endloop
  endfacet
  facet normal -0 0 1
    outer loop
      vertex 14.353 11.34 4
      vertex 16.414 5 4
      vertex 16.414 11.34 4
    endloop
  endfacet
  facet normal 0 0 1
    outer loop
      vertex 14.353 5 4
      vertex 16.414 5 4
      vertex 14.353 11.34 4
    endloop
  endfacet
  facet normal 0 0 1
    outer loop
      vertex 10.764 20.296 4
      vertex 14.353 11.34 4
      vertex 15.405 13.01 4
    endloop
  endfacet
  facet normal 0 0 1
    outer loop
      vertex 29.2824 11.08 4
      vertex 28.6554 9.46399 4
      vertex 35.5984 9.46399 4
    endloop
  endfacet
  facet normal 0 0 1
    outer loop
      vertex 34.9824 11.08 4
      vertex 35.5984 9.46399 4
      vertex 39.4544 5 4
    endloop
  endfacet
  facet normal 0 -0 1
    outer loop
      vertex 37.3394 5 4
      vertex 39.4544 5 4
      vertex 35.5984 9.46399 4
    endloop
  endfacet
  facet normal 0 0 1
    outer loop
      vertex 39.4544 5 4
      vertex 33.3314 20.296 4
      vertex 34.9824 11.08 4
    endloop
  endfacet
  facet normal -0 0 1
    outer loop
      vertex 29.2824 11.08 4
      vertex 35.5984 9.46399 4
      vertex 34.9824 11.08 4
    endloop
  endfacet
  facet normal 0 0 1
    outer loop
      vertex 28.6554 9.46399 4
      vertex 24.7564 5 4
      vertex 26.9034 5 4
    endloop
  endfacet
  facet normal 0 0 1
    outer loop
      vertex 29.2824 11.08 4
      vertex 24.7564 5 4
      vertex 28.6554 9.46399 4
    endloop
  endfacet
  facet normal 0 0 1
    outer loop
      vertex 30.9784 20.296 4
      vertex 24.7564 5 4
      vertex 29.2824 11.08 4
    endloop
  endfacet
  facet normal 0 0 1
    outer loop
      vertex 30.9784 20.296 4
      vertex 29.2824 11.08 4
      vertex 31.2294 16.114 4
    endloop
  endfacet
  facet normal 0 0 1
    outer loop
      vertex 30.9784 20.296 4
      vertex 31.2294 16.114 4
      vertex 31.5539 16.9993 4
    endloop
  endfacet
  facet normal 0 0 1
    outer loop
      vertex 30.9784 20.296 4
      vertex 31.5539 16.9993 4
      vertex 31.8209 17.7713 4
    endloop
  endfacet
  facet normal -0 0 1
    outer loop
      vertex 30.9784 20.296 4
      vertex 32.1274 18.734 4
      vertex 33.3314 20.296 4
    endloop
  endfacet
  facet normal 0 0 1
    outer loop
      vertex 30.9784 20.296 4
      vertex 31.8209 17.7713 4
      vertex 32.1274 18.734 4
    endloop
  endfacet
  facet normal 0 0 1
    outer loop
      vertex 33.3314 20.296 4
      vertex 32.4194 17.832 4
      vertex 32.6214 17.2231 4
    endloop
  endfacet
  facet normal 0 0 1
    outer loop
      vertex 33.3314 20.296 4
      vertex 32.1274 18.734 4
      vertex 32.4194 17.832 4
    endloop
  endfacet
  facet normal 0 0 1
    outer loop
      vertex 33.3314 20.296 4
      vertex 32.6214 17.2231 4
      vertex 32.8234 16.6578 4
    endloop
  endfacet
  facet normal 0 0 1
    outer loop
      vertex 33.3314 20.296 4
      vertex 32.8234 16.6578 4
      vertex 34.9824 11.08 4
    endloop
  endfacet
  facet normal 0.835806 -0.549024 0
    outer loop
      vertex 22.297 20.296 2
      vertex 16.414 11.34 4
      vertex 16.414 11.34 2
    endloop
  endfacet
  facet normal 0.835806 -0.549024 0
    outer loop
      vertex 22.297 20.296 2
      vertex 22.297 20.296 4
      vertex 16.414 11.34 4
    endloop
  endfacet
  facet normal 0 1 0
    outer loop
      vertex 20.019 20.296 2
      vertex 22.297 20.296 4
      vertex 22.297 20.296 2
    endloop
  endfacet
  facet normal 0 1 0
    outer loop
      vertex 20.019 20.296 2
      vertex 20.019 20.296 4
      vertex 22.297 20.296 4
    endloop
  endfacet
  facet normal -0.844843 0.535014 0
    outer loop
      vertex 15.405 13.01 2
      vertex 20.019 20.296 4
      vertex 20.019 20.296 2
    endloop
  endfacet
  facet normal -0.844843 0.535014 0
    outer loop
      vertex 15.405 13.01 2
      vertex 15.405 13.01 4
      vertex 20.019 20.296 4
    endloop
  endfacet
  facet normal 0.843427 0.537243 0
    outer loop
      vertex 10.764 20.296 2
      vertex 15.405 13.01 4
      vertex 15.405 13.01 2
    endloop
  endfacet
  facet normal 0.843427 0.537243 -0
    outer loop
      vertex 10.764 20.296 2
      vertex 10.764 20.296 4
      vertex 15.405 13.01 4
    endloop
  endfacet
  facet normal 0 1 0
    outer loop
      vertex 8.487 20.296 2
      vertex 10.764 20.296 4
      vertex 10.764 20.296 2
    endloop
  endfacet
  facet normal 0 1 0
    outer loop
      vertex 8.487 20.296 2
      vertex 8.487 20.296 4
      vertex 10.764 20.296 4
    endloop
  endfacet
  facet normal -0.836535 -0.547914 0
    outer loop
      vertex 14.353 11.34 2
      vertex 8.487 20.296 4
      vertex 8.487 20.296 2
    endloop
  endfacet
  facet normal -0.836535 -0.547914 0
    outer loop
      vertex 14.353 11.34 2
      vertex 14.353 11.34 4
      vertex 8.487 20.296 4
    endloop
  endfacet
  facet normal -1 0 0
    outer loop
      vertex 14.353 5 2
      vertex 14.353 11.34 4
      vertex 14.353 11.34 2
    endloop
  endfacet
  facet normal -1 0 0
    outer loop
      vertex 14.353 5 2
      vertex 14.353 5 4
      vertex 14.353 11.34 4
    endloop
  endfacet
  facet normal 0 -1 0
    outer loop
      vertex 16.414 5 2
      vertex 14.353 5 4
      vertex 14.353 5 2
    endloop
  endfacet
  facet normal 0 -1 0
    outer loop
      vertex 16.414 5 2
      vertex 16.414 5 4
      vertex 14.353 5 4
    endloop
  endfacet
  facet normal 1 0 0
    outer loop
      vertex 16.414 11.34 2
      vertex 16.414 5 4
      vertex 16.414 5 2
    endloop
  endfacet
  facet normal 1 0 -0
    outer loop
      vertex 16.414 11.34 2
      vertex 16.414 11.34 4
      vertex 16.414 5 4
    endloop
  endfacet
  facet normal 0 -1 0
    outer loop
      vertex 35.5984 9.46399 2
      vertex 28.6554 9.46399 4
      vertex 28.6554 9.46399 2
    endloop
  endfacet
  facet normal 0 -1 0
    outer loop
      vertex 35.5984 9.46399 2
      vertex 35.5984 9.46399 4
      vertex 28.6554 9.46399 4
    endloop
  endfacet
  facet normal -0.931652 -0.363353 0
    outer loop
      vertex 37.3394 5 2
      vertex 35.5984 9.46399 4
      vertex 35.5984 9.46399 2
    endloop
  endfacet
  facet normal -0.931652 -0.363353 0
    outer loop
      vertex 37.3394 5 2
      vertex 37.3394 5 4
      vertex 35.5984 9.46399 4
    endloop
  endfacet
  facet normal 0 -1 0
    outer loop
      vertex 39.4544 5 2
      vertex 37.3394 5 4
      vertex 37.3394 5 2
    endloop
  endfacet
  facet normal 0 -1 0
    outer loop
      vertex 39.4544 5 2
      vertex 39.4544 5 4
      vertex 37.3394 5 4
    endloop
  endfacet
  facet normal 0.92838 0.371632 0
    outer loop
      vertex 33.3314 20.296 2
      vertex 39.4544 5 4
      vertex 39.4544 5 2
    endloop
  endfacet
  facet normal 0.92838 0.371632 -0
    outer loop
      vertex 33.3314 20.296 2
      vertex 33.3314 20.296 4
      vertex 39.4544 5 4
    endloop
  endfacet
  facet normal 0 1 0
    outer loop
      vertex 30.9784 20.296 2
      vertex 33.3314 20.296 4
      vertex 33.3314 20.296 2
    endloop
  endfacet
  facet normal 0 1 0
    outer loop
      vertex 30.9784 20.296 2
      vertex 30.9784 20.296 4
      vertex 33.3314 20.296 4
    endloop
  endfacet
  facet normal -0.926297 0.376793 0
    outer loop
      vertex 24.7564 5 2
      vertex 30.9784 20.296 4
      vertex 30.9784 20.296 2
    endloop
  endfacet
  facet normal -0.926297 0.376793 0
    outer loop
      vertex 24.7564 5 2
      vertex 24.7564 5 4
      vertex 30.9784 20.296 4
    endloop
  endfacet
  facet normal 0 -1 0
    outer loop
      vertex 26.9034 5 2
      vertex 24.7564 5 4
      vertex 24.7564 5 2
    endloop
  endfacet
  facet normal 0 -1 0
    outer loop
      vertex 26.9034 5 2
      vertex 26.9034 5 4
      vertex 24.7564 5 4
    endloop
  endfacet
  facet normal 0.930873 -0.365343 0
    outer loop
      vertex 28.6554 9.46399 2
      vertex 26.9034 5 4
      vertex 26.9034 5 2
    endloop
  endfacet
  facet normal 0.930873 -0.365343 0
    outer loop
      vertex 28.6554 9.46399 2
      vertex 28.6554 9.46399 4
      vertex 26.9034 5 4
    endloop
  endfacet
  facet normal 0.932671 -0.360729 0
    outer loop
      vertex 31.2294 16.114 2
      vertex 31.2294 16.114 4
      vertex 29.2824 11.08 2
    endloop
  endfacet
  facet normal 0.932671 -0.360729 0
    outer loop
      vertex 29.2824 11.08 4
      vertex 29.2824 11.08 2
      vertex 31.2294 16.114 4
    endloop
  endfacet
  facet normal 0.938899 -0.344192 0
    outer loop
      vertex 31.5539 16.9993 2
      vertex 31.5539 16.9993 4
      vertex 31.2294 16.114 2
    endloop
  endfacet
  facet normal 0.938899 -0.344192 0
    outer loop
      vertex 31.2294 16.114 4
      vertex 31.2294 16.114 2
      vertex 31.5539 16.9993 4
    endloop
  endfacet
  facet normal 0.945074 -0.326855 0
    outer loop
      vertex 31.8209 17.7713 2
      vertex 31.8209 17.7713 4
      vertex 31.5539 16.9993 2
    endloop
  endfacet
  facet normal 0.945074 -0.326855 0
    outer loop
      vertex 31.5539 16.9993 4
      vertex 31.5539 16.9993 2
      vertex 31.8209 17.7713 4
    endloop
  endfacet
  facet normal 0.952886 -0.30333 0
    outer loop
      vertex 32.1274 18.734 2
      vertex 32.1274 18.734 4
      vertex 31.8209 17.7713 2
    endloop
  endfacet
  facet normal 0.952886 -0.30333 0
    outer loop
      vertex 31.8209 17.7713 4
      vertex 31.8209 17.7713 2
      vertex 32.1274 18.734 4
    endloop
  endfacet
  facet normal -0.951388 -0.307993 0
    outer loop
      vertex 32.4194 17.832 2
      vertex 32.4194 17.832 4
      vertex 32.1274 18.734 2
    endloop
  endfacet
  facet normal -0.951388 -0.307993 -0
    outer loop
      vertex 32.1274 18.734 4
      vertex 32.1274 18.734 2
      vertex 32.4194 17.832 4
    endloop
  endfacet
  facet normal -0.949134 -0.314872 0
    outer loop
      vertex 32.6214 17.2231 2
      vertex 32.6214 17.2231 4
      vertex 32.4194 17.832 2
    endloop
  endfacet
  facet normal -0.949134 -0.314872 -0
    outer loop
      vertex 32.4194 17.832 4
      vertex 32.4194 17.832 2
      vertex 32.6214 17.2231 4
    endloop
  endfacet
  facet normal -0.941692 -0.336476 0
    outer loop
      vertex 32.8234 16.6578 2
      vertex 32.8234 16.6578 4
      vertex 32.6214 17.2231 2
    endloop
  endfacet
  facet normal -0.941692 -0.336476 -0
    outer loop
      vertex 32.6214 17.2231 4
      vertex 32.6214 17.2231 2
      vertex 32.8234 16.6578 4
    endloop
  endfacet
  facet normal -0.932576 -0.360975 0
    outer loop
      vertex 34.9824 11.08 2
      vertex 34.9824 11.08 4
      vertex 32.8234 16.6578 2
    endloop
  endfacet
  facet normal -0.932576 -0.360975 -0
    outer loop
      vertex 32.8234 16.6578 4
      vertex 32.8234 16.6578 2
      vertex 34.9824 11.08 4
    endloop
  endfacet
  facet normal 0 1 0
    outer loop
      vertex 29.2824 11.08 2
      vertex 29.2824 11.08 4
      vertex 34.9824 11.08 2
    endloop
  endfacet
  facet normal 0 1 0
    outer loop
      vertex 34.9824 11.08 4
      vertex 34.9824 11.08 2
      vertex 29.2824 11.08 4
    endloop
  endfacet
endsolid OpenSCAD_Model
