solid OpenSCAD_Model
  facet normal -0 0 -1
    outer loop
      vertex 22.297 20.296 2
      vertex 16.414 11.34 2
      vertex 20.019 20.296 2
    endloop
  endfacet
  facet normal 0 0 -1
    outer loop
      vertex 39.6796 5 2
      vertex 29.8636 6.69199 2
      vertex 39.6796 6.69199 2
    endloop
  endfacet
  facet normal 0 0 -1
    outer loop
      vertex 20.019 20.296 2
      vertex 16.414 11.34 2
      vertex 15.405 13.01 2
    endloop
  endfacet
  facet normal 0 -0 -1
    outer loop
      vertex 15.405 13.01 2
      vertex 16.414 11.34 2
      vertex 14.353 11.34 2
    endloop
  endfacet
  facet normal 0 0 -1
    outer loop
      vertex 14.353 11.34 2
      vertex 8.487 20.296 2
      vertex 10.764 20.296 2
    endloop
  endfacet
  facet normal -0 -0 -1
    outer loop
      vertex 16.414 11.34 2
      vertex 16.414 5 2
      vertex 14.353 11.34 2
    endloop
  endfacet
  facet normal 0 0 -1
    outer loop
      vertex 14.353 11.34 2
      vertex 16.414 5 2
      vertex 14.353 5 2
    endloop
  endfacet
  facet normal -0 0 -1
    outer loop
      vertex 15.405 13.01 2
      vertex 14.353 11.34 2
      vertex 10.764 20.296 2
    endloop
  endfacet
  facet normal 0 0 -1
    outer loop
      vertex 27.5106 5 2
      vertex 27.5106 6.55099 2
      vertex 29.8636 6.69199 2
    endloop
  endfacet
  facet normal 0 0 -1
    outer loop
      vertex 28.3026 20.296 2
      vertex 36.8166 18.604 2
      vertex 28.3026 18.604 2
    endloop
  endfacet
  facet normal 0 0 -1
    outer loop
      vertex 28.3026 20.296 2
      vertex 39.1696 20.296 2
      vertex 36.8166 18.604 2
    endloop
  endfacet
  facet normal 0 -0 -1
    outer loop
      vertex 39.1696 20.296 2
      vertex 39.1696 18.789 2
      vertex 36.8166 18.604 2
    endloop
  endfacet
  facet normal 0 0 -1
    outer loop
      vertex 39.6796 5 2
      vertex 27.5106 5 2
      vertex 29.8636 6.69199 2
    endloop
  endfacet
  facet normal 0 -0 -1
    outer loop
      vertex 36.8166 18.604 2
      vertex 39.1696 18.789 2
      vertex 29.8636 6.69199 2
    endloop
  endfacet
  facet normal -0 0 -1
    outer loop
      vertex 29.8636 6.69199 2
      vertex 27.5106 6.55099 2
      vertex 36.8166 18.604 2
    endloop
  endfacet
  facet normal -0 0 1
    outer loop
      vertex 20.019 20.296 4
      vertex 16.414 11.34 4
      vertex 22.297 20.296 4
    endloop
  endfacet
  facet normal 0 0 1
    outer loop
      vertex 39.6796 6.69199 4
      vertex 29.8636 6.69199 4
      vertex 39.6796 5 4
    endloop
  endfacet
  facet normal -0 0 1
    outer loop
      vertex 15.405 13.01 4
      vertex 16.414 11.34 4
      vertex 20.019 20.296 4
    endloop
  endfacet
  facet normal 0 0 1
    outer loop
      vertex 14.353 11.34 4
      vertex 16.414 11.34 4
      vertex 15.405 13.01 4
    endloop
  endfacet
  facet normal 0 0 1
    outer loop
      vertex 10.764 20.296 4
      vertex 8.487 20.296 4
      vertex 14.353 11.34 4
    endloop
  endfacet
  facet normal -0 0 1
    outer loop
      vertex 14.353 11.34 4
      vertex 16.414 5 4
      vertex 16.414 11.34 4
    endloop
  endfacet
  facet normal 0 0 1
    outer loop
      vertex 14.353 5 4
      vertex 16.414 5 4
      vertex 14.353 11.34 4
    endloop
  endfacet
  facet normal 0 0 1
    outer loop
      vertex 10.764 20.296 4
      vertex 14.353 11.34 4
      vertex 15.405 13.01 4
    endloop
  endfacet
  facet normal 0 0 1
    outer loop
      vertex 29.8636 6.69199 4
      vertex 27.5106 6.55099 4
      vertex 27.5106 5 4
    endloop
  endfacet
  facet normal 0 0 1
    outer loop
      vertex 28.3026 18.604 4
      vertex 36.8166 18.604 4
      vertex 28.3026 20.296 4
    endloop
  endfacet
  facet normal 0 -0 1
    outer loop
      vertex 36.8166 18.604 4
      vertex 39.1696 20.296 4
      vertex 28.3026 20.296 4
    endloop
  endfacet
  facet normal 0 0 1
    outer loop
      vertex 36.8166 18.604 4
      vertex 39.1696 18.789 4
      vertex 39.1696 20.296 4
    endloop
  endfacet
  facet normal 0 0 1
    outer loop
      vertex 29.8636 6.69199 4
      vertex 27.5106 5 4
      vertex 39.6796 5 4
    endloop
  endfacet
  facet normal 0 0 1
    outer loop
      vertex 29.8636 6.69199 4
      vertex 39.1696 18.789 4
      vertex 36.8166 18.604 4
    endloop
  endfacet
  facet normal 0 0 1
    outer loop
      vertex 36.8166 18.604 4
      vertex 27.5106 6.55099 4
      vertex 29.8636 6.69199 4
    endloop
  endfacet
  facet normal 0.835806 -0.549024 0
    outer loop
      vertex 22.297 20.296 2
      vertex 16.414 11.34 4
      vertex 16.414 11.34 2
    endloop
  endfacet
  facet normal 0.835806 -0.549024 0
    outer loop
      vertex 22.297 20.296 2
      vertex 22.297 20.296 4
      vertex 16.414 11.34 4
    endloop
  endfacet
  facet normal 0 1 0
    outer loop
      vertex 20.019 20.296 2
      vertex 22.297 20.296 4
      vertex 22.297 20.296 2
    endloop
  endfacet
  facet normal 0 1 0
    outer loop
      vertex 20.019 20.296 2
      vertex 20.019 20.296 4
      vertex 22.297 20.296 4
    endloop
  endfacet
  facet normal -0.844843 0.535014 0
    outer loop
      vertex 15.405 13.01 2
      vertex 20.019 20.296 4
      vertex 20.019 20.296 2
    endloop
  endfacet
  facet normal -0.844843 0.535014 0
    outer loop
      vertex 15.405 13.01 2
      vertex 15.405 13.01 4
      vertex 20.019 20.296 4
    endloop
  endfacet
  facet normal 0.843427 0.537243 0
    outer loop
      vertex 10.764 20.296 2
      vertex 15.405 13.01 4
      vertex 15.405 13.01 2
    endloop
  endfacet
  facet normal 0.843427 0.537243 -0
    outer loop
      vertex 10.764 20.296 2
      vertex 10.764 20.296 4
      vertex 15.405 13.01 4
    endloop
  endfacet
  facet normal 0 1 0
    outer loop
      vertex 8.487 20.296 2
      vertex 10.764 20.296 4
      vertex 10.764 20.296 2
    endloop
  endfacet
  facet normal 0 1 0
    outer loop
      vertex 8.487 20.296 2
      vertex 8.487 20.296 4
      vertex 10.764 20.296 4
    endloop
  endfacet
  facet normal -0.836535 -0.547914 0
    outer loop
      vertex 14.353 11.34 2
      vertex 8.487 20.296 4
      vertex 8.487 20.296 2
    endloop
  endfacet
  facet normal -0.836535 -0.547914 0
    outer loop
      vertex 14.353 11.34 2
      vertex 14.353 11.34 4
      vertex 8.487 20.296 4
    endloop
  endfacet
  facet normal -1 0 0
    outer loop
      vertex 14.353 5 2
      vertex 14.353 11.34 4
      vertex 14.353 11.34 2
    endloop
  endfacet
  facet normal -1 0 0
    outer loop
      vertex 14.353 5 2
      vertex 14.353 5 4
      vertex 14.353 11.34 4
    endloop
  endfacet
  facet normal 0 -1 0
    outer loop
      vertex 16.414 5 2
      vertex 14.353 5 4
      vertex 14.353 5 2
    endloop
  endfacet
  facet normal 0 -1 0
    outer loop
      vertex 16.414 5 2
      vertex 16.414 5 4
      vertex 14.353 5 4
    endloop
  endfacet
  facet normal 1 0 0
    outer loop
      vertex 16.414 11.34 2
      vertex 16.414 5 4
      vertex 16.414 5 2
    endloop
  endfacet
  facet normal 1 0 -0
    outer loop
      vertex 16.414 11.34 2
      vertex 16.414 11.34 4
      vertex 16.414 5 4
    endloop
  endfacet
  facet normal 0 1 0
    outer loop
      vertex 29.8636 6.69199 2
      vertex 39.6796 6.69199 4
      vertex 39.6796 6.69199 2
    endloop
  endfacet
  facet normal 0 1 0
    outer loop
      vertex 29.8636 6.69199 2
      vertex 29.8636 6.69199 4
      vertex 39.6796 6.69199 4
    endloop
  endfacet
  facet normal 0.792605 -0.609736 0
    outer loop
      vertex 39.1696 18.789 2
      vertex 29.8636 6.69199 4
      vertex 29.8636 6.69199 2
    endloop
  endfacet
  facet normal 0.792605 -0.609736 0
    outer loop
      vertex 39.1696 18.789 2
      vertex 39.1696 18.789 4
      vertex 29.8636 6.69199 4
    endloop
  endfacet
  facet normal 1 0 0
    outer loop
      vertex 39.1696 20.296 2
      vertex 39.1696 18.789 4
      vertex 39.1696 18.789 2
    endloop
  endfacet
  facet normal 1 0 -0
    outer loop
      vertex 39.1696 20.296 2
      vertex 39.1696 20.296 4
      vertex 39.1696 18.789 4
    endloop
  endfacet
  facet normal 0 1 0
    outer loop
      vertex 28.3026 20.296 2
      vertex 39.1696 20.296 4
      vertex 39.1696 20.296 2
    endloop
  endfacet
  facet normal 0 1 0
    outer loop
      vertex 28.3026 20.296 2
      vertex 28.3026 20.296 4
      vertex 39.1696 20.296 4
    endloop
  endfacet
  facet normal -1 0 0
    outer loop
      vertex 28.3026 18.604 2
      vertex 28.3026 20.296 4
      vertex 28.3026 20.296 2
    endloop
  endfacet
  facet normal -1 0 0
    outer loop
      vertex 28.3026 18.604 2
      vertex 28.3026 18.604 4
      vertex 28.3026 20.296 4
    endloop
  endfacet
  facet normal 0 -1 0
    outer loop
      vertex 36.8166 18.604 2
      vertex 28.3026 18.604 4
      vertex 28.3026 18.604 2
    endloop
  endfacet
  facet normal 0 -1 0
    outer loop
      vertex 36.8166 18.604 2
      vertex 36.8166 18.604 4
      vertex 28.3026 18.604 4
    endloop
  endfacet
  facet normal -0.791529 0.611132 0
    outer loop
      vertex 27.5106 6.55099 2
      vertex 36.8166 18.604 4
      vertex 36.8166 18.604 2
    endloop
  endfacet
  facet normal -0.791529 0.611132 0
    outer loop
      vertex 27.5106 6.55099 2
      vertex 27.5106 6.55099 4
      vertex 36.8166 18.604 4
    endloop
  endfacet
  facet normal -1 0 0
    outer loop
      vertex 27.5106 5 2
      vertex 27.5106 6.55099 4
      vertex 27.5106 6.55099 2
    endloop
  endfacet
  facet normal -1 0 0
    outer loop
      vertex 27.5106 5 2
      vertex 27.5106 5 4
      vertex 27.5106 6.55099 4
    endloop
  endfacet
  facet normal 0 -1 0
    outer loop
      vertex 39.6796 5 2
      vertex 27.5106 5 4
      vertex 27.5106 5 2
    endloop
  endfacet
  facet normal 0 -1 0
    outer loop
      vertex 39.6796 5 2
      vertex 39.6796 5 4
      vertex 27.5106 5 4
    endloop
  endfacet
  facet normal 1 0 0
    outer loop
      vertex 39.6796 6.69199 2
      vertex 39.6796 5 4
      vertex 39.6796 5 2
    endloop
  endfacet
  facet normal 1 0 -0
    outer loop
      vertex 39.6796 6.69199 2
      vertex 39.6796 6.69199 4
      vertex 39.6796 5 4
    endloop
  endfacet
endsolid OpenSCAD_Model
