solid OpenSCAD_Model
  facet normal 0 0 -1
    outer loop
      vertex 9.49699 20.296 2
      vertex 20.364 20.296 2
      vertex 18.011 18.604 2
    endloop
  endfacet
  facet normal 0 0 -1
    outer loop
      vertex 11.058 6.69199 2
      vertex 20.874 6.69199 2
      vertex 20.874 5 2
    endloop
  endfacet
  facet normal 0 0 -1
    outer loop
      vertex 11.058 6.69199 2
      vertex 8.70499 5 2
      vertex 8.70499 6.55099 2
    endloop
  endfacet
  facet normal 0 0 -1
    outer loop
      vertex 29.1645 9.46399 2
      vertex 29.7915 11.08 2
      vertex 36.1075 9.46399 2
    endloop
  endfacet
  facet normal 0 0 -1
    outer loop
      vertex 31.7384 16.114 2
      vertex 31.4875 20.296 2
      vertex 32.063 16.9993 2
    endloop
  endfacet
  facet normal 0 0 -1
    outer loop
      vertex 9.49699 18.604 2
      vertex 9.49699 20.296 2
      vertex 18.011 18.604 2
    endloop
  endfacet
  facet normal 0 0 -1
    outer loop
      vertex 20.874 5 2
      vertex 8.70499 5 2
      vertex 11.058 6.69199 2
    endloop
  endfacet
  facet normal 0 0 -1
    outer loop
      vertex 11.058 6.69199 2
      vertex 18.011 18.604 2
      vertex 20.364 18.789 2
    endloop
  endfacet
  facet normal 0 0 -1
    outer loop
      vertex 18.011 18.604 2
      vertex 20.364 20.296 2
      vertex 20.364 18.789 2
    endloop
  endfacet
  facet normal -0 0 -1
    outer loop
      vertex 11.058 6.69199 2
      vertex 8.70499 6.55099 2
      vertex 18.011 18.604 2
    endloop
  endfacet
  facet normal 0 0 -1
    outer loop
      vertex 25.2655 5 2
      vertex 31.4875 20.296 2
      vertex 29.7915 11.08 2
    endloop
  endfacet
  facet normal 0 0 -1
    outer loop
      vertex 29.7915 11.08 2
      vertex 35.4915 11.08 2
      vertex 36.1075 9.46399 2
    endloop
  endfacet
  facet normal 0 0 -1
    outer loop
      vertex 36.1075 9.46399 2
      vertex 35.4915 11.08 2
      vertex 39.9635 5 2
    endloop
  endfacet
  facet normal 0 0 -1
    outer loop
      vertex 39.9635 5 2
      vertex 37.8484 5 2
      vertex 36.1075 9.46399 2
    endloop
  endfacet
  facet normal 0 0 -1
    outer loop
      vertex 33.8405 20.296 2
      vertex 39.9635 5 2
      vertex 35.4915 11.08 2
    endloop
  endfacet
  facet normal 0 0 -1
    outer loop
      vertex 27.4125 5 2
      vertex 25.2655 5 2
      vertex 29.1645 9.46399 2
    endloop
  endfacet
  facet normal -0 0 -1
    outer loop
      vertex 29.1645 9.46399 2
      vertex 25.2655 5 2
      vertex 29.7915 11.08 2
    endloop
  endfacet
  facet normal 0 0 -1
    outer loop
      vertex 29.7915 11.08 2
      vertex 31.4875 20.296 2
      vertex 31.7384 16.114 2
    endloop
  endfacet
  facet normal 0 0 -1
    outer loop
      vertex 32.6365 18.734 2
      vertex 33.8405 20.296 2
      vertex 32.9285 17.832 2
    endloop
  endfacet
  facet normal 0 0 -1
    outer loop
      vertex 32.063 16.9993 2
      vertex 31.4875 20.296 2
      vertex 32.33 17.7713 2
    endloop
  endfacet
  facet normal 0 0 -1
    outer loop
      vertex 32.33 17.7713 2
      vertex 31.4875 20.296 2
      vertex 32.6365 18.734 2
    endloop
  endfacet
  facet normal 0 0 -1
    outer loop
      vertex 32.6365 18.734 2
      vertex 31.4875 20.296 2
      vertex 33.8405 20.296 2
    endloop
  endfacet
  facet normal 0 0 -1
    outer loop
      vertex 32.9285 17.832 2
      vertex 33.8405 20.296 2
      vertex 33.1304 17.2231 2
    endloop
  endfacet
  facet normal 0 0 -1
    outer loop
      vertex 33.1304 17.2231 2
      vertex 33.8405 20.296 2
      vertex 33.3325 16.6578 2
    endloop
  endfacet
  facet normal 0 0 -1
    outer loop
      vertex 33.3325 16.6578 2
      vertex 33.8405 20.296 2
      vertex 35.4915 11.08 2
    endloop
  endfacet
  facet normal 0 -0 1
    outer loop
      vertex 18.011 18.604 4
      vertex 20.364 20.296 4
      vertex 9.49699 20.296 4
    endloop
  endfacet
  facet normal 0 -0 1
    outer loop
      vertex 20.874 5 4
      vertex 20.874 6.69199 4
      vertex 11.058 6.69199 4
    endloop
  endfacet
  facet normal -0 0 1
    outer loop
      vertex 8.70499 6.55099 4
      vertex 8.70499 5 4
      vertex 11.058 6.69199 4
    endloop
  endfacet
  facet normal 0 0 1
    outer loop
      vertex 36.1075 9.46399 4
      vertex 29.7915 11.08 4
      vertex 29.1645 9.46399 4
    endloop
  endfacet
  facet normal 0 0 1
    outer loop
      vertex 32.063 16.9993 4
      vertex 31.4875 20.296 4
      vertex 31.7384 16.114 4
    endloop
  endfacet
  facet normal 0 0 1
    outer loop
      vertex 18.011 18.604 4
      vertex 9.49699 20.296 4
      vertex 9.49699 18.604 4
    endloop
  endfacet
  facet normal 0 0 1
    outer loop
      vertex 11.058 6.69199 4
      vertex 8.70499 5 4
      vertex 20.874 5 4
    endloop
  endfacet
  facet normal 0 0 1
    outer loop
      vertex 20.364 18.789 4
      vertex 18.011 18.604 4
      vertex 11.058 6.69199 4
    endloop
  endfacet
  facet normal 0 -0 1
    outer loop
      vertex 20.364 18.789 4
      vertex 20.364 20.296 4
      vertex 18.011 18.604 4
    endloop
  endfacet
  facet normal 0 0 1
    outer loop
      vertex 18.011 18.604 4
      vertex 8.70499 6.55099 4
      vertex 11.058 6.69199 4
    endloop
  endfacet
  facet normal 0 -0 1
    outer loop
      vertex 29.7915 11.08 4
      vertex 31.4875 20.296 4
      vertex 25.2655 5 4
    endloop
  endfacet
  facet normal 0 0 1
    outer loop
      vertex 36.1075 9.46399 4
      vertex 35.4915 11.08 4
      vertex 29.7915 11.08 4
    endloop
  endfacet
  facet normal 0 0 1
    outer loop
      vertex 39.9635 5 4
      vertex 35.4915 11.08 4
      vertex 36.1075 9.46399 4
    endloop
  endfacet
  facet normal 0 0 1
    outer loop
      vertex 36.1075 9.46399 4
      vertex 37.8484 5 4
      vertex 39.9635 5 4
    endloop
  endfacet
  facet normal -0 -0 1
    outer loop
      vertex 35.4915 11.08 4
      vertex 39.9635 5 4
      vertex 33.8405 20.296 4
    endloop
  endfacet
  facet normal 0 0 1
    outer loop
      vertex 29.1645 9.46399 4
      vertex 25.2655 5 4
      vertex 27.4125 5 4
    endloop
  endfacet
  facet normal 0 0 1
    outer loop
      vertex 29.7915 11.08 4
      vertex 25.2655 5 4
      vertex 29.1645 9.46399 4
    endloop
  endfacet
  facet normal 0 0 1
    outer loop
      vertex 31.7384 16.114 4
      vertex 31.4875 20.296 4
      vertex 29.7915 11.08 4
    endloop
  endfacet
  facet normal 0 -0 1
    outer loop
      vertex 32.9285 17.832 4
      vertex 33.8405 20.296 4
      vertex 32.6365 18.734 4
    endloop
  endfacet
  facet normal 0 0 1
    outer loop
      vertex 32.33 17.7713 4
      vertex 31.4875 20.296 4
      vertex 32.063 16.9993 4
    endloop
  endfacet
  facet normal 0 0 1
    outer loop
      vertex 32.6365 18.734 4
      vertex 31.4875 20.296 4
      vertex 32.33 17.7713 4
    endloop
  endfacet
  facet normal 0 0 1
    outer loop
      vertex 33.8405 20.296 4
      vertex 31.4875 20.296 4
      vertex 32.6365 18.734 4
    endloop
  endfacet
  facet normal 0 -0 1
    outer loop
      vertex 33.1304 17.2231 4
      vertex 33.8405 20.296 4
      vertex 32.9285 17.832 4
    endloop
  endfacet
  facet normal 0 -0 1
    outer loop
      vertex 33.3325 16.6578 4
      vertex 33.8405 20.296 4
      vertex 33.1304 17.2231 4
    endloop
  endfacet
  facet normal 0 0 1
    outer loop
      vertex 35.4915 11.08 4
      vertex 33.8405 20.296 4
      vertex 33.3325 16.6578 4
    endloop
  endfacet
  facet normal 0 1 0
    outer loop
      vertex 11.058 6.69199 2
      vertex 20.874 6.69199 4
      vertex 20.874 6.69199 2
    endloop
  endfacet
  facet normal 0 1 0
    outer loop
      vertex 11.058 6.69199 2
      vertex 11.058 6.69199 4
      vertex 20.874 6.69199 4
    endloop
  endfacet
  facet normal 0.792605 -0.609736 0
    outer loop
      vertex 20.364 18.789 2
      vertex 11.058 6.69199 4
      vertex 11.058 6.69199 2
    endloop
  endfacet
  facet normal 0.792605 -0.609736 0
    outer loop
      vertex 20.364 18.789 2
      vertex 20.364 18.789 4
      vertex 11.058 6.69199 4
    endloop
  endfacet
  facet normal 1 0 0
    outer loop
      vertex 20.364 20.296 2
      vertex 20.364 18.789 4
      vertex 20.364 18.789 2
    endloop
  endfacet
  facet normal 1 0 -0
    outer loop
      vertex 20.364 20.296 2
      vertex 20.364 20.296 4
      vertex 20.364 18.789 4
    endloop
  endfacet
  facet normal 0 1 0
    outer loop
      vertex 9.49699 20.296 2
      vertex 20.364 20.296 4
      vertex 20.364 20.296 2
    endloop
  endfacet
  facet normal 0 1 0
    outer loop
      vertex 9.49699 20.296 2
      vertex 9.49699 20.296 4
      vertex 20.364 20.296 4
    endloop
  endfacet
  facet normal -1 0 0
    outer loop
      vertex 9.49699 18.604 2
      vertex 9.49699 20.296 4
      vertex 9.49699 20.296 2
    endloop
  endfacet
  facet normal -1 0 0
    outer loop
      vertex 9.49699 18.604 2
      vertex 9.49699 18.604 4
      vertex 9.49699 20.296 4
    endloop
  endfacet
  facet normal 0 -1 0
    outer loop
      vertex 18.011 18.604 2
      vertex 9.49699 18.604 4
      vertex 9.49699 18.604 2
    endloop
  endfacet
  facet normal 0 -1 0
    outer loop
      vertex 18.011 18.604 2
      vertex 18.011 18.604 4
      vertex 9.49699 18.604 4
    endloop
  endfacet
  facet normal -0.791529 0.611132 0
    outer loop
      vertex 8.70499 6.55099 2
      vertex 18.011 18.604 4
      vertex 18.011 18.604 2
    endloop
  endfacet
  facet normal -0.791529 0.611132 0
    outer loop
      vertex 8.70499 6.55099 2
      vertex 8.70499 6.55099 4
      vertex 18.011 18.604 4
    endloop
  endfacet
  facet normal -1 0 0
    outer loop
      vertex 8.70499 5 2
      vertex 8.70499 6.55099 4
      vertex 8.70499 6.55099 2
    endloop
  endfacet
  facet normal -1 0 0
    outer loop
      vertex 8.70499 5 2
      vertex 8.70499 5 4
      vertex 8.70499 6.55099 4
    endloop
  endfacet
  facet normal 0 -1 0
    outer loop
      vertex 20.874 5 2
      vertex 8.70499 5 4
      vertex 8.70499 5 2
    endloop
  endfacet
  facet normal 0 -1 0
    outer loop
      vertex 20.874 5 2
      vertex 20.874 5 4
      vertex 8.70499 5 4
    endloop
  endfacet
  facet normal 1 0 0
    outer loop
      vertex 20.874 6.69199 2
      vertex 20.874 5 4
      vertex 20.874 5 2
    endloop
  endfacet
  facet normal 1 0 -0
    outer loop
      vertex 20.874 6.69199 2
      vertex 20.874 6.69199 4
      vertex 20.874 5 4
    endloop
  endfacet
  facet normal 0 -1 0
    outer loop
      vertex 36.1075 9.46399 2
      vertex 29.1645 9.46399 4
      vertex 29.1645 9.46399 2
    endloop
  endfacet
  facet normal 0 -1 0
    outer loop
      vertex 36.1075 9.46399 2
      vertex 36.1075 9.46399 4
      vertex 29.1645 9.46399 4
    endloop
  endfacet
  facet normal -0.931652 -0.363353 0
    outer loop
      vertex 37.8484 5 2
      vertex 36.1075 9.46399 4
      vertex 36.1075 9.46399 2
    endloop
  endfacet
  facet normal -0.931652 -0.363353 0
    outer loop
      vertex 37.8484 5 2
      vertex 37.8484 5 4
      vertex 36.1075 9.46399 4
    endloop
  endfacet
  facet normal 0 -1 0
    outer loop
      vertex 39.9635 5 2
      vertex 37.8484 5 4
      vertex 37.8484 5 2
    endloop
  endfacet
  facet normal 0 -1 0
    outer loop
      vertex 39.9635 5 2
      vertex 39.9635 5 4
      vertex 37.8484 5 4
    endloop
  endfacet
  facet normal 0.92838 0.371632 0
    outer loop
      vertex 33.8405 20.296 2
      vertex 39.9635 5 4
      vertex 39.9635 5 2
    endloop
  endfacet
  facet normal 0.92838 0.371632 -0
    outer loop
      vertex 33.8405 20.296 2
      vertex 33.8405 20.296 4
      vertex 39.9635 5 4
    endloop
  endfacet
  facet normal 0 1 0
    outer loop
      vertex 31.4875 20.296 2
      vertex 33.8405 20.296 4
      vertex 33.8405 20.296 2
    endloop
  endfacet
  facet normal 0 1 0
    outer loop
      vertex 31.4875 20.296 2
      vertex 31.4875 20.296 4
      vertex 33.8405 20.296 4
    endloop
  endfacet
  facet normal -0.926297 0.376793 0
    outer loop
      vertex 25.2655 5 2
      vertex 31.4875 20.296 4
      vertex 31.4875 20.296 2
    endloop
  endfacet
  facet normal -0.926297 0.376793 0
    outer loop
      vertex 25.2655 5 2
      vertex 25.2655 5 4
      vertex 31.4875 20.296 4
    endloop
  endfacet
  facet normal 0 -1 0
    outer loop
      vertex 27.4125 5 2
      vertex 25.2655 5 4
      vertex 25.2655 5 2
    endloop
  endfacet
  facet normal 0 -1 0
    outer loop
      vertex 27.4125 5 2
      vertex 27.4125 5 4
      vertex 25.2655 5 4
    endloop
  endfacet
  facet normal 0.930873 -0.365343 0
    outer loop
      vertex 29.1645 9.46399 2
      vertex 27.4125 5 4
      vertex 27.4125 5 2
    endloop
  endfacet
  facet normal 0.930873 -0.365343 0
    outer loop
      vertex 29.1645 9.46399 2
      vertex 29.1645 9.46399 4
      vertex 27.4125 5 4
    endloop
  endfacet
  facet normal 0.932672 -0.360727 0
    outer loop
      vertex 31.7384 16.114 2
      vertex 31.7384 16.114 4
      vertex 29.7915 11.08 2
    endloop
  endfacet
  facet normal 0.932672 -0.360727 0
    outer loop
      vertex 29.7915 11.08 4
      vertex 29.7915 11.08 2
      vertex 31.7384 16.114 4
    endloop
  endfacet
  facet normal 0.938899 -0.344192 0
    outer loop
      vertex 32.063 16.9993 2
      vertex 32.063 16.9993 4
      vertex 31.7384 16.114 2
    endloop
  endfacet
  facet normal 0.938899 -0.344192 0
    outer loop
      vertex 31.7384 16.114 4
      vertex 31.7384 16.114 2
      vertex 32.063 16.9993 4
    endloop
  endfacet
  facet normal 0.945074 -0.326855 0
    outer loop
      vertex 32.33 17.7713 2
      vertex 32.33 17.7713 4
      vertex 32.063 16.9993 2
    endloop
  endfacet
  facet normal 0.945074 -0.326855 0
    outer loop
      vertex 32.063 16.9993 4
      vertex 32.063 16.9993 2
      vertex 32.33 17.7713 4
    endloop
  endfacet
  facet normal 0.952881 -0.303344 0
    outer loop
      vertex 32.6365 18.734 2
      vertex 32.6365 18.734 4
      vertex 32.33 17.7713 2
    endloop
  endfacet
  facet normal 0.952881 -0.303344 0
    outer loop
      vertex 32.33 17.7713 4
      vertex 32.33 17.7713 2
      vertex 32.6365 18.734 4
    endloop
  endfacet
  facet normal -0.951393 -0.307979 0
    outer loop
      vertex 32.9285 17.832 2
      vertex 32.9285 17.832 4
      vertex 32.6365 18.734 2
    endloop
  endfacet
  facet normal -0.951393 -0.307979 -0
    outer loop
      vertex 32.6365 18.734 4
      vertex 32.6365 18.734 2
      vertex 32.9285 17.832 4
    endloop
  endfacet
  facet normal -0.949134 -0.314872 0
    outer loop
      vertex 33.1304 17.2231 2
      vertex 33.1304 17.2231 4
      vertex 32.9285 17.832 2
    endloop
  endfacet
  facet normal -0.949134 -0.314872 -0
    outer loop
      vertex 32.9285 17.832 4
      vertex 32.9285 17.832 2
      vertex 33.1304 17.2231 4
    endloop
  endfacet
  facet normal -0.941684 -0.336499 0
    outer loop
      vertex 33.3325 16.6578 2
      vertex 33.3325 16.6578 4
      vertex 33.1304 17.2231 2
    endloop
  endfacet
  facet normal -0.941684 -0.336499 -0
    outer loop
      vertex 33.1304 17.2231 4
      vertex 33.1304 17.2231 2
      vertex 33.3325 16.6578 4
    endloop
  endfacet
  facet normal -0.932576 -0.360973 0
    outer loop
      vertex 35.4915 11.08 2
      vertex 35.4915 11.08 4
      vertex 33.3325 16.6578 2
    endloop
  endfacet
  facet normal -0.932576 -0.360973 -0
    outer loop
      vertex 33.3325 16.6578 4
      vertex 33.3325 16.6578 2
      vertex 35.4915 11.08 4
    endloop
  endfacet
  facet normal 0 1 0
    outer loop
      vertex 29.7915 11.08 2
      vertex 29.7915 11.08 4
      vertex 35.4915 11.08 2
    endloop
  endfacet
  facet normal 0 1 0
    outer loop
      vertex 35.4915 11.08 4
      vertex 35.4915 11.08 2
      vertex 29.7915 11.08 4
    endloop
  endfacet
endsolid OpenSCAD_Model
