solid OpenSCAD_Model
  facet normal 0 0 -1
    outer loop
      vertex 9.49699 20.296 2
      vertex 20.364 20.296 2
      vertex 18.011 18.604 2
    endloop
  endfacet
  facet normal 0 0 -1
    outer loop
      vertex 11.058 6.69199 2
      vertex 20.874 6.69199 2
      vertex 20.874 5 2
    endloop
  endfacet
  facet normal 0 0 -1
    outer loop
      vertex 11.058 6.69199 2
      vertex 8.70499 5 2
      vertex 8.70499 6.55099 2
    endloop
  endfacet
  facet normal 0 0 -1
    outer loop
      vertex 9.49699 18.604 2
      vertex 9.49699 20.296 2
      vertex 18.011 18.604 2
    endloop
  endfacet
  facet normal 0 0 -1
    outer loop
      vertex 20.874 5 2
      vertex 8.70499 5 2
      vertex 11.058 6.69199 2
    endloop
  endfacet
  facet normal 0 0 -1
    outer loop
      vertex 11.058 6.69199 2
      vertex 18.011 18.604 2
      vertex 20.364 18.789 2
    endloop
  endfacet
  facet normal 0 0 -1
    outer loop
      vertex 18.011 18.604 2
      vertex 20.364 20.296 2
      vertex 20.364 18.789 2
    endloop
  endfacet
  facet normal -0 0 -1
    outer loop
      vertex 11.058 6.69199 2
      vertex 8.70499 6.55099 2
      vertex 18.011 18.604 2
    endloop
  endfacet
  facet normal 0 0 -1
    outer loop
      vertex 29.1115 12.632 2
      vertex 36.4514 20.296 2
      vertex 32.3985 13.652 2
    endloop
  endfacet
  facet normal 0 0 -1
    outer loop
      vertex 29.1115 12.632 2
      vertex 27.0405 20.296 2
      vertex 29.1115 20.296 2
    endloop
  endfacet
  facet normal 0 0 -1
    outer loop
      vertex 39.7574 5 2
      vertex 37.1875 5 2
      vertex 32.3985 13.652 2
    endloop
  endfacet
  facet normal -0 0 -1
    outer loop
      vertex 38.8914 20.296 2
      vertex 32.3985 13.652 2
      vertex 36.4514 20.296 2
    endloop
  endfacet
  facet normal 0 -0 -1
    outer loop
      vertex 32.3985 13.652 2
      vertex 37.1875 5 2
      vertex 31.1004 12.382 2
    endloop
  endfacet
  facet normal 0 0 -1
    outer loop
      vertex 29.1115 10.862 2
      vertex 29.1115 12.632 2
      vertex 31.1004 12.382 2
    endloop
  endfacet
  facet normal 0 0 -1
    outer loop
      vertex 29.1115 12.632 2
      vertex 32.3985 13.652 2
      vertex 31.1004 12.382 2
    endloop
  endfacet
  facet normal 0 0 -1
    outer loop
      vertex 29.1115 5 2
      vertex 27.0405 5 2
      vertex 29.1115 10.862 2
    endloop
  endfacet
  facet normal -0 0 -1
    outer loop
      vertex 29.1115 12.632 2
      vertex 27.0405 5 2
      vertex 27.0405 20.296 2
    endloop
  endfacet
  facet normal -0 0 -1
    outer loop
      vertex 29.1115 10.862 2
      vertex 27.0405 5 2
      vertex 29.1115 12.632 2
    endloop
  endfacet
  facet normal 0 -0 1
    outer loop
      vertex 18.011 18.604 4
      vertex 20.364 20.296 4
      vertex 9.49699 20.296 4
    endloop
  endfacet
  facet normal 0 -0 1
    outer loop
      vertex 20.874 5 4
      vertex 20.874 6.69199 4
      vertex 11.058 6.69199 4
    endloop
  endfacet
  facet normal -0 0 1
    outer loop
      vertex 8.70499 6.55099 4
      vertex 8.70499 5 4
      vertex 11.058 6.69199 4
    endloop
  endfacet
  facet normal 0 0 1
    outer loop
      vertex 18.011 18.604 4
      vertex 9.49699 20.296 4
      vertex 9.49699 18.604 4
    endloop
  endfacet
  facet normal 0 0 1
    outer loop
      vertex 11.058 6.69199 4
      vertex 8.70499 5 4
      vertex 20.874 5 4
    endloop
  endfacet
  facet normal 0 0 1
    outer loop
      vertex 20.364 18.789 4
      vertex 18.011 18.604 4
      vertex 11.058 6.69199 4
    endloop
  endfacet
  facet normal 0 -0 1
    outer loop
      vertex 20.364 18.789 4
      vertex 20.364 20.296 4
      vertex 18.011 18.604 4
    endloop
  endfacet
  facet normal 0 0 1
    outer loop
      vertex 18.011 18.604 4
      vertex 8.70499 6.55099 4
      vertex 11.058 6.69199 4
    endloop
  endfacet
  facet normal 0 -0 1
    outer loop
      vertex 32.3985 13.652 4
      vertex 36.4514 20.296 4
      vertex 29.1115 12.632 4
    endloop
  endfacet
  facet normal 0 0 1
    outer loop
      vertex 29.1115 20.296 4
      vertex 27.0405 20.296 4
      vertex 29.1115 12.632 4
    endloop
  endfacet
  facet normal 0 0 1
    outer loop
      vertex 32.3985 13.652 4
      vertex 37.1875 5 4
      vertex 39.7574 5 4
    endloop
  endfacet
  facet normal -0 0 1
    outer loop
      vertex 36.4514 20.296 4
      vertex 32.3985 13.652 4
      vertex 38.8914 20.296 4
    endloop
  endfacet
  facet normal -0 0 1
    outer loop
      vertex 31.1004 12.382 4
      vertex 37.1875 5 4
      vertex 32.3985 13.652 4
    endloop
  endfacet
  facet normal 0 0 1
    outer loop
      vertex 31.1004 12.382 4
      vertex 29.1115 12.632 4
      vertex 29.1115 10.862 4
    endloop
  endfacet
  facet normal 0 -0 1
    outer loop
      vertex 31.1004 12.382 4
      vertex 32.3985 13.652 4
      vertex 29.1115 12.632 4
    endloop
  endfacet
  facet normal 0 0 1
    outer loop
      vertex 29.1115 10.862 4
      vertex 27.0405 5 4
      vertex 29.1115 5 4
    endloop
  endfacet
  facet normal 0 0 1
    outer loop
      vertex 27.0405 20.296 4
      vertex 27.0405 5 4
      vertex 29.1115 12.632 4
    endloop
  endfacet
  facet normal 0 0 1
    outer loop
      vertex 29.1115 12.632 4
      vertex 27.0405 5 4
      vertex 29.1115 10.862 4
    endloop
  endfacet
  facet normal 0 1 0
    outer loop
      vertex 11.058 6.69199 2
      vertex 20.874 6.69199 4
      vertex 20.874 6.69199 2
    endloop
  endfacet
  facet normal 0 1 0
    outer loop
      vertex 11.058 6.69199 2
      vertex 11.058 6.69199 4
      vertex 20.874 6.69199 4
    endloop
  endfacet
  facet normal 0.792605 -0.609736 0
    outer loop
      vertex 20.364 18.789 2
      vertex 11.058 6.69199 4
      vertex 11.058 6.69199 2
    endloop
  endfacet
  facet normal 0.792605 -0.609736 0
    outer loop
      vertex 20.364 18.789 2
      vertex 20.364 18.789 4
      vertex 11.058 6.69199 4
    endloop
  endfacet
  facet normal 1 0 0
    outer loop
      vertex 20.364 20.296 2
      vertex 20.364 18.789 4
      vertex 20.364 18.789 2
    endloop
  endfacet
  facet normal 1 0 -0
    outer loop
      vertex 20.364 20.296 2
      vertex 20.364 20.296 4
      vertex 20.364 18.789 4
    endloop
  endfacet
  facet normal 0 1 0
    outer loop
      vertex 9.49699 20.296 2
      vertex 20.364 20.296 4
      vertex 20.364 20.296 2
    endloop
  endfacet
  facet normal 0 1 0
    outer loop
      vertex 9.49699 20.296 2
      vertex 9.49699 20.296 4
      vertex 20.364 20.296 4
    endloop
  endfacet
  facet normal -1 0 0
    outer loop
      vertex 9.49699 18.604 2
      vertex 9.49699 20.296 4
      vertex 9.49699 20.296 2
    endloop
  endfacet
  facet normal -1 0 0
    outer loop
      vertex 9.49699 18.604 2
      vertex 9.49699 18.604 4
      vertex 9.49699 20.296 4
    endloop
  endfacet
  facet normal 0 -1 0
    outer loop
      vertex 18.011 18.604 2
      vertex 9.49699 18.604 4
      vertex 9.49699 18.604 2
    endloop
  endfacet
  facet normal 0 -1 0
    outer loop
      vertex 18.011 18.604 2
      vertex 18.011 18.604 4
      vertex 9.49699 18.604 4
    endloop
  endfacet
  facet normal -0.791529 0.611132 0
    outer loop
      vertex 8.70499 6.55099 2
      vertex 18.011 18.604 4
      vertex 18.011 18.604 2
    endloop
  endfacet
  facet normal -0.791529 0.611132 0
    outer loop
      vertex 8.70499 6.55099 2
      vertex 8.70499 6.55099 4
      vertex 18.011 18.604 4
    endloop
  endfacet
  facet normal -1 0 0
    outer loop
      vertex 8.70499 5 2
      vertex 8.70499 6.55099 4
      vertex 8.70499 6.55099 2
    endloop
  endfacet
  facet normal -1 0 0
    outer loop
      vertex 8.70499 5 2
      vertex 8.70499 5 4
      vertex 8.70499 6.55099 4
    endloop
  endfacet
  facet normal 0 -1 0
    outer loop
      vertex 20.874 5 2
      vertex 8.70499 5 4
      vertex 8.70499 5 2
    endloop
  endfacet
  facet normal 0 -1 0
    outer loop
      vertex 20.874 5 2
      vertex 20.874 5 4
      vertex 8.70499 5 4
    endloop
  endfacet
  facet normal 1 0 0
    outer loop
      vertex 20.874 6.69199 2
      vertex 20.874 5 4
      vertex 20.874 5 2
    endloop
  endfacet
  facet normal 1 0 -0
    outer loop
      vertex 20.874 6.69199 2
      vertex 20.874 6.69199 4
      vertex 20.874 5 4
    endloop
  endfacet
  facet normal 0.607196 -0.794552 0
    outer loop
      vertex 31.1004 12.382 2
      vertex 29.1115 10.862 4
      vertex 29.1115 10.862 2
    endloop
  endfacet
  facet normal 0.607196 -0.794552 0
    outer loop
      vertex 31.1004 12.382 2
      vertex 31.1004 12.382 4
      vertex 29.1115 10.862 4
    endloop
  endfacet
  facet normal -0.771534 -0.636188 0
    outer loop
      vertex 37.1875 5 2
      vertex 31.1004 12.382 4
      vertex 31.1004 12.382 2
    endloop
  endfacet
  facet normal -0.771534 -0.636188 0
    outer loop
      vertex 37.1875 5 2
      vertex 37.1875 5 4
      vertex 31.1004 12.382 4
    endloop
  endfacet
  facet normal 0 -1 0
    outer loop
      vertex 39.7574 5 2
      vertex 37.1875 5 4
      vertex 37.1875 5 2
    endloop
  endfacet
  facet normal 0 -1 0
    outer loop
      vertex 39.7574 5 2
      vertex 39.7574 5 4
      vertex 37.1875 5 4
    endloop
  endfacet
  facet normal 0.761731 0.647894 0
    outer loop
      vertex 32.3985 13.652 2
      vertex 39.7574 5 4
      vertex 39.7574 5 2
    endloop
  endfacet
  facet normal 0.761731 0.647894 -0
    outer loop
      vertex 32.3985 13.652 2
      vertex 32.3985 13.652 4
      vertex 39.7574 5 4
    endloop
  endfacet
  facet normal 0.715187 -0.698933 0
    outer loop
      vertex 38.8914 20.296 2
      vertex 32.3985 13.652 4
      vertex 32.3985 13.652 2
    endloop
  endfacet
  facet normal 0.715187 -0.698933 0
    outer loop
      vertex 38.8914 20.296 2
      vertex 38.8914 20.296 4
      vertex 32.3985 13.652 4
    endloop
  endfacet
  facet normal 0 1 0
    outer loop
      vertex 36.4514 20.296 2
      vertex 38.8914 20.296 4
      vertex 38.8914 20.296 2
    endloop
  endfacet
  facet normal 0 1 0
    outer loop
      vertex 36.4514 20.296 2
      vertex 36.4514 20.296 4
      vertex 38.8914 20.296 4
    endloop
  endfacet
  facet normal -0.722208 0.691676 0
    outer loop
      vertex 29.1115 12.632 2
      vertex 36.4514 20.296 4
      vertex 36.4514 20.296 2
    endloop
  endfacet
  facet normal -0.722208 0.691676 0
    outer loop
      vertex 29.1115 12.632 2
      vertex 29.1115 12.632 4
      vertex 36.4514 20.296 4
    endloop
  endfacet
  facet normal 1 0 0
    outer loop
      vertex 29.1115 20.296 2
      vertex 29.1115 12.632 4
      vertex 29.1115 12.632 2
    endloop
  endfacet
  facet normal 1 0 -0
    outer loop
      vertex 29.1115 20.296 2
      vertex 29.1115 20.296 4
      vertex 29.1115 12.632 4
    endloop
  endfacet
  facet normal 0 1 0
    outer loop
      vertex 27.0405 20.296 2
      vertex 29.1115 20.296 4
      vertex 29.1115 20.296 2
    endloop
  endfacet
  facet normal 0 1 0
    outer loop
      vertex 27.0405 20.296 2
      vertex 27.0405 20.296 4
      vertex 29.1115 20.296 4
    endloop
  endfacet
  facet normal -1 0 0
    outer loop
      vertex 27.0405 5 2
      vertex 27.0405 20.296 4
      vertex 27.0405 20.296 2
    endloop
  endfacet
  facet normal -1 0 0
    outer loop
      vertex 27.0405 5 2
      vertex 27.0405 5 4
      vertex 27.0405 20.296 4
    endloop
  endfacet
  facet normal 0 -1 0
    outer loop
      vertex 29.1115 5 2
      vertex 27.0405 5 4
      vertex 27.0405 5 2
    endloop
  endfacet
  facet normal 0 -1 0
    outer loop
      vertex 29.1115 5 2
      vertex 29.1115 5 4
      vertex 27.0405 5 4
    endloop
  endfacet
  facet normal 1 0 0
    outer loop
      vertex 29.1115 10.862 2
      vertex 29.1115 5 4
      vertex 29.1115 5 2
    endloop
  endfacet
  facet normal 1 0 -0
    outer loop
      vertex 29.1115 10.862 2
      vertex 29.1115 10.862 4
      vertex 29.1115 5 4
    endloop
  endfacet
endsolid OpenSCAD_Model
