solid OpenSCAD_Model
  facet normal 0 0 -1
    outer loop
      vertex 9.49699 20.296 2
      vertex 20.364 20.296 2
      vertex 18.011 18.604 2
    endloop
  endfacet
  facet normal 0 0 -1
    outer loop
      vertex 11.058 6.69199 2
      vertex 20.874 6.69199 2
      vertex 20.874 5 2
    endloop
  endfacet
  facet normal 0 0 -1
    outer loop
      vertex 11.058 6.69199 2
      vertex 8.70499 5 2
      vertex 8.70499 6.55099 2
    endloop
  endfacet
  facet normal -0 -0 -1
    outer loop
      vertex 33.0314 18.604 2
      vertex 33.0314 5 2
      vertex 30.9705 18.604 2
    endloop
  endfacet
  facet normal 0 0 -1
    outer loop
      vertex 9.49699 18.604 2
      vertex 9.49699 20.296 2
      vertex 18.011 18.604 2
    endloop
  endfacet
  facet normal 0 0 -1
    outer loop
      vertex 20.874 5 2
      vertex 8.70499 5 2
      vertex 11.058 6.69199 2
    endloop
  endfacet
  facet normal 0 0 -1
    outer loop
      vertex 11.058 6.69199 2
      vertex 18.011 18.604 2
      vertex 20.364 18.789 2
    endloop
  endfacet
  facet normal 0 0 -1
    outer loop
      vertex 18.011 18.604 2
      vertex 20.364 20.296 2
      vertex 20.364 18.789 2
    endloop
  endfacet
  facet normal -0 0 -1
    outer loop
      vertex 11.058 6.69199 2
      vertex 8.70499 6.55099 2
      vertex 18.011 18.604 2
    endloop
  endfacet
  facet normal 0 0 -1
    outer loop
      vertex 38.2805 18.604 2
      vertex 33.0314 18.604 2
      vertex 38.2805 20.296 2
    endloop
  endfacet
  facet normal -0 0 -1
    outer loop
      vertex 38.2805 20.296 2
      vertex 33.0314 18.604 2
      vertex 25.7215 20.296 2
    endloop
  endfacet
  facet normal 0 0 -1
    outer loop
      vertex 33.0314 18.604 2
      vertex 30.9705 18.604 2
      vertex 25.7215 20.296 2
    endloop
  endfacet
  facet normal 0 0 -1
    outer loop
      vertex 30.9705 18.604 2
      vertex 25.7215 18.604 2
      vertex 25.7215 20.296 2
    endloop
  endfacet
  facet normal 0 0 -1
    outer loop
      vertex 33.0314 5 2
      vertex 30.9705 5 2
      vertex 30.9705 18.604 2
    endloop
  endfacet
  facet normal 0 -0 1
    outer loop
      vertex 18.011 18.604 4
      vertex 20.364 20.296 4
      vertex 9.49699 20.296 4
    endloop
  endfacet
  facet normal 0 -0 1
    outer loop
      vertex 20.874 5 4
      vertex 20.874 6.69199 4
      vertex 11.058 6.69199 4
    endloop
  endfacet
  facet normal -0 0 1
    outer loop
      vertex 8.70499 6.55099 4
      vertex 8.70499 5 4
      vertex 11.058 6.69199 4
    endloop
  endfacet
  facet normal -0 0 1
    outer loop
      vertex 30.9705 18.604 4
      vertex 33.0314 5 4
      vertex 33.0314 18.604 4
    endloop
  endfacet
  facet normal 0 0 1
    outer loop
      vertex 18.011 18.604 4
      vertex 9.49699 20.296 4
      vertex 9.49699 18.604 4
    endloop
  endfacet
  facet normal 0 0 1
    outer loop
      vertex 11.058 6.69199 4
      vertex 8.70499 5 4
      vertex 20.874 5 4
    endloop
  endfacet
  facet normal 0 0 1
    outer loop
      vertex 20.364 18.789 4
      vertex 18.011 18.604 4
      vertex 11.058 6.69199 4
    endloop
  endfacet
  facet normal 0 -0 1
    outer loop
      vertex 20.364 18.789 4
      vertex 20.364 20.296 4
      vertex 18.011 18.604 4
    endloop
  endfacet
  facet normal 0 0 1
    outer loop
      vertex 18.011 18.604 4
      vertex 8.70499 6.55099 4
      vertex 11.058 6.69199 4
    endloop
  endfacet
  facet normal 0 0 1
    outer loop
      vertex 38.2805 20.296 4
      vertex 33.0314 18.604 4
      vertex 38.2805 18.604 4
    endloop
  endfacet
  facet normal -0 0 1
    outer loop
      vertex 25.7215 20.296 4
      vertex 33.0314 18.604 4
      vertex 38.2805 20.296 4
    endloop
  endfacet
  facet normal 0 0 1
    outer loop
      vertex 25.7215 20.296 4
      vertex 30.9705 18.604 4
      vertex 33.0314 18.604 4
    endloop
  endfacet
  facet normal 0 0 1
    outer loop
      vertex 25.7215 20.296 4
      vertex 25.7215 18.604 4
      vertex 30.9705 18.604 4
    endloop
  endfacet
  facet normal 0 0 1
    outer loop
      vertex 30.9705 18.604 4
      vertex 30.9705 5 4
      vertex 33.0314 5 4
    endloop
  endfacet
  facet normal 0 1 0
    outer loop
      vertex 11.058 6.69199 2
      vertex 20.874 6.69199 4
      vertex 20.874 6.69199 2
    endloop
  endfacet
  facet normal 0 1 0
    outer loop
      vertex 11.058 6.69199 2
      vertex 11.058 6.69199 4
      vertex 20.874 6.69199 4
    endloop
  endfacet
  facet normal 0.792605 -0.609736 0
    outer loop
      vertex 20.364 18.789 2
      vertex 11.058 6.69199 4
      vertex 11.058 6.69199 2
    endloop
  endfacet
  facet normal 0.792605 -0.609736 0
    outer loop
      vertex 20.364 18.789 2
      vertex 20.364 18.789 4
      vertex 11.058 6.69199 4
    endloop
  endfacet
  facet normal 1 0 0
    outer loop
      vertex 20.364 20.296 2
      vertex 20.364 18.789 4
      vertex 20.364 18.789 2
    endloop
  endfacet
  facet normal 1 0 -0
    outer loop
      vertex 20.364 20.296 2
      vertex 20.364 20.296 4
      vertex 20.364 18.789 4
    endloop
  endfacet
  facet normal 0 1 0
    outer loop
      vertex 9.49699 20.296 2
      vertex 20.364 20.296 4
      vertex 20.364 20.296 2
    endloop
  endfacet
  facet normal 0 1 0
    outer loop
      vertex 9.49699 20.296 2
      vertex 9.49699 20.296 4
      vertex 20.364 20.296 4
    endloop
  endfacet
  facet normal -1 0 0
    outer loop
      vertex 9.49699 18.604 2
      vertex 9.49699 20.296 4
      vertex 9.49699 20.296 2
    endloop
  endfacet
  facet normal -1 0 0
    outer loop
      vertex 9.49699 18.604 2
      vertex 9.49699 18.604 4
      vertex 9.49699 20.296 4
    endloop
  endfacet
  facet normal 0 -1 0
    outer loop
      vertex 18.011 18.604 2
      vertex 9.49699 18.604 4
      vertex 9.49699 18.604 2
    endloop
  endfacet
  facet normal 0 -1 0
    outer loop
      vertex 18.011 18.604 2
      vertex 18.011 18.604 4
      vertex 9.49699 18.604 4
    endloop
  endfacet
  facet normal -0.791529 0.611132 0
    outer loop
      vertex 8.70499 6.55099 2
      vertex 18.011 18.604 4
      vertex 18.011 18.604 2
    endloop
  endfacet
  facet normal -0.791529 0.611132 0
    outer loop
      vertex 8.70499 6.55099 2
      vertex 8.70499 6.55099 4
      vertex 18.011 18.604 4
    endloop
  endfacet
  facet normal -1 0 0
    outer loop
      vertex 8.70499 5 2
      vertex 8.70499 6.55099 4
      vertex 8.70499 6.55099 2
    endloop
  endfacet
  facet normal -1 0 0
    outer loop
      vertex 8.70499 5 2
      vertex 8.70499 5 4
      vertex 8.70499 6.55099 4
    endloop
  endfacet
  facet normal 0 -1 0
    outer loop
      vertex 20.874 5 2
      vertex 8.70499 5 4
      vertex 8.70499 5 2
    endloop
  endfacet
  facet normal 0 -1 0
    outer loop
      vertex 20.874 5 2
      vertex 20.874 5 4
      vertex 8.70499 5 4
    endloop
  endfacet
  facet normal 1 0 0
    outer loop
      vertex 20.874 6.69199 2
      vertex 20.874 5 4
      vertex 20.874 5 2
    endloop
  endfacet
  facet normal 1 0 -0
    outer loop
      vertex 20.874 6.69199 2
      vertex 20.874 6.69199 4
      vertex 20.874 5 4
    endloop
  endfacet
  facet normal 0 -1 0
    outer loop
      vertex 38.2805 18.604 2
      vertex 33.0314 18.604 4
      vertex 33.0314 18.604 2
    endloop
  endfacet
  facet normal 0 -1 0
    outer loop
      vertex 38.2805 18.604 2
      vertex 38.2805 18.604 4
      vertex 33.0314 18.604 4
    endloop
  endfacet
  facet normal 1 0 0
    outer loop
      vertex 38.2805 20.296 2
      vertex 38.2805 18.604 4
      vertex 38.2805 18.604 2
    endloop
  endfacet
  facet normal 1 0 -0
    outer loop
      vertex 38.2805 20.296 2
      vertex 38.2805 20.296 4
      vertex 38.2805 18.604 4
    endloop
  endfacet
  facet normal 0 1 0
    outer loop
      vertex 25.7215 20.296 2
      vertex 38.2805 20.296 4
      vertex 38.2805 20.296 2
    endloop
  endfacet
  facet normal 0 1 0
    outer loop
      vertex 25.7215 20.296 2
      vertex 25.7215 20.296 4
      vertex 38.2805 20.296 4
    endloop
  endfacet
  facet normal -1 0 0
    outer loop
      vertex 25.7215 18.604 2
      vertex 25.7215 20.296 4
      vertex 25.7215 20.296 2
    endloop
  endfacet
  facet normal -1 0 0
    outer loop
      vertex 25.7215 18.604 2
      vertex 25.7215 18.604 4
      vertex 25.7215 20.296 4
    endloop
  endfacet
  facet normal 0 -1 0
    outer loop
      vertex 30.9705 18.604 2
      vertex 25.7215 18.604 4
      vertex 25.7215 18.604 2
    endloop
  endfacet
  facet normal 0 -1 0
    outer loop
      vertex 30.9705 18.604 2
      vertex 30.9705 18.604 4
      vertex 25.7215 18.604 4
    endloop
  endfacet
  facet normal -1 0 0
    outer loop
      vertex 30.9705 5 2
      vertex 30.9705 18.604 4
      vertex 30.9705 18.604 2
    endloop
  endfacet
  facet normal -1 0 0
    outer loop
      vertex 30.9705 5 2
      vertex 30.9705 5 4
      vertex 30.9705 18.604 4
    endloop
  endfacet
  facet normal 0 -1 0
    outer loop
      vertex 33.0314 5 2
      vertex 30.9705 5 4
      vertex 30.9705 5 2
    endloop
  endfacet
  facet normal 0 -1 0
    outer loop
      vertex 33.0314 5 2
      vertex 33.0314 5 4
      vertex 30.9705 5 4
    endloop
  endfacet
  facet normal 1 0 0
    outer loop
      vertex 33.0314 18.604 2
      vertex 33.0314 5 4
      vertex 33.0314 5 2
    endloop
  endfacet
  facet normal 1 0 -0
    outer loop
      vertex 33.0314 18.604 2
      vertex 33.0314 18.604 4
      vertex 33.0314 5 4
    endloop
  endfacet
endsolid OpenSCAD_Model
