solid OpenSCAD_Model
  facet normal 0 0 -1
    outer loop
      vertex 9.49699 20.296 2
      vertex 20.364 20.296 2
      vertex 18.011 18.604 2
    endloop
  endfacet
  facet normal 0 0 -1
    outer loop
      vertex 11.058 6.69199 2
      vertex 20.874 6.69199 2
      vertex 20.874 5 2
    endloop
  endfacet
  facet normal 0 0 -1
    outer loop
      vertex 11.058 6.69199 2
      vertex 8.70499 5 2
      vertex 8.70499 6.55099 2
    endloop
  endfacet
  facet normal 0 -0 -1
    outer loop
      vertex 33.5334 9.52499 2
      vertex 33.6884 5 2
      vertex 32.6255 6.82199 2
    endloop
  endfacet
  facet normal -0 0 -1
    outer loop
      vertex 39.9095 20.296 2
      vertex 33.5334 9.52499 2
      vertex 37.7294 20.296 2
    endloop
  endfacet
  facet normal 0 0 -1
    outer loop
      vertex 9.49699 18.604 2
      vertex 9.49699 20.296 2
      vertex 18.011 18.604 2
    endloop
  endfacet
  facet normal 0 0 -1
    outer loop
      vertex 20.874 5 2
      vertex 8.70499 5 2
      vertex 11.058 6.69199 2
    endloop
  endfacet
  facet normal 0 0 -1
    outer loop
      vertex 11.058 6.69199 2
      vertex 18.011 18.604 2
      vertex 20.364 18.789 2
    endloop
  endfacet
  facet normal 0 0 -1
    outer loop
      vertex 18.011 18.604 2
      vertex 20.364 20.296 2
      vertex 20.364 18.789 2
    endloop
  endfacet
  facet normal -0 0 -1
    outer loop
      vertex 11.058 6.69199 2
      vertex 8.70499 6.55099 2
      vertex 18.011 18.604 2
    endloop
  endfacet
  facet normal 0 0 -1
    outer loop
      vertex 31.7164 9.52499 2
      vertex 25.3195 20.296 2
      vertex 27.4985 20.296 2
    endloop
  endfacet
  facet normal 0 0 -1
    outer loop
      vertex 33.6884 5 2
      vertex 33.5334 9.52499 2
      vertex 39.9095 20.296 2
    endloop
  endfacet
  facet normal 0 0 -1
    outer loop
      vertex 33.6884 5 2
      vertex 31.5415 5 2
      vertex 32.6255 6.82199 2
    endloop
  endfacet
  facet normal 0 0 -1
    outer loop
      vertex 31.5415 5 2
      vertex 31.7164 9.52499 2
      vertex 32.6255 6.82199 2
    endloop
  endfacet
  facet normal -0 0 -1
    outer loop
      vertex 31.7164 9.52499 2
      vertex 31.5415 5 2
      vertex 25.3195 20.296 2
    endloop
  endfacet
  facet normal 0 -0 1
    outer loop
      vertex 18.011 18.604 4
      vertex 20.364 20.296 4
      vertex 9.49699 20.296 4
    endloop
  endfacet
  facet normal 0 -0 1
    outer loop
      vertex 20.874 5 4
      vertex 20.874 6.69199 4
      vertex 11.058 6.69199 4
    endloop
  endfacet
  facet normal -0 0 1
    outer loop
      vertex 8.70499 6.55099 4
      vertex 8.70499 5 4
      vertex 11.058 6.69199 4
    endloop
  endfacet
  facet normal -0 0 1
    outer loop
      vertex 32.6255 6.82199 4
      vertex 33.6884 5 4
      vertex 33.5334 9.52499 4
    endloop
  endfacet
  facet normal -0 0 1
    outer loop
      vertex 37.7294 20.296 4
      vertex 33.5334 9.52499 4
      vertex 39.9095 20.296 4
    endloop
  endfacet
  facet normal 0 0 1
    outer loop
      vertex 18.011 18.604 4
      vertex 9.49699 20.296 4
      vertex 9.49699 18.604 4
    endloop
  endfacet
  facet normal 0 0 1
    outer loop
      vertex 11.058 6.69199 4
      vertex 8.70499 5 4
      vertex 20.874 5 4
    endloop
  endfacet
  facet normal 0 0 1
    outer loop
      vertex 20.364 18.789 4
      vertex 18.011 18.604 4
      vertex 11.058 6.69199 4
    endloop
  endfacet
  facet normal 0 -0 1
    outer loop
      vertex 20.364 18.789 4
      vertex 20.364 20.296 4
      vertex 18.011 18.604 4
    endloop
  endfacet
  facet normal 0 0 1
    outer loop
      vertex 18.011 18.604 4
      vertex 8.70499 6.55099 4
      vertex 11.058 6.69199 4
    endloop
  endfacet
  facet normal 0 0 1
    outer loop
      vertex 27.4985 20.296 4
      vertex 25.3195 20.296 4
      vertex 31.7164 9.52499 4
    endloop
  endfacet
  facet normal 0 0 1
    outer loop
      vertex 39.9095 20.296 4
      vertex 33.5334 9.52499 4
      vertex 33.6884 5 4
    endloop
  endfacet
  facet normal 0 0 1
    outer loop
      vertex 32.6255 6.82199 4
      vertex 31.5415 5 4
      vertex 33.6884 5 4
    endloop
  endfacet
  facet normal 0 0 1
    outer loop
      vertex 32.6255 6.82199 4
      vertex 31.7164 9.52499 4
      vertex 31.5415 5 4
    endloop
  endfacet
  facet normal 0 0 1
    outer loop
      vertex 25.3195 20.296 4
      vertex 31.5415 5 4
      vertex 31.7164 9.52499 4
    endloop
  endfacet
  facet normal 0 1 0
    outer loop
      vertex 11.058 6.69199 2
      vertex 20.874 6.69199 4
      vertex 20.874 6.69199 2
    endloop
  endfacet
  facet normal 0 1 0
    outer loop
      vertex 11.058 6.69199 2
      vertex 11.058 6.69199 4
      vertex 20.874 6.69199 4
    endloop
  endfacet
  facet normal 0.792605 -0.609736 0
    outer loop
      vertex 20.364 18.789 2
      vertex 11.058 6.69199 4
      vertex 11.058 6.69199 2
    endloop
  endfacet
  facet normal 0.792605 -0.609736 0
    outer loop
      vertex 20.364 18.789 2
      vertex 20.364 18.789 4
      vertex 11.058 6.69199 4
    endloop
  endfacet
  facet normal 1 0 0
    outer loop
      vertex 20.364 20.296 2
      vertex 20.364 18.789 4
      vertex 20.364 18.789 2
    endloop
  endfacet
  facet normal 1 0 -0
    outer loop
      vertex 20.364 20.296 2
      vertex 20.364 20.296 4
      vertex 20.364 18.789 4
    endloop
  endfacet
  facet normal 0 1 0
    outer loop
      vertex 9.49699 20.296 2
      vertex 20.364 20.296 4
      vertex 20.364 20.296 2
    endloop
  endfacet
  facet normal 0 1 0
    outer loop
      vertex 9.49699 20.296 2
      vertex 9.49699 20.296 4
      vertex 20.364 20.296 4
    endloop
  endfacet
  facet normal -1 0 0
    outer loop
      vertex 9.49699 18.604 2
      vertex 9.49699 20.296 4
      vertex 9.49699 20.296 2
    endloop
  endfacet
  facet normal -1 0 0
    outer loop
      vertex 9.49699 18.604 2
      vertex 9.49699 18.604 4
      vertex 9.49699 20.296 4
    endloop
  endfacet
  facet normal 0 -1 0
    outer loop
      vertex 18.011 18.604 2
      vertex 9.49699 18.604 4
      vertex 9.49699 18.604 2
    endloop
  endfacet
  facet normal 0 -1 0
    outer loop
      vertex 18.011 18.604 2
      vertex 18.011 18.604 4
      vertex 9.49699 18.604 4
    endloop
  endfacet
  facet normal -0.791529 0.611132 0
    outer loop
      vertex 8.70499 6.55099 2
      vertex 18.011 18.604 4
      vertex 18.011 18.604 2
    endloop
  endfacet
  facet normal -0.791529 0.611132 0
    outer loop
      vertex 8.70499 6.55099 2
      vertex 8.70499 6.55099 4
      vertex 18.011 18.604 4
    endloop
  endfacet
  facet normal -1 0 0
    outer loop
      vertex 8.70499 5 2
      vertex 8.70499 6.55099 4
      vertex 8.70499 6.55099 2
    endloop
  endfacet
  facet normal -1 0 0
    outer loop
      vertex 8.70499 5 2
      vertex 8.70499 5 4
      vertex 8.70499 6.55099 4
    endloop
  endfacet
  facet normal 0 -1 0
    outer loop
      vertex 20.874 5 2
      vertex 8.70499 5 4
      vertex 8.70499 5 2
    endloop
  endfacet
  facet normal 0 -1 0
    outer loop
      vertex 20.874 5 2
      vertex 20.874 5 4
      vertex 8.70499 5 4
    endloop
  endfacet
  facet normal 1 0 0
    outer loop
      vertex 20.874 6.69199 2
      vertex 20.874 5 4
      vertex 20.874 5 2
    endloop
  endfacet
  facet normal 1 0 -0
    outer loop
      vertex 20.874 6.69199 2
      vertex 20.874 6.69199 4
      vertex 20.874 5 4
    endloop
  endfacet
  facet normal 0 1 0
    outer loop
      vertex 37.7294 20.296 2
      vertex 39.9095 20.296 4
      vertex 39.9095 20.296 2
    endloop
  endfacet
  facet normal 0 1 0
    outer loop
      vertex 37.7294 20.296 2
      vertex 37.7294 20.296 4
      vertex 39.9095 20.296 4
    endloop
  endfacet
  facet normal -0.931792 0.362993 0
    outer loop
      vertex 33.5334 9.52499 2
      vertex 37.7294 20.296 4
      vertex 37.7294 20.296 2
    endloop
  endfacet
  facet normal -0.931792 0.362993 0
    outer loop
      vertex 33.5334 9.52499 2
      vertex 33.5334 9.52499 4
      vertex 37.7294 20.296 4
    endloop
  endfacet
  facet normal -0.947945 0.318433 0
    outer loop
      vertex 32.6255 6.82199 2
      vertex 33.5334 9.52499 4
      vertex 33.5334 9.52499 2
    endloop
  endfacet
  facet normal -0.947945 0.318433 0
    outer loop
      vertex 32.6255 6.82199 2
      vertex 32.6255 6.82199 4
      vertex 33.5334 9.52499 4
    endloop
  endfacet
  facet normal 0.947837 0.318755 0
    outer loop
      vertex 31.7164 9.52499 2
      vertex 32.6255 6.82199 4
      vertex 32.6255 6.82199 2
    endloop
  endfacet
  facet normal 0.947837 0.318755 -0
    outer loop
      vertex 31.7164 9.52499 2
      vertex 31.7164 9.52499 4
      vertex 32.6255 6.82199 4
    endloop
  endfacet
  facet normal 0.931147 0.364643 0
    outer loop
      vertex 27.4985 20.296 2
      vertex 31.7164 9.52499 4
      vertex 31.7164 9.52499 2
    endloop
  endfacet
  facet normal 0.931147 0.364643 -0
    outer loop
      vertex 27.4985 20.296 2
      vertex 27.4985 20.296 4
      vertex 31.7164 9.52499 4
    endloop
  endfacet
  facet normal 0 1 0
    outer loop
      vertex 25.3195 20.296 2
      vertex 27.4985 20.296 4
      vertex 27.4985 20.296 2
    endloop
  endfacet
  facet normal 0 1 0
    outer loop
      vertex 25.3195 20.296 2
      vertex 25.3195 20.296 4
      vertex 27.4985 20.296 4
    endloop
  endfacet
  facet normal -0.926297 -0.376793 0
    outer loop
      vertex 31.5415 5 2
      vertex 25.3195 20.296 4
      vertex 25.3195 20.296 2
    endloop
  endfacet
  facet normal -0.926297 -0.376793 0
    outer loop
      vertex 31.5415 5 2
      vertex 31.5415 5 4
      vertex 25.3195 20.296 4
    endloop
  endfacet
  facet normal 0 -1 0
    outer loop
      vertex 33.6884 5 2
      vertex 31.5415 5 4
      vertex 31.5415 5 2
    endloop
  endfacet
  facet normal 0 -1 0
    outer loop
      vertex 33.6884 5 2
      vertex 33.6884 5 4
      vertex 31.5415 5 4
    endloop
  endfacet
  facet normal 0.926318 -0.376742 0
    outer loop
      vertex 39.9095 20.296 2
      vertex 33.6884 5 4
      vertex 33.6884 5 2
    endloop
  endfacet
  facet normal 0.926318 -0.376742 0
    outer loop
      vertex 39.9095 20.296 2
      vertex 39.9095 20.296 4
      vertex 33.6884 5 4
    endloop
  endfacet
endsolid OpenSCAD_Model
